<svg width="166" height="58" viewBox="0 0 166 58" fill="none" xmlns="http://www.w3.org/2000/svg">
<path d="M90.8573 25.1299C92.229 23.7666 92.7282 22.1474 92.3548 20.2724C91.6523 16.7349 88.2123 15.4049 84.9673 15.7074C84.409 15.7608 83.8448 15.8216 83.2748 15.8899C83.1848 15.9016 83.129 15.8633 83.1073 15.7749L81.8698 10.9574C81.8465 10.8674 81.7898 10.8333 81.6998 10.8549L78.8123 11.5924C78.7373 11.6108 78.709 11.6574 78.7273 11.7324L79.9648 16.5749C79.9697 16.594 79.9706 16.6138 79.9677 16.6332C79.9647 16.6527 79.958 16.6713 79.9477 16.6881C79.9375 16.7049 79.924 16.7194 79.908 16.7309C79.8921 16.7424 79.874 16.7505 79.8548 16.7549L77.6548 17.2774C77.6224 17.2857 77.588 17.2806 77.559 17.2633C77.53 17.246 77.5088 17.2178 77.4998 17.1849L76.2723 12.3849C76.2507 12.3016 76.1973 12.2708 76.1123 12.2924L73.2623 13.0374C73.1623 13.0641 73.1248 13.1283 73.1498 13.2299L74.3923 18.0524C74.414 18.1424 74.3807 18.1991 74.2923 18.2224L68.3048 19.7699C68.2098 19.7949 68.174 19.8549 68.1973 19.9499L68.9898 23.0524C69.0115 23.1374 69.0632 23.1658 69.1448 23.1374C70.3973 22.7174 72.9673 21.6774 73.4823 23.6874C74.5973 28.0424 75.7215 32.3958 76.8548 36.7474C77.1123 37.7274 77.1998 38.5024 76.0548 38.7924C75.3748 38.9658 74.6907 39.1449 74.0023 39.3299C73.9669 39.3388 73.9358 39.36 73.9147 39.3898C73.8935 39.4197 73.8839 39.4561 73.8873 39.4924L74.1973 43.1124C74.2057 43.2091 74.2565 43.2449 74.3498 43.2199L80.3523 41.6824C80.4423 41.6591 80.499 41.6924 80.5223 41.7824L81.7923 46.6974C81.814 46.7808 81.8665 46.8116 81.9498 46.7899L84.8148 46.0424C84.9065 46.0191 84.9407 45.9616 84.9173 45.8699L83.6523 40.9324C83.6307 40.8458 83.6632 40.7916 83.7498 40.7699L85.9598 40.2374C86.0465 40.2174 86.1015 40.2508 86.1248 40.3374L87.3823 45.2374C87.4057 45.3291 87.4632 45.3633 87.5548 45.3399L90.3923 44.6024C90.4923 44.5774 90.5298 44.5149 90.5048 44.4149L89.2523 39.5549C89.2207 39.4316 89.2682 39.3566 89.3948 39.3299C93.2473 38.5349 96.8923 35.8099 96.7548 31.4999C96.6498 28.2374 93.9148 25.8824 90.8998 25.2724C90.7965 25.2508 90.7823 25.2033 90.8573 25.1299Z" stroke="#85E0C7" stroke-width="2"/>
<path d="M78.6122 21.0697L80.1447 26.9947C80.1577 27.0435 80.1893 27.0853 80.2328 27.1111C80.2763 27.1368 80.3282 27.1444 80.3772 27.1322L83.3222 26.3697C84.433 26.0823 85.4136 25.4792 86.0484 24.693C86.6831 23.9068 86.9201 23.0019 86.7072 22.1772L86.6872 22.0997C86.5818 21.6911 86.3689 21.3145 86.0607 20.9914C85.7526 20.6684 85.3552 20.4052 84.8914 20.2169C84.4275 20.0286 83.9062 19.9189 83.3573 19.8941C82.8084 19.8693 82.2426 19.9298 81.6922 20.0722L78.7497 20.8347C78.7253 20.8411 78.7023 20.8522 78.6822 20.8675C78.662 20.8828 78.6451 20.9019 78.6323 20.9237C78.6195 20.9455 78.6112 20.9697 78.6078 20.9947C78.6043 21.0198 78.6058 21.0452 78.6122 21.0697Z" stroke="#85E0C7" stroke-width="2"/>
<path d="M80.9647 30.4701L82.6797 37.0076C82.6926 37.0576 82.7249 37.1005 82.7694 37.1268C82.814 37.153 82.8671 37.1605 82.9172 37.1476L86.3772 36.2401C87.7226 35.887 88.9201 35.195 89.7064 34.3164C90.4926 33.4378 90.8031 32.4445 90.5697 31.5551L90.5147 31.3476C90.2811 30.4583 89.5228 29.7457 88.4065 29.3664C87.2903 28.9871 85.9075 28.9723 84.5622 29.3251L81.1047 30.2326C81.0546 30.2455 81.0118 30.2778 80.9855 30.3224C80.9593 30.3669 80.9518 30.42 80.9647 30.4701Z" stroke="#85E0C7" stroke-width="2"/>
<path d="M81.3423 0H84.6198C90.8615 0.448333 96.3498 2.55667 101.085 6.325C112.907 15.73 115.602 33.025 106.875 45.45C101.591 52.9733 94.1882 57.1567 84.6648 58H81.3748C73.4715 57.38 66.9165 54.2767 61.7098 48.69C51.4798 37.71 51.4198 20.4825 61.5923 9.44C66.8007 3.78333 73.384 0.636667 81.3423 0ZM90.8573 25.13C92.229 23.7667 92.7282 22.1475 92.3548 20.2725C91.6523 16.735 88.2123 15.405 84.9673 15.7075C84.409 15.7608 83.8448 15.8217 83.2748 15.89C83.1848 15.9017 83.129 15.8633 83.1073 15.775L81.8698 10.9575C81.8465 10.8675 81.7898 10.8333 81.6998 10.855L78.8123 11.5925C78.7373 11.6108 78.709 11.6575 78.7273 11.7325L79.9648 16.575C79.9697 16.594 79.9706 16.6139 79.9677 16.6333C79.9648 16.6527 79.958 16.6714 79.9477 16.6881C79.9375 16.7049 79.924 16.7195 79.908 16.7309C79.8921 16.7424 79.874 16.7506 79.8548 16.755L77.6548 17.2775C77.6224 17.2857 77.588 17.2806 77.559 17.2633C77.53 17.246 77.5088 17.2179 77.4998 17.185L76.2723 12.385C76.2507 12.3017 76.1973 12.2708 76.1123 12.2925L73.2623 13.0375C73.1623 13.0642 73.1248 13.1283 73.1498 13.23L74.3923 18.0525C74.414 18.1425 74.3807 18.1992 74.2923 18.2225L68.3048 19.77C68.2098 19.795 68.174 19.855 68.1973 19.95L68.9898 23.0525C69.0115 23.1375 69.0632 23.1658 69.1448 23.1375C70.3973 22.7175 72.9673 21.6775 73.4823 23.6875C74.5973 28.0425 75.7215 32.3958 76.8548 36.7475C77.1123 37.7275 77.1998 38.5025 76.0548 38.7925C75.3748 38.9658 74.6907 39.145 74.0023 39.33C73.9669 39.3388 73.9358 39.3601 73.9147 39.3899C73.8936 39.4197 73.8839 39.4561 73.8873 39.4925L74.1973 43.1125C74.2057 43.2092 74.2565 43.245 74.3498 43.22L80.3523 41.6825C80.4423 41.6592 80.499 41.6925 80.5223 41.7825L81.7923 46.6975C81.814 46.7808 81.8665 46.8117 81.9498 46.79L84.8148 46.0425C84.9065 46.0192 84.9407 45.9617 84.9173 45.87L83.6523 40.9325C83.6307 40.8458 83.6632 40.7917 83.7498 40.77L85.9598 40.2375C86.0465 40.2175 86.1015 40.2508 86.1248 40.3375L87.3823 45.2375C87.4057 45.3292 87.4632 45.3633 87.5548 45.34L90.3923 44.6025C90.4923 44.5775 90.5298 44.515 90.5048 44.415L89.2523 39.555C89.2207 39.4317 89.2682 39.3567 89.3948 39.33C93.2473 38.535 96.8923 35.81 96.7548 31.5C96.6498 28.2375 93.9148 25.8825 90.8998 25.2725C90.7965 25.2508 90.7823 25.2033 90.8573 25.13Z" fill="#0AC18E"/>
<path d="M90.8998 25.2724C93.9148 25.8824 96.6498 28.2374 96.7548 31.4999C96.8923 35.8099 93.2473 38.5349 89.3948 39.3299C89.2682 39.3566 89.2207 39.4316 89.2523 39.5549L90.5048 44.4149C90.5298 44.5149 90.4923 44.5774 90.3923 44.6024L87.5548 45.3399C87.4632 45.3633 87.4057 45.3291 87.3823 45.2374L86.1248 40.3374C86.1015 40.2508 86.0465 40.2174 85.9598 40.2374L83.7498 40.7699C83.6632 40.7916 83.6307 40.8458 83.6523 40.9324L84.9173 45.8699C84.9407 45.9616 84.9065 46.0191 84.8148 46.0424L81.9498 46.7899C81.8665 46.8116 81.814 46.7808 81.7923 46.6974L80.5223 41.7824C80.499 41.6924 80.4423 41.6591 80.3523 41.6824L74.3498 43.2199C74.2565 43.2449 74.2057 43.2091 74.1973 43.1124L73.8873 39.4924C73.8839 39.4561 73.8935 39.4197 73.9147 39.3898C73.9358 39.36 73.9669 39.3388 74.0023 39.3299C74.6907 39.1449 75.3748 38.9658 76.0548 38.7924C77.1998 38.5024 77.1123 37.7274 76.8548 36.7474C75.7215 32.3958 74.5973 28.0424 73.4823 23.6874C72.9673 21.6774 70.3973 22.7174 69.1448 23.1374C69.0632 23.1658 69.0115 23.1374 68.9898 23.0524L68.1973 19.9499C68.174 19.8549 68.2098 19.7949 68.3048 19.7699L74.2923 18.2224C74.3807 18.1991 74.414 18.1424 74.3923 18.0524L73.1498 13.2299C73.1248 13.1283 73.1623 13.0641 73.2623 13.0374L76.1123 12.2924C76.1973 12.2708 76.2507 12.3016 76.2723 12.3849L77.4998 17.1849C77.5088 17.2178 77.53 17.246 77.559 17.2633C77.588 17.2806 77.6224 17.2857 77.6548 17.2774L79.8548 16.7549C79.874 16.7505 79.8921 16.7424 79.908 16.7309C79.924 16.7194 79.9375 16.7049 79.9477 16.6881C79.958 16.6713 79.9647 16.6527 79.9677 16.6332C79.9706 16.6138 79.9697 16.594 79.9648 16.5749L78.7273 11.7324C78.709 11.6574 78.7373 11.6108 78.8123 11.5924L81.6998 10.8549C81.7898 10.8333 81.8465 10.8674 81.8698 10.9574L83.1073 15.7749C83.129 15.8633 83.1848 15.9016 83.2748 15.8899C83.8448 15.8216 84.409 15.7608 84.9673 15.7074C88.2123 15.4049 91.6523 16.7349 92.3548 20.2724C92.7282 22.1474 92.229 23.7666 90.8573 25.1299C90.7823 25.2033 90.7965 25.2508 90.8998 25.2724ZM78.6123 21.0699L80.1448 26.9949C80.1578 27.0438 80.1894 27.0856 80.2329 27.1113C80.2764 27.137 80.3283 27.1446 80.3773 27.1324L83.3223 26.3699C84.4331 26.0825 85.4137 25.4795 86.0485 24.6933C86.6832 23.9071 86.9202 23.0021 86.7073 22.1774L86.6873 22.0999C86.5818 21.6913 86.369 21.3147 86.0608 20.9917C85.7527 20.6686 85.3553 20.4054 84.8915 20.2171C84.4276 20.0289 83.9063 19.9192 83.3574 19.8943C82.8085 19.8695 82.2427 19.93 81.6923 20.0724L78.7498 20.8349C78.7254 20.8413 78.7024 20.8525 78.6823 20.8678C78.6621 20.883 78.6452 20.9021 78.6324 20.924C78.6196 20.9458 78.6113 20.9699 78.6078 20.995C78.6044 21.02 78.6059 21.0455 78.6123 21.0699ZM80.9648 30.4699L82.6798 37.0074C82.6928 37.0575 82.7251 37.1004 82.7696 37.1266C82.8141 37.1529 82.8673 37.1604 82.9173 37.1474L86.3773 36.2399C87.7227 35.8868 88.9203 35.1949 89.7065 34.3163C90.4927 33.4377 90.8033 32.4444 90.5698 31.5549L90.5148 31.3474C90.2812 30.4582 89.5229 29.7455 88.4067 29.3662C87.2904 28.987 85.9076 28.9721 84.5623 29.3249L81.1048 30.2324C81.0548 30.2454 81.0119 30.2777 80.9857 30.3222C80.9594 30.3667 80.9519 30.4199 80.9648 30.4699Z" fill="white"/>
<path d="M78.6127 21.0702C78.6063 21.0457 78.6048 21.0202 78.6082 20.9952C78.6117 20.9701 78.62 20.946 78.6328 20.9242C78.6456 20.9024 78.6625 20.8833 78.6827 20.868C78.7028 20.8527 78.7258 20.8416 78.7502 20.8352L81.6927 20.0727C82.2431 19.9303 82.8089 19.8698 83.3578 19.8946C83.9067 19.9194 84.428 20.0291 84.8919 20.2174C85.3557 20.4057 85.7531 20.6689 86.0612 20.9919C86.3694 21.315 86.5822 21.6916 86.6877 22.1002L86.7077 22.1777C86.9206 23.0024 86.6836 23.9073 86.0489 24.6935C85.4141 25.4797 84.4335 26.0828 83.3227 26.3702L80.3777 27.1327C80.3287 27.1449 80.2768 27.1373 80.2333 27.1116C80.1898 27.0858 80.1582 27.044 80.1452 26.9952L78.6127 21.0702Z" fill="#0AC18E"/>
<path d="M80.9652 30.4701C80.9523 30.42 80.9597 30.3669 80.986 30.3224C81.0123 30.2778 81.0551 30.2455 81.1052 30.2326L84.5627 29.3251C85.9079 28.9723 87.2908 28.9871 88.407 29.3664C89.5233 29.7457 90.2816 30.4583 90.5152 31.3476L90.5702 31.5551C90.8036 32.4445 90.4931 33.4378 89.7069 34.3164C88.9206 35.195 87.7231 35.887 86.3777 36.2401L82.9177 37.1476C82.8676 37.1605 82.8145 37.153 82.7699 37.1268C82.7254 37.1005 82.6931 37.0576 82.6802 37.0076L80.9652 30.4701Z" fill="#0AC18E"/>
</svg>
