<svg width="166" height="58" viewBox="0 0 166 58" fill="none" xmlns="http://www.w3.org/2000/svg">
<path d="M83.3548 41.9402C83.4081 41.7185 83.5473 41.6269 83.7723 41.6652C86.3998 42.1277 89.5098 42.3927 91.8323 41.0127C94.0523 39.6952 95.0923 37.0227 95.1998 34.4977C95.2898 32.4077 93.8448 30.5352 92.0448 29.6452C92.0261 29.6361 92.0108 29.6214 92.0009 29.6032C91.991 29.5849 91.987 29.5641 91.9894 29.5435C91.9919 29.5229 92.0007 29.5035 92.0147 29.4882C92.0286 29.4728 92.047 29.4621 92.0673 29.4577C96.3173 28.4977 97.1048 22.4002 93.9098 19.8402C92.6881 18.8635 91.3281 18.1494 89.8298 17.6977C89.7216 17.6644 89.6302 17.5912 89.5744 17.4931C89.5186 17.395 89.5026 17.2794 89.5298 17.1702L90.6973 12.4527C90.7223 12.3527 90.6848 12.2902 90.5848 12.2652L87.6598 11.5427C87.618 11.5329 87.5741 11.54 87.5376 11.5625C87.501 11.585 87.4749 11.621 87.4648 11.6627L86.3123 16.3952C86.284 16.5069 86.214 16.551 86.1023 16.5277L83.9198 16.0652C83.8974 16.0605 83.8762 16.0513 83.8575 16.0383C83.8387 16.0252 83.8228 16.0085 83.8107 15.9891C83.7985 15.9697 83.7904 15.9481 83.7868 15.9255C83.7833 15.9029 83.7843 15.8799 83.7898 15.8577L84.9723 11.1402C85.019 10.9569 84.9498 10.8435 84.7648 10.8002L82.1098 10.1852C81.8798 10.1335 81.7365 10.2219 81.6798 10.4502L80.5848 14.8827C80.5115 15.176 80.329 15.2852 80.0373 15.2102L74.1948 13.7202C74.1131 13.6985 74.0623 13.7285 74.0423 13.8102L73.2148 17.1152C73.2115 17.1287 73.2112 17.1428 73.2138 17.1565C73.2164 17.1702 73.2219 17.1832 73.23 17.1945C73.238 17.2059 73.2484 17.2154 73.2605 17.2224C73.2725 17.2295 73.2859 17.2338 73.2998 17.2352C74.2348 17.3227 75.7573 17.6902 76.4023 18.0952C76.9773 18.4569 77.1581 19.051 76.9448 19.8777C75.7731 24.4294 74.6481 28.9919 73.5698 33.5652C73.1523 35.3377 71.0098 34.3702 69.9373 34.0552C69.8702 34.0358 69.7983 34.0414 69.7349 34.0708C69.6715 34.1001 69.6209 34.1514 69.5923 34.2152L68.1273 37.5477C68.117 37.5707 68.1119 37.5956 68.1123 37.6207C68.1127 37.6458 68.1186 37.6706 68.1296 37.6932C68.1405 37.7158 68.1563 37.7358 68.1757 37.7517C68.1952 37.7676 68.2179 37.779 68.2423 37.7852L74.3748 39.3027C74.4448 39.321 74.4706 39.3652 74.4523 39.4352L73.2023 44.3952C73.1872 44.4569 73.1971 44.522 73.2299 44.5763C73.2627 44.6307 73.3157 44.6698 73.3773 44.6852L76.2623 45.4102C76.306 45.4207 76.3522 45.4135 76.3906 45.3901C76.4291 45.3666 76.4566 45.3289 76.4673 45.2852L77.6673 40.3652C77.6728 40.3423 77.6829 40.3207 77.6969 40.3017C77.7109 40.2827 77.7285 40.2667 77.7488 40.2545C77.769 40.2424 77.7915 40.2345 77.8148 40.2312C77.8382 40.2279 77.862 40.2292 77.8848 40.2352L79.8098 40.7252C79.9127 40.7517 80.0009 40.8179 80.0553 40.9092C80.1096 41.0005 80.1256 41.1096 80.0998 41.2127L78.9373 45.8177C78.9287 45.8514 78.9269 45.8864 78.9319 45.9207C78.937 45.9551 78.9488 45.9881 78.9667 46.0179C78.9846 46.0477 79.0083 46.0736 79.0362 46.0941C79.0642 46.1147 79.096 46.1295 79.1298 46.1377L82.0148 46.8352C82.1065 46.8569 82.1631 46.8219 82.1848 46.7302L83.3548 41.9402Z" stroke="#FCC98D" stroke-width="2"/>
<path d="M82.8124 20.07L81.3799 25.85C81.372 25.8814 81.3705 25.914 81.3753 25.9459C81.3801 25.9779 81.3912 26.0086 81.4079 26.0362C81.4247 26.0639 81.4467 26.088 81.4728 26.1071C81.4989 26.1262 81.5285 26.1399 81.5599 26.1475L84.2349 26.8075C85.4132 27.0988 86.6173 27.0789 87.5825 26.7522C88.5477 26.4255 89.195 25.8186 89.3824 25.065L89.5249 24.4975C89.6174 24.124 89.594 23.7256 89.456 23.3252C89.318 22.9247 89.0681 22.5301 88.7205 22.1637C88.373 21.7974 87.9346 21.4665 87.4305 21.1901C86.9264 20.9136 86.3663 20.697 85.7824 20.5525L83.1074 19.89C83.0444 19.875 82.978 19.8854 82.9227 19.9192C82.8674 19.9529 82.8278 20.0071 82.8124 20.07Z" stroke="#FCC98D" stroke-width="2"/>
<path d="M80.3972 29.6704L78.8572 36.0404C78.8383 36.1176 78.8509 36.1992 78.8922 36.2671C78.9334 36.3351 79 36.3839 79.0772 36.4029L82.1647 37.1504C82.8827 37.324 83.6134 37.4146 84.315 37.417C85.0165 37.4194 85.6753 37.3336 86.2536 37.1643C86.8319 36.9951 87.3184 36.7458 87.6853 36.4307C88.0523 36.1156 88.2925 35.7409 88.3922 35.3279L88.5522 34.6629C88.6523 34.25 88.61 33.8069 88.4277 33.359C88.2454 32.911 87.9267 32.4669 87.4898 32.0521C87.0529 31.6372 86.5064 31.2597 85.8814 30.9412C85.2564 30.6226 84.5652 30.3692 83.8472 30.1954L80.7597 29.4479C80.7213 29.4386 80.6814 29.437 80.6424 29.4431C80.6033 29.4493 80.5659 29.4631 80.5322 29.4838C80.4985 29.5044 80.4692 29.5316 80.4461 29.5636C80.4229 29.5956 80.4063 29.6319 80.3972 29.6704Z" stroke="#FCC98D" stroke-width="2"/>
<path d="M81.7827 0H84.1827C92.7277 0.5175 100.61 4.335 105.805 11.085C114.005 21.74 114.07 35.8975 106.023 46.6475C101.008 53.3475 92.8102 57.4475 84.5302 58H81.4427C74.2194 57.4433 68.0661 54.7725 62.9827 49.9875C57.3477 44.6825 53.9427 36.7475 53.9877 29.005C54.0261 22.655 55.9427 16.8792 59.7377 11.6775C64.8677 4.645 73.1502 0.5025 81.7827 0ZM83.3552 41.94C83.4086 41.7183 83.5477 41.6267 83.7727 41.665C86.4002 42.1275 89.5102 42.3925 91.8327 41.0125C94.0527 39.695 95.0927 37.0225 95.2002 34.4975C95.2902 32.4075 93.8452 30.535 92.0452 29.645C92.0266 29.6359 92.0113 29.6212 92.0013 29.603C91.9914 29.5847 91.9874 29.5639 91.9899 29.5433C91.9924 29.5227 92.0012 29.5033 92.0151 29.488C92.0291 29.4726 92.0475 29.462 92.0677 29.4575C96.3177 28.4975 97.1052 22.4 93.9102 19.84C92.6886 18.8633 91.3286 18.1492 89.8302 17.6975C89.722 17.6642 89.6306 17.591 89.5748 17.4929C89.519 17.3948 89.5031 17.2792 89.5302 17.17L90.6977 12.4525C90.7227 12.3525 90.6852 12.29 90.5852 12.265L87.6602 11.5425C87.6185 11.5327 87.5745 11.5398 87.538 11.5623C87.5015 11.5848 87.4753 11.6208 87.4652 11.6625L86.3127 16.395C86.2844 16.5067 86.2144 16.5508 86.1027 16.5275L83.9202 16.065C83.8979 16.0603 83.8767 16.0511 83.8579 16.0381C83.8392 16.025 83.8233 16.0083 83.8111 15.9889C83.799 15.9695 83.7909 15.9479 83.7873 15.9253C83.7837 15.9027 83.7847 15.8797 83.7902 15.8575L84.9727 11.14C85.0194 10.9567 84.9502 10.8433 84.7652 10.8L82.1102 10.185C81.8802 10.1333 81.7369 10.2217 81.6802 10.45L80.5852 14.8825C80.5119 15.1758 80.3294 15.285 80.0377 15.21L74.1952 13.72C74.1136 13.6983 74.0627 13.7283 74.0427 13.81L73.2152 17.115C73.212 17.1285 73.2116 17.1426 73.2142 17.1563C73.2169 17.17 73.2224 17.183 73.2304 17.1943C73.2385 17.2057 73.2489 17.2152 73.2609 17.2222C73.273 17.2293 73.2864 17.2336 73.3002 17.235C74.2352 17.3225 75.7577 17.69 76.4027 18.095C76.9777 18.4567 77.1586 19.0508 76.9452 19.8775C75.7736 24.4292 74.6486 28.9917 73.5702 33.565C73.1527 35.3375 71.0102 34.37 69.9377 34.055C69.8706 34.0356 69.7987 34.0412 69.7354 34.0706C69.672 34.0999 69.6213 34.1512 69.5927 34.215L68.1277 37.5475C68.1175 37.5705 68.1124 37.5954 68.1128 37.6205C68.1132 37.6456 68.1191 37.6704 68.13 37.693C68.141 37.7156 68.1567 37.7356 68.1762 37.7515C68.1957 37.7674 68.2184 37.7788 68.2427 37.785L74.3752 39.3025C74.4452 39.3208 74.4711 39.365 74.4527 39.435L73.2027 44.395C73.1876 44.4567 73.1976 44.5218 73.2304 44.5761C73.2632 44.6305 73.3162 44.6696 73.3777 44.685L76.2627 45.41C76.3065 45.4205 76.3527 45.4133 76.3911 45.3899C76.4295 45.3664 76.4571 45.3287 76.4677 45.285L77.6677 40.365C77.6733 40.3421 77.6833 40.3205 77.6973 40.3015C77.7113 40.2825 77.729 40.2665 77.7492 40.2543C77.7695 40.2422 77.7919 40.2343 77.8153 40.231C77.8386 40.2277 77.8624 40.229 77.8852 40.235L79.8102 40.725C79.9131 40.7515 80.0014 40.8177 80.0557 40.909C80.11 41.0003 80.126 41.1094 80.1002 41.2125L78.9377 45.8175C78.9292 45.8512 78.9273 45.8862 78.9324 45.9206C78.9374 45.9549 78.9493 45.9879 78.9672 46.0177C78.9851 46.0475 79.0087 46.0734 79.0367 46.0939C79.0647 46.1145 79.0965 46.1293 79.1302 46.1375L82.0152 46.835C82.1069 46.8567 82.1636 46.8217 82.1852 46.73L83.3552 41.94Z" fill="#F8931A"/>
<path d="M83.3548 41.9402L82.1848 46.7302C82.1631 46.8219 82.1065 46.8569 82.0148 46.8352L79.1298 46.1377C79.096 46.1295 79.0642 46.1147 79.0362 46.0941C79.0083 46.0736 78.9846 46.0477 78.9667 46.0179C78.9488 45.9881 78.937 45.9551 78.9319 45.9207C78.9269 45.8864 78.9287 45.8514 78.9373 45.8177L80.0998 41.2127C80.1256 41.1096 80.1096 41.0005 80.0553 40.9092C80.0009 40.8179 79.9127 40.7517 79.8098 40.7252L77.8848 40.2352C77.862 40.2292 77.8382 40.2279 77.8148 40.2312C77.7915 40.2345 77.769 40.2424 77.7488 40.2545C77.7285 40.2667 77.7109 40.2827 77.6969 40.3017C77.6829 40.3207 77.6728 40.3423 77.6673 40.3652L76.4673 45.2852C76.4566 45.3289 76.4291 45.3666 76.3906 45.3901C76.3522 45.4135 76.306 45.4207 76.2623 45.4102L73.3773 44.6852C73.3157 44.6698 73.2627 44.6307 73.2299 44.5763C73.1971 44.522 73.1872 44.4569 73.2023 44.3952L74.4523 39.4352C74.4706 39.3652 74.4448 39.321 74.3748 39.3027L68.2423 37.7852C68.2179 37.779 68.1952 37.7676 68.1757 37.7517C68.1563 37.7358 68.1405 37.7158 68.1296 37.6932C68.1186 37.6706 68.1127 37.6458 68.1123 37.6207C68.1119 37.5956 68.117 37.5707 68.1273 37.5477L69.5923 34.2152C69.6209 34.1514 69.6715 34.1001 69.7349 34.0708C69.7983 34.0414 69.8702 34.0358 69.9373 34.0552C71.0098 34.3702 73.1523 35.3377 73.5698 33.5652C74.6481 28.9919 75.7731 24.4294 76.9448 19.8777C77.1581 19.051 76.9773 18.4569 76.4023 18.0952C75.7573 17.6902 74.2348 17.3227 73.2998 17.2352C73.2859 17.2338 73.2725 17.2295 73.2605 17.2224C73.2484 17.2154 73.238 17.2059 73.23 17.1945C73.2219 17.1832 73.2164 17.1702 73.2138 17.1565C73.2112 17.1428 73.2115 17.1287 73.2148 17.1152L74.0423 13.8102C74.0623 13.7285 74.1131 13.6985 74.1948 13.7202L80.0373 15.2102C80.329 15.2852 80.5115 15.176 80.5848 14.8827L81.6798 10.4502C81.7365 10.2219 81.8798 10.1335 82.1098 10.1852L84.7648 10.8002C84.9498 10.8435 85.019 10.9569 84.9723 11.1402L83.7898 15.8577C83.7843 15.8799 83.7833 15.9029 83.7868 15.9255C83.7904 15.9481 83.7985 15.9697 83.8107 15.9891C83.8228 16.0085 83.8387 16.0252 83.8575 16.0383C83.8762 16.0513 83.8974 16.0605 83.9198 16.0652L86.1023 16.5277C86.214 16.551 86.284 16.5069 86.3123 16.3952L87.4648 11.6627C87.4749 11.621 87.501 11.585 87.5376 11.5625C87.5741 11.54 87.618 11.5329 87.6598 11.5427L90.5848 12.2652C90.6848 12.2902 90.7223 12.3527 90.6973 12.4527L89.5298 17.1702C89.5026 17.2794 89.5186 17.395 89.5744 17.4931C89.6302 17.5912 89.7216 17.6644 89.8298 17.6977C91.3281 18.1494 92.6881 18.8635 93.9098 19.8402C97.1048 22.4002 96.3173 28.4977 92.0673 29.4577C92.047 29.4621 92.0286 29.4728 92.0147 29.4882C92.0007 29.5035 91.9919 29.5229 91.9894 29.5435C91.987 29.5641 91.991 29.5849 92.0009 29.6032C92.0108 29.6214 92.0261 29.6361 92.0448 29.6452C93.8448 30.5352 95.2898 32.4077 95.1998 34.4977C95.0923 37.0227 94.0523 39.6952 91.8323 41.0127C89.5098 42.3927 86.3998 42.1277 83.7723 41.6652C83.5473 41.6269 83.4081 41.7185 83.3548 41.9402ZM82.8123 20.0702L81.3798 25.8502C81.372 25.8816 81.3704 25.9142 81.3752 25.9461C81.38 25.9781 81.3911 26.0088 81.4079 26.0364C81.4246 26.0641 81.4466 26.0881 81.4727 26.1072C81.4988 26.1263 81.5284 26.1401 81.5598 26.1477L84.2348 26.8077C85.4132 27.099 86.6172 27.0791 87.5824 26.7524C88.5476 26.4256 89.195 25.8188 89.3823 25.0652L89.5248 24.4977C89.6173 24.1241 89.5939 23.7258 89.4559 23.3253C89.3179 22.9249 89.068 22.5302 88.7204 22.1639C88.3729 21.7976 87.9346 21.4667 87.4304 21.1903C86.9263 20.9138 86.3663 20.6972 85.7823 20.5527L83.1073 19.8902C83.0443 19.8751 82.9779 19.8856 82.9227 19.9193C82.8674 19.9531 82.8277 20.0073 82.8123 20.0702ZM80.3973 29.6702L78.8573 36.0402C78.8384 36.1174 78.851 36.199 78.8923 36.267C78.9335 36.3349 79.0001 36.3838 79.0773 36.4027L82.1648 37.1502C82.8828 37.3239 83.6135 37.4145 84.3151 37.4169C85.0166 37.4193 85.6754 37.3334 86.2537 37.1642C86.832 36.9949 87.3185 36.7456 87.6854 36.4305C88.0524 36.1154 88.2926 35.7407 88.3923 35.3277L88.5523 34.6627C88.6524 34.2498 88.6101 33.8068 88.4278 33.3588C88.2455 32.9108 87.9268 32.4668 87.4899 32.0519C87.053 31.6371 86.5065 31.2596 85.8815 30.941C85.2565 30.6224 84.5653 30.369 83.8473 30.1952L80.7598 29.4477C80.7214 29.4384 80.6815 29.4368 80.6425 29.4429C80.6034 29.4491 80.566 29.4629 80.5323 29.4836C80.4986 29.5043 80.4693 29.5314 80.4462 29.5634C80.423 29.5955 80.4064 29.6317 80.3973 29.6702Z" fill="white"/>
<path d="M82.8124 20.07C82.8278 20.0071 82.8674 19.9529 82.9227 19.9192C82.978 19.8854 83.0444 19.875 83.1074 19.89L85.7824 20.5525C86.3663 20.697 86.9264 20.9136 87.4305 21.1901C87.9346 21.4665 88.373 21.7974 88.7205 22.1637C89.0681 22.5301 89.318 22.9247 89.456 23.3252C89.594 23.7256 89.6174 24.124 89.5249 24.4975L89.3824 25.065C89.195 25.8186 88.5477 26.4255 87.5825 26.7522C86.6173 27.0789 85.4132 27.0988 84.2349 26.8075L81.5599 26.1475C81.5285 26.1399 81.4989 26.1262 81.4728 26.1071C81.4467 26.088 81.4247 26.0639 81.4079 26.0362C81.3912 26.0086 81.3801 25.9779 81.3753 25.9459C81.3705 25.914 81.372 25.8814 81.3799 25.85L82.8124 20.07Z" fill="#F8931A"/>
<path d="M80.3977 29.6699C80.4068 29.6314 80.4234 29.5951 80.4466 29.5631C80.4697 29.5311 80.499 29.504 80.5327 29.4833C80.5664 29.4626 80.6038 29.4488 80.6428 29.4426C80.6819 29.4365 80.7218 29.4381 80.7602 29.4474L83.8477 30.1949C84.5656 30.3687 85.2569 30.6221 85.8819 30.9407C86.5069 31.2593 87.0534 31.6368 87.4903 32.0516C87.9272 32.4664 88.2459 32.9105 88.4282 33.3585C88.6105 33.8064 88.6528 34.2495 88.5527 34.6624L88.3927 35.3274C88.2929 35.7404 88.0527 36.1151 87.6858 36.4302C87.3188 36.7453 86.8323 36.9946 86.2541 37.1638C85.6758 37.3331 85.017 37.4189 84.3155 37.4165C83.6139 37.4142 82.8832 37.3235 82.1652 37.1499L79.0777 36.4024C79.0005 36.3834 78.9339 36.3346 78.8927 36.2667C78.8514 36.1987 78.8388 36.1171 78.8577 36.0399L80.3977 29.6699Z" fill="#F8931A"/>
</svg>
