<svg width="166" height="58" viewBox="0 0 166 58" fill="none" xmlns="http://www.w3.org/2000/svg">
<path d="M56.4525 25.165C56.2059 27.97 56.24 30.7434 56.555 33.485" stroke="#A79131" stroke-width="2"/>
<path d="M56.555 33.4852L56.1175 31.8327C56.1162 31.8214 56.1104 31.8111 56.1015 31.8041C56.0926 31.797 56.0813 31.7938 56.07 31.7952C56.0588 31.7965 56.0485 31.8022 56.0414 31.8111C56.0344 31.8201 56.0312 31.8314 56.0325 31.8427C56.0325 32.7577 55.965 33.5052 56.2175 34.4452C56.42 35.1977 56.465 35.9252 56.705 36.6602C56.8517 37.1035 56.9767 37.5518 57.08 38.0052C57.1884 38.4785 57.3442 38.9102 57.5475 39.3002C57.8409 39.8618 58.1175 40.4318 58.3775 41.0102C58.5342 41.3568 58.7659 41.7402 59.0725 42.1602C59.7025 43.0227 60.1025 44.1102 60.6525 44.8577C61.3892 45.861 62.1734 46.8268 63.005 47.7552C63.49 48.2977 64.1425 48.8202 64.6875 49.3877C65.1909 49.911 65.6217 50.3043 65.98 50.5677C69.125 52.8727 72.5709 54.5202 76.3175 55.5102C77.9342 55.9385 79.575 56.1952 81.24 56.2802C84.9117 56.4668 88.5184 56.001 92.06 54.8827C92.9625 54.5977 93.84 54.1202 94.7525 53.7302C95.2009 53.5385 95.6959 53.2735 96.2375 52.9352C96.9725 52.4777 97.89 52.1852 98.51 51.5777C98.745 51.346 98.9984 51.1385 99.27 50.9552C99.9234 50.5135 100.318 50.2335 100.455 50.1152C101.558 49.1568 102.608 48.1427 103.605 47.0727C103.928 46.7277 104.123 46.2227 104.62 45.8977C104.686 45.8557 104.736 45.791 104.76 45.7152C104.863 45.3985 105.017 45.1143 105.22 44.8627C105.588 44.406 105.776 44.1727 105.783 44.1627C107.029 42.3227 108.014 40.3518 108.738 38.2502C108.818 38.0177 109.058 37.7277 109.105 37.5352C109.658 35.3385 109.994 33.7843 110.113 32.8727C110.905 26.7652 109.798 20.7802 106.758 15.4727C106.018 14.1827 105.253 13.0168 104.463 11.9752C103.168 10.2702 101.608 8.70933 99.7825 7.29267C99.3625 6.966 98.8242 6.59766 98.1675 6.18766C97.6159 5.84266 97.065 5.49433 96.515 5.14267C96.0984 4.87767 95.6325 4.6335 95.1175 4.41017C94.6309 4.20017 94.15 3.9785 93.675 3.74517C92.94 3.3835 92.2525 3.11933 91.6125 2.95267C89.4575 2.38517 87.265 1.76267 85.0825 1.65017C82.4725 1.51517 80.1325 1.59517 77.39 2.27517C74.995 2.86683 72.9609 3.49683 71.2875 4.16517C70.4125 4.51767 69.5825 5.19767 68.625 5.60767C67.605 6.04767 66.9675 6.93767 66.135 7.50517C65.4817 7.95017 65.0642 8.25433 64.8825 8.41766C62.8192 10.2927 61.0692 12.4318 59.6325 14.8352C59.5059 15.0485 59.2834 15.3618 58.965 15.7752C58.7284 16.0835 58.5184 16.5318 58.335 17.1202C58.23 17.4602 57.945 18.1235 57.48 19.1102C57.16 19.7885 56.9184 20.4652 56.755 21.1402C56.3184 22.9402 56.0492 24.1443 55.9475 24.7527C55.8525 25.3177 55.8509 25.9727 55.9425 26.7177C55.9542 26.811 55.9917 26.8235 56.055 26.7552C56.305 26.4852 56.2425 25.6202 56.4525 25.1652" stroke="#8C782C" stroke-width="2"/>
<path d="M56.5552 33.4854C56.6635 34.3087 56.9468 35.4395 57.4052 36.8778C58.6452 40.7678 60.5302 44.1229 63.0602 46.9429C63.2818 47.1895 63.4618 47.3862 63.6002 47.5329" stroke="#9E872D" stroke-width="2"/>
<path d="M63.6001 47.5327C65.3234 49.2444 67.1818 50.7285 69.1751 51.9852" stroke="#B29E55" stroke-width="2"/>
<path d="M69.1748 51.9854C70.9815 53.1137 72.9373 53.9954 75.0423 54.6304" stroke="#9E872D" stroke-width="2"/>
<path d="M75.0425 54.6302C78.7658 55.6735 82.4808 55.9952 86.1875 55.5952C89.7391 55.2119 93.1358 54.0802 96.3775 52.2002" stroke="#B29E55" stroke-width="2"/>
<path d="M96.3776 52.1999C99.4943 50.4183 102.141 48.0858 104.318 45.2024C108.038 40.2708 109.873 34.7749 109.825 28.7149C109.77 22.0749 107.215 15.5199 102.683 10.7574C96.551 4.31411 89.0468 1.50328 80.1701 2.32494C76.0451 2.70494 72.2226 4.06744 68.7601 6.26744C62.1151 10.4849 57.4876 17.2874 56.4526 25.1649" stroke="#9E872D" stroke-width="2"/>
<path d="M70.1899 20.7178C70.3083 21.5928 70.7658 21.9419 71.5624 21.7653C71.7974 21.7136 72.1274 21.4803 72.5524 21.0653" stroke="#9D8654" stroke-width="2"/>
<path d="M72.3801 25.1602C70.4476 24.5752 67.9376 23.9652 67.7051 26.9752" stroke="#847849" stroke-width="2"/>
<path d="M67.705 26.9751C67.5216 27.7334 67.36 28.5759 67.22 29.5026C67.09 30.3676 67.5999 30.9151 67.9524 31.5951C68.3399 32.3451 67.9974 32.8126 68.7624 33.5026C69.4941 34.1593 70.2641 34.8309 71.0725 35.5176C71.1035 35.5439 71.14 35.5629 71.1794 35.5732C71.2188 35.5834 71.26 35.5846 71.2999 35.5766C71.3398 35.5687 71.3774 35.5518 71.4099 35.5273C71.4423 35.5028 71.4689 35.4713 71.4875 35.4351C71.6091 35.1968 71.95 35.1284 72.51 35.2301" stroke="#A89964" stroke-width="2"/>
<path d="M68.2428 38.95C68.0478 38.6616 67.7653 38.545 67.3953 38.6C67.3019 38.615 67.2269 38.5841 67.1703 38.5075L66.4778 37.58C66.4594 37.5567 66.4336 37.5405 66.4046 37.5342C66.3756 37.5279 66.3453 37.5319 66.319 37.5455C66.2926 37.5591 66.2718 37.5815 66.2602 37.6088C66.2486 37.6361 66.2468 37.6665 66.2553 37.695C66.6336 38.8683 67.1211 40.02 67.7178 41.15C67.9278 41.5483 68.1086 41.6658 68.2603 41.5025" stroke="#CDB75A" stroke-width="2"/>
<path d="M71.8098 45.1729C71.9148 45.6112 71.9781 46.032 71.9998 46.4354C72.0548 47.4079 72.2548 48.0154 72.5123 48.8654C72.5365 48.9494 72.5303 49.0396 72.4948 49.1203C72.2348 49.692 71.8965 50.2112 71.4798 50.6779C71.4321 50.7321 71.3979 50.7963 71.3798 50.8654C71.3165 51.1304 71.1698 51.2495 70.9398 51.2229C70.2731 51.1479 69.8306 51.3529 69.6123 51.8379C69.5773 51.9145 69.5181 51.9562 69.4348 51.9629L69.1748 51.9854" stroke="#CDB75A" stroke-width="2"/>
<path d="M96.3774 52.2001C95.7174 51.7901 94.9999 51.8768 94.2249 52.4601C94.1949 52.4835 94.1633 52.4868 94.1299 52.4701C94.1049 52.4568 94.0791 52.4443 94.0524 52.4326C94.0393 52.4264 94.028 52.417 94.0194 52.4053C94.0108 52.3936 94.0052 52.3799 94.0033 52.3655C94.0013 52.3512 94.0029 52.3365 94.008 52.3229C94.0131 52.3093 94.0215 52.2972 94.0324 52.2876C94.7274 51.6551 95.1174 50.8476 95.8299 50.3001C96.4274 49.8376 96.8149 49.6051 97.3224 48.9251C97.5341 48.6418 97.8274 48.3385 98.2024 48.0151C98.6941 47.5918 99.2391 46.8776 99.8374 45.8726C100.022 45.5626 100.128 45.2101 100.155 44.8151C100.238 43.5151 100.392 42.2226 100.615 40.9376C100.65 40.7343 100.617 40.4901 100.515 40.2051C100.085 39.0226 98.3049 40.2426 97.7624 40.6951C97.3299 41.0576 96.9474 41.1401 96.4199 41.1251C96.3299 41.1235 96.2816 41.0776 96.2749 40.9876L96.2624 40.7901" stroke="#CDB75A" stroke-width="2"/>
<path d="M96.2626 40.7901C99.7901 36.3501 100.35 30.7401 99.4751 25.2526C98.8668 21.436 96.9501 18.3151 93.7251 15.8901" stroke="#D8C88A" stroke-width="2"/>
<path d="M93.7252 15.8901C94.0802 16.0085 94.426 15.8968 94.7627 15.5551C94.7892 15.529 94.8241 15.5133 94.8609 15.511C94.8978 15.5087 94.934 15.5199 94.9627 15.5426C95.126 15.6726 95.2094 15.8518 95.2127 16.0801C95.2144 16.1685 95.2419 16.2476 95.2952 16.3176L95.6302 16.7676C95.6687 16.8189 95.7207 16.8584 95.7804 16.8819C95.84 16.9055 95.905 16.912 95.9681 16.9009C96.0313 16.8898 96.0901 16.8614 96.1381 16.8189C96.1861 16.7764 96.2215 16.7215 96.2402 16.6601C97.0569 13.9568 97.1327 11.2185 96.4677 8.44513C96.2502 7.53513 95.8377 6.69264 94.9102 6.37514C94.2352 6.14347 93.6094 6.25347 93.0327 6.70514C92.9877 6.74 92.9511 6.78459 92.9257 6.83561C92.9004 6.88663 92.8868 6.94277 92.8861 6.9999C92.8854 7.05702 92.8975 7.11366 92.9216 7.16563C92.9456 7.21759 92.9811 7.26356 93.0252 7.30014C93.7552 7.89764 94.6902 8.79513 94.4552 9.83763C94.4467 9.87671 94.4287 9.91297 94.403 9.9431C94.3772 9.97323 94.3445 9.99628 94.3077 10.0101C92.911 10.5501 91.7627 11.331 90.8627 12.3526C90.486 12.781 90.4993 13.141 90.9027 13.4326" stroke="#A79131" stroke-width="2"/>
<path d="M90.9027 13.4326C90.7677 13.5526 90.6894 13.6876 90.6678 13.8376C90.6636 13.8658 90.6669 13.8945 90.6774 13.921C90.6878 13.9475 90.7051 13.9708 90.7274 13.9885C90.7496 14.0062 90.7762 14.0177 90.8043 14.022C90.8325 14.0262 90.8612 14.023 90.8877 14.0126L92.2802 13.4876C92.2967 13.4813 92.3145 13.4792 92.332 13.4815C92.3495 13.4839 92.3661 13.4906 92.3803 13.5011C92.3945 13.5115 92.4058 13.5254 92.4132 13.5414C92.4207 13.5574 92.4239 13.575 92.4227 13.5926C92.4061 13.8426 92.5186 13.9893 92.7603 14.0326C92.7813 14.0365 92.8008 14.0461 92.8166 14.0604C92.8325 14.0747 92.844 14.0931 92.85 14.1136C92.856 14.1341 92.8561 14.1559 92.8504 14.1764C92.8447 14.197 92.8334 14.2156 92.8177 14.2301L92.1152 14.8651" stroke="#896F2C" stroke-width="2"/>
<path d="M92.1152 14.8651L89.5103 13.7476" stroke="#D8C88A" stroke-width="2"/>
<path d="M89.5102 13.7476C89.5052 13.7776 89.5411 13.7884 89.6177 13.7801C89.6811 13.7717 89.7094 13.7367 89.7027 13.6751C89.6344 12.9367 89.8502 12.2842 90.3502 11.7176C90.4419 11.6126 90.5227 11.3167 90.5927 10.8301" stroke="#9E872D" stroke-width="2"/>
<path d="M90.5923 10.8302L90.7673 9.39022C90.7873 9.22188 90.744 9.20355 90.6373 9.33522L90.2523 9.81272C90.2243 9.84725 90.1883 9.87468 90.1473 9.89272C89.834 10.031 89.5815 10.231 89.3898 10.4927C89.0915 10.901 88.9198 11.121 88.8748 11.1527C88.6231 11.3294 88.3331 11.3919 88.0048 11.3402C86.4815 11.1069 84.9606 11.1194 83.4423 11.3777C83.2723 11.4077 83.1748 11.4785 83.1498 11.5902C83.1248 11.6919 83.1648 11.741 83.2698 11.7377L87.5698 11.6502C87.6256 11.6489 87.6808 11.6623 87.7299 11.6889C87.7789 11.7156 87.8202 11.7546 87.8495 11.8021C87.8788 11.8496 87.8952 11.904 87.897 11.9598C87.8988 12.0156 87.886 12.0709 87.8598 12.1202C87.7215 12.3819 87.5415 12.6985 87.3198 13.0702C87.2415 13.1985 87.3756 13.2802 87.7223 13.3152" stroke="#A79131" stroke-width="2"/>
<path d="M87.7227 13.3151L73.0327 13.3101" stroke="#D8C88A" stroke-width="2"/>
<path d="M73.0327 13.3101C73.0293 13.2517 73.0293 13.1976 73.0327 13.1476C73.036 13.0976 73.0543 13.0492 73.0877 13.0026C74.3727 11.2251 75.8526 7.27756 73.8176 5.53006C73.7911 5.50719 73.7586 5.49254 73.7239 5.48791C73.6892 5.48328 73.6539 5.48887 73.6223 5.50399C73.5907 5.51911 73.5642 5.54311 73.5461 5.57305C73.528 5.603 73.5189 5.63758 73.5201 5.67256C73.5485 6.76923 73.6202 7.87923 73.7352 9.00256C73.8968 10.5892 73.5177 12.0326 72.5977 13.3326" stroke="#CDB75A" stroke-width="2"/>
<path d="M72.5976 13.3327L68.6651 13.3052C68.5685 13.3045 68.4755 13.3419 68.4063 13.4093C68.337 13.4767 68.2971 13.5686 68.2951 13.6652L68.2451 16.0327" stroke="#D8C88A" stroke-width="2"/>
<path d="M68.2452 16.0327C67.5035 16.9144 66.9069 17.8877 66.4552 18.9527C66.0052 20.0127 65.8202 21.2877 65.5327 22.5102" stroke="#CDB75A" stroke-width="2"/>
<path d="M65.5326 22.5103C64.0526 24.8386 63.5151 27.5519 63.9201 30.6503" stroke="#D7C573" stroke-width="2"/>
<path d="M63.9201 30.6504C64.0051 32.5921 64.5059 34.4304 65.4226 36.1654C65.9751 37.2104 65.5351 38.5529 64.9751 39.5054C64.94 39.5649 64.9211 39.6326 64.9203 39.7019C64.9194 39.7712 64.9366 39.8396 64.9701 39.9004L65.3176 40.5204C65.3593 40.5971 65.3651 40.6762 65.3351 40.7579C65.1276 41.3204 64.9326 41.7854 64.9151 42.4129C64.8701 44.1912 64.4318 45.8979 63.6001 47.5329" stroke="#CDB75A" stroke-width="2"/>
<path d="M75.0424 54.6303C75.049 54.4136 75.2799 54.2953 75.7349 54.2753C75.78 54.2732 75.8235 54.2578 75.8599 54.2312C75.8964 54.2045 75.9242 54.1677 75.9399 54.1253C76.0849 53.7403 76.3299 53.422 76.6749 53.1703C76.7515 53.1153 76.8079 53.0365 76.8354 52.9462C76.8629 52.856 76.8599 52.7592 76.8269 52.6707C76.794 52.5823 76.7328 52.5072 76.6529 52.457C76.573 52.4067 76.4788 52.3842 76.3849 52.3928C75.0574 52.5053 73.9674 52.6078 72.9074 51.4578C72.859 51.4045 72.799 51.382 72.7274 51.3903L72.0074 51.4678C71.9678 51.472 71.9279 51.4636 71.8933 51.4439C71.8587 51.4242 71.8312 51.3942 71.8146 51.358C71.798 51.3218 71.7933 51.2813 71.8009 51.2422C71.8086 51.2032 71.8283 51.1675 71.8573 51.1403C72.159 50.862 72.4815 50.8028 72.8248 50.9628C72.9182 51.0061 72.999 50.9878 73.0673 50.9078C73.6123 50.2628 73.7524 48.9453 74.8049 48.8928C74.8882 48.8878 74.9623 48.8603 75.0273 48.8103C75.8273 48.2078 76.9599 47.8678 76.9699 46.6503C76.9715 46.5336 77.0307 46.4803 77.1474 46.4903L77.5174 46.5228C77.859 46.5528 78.0149 46.397 77.9849 46.0553C77.9599 45.777 78.0573 45.5536 78.2773 45.3853C78.3407 45.337 78.3449 45.2836 78.2899 45.2253L78.1874 45.1128" stroke="#CDB75A" stroke-width="2"/>
<path d="M96.2625 40.79C93.7992 43.5084 90.8367 44.9509 87.375 45.1175C85.705 45.1975 82.6425 45.1959 78.1875 45.1125" stroke="#ECDFB2" stroke-width="2"/>
<path d="M78.1876 45.1128L71.8101 45.1728" stroke="#D8C88A" stroke-width="2"/>
<path d="M71.8102 45.1724L68.7552 45.1799C68.6913 45.1803 68.628 45.168 68.5689 45.1437C68.5098 45.1195 68.456 45.0838 68.4107 45.0388C68.3654 44.9937 68.3294 44.9401 68.3049 44.8811C68.2804 44.8221 68.2678 44.7588 68.2678 44.6949L68.2603 41.5024" stroke="#ECDFB2" stroke-width="2"/>
<path d="M68.2602 41.5027L68.2427 38.9502" stroke="#D8C88A" stroke-width="2"/>
<path d="M68.2425 38.95C68.2359 38.4883 68.325 38.0641 68.51 37.6775C68.5287 37.6381 68.5582 37.6048 68.595 37.5818C68.6318 37.5587 68.6743 37.5468 68.7175 37.5475L72.375 37.5925C72.4534 37.5941 72.4925 37.5575 72.4925 37.4825L72.51 35.23" stroke="#ECDFB2" stroke-width="2"/>
<path d="M72.51 35.2299L72.48 27.9824" stroke="#B3AB93" stroke-width="2"/>
<path d="M72.4799 27.9826C72.5782 27.0393 72.5782 26.1293 72.4799 25.2526C72.4649 25.1193 72.4315 25.0885 72.3799 25.1601" stroke="#8F8978" stroke-width="2"/>
<path d="M72.3799 25.1599C72.3849 25.0066 72.424 24.9324 72.4974 24.9374C72.5257 23.7608 72.5441 22.4699 72.5524 21.0649" stroke="#ECDFB2" stroke-width="2"/>
<path d="M72.5524 21.0652C72.1158 20.5369 71.5666 20.5285 70.9049 21.0402C70.8383 21.0919 70.7699 21.0952 70.6999 21.0502L70.1899 20.7177" stroke="#A89783" stroke-width="2"/>
<path d="M70.1902 20.7178L68.5127 20.8003" stroke="#ECDFB2" stroke-width="2"/>
<path d="M68.5126 20.7999C68.0293 20.8616 67.7251 20.5958 67.6001 20.0024" stroke="#F6EDCA" stroke-width="2"/>
<path d="M67.6001 20.0027C68.4976 19.0352 68.3751 17.2752 68.2451 16.0327" stroke="#ECDFB2" stroke-width="2"/>
<path d="M72.4801 27.9826C71.8717 28.5676 71.8401 29.5034 72.3851 30.7901C72.4022 30.8306 72.4061 30.8756 72.396 30.9184C72.3859 30.9612 72.3625 30.9998 72.3291 31.0284C72.2957 31.0571 72.2541 31.0744 72.2102 31.0778C72.1664 31.0813 72.1225 31.0707 72.0851 31.0476C71.8401 30.8976 71.6051 30.7193 71.3801 30.5126C70.6551 29.8501 70.4376 29.9351 69.6151 30.3501C69.5965 30.3596 69.5753 30.3625 69.5549 30.3584C69.5345 30.3543 69.5161 30.3435 69.5026 30.3276C68.5709 29.2576 67.9717 28.1401 67.7051 26.9751" stroke="#4A442A" stroke-width="2"/>
<path d="M68.5124 20.8003C68.2274 21.6803 68.2249 22.5628 68.5049 23.4478C68.5299 23.5278 68.5766 23.5928 68.6449 23.6428C69.0124 23.9178 68.9074 24.2078 68.6349 24.5253C68.3616 24.8436 68.0891 25.1695 67.8174 25.5028C67.7658 25.5678 67.6991 25.6111 67.6174 25.6328C67.2158 25.7345 67.0466 26.0236 67.1099 26.5003C67.1616 26.887 67.0916 27.2361 66.8999 27.5478C66.8616 27.6095 66.8424 27.6761 66.8424 27.7478V29.0603C66.8424 29.1603 66.8069 29.2569 66.7424 29.3328C66.5774 29.5295 66.3666 29.6161 66.1099 29.5928C66.0016 29.5845 65.9441 29.5253 65.9374 29.4153L65.8924 28.6078C65.8912 28.5789 65.8818 28.551 65.8653 28.5272C65.8488 28.5035 65.8259 28.4849 65.7991 28.4734C65.7723 28.462 65.7428 28.4582 65.7138 28.4625C65.6847 28.4668 65.6574 28.479 65.6349 28.4978C65.2833 28.7961 64.8808 28.9961 64.4274 29.0978C64.3824 29.1078 64.3483 29.1236 64.3249 29.1453C64.2949 29.172 64.2699 29.2028 64.2499 29.2378C64.2389 29.2565 64.2345 29.2784 64.2374 29.3C64.2402 29.3215 64.2502 29.3415 64.2657 29.3567C64.2812 29.372 64.3014 29.3816 64.323 29.384C64.3446 29.3865 64.3664 29.3816 64.3849 29.3703L65.0899 28.9528C65.1508 28.9167 65.2201 28.8971 65.2909 28.8959C65.3617 28.8948 65.4316 28.9121 65.4937 28.9461C65.5558 28.9802 65.6079 29.0299 65.6449 29.0902C65.682 29.1506 65.7027 29.2195 65.7049 29.2903L65.7474 30.6378C65.7491 30.7061 65.7749 30.7653 65.8249 30.8153C66.4949 31.4653 66.3924 32.6428 65.3674 32.8078C65.3231 32.8148 65.2779 32.8117 65.2354 32.7987C65.1929 32.7857 65.1542 32.7631 65.1224 32.7328C64.8424 32.4695 64.7091 32.137 64.7224 31.7353C64.7256 31.6726 64.7051 31.611 64.6649 31.5628L63.9199 30.6503" stroke="#EBDC9B" stroke-width="2"/>
<path d="M90.5928 10.8303L90.4803 10.5128C90.4503 10.4278 90.4169 10.4261 90.3803 10.5078C89.9386 11.4678 89.3978 12.3686 88.7578 13.2103C88.7061 13.2769 88.7186 13.3286 88.7953 13.3653C88.9486 13.4386 89.0144 13.5178 88.9928 13.6028" stroke="#8C782C" stroke-width="2"/>
<path d="M88.9927 13.6024L87.7227 13.3149" stroke="#C6B989" stroke-width="2"/>
<path d="M73.0327 13.3101L72.5977 13.3326" stroke="#ECDFB2" stroke-width="2"/>
<path d="M93.7251 15.8903L93.3276 15.6328" stroke="#C6B989" stroke-width="2"/>
<path d="M93.3273 15.6326C93.3623 15.6476 93.3998 15.6509 93.4398 15.6426C93.5065 15.6293 93.5532 15.5918 93.5798 15.5301L94.9848 12.3626C95.1215 12.0526 95.0215 11.9159 94.6848 11.9526C93.5448 12.0726 91.3948 12.2001 90.9023 13.4326" stroke="#77602B" stroke-width="2"/>
<path d="M93.3277 15.6327L92.1152 14.8652" stroke="#A89783" stroke-width="2"/>
<path d="M89.5102 13.7475C89.3285 13.7459 89.156 13.6975 88.9927 13.6025" stroke="#BDAF84" stroke-width="2"/>
<path d="M67.6002 20.0024L65.5327 22.5099" stroke="#EBDC9B" stroke-width="2"/>
<path d="M82.1352 23.2876C82.1568 23.4376 82.0443 23.4968 81.7977 23.4651C81.711 23.4551 81.6352 23.4784 81.5702 23.5351C81.4418 23.6484 81.4402 23.8026 81.5652 23.9976" stroke="#B3AB93" stroke-width="2"/>
<path d="M81.5652 23.9976L81.4927 25.8176" stroke="#D8C88A" stroke-width="2"/>
<path d="M81.4923 25.8177L81.4673 37.1677C81.4673 37.2132 81.4764 37.2583 81.494 37.3003C81.5116 37.3423 81.5374 37.3805 81.5699 37.4126C81.6025 37.4446 81.6411 37.47 81.6835 37.4872C81.726 37.5044 81.7714 37.513 81.8173 37.5127C82.6256 37.501 83.4148 37.5202 84.1848 37.5702C85.9148 37.6802 87.2998 36.6027 88.2173 35.2427C88.709 34.5127 89.0906 33.6019 89.3623 32.5102C90.2123 29.0827 89.8548 24.9077 87.5248 22.0952" stroke="#ECDFB2" stroke-width="2"/>
<path d="M87.525 22.0952C86.57 20.8786 85.4858 20.4869 84.2725 20.9202" stroke="#D8C88A" stroke-width="2"/>
<path d="M84.2724 20.9204C83.8574 20.7587 83.4441 20.7071 83.0324 20.7654C82.9408 20.7771 82.8699 20.8212 82.8199 20.8979C82.5416 21.3212 82.1666 21.6212 81.6949 21.7979C81.6099 21.8312 81.5616 21.8929 81.5499 21.9829C81.4816 22.5629 81.6766 22.9979 82.1349 23.2879" stroke="#8F8978" stroke-width="2"/>
<path d="M84.2724 20.9199C84.6141 21.0933 84.8741 21.3441 85.0524 21.6724C85.0941 21.7508 85.0941 21.8299 85.0524 21.9099C84.6058 22.7399 83.9158 23.3441 82.9824 23.7224" stroke="#706121" stroke-width="2"/>
<path d="M82.9827 23.7226C82.7427 23.6759 82.4603 23.5309 82.1353 23.2876" stroke="#4A442A" stroke-width="2"/>
<path d="M87.5252 22.0952C87.1185 22.3119 86.7485 22.771 86.4152 23.4727C86.1302 24.0677 85.571 24.5369 84.7377 24.8802C83.8827 25.2327 82.3902 26.1402 81.4927 25.8177" stroke="#CDB75A" stroke-width="2"/>
<path d="M81.5649 23.9977L82.9824 23.7227" stroke="#94833C" stroke-width="2"/>
<path d="M72.4923 32.4004L72.5673 31.9879C72.5713 31.9665 72.571 31.9446 72.5665 31.9234C72.562 31.9022 72.5533 31.882 72.541 31.8641C72.5287 31.8463 72.513 31.831 72.4948 31.8192C72.4766 31.8074 72.4562 31.7993 72.4348 31.7954L70.7698 31.4929C70.4471 31.4342 70.126 31.3842 69.825 31.3456C69.524 31.307 69.249 31.2807 69.0158 31.2682C68.7826 31.2557 68.5958 31.2571 68.4661 31.2725C68.3363 31.2879 68.2663 31.3169 68.2598 31.3579L68.2398 31.4754C68.2257 31.5576 68.47 31.6833 68.9191 31.8249C69.3681 31.9665 69.9852 32.1123 70.6348 32.2304L72.2998 32.5329C72.3212 32.5369 72.3431 32.5366 72.3643 32.5321C72.3856 32.5276 72.4057 32.5189 72.4236 32.5066C72.4415 32.4943 72.4567 32.4786 72.4685 32.4603C72.4803 32.4421 72.4884 32.4217 72.4923 32.4004Z" stroke="#4A442A" stroke-width="2"/>
<path d="M111.275 28.9875C111.275 36.4878 108.295 43.681 102.992 48.9845C97.6883 54.288 90.4952 57.2675 82.9948 57.2675C75.4945 57.2675 68.3014 54.288 62.9979 48.9845C57.6943 43.681 54.7148 36.4878 54.7148 28.9875C54.7148 21.4872 57.6943 14.2941 62.9979 8.99054C68.3014 3.68701 75.4945 0.70752 82.9948 0.70752C90.4952 0.70752 97.6883 3.68701 102.992 8.99054C108.295 14.2941 111.275 21.4872 111.275 28.9875ZM56.4523 25.165C56.2057 27.97 56.2398 30.7434 56.5548 33.485L56.1173 31.8325C56.116 31.8212 56.1103 31.811 56.1014 31.8039C56.0925 31.7969 56.0811 31.7937 56.0698 31.795C56.0586 31.7963 56.0483 31.8021 56.0413 31.811C56.0342 31.8199 56.031 31.8312 56.0323 31.8425C56.0323 32.7575 55.9648 33.505 56.2173 34.445C56.4198 35.1975 56.4648 35.925 56.7048 36.66C56.8515 37.1034 56.9765 37.5517 57.0798 38.005C57.1882 38.4784 57.344 38.91 57.5473 39.3C57.8407 39.8617 58.1173 40.4317 58.3773 41.01C58.534 41.3567 58.7657 41.74 59.0723 42.16C59.7023 43.0225 60.1023 44.11 60.6523 44.8575C61.389 45.8609 62.1732 46.8267 63.0048 47.755C63.4898 48.2975 64.1423 48.82 64.6873 49.3875C65.1907 49.9109 65.6215 50.3042 65.9798 50.5675C69.1248 52.8725 72.5707 54.52 76.3173 55.51C77.934 55.9384 79.5748 56.195 81.2398 56.28C84.9115 56.4667 88.5182 56.0009 92.0598 54.8825C92.9623 54.5975 93.8398 54.12 94.7523 53.73C95.2007 53.5384 95.6957 53.2734 96.2373 52.935C96.9723 52.4775 97.8898 52.185 98.5098 51.5775C98.7448 51.3459 98.9982 51.1384 99.2698 50.955C99.9232 50.5134 100.318 50.2334 100.455 50.115C101.558 49.1567 102.608 48.1425 103.605 47.0725C103.927 46.7275 104.122 46.2225 104.62 45.8975C104.686 45.8555 104.736 45.7909 104.76 45.715C104.863 45.3984 105.017 45.1142 105.22 44.8625C105.588 44.4059 105.776 44.1725 105.782 44.1625C107.029 42.3225 108.014 40.3517 108.737 38.25C108.817 38.0175 109.057 37.7275 109.105 37.535C109.658 35.3384 109.994 33.7842 110.112 32.8725C110.905 26.765 109.797 20.78 106.757 15.4725C106.017 14.1825 105.252 13.0167 104.462 11.975C103.167 10.27 101.607 8.70919 99.7823 7.29252C99.3623 6.96585 98.824 6.59752 98.1673 6.18752C97.6157 5.84252 97.0648 5.49419 96.5148 5.14252C96.0982 4.87752 95.6323 4.63335 95.1173 4.41002C94.6307 4.20002 94.1498 3.97835 93.6748 3.74502C92.9398 3.38335 92.2523 3.11919 91.6123 2.95252C89.4573 2.38502 87.2648 1.76252 85.0823 1.65002C82.4723 1.51502 80.1323 1.59502 77.3898 2.27502C74.9948 2.86669 72.9607 3.49669 71.2873 4.16502C70.4123 4.51752 69.5823 5.19752 68.6248 5.60752C67.6048 6.04752 66.9673 6.93752 66.1348 7.50502C65.4815 7.95002 65.064 8.25419 64.8823 8.41752C62.819 10.2925 61.069 12.4317 59.6323 14.835C59.5057 15.0484 59.2832 15.3617 58.9648 15.775C58.7282 16.0834 58.5182 16.5317 58.3348 17.12C58.2298 17.46 57.9448 18.1234 57.4798 19.11C57.1598 19.7884 56.9182 20.465 56.7548 21.14C56.3182 22.94 56.049 24.1442 55.9473 24.7525C55.8523 25.3175 55.8507 25.9725 55.9423 26.7175C55.954 26.8109 55.9915 26.8234 56.0548 26.755C56.3048 26.485 56.2423 25.62 56.4523 25.165Z" fill="#958230"/>
<path d="M56.555 33.4852C56.6634 34.3085 56.9467 35.4393 57.405 36.8777C58.645 40.7677 60.53 44.1227 63.06 46.9427C63.2817 47.1893 63.4617 47.386 63.6 47.5327C65.3234 49.2443 67.1817 50.7285 69.175 51.9852C70.9817 53.1135 72.9375 53.9952 75.0425 54.6302C78.7659 55.6735 82.4809 55.9952 86.1875 55.5952C89.7392 55.2118 93.1359 54.0802 96.3775 52.2002C99.4942 50.4185 102.141 48.086 104.318 45.2027C108.038 40.271 109.873 34.7752 109.825 28.7152C109.77 22.0752 107.215 15.5202 102.683 10.7577C96.5509 4.31433 89.0467 1.5035 80.17 2.32517C76.045 2.70517 72.2225 4.06766 68.76 6.26766C62.115 10.4852 57.4875 17.2877 56.4525 25.1652C56.2425 25.6202 56.305 26.4852 56.055 26.7552C55.9917 26.8235 55.9542 26.811 55.9425 26.7177C55.8509 25.9727 55.8525 25.3177 55.9475 24.7527C56.0492 24.1443 56.3184 22.9402 56.755 21.1402C56.9184 20.4652 57.16 19.7885 57.48 19.1102C57.945 18.1235 58.23 17.4602 58.335 17.1202C58.5184 16.5318 58.7284 16.0835 58.965 15.7752C59.2834 15.3618 59.5059 15.0485 59.6325 14.8352C61.0692 12.4318 62.8192 10.2927 64.8825 8.41766C65.0642 8.25433 65.4817 7.95017 66.135 7.50517C66.9675 6.93766 67.605 6.04767 68.625 5.60767C69.5825 5.19766 70.4125 4.51767 71.2875 4.16517C72.9609 3.49683 74.995 2.86683 77.39 2.27517C80.1325 1.59517 82.4725 1.51517 85.0825 1.65017C87.265 1.76267 89.4575 2.38517 91.6125 2.95267C92.2525 3.11933 92.94 3.3835 93.675 3.74517C94.15 3.9785 94.6309 4.20017 95.1175 4.41017C95.6325 4.6335 96.0984 4.87767 96.515 5.14267C97.065 5.49433 97.6159 5.84267 98.1675 6.18766C98.8242 6.59766 99.3625 6.966 99.7825 7.29267C101.608 8.70933 103.168 10.2702 104.463 11.9752C105.253 13.0168 106.018 14.1827 106.758 15.4727C109.798 20.7802 110.905 26.7652 110.113 32.8727C109.994 33.7843 109.658 35.3385 109.105 37.5352C109.058 37.7277 108.818 38.0177 108.738 38.2502C108.014 40.3518 107.029 42.3227 105.783 44.1627C105.776 44.1727 105.588 44.406 105.22 44.8627C105.017 45.1143 104.863 45.3985 104.76 45.7152C104.736 45.791 104.686 45.8557 104.62 45.8977C104.123 46.2227 103.928 46.7277 103.605 47.0727C102.608 48.1427 101.558 49.1568 100.455 50.1152C100.318 50.2335 99.9234 50.5135 99.27 50.9552C98.9984 51.1385 98.745 51.346 98.51 51.5777C97.89 52.1852 96.9725 52.4777 96.2375 52.9352C95.6959 53.2735 95.2009 53.5385 94.7525 53.7302C93.84 54.1202 92.9625 54.5977 92.06 54.8827C88.5184 56.001 84.9117 56.4668 81.24 56.2802C79.575 56.1952 77.9342 55.9385 76.3175 55.5102C72.5709 54.5202 69.125 52.8727 65.98 50.5677C65.6217 50.3043 65.1909 49.911 64.6875 49.3877C64.1425 48.8202 63.49 48.2977 63.005 47.7552C62.1734 46.8268 61.3892 45.861 60.6525 44.8577C60.1025 44.1102 59.7025 43.0227 59.0725 42.1602C58.7659 41.7402 58.5342 41.3568 58.3775 41.0102C58.1175 40.4318 57.8409 39.8618 57.5475 39.3002C57.3442 38.9102 57.1884 38.4785 57.08 38.0052C56.9767 37.5518 56.8517 37.1035 56.705 36.6602C56.465 35.9252 56.42 35.1977 56.2175 34.4452C55.965 33.5052 56.0325 32.7577 56.0325 31.8427C56.0312 31.8314 56.0344 31.8201 56.0414 31.8111C56.0485 31.8022 56.0588 31.7965 56.07 31.7952C56.0813 31.7938 56.0926 31.797 56.1015 31.8041C56.1104 31.8111 56.1162 31.8214 56.1175 31.8327L56.555 33.4852Z" fill="#826E27"/>
<path d="M96.3775 52.1999C95.7175 51.7899 95 51.8766 94.225 52.4599C94.195 52.4833 94.1634 52.4866 94.13 52.4699C94.105 52.4566 94.0792 52.4441 94.0525 52.4324C94.0394 52.4262 94.028 52.4168 94.0195 52.4051C94.0109 52.3934 94.0053 52.3797 94.0034 52.3653C94.0014 52.351 94.003 52.3363 94.0081 52.3227C94.0132 52.3091 94.0216 52.297 94.0325 52.2874C94.7275 51.6549 95.1175 50.8474 95.83 50.2999C96.4275 49.8374 96.815 49.6049 97.3225 48.9249C97.5342 48.6416 97.8275 48.3383 98.2025 48.0149C98.6942 47.5916 99.2392 46.8774 99.8375 45.8724C100.023 45.5624 100.128 45.2099 100.155 44.8149C100.238 43.5149 100.392 42.2224 100.615 40.9374C100.65 40.7341 100.617 40.4899 100.515 40.2049C100.085 39.0224 98.305 40.2424 97.7625 40.6949C97.33 41.0574 96.9475 41.1399 96.42 41.1249C96.33 41.1233 96.2817 41.0774 96.275 40.9874L96.2625 40.7899C99.79 36.3499 100.35 30.7399 99.475 25.2524C98.8667 21.4358 96.95 18.3149 93.725 15.8899C94.08 16.0083 94.4259 15.8966 94.7625 15.5549C94.789 15.5288 94.8239 15.5131 94.8608 15.5108C94.8976 15.5085 94.9338 15.5197 94.9625 15.5424C95.1259 15.6724 95.2092 15.8516 95.2125 16.0799C95.2142 16.1683 95.2417 16.2474 95.295 16.3174L95.63 16.7674C95.6686 16.8187 95.7206 16.8582 95.7802 16.8817C95.8399 16.9053 95.9048 16.9118 95.968 16.9007C96.0311 16.8896 96.09 16.8612 96.138 16.8187C96.186 16.7762 96.2213 16.7213 96.24 16.6599C97.0567 13.9566 97.1325 11.2183 96.4675 8.44494C96.25 7.53494 95.8375 6.69244 94.91 6.37494C94.235 6.14328 93.6092 6.25327 93.0325 6.70494C92.9875 6.7398 92.951 6.78439 92.9256 6.83541C92.9002 6.88644 92.8867 6.94258 92.8859 6.9997C92.8852 7.05683 92.8973 7.11347 92.9214 7.16543C92.9455 7.2174 92.9809 7.26337 93.025 7.29994C93.755 7.89744 94.69 8.79494 94.455 9.83744C94.4465 9.87652 94.4286 9.91278 94.4028 9.94291C94.3771 9.97304 94.3443 9.99608 94.3075 10.0099C92.9109 10.5499 91.7625 11.3308 90.8625 12.3524C90.4859 12.7808 90.4992 13.1408 90.9025 13.4324C90.7675 13.5524 90.6892 13.6874 90.6675 13.8374C90.6634 13.8656 90.6667 13.8944 90.6772 13.9208C90.6876 13.9473 90.7049 13.9706 90.7271 13.9883C90.7494 14.006 90.776 14.0176 90.8041 14.0218C90.8323 14.026 90.861 14.0228 90.8875 14.0124L92.28 13.4874C92.2965 13.4811 92.3143 13.479 92.3318 13.4814C92.3492 13.4837 92.3659 13.4904 92.3801 13.5009C92.3942 13.5114 92.4056 13.5252 92.413 13.5412C92.4204 13.5572 92.4237 13.5748 92.4225 13.5924C92.4059 13.8424 92.5184 13.9891 92.76 14.0324C92.781 14.0363 92.8006 14.0459 92.8164 14.0602C92.8323 14.0745 92.8438 14.0929 92.8498 14.1134C92.8558 14.1339 92.8559 14.1557 92.8502 14.1763C92.8445 14.1968 92.8332 14.2154 92.8175 14.2299L92.115 14.8649L89.51 13.7474C89.505 13.7774 89.5409 13.7883 89.6175 13.7799C89.6809 13.7716 89.7092 13.7366 89.7025 13.6749C89.6342 12.9366 89.85 12.2841 90.35 11.7174C90.4417 11.6124 90.5225 11.3166 90.5925 10.8299L90.7675 9.38994C90.7875 9.22161 90.7442 9.20328 90.6375 9.33494L90.2525 9.81244C90.2246 9.84698 90.1886 9.87441 90.1475 9.89244C89.8342 10.0308 89.5817 10.2308 89.39 10.4924C89.0917 10.9008 88.92 11.1208 88.875 11.1524C88.6234 11.3291 88.3334 11.3916 88.005 11.3399C86.4817 11.1066 84.9609 11.1191 83.4425 11.3774C83.2725 11.4074 83.175 11.4783 83.15 11.5899C83.125 11.6916 83.165 11.7408 83.27 11.7374L87.57 11.6499C87.6259 11.6487 87.681 11.662 87.7301 11.6886C87.7792 11.7153 87.8204 11.7543 87.8497 11.8018C87.8791 11.8493 87.8954 11.9037 87.8972 11.9595C87.899 12.0153 87.8862 12.0706 87.86 12.1199C87.7217 12.3816 87.5417 12.6983 87.32 13.0699C87.2417 13.1983 87.3759 13.2799 87.7225 13.3149L73.0325 13.3099C73.0292 13.2516 73.0292 13.1974 73.0325 13.1474C73.0359 13.0974 73.0542 13.0491 73.0875 13.0024C74.3725 11.2249 75.8525 7.27744 73.8175 5.52994C73.791 5.50707 73.7584 5.49242 73.7237 5.48779C73.689 5.48316 73.6537 5.48875 73.6222 5.50387C73.5906 5.51899 73.5641 5.54299 73.546 5.57293C73.5278 5.60287 73.5188 5.63746 73.52 5.67244C73.5484 6.76911 73.62 7.87911 73.735 9.00244C73.8967 10.5891 73.5175 12.0324 72.5975 13.3324L68.665 13.3049C68.5684 13.3043 68.4754 13.3417 68.4062 13.409C68.3369 13.4764 68.297 13.5683 68.295 13.6649L68.245 16.0324C67.5034 16.9141 66.9067 17.8874 66.455 18.9524C66.005 20.0124 65.82 21.2874 65.5325 22.5099C64.0525 24.8383 63.515 27.5516 63.92 30.6499C64.005 32.5916 64.5059 34.4299 65.4225 36.1649C65.975 37.2099 65.535 38.5524 64.975 39.5049C64.94 39.5645 64.9211 39.6322 64.9202 39.7015C64.9193 39.7707 64.9365 39.8391 64.97 39.8999L65.3175 40.5199C65.3592 40.5966 65.365 40.6758 65.335 40.7574C65.1275 41.3199 64.9325 41.7849 64.915 42.4124C64.87 44.1908 64.4317 45.8974 63.6 47.5324C63.4617 47.3858 63.2817 47.1891 63.06 46.9424C60.53 44.1224 58.645 40.7674 57.405 36.8774C56.9467 35.4391 56.6634 34.3083 56.555 33.4849C56.24 30.7433 56.2059 27.9699 56.4525 25.1649C57.4875 17.2874 62.115 10.4849 68.76 6.26744C72.2225 4.06744 76.045 2.70494 80.17 2.32494C89.0467 1.50328 96.5509 4.31411 102.683 10.7574C107.215 15.5199 109.77 22.0749 109.825 28.7149C109.873 34.7749 108.038 40.2708 104.318 45.2024C102.141 48.0858 99.4942 50.4183 96.3775 52.1999Z" fill="#B9A032"/>
<path d="M73.0327 13.3101L72.5977 13.3326C73.5177 12.0326 73.8968 10.5892 73.7352 9.00256C73.6202 7.87923 73.5485 6.76923 73.5201 5.67256C73.5189 5.63758 73.528 5.603 73.5461 5.57305C73.5642 5.54311 73.5907 5.51911 73.6223 5.50399C73.6539 5.48887 73.6892 5.48328 73.7239 5.48791C73.7586 5.49254 73.7911 5.50719 73.8176 5.53006C75.8526 7.27756 74.3727 11.2251 73.0877 13.0026C73.0543 13.0492 73.036 13.0976 73.0327 13.1476C73.0293 13.1976 73.0293 13.2517 73.0327 13.3101Z" fill="#E1CD82"/>
<path d="M93.7252 15.8901L93.3277 15.6326C93.3627 15.6476 93.4002 15.651 93.4402 15.6426C93.5069 15.6293 93.5535 15.5918 93.5802 15.5301L94.9852 12.3626C95.1219 12.0526 95.0219 11.916 94.6852 11.9526C93.5452 12.0726 91.3952 12.2001 90.9027 13.4326C90.4993 13.141 90.486 12.781 90.8627 12.3526C91.7627 11.331 92.911 10.5501 94.3077 10.0101C94.3445 9.99628 94.3772 9.97323 94.403 9.9431C94.4287 9.91297 94.4467 9.87671 94.4552 9.83763C94.6902 8.79513 93.7552 7.89764 93.0252 7.30014C92.9811 7.26356 92.9456 7.21759 92.9216 7.16563C92.8975 7.11366 92.8854 7.05702 92.8861 6.9999C92.8868 6.94277 92.9004 6.88663 92.9257 6.83561C92.9511 6.78459 92.9877 6.74 93.0327 6.70514C93.6094 6.25347 94.2352 6.14347 94.9102 6.37514C95.8377 6.69264 96.2502 7.53513 96.4677 8.44513C97.1327 11.2185 97.0569 13.9568 96.2402 16.6601C96.2215 16.7215 96.1861 16.7764 96.1381 16.8189C96.0901 16.8614 96.0313 16.8898 95.9681 16.9009C95.905 16.912 95.84 16.9055 95.7804 16.8819C95.7207 16.8584 95.6687 16.8189 95.6302 16.7676L95.2952 16.3176C95.2419 16.2476 95.2144 16.1685 95.2127 16.0801C95.2094 15.8518 95.126 15.6726 94.9627 15.5426C94.934 15.5199 94.8978 15.5087 94.8609 15.511C94.8241 15.5133 94.7892 15.529 94.7627 15.5551C94.426 15.8968 94.0802 16.0085 93.7252 15.8901Z" fill="#958230"/>
<path d="M90.5923 10.8302L90.4798 10.5127C90.4498 10.4277 90.4165 10.426 90.3798 10.5077C89.9381 11.4677 89.3973 12.3685 88.7573 13.2102C88.7056 13.2769 88.7181 13.3285 88.7948 13.3652C88.9481 13.4385 89.014 13.5177 88.9923 13.6027L87.7223 13.3152C87.3756 13.2802 87.2415 13.1985 87.3198 13.0702C87.5415 12.6985 87.7215 12.3819 87.8598 12.1202C87.886 12.0709 87.8988 12.0156 87.897 11.9598C87.8952 11.904 87.8788 11.8496 87.8495 11.8021C87.8202 11.7546 87.7789 11.7156 87.7299 11.6889C87.6808 11.6623 87.6256 11.6489 87.5698 11.6502L83.2698 11.7377C83.1648 11.741 83.1248 11.6919 83.1498 11.5902C83.1748 11.4785 83.2723 11.4077 83.4423 11.3777C84.9606 11.1194 86.4815 11.1069 88.0048 11.3402C88.3331 11.3919 88.6231 11.3294 88.8748 11.1527C88.9198 11.121 89.0915 10.901 89.3898 10.4927C89.5815 10.231 89.834 10.031 90.1473 9.89272C90.1883 9.87468 90.2243 9.84725 90.2523 9.81272L90.6373 9.33522C90.744 9.20355 90.7873 9.22188 90.7673 9.39022L90.5923 10.8302Z" fill="#958230"/>
<path d="M90.5923 10.8298C90.5223 11.3165 90.4414 11.6123 90.3498 11.7173C89.8498 12.284 89.6339 12.9365 89.7023 13.6748C89.7089 13.7365 89.6806 13.7715 89.6173 13.7798C89.5406 13.7881 89.5048 13.7773 89.5098 13.7473C89.3281 13.7456 89.1556 13.6973 88.9923 13.6023C89.0139 13.5173 88.9481 13.4381 88.7948 13.3648C88.7181 13.3281 88.7056 13.2765 88.7573 13.2098C89.3973 12.3681 89.9381 11.4673 90.3798 10.5073C90.4164 10.4256 90.4498 10.4273 90.4798 10.5123L90.5923 10.8298Z" fill="#826E27"/>
<path d="M93.3273 15.6326L92.1148 14.8651L92.8173 14.2301C92.8329 14.2156 92.8442 14.197 92.8499 14.1764C92.8556 14.1558 92.8555 14.1341 92.8495 14.1136C92.8436 14.0931 92.832 14.0746 92.8161 14.0603C92.8003 14.046 92.7808 14.0364 92.7598 14.0326C92.5181 13.9893 92.4056 13.8426 92.4223 13.5926C92.4234 13.575 92.4202 13.5574 92.4127 13.5414C92.4053 13.5254 92.394 13.5115 92.3798 13.501C92.3656 13.4906 92.349 13.4839 92.3315 13.4815C92.314 13.4792 92.2962 13.4813 92.2798 13.4876L90.8873 14.0126C90.8607 14.023 90.832 14.0262 90.8038 14.022C90.7757 14.0177 90.7491 14.0062 90.7269 13.9884C90.7046 13.9707 90.6874 13.9475 90.6769 13.921C90.6664 13.8945 90.6631 13.8658 90.6673 13.8376C90.6889 13.6876 90.7673 13.5526 90.9023 13.4326C91.3948 12.2001 93.5448 12.0726 94.6848 11.9526C95.0214 11.9159 95.1214 12.0526 94.9848 12.3626L93.5798 15.5301C93.5531 15.5918 93.5064 15.6293 93.4398 15.6426C93.3998 15.6509 93.3623 15.6476 93.3273 15.6326Z" fill="#593E25"/>
<path d="M72.5976 13.3327L73.0326 13.3102L87.7226 13.3152L88.9926 13.6027C89.1559 13.6977 89.3284 13.746 89.5101 13.7477L92.1151 14.8652L93.3276 15.6327L93.7251 15.8902C96.9501 18.3152 98.8668 21.436 99.4751 25.2527C100.35 30.7402 99.7901 36.3502 96.2626 40.7902C93.7993 43.5085 90.8368 44.951 87.3751 45.1177C85.7051 45.1977 82.6426 45.196 78.1876 45.1127L71.8101 45.1727L68.7551 45.1802C68.6912 45.1805 68.6279 45.1682 68.5687 45.144C68.5096 45.1198 68.4558 45.0841 68.4105 45.039C68.3652 44.9939 68.3293 44.9404 68.3048 44.8814C68.2802 44.8224 68.2676 44.7591 68.2676 44.6952L68.2601 41.5027L68.2426 38.9502C68.2359 38.4885 68.3251 38.0644 68.5101 37.6777C68.5288 37.6383 68.5583 37.605 68.5951 37.582C68.6319 37.5589 68.6744 37.547 68.7176 37.5477L72.3751 37.5927C72.4534 37.5944 72.4926 37.5577 72.4926 37.4827L72.5101 35.2302L72.4801 27.9827C72.5784 27.0394 72.5784 26.1294 72.4801 25.2527C72.4651 25.1194 72.4318 25.0885 72.3801 25.1602C72.3851 25.0069 72.4243 24.9327 72.4976 24.9377C72.5259 23.761 72.5443 22.4702 72.5526 21.0652C72.1159 20.5369 71.5668 20.5285 70.9051 21.0402C70.8384 21.0919 70.7701 21.0952 70.7001 21.0502L70.1901 20.7177L68.5126 20.8002C68.0293 20.8619 67.7251 20.596 67.6001 20.0027C68.4976 19.0352 68.3751 17.2752 68.2451 16.0327L68.2951 13.6652C68.2971 13.5686 68.337 13.4767 68.4062 13.4093C68.4755 13.3419 68.5685 13.3045 68.6651 13.3052L72.5976 13.3327ZM82.1351 23.2877C82.1568 23.4377 82.0443 23.4969 81.7976 23.4652C81.7109 23.4552 81.6351 23.4785 81.5701 23.5352C81.4418 23.6485 81.4401 23.8027 81.5651 23.9977L81.4926 25.8177L81.4676 37.1677C81.4676 37.2132 81.4767 37.2583 81.4943 37.3003C81.5119 37.3423 81.5377 37.3805 81.5703 37.4125C81.6028 37.4446 81.6414 37.47 81.6838 37.4871C81.7263 37.5043 81.7718 37.513 81.8176 37.5127C82.6259 37.501 83.4151 37.5202 84.1851 37.5702C85.9151 37.6802 87.3001 36.6027 88.2176 35.2427C88.7093 34.5127 89.0909 33.6019 89.3626 32.5102C90.2126 29.0827 89.8551 24.9077 87.5251 22.0952C86.5701 20.8785 85.4859 20.4869 84.2726 20.9202C83.8576 20.7585 83.4443 20.7069 83.0326 20.7652C82.9409 20.7769 82.8701 20.821 82.8201 20.8977C82.5418 21.321 82.1668 21.621 81.6951 21.7977C81.6101 21.831 81.5618 21.8927 81.5501 21.9827C81.4818 22.5627 81.6768 22.9977 82.1351 23.2877Z" fill="#F7F0E1"/>
<path d="M68.2452 16.0327C68.3752 17.2752 68.4977 19.0352 67.6002 20.0027L65.5327 22.5102C65.8202 21.2877 66.0052 20.0127 66.4552 18.9527C66.9069 17.8877 67.5035 16.9144 68.2452 16.0327Z" fill="#E1CD82"/>
<path d="M67.6001 20.0024C67.7251 20.5958 68.0292 20.8616 68.5126 20.7999C68.2276 21.6799 68.2251 22.5624 68.5051 23.4474C68.5301 23.5274 68.5767 23.5924 68.6451 23.6424C69.0126 23.9174 68.9076 24.2074 68.6351 24.5249C68.3617 24.8433 68.0892 25.1691 67.8176 25.5024C67.7659 25.5674 67.6992 25.6108 67.6176 25.6324C67.2159 25.7341 67.0467 26.0233 67.1101 26.4999C67.1617 26.8866 67.0917 27.2358 66.9001 27.5474C66.8617 27.6091 66.8426 27.6758 66.8426 27.7474V29.0599C66.8425 29.1599 66.8071 29.2565 66.7426 29.3324C66.5776 29.5291 66.3667 29.6158 66.1101 29.5924C66.0017 29.5841 65.9442 29.5249 65.9376 29.4149L65.8926 28.6074C65.8913 28.5785 65.8819 28.5506 65.8654 28.5269C65.8489 28.5031 65.826 28.4845 65.7992 28.4731C65.7725 28.4616 65.7429 28.4578 65.7139 28.4622C65.6849 28.4665 65.6576 28.4787 65.6351 28.4974C65.2834 28.7958 64.8809 28.9958 64.4276 29.0974C64.3826 29.1074 64.3484 29.1233 64.3251 29.1449C64.2951 29.1716 64.2701 29.2024 64.2501 29.2374C64.2391 29.2562 64.2347 29.2781 64.2375 29.2996C64.2404 29.3212 64.2504 29.3411 64.2659 29.3564C64.2814 29.3716 64.3015 29.3812 64.3231 29.3837C64.3447 29.3861 64.3665 29.3813 64.3851 29.3699L65.0901 28.9524C65.151 28.9163 65.2203 28.8968 65.2911 28.8956C65.3619 28.8944 65.4318 28.9117 65.4938 28.9458C65.5559 28.9799 65.608 29.0295 65.6451 29.0899C65.6821 29.1502 65.7028 29.2192 65.7051 29.2899L65.7476 30.6374C65.7492 30.7058 65.7751 30.7649 65.8251 30.8149C66.4951 31.4649 66.3926 32.6424 65.3676 32.8074C65.3232 32.8145 65.2781 32.8114 65.2356 32.7984C65.1931 32.7854 65.1544 32.7628 65.1226 32.7324C64.8426 32.4691 64.7092 32.1366 64.7226 31.7349C64.7257 31.6723 64.7052 31.6107 64.6651 31.5624L63.9201 30.6499C63.5151 27.5516 64.0526 24.8383 65.5326 22.5099L67.6001 20.0024Z" fill="#F5EAB3"/>
<path d="M70.1901 20.7173C70.3084 21.5923 70.7659 21.9415 71.5626 21.7648C71.7976 21.7131 72.1276 21.4798 72.5526 21.0648C72.5443 22.4698 72.5259 23.7606 72.4976 24.9373C72.4243 24.9323 72.3851 25.0065 72.3801 25.1598C70.4476 24.5748 67.9376 23.9648 67.7051 26.9748C67.5218 27.7331 67.3601 28.5756 67.2201 29.5023C67.0901 30.3673 67.6001 30.9148 67.9526 31.5948C68.3401 32.3448 67.9976 32.8123 68.7626 33.5023C69.4943 34.1589 70.2643 34.8306 71.0726 35.5173C71.1036 35.5436 71.1402 35.5626 71.1796 35.5728C71.2189 35.5831 71.2601 35.5842 71.3 35.5763C71.3399 35.5684 71.3775 35.5515 71.41 35.527C71.4425 35.5025 71.469 35.471 71.4876 35.4348C71.6093 35.1965 71.9501 35.1281 72.5101 35.2298L72.4926 37.4823C72.4926 37.5573 72.4534 37.594 72.3751 37.5923L68.7176 37.5473C68.6744 37.5466 68.6319 37.5585 68.5951 37.5816C68.5583 37.6046 68.5288 37.6379 68.5101 37.6773C68.3251 38.064 68.2359 38.4881 68.2426 38.9498C68.0476 38.6615 67.7651 38.5448 67.3951 38.5998C67.3018 38.6148 67.2268 38.584 67.1701 38.5073L66.4776 37.5798C66.4593 37.5565 66.4334 37.5403 66.4044 37.534C66.3754 37.5277 66.3452 37.5317 66.3188 37.5453C66.2925 37.5589 66.2717 37.5813 66.26 37.6086C66.2484 37.6359 66.2467 37.6663 66.2551 37.6948C66.6334 38.8681 67.1209 40.0198 67.7176 41.1498C67.9276 41.5481 68.1084 41.6656 68.2601 41.5023L68.2676 44.6948C68.2676 44.7587 68.2802 44.822 68.3048 44.881C68.3293 44.94 68.3652 44.9935 68.4105 45.0386C68.4558 45.0837 68.5096 45.1194 68.5687 45.1436C68.6279 45.1678 68.6912 45.1801 68.7551 45.1798L71.8101 45.1723C71.9151 45.6106 71.9784 46.0315 72.0001 46.4348C72.0551 47.4073 72.2551 48.0148 72.5126 48.8648C72.5368 48.9488 72.5306 49.0391 72.4951 49.1198C72.2351 49.6915 71.8968 50.2106 71.4801 50.6773C71.4324 50.7316 71.3982 50.7958 71.3801 50.8648C71.3168 51.1298 71.1701 51.249 70.9401 51.2223C70.2734 51.1473 69.8309 51.3523 69.6126 51.8373C69.5776 51.914 69.5184 51.9556 69.4351 51.9623L69.1751 51.9848C67.1818 50.7281 65.3234 49.244 63.6001 47.5323C64.4318 45.8973 64.8701 44.1906 64.9151 42.4123C64.9326 41.7848 65.1276 41.3198 65.3351 40.7573C65.3651 40.6756 65.3593 40.5965 65.3176 40.5198L64.9701 39.8998C64.9366 39.839 64.9194 39.7706 64.9203 39.7013C64.9211 39.632 64.94 39.5643 64.9751 39.5048C65.5351 38.5523 65.9751 37.2098 65.4226 36.1648C64.5059 34.4298 64.0051 32.5915 63.9201 30.6498L64.6651 31.5623C64.7052 31.6105 64.7258 31.6721 64.7226 31.7348C64.7093 32.1365 64.8426 32.4689 65.1226 32.7323C65.1544 32.7626 65.1931 32.7852 65.2356 32.7982C65.2781 32.8112 65.3233 32.8143 65.3676 32.8073C66.3926 32.6423 66.4951 31.4648 65.8251 30.8148C65.7751 30.7648 65.7493 30.7056 65.7476 30.6373L65.7051 29.2898C65.7028 29.219 65.6821 29.1501 65.6451 29.0897C65.6081 29.0294 65.5559 28.9797 65.4939 28.9456C65.4318 28.9116 65.3619 28.8943 65.2911 28.8954C65.2203 28.8966 65.151 28.9162 65.0901 28.9523L64.3851 29.3698C64.3666 29.3811 64.3448 29.386 64.3232 29.3835C64.3016 29.381 64.2814 29.3714 64.2659 29.3562C64.2504 29.341 64.2404 29.321 64.2375 29.2995C64.2347 29.2779 64.2391 29.256 64.2501 29.2373C64.2701 29.2023 64.2951 29.1715 64.3251 29.1448C64.3484 29.1231 64.3826 29.1073 64.4276 29.0973C64.8809 28.9956 65.2834 28.7956 65.6351 28.4973C65.6576 28.4785 65.6849 28.4663 65.7139 28.462C65.7429 28.4577 65.7725 28.4615 65.7993 28.4729C65.826 28.4843 65.849 28.503 65.8655 28.5267C65.882 28.5505 65.8914 28.5784 65.8926 28.6073L65.9376 29.4148C65.9443 29.5248 66.0018 29.584 66.1101 29.5923C66.3668 29.6156 66.5776 29.529 66.7426 29.3323C66.8071 29.2564 66.8425 29.1598 66.8426 29.0598V27.7473C66.8426 27.6756 66.8618 27.609 66.9001 27.5473C67.0918 27.2356 67.1618 26.8865 67.1101 26.4998C67.0468 26.0231 67.2159 25.734 67.6176 25.6323C67.6993 25.6106 67.7659 25.5673 67.8176 25.5023C68.0893 25.169 68.3618 24.8431 68.6351 24.5248C68.9076 24.2073 69.0126 23.9173 68.6451 23.6423C68.5768 23.5923 68.5301 23.5273 68.5051 23.4473C68.2251 22.5623 68.2276 21.6798 68.5126 20.7998L70.1901 20.7173Z" fill="#E1CD82"/>
<path d="M70.1899 20.7177L70.6999 21.0502C70.7699 21.0952 70.8383 21.0919 70.9049 21.0402C71.5666 20.5285 72.1158 20.5369 72.5524 21.0652C72.1274 21.4802 71.7974 21.7135 71.5624 21.7652C70.7658 21.9419 70.3083 21.5927 70.1899 20.7177Z" fill="#593E25"/>
<path d="M84.2724 20.9199C84.6141 21.0932 84.8741 21.3441 85.0524 21.6724C85.0941 21.7507 85.0941 21.8299 85.0524 21.9099C84.6057 22.7399 83.9157 23.3441 82.9824 23.7224C82.7424 23.6757 82.4599 23.5307 82.1349 23.2874C81.6766 22.9974 81.4816 22.5624 81.5499 21.9824C81.5616 21.8924 81.6099 21.8307 81.6949 21.7974C82.1666 21.6207 82.5416 21.3207 82.8199 20.8974C82.8699 20.8207 82.9408 20.7766 83.0324 20.7649C83.4441 20.7066 83.8574 20.7582 84.2724 20.9199Z" fill="#26220F"/>
<path d="M87.5252 22.0952C87.1185 22.3119 86.7485 22.7711 86.4152 23.4727C86.1302 24.0677 85.571 24.5369 84.7377 24.8802C83.8827 25.2327 82.3902 26.1402 81.4927 25.8177L81.5652 23.9977L82.9827 23.7227C83.916 23.3444 84.606 22.7402 85.0527 21.9102C85.0943 21.8302 85.0943 21.7511 85.0527 21.6727C84.8743 21.3444 84.6143 21.0936 84.2727 20.9202C85.486 20.4869 86.5702 20.8786 87.5252 22.0952Z" fill="#B9A032"/>
<path d="M87.5248 22.0952C89.8548 24.9077 90.2123 29.0827 89.3623 32.5102C89.0906 33.6019 88.709 34.5127 88.2173 35.2427C87.2998 36.6027 85.9148 37.6802 84.1848 37.5702C83.4148 37.5202 82.6256 37.501 81.8173 37.5127C81.7714 37.513 81.726 37.5044 81.6835 37.4872C81.6411 37.47 81.6025 37.4446 81.5699 37.4126C81.5374 37.3805 81.5116 37.3423 81.494 37.3003C81.4764 37.2583 81.4673 37.2132 81.4673 37.1677L81.4923 25.8177C82.3898 26.1402 83.8823 25.2327 84.7373 24.8802C85.5706 24.5369 86.1298 24.0677 86.4148 23.4727C86.7481 22.771 87.1181 22.3119 87.5248 22.0952Z" fill="#E1CD82"/>
<path d="M82.1352 23.2876C82.4602 23.5309 82.7427 23.6759 82.9827 23.7226L81.5652 23.9976C81.4402 23.8026 81.4418 23.6484 81.5702 23.5351C81.6352 23.4784 81.711 23.4551 81.7977 23.4651C82.0443 23.4968 82.1568 23.4376 82.1352 23.2876Z" fill="#6E6545"/>
<path d="M72.3801 25.1602C72.4317 25.0885 72.4651 25.1193 72.4801 25.2527C72.5784 26.1293 72.5784 27.0393 72.4801 27.9827C71.8717 28.5677 71.8401 29.5035 72.3851 30.7902C72.4022 30.8307 72.4061 30.8756 72.396 30.9185C72.3859 30.9613 72.3625 30.9998 72.3291 31.0285C72.2957 31.0572 72.2541 31.0745 72.2102 31.0779C72.1664 31.0814 72.1225 31.0708 72.0851 31.0477C71.8401 30.8977 71.6051 30.7193 71.3801 30.5127C70.6551 29.8502 70.4376 29.9352 69.6151 30.3502C69.5965 30.3596 69.5753 30.3625 69.5549 30.3585C69.5345 30.3544 69.5161 30.3435 69.5026 30.3277C68.5709 29.2577 67.9717 28.1402 67.7051 26.9752C67.9376 23.9652 70.4476 24.5752 72.3801 25.1602Z" fill="#26220F"/>
<path d="M67.705 26.9751C67.9716 28.1401 68.5708 29.2576 69.5025 30.3276C69.5159 30.3435 69.5344 30.3543 69.5548 30.3584C69.5752 30.3625 69.5964 30.3596 69.6149 30.3501C70.4374 29.9351 70.6549 29.8501 71.3799 30.5126C71.6049 30.7193 71.8399 30.8976 72.0849 31.0476C72.1224 31.0707 72.1662 31.0813 72.2101 31.0778C72.254 31.0744 72.2956 31.0571 72.329 31.0284C72.3624 30.9998 72.3858 30.9612 72.3959 30.9184C72.4059 30.8756 72.4021 30.8306 72.385 30.7901C71.84 29.5034 71.8716 28.5676 72.48 27.9826L72.51 35.2301C71.95 35.1284 71.6091 35.1968 71.4875 35.4351C71.4689 35.4713 71.4423 35.5028 71.4099 35.5273C71.3774 35.5518 71.3398 35.5687 71.2999 35.5766C71.26 35.5846 71.2188 35.5834 71.1794 35.5732C71.14 35.5629 71.1035 35.5439 71.0725 35.5176C70.2641 34.8309 69.4941 34.1593 68.7624 33.5026C67.9974 32.8126 68.3399 32.3451 67.9524 31.5951C67.5999 30.9151 67.09 30.3676 67.22 29.5026C67.36 28.5759 67.5216 27.7334 67.705 26.9751ZM72.4924 32.4001L72.5674 31.9876C72.5714 31.9663 72.5711 31.9443 72.5666 31.9231C72.5621 31.9019 72.5535 31.8817 72.5411 31.8638C72.5288 31.846 72.5131 31.8307 72.4949 31.8189C72.4767 31.8071 72.4563 31.799 72.4349 31.7951L70.7699 31.4926C70.4472 31.4339 70.1261 31.3839 69.8251 31.3453C69.5241 31.3067 69.2491 31.2804 69.0159 31.2679C68.7827 31.2554 68.5959 31.2568 68.4662 31.2722C68.3364 31.2876 68.2664 31.3166 68.26 31.3576L68.2399 31.4751C68.2258 31.5574 68.4701 31.6831 68.9192 31.8246C69.3682 31.9662 69.9853 32.112 70.635 32.2301L72.3 32.5326C72.3213 32.5366 72.3432 32.5363 72.3644 32.5318C72.3857 32.5273 72.4058 32.5186 72.4237 32.5063C72.4416 32.494 72.4569 32.4783 72.4687 32.4601C72.4805 32.4418 72.4885 32.4215 72.4924 32.4001Z" fill="#6E6545"/>
<path d="M72.4923 32.3999C72.4884 32.4213 72.4803 32.4416 72.4685 32.4599C72.4567 32.4781 72.4415 32.4938 72.4236 32.5061C72.4057 32.5184 72.3856 32.5271 72.3643 32.5316C72.3431 32.5361 72.3212 32.5364 72.2998 32.5324L70.6348 32.2299C69.9852 32.1118 69.3681 31.966 68.9191 31.8244C68.47 31.6829 68.2257 31.5572 68.2398 31.4749L68.2598 31.3574C68.2663 31.3164 68.3363 31.2874 68.4661 31.272C68.5958 31.2566 68.7826 31.2552 69.0158 31.2677C69.249 31.2802 69.524 31.3066 69.825 31.3451C70.126 31.3837 70.4471 31.4337 70.7698 31.4924L72.4348 31.7949C72.4562 31.7988 72.4766 31.8069 72.4948 31.8187C72.513 31.8305 72.5287 31.8458 72.541 31.8637C72.5533 31.8815 72.562 31.9017 72.5665 31.9229C72.571 31.9441 72.5713 31.9661 72.5673 31.9874L72.4923 32.3999Z" fill="#26220F"/>
<path d="M68.2423 38.95L68.2598 41.5025C68.1081 41.6658 67.9273 41.5483 67.7173 41.15C67.1206 40.02 66.6331 38.8683 66.2548 37.695C66.2463 37.6665 66.2481 37.6361 66.2597 37.6088C66.2713 37.5815 66.2921 37.5591 66.3185 37.5455C66.3448 37.5319 66.3751 37.5279 66.4041 37.5342C66.4331 37.5405 66.4589 37.5567 66.4773 37.58L67.1698 38.5075C67.2264 38.5841 67.3014 38.615 67.3948 38.6C67.7648 38.545 68.0473 38.6616 68.2423 38.95Z" fill="#B9A032"/>
<path d="M96.3774 52.2001C93.1357 54.0801 89.739 55.2118 86.1874 55.5951C82.4807 55.9951 78.7657 55.6735 75.0424 54.6301C75.049 54.4135 75.2799 54.2951 75.7349 54.2751C75.78 54.273 75.8235 54.2577 75.8599 54.231C75.8964 54.2043 75.9242 54.1675 75.9399 54.1251C76.0849 53.7401 76.3299 53.4218 76.6749 53.1701C76.7515 53.1151 76.8079 53.0364 76.8354 52.9461C76.8629 52.8558 76.8599 52.759 76.8269 52.6706C76.794 52.5822 76.7328 52.507 76.6529 52.4568C76.573 52.4066 76.4788 52.384 76.3849 52.3926C75.0574 52.5051 73.9674 52.6076 72.9074 51.4576C72.859 51.4043 72.799 51.3818 72.7274 51.3901L72.0074 51.4676C71.9678 51.4718 71.9279 51.4635 71.8933 51.4438C71.8587 51.4241 71.8312 51.394 71.8146 51.3578C71.798 51.3216 71.7933 51.2811 71.8009 51.2421C71.8086 51.203 71.8283 51.1674 71.8573 51.1401C72.159 50.8618 72.4815 50.8026 72.8248 50.9626C72.9182 51.006 72.999 50.9876 73.0673 50.9076C73.6123 50.2626 73.7524 48.9451 74.8049 48.8926C74.8882 48.8876 74.9623 48.8601 75.0273 48.8101C75.8273 48.2076 76.9599 47.8676 76.9699 46.6501C76.9715 46.5335 77.0307 46.4801 77.1474 46.4901L77.5174 46.5226C77.859 46.5526 78.0149 46.3968 77.9849 46.0551C77.9599 45.7768 78.0573 45.5535 78.2773 45.3851C78.3407 45.3368 78.3449 45.2835 78.2899 45.2251L78.1874 45.1126C82.6424 45.196 85.7049 45.1976 87.3749 45.1176C90.8365 44.951 93.799 43.5085 96.2623 40.7901L96.2749 40.9876C96.2815 41.0776 96.3298 41.1235 96.4198 41.1251C96.9473 41.1401 97.3298 41.0576 97.7623 40.6951C98.3048 40.2426 100.085 39.0226 100.515 40.2051C100.617 40.4901 100.65 40.7343 100.615 40.9376C100.392 42.2226 100.238 43.5151 100.155 44.8151C100.128 45.2101 100.022 45.5626 99.8374 45.8726C99.239 46.8776 98.694 47.5918 98.2024 48.0151C97.8274 48.3385 97.534 48.6418 97.3224 48.9251C96.8149 49.6051 96.4274 49.8376 95.8299 50.3001C95.1174 50.8476 94.7274 51.6551 94.0324 52.2876C94.0214 52.2972 94.013 52.3093 94.0079 52.3229C94.0028 52.3365 94.0012 52.3512 94.0032 52.3655C94.0052 52.3799 94.0107 52.3936 94.0193 52.4053C94.0279 52.417 94.0392 52.4264 94.0523 52.4326C94.079 52.4443 94.1048 52.4568 94.1298 52.4701C94.1632 52.4868 94.1948 52.4835 94.2248 52.4601C94.9998 51.8768 95.7174 51.7901 96.3774 52.2001Z" fill="#E1CD82"/>
<path d="M78.1873 45.1123L78.2898 45.2248C78.3448 45.2831 78.3406 45.3365 78.2773 45.3848C78.0573 45.5531 77.9598 45.7765 77.9848 46.0548C78.0148 46.3965 77.859 46.5523 77.5173 46.5223L77.1473 46.4898C77.0306 46.4798 76.9715 46.5331 76.9698 46.6498C76.9598 47.8673 75.8273 48.2073 75.0273 48.8098C74.9623 48.8598 74.8881 48.8873 74.8048 48.8923C73.7523 48.9448 73.6123 50.2623 73.0673 50.9073C72.999 50.9873 72.9181 51.0056 72.8248 50.9623C72.4815 50.8023 72.159 50.8615 71.8573 51.1398C71.8283 51.167 71.8085 51.2027 71.8009 51.2418C71.7932 51.2808 71.798 51.3213 71.8146 51.3575C71.8311 51.3937 71.8587 51.4237 71.8932 51.4434C71.9278 51.4631 71.9677 51.4715 72.0073 51.4673L72.7273 51.3898C72.799 51.3815 72.859 51.404 72.9073 51.4573C73.9673 52.6073 75.0573 52.5048 76.3848 52.3923C76.4788 52.3837 76.573 52.4063 76.6529 52.4565C76.7328 52.5067 76.7939 52.5818 76.8269 52.6702C76.8599 52.7587 76.8629 52.8555 76.8354 52.9458C76.8079 53.036 76.7515 53.1148 76.6748 53.1698C76.3298 53.4215 76.0848 53.7398 75.9398 54.1248C75.9241 54.1672 75.8963 54.204 75.8599 54.2307C75.8234 54.2573 75.7799 54.2727 75.7348 54.2748C75.2798 54.2948 75.049 54.4131 75.0423 54.6298C72.9373 53.9948 70.9815 53.1131 69.1748 51.9848L69.4348 51.9623C69.5181 51.9556 69.5773 51.914 69.6123 51.8373C69.8306 51.3523 70.2731 51.1473 70.9398 51.2223C71.1698 51.249 71.3165 51.1298 71.3798 50.8648C71.3979 50.7958 71.4321 50.7316 71.4798 50.6773C71.8965 50.2106 72.2348 49.6915 72.4948 49.1198C72.5303 49.0391 72.5365 48.9488 72.5123 48.8648C72.2548 48.0148 72.0548 47.4073 71.9998 46.4348C71.9781 46.0315 71.9148 45.6106 71.8098 45.1723L78.1873 45.1123Z" fill="#B9A032"/>
</svg>
