<svg width="166" height="58" viewBox="0 0 166 58" fill="none" xmlns="http://www.w3.org/2000/svg">
<path d="M70.5278 29.4849C70.7545 29.6382 71.0187 29.8024 71.3203 29.9774C75.4537 32.3657 79.5787 34.7707 83.6953 37.1924C83.8853 37.304 84.002 37.2449 84.0453 37.0149" stroke="#92A6F2" stroke-width="2"/>
<path d="M84.0454 37.0147C84.2104 36.9714 84.3587 36.913 84.4904 36.8397C88.6904 34.5364 92.8446 32.1539 96.9529 29.6922C97.1096 29.5989 97.2496 29.4697 97.3729 29.3047" stroke="#728BED" stroke-width="2"/>
<path d="M97.3728 29.3046C97.3695 29.283 97.3678 29.2613 97.3678 29.2396C97.3661 29.2013 97.3553 29.1655 97.3353 29.1321L84.1753 7.68213" stroke="#92A6F2" stroke-width="2"/>
<path d="M84.1752 7.68235L83.9802 7.39485C83.9152 7.29985 83.8535 7.30068 83.7952 7.39735C79.3319 14.684 74.8735 21.9724 70.4202 29.2624C70.3852 29.319 70.421 29.3932 70.5277 29.4848" stroke="#B1BFF5" stroke-width="2"/>
<path d="M84.1753 7.68213C83.9803 7.91213 83.8828 8.2688 83.8828 8.75213C83.8895 13.5905 83.9003 18.4188 83.9153 23.2371C83.9153 23.3021 83.8853 23.3471 83.8253 23.3721C79.4353 25.3055 75.3062 27.138 71.4378 28.8696C71.0578 29.0396 70.7545 29.2446 70.5278 29.4846" stroke="#E0E6FC" stroke-width="2"/>
<path d="M97.3725 29.3048C97.2458 29.3415 97.1875 29.3365 97.1975 29.2898C92.8225 27.2981 88.465 25.3473 84.125 23.4373C84.0997 23.426 84.072 23.4212 84.0444 23.4234C84.0168 23.4256 83.9901 23.4347 83.967 23.4499C83.9438 23.4651 83.9248 23.4859 83.9118 23.5103C83.8988 23.5348 83.8922 23.5621 83.8925 23.5898C83.9308 27.6131 83.9258 31.6248 83.8775 35.6248C83.8708 36.1015 83.9266 36.5648 84.045 37.0148" stroke="#A1B3F4" stroke-width="2"/>
<path d="M84.11 50.3925L97.2825 32.2375C97.2948 32.2205 97.301 32.1997 97.2999 32.1787C97.2989 32.1576 97.2907 32.1376 97.2767 32.1219C97.2627 32.1061 97.2437 32.0956 97.223 32.0921C97.2022 32.0886 97.1809 32.0923 97.1625 32.1025L83.9175 39.8" stroke="#92A6F2" stroke-width="2"/>
<path d="M83.9179 39.8L70.5629 32.0475C70.548 32.0371 70.5298 32.0326 70.5117 32.0347C70.4937 32.0367 70.477 32.0453 70.4648 32.0587C70.4526 32.0722 70.4457 32.0896 70.4453 32.1077C70.445 32.1259 70.4512 32.1436 70.4629 32.1575L83.7979 50.605C83.8662 50.7 83.9304 50.6975 83.9904 50.5975L84.1104 50.3925" stroke="#B1BFF5" stroke-width="2"/>
<path d="M83.9175 39.7998C83.9325 43.0431 83.9425 46.3181 83.9475 49.6248C83.9475 49.8781 84.0016 50.134 84.11 50.3923" stroke="#E0E6FC" stroke-width="2"/>
<path d="M81.7201 0H84.3101C90.9101 0.395 96.6568 2.62833 101.55 6.7C112.66 15.9475 115.393 32.435 107.395 44.635C102.078 52.745 94.3759 57.2 84.2876 58H81.6901C75.7951 57.6517 70.5534 55.81 65.9651 52.475C50.8501 41.485 49.8626 18.9925 64.2776 6.87C69.2276 2.70667 75.0418 0.416667 81.7201 0ZM70.5276 29.485C70.7543 29.6383 71.0184 29.8025 71.3201 29.9775C75.4534 32.3658 79.5784 34.7708 83.6951 37.1925C83.8851 37.3042 84.0018 37.245 84.0451 37.015C84.2101 36.9717 84.3584 36.9133 84.4901 36.84C88.6901 34.5367 92.8443 32.1542 96.9526 29.6925C97.1093 29.5992 97.2493 29.47 97.3726 29.305C97.3693 29.2833 97.3676 29.2617 97.3676 29.24C97.3659 29.2017 97.3551 29.1658 97.3351 29.1325L84.1751 7.6825L83.9801 7.395C83.9151 7.3 83.8534 7.30083 83.7951 7.3975C79.3318 14.6842 74.8734 21.9725 70.4201 29.2625C70.3851 29.3192 70.4209 29.3933 70.5276 29.485ZM84.1101 50.3925L97.2826 32.2375C97.2949 32.2204 97.3011 32.1997 97.3 32.1786C97.299 32.1576 97.2908 32.1376 97.2768 32.1218C97.2628 32.1061 97.2439 32.0956 97.2231 32.0921C97.2023 32.0886 97.181 32.0922 97.1626 32.1025L83.9176 39.8L70.5626 32.0475C70.5477 32.0372 70.5295 32.0326 70.5114 32.0347C70.4934 32.0368 70.4767 32.0453 70.4645 32.0588C70.4523 32.0722 70.4454 32.0896 70.445 32.1078C70.4447 32.1259 70.4509 32.1436 70.4626 32.1575L83.7976 50.605C83.8659 50.7 83.9301 50.6975 83.9901 50.5975L84.1101 50.3925Z" fill="#627EEB"/>
<path d="M84.1752 7.68235C83.9802 7.91235 83.8827 8.26902 83.8827 8.75235C83.8894 13.5907 83.9002 18.419 83.9152 23.2373C83.9152 23.3023 83.8852 23.3473 83.8252 23.3723C79.4352 25.3057 75.306 27.1382 71.4377 28.8699C71.0577 29.0399 70.7544 29.2449 70.5277 29.4848C70.421 29.3932 70.3852 29.319 70.4202 29.2624C74.8735 21.9724 79.3319 14.684 83.7952 7.39735C83.8535 7.30068 83.9152 7.29985 83.9802 7.39485L84.1752 7.68235Z" fill="white"/>
<path d="M84.1749 7.68262L97.3348 29.1326C97.3548 29.166 97.3657 29.2018 97.3673 29.2401C97.3673 29.2618 97.369 29.2835 97.3723 29.3051C97.2457 29.3418 97.1873 29.3368 97.1973 29.2901C92.8223 27.2985 88.4648 25.3476 84.1248 23.4376C84.0996 23.4263 84.0718 23.4215 84.0442 23.4237C84.0166 23.4259 83.99 23.435 83.9668 23.4502C83.9437 23.4654 83.9247 23.4862 83.9117 23.5106C83.8987 23.5351 83.892 23.5624 83.8923 23.5901C83.9307 27.6135 83.9257 31.6251 83.8773 35.6251C83.8707 36.1018 83.9265 36.5651 84.0448 37.0151C84.0015 37.2451 83.8848 37.3043 83.6948 37.1926C79.5782 34.771 75.4532 32.366 71.3198 29.9776C71.0182 29.8026 70.754 29.6385 70.5273 29.4851C70.754 29.2451 71.0573 29.0401 71.4373 28.8701C75.3057 27.1385 79.4348 25.306 83.8248 23.3726C83.8848 23.3476 83.9148 23.3026 83.9148 23.2376C83.8998 18.4193 83.889 13.591 83.8823 8.75262C83.8823 8.26928 83.9799 7.91262 84.1749 7.68262Z" fill="#C1CDF9"/>
<path d="M97.3725 29.3048C97.2491 29.4698 97.1091 29.599 96.9525 29.6923C92.8442 32.154 88.69 34.5365 84.49 36.8398C84.3583 36.9131 84.21 36.9715 84.045 37.0148C83.9266 36.5648 83.8708 36.1015 83.8775 35.6248C83.9258 31.6248 83.9308 27.6131 83.8925 23.5898C83.8922 23.5621 83.8988 23.5348 83.9118 23.5103C83.9248 23.4859 83.9438 23.4651 83.967 23.4499C83.9901 23.4347 84.0168 23.4256 84.0444 23.4234C84.072 23.4212 84.0997 23.426 84.125 23.4373C88.465 25.3473 92.8225 27.2981 97.1975 29.2898C97.1875 29.3365 97.2458 29.3415 97.3725 29.3048Z" fill="#8198EE"/>
<path d="M83.9174 39.8C83.9324 43.0433 83.9424 46.3183 83.9474 49.625C83.9474 49.8783 84.0016 50.1341 84.1099 50.3925L83.9899 50.5975C83.9299 50.6975 83.8658 50.7 83.7974 50.605L70.4624 32.1575C70.4507 32.1436 70.4445 32.1259 70.4448 32.1077C70.4452 32.0896 70.4521 32.0722 70.4643 32.0587C70.4765 32.0453 70.4932 32.0367 70.5113 32.0347C70.5293 32.0326 70.5475 32.0371 70.5624 32.0475L83.9174 39.8Z" fill="white"/>
<path d="M84.11 50.3925C84.0016 50.1342 83.9475 49.8784 83.9475 49.625C83.9425 46.3184 83.9325 43.0434 83.9175 39.8L97.1625 32.1025C97.1809 32.0923 97.2022 32.0886 97.223 32.0921C97.2437 32.0956 97.2627 32.1061 97.2767 32.1219C97.2907 32.1376 97.2989 32.1576 97.2999 32.1787C97.301 32.1997 97.2948 32.2205 97.2825 32.2375L84.11 50.3925Z" fill="#C1CDF9"/>
</svg>
