<svg width="166" height="58" viewBox="0 0 166 58" fill="none" xmlns="http://www.w3.org/2000/svg">
<path d="M120.967 20.5499C120.96 20.5368 120.95 20.5259 120.937 20.5184C120.924 20.5108 120.91 20.5068 120.895 20.5068C120.88 20.5068 120.866 20.5108 120.853 20.5184C120.84 20.5259 120.83 20.5368 120.822 20.5499L107.565 45.9474C107.522 46.0307 107.453 46.0724 107.36 46.0724L98.97 46.0749C98.865 46.0749 98.8375 46.0274 98.8875 45.9324C104.254 35.8141 109.607 25.6916 114.945 15.5649C117.035 11.6024 122.312 10.6274 125.562 13.7724C126.162 14.3541 126.931 15.5341 127.867 17.3124C132.891 26.8441 137.901 36.3832 142.897 45.9299C142.947 46.0266 142.919 46.0749 142.812 46.0749L134.43 46.0724C134.335 46.0724 134.266 46.0307 134.222 45.9474L130.65 39.0949C130.618 39.0349 130.567 39.0049 130.497 39.0049H121.06C120.967 39.0049 120.898 38.9641 120.855 38.8824L117.58 32.6399C117.53 32.5432 117.56 32.4949 117.67 32.4949H127.062C127.156 32.4949 127.181 32.4532 127.137 32.3699L120.967 20.5499Z" fill="#0084C1"/>
<path d="M73.6201 38.8073H96.7501C96.7706 38.8074 96.7906 38.8128 96.8084 38.823C96.8261 38.8333 96.8409 38.848 96.8515 38.8658C96.862 38.8836 96.8678 38.9038 96.8685 38.9246C96.8691 38.9455 96.8645 38.9662 96.8551 38.9848L93.1551 45.9523C93.1118 46.034 93.0443 46.0748 92.9526 46.0748L66.0026 46.0723C65.9159 46.0723 65.8718 46.029 65.8701 45.9423C65.8118 41.7156 65.8068 38.0073 65.8551 34.8173C65.9226 30.5173 69.0101 26.8698 73.0726 25.7898C73.9276 25.5615 75.1584 25.4473 76.7651 25.4473C81.7201 25.4473 86.6734 25.4481 91.6251 25.4498C93.7226 25.4498 95.0751 23.1173 94.2226 21.1548C93.7126 19.9815 92.7426 19.394 91.3126 19.3923C83.0659 19.3823 74.8184 19.3748 66.5701 19.3698C66.4868 19.3698 66.4434 19.3273 66.4401 19.2423C66.4218 18.5923 66.4576 18.1148 66.5476 17.8098C67.6793 14.0065 70.2568 12.104 74.2801 12.1023C79.9801 12.1023 85.6801 12.099 91.3801 12.0923C96.0801 12.0873 99.8676 14.3798 101.553 18.7473C103.773 24.5048 100.4 30.9023 94.5826 32.3723C93.6009 32.6206 91.9551 32.7431 89.6451 32.7398C85.5018 32.7315 81.3593 32.7315 77.2176 32.7398C76.3209 32.7415 75.6509 32.849 75.2076 33.0623C73.0026 34.1223 73.4326 36.6398 73.4501 38.6373C73.4501 38.7506 73.5068 38.8073 73.6201 38.8073Z" fill="#555E63"/>
<path d="M52.4975 38.68V32.8675C52.4975 32.7808 52.4541 32.7375 52.3675 32.7375H38.38C38.3083 32.7375 38.2725 32.7016 38.2725 32.63L38.27 25.59C38.27 25.495 38.3175 25.4475 38.4125 25.4475L60.005 25.45C60.085 25.45 60.125 25.4891 60.125 25.5675V45.94C60.125 45.9725 60.1121 46.0036 60.0891 46.0266C60.0661 46.0496 60.035 46.0625 60.0025 46.0625C53.8158 46.0725 47.6483 46.0716 41.5 46.06C39.265 46.0566 37.6066 45.9433 36.525 45.72C30.745 44.535 25.93 40.3075 23.9775 34.7825C20.53 25.02 26.4825 14.595 36.4675 12.4775C37.5375 12.2508 39.0058 12.1341 40.8725 12.1275C47.2458 12.1058 53.6183 12.1041 59.99 12.1225C60.08 12.1225 60.125 12.1675 60.125 12.2575L60.1225 19.235C60.1225 19.3166 60.0825 19.3575 60.0025 19.3575C54.1258 19.3875 48.255 19.3908 42.39 19.3675C40.4866 19.3591 39.0708 19.47 38.1425 19.7C33.58 20.825 30.5925 24.8225 30.745 29.485C30.8775 33.6 33.8425 37.4225 37.9025 38.46C38.7191 38.67 40.1666 38.78 42.245 38.79C45.6216 38.8083 48.9983 38.8125 52.375 38.8025C52.4566 38.8025 52.4975 38.7616 52.4975 38.68Z" fill="#F05F00"/>
<path d="M113.935 45.8249C112.33 45.0324 112.725 42.1299 114.628 42.0124C115.479 41.9608 116.337 41.9408 117.2 41.9524C117.28 41.9524 117.32 41.9924 117.32 42.0724V42.6799C117.32 42.7649 117.278 42.8074 117.193 42.8074C116.403 42.8124 114.463 42.5649 114.01 43.3224C113.63 43.9549 113.803 44.7999 114.503 45.1099C115.123 45.3824 116.445 45.2349 117.185 45.2424C117.275 45.2424 117.32 45.2874 117.32 45.3774V45.9349C117.32 46.0233 117.276 46.0674 117.188 46.0674C116.188 46.0774 114.75 46.2274 113.935 45.8249Z" fill="#0084C1"/>
<path d="M123.163 44.1968C123.157 44.6967 122.953 45.1737 122.595 45.5229C122.237 45.872 121.755 46.0648 121.255 46.0587L119.8 46.0409C119.301 46.0348 118.824 45.8303 118.474 45.4725C118.125 45.1147 117.933 44.6329 117.939 44.133L117.942 43.838C117.948 43.3381 118.153 42.8612 118.511 42.512C118.868 42.1628 119.35 41.9701 119.85 41.9762L121.305 41.994C121.805 42.0001 122.282 42.2045 122.631 42.5623C122.98 42.9201 123.173 43.402 123.167 43.9019L123.163 44.1968ZM122.288 43.9485C122.289 43.8017 122.26 43.6563 122.204 43.5205C122.149 43.3847 122.067 43.2613 121.963 43.1571C121.86 43.053 121.737 42.9703 121.602 42.9136C121.466 42.857 121.321 42.8276 121.174 42.8271L119.954 42.8228C119.658 42.8218 119.373 42.9385 119.163 43.1474C118.953 43.3562 118.834 43.64 118.833 43.9364L118.832 44.0964C118.832 44.2432 118.86 44.3886 118.916 44.5244C118.972 44.6601 119.054 44.7836 119.157 44.8877C119.26 44.9919 119.383 45.0746 119.519 45.1313C119.654 45.1879 119.799 45.2173 119.946 45.2178L121.166 45.2221C121.462 45.2231 121.747 45.1063 121.957 44.8975C122.168 44.6887 122.286 44.4048 122.287 44.1085L122.288 43.9485Z" fill="#0084C1"/>
<path d="M128.28 43.1202L127.463 45.3552C127.419 45.4734 127.34 45.5754 127.237 45.6477C127.134 45.7199 127.011 45.7587 126.886 45.759C126.76 45.7593 126.637 45.7209 126.534 45.6492C126.431 45.5774 126.353 45.4757 126.31 45.3577L125.485 43.1102C125.433 42.9736 125.383 42.9736 125.335 43.1102L124.313 45.9877C124.294 46.0411 124.257 46.0677 124.2 46.0677L123.473 46.0802C123.455 46.0806 123.438 46.0766 123.423 46.0689C123.408 46.0611 123.395 46.0496 123.385 46.0356C123.375 46.0215 123.369 46.0052 123.367 45.9882C123.364 45.9711 123.367 45.9538 123.373 45.9377L124.718 42.3027C124.775 42.1499 124.879 42.0191 125.015 41.9293C125.151 41.8395 125.313 41.7953 125.476 41.8031C125.639 41.8109 125.795 41.8703 125.922 41.9727C126.049 42.075 126.14 42.2151 126.183 42.3727C126.354 43.0211 126.567 43.6469 126.82 44.2502C126.868 44.3636 126.913 44.3627 126.955 44.2477L127.748 42.0727C127.761 42.0368 127.785 42.0058 127.817 41.9839C127.849 41.962 127.886 41.9503 127.925 41.9502L128.748 41.9577C128.868 41.9577 128.948 42.0136 128.988 42.1252L130.398 45.9427C130.429 46.0311 130.398 46.0752 130.305 46.0752L129.593 46.0702C129.519 46.0702 129.471 46.0361 129.448 45.9677L128.44 43.1202C128.387 42.9719 128.333 42.9719 128.28 43.1202Z" fill="#0084C1"/>
<path d="M111.838 46.0773C112.144 46.0773 112.393 45.8288 112.393 45.5223C112.393 45.2158 112.144 44.9673 111.838 44.9673C111.531 44.9673 111.283 45.2158 111.283 45.5223C111.283 45.8288 111.531 46.0773 111.838 46.0773Z" fill="#0084C1"/>
</svg>
