<svg width="166" height="58" viewBox="0 0 166 58" fill="none" xmlns="http://www.w3.org/2000/svg">
<path d="M82.4875 5.27023C84.1875 5.83523 84.5975 4.26773 84.2325 3.04273C84.2201 3.00364 84.1954 2.96961 84.1621 2.94573C84.1287 2.92184 84.0885 2.90939 84.0475 2.91023C83.3875 2.92523 82.5725 2.70023 82.06 3.11273C81.285 3.74023 81.5475 4.95773 82.4875 5.27023Z" stroke="#F1BD5F" stroke-width="2"/>
<path d="M88.6503 4.45014C88.6503 4.1027 88.5123 3.7695 88.2666 3.52383C88.0209 3.27815 87.6877 3.14014 87.3403 3.14014C86.9928 3.14014 86.6596 3.27815 86.414 3.52383C86.1683 3.7695 86.0303 4.1027 86.0303 4.45014C86.0303 4.79757 86.1683 5.13077 86.414 5.37645C86.6596 5.62212 86.9928 5.76014 87.3403 5.76014C87.6877 5.76014 88.0209 5.62212 88.2666 5.37645C88.5123 5.13077 88.6503 4.79757 88.6503 4.45014Z" stroke="#F1BD5F" stroke-width="2"/>
<path d="M79.9726 4.44506C79.9726 4.09431 79.8333 3.75793 79.5853 3.50991C79.3373 3.26189 79.0009 3.12256 78.6501 3.12256C78.2994 3.12256 77.963 3.26189 77.715 3.50991C77.467 3.75793 77.3276 4.09431 77.3276 4.44506C77.3276 4.79581 77.467 5.13219 77.715 5.38021C77.963 5.62822 78.2994 5.76756 78.6501 5.76756C79.0009 5.76756 79.3373 5.62822 79.5853 5.38021C79.8333 5.13219 79.9726 4.79581 79.9726 4.44506Z" stroke="#F1BD5F" stroke-width="2"/>
<path d="M75.7876 5.55518C75.7876 5.20708 75.6493 4.87324 75.4032 4.6271C75.157 4.38096 74.8232 4.24268 74.4751 4.24268C74.127 4.24268 73.7932 4.38096 73.547 4.6271C73.3009 4.87324 73.1626 5.20708 73.1626 5.55518C73.1626 5.90327 73.3009 6.23711 73.547 6.48325C73.7932 6.72939 74.127 6.86768 74.4751 6.86768C74.8232 6.86768 75.157 6.72939 75.4032 6.48325C75.6493 6.23711 75.7876 5.90327 75.7876 5.55518Z" stroke="#F1BD5F" stroke-width="2"/>
<path d="M92.8153 5.55781C92.8153 5.21303 92.6784 4.88237 92.4346 4.63857C92.1908 4.39478 91.8601 4.25781 91.5153 4.25781C91.1706 4.25781 90.8399 4.39478 90.5961 4.63857C90.3523 4.88237 90.2153 5.21303 90.2153 5.55781C90.2153 5.90259 90.3523 6.23325 90.5961 6.47705C90.8399 6.72085 91.1706 6.85781 91.5153 6.85781C91.8601 6.85781 92.1908 6.72085 92.4346 6.47705C92.6784 6.23325 92.8153 5.90259 92.8153 5.55781Z" stroke="#F1BD5F" stroke-width="2"/>
<path d="M94.4277 6.67006C93.1302 7.98756 96.0402 9.86756 96.7527 7.81506C96.8727 7.47172 96.7635 6.98589 96.4252 6.35756C96.3898 6.29325 96.332 6.24428 96.2627 6.22006C95.5694 5.98172 94.9577 6.13172 94.4277 6.67006Z" stroke="#F1BD5F" stroke-width="2"/>
<path d="M71.8652 7.42773C71.8652 7.07964 71.727 6.7458 71.4808 6.49966C71.2347 6.25352 70.9008 6.11523 70.5527 6.11523C70.2046 6.11523 69.8708 6.25352 69.6247 6.49966C69.3785 6.7458 69.2402 7.07964 69.2402 7.42773C69.2402 7.77583 69.3785 8.10967 69.6247 8.35581C69.8708 8.60195 70.2046 8.74023 70.5527 8.74023C70.9008 8.74023 71.2347 8.60195 71.4808 8.35581C71.727 8.10967 71.8652 7.77583 71.8652 7.42773Z" stroke="#F1BD5F" stroke-width="2"/>
<path d="M79.1052 7.86751C77.6427 7.85001 76.0002 8.54501 74.5752 9.14251C73.4486 9.61584 72.4369 10.1392 71.5402 10.7125C66.6252 13.8492 63.4411 18.3308 61.9877 24.1575C61.9077 24.4775 61.8711 24.8658 61.8777 25.3225" stroke="#F4C263" stroke-width="2"/>
<path d="M61.8776 25.3228C61.3993 26.8461 61.2884 28.6811 61.5451 30.8278" stroke="#F1BD5F" stroke-width="2"/>
<path d="M61.5449 30.8276C61.6466 32.6793 62.0199 34.4376 62.6649 36.1026" stroke="#F4C263" stroke-width="2"/>
<path d="M62.665 36.1025C62.9984 37.3859 63.5534 38.5642 64.33 39.6375" stroke="#F1BD5F" stroke-width="2"/>
<path d="M64.3301 39.6377C65.8134 42.521 68.0992 44.971 71.1876 46.9877C74.3542 49.0544 77.6959 50.2152 81.2126 50.4702" stroke="#F4C263" stroke-width="2"/>
<path d="M81.2124 50.4702C85.0424 50.7852 88.6966 50.1519 92.1749 48.5702C92.8024 48.2852 93.3399 47.7827 93.9874 47.4652C94.6574 47.1335 95.1149 46.8752 95.3599 46.6902C97.5149 45.0735 99.3807 43.1644 100.957 40.9627C101.262 40.5352 101.382 40.0102 101.705 39.5302C102.072 38.9835 102.287 38.6461 102.35 38.5177C104.107 34.9011 104.808 31.0519 104.455 26.9702" stroke="#F1BD5F" stroke-width="2"/>
<path d="M104.455 26.9703C104.327 25.4336 104.016 23.9253 103.522 22.4453" stroke="#F4C263" stroke-width="2"/>
<path d="M103.523 22.4454C103.198 21.117 102.61 19.762 101.76 18.3804" stroke="#F1BD5F" stroke-width="2"/>
<path d="M101.76 18.3801C101.359 17.7451 100.919 17.0701 100.443 16.3551C99.9428 15.6051 99.4503 14.971 98.9653 14.4526C95.1987 10.4193 90.532 8.1068 84.9653 7.51514" stroke="#F4C263" stroke-width="2"/>
<path d="M84.965 7.51539C82.9733 7.29373 81.02 7.41123 79.105 7.86789" stroke="#F1BD5F" stroke-width="2"/>
<path d="M84.9651 7.51514L85.0276 7.54764C85.0842 7.57597 85.1126 7.62347 85.1126 7.69014C85.1109 8.17014 84.9384 8.5343 84.5951 8.78264C83.3434 9.69264 82.2801 10.6085 81.4051 11.5301C80.4567 12.5268 79.5059 13.5218 78.5526 14.5151C77.7701 15.3326 76.7151 16.0751 75.8651 16.9651C72.9251 20.0476 69.8601 23.0001 66.9326 26.1026C66.6492 26.4026 66.1392 26.8593 65.4026 27.4726C64.4426 28.2726 63.6517 29.2276 63.0301 30.3376C62.9034 30.566 62.5284 30.831 61.9051 31.1326C61.8367 31.166 61.7717 31.1601 61.7101 31.1151C61.5967 31.0368 61.5417 30.941 61.5451 30.8276" stroke="#E5B45A" stroke-width="2"/>
<path d="M61.8774 25.3227C64.3074 22.9943 66.6433 20.7352 68.8849 18.5452C69.5449 17.8977 70.2624 17.0102 71.0124 16.2952C73.3924 14.0302 75.6849 11.6752 78.0299 9.37268C78.4899 8.92018 78.7824 8.41018 79.1049 7.86768" stroke="#E5B45A" stroke-width="2"/>
<path d="M101.76 18.3804C100.748 19.4004 99.7209 20.3612 98.6776 21.2629C98.0401 21.8154 97.5801 22.5154 97.0476 23.0479C95.6376 24.4662 94.2334 25.8904 92.8351 27.3204C91.9501 28.2254 90.4001 29.5704 89.3201 30.8729C88.6451 31.6904 87.9601 32.1554 87.1126 32.6904C86.8476 32.857 86.5926 33.0962 86.3476 33.4079C86.0559 33.7795 85.6534 34.197 85.1401 34.6604C84.9168 34.8637 84.9143 35.087 85.1326 35.3304" stroke="#E5B45A" stroke-width="2"/>
<path d="M85.1324 35.3302L81.2924 35.2977C81.1974 35.2977 81.1591 35.251 81.1774 35.1577L83.0599 25.8802C83.0731 25.8126 83.1019 25.749 83.144 25.6944C83.1861 25.6397 83.2403 25.5955 83.3024 25.5652L86.5449 23.9727C86.5775 23.9569 86.6054 23.9328 86.6256 23.9029C86.6458 23.8731 86.6576 23.8385 86.6599 23.8027L86.7374 22.3002C86.7457 22.1602 86.6866 22.1202 86.5599 22.1802L83.7999 23.4977C83.7747 23.5099 83.7466 23.5148 83.7188 23.5119C83.6909 23.509 83.6645 23.4984 83.6424 23.4812C83.6202 23.4641 83.6034 23.4411 83.5937 23.4148C83.584 23.3885 83.5818 23.3601 83.5874 23.3327L85.2149 15.4227C85.2382 15.306 85.1907 15.2477 85.0724 15.2477L80.3849 15.2427C80.3049 15.2427 80.2566 15.281 80.2399 15.3577L79.3374 19.3227" stroke="#F4DCAF" stroke-width="2"/>
<path d="M79.3376 19.3227C79.2909 19.161 79.2651 19.0793 79.2601 19.0777C79.155 19.0516 79.0444 19.0572 78.9422 19.0936C78.84 19.1301 78.7506 19.1958 78.6851 19.2827C77.9868 20.2093 77.1959 21.0118 76.3126 21.6902C75.8526 22.0427 75.5576 22.5302 75.2251 22.8502C73.2634 24.7302 71.3626 26.6685 69.5226 28.6652C69.2251 28.9877 68.8101 29.2102 68.4826 29.5427C66.5643 31.4877 64.6751 33.461 62.8151 35.4627C62.6276 35.6627 62.6276 35.8502 62.6651 36.1027" stroke="#E5B45A" stroke-width="2"/>
<path d="M85.1328 35.3302C86.7711 35.2185 88.462 35.2702 90.2053 35.4852" stroke="#F1D7AB" stroke-width="2"/>
<path d="M90.2049 35.4851C89.5699 36.9385 89.1041 38.4568 88.8074 40.0401C88.7946 40.1096 88.7578 40.1725 88.7034 40.2177C88.6491 40.2629 88.5806 40.2876 88.5099 40.2876L74.5624 40.3001C74.5411 40.2999 74.52 40.295 74.5008 40.2855C74.4816 40.2761 74.4648 40.2625 74.4516 40.2457C74.4384 40.2289 74.4292 40.2093 74.4245 40.1884C74.4199 40.1676 74.4201 40.1459 74.4249 40.1251L77.0949 28.8001C77.1233 28.6751 77.0799 28.6401 76.9649 28.6951L73.3574 30.4176" stroke="#F4DCAF" stroke-width="2"/>
<path d="M73.3576 30.4178C73.2276 29.8711 73.2193 29.3428 73.3326 28.8328C73.3404 28.7951 73.3562 28.7596 73.3791 28.7285C73.402 28.6974 73.4313 28.6716 73.4651 28.6528C75.0884 27.7278 76.1601 27.1903 76.6801 27.0403C77.2784 26.8686 77.6393 26.5236 77.7626 26.0053C78.2909 23.7719 78.8159 21.5444 79.3376 19.3228" stroke="#F1D7AB" stroke-width="2"/>
<path d="M103.523 22.4453L103.483 22.5603C103.468 22.6053 103.437 22.6195 103.39 22.6028C103.348 22.5845 103.303 22.5911 103.253 22.6228C102.734 22.9495 102.317 23.3761 102 23.9028C101.957 23.9745 101.898 24.0311 101.825 24.0728C100.893 24.5828 100.38 25.3603 99.7051 25.9903C99.4084 26.2653 99.1184 26.547 98.8351 26.8353C95.9584 29.7536 93.0817 32.637 90.2051 35.4853" stroke="#E5B45A" stroke-width="2"/>
<path d="M73.3576 30.418C72.5042 31.3313 71.6451 32.258 70.7801 33.198C70.3634 33.6513 69.4826 34.5338 68.1376 35.8455C67.2442 36.7171 66.4026 37.6388 65.6126 38.6105C65.2309 39.0788 64.8034 39.4213 64.3301 39.638" stroke="#E5B45A" stroke-width="2"/>
<path d="M104.455 26.9702C104.008 27.1485 103.66 27.3585 103.41 27.6002C99.6883 31.1885 95.6141 35.281 91.1874 39.8777C90.8824 40.1927 90.4924 40.4402 90.2099 40.7277C87.9049 43.0627 85.5791 45.3769 83.2324 47.6702C82.9258 47.9719 82.2499 48.691 81.2049 49.8277C81.1116 49.9294 81.0558 50.0294 81.0374 50.1277C80.9958 50.331 81.0541 50.4452 81.2124 50.4702" stroke="#E5B45A" stroke-width="2"/>
<path d="M68.2776 9.8876C68.2776 9.71852 68.2443 9.5511 68.1796 9.39489C68.1149 9.23869 68.0201 9.09675 67.9005 8.9772C67.781 8.85764 67.639 8.7628 67.4828 8.6981C67.3266 8.6334 67.1592 8.6001 66.9901 8.6001C66.6487 8.6001 66.3212 8.73574 66.0797 8.9772C65.8383 9.21865 65.7026 9.54613 65.7026 9.8876C65.7026 10.2291 65.8383 10.5565 66.0797 10.798C66.3212 11.0395 66.6487 11.1751 66.9901 11.1751C67.1592 11.1751 67.3266 11.1418 67.4828 11.0771C67.639 11.0124 67.781 10.9176 67.9005 10.798C68.0201 10.6784 68.1149 10.5365 68.1796 10.3803C68.2443 10.2241 68.2776 10.0567 68.2776 9.8876Z" stroke="#F1BD5F" stroke-width="2"/>
<path d="M100.308 9.88021C100.308 9.53941 100.172 9.21257 99.9314 8.97158C99.6904 8.7306 99.3636 8.59521 99.0228 8.59521C98.682 8.59521 98.3551 8.7306 98.1142 8.97158C97.8732 9.21257 97.7378 9.53941 97.7378 9.88021C97.7378 10.221 97.8732 10.5479 98.1142 10.7888C98.3551 11.0298 98.682 11.1652 99.0228 11.1652C99.3636 11.1652 99.6904 11.0298 99.9314 10.7888C100.172 10.5479 100.308 10.221 100.308 9.88021Z" stroke="#F1BD5F" stroke-width="2"/>
<path d="M65.1601 13.0004C65.1601 12.6583 65.0242 12.3302 64.7822 12.0883C64.5403 11.8464 64.2122 11.7104 63.8701 11.7104C63.5279 11.7104 63.1998 11.8464 62.9579 12.0883C62.716 12.3302 62.5801 12.6583 62.5801 13.0004C62.5801 13.3426 62.716 13.6707 62.9579 13.9126C63.1998 14.1545 63.5279 14.2904 63.8701 14.2904C64.2122 14.2904 64.5403 14.1545 64.7822 13.9126C65.0242 13.6707 65.1601 13.3426 65.1601 13.0004Z" stroke="#F1BD5F" stroke-width="2"/>
<path d="M103.373 12.9701C103.373 12.6233 103.235 12.2908 102.99 12.0456C102.745 11.8004 102.412 11.6626 102.065 11.6626C101.719 11.6626 101.386 11.8004 101.141 12.0456C100.896 12.2908 100.758 12.6233 100.758 12.9701C100.758 13.3169 100.896 13.6494 101.141 13.8946C101.386 14.1398 101.719 14.2776 102.065 14.2776C102.412 14.2776 102.745 14.1398 102.99 13.8946C103.235 13.6494 103.373 13.3169 103.373 12.9701Z" stroke="#F1BD5F" stroke-width="2"/>
<path d="M62.7374 16.5501C62.7374 16.3787 62.7037 16.209 62.6381 16.0507C62.5725 15.8924 62.4764 15.7485 62.3552 15.6273C62.234 15.5062 62.0902 15.41 61.9318 15.3445C61.7735 15.2789 61.6038 15.2451 61.4324 15.2451C61.2611 15.2451 61.0914 15.2789 60.933 15.3445C60.7747 15.41 60.6309 15.5062 60.5097 15.6273C60.3885 15.7485 60.2924 15.8924 60.2268 16.0507C60.1612 16.209 60.1274 16.3787 60.1274 16.5501C60.1274 16.8962 60.2649 17.2282 60.5097 17.4729C60.7544 17.7176 61.0863 17.8551 61.4324 17.8551C61.7785 17.8551 62.1105 17.7176 62.3552 17.4729C62.6 17.2282 62.7374 16.8962 62.7374 16.5501Z" stroke="#F1BD5F" stroke-width="2"/>
<path d="M105.893 16.5304C105.893 16.3603 105.859 16.1919 105.794 16.0348C105.729 15.8777 105.634 15.7349 105.513 15.6146C105.393 15.4944 105.25 15.399 105.093 15.3339C104.936 15.2688 104.768 15.2354 104.598 15.2354C104.428 15.2354 104.259 15.2688 104.102 15.3339C103.945 15.399 103.802 15.4944 103.682 15.6146C103.562 15.7349 103.466 15.8777 103.401 16.0348C103.336 16.1919 103.303 16.3603 103.303 16.5304C103.303 16.8738 103.439 17.2032 103.682 17.4461C103.925 17.6889 104.254 17.8254 104.598 17.8254C104.941 17.8254 105.271 17.6889 105.513 17.4461C105.756 17.2032 105.893 16.8738 105.893 16.5304Z" stroke="#F1BD5F" stroke-width="2"/>
<path d="M60.8626 20.4725C60.8626 20.1258 60.7248 19.7932 60.4796 19.548C60.2344 19.3028 59.9018 19.165 59.5551 19.165C59.2083 19.165 58.8757 19.3028 58.6305 19.548C58.3853 19.7932 58.2476 20.1258 58.2476 20.4725C58.2476 20.6442 58.2814 20.8143 58.3471 20.9729C58.4128 21.1315 58.5091 21.2757 58.6305 21.3971C58.7519 21.5185 58.8961 21.6148 59.0547 21.6805C59.2133 21.7462 59.3834 21.78 59.5551 21.78C59.7268 21.78 59.8968 21.7462 60.0554 21.6805C60.214 21.6148 60.3582 21.5185 60.4796 21.3971C60.601 21.2757 60.6973 21.1315 60.763 20.9729C60.8287 20.8143 60.8626 20.6442 60.8626 20.4725Z" stroke="#F1BD5F" stroke-width="2"/>
<path d="M107.738 20.4904C107.738 20.1409 107.599 19.8058 107.352 19.5587C107.105 19.3117 106.769 19.1729 106.42 19.1729C106.071 19.1729 105.736 19.3117 105.488 19.5587C105.241 19.8058 105.103 20.1409 105.103 20.4904C105.103 20.6634 105.137 20.8347 105.203 20.9945C105.269 21.1544 105.366 21.2996 105.488 21.422C105.611 21.5443 105.756 21.6414 105.916 21.7076C106.076 21.7738 106.247 21.8079 106.42 21.8079C106.593 21.8079 106.764 21.7738 106.924 21.7076C107.084 21.6414 107.229 21.5443 107.352 21.422C107.474 21.2996 107.571 21.1544 107.637 20.9945C107.703 20.8347 107.738 20.6634 107.738 20.4904Z" stroke="#F1BD5F" stroke-width="2"/>
<path d="M59.7065 24.4806C59.7149 24.3512 59.6977 24.2214 59.6559 24.0987C59.6141 23.9759 59.5486 23.8626 59.463 23.7651C59.3774 23.6677 59.2734 23.5881 59.1571 23.5308C59.0407 23.4736 58.9142 23.4398 58.7848 23.4314L58.2908 23.3995C58.0295 23.3826 57.7721 23.4702 57.5754 23.6431C57.3786 23.8159 57.2586 24.0599 57.2417 24.3212L57.2091 24.8252C57.2007 24.9546 57.2179 25.0844 57.2597 25.2071C57.3015 25.3299 57.3671 25.4432 57.4527 25.5407C57.5382 25.6381 57.6422 25.7177 57.7585 25.7749C57.8749 25.8322 58.0014 25.866 58.1308 25.8743L58.6248 25.9063C58.8861 25.9232 59.1435 25.8356 59.3403 25.6627C59.537 25.4899 59.657 25.2459 59.6739 24.9846L59.7065 24.4806Z" stroke="#F1BD5F" stroke-width="2"/>
<path d="M108.88 24.6878C108.88 24.3423 108.743 24.011 108.498 23.7667C108.254 23.5225 107.923 23.3853 107.577 23.3853C107.232 23.3853 106.901 23.5225 106.656 23.7667C106.412 24.011 106.275 24.3423 106.275 24.6878C106.275 25.0332 106.412 25.3645 106.656 25.6088C106.901 25.853 107.232 25.9903 107.577 25.9903C107.923 25.9903 108.254 25.853 108.498 25.6088C108.743 25.3645 108.88 25.0332 108.88 24.6878Z" stroke="#F1BD5F" stroke-width="2"/>
<path d="M57.1576 30.3352C57.5451 30.4052 58.0501 30.3252 58.3476 30.3002C59.9901 30.1752 59.6726 27.5577 57.9426 27.6602C57.5176 27.6852 57.0726 27.9677 56.9701 28.3702C56.8301 28.9152 56.8343 29.5143 56.9826 30.1677C56.9923 30.2099 57.014 30.2483 57.0451 30.2781C57.0763 30.3079 57.1154 30.3278 57.1576 30.3352Z" stroke="#F1BD5F" stroke-width="2"/>
<path d="M107.123 30.0414C107.392 30.2583 107.739 30.3569 108.086 30.3155C108.434 30.2741 108.753 30.0961 108.974 29.8207C109.084 29.6843 109.166 29.5281 109.217 29.361C109.267 29.1939 109.284 29.0192 109.267 28.8468C109.25 28.6745 109.199 28.5078 109.118 28.3564C109.037 28.205 108.926 28.0718 108.792 27.9645C108.523 27.7476 108.176 27.649 107.829 27.6904C107.481 27.7318 107.162 27.9098 106.94 28.1852C106.831 28.3216 106.749 28.4778 106.698 28.6449C106.648 28.8119 106.631 28.9867 106.648 29.159C106.665 29.3314 106.715 29.498 106.797 29.6494C106.878 29.8008 106.989 29.934 107.123 30.0414Z" stroke="#F1BD5F" stroke-width="2"/>
<path d="M106.69 34.3651C106.821 34.4709 106.973 34.5481 107.138 34.5925C107.302 34.6368 107.475 34.6473 107.647 34.6235C107.82 34.5996 107.988 34.5418 108.142 34.4534C108.296 34.365 108.433 34.2477 108.546 34.1082C108.658 33.9687 108.744 33.8097 108.798 33.6404C108.852 33.471 108.873 33.2946 108.859 33.1211C108.846 32.9477 108.799 32.7807 108.721 32.6296C108.643 32.4785 108.536 32.3463 108.405 32.2405C108.274 32.1347 108.122 32.0575 107.958 32.0132C107.793 31.9688 107.62 31.9583 107.448 31.9822C107.276 32.006 107.108 32.0638 106.954 32.1522C106.799 32.2406 106.662 32.3579 106.549 32.4974C106.437 32.6369 106.351 32.7959 106.297 32.9653C106.244 33.1346 106.223 33.3111 106.236 33.4845C106.249 33.6579 106.296 33.8249 106.374 33.976C106.452 34.1271 106.559 34.2593 106.69 34.3651Z" stroke="#F1BD5F" stroke-width="2"/>
<path d="M59.7551 33.1028C59.7241 32.9339 59.6585 32.7731 59.5622 32.6295C59.4658 32.4859 59.3405 32.3623 59.1935 32.2659C59.0465 32.1694 58.8805 32.102 58.7052 32.0673C58.5298 32.0327 58.3485 32.0316 58.1715 32.0641C57.9946 32.0966 57.8255 32.162 57.6738 32.2566C57.5222 32.3513 57.3911 32.4732 57.2878 32.6156C57.1846 32.758 57.1114 32.918 57.0723 33.0864C57.0332 33.2549 57.0291 33.4285 57.0601 33.5974C57.0911 33.7663 57.1566 33.9271 57.253 34.0707C57.3493 34.2143 57.4746 34.3379 57.6216 34.4343C57.7687 34.5308 57.9346 34.5983 58.11 34.6329C58.2853 34.6675 58.4666 34.6686 58.6436 34.6361C58.8205 34.6037 58.9897 34.5382 59.1413 34.4436C59.2929 34.349 59.4241 34.227 59.5273 34.0846C59.6305 33.9422 59.7037 33.7822 59.7428 33.6138C59.7819 33.4453 59.7861 33.2717 59.7551 33.1028Z" stroke="#F1BD5F" stroke-width="2"/>
<path d="M60.8678 37.5228C60.8678 37.1767 60.7303 36.8447 60.4856 36.6C60.2409 36.3553 59.9089 36.2178 59.5628 36.2178C59.2167 36.2178 58.8848 36.3553 58.64 36.6C58.3953 36.8447 58.2578 37.1767 58.2578 37.5228C58.2578 37.8689 58.3953 38.2008 58.64 38.4455C58.8848 38.6903 59.2167 38.8278 59.5628 38.8278C59.9089 38.8278 60.2409 38.6903 60.4856 38.4455C60.7303 38.2008 60.8678 37.8689 60.8678 37.5228Z" stroke="#F1BD5F" stroke-width="2"/>
<path d="M107.775 37.5427C107.775 37.369 107.741 37.1971 107.674 37.0366C107.608 36.8762 107.51 36.7304 107.388 36.6076C107.265 36.4848 107.119 36.3873 106.958 36.3209C106.798 36.2544 106.626 36.2202 106.452 36.2202C106.102 36.2202 105.765 36.3595 105.517 36.6076C105.269 36.8556 105.13 37.192 105.13 37.5427C105.13 37.8935 105.269 38.2298 105.517 38.4779C105.765 38.7259 106.102 38.8652 106.452 38.8652C106.626 38.8652 106.798 38.831 106.958 38.7645C107.119 38.6981 107.265 38.6007 107.388 38.4779C107.51 38.3551 107.608 38.2093 107.674 38.0488C107.741 37.8884 107.775 37.7164 107.775 37.5427Z" stroke="#F1BD5F" stroke-width="2"/>
<path d="M61.8879 42.7079C63.8979 42.0679 61.8529 38.8179 60.4479 40.7104C60.1195 41.1521 60.0287 41.6637 60.1754 42.2454C60.1947 42.324 60.243 42.392 60.3104 42.4354C60.8487 42.7804 61.3745 42.8712 61.8879 42.7079Z" stroke="#F1BD5F" stroke-width="2"/>
<path d="M105.905 41.4578C105.905 41.1117 105.767 40.7798 105.523 40.5351C105.278 40.2903 104.946 40.1528 104.6 40.1528C104.254 40.1528 103.922 40.2903 103.677 40.5351C103.432 40.7798 103.295 41.1117 103.295 41.4578C103.295 41.8039 103.432 42.1359 103.677 42.3806C103.922 42.6253 104.254 42.7628 104.6 42.7628C104.946 42.7628 105.278 42.6253 105.523 42.3806C105.767 42.1359 105.905 41.8039 105.905 41.4578Z" stroke="#F1BD5F" stroke-width="2"/>
<path d="M65.1599 45.0329C65.1599 44.6887 65.0232 44.3587 64.7799 44.1154C64.5366 43.8721 64.2066 43.7354 63.8624 43.7354C63.5183 43.7354 63.1883 43.8721 62.945 44.1154C62.7016 44.3587 62.5649 44.6887 62.5649 45.0329C62.5649 45.377 62.7016 45.707 62.945 45.9503C63.1883 46.1936 63.5183 46.3304 63.8624 46.3304C64.2066 46.3304 64.5366 46.1936 64.7799 45.9503C65.0232 45.707 65.1599 45.377 65.1599 45.0329Z" stroke="#F1BD5F" stroke-width="2"/>
<path d="M103.425 45.2245C103.472 44.8868 103.374 44.5436 103.155 44.2703C102.935 43.997 102.611 43.816 102.255 43.7672C102.078 43.743 101.899 43.7519 101.727 43.7936C101.555 43.8352 101.394 43.9087 101.253 44.0098C101.112 44.1109 100.993 44.2377 100.905 44.3829C100.816 44.5281 100.758 44.6889 100.735 44.856C100.689 45.1937 100.786 45.5369 101.006 45.8102C101.226 46.0835 101.549 46.2645 101.906 46.3134C102.083 46.3376 102.262 46.3286 102.434 46.287C102.606 46.2453 102.767 46.1719 102.908 46.0708C103.049 45.9697 103.167 45.8429 103.256 45.6977C103.345 45.5525 103.402 45.3917 103.425 45.2245Z" stroke="#F1BD5F" stroke-width="2"/>
<path d="M68.2475 48.0852C68.2475 47.7404 68.1105 47.4097 67.8667 47.1659C67.6229 46.9221 67.2922 46.7852 66.9475 46.7852C66.6027 46.7852 66.272 46.9221 66.0282 47.1659C65.7844 47.4097 65.6475 47.7404 65.6475 48.0852C65.6475 48.4299 65.7844 48.7606 66.0282 49.0044C66.272 49.2482 66.6027 49.3852 66.9475 49.3852C67.2922 49.3852 67.6229 49.2482 67.8667 49.0044C68.1105 48.7606 68.2475 48.4299 68.2475 48.0852Z" stroke="#F1BD5F" stroke-width="2"/>
<path d="M100.353 48.0726C100.353 47.7205 100.213 47.3829 99.9639 47.1339C99.715 46.885 99.3773 46.7451 99.0253 46.7451C98.6732 46.7451 98.3355 46.885 98.0866 47.1339C97.8376 47.3829 97.6978 47.7205 97.6978 48.0726C97.6978 48.4247 97.8376 48.7623 98.0866 49.0113C98.3355 49.2603 98.6732 49.4001 99.0253 49.4001C99.3773 49.4001 99.715 49.2603 99.9639 49.0113C100.213 48.7623 100.353 48.4247 100.353 48.0726Z" stroke="#F1BD5F" stroke-width="2"/>
<path d="M71.8151 50.6053C71.8151 50.2592 71.6776 49.9273 71.4329 49.6825C71.1881 49.4378 70.8562 49.3003 70.5101 49.3003C70.164 49.3003 69.832 49.4378 69.5873 49.6825C69.3426 49.9273 69.2051 50.2592 69.2051 50.6053C69.2051 50.9514 69.3426 51.2833 69.5873 51.5281C69.832 51.7728 70.164 51.9103 70.5101 51.9103C70.8562 51.9103 71.1881 51.7728 71.4329 51.5281C71.6776 51.2833 71.8151 50.9514 71.8151 50.6053Z" stroke="#F1BD5F" stroke-width="2"/>
<path d="M96.7599 50.5904C96.7599 50.247 96.6235 49.9176 96.3806 49.6747C96.1378 49.4318 95.8084 49.2954 95.4649 49.2954C95.1215 49.2954 94.7921 49.4318 94.5492 49.6747C94.3064 49.9176 94.1699 50.247 94.1699 50.5904C94.1699 50.9339 94.3064 51.2633 94.5492 51.5061C94.7921 51.749 95.1215 51.8854 95.4649 51.8854C95.8084 51.8854 96.1378 51.749 96.3806 51.5061C96.6235 51.2633 96.7599 50.9339 96.7599 50.5904Z" stroke="#F1BD5F" stroke-width="2"/>
<path d="M75.8178 52.4302C75.8178 52.0768 75.6775 51.7378 75.4276 51.4879C75.1777 51.238 74.8387 51.0977 74.4853 51.0977C74.1319 51.0977 73.793 51.238 73.5431 51.4879C73.2932 51.7378 73.1528 52.0768 73.1528 52.4302C73.1528 52.7836 73.2932 53.1225 73.5431 53.3724C73.793 53.6223 74.1319 53.7627 74.4853 53.7627C74.8387 53.7627 75.1777 53.6223 75.4276 53.3724C75.6775 53.1225 75.8178 52.7836 75.8178 52.4302Z" stroke="#F1BD5F" stroke-width="2"/>
<path d="M92.8528 52.4552C92.8528 52.1058 92.714 51.7707 92.4669 51.5236C92.2198 51.2765 91.8847 51.1377 91.5353 51.1377C91.1859 51.1377 90.8507 51.2765 90.6037 51.5236C90.3566 51.7707 90.2178 52.1058 90.2178 52.4552C90.2178 52.8046 90.3566 53.1397 90.6037 53.3868C90.8507 53.6339 91.1859 53.7727 91.5353 53.7727C91.8847 53.7727 92.2198 53.6339 92.4669 53.3868C92.714 53.1397 92.8528 52.8046 92.8528 52.4552Z" stroke="#F1BD5F" stroke-width="2"/>
<path d="M86.0476 53.7501C86.0676 55.3101 87.8176 54.8776 88.5326 54.1726C88.5861 54.1174 88.6203 54.0473 88.6301 53.9726C88.9001 51.9401 86.0201 51.5201 86.0476 53.7501Z" stroke="#F1BD5F" stroke-width="2"/>
<path d="M80.0004 53.5729C80.0004 53.2228 79.8613 52.8871 79.6137 52.6395C79.3662 52.392 79.0304 52.2529 78.6804 52.2529C78.3303 52.2529 77.9945 52.392 77.747 52.6395C77.4994 52.8871 77.3604 53.2228 77.3604 53.5729C77.3604 53.923 77.4994 54.2588 77.747 54.5063C77.9945 54.7539 78.3303 54.8929 78.6804 54.8929C79.0304 54.8929 79.3662 54.7539 79.6137 54.5063C79.8613 54.2588 80.0004 53.923 80.0004 53.5729Z" stroke="#F1BD5F" stroke-width="2"/>
<path d="M84.3103 53.9679C84.3103 53.6238 84.1736 53.2938 83.9303 53.0504C83.687 52.8071 83.357 52.6704 83.0128 52.6704C82.6687 52.6704 82.3387 52.8071 82.0954 53.0504C81.852 53.2938 81.7153 53.6238 81.7153 53.9679C81.7153 54.312 81.852 54.6421 82.0954 54.8854C82.3387 55.1287 82.6687 55.2654 83.0128 55.2654C83.357 55.2654 83.687 55.1287 83.9303 54.8854C84.1736 54.6421 84.3103 54.312 84.3103 53.9679Z" stroke="#F1BD5F" stroke-width="2"/>
<path d="M81.5998 0H84.4348C91.6981 0.506667 97.8773 3.17 102.972 7.99C113.815 18.245 115.065 35.3625 105.702 47.0075C100.354 53.6592 93.2573 57.3233 84.4123 58H81.6298C76.1064 57.6667 71.1456 56.0075 66.7473 53.0225C51.5048 42.6775 49.6523 21.065 62.8098 8.1825C67.8814 3.21417 74.1448 0.486667 81.5998 0ZM82.4873 5.27C84.1873 5.835 84.5973 4.2675 84.2323 3.0425C84.2199 3.00341 84.1951 2.96937 84.1618 2.94549C84.1285 2.92161 84.0883 2.90916 84.0473 2.91C83.3873 2.925 82.5723 2.7 82.0598 3.1125C81.2848 3.74 81.5473 4.9575 82.4873 5.27ZM88.6498 4.45C88.6498 4.10257 88.5118 3.76936 88.2661 3.52369C88.0204 3.27802 87.6872 3.14 87.3398 3.14C86.9923 3.14 86.6591 3.27802 86.4135 3.52369C86.1678 3.76936 86.0298 4.10257 86.0298 4.45C86.0298 4.79743 86.1678 5.13064 86.4135 5.37631C86.6591 5.62198 86.9923 5.76 87.3398 5.76C87.6872 5.76 88.0204 5.62198 88.2661 5.37631C88.5118 5.13064 88.6498 4.79743 88.6498 4.45ZM79.9723 4.445C79.9723 4.09425 79.8329 3.75787 79.5849 3.50985C79.3369 3.26183 79.0005 3.1225 78.6498 3.1225C78.299 3.1225 77.9626 3.26183 77.7146 3.50985C77.4666 3.75787 77.3273 4.09425 77.3273 4.445C77.3273 4.79575 77.4666 5.13213 77.7146 5.38015C77.9626 5.62817 78.299 5.7675 78.6498 5.7675C79.0005 5.7675 79.3369 5.62817 79.5849 5.38015C79.8329 5.13213 79.9723 4.79575 79.9723 4.445ZM75.7873 5.555C75.7873 5.2069 75.649 4.87306 75.4028 4.62692C75.1567 4.38078 74.8229 4.2425 74.4748 4.2425C74.1267 4.2425 73.7928 4.38078 73.5467 4.62692C73.3005 4.87306 73.1623 5.2069 73.1623 5.555C73.1623 5.9031 73.3005 6.23694 73.5467 6.48308C73.7928 6.72922 74.1267 6.8675 74.4748 6.8675C74.8229 6.8675 75.1567 6.72922 75.4028 6.48308C75.649 6.23694 75.7873 5.9031 75.7873 5.555ZM92.8148 5.5575C92.8148 5.21272 92.6778 4.88206 92.434 4.63826C92.1902 4.39446 91.8595 4.2575 91.5148 4.2575C91.17 4.2575 90.8393 4.39446 90.5955 4.63826C90.3517 4.88206 90.2148 5.21272 90.2148 5.5575C90.2148 5.90228 90.3517 6.23294 90.5955 6.47674C90.8393 6.72054 91.17 6.8575 91.5148 6.8575C91.8595 6.8575 92.1902 6.72054 92.434 6.47674C92.6778 6.23294 92.8148 5.90228 92.8148 5.5575ZM94.4273 6.67C93.1298 7.9875 96.0398 9.8675 96.7523 7.815C96.8723 7.47167 96.7631 6.98583 96.4248 6.3575C96.3894 6.29319 96.3315 6.24422 96.2623 6.22C95.5689 5.98167 94.9573 6.13167 94.4273 6.67ZM71.8648 7.4275C71.8648 7.0794 71.7265 6.74556 71.4803 6.49942C71.2342 6.25328 70.9004 6.115 70.5523 6.115C70.2042 6.115 69.8703 6.25328 69.6242 6.49942C69.378 6.74556 69.2398 7.0794 69.2398 7.4275C69.2398 7.7756 69.378 8.10944 69.6242 8.35558C69.8703 8.60172 70.2042 8.74 70.5523 8.74C70.9004 8.74 71.2342 8.60172 71.4803 8.35558C71.7265 8.10944 71.8648 7.7756 71.8648 7.4275ZM79.1048 7.8675C77.6423 7.85 75.9998 8.545 74.5748 9.1425C73.4481 9.61583 72.4364 10.1392 71.5398 10.7125C66.6248 13.8492 63.4406 18.3308 61.9873 24.1575C61.9073 24.4775 61.8706 24.8658 61.8773 25.3225C61.3989 26.8458 61.2881 28.6808 61.5448 30.8275C61.6464 32.6792 62.0198 34.4375 62.6648 36.1025C62.9981 37.3858 63.5531 38.5642 64.3298 39.6375C65.8131 42.5208 68.0989 44.9708 71.1873 46.9875C74.3539 49.0542 77.6956 50.215 81.2123 50.47C85.0423 50.785 88.6964 50.1517 92.1748 48.57C92.8023 48.285 93.3398 47.7825 93.9873 47.465C94.6573 47.1333 95.1148 46.875 95.3598 46.69C97.5148 45.0733 99.3806 43.1642 100.957 40.9625C101.262 40.535 101.382 40.01 101.705 39.53C102.071 38.9833 102.286 38.6458 102.35 38.5175C104.106 34.9008 104.808 31.0517 104.455 26.97C104.326 25.4333 104.016 23.925 103.522 22.445C103.197 21.1167 102.61 19.7617 101.76 18.38C101.358 17.745 100.919 17.07 100.442 16.355C99.9423 15.605 99.4498 14.9708 98.9648 14.4525C95.1981 10.4192 90.5314 8.10667 84.9648 7.515C82.9731 7.29333 81.0198 7.41083 79.1048 7.8675ZM68.2773 9.8875C68.2773 9.71842 68.244 9.551 68.1793 9.3948C68.1146 9.23859 68.0197 9.09666 67.9002 8.9771C67.7806 8.85754 67.6387 8.76271 67.4825 8.698C67.3263 8.6333 67.1588 8.6 66.9898 8.6C66.6483 8.6 66.3208 8.73565 66.0794 8.9771C65.8379 9.21855 65.7023 9.54603 65.7023 9.8875C65.7023 10.229 65.8379 10.5564 66.0794 10.7979C66.3208 11.0394 66.6483 11.175 66.9898 11.175C67.1588 11.175 67.3263 11.1417 67.4825 11.077C67.6387 11.0123 67.7806 10.9175 67.9002 10.7979C68.0197 10.6783 68.1146 10.5364 68.1793 10.3802C68.244 10.224 68.2773 10.0566 68.2773 9.8875ZM100.307 9.88C100.307 9.5392 100.172 9.21235 99.9309 8.97137C99.6899 8.73038 99.3631 8.595 99.0223 8.595C98.6815 8.595 98.3546 8.73038 98.1136 8.97137C97.8727 9.21235 97.7373 9.5392 97.7373 9.88C97.7373 10.2208 97.8727 10.5476 98.1136 10.7886C98.3546 11.0296 98.6815 11.165 99.0223 11.165C99.3631 11.165 99.6899 11.0296 99.9309 10.7886C100.172 10.5476 100.307 10.2208 100.307 9.88ZM65.1598 13C65.1598 12.6579 65.0239 12.3298 64.7819 12.0878C64.54 11.8459 64.2119 11.71 63.8698 11.71C63.5276 11.71 63.1995 11.8459 62.9576 12.0878C62.7157 12.3298 62.5798 12.6579 62.5798 13C62.5798 13.3421 62.7157 13.6702 62.9576 13.9122C63.1995 14.1541 63.5276 14.29 63.8698 14.29C64.2119 14.29 64.54 14.1541 64.7819 13.9122C65.0239 13.6702 65.1598 13.3421 65.1598 13ZM103.372 12.97C103.372 12.6232 103.235 12.2907 102.989 12.0455C102.744 11.8003 102.412 11.6625 102.065 11.6625C101.718 11.6625 101.385 11.8003 101.14 12.0455C100.895 12.2907 100.757 12.6232 100.757 12.97C100.757 13.3168 100.895 13.6493 101.14 13.8945C101.385 14.1397 101.718 14.2775 102.065 14.2775C102.412 14.2775 102.744 14.1397 102.989 13.8945C103.235 13.6493 103.372 13.3168 103.372 12.97ZM62.7373 16.55C62.7373 16.3786 62.7035 16.2089 62.6379 16.0506C62.5724 15.8923 62.4762 15.7484 62.355 15.6272C62.2339 15.506 62.09 15.4099 61.9317 15.3443C61.7733 15.2788 61.6036 15.245 61.4323 15.245C61.2609 15.245 61.0912 15.2788 60.9329 15.3443C60.7745 15.4099 60.6307 15.506 60.5095 15.6272C60.3883 15.7484 60.2922 15.8923 60.2266 16.0506C60.161 16.2089 60.1273 16.3786 60.1273 16.55C60.1273 16.8961 60.2648 17.228 60.5095 17.4728C60.7542 17.7175 61.0862 17.855 61.4323 17.855C61.7784 17.855 62.1103 17.7175 62.355 17.4728C62.5998 17.228 62.7373 16.8961 62.7373 16.55ZM105.892 16.53C105.892 16.3599 105.859 16.1915 105.794 16.0344C105.729 15.8773 105.633 15.7345 105.513 15.6143C105.393 15.494 105.25 15.3987 105.093 15.3336C104.936 15.2685 104.767 15.235 104.597 15.235C104.427 15.235 104.259 15.2685 104.102 15.3336C103.945 15.3987 103.802 15.494 103.682 15.6143C103.561 15.7345 103.466 15.8773 103.401 16.0344C103.336 16.1915 103.302 16.3599 103.302 16.53C103.302 16.8735 103.439 17.2028 103.682 17.4457C103.924 17.6886 104.254 17.825 104.597 17.825C104.941 17.825 105.27 17.6886 105.513 17.4457C105.756 17.2028 105.892 16.8735 105.892 16.53ZM60.8623 20.4725C60.8623 20.1257 60.7245 19.7932 60.4793 19.548C60.2341 19.3028 59.9015 19.165 59.5548 19.165C59.208 19.165 58.8754 19.3028 58.6302 19.548C58.385 19.7932 58.2473 20.1257 58.2473 20.4725C58.2473 20.6442 58.2811 20.8142 58.3468 20.9729C58.4125 21.1315 58.5088 21.2756 58.6302 21.397C58.7516 21.5185 58.8958 21.6148 59.0544 21.6805C59.213 21.7462 59.3831 21.78 59.5548 21.78C59.7265 21.78 59.8965 21.7462 60.0551 21.6805C60.2138 21.6148 60.3579 21.5185 60.4793 21.397C60.6007 21.2756 60.697 21.1315 60.7627 20.9729C60.8285 20.8142 60.8623 20.6442 60.8623 20.4725ZM107.737 20.49C107.737 20.1406 107.598 19.8055 107.351 19.5584C107.104 19.3113 106.769 19.1725 106.42 19.1725C106.07 19.1725 105.735 19.3113 105.488 19.5584C105.241 19.8055 105.102 20.1406 105.102 20.49C105.102 20.663 105.136 20.8343 105.203 20.9942C105.269 21.154 105.366 21.2993 105.488 21.4216C105.61 21.544 105.756 21.641 105.916 21.7072C106.075 21.7734 106.247 21.8075 106.42 21.8075C106.593 21.8075 106.764 21.7734 106.924 21.7072C107.084 21.641 107.229 21.544 107.351 21.4216C107.474 21.2993 107.571 21.154 107.637 20.9942C107.703 20.8343 107.737 20.663 107.737 20.49ZM59.706 24.4802C59.7144 24.3508 59.6972 24.221 59.6554 24.0983C59.6136 23.9755 59.548 23.8622 59.4624 23.7647C59.3768 23.6673 59.2729 23.5877 59.1565 23.5304C59.0402 23.4732 58.9137 23.4394 58.7843 23.431L58.2903 23.3991C58.0289 23.3822 57.7716 23.4698 57.5748 23.6427C57.3781 23.8155 57.258 24.0595 57.2411 24.3208L57.2085 24.8248C57.2002 24.9542 57.2174 25.084 57.2592 25.2067C57.301 25.3295 57.3665 25.4428 57.4521 25.5403C57.5377 25.6377 57.6416 25.7173 57.758 25.7746C57.8744 25.8318 58.0009 25.8656 58.1303 25.8739L58.6242 25.9059C58.8856 25.9228 59.143 25.8352 59.3397 25.6623C59.5365 25.4895 59.6565 25.2455 59.6734 24.9842L59.706 24.4802ZM108.88 24.6875C108.88 24.3421 108.743 24.0108 108.498 23.7665C108.254 23.5222 107.923 23.385 107.577 23.385C107.232 23.385 106.901 23.5222 106.656 23.7665C106.412 24.0108 106.275 24.3421 106.275 24.6875C106.275 25.0329 106.412 25.3642 106.656 25.6085C106.901 25.8528 107.232 25.99 107.577 25.99C107.923 25.99 108.254 25.8528 108.498 25.6085C108.743 25.3642 108.88 25.0329 108.88 24.6875ZM57.1573 30.335C57.5448 30.405 58.0498 30.325 58.3473 30.3C59.9898 30.175 59.6723 27.5575 57.9423 27.66C57.5173 27.685 57.0723 27.9675 56.9698 28.37C56.8298 28.915 56.8339 29.5142 56.9823 30.1675C56.9919 30.2097 57.0136 30.2482 57.0448 30.278C57.0759 30.3078 57.115 30.3276 57.1573 30.335ZM107.122 30.041C107.392 30.2578 107.739 30.3564 108.086 30.315C108.433 30.2736 108.753 30.0956 108.974 29.8202C109.084 29.6839 109.166 29.5277 109.216 29.3606C109.267 29.1935 109.284 29.0188 109.267 28.8464C109.25 28.674 109.199 28.5074 109.118 28.356C109.036 28.2046 108.926 28.0714 108.792 27.964C108.522 27.7472 108.176 27.6486 107.829 27.69C107.481 27.7314 107.162 27.9094 106.94 28.1848C106.831 28.3211 106.748 28.4773 106.698 28.6444C106.648 28.8115 106.631 28.9862 106.648 29.1586C106.665 29.331 106.715 29.4976 106.797 29.649C106.878 29.8004 106.989 29.9336 107.122 30.041ZM106.69 34.3648C106.821 34.4706 106.973 34.5478 107.137 34.5921C107.301 34.6365 107.475 34.647 107.647 34.6231C107.819 34.5993 107.987 34.5415 108.141 34.4531C108.296 34.3647 108.433 34.2474 108.545 34.1079C108.658 33.9684 108.744 33.8094 108.797 33.64C108.851 33.4707 108.872 33.2943 108.859 33.1208C108.846 32.9474 108.799 32.7804 108.721 32.6293C108.643 32.4782 108.536 32.346 108.404 32.2402C108.273 32.1344 108.121 32.0572 107.957 32.0129C107.793 31.9685 107.62 31.958 107.448 31.9819C107.275 32.0057 107.107 32.0635 106.953 32.1519C106.799 32.2403 106.662 32.3576 106.549 32.4971C106.437 32.6366 106.351 32.7956 106.297 32.965C106.243 33.1343 106.222 33.3107 106.235 33.4842C106.248 33.6576 106.295 33.8246 106.373 33.9757C106.451 34.1268 106.559 34.259 106.69 34.3648ZM59.7548 33.1027C59.7238 32.9338 59.6582 32.773 59.5619 32.6294C59.4655 32.4858 59.3402 32.3622 59.1932 32.2658C59.0462 32.1693 58.8802 32.1019 58.7049 32.0672C58.5295 32.0326 58.3482 32.0315 58.1712 32.064C57.9943 32.0965 57.8252 32.1619 57.6735 32.2565C57.5219 32.3511 57.3908 32.4731 57.2875 32.6155C57.1843 32.7579 57.1111 32.9179 57.072 33.0863C57.0329 33.2548 57.0288 33.4284 57.0598 33.5973C57.0908 33.7662 57.1563 33.927 57.2527 34.0706C57.349 34.2142 57.4743 34.3378 57.6213 34.4342C57.7684 34.5307 57.9343 34.5981 58.1097 34.6328C58.285 34.6674 58.4663 34.6685 58.6433 34.636C58.8202 34.6035 58.9894 34.5381 59.141 34.4435C59.2926 34.3489 59.4238 34.2269 59.527 34.0845C59.6302 33.9421 59.7034 33.7821 59.7425 33.6137C59.7816 33.4452 59.7858 33.2716 59.7548 33.1027ZM60.8673 37.5225C60.8673 37.1764 60.7298 36.8445 60.485 36.5997C60.2403 36.355 59.9084 36.2175 59.5623 36.2175C59.2162 36.2175 58.8842 36.355 58.6395 36.5997C58.3948 36.8445 58.2573 37.1764 58.2573 37.5225C58.2573 37.8686 58.3948 38.2005 58.6395 38.4453C58.8842 38.69 59.2162 38.8275 59.5623 38.8275C59.9084 38.8275 60.2403 38.69 60.485 38.4453C60.7298 38.2005 60.8673 37.8686 60.8673 37.5225ZM107.775 37.5425C107.775 37.3688 107.741 37.1969 107.674 37.0364C107.608 36.8759 107.51 36.7302 107.387 36.6073C107.265 36.4845 107.119 36.3871 106.958 36.3207C106.798 36.2542 106.626 36.22 106.452 36.22C106.102 36.22 105.765 36.3593 105.517 36.6073C105.269 36.8554 105.13 37.1917 105.13 37.5425C105.13 37.8932 105.269 38.2296 105.517 38.4776C105.765 38.7257 106.102 38.865 106.452 38.865C106.626 38.865 106.798 38.8308 106.958 38.7643C107.119 38.6979 107.265 38.6005 107.387 38.4776C107.51 38.3548 107.608 38.2091 107.674 38.0486C107.741 37.8881 107.775 37.7162 107.775 37.5425ZM61.8873 42.7075C63.8973 42.0675 61.8523 38.8175 60.4473 40.71C60.1189 41.1517 60.0281 41.6633 60.1748 42.245C60.1941 42.3236 60.2424 42.3916 60.3098 42.435C60.8481 42.78 61.3739 42.8708 61.8873 42.7075ZM105.905 41.4575C105.905 41.1114 105.767 40.7795 105.523 40.5347C105.278 40.29 104.946 40.1525 104.6 40.1525C104.254 40.1525 103.922 40.29 103.677 40.5347C103.432 40.7795 103.295 41.1114 103.295 41.4575C103.295 41.8036 103.432 42.1355 103.677 42.3803C103.922 42.625 104.254 42.7625 104.6 42.7625C104.946 42.7625 105.278 42.625 105.523 42.3803C105.767 42.1355 105.905 41.8036 105.905 41.4575ZM65.1598 45.0325C65.1598 44.6884 65.0231 44.3584 64.7797 44.115C64.5364 43.8717 64.2064 43.735 63.8623 43.735C63.5181 43.735 63.1881 43.8717 62.9448 44.115C62.7015 44.3584 62.5648 44.6884 62.5648 45.0325C62.5648 45.3766 62.7015 45.7066 62.9448 45.95C63.1881 46.1933 63.5181 46.33 63.8623 46.33C64.2064 46.33 64.5364 46.1933 64.7797 45.95C65.0231 45.7066 65.1598 45.3766 65.1598 45.0325ZM103.425 45.2242C103.471 44.8866 103.374 44.5434 103.154 44.2701C102.935 43.9967 102.611 43.8158 102.254 43.7669C102.078 43.7427 101.898 43.7517 101.726 43.7933C101.554 43.8349 101.393 43.9084 101.252 44.0095C101.111 44.1106 100.993 44.2374 100.904 44.3826C100.815 44.5278 100.758 44.6886 100.735 44.8558C100.689 45.1934 100.786 45.5367 101.005 45.81C101.225 46.0833 101.549 46.2642 101.905 46.3131C102.082 46.3373 102.261 46.3283 102.433 46.2867C102.605 46.2451 102.766 46.1716 102.907 46.0705C103.049 45.9694 103.167 45.8426 103.256 45.6974C103.344 45.5522 103.402 45.3914 103.425 45.2242ZM68.2473 48.085C68.2473 47.7402 68.1103 47.4096 67.8665 47.1658C67.6227 46.922 67.2921 46.785 66.9473 46.785C66.6025 46.785 66.2718 46.922 66.028 47.1658C65.7842 47.4096 65.6473 47.7402 65.6473 48.085C65.6473 48.4298 65.7842 48.7604 66.028 49.0042C66.2718 49.248 66.6025 49.385 66.9473 49.385C67.2921 49.385 67.6227 49.248 67.8665 49.0042C68.1103 48.7604 68.2473 48.4298 68.2473 48.085ZM100.352 48.0725C100.352 47.7204 100.212 47.3828 99.9635 47.1338C99.7145 46.8849 99.3768 46.745 99.0248 46.745C98.6727 46.745 98.335 46.8849 98.0861 47.1338C97.8371 47.3828 97.6973 47.7204 97.6973 48.0725C97.6973 48.4246 97.8371 48.7622 98.0861 49.0112C98.335 49.2601 98.6727 49.4 99.0248 49.4C99.3768 49.4 99.7145 49.2601 99.9635 49.0112C100.212 48.7622 100.352 48.4246 100.352 48.0725ZM71.8148 50.605C71.8148 50.2589 71.6773 49.927 71.4325 49.6822C71.1878 49.4375 70.8559 49.3 70.5098 49.3C70.1637 49.3 69.8317 49.4375 69.587 49.6822C69.3423 49.927 69.2048 50.2589 69.2048 50.605C69.2048 50.9511 69.3423 51.283 69.587 51.5278C69.8317 51.7725 70.1637 51.91 70.5098 51.91C70.8559 51.91 71.1878 51.7725 71.4325 51.5278C71.6773 51.283 71.8148 50.9511 71.8148 50.605ZM96.7598 50.59C96.7598 50.2465 96.6233 49.9172 96.3805 49.6743C96.1376 49.4314 95.8082 49.295 95.4648 49.295C95.1213 49.295 94.7919 49.4314 94.5491 49.6743C94.3062 49.9172 94.1698 50.2465 94.1698 50.59C94.1698 50.9335 94.3062 51.2628 94.5491 51.5057C94.7919 51.7486 95.1213 51.885 95.4648 51.885C95.8082 51.885 96.1376 51.7486 96.3805 51.5057C96.6233 51.2628 96.7598 50.9335 96.7598 50.59ZM75.8173 52.43C75.8173 52.0766 75.6769 51.7377 75.427 51.4878C75.1771 51.2379 74.8382 51.0975 74.4848 51.0975C74.1314 51.0975 73.7924 51.2379 73.5425 51.4878C73.2927 51.7377 73.1523 52.0766 73.1523 52.43C73.1523 52.7834 73.2927 53.1223 73.5425 53.3722C73.7924 53.6221 74.1314 53.7625 74.4848 53.7625C74.8382 53.7625 75.1771 53.6221 75.427 53.3722C75.6769 53.1223 75.8173 52.7834 75.8173 52.43ZM92.8523 52.455C92.8523 52.1056 92.7135 51.7705 92.4664 51.5234C92.2193 51.2763 91.8842 51.1375 91.5348 51.1375C91.1853 51.1375 90.8502 51.2763 90.6032 51.5234C90.3561 51.7705 90.2173 52.1056 90.2173 52.455C90.2173 52.8044 90.3561 53.1395 90.6032 53.3866C90.8502 53.6337 91.1853 53.7725 91.5348 53.7725C91.8842 53.7725 92.2193 53.6337 92.4664 53.3866C92.7135 53.1395 92.8523 52.8044 92.8523 52.455ZM86.0473 53.75C86.0673 55.31 87.8173 54.8775 88.5323 54.1725C88.5858 54.1173 88.62 54.0471 88.6298 53.9725C88.8998 51.94 86.0198 51.52 86.0473 53.75ZM79.9998 53.5725C79.9998 53.2224 79.8607 52.8867 79.6131 52.6391C79.3656 52.3916 79.0299 52.2525 78.6798 52.2525C78.3297 52.2525 77.9939 52.3916 77.7464 52.6391C77.4988 52.8867 77.3598 53.2224 77.3598 53.5725C77.3598 53.9226 77.4988 54.2583 77.7464 54.5059C77.9939 54.7534 78.3297 54.8925 78.6798 54.8925C79.0299 54.8925 79.3656 54.7534 79.6131 54.5059C79.8607 54.2583 79.9998 53.9226 79.9998 53.5725ZM84.3098 53.9675C84.3098 53.6234 84.1731 53.2934 83.9297 53.05C83.6864 52.8067 83.3564 52.67 83.0123 52.67C82.6681 52.67 82.3381 52.8067 82.0948 53.05C81.8515 53.2934 81.7148 53.6234 81.7148 53.9675C81.7148 54.3116 81.8515 54.6416 82.0948 54.885C82.3381 55.1283 82.6681 55.265 83.0123 55.265C83.3564 55.265 83.6864 55.1283 83.9297 54.885C84.1731 54.6416 84.3098 54.3116 84.3098 53.9675Z" fill="#FFCB67"/>
<path d="M82.4875 5.27023C81.5475 4.95773 81.285 3.74023 82.06 3.11273C82.5725 2.70023 83.3875 2.92523 84.0475 2.91023C84.0885 2.90939 84.1287 2.92184 84.1621 2.94573C84.1954 2.96961 84.2201 3.00364 84.2325 3.04273C84.5975 4.26773 84.1875 5.83523 82.4875 5.27023Z" fill="#E2AE56"/>
<path d="M87.3398 5.76014C88.0633 5.76014 88.6498 5.17363 88.6498 4.45014C88.6498 3.72664 88.0633 3.14014 87.3398 3.14014C86.6163 3.14014 86.0298 3.72664 86.0298 4.45014C86.0298 5.17363 86.6163 5.76014 87.3398 5.76014Z" fill="#E2AE56"/>
<path d="M78.6501 5.76756C79.3805 5.76756 79.9726 5.17546 79.9726 4.44506C79.9726 3.71466 79.3805 3.12256 78.6501 3.12256C77.9197 3.12256 77.3276 3.71466 77.3276 4.44506C77.3276 5.17546 77.9197 5.76756 78.6501 5.76756Z" fill="#E2AE56"/>
<path d="M74.4751 6.86768C75.2 6.86768 75.7876 6.28005 75.7876 5.55518C75.7876 4.8303 75.2 4.24268 74.4751 4.24268C73.7502 4.24268 73.1626 4.8303 73.1626 5.55518C73.1626 6.28005 73.7502 6.86768 74.4751 6.86768Z" fill="#E2AE56"/>
<path d="M91.5148 6.85732C92.2328 6.85732 92.8148 6.27529 92.8148 5.55732C92.8148 4.83935 92.2328 4.25732 91.5148 4.25732C90.7969 4.25732 90.2148 4.83935 90.2148 5.55732C90.2148 6.27529 90.7969 6.85732 91.5148 6.85732Z" fill="#E2AE56"/>
<path d="M96.7527 7.81506C96.0402 9.86756 93.1302 7.98756 94.4277 6.67006C94.9577 6.13172 95.5694 5.98172 96.2627 6.22006C96.332 6.24428 96.3898 6.29325 96.4252 6.35756C96.7635 6.98589 96.8727 7.47172 96.7527 7.81506Z" fill="#E2AE56"/>
<path d="M70.5527 8.74023C71.2776 8.74023 71.8652 8.15261 71.8652 7.42773C71.8652 6.70286 71.2776 6.11523 70.5527 6.11523C69.8279 6.11523 69.2402 6.70286 69.2402 7.42773C69.2402 8.15261 69.8279 8.74023 70.5527 8.74023Z" fill="#E2AE56"/>
<path d="M84.9651 7.5149L85.0276 7.54741C85.0843 7.57574 85.1126 7.62324 85.1126 7.6899C85.1109 8.1699 84.9384 8.53407 84.5951 8.78241C83.3434 9.69241 82.2801 10.6082 81.4051 11.5299C80.4568 12.5266 79.5059 13.5216 78.5526 14.5149C77.7701 15.3324 76.7151 16.0749 75.8651 16.9649C72.9251 20.0474 69.8601 22.9999 66.9326 26.1024C66.6493 26.4024 66.1393 26.8591 65.4026 27.4724C64.4426 28.2724 63.6518 29.2274 63.0301 30.3374C62.9034 30.5657 62.5284 30.8307 61.9051 31.1324C61.8368 31.1657 61.7718 31.1599 61.7101 31.1149C61.5968 31.0366 61.5418 30.9407 61.5451 30.8274C61.2884 28.6807 61.3993 26.8457 61.8776 25.3224C64.3076 22.9941 66.6434 20.7349 68.8851 18.5449C69.5451 17.8974 70.2626 17.0099 71.0126 16.2949C73.3926 14.0299 75.6851 11.6749 78.0301 9.37241C78.4901 8.91991 78.7826 8.4099 79.1051 7.8674C81.0201 7.41074 82.9734 7.29324 84.9651 7.5149Z" fill="#E2AE56"/>
<path d="M84.9651 7.51514C90.5317 8.1068 95.1984 10.4193 98.9651 14.4526C99.4501 14.971 99.9426 15.6051 100.443 16.3551C100.919 17.0701 101.358 17.7451 101.76 18.3801C100.748 19.4001 99.7209 20.361 98.6776 21.2626C98.0401 21.8151 97.5801 22.5151 97.0476 23.0476C95.6376 24.466 94.2334 25.8901 92.8351 27.3201C91.9501 28.2251 90.4001 29.5701 89.3201 30.8726C88.6451 31.6901 87.9601 32.1551 87.1126 32.6901C86.8476 32.8568 86.5926 33.096 86.3476 33.4076C86.0559 33.7793 85.6534 34.1968 85.1401 34.6601C84.9167 34.8635 84.9142 35.0868 85.1326 35.3301L81.2926 35.2976C81.1976 35.2976 81.1592 35.251 81.1776 35.1576L83.0601 25.8801C83.0733 25.8126 83.1021 25.749 83.1441 25.6944C83.1862 25.6397 83.2404 25.5955 83.3026 25.5651L86.5451 23.9726C86.5777 23.9568 86.6055 23.9328 86.6257 23.9029C86.6459 23.873 86.6578 23.8384 86.6601 23.8026L86.7376 22.3001C86.7459 22.1601 86.6867 22.1201 86.5601 22.1801L83.8001 23.4976C83.7749 23.5099 83.7468 23.5148 83.7189 23.5119C83.6911 23.509 83.6646 23.4984 83.6425 23.4812C83.6204 23.464 83.6036 23.441 83.5938 23.4148C83.5841 23.3885 83.582 23.3601 83.5876 23.3326L85.2151 15.4226C85.2384 15.306 85.1909 15.2476 85.0726 15.2476L80.3851 15.2426C80.3051 15.2426 80.2567 15.281 80.2401 15.3576L79.3376 19.3226C79.2909 19.161 79.2651 19.0793 79.2601 19.0776C79.1549 19.0516 79.0444 19.0572 78.9422 19.0936C78.8399 19.1301 78.7505 19.1958 78.6851 19.2826C77.9867 20.2093 77.1959 21.0118 76.3126 21.6901C75.8526 22.0426 75.5576 22.5301 75.2251 22.8501C73.2634 24.7301 71.3626 26.6685 69.5226 28.6651C69.2251 28.9876 68.8101 29.2101 68.4826 29.5426C66.5642 31.4876 64.6751 33.461 62.8151 35.4626C62.6276 35.6626 62.6276 35.8501 62.6651 36.1026C62.0201 34.4376 61.6467 32.6793 61.5451 30.8276C61.5417 30.941 61.5967 31.0368 61.7101 31.1151C61.7717 31.1601 61.8367 31.166 61.9051 31.1326C62.5284 30.831 62.9034 30.566 63.0301 30.3376C63.6517 29.2276 64.4426 28.2726 65.4026 27.4726C66.1392 26.8593 66.6492 26.4026 66.9326 26.1026C69.8601 23.0001 72.9251 20.0476 75.8651 16.9651C76.7151 16.0751 77.7701 15.3326 78.5526 14.5151C79.5059 13.5218 80.4567 12.5268 81.4051 11.5301C82.2801 10.6085 83.3434 9.69264 84.5951 8.78264C84.9384 8.5343 85.1109 8.17014 85.1126 7.69014C85.1126 7.62347 85.0842 7.57597 85.0276 7.54764L84.9651 7.51514Z" fill="#E8B95E"/>
<path d="M79.1052 7.86751C78.7827 8.41001 78.4902 8.92001 78.0302 9.37251C75.6852 11.675 73.3927 14.03 71.0127 16.295C70.2627 17.01 69.5452 17.8975 68.8852 18.545C66.6436 20.735 64.3077 22.9942 61.8777 25.3225C61.8711 24.8658 61.9077 24.4775 61.9877 24.1575C63.4411 18.3308 66.6252 13.8492 71.5402 10.7125C72.4369 10.1392 73.4486 9.61584 74.5752 9.14251C76.0002 8.54501 77.6427 7.85001 79.1052 7.86751Z" fill="#E8B95E"/>
<path d="M66.9901 11.1751C67.7012 11.1751 68.2776 10.5987 68.2776 9.8876C68.2776 9.17653 67.7012 8.6001 66.9901 8.6001C66.2791 8.6001 65.7026 9.17653 65.7026 9.8876C65.7026 10.5987 66.2791 11.1751 66.9901 11.1751Z" fill="#E2AE56"/>
<path d="M99.0223 11.1652C99.732 11.1652 100.307 10.5899 100.307 9.88021C100.307 9.17053 99.732 8.59521 99.0223 8.59521C98.3126 8.59521 97.7373 9.17053 97.7373 9.88021C97.7373 10.5899 98.3126 11.1652 99.0223 11.1652Z" fill="#E2AE56"/>
<path d="M63.8701 14.29C64.5825 14.29 65.1601 13.7124 65.1601 13C65.1601 12.2875 64.5825 11.71 63.8701 11.71C63.1576 11.71 62.5801 12.2875 62.5801 13C62.5801 13.7124 63.1576 14.29 63.8701 14.29Z" fill="#E2AE56"/>
<path d="M102.065 14.2776C102.787 14.2776 103.372 13.6922 103.372 12.9701C103.372 12.248 102.787 11.6626 102.065 11.6626C101.343 11.6626 100.757 12.248 100.757 12.9701C100.757 13.6922 101.343 14.2776 102.065 14.2776Z" fill="#E2AE56"/>
<path d="M61.4324 17.8551C62.1532 17.8551 62.7374 17.2708 62.7374 16.5501C62.7374 15.8294 62.1532 15.2451 61.4324 15.2451C60.7117 15.2451 60.1274 15.8294 60.1274 16.5501C60.1274 17.2708 60.7117 17.8551 61.4324 17.8551Z" fill="#E2AE56"/>
<path d="M85.1326 35.3302C86.7709 35.2185 88.4618 35.2702 90.2051 35.4852C89.5701 36.9385 89.1043 38.4568 88.8076 40.0402C88.7947 40.1097 88.758 40.1725 88.7036 40.2177C88.6493 40.2629 88.5808 40.2877 88.5101 40.2877L74.5626 40.3002C74.5412 40.3 74.5202 40.295 74.501 40.2856C74.4818 40.2761 74.465 40.2625 74.4518 40.2457C74.4386 40.2289 74.4293 40.2094 74.4247 40.1885C74.4201 40.1676 74.4202 40.146 74.4251 40.1252L77.0951 28.8002C77.1234 28.6752 77.0801 28.6402 76.9651 28.6952L73.3576 30.4177C73.2276 29.871 73.2193 29.3427 73.3326 28.8327C73.3404 28.795 73.3562 28.7595 73.3791 28.7284C73.402 28.6974 73.4313 28.6715 73.4651 28.6527C75.0884 27.7277 76.1601 27.1902 76.6801 27.0402C77.2784 26.8685 77.6393 26.5235 77.7626 26.0052C78.2909 23.7718 78.8159 21.5443 79.3376 19.3227L80.2401 15.3577C80.2568 15.281 80.3051 15.2427 80.3851 15.2427L85.0726 15.2477C85.1909 15.2477 85.2384 15.306 85.2151 15.4227L83.5876 23.3327C83.582 23.3601 83.5842 23.3885 83.5939 23.4148C83.6036 23.4411 83.6204 23.4641 83.6426 23.4812C83.6647 23.4984 83.6911 23.509 83.719 23.5119C83.7468 23.5148 83.7749 23.5099 83.8001 23.4977L86.5601 22.1802C86.6868 22.1202 86.7459 22.1602 86.7376 22.3002L86.6601 23.8027C86.6578 23.8385 86.646 23.8731 86.6258 23.9029C86.6056 23.9328 86.5777 23.9569 86.5451 23.9727L83.3026 25.5652C83.2405 25.5955 83.1863 25.6397 83.1442 25.6944C83.1021 25.749 83.0733 25.8126 83.0601 25.8802L81.1776 35.1577C81.1593 35.251 81.1976 35.2977 81.2926 35.2977L85.1326 35.3302Z" fill="white"/>
<path d="M104.598 17.8249C105.313 17.8249 105.893 17.2451 105.893 16.5299C105.893 15.8147 105.313 15.2349 104.598 15.2349C103.883 15.2349 103.303 15.8147 103.303 16.5299C103.303 17.2451 103.883 17.8249 104.598 17.8249Z" fill="#E2AE56"/>
<path d="M101.76 18.3799C102.61 19.7615 103.198 21.1165 103.523 22.4449L103.483 22.5599C103.468 22.6049 103.437 22.6191 103.39 22.6024C103.348 22.5841 103.303 22.5907 103.253 22.6224C102.734 22.949 102.317 23.3757 102 23.9024C101.957 23.9741 101.898 24.0307 101.825 24.0724C100.893 24.5824 100.38 25.3599 99.7051 25.9899C99.4084 26.2649 99.1184 26.5465 98.8351 26.8349C95.9584 29.7532 93.0818 32.6366 90.2051 35.4849C88.4618 35.2699 86.7709 35.2182 85.1326 35.3299C84.9143 35.0866 84.9168 34.8632 85.1401 34.6599C85.6534 34.1966 86.0559 33.7791 86.3476 33.4074C86.5926 33.0957 86.8476 32.8565 87.1126 32.6899C87.9601 32.1549 88.6451 31.6899 89.3201 30.8724C90.4001 29.5699 91.9501 28.2249 92.8351 27.3199C94.2334 25.8899 95.6376 24.4657 97.0476 23.0474C97.5801 22.5149 98.0401 21.8149 98.6776 21.2624C99.7209 20.3607 100.748 19.3999 101.76 18.3799Z" fill="#E2AE56"/>
<path d="M79.3376 19.3227C78.8159 21.5443 78.2909 23.7718 77.7626 26.0052C77.6393 26.5235 77.2784 26.8685 76.6801 27.0402C76.1601 27.1902 75.0884 27.7277 73.4651 28.6527C73.4313 28.6715 73.402 28.6974 73.3791 28.7284C73.3563 28.7595 73.3404 28.795 73.3326 28.8327C73.2193 29.3427 73.2276 29.871 73.3576 30.4177C72.5043 31.331 71.6451 32.2577 70.7801 33.1977C70.3634 33.651 69.4826 34.5335 68.1376 35.8452C67.2443 36.7168 66.4026 37.6385 65.6126 38.6102C65.2309 39.0785 64.8034 39.421 64.3301 39.6377C63.5534 38.5643 62.9984 37.386 62.6651 36.1027C62.6276 35.8502 62.6276 35.6627 62.8151 35.4627C64.6751 33.461 66.5643 31.4877 68.4826 29.5427C68.8101 29.2102 69.2251 28.9877 69.5226 28.6652C71.3626 26.6685 73.2634 24.7302 75.2251 22.8502C75.5576 22.5302 75.8526 22.0427 76.3126 21.6902C77.1959 21.0118 77.9868 20.2093 78.6851 19.2827C78.7506 19.1958 78.84 19.1301 78.9422 19.0936C79.0444 19.0572 79.155 19.0516 79.2601 19.0777C79.2651 19.0793 79.2909 19.161 79.3376 19.3227Z" fill="#E2AE56"/>
<path d="M59.5551 21.78C60.2772 21.78 60.8626 21.1947 60.8626 20.4725C60.8626 19.7504 60.2772 19.165 59.5551 19.165C58.8329 19.165 58.2476 19.7504 58.2476 20.4725C58.2476 21.1947 58.8329 21.78 59.5551 21.78Z" fill="#E2AE56"/>
<path d="M106.42 21.8074C107.148 21.8074 107.738 21.2175 107.738 20.4899C107.738 19.7622 107.148 19.1724 106.42 19.1724C105.692 19.1724 105.103 19.7622 105.103 20.4899C105.103 21.2175 105.692 21.8074 106.42 21.8074Z" fill="#E2AE56"/>
<path d="M103.523 22.4448C104.016 23.9248 104.327 25.4332 104.455 26.9698C104.008 27.1482 103.66 27.3582 103.41 27.5998C99.6884 31.1882 95.6142 35.2807 91.1876 39.8773C90.8826 40.1923 90.4926 40.4398 90.2101 40.7273C87.9051 43.0623 85.5792 45.3765 83.2326 47.6698C82.9259 47.9715 82.2501 48.6907 81.2051 49.8273C81.1117 49.929 81.0559 50.029 81.0376 50.1273C80.9959 50.3307 81.0542 50.4448 81.2126 50.4698C77.6959 50.2148 74.3542 49.054 71.1876 46.9873C68.0992 44.9707 65.8134 42.5207 64.3301 39.6373C64.8034 39.4207 65.2309 39.0782 65.6126 38.6098C66.4026 37.6382 67.2442 36.7165 68.1376 35.8448C69.4826 34.5332 70.3634 33.6507 70.7801 33.1973C71.6451 32.2573 72.5042 31.3307 73.3576 30.4173L76.9651 28.6948C77.0801 28.6398 77.1234 28.6748 77.0951 28.7998L74.4251 40.1248C74.4202 40.1456 74.4201 40.1673 74.4247 40.1881C74.4293 40.209 74.4386 40.2286 74.4518 40.2454C74.465 40.2622 74.4818 40.2758 74.501 40.2852C74.5202 40.2946 74.5412 40.2996 74.5626 40.2998L88.5101 40.2873C88.5808 40.2873 88.6492 40.2626 88.7036 40.2174C88.7579 40.1722 88.7947 40.1093 88.8076 40.0398C89.1042 38.4565 89.5701 36.9382 90.2051 35.4848C93.0817 32.6365 95.9584 29.7532 98.8351 26.8348C99.1184 26.5465 99.4084 26.2648 99.7051 25.9898C100.38 25.3598 100.893 24.5823 101.825 24.0723C101.898 24.0307 101.957 23.974 102 23.9023C102.317 23.3757 102.734 22.949 103.253 22.6223C103.303 22.5907 103.348 22.584 103.39 22.6023C103.437 22.619 103.468 22.6048 103.483 22.5598L103.523 22.4448Z" fill="#E8B95E"/>
<path d="M58.7846 23.4311L58.2906 23.3992C57.7464 23.364 57.2766 23.7766 57.2415 24.3209L57.2089 24.8248C57.1737 25.3691 57.5863 25.8388 58.1306 25.874L58.6245 25.9059C59.1688 25.9411 59.6385 25.5285 59.6737 24.9842L59.7063 24.4803C59.7415 23.936 59.3288 23.4663 58.7846 23.4311Z" fill="#E2AE56"/>
<path d="M107.577 25.9898C108.297 25.9898 108.88 25.4066 108.88 24.6873C108.88 23.9679 108.297 23.3848 107.577 23.3848C106.858 23.3848 106.275 23.9679 106.275 24.6873C106.275 25.4066 106.858 25.9898 107.577 25.9898Z" fill="#E2AE56"/>
<path d="M104.455 26.9702C104.808 31.0519 104.107 34.9011 102.35 38.5177C102.287 38.6461 102.072 38.9835 101.705 39.5302C101.382 40.0102 101.262 40.5352 100.957 40.9627C99.3808 43.1644 97.5149 45.0735 95.3599 46.6902C95.1149 46.8752 94.6574 47.1335 93.9874 47.4652C93.3399 47.7827 92.8024 48.2852 92.1749 48.5702C88.6966 50.1519 85.0424 50.7852 81.2124 50.4702C81.0541 50.4452 80.9958 50.331 81.0374 50.1277C81.0558 50.0294 81.1116 49.9294 81.2049 49.8277C82.2499 48.691 82.9258 47.9719 83.2324 47.6702C85.5791 45.3769 87.9049 43.0627 90.2099 40.7277C90.4924 40.4402 90.8824 40.1927 91.1874 39.8777C95.6141 35.281 99.6883 31.1885 103.41 27.6002C103.66 27.3585 104.008 27.1485 104.455 26.9702Z" fill="#E2AE56"/>
<path d="M56.9826 30.1677C56.8343 29.5143 56.8301 28.9152 56.9701 28.3702C57.0726 27.9677 57.5176 27.6852 57.9426 27.6602C59.6726 27.5577 59.9901 30.1752 58.3476 30.3002C58.0501 30.3252 57.5451 30.4052 57.1576 30.3352C57.1154 30.3278 57.0763 30.3079 57.0451 30.2781C57.014 30.2483 56.9923 30.2099 56.9826 30.1677Z" fill="#E2AE56"/>
<path d="M106.941 28.1848C106.479 28.7583 106.561 29.5893 107.123 30.041C107.684 30.4926 108.513 30.3937 108.975 29.8202C109.436 29.2467 109.354 28.4156 108.793 27.964C108.231 27.5124 107.402 27.6112 106.941 28.1848Z" fill="#E2AE56"/>
<path d="M106.549 32.497C106.076 33.0837 106.139 33.9199 106.69 34.3647C107.242 34.8094 108.072 34.6944 108.546 34.1077C109.019 33.521 108.956 32.6848 108.405 32.24C107.854 31.7953 107.023 31.9103 106.549 32.497Z" fill="#E2AE56"/>
<path d="M58.6438 34.6363C59.388 34.4997 59.8856 33.8132 59.7552 33.1029C59.6249 32.3927 58.9159 31.9276 58.1717 32.0642C57.4275 32.2008 56.9299 32.8873 57.0602 33.5975C57.1906 34.3078 57.8996 34.7728 58.6438 34.6363Z" fill="#E2AE56"/>
<path d="M59.5623 38.8273C60.2831 38.8273 60.8673 38.243 60.8673 37.5223C60.8673 36.8016 60.2831 36.2173 59.5623 36.2173C58.8416 36.2173 58.2573 36.8016 58.2573 37.5223C58.2573 38.243 58.8416 38.8273 59.5623 38.8273Z" fill="#E2AE56"/>
<path d="M106.452 38.8652C107.183 38.8652 107.775 38.2731 107.775 37.5427C107.775 36.8123 107.183 36.2202 106.452 36.2202C105.722 36.2202 105.13 36.8123 105.13 37.5427C105.13 38.2731 105.722 38.8652 106.452 38.8652Z" fill="#E2AE56"/>
<path d="M61.8874 42.7074C61.374 42.8707 60.8482 42.7799 60.3099 42.4349C60.2425 42.3916 60.1942 42.3236 60.1749 42.2449C60.0282 41.6632 60.119 41.1516 60.4474 40.7099C61.8524 38.8174 63.8974 42.0674 61.8874 42.7074Z" fill="#E2AE56"/>
<path d="M104.6 42.7623C105.321 42.7623 105.905 42.1781 105.905 41.4573C105.905 40.7366 105.321 40.1523 104.6 40.1523C103.879 40.1523 103.295 40.7366 103.295 41.4573C103.295 42.1781 103.879 42.7623 104.6 42.7623Z" fill="#E2AE56"/>
<path d="M63.8624 46.3299C64.579 46.3299 65.1599 45.749 65.1599 45.0324C65.1599 44.3158 64.579 43.7349 63.8624 43.7349C63.1459 43.7349 62.5649 44.3158 62.5649 45.0324C62.5649 45.749 63.1459 46.3299 63.8624 46.3299Z" fill="#E2AE56"/>
<path d="M101.906 46.313C102.649 46.4147 103.329 45.9272 103.425 45.2241C103.521 44.521 102.997 43.8685 102.255 43.7668C101.512 43.665 100.832 44.1525 100.735 44.8556C100.639 45.5588 101.163 46.2112 101.906 46.313Z" fill="#E2AE56"/>
<path d="M66.9475 49.3852C67.6654 49.3852 68.2475 48.8031 68.2475 48.0852C68.2475 47.3672 67.6654 46.7852 66.9475 46.7852C66.2295 46.7852 65.6475 47.3672 65.6475 48.0852C65.6475 48.8031 66.2295 49.3852 66.9475 49.3852Z" fill="#E2AE56"/>
<path d="M99.0248 49.4001C99.7579 49.4001 100.352 48.8058 100.352 48.0726C100.352 47.3395 99.7579 46.7451 99.0248 46.7451C98.2916 46.7451 97.6973 47.3395 97.6973 48.0726C97.6973 48.8058 98.2916 49.4001 99.0248 49.4001Z" fill="#E2AE56"/>
<path d="M70.5101 51.9098C71.2308 51.9098 71.8151 51.3255 71.8151 50.6048C71.8151 49.8841 71.2308 49.2998 70.5101 49.2998C69.7893 49.2998 69.2051 49.8841 69.2051 50.6048C69.2051 51.3255 69.7893 51.9098 70.5101 51.9098Z" fill="#E2AE56"/>
<path d="M95.4649 51.8849C96.1801 51.8849 96.7599 51.3051 96.7599 50.5899C96.7599 49.8747 96.1801 49.2949 95.4649 49.2949C94.7497 49.2949 94.1699 49.8747 94.1699 50.5899C94.1699 51.3051 94.7497 51.8849 95.4649 51.8849Z" fill="#E2AE56"/>
<path d="M74.4848 53.7627C75.2208 53.7627 75.8173 53.1661 75.8173 52.4302C75.8173 51.6942 75.2208 51.0977 74.4848 51.0977C73.7489 51.0977 73.1523 51.6942 73.1523 52.4302C73.1523 53.1661 73.7489 53.7627 74.4848 53.7627Z" fill="#E2AE56"/>
<path d="M91.5348 53.7727C92.2624 53.7727 92.8523 53.1828 92.8523 52.4552C92.8523 51.7276 92.2624 51.1377 91.5348 51.1377C90.8072 51.1377 90.2173 51.7276 90.2173 52.4552C90.2173 53.1828 90.8072 53.7727 91.5348 53.7727Z" fill="#E2AE56"/>
<path d="M86.0476 53.7501C86.0201 51.5201 88.9001 51.9401 88.6301 53.9726C88.6203 54.0473 88.5861 54.1174 88.5326 54.1726C87.8176 54.8776 86.0676 55.3101 86.0476 53.7501Z" fill="#E2AE56"/>
<path d="M78.6799 54.8924C79.4089 54.8924 79.9999 54.3015 79.9999 53.5724C79.9999 52.8434 79.4089 52.2524 78.6799 52.2524C77.9508 52.2524 77.3599 52.8434 77.3599 53.5724C77.3599 54.3015 77.9508 54.8924 78.6799 54.8924Z" fill="#E2AE56"/>
<path d="M83.0123 55.2649C83.7289 55.2649 84.3098 54.684 84.3098 53.9674C84.3098 53.2508 83.7289 52.6699 83.0123 52.6699C82.2958 52.6699 81.7148 53.2508 81.7148 53.9674C81.7148 54.684 82.2958 55.2649 83.0123 55.2649Z" fill="#E2AE56"/>
</svg>
