<svg width="166" height="58" viewBox="0 0 166 58" fill="none" xmlns="http://www.w3.org/2000/svg">
<path d="M152.958 25.2573L152.64 25.2173C152.585 25.209 152.556 25.1773 152.553 25.1223C152.509 24.259 152.485 23.3965 152.48 22.5348C152.48 22.1773 152.653 21.8223 152.583 21.3973C152.508 20.9423 152.47 20.6698 152.47 20.5798C152.502 18.6732 152.498 16.7665 152.458 14.8598C152.454 14.7715 152.473 14.6882 152.515 14.6098C152.603 14.4398 152.627 14.2523 152.585 14.0473C152.574 13.994 152.545 13.9465 152.502 13.9139C152.459 13.8812 152.405 13.8655 152.351 13.8698C152.296 13.8741 152.245 13.8981 152.207 13.9372C152.169 13.9763 152.146 14.0279 152.143 14.0823L152.083 15.2748" stroke="#1D81BC" stroke-opacity="0.875" stroke-width="2"/>
<path d="M13.3449 17.5898C13.0824 11.6623 20.2624 8.68232 24.1749 13.0773C25.2682 14.3023 25.8149 15.8065 25.8149 17.5898C25.8149 17.6848 25.7716 17.7123 25.6849 17.6723L24.1374 16.9498C24.0958 16.9302 24.0589 16.9018 24.0291 16.8664C23.9994 16.8311 23.9775 16.7896 23.9649 16.7448C22.7749 12.4398 17.0799 12.2173 15.2999 16.2623C15.1332 16.6407 14.9324 16.9123 14.6974 17.0773C14.3291 17.334 13.9191 17.5332 13.4674 17.6748C13.3891 17.6982 13.3482 17.6698 13.3449 17.5898Z" fill="#C62126"/>
<path d="M95.5423 21.0375L95.5473 29.82C95.5473 29.9817 95.4664 30.0625 95.3048 30.0625L92.6373 30.0575C92.5423 30.0559 92.4956 30.0075 92.4973 29.9125C92.5189 25.5325 92.5181 21.1584 92.4948 16.79C92.4898 15.8034 92.6048 15.0884 92.8398 14.645C93.7448 12.93 95.6348 13.06 97.6423 13.1425C97.7123 13.1459 97.7473 13.1817 97.7473 13.25L97.7573 15.945C97.7573 16.0217 97.719 16.0667 97.6423 16.08C96.7373 16.225 95.6198 15.8375 95.4998 17.225C95.4937 17.2935 95.5023 17.3625 95.5249 17.4274C95.5475 17.4923 95.5836 17.5516 95.6309 17.6015C95.6782 17.6514 95.7355 17.6906 95.7991 17.7167C95.8627 17.7427 95.9311 17.7549 95.9998 17.7525L97.6298 17.6975C97.6456 17.6969 97.6614 17.6995 97.6763 17.7052C97.6911 17.7109 97.7046 17.7197 97.7161 17.7309C97.7275 17.7421 97.7366 17.7555 97.7429 17.7704C97.7491 17.7853 97.7523 17.8014 97.7523 17.8175L97.7473 20.745C97.7473 20.8667 97.6865 20.9259 97.5648 20.9225L95.7123 20.87C95.6901 20.8697 95.668 20.8738 95.6474 20.8821C95.6268 20.8903 95.608 20.9026 95.5922 20.9182C95.5764 20.9338 95.5638 20.9524 95.5553 20.9729C95.5467 20.9934 95.5423 21.0153 95.5423 21.0375Z" fill="#1D91D1"/>
<path d="M152.957 25.2575L152.64 25.2175C152.585 25.2092 152.556 25.1775 152.552 25.1225C152.509 24.2592 152.485 23.3967 152.48 22.535C152.48 22.1775 152.652 21.8225 152.582 21.3975C152.507 20.9425 152.47 20.67 152.47 20.58C152.502 18.6734 152.497 16.7667 152.457 14.86C152.454 14.7717 152.473 14.6884 152.515 14.61C152.603 14.44 152.627 14.2525 152.585 14.0475C152.574 13.9942 152.545 13.9467 152.502 13.9141C152.458 13.8814 152.405 13.8657 152.35 13.87C152.296 13.8743 152.245 13.8983 152.207 13.9374C152.168 13.9765 152.146 14.0281 152.142 14.0825L152.082 15.275L152.067 13.7725C152.067 13.7439 152.075 13.7158 152.09 13.6914C152.104 13.6669 152.125 13.6469 152.151 13.6337C152.176 13.6205 152.205 13.6146 152.233 13.6166C152.262 13.6186 152.289 13.6284 152.312 13.645C152.449 13.7417 152.587 13.7467 152.725 13.66C152.749 13.6449 152.777 13.6364 152.805 13.6356C152.834 13.6348 152.862 13.6417 152.887 13.6554C152.912 13.6692 152.933 13.6894 152.948 13.714C152.962 13.7385 152.97 13.7665 152.97 13.795L152.957 25.2575Z" fill="#1D6CA0" fill-opacity="0.749"/>
<path d="M152.958 25.2573C152.928 29.8173 151.425 30.1273 147.308 30.1023C145.919 30.094 144.974 29.9798 144.473 29.7598C143.334 29.2598 142.753 28.2123 142.73 26.6173C142.688 23.7257 142.693 21.789 142.745 20.8073C142.823 19.3457 143.428 18.3748 144.558 17.8948C145.076 17.6732 146.094 17.564 147.613 17.5673C149.051 17.5707 150.489 17.5623 151.928 17.5423C152.016 17.5407 152.06 17.4957 152.06 17.4073L152.083 15.2748L152.143 14.0823C152.146 14.0279 152.169 13.9763 152.207 13.9372C152.245 13.8981 152.296 13.8741 152.351 13.8698C152.405 13.8655 152.459 13.8812 152.502 13.9139C152.545 13.9465 152.575 13.994 152.585 14.0473C152.627 14.2523 152.603 14.4398 152.515 14.6098C152.473 14.6882 152.454 14.7715 152.458 14.8598C152.498 16.7665 152.502 18.6732 152.47 20.5798C152.47 20.6698 152.508 20.9423 152.583 21.3973C152.653 21.8223 152.48 22.1773 152.48 22.5348C152.485 23.3965 152.509 24.259 152.553 25.1223C152.556 25.1773 152.585 25.209 152.64 25.2173L152.958 25.2573ZM144.623 18.8823C143.914 19.3457 143.552 20.139 143.535 21.2623C143.517 22.669 143.512 24.0765 143.52 25.4848C143.528 26.7865 143.563 27.5448 143.623 27.7598C144.16 29.6848 147.06 29.2998 148.938 29.2848C149.831 29.2798 150.594 29.0498 151.228 28.5948C152.035 28.0173 152.025 27.3373 152.04 26.4023C152.082 23.8073 152.086 21.2015 152.053 18.5848C152.051 18.4965 152.006 18.4515 151.918 18.4498C150.236 18.4182 148.563 18.4165 146.898 18.4448C145.801 18.4615 145.043 18.6073 144.623 18.8823Z" fill="#1D91D1"/>
<path d="M120.325 17.9651C120.351 18.0768 120.353 18.1843 120.33 18.2876C120.308 18.3809 120.25 18.4276 120.155 18.4276C118.766 18.4326 117.378 18.4376 115.99 18.4426C114.18 18.4476 113.102 18.7376 113.087 20.7501C113.076 22.3568 113.076 23.9626 113.087 25.5676C113.105 27.8801 113.335 29.2326 115.94 29.2801C117.34 29.3051 118.741 29.3126 120.145 29.3026C120.256 29.3009 120.316 29.3551 120.325 29.4651L120.357 29.8751C120.367 29.9984 120.311 30.0609 120.187 30.0626C119.052 30.0743 117.919 30.0793 116.787 30.0776C115.392 30.0743 114.427 29.9459 113.892 29.6926C112.824 29.1859 112.297 28.2251 112.312 26.8101C112.329 25.0968 112.331 23.3826 112.317 21.6676C112.302 19.8376 112.397 18.4876 114.095 17.8076C114.493 17.6493 115.11 17.5676 115.945 17.5626C117.328 17.5576 118.714 17.5618 120.102 17.5751C120.177 17.5768 120.242 17.6026 120.297 17.6526C120.347 17.6993 120.36 17.7559 120.335 17.8226C120.316 17.8693 120.313 17.9168 120.325 17.9651Z" fill="#1D91D1"/>
<path d="M132.313 21.505C132.308 20.4575 131.97 19.0325 130.9 18.595C130.635 18.4883 130.153 18.435 129.453 18.435C127.438 18.4383 125.418 18.435 123.393 18.425C123.333 18.4249 123.274 18.4083 123.223 18.3769C123.172 18.3455 123.131 18.3007 123.105 18.2475C122.95 17.9425 122.966 17.735 123.153 17.625C123.239 17.575 123.389 17.5517 123.603 17.555C125.329 17.5717 127.054 17.5725 128.778 17.5575C129.989 17.5475 130.836 17.6617 131.318 17.9C132.708 18.585 132.955 19.97 132.975 21.54C133 23.3117 133.011 25.0908 133.008 26.8775C133.008 28.1992 132.521 29.1267 131.548 29.66C131.071 29.9217 130.327 30.0592 129.315 30.0725C126.47 30.11 122.983 30.6575 122.99 26.5875C122.995 24.805 122.738 22.8925 124.58 22.035C125.064 21.81 125.942 21.6992 127.215 21.7025C128.864 21.7092 130.512 21.6958 132.16 21.6625C132.264 21.6608 132.314 21.6083 132.313 21.505ZM124.965 22.8325C124.227 23.2175 123.834 23.9425 123.785 25.0075C123.698 26.9425 123.48 29.21 126.193 29.2825C127.423 29.3142 128.649 29.3208 129.87 29.3025C132.018 29.27 132.235 27.9275 132.238 26.0575C132.241 24.9308 132.239 23.8142 132.23 22.7075C132.23 22.6582 132.21 22.6109 132.175 22.5758C132.14 22.5407 132.093 22.5207 132.043 22.52C130.414 22.495 128.782 22.4933 127.145 22.515C126.074 22.5283 125.347 22.6342 124.965 22.8325Z" fill="#1D91D1"/>
<path d="M140.555 18.3273C138.57 18.4348 137.32 18.7698 137.31 21.0873C137.298 24.029 137.297 26.9715 137.305 29.9148C137.305 30.0165 137.254 30.0665 137.152 30.0648L136.685 30.0573C136.642 30.0567 136.602 30.039 136.572 30.0081C136.542 29.9772 136.525 29.9356 136.525 29.8923C136.547 27.1106 136.551 24.3306 136.537 21.5523C136.532 20.5873 136.639 19.8523 136.857 19.3473C137.492 17.8723 138.74 17.3273 140.6 17.7123C140.673 17.7286 140.739 17.7709 140.784 17.8314C140.829 17.892 140.851 17.9666 140.845 18.0416C140.84 18.1165 140.807 18.1868 140.754 18.2393C140.701 18.2918 140.63 18.3231 140.555 18.3273Z" fill="#1D91D1"/>
<path d="M23.415 17.7026H15.715C14.2155 17.7026 13 18.9182 13 20.4176V27.3476C13 28.8471 14.2155 30.0626 15.715 30.0626H23.415C24.9145 30.0626 26.13 28.8471 26.13 27.3476V20.4176C26.13 18.9182 24.9145 17.7026 23.415 17.7026Z" fill="#C62126"/>
<path d="M34.2577 30.3001L34.2802 34.5676C34.2819 34.6776 34.2286 34.7326 34.1202 34.7326H31.3277C31.2906 34.7326 31.255 34.7181 31.2287 34.6923C31.2025 34.6665 31.1877 34.6315 31.1877 34.5951C31.1711 30.0134 31.1752 25.4209 31.2002 20.8176C31.2202 17.1326 34.2477 17.7126 36.8377 17.7101C38.7577 17.7101 40.6052 17.5126 41.1352 19.6901C41.2119 20.0067 41.2519 20.9259 41.2552 22.4476C41.2586 23.8009 41.2594 25.1551 41.2577 26.5101C41.2577 27.4384 41.1402 28.1201 40.9052 28.5551C40.2627 29.7501 39.2202 30.0451 37.8352 30.0576C36.7186 30.0692 35.6111 30.0667 34.5127 30.0501C34.4795 30.0494 34.4464 30.0554 34.4155 30.0676C34.3846 30.0799 34.3565 30.0982 34.3327 30.1215C34.309 30.1448 34.2901 30.1726 34.2772 30.2032C34.2644 30.2339 34.2577 30.2668 34.2577 30.3001ZM38.1592 21.641C38.1594 21.5422 38.1401 21.4443 38.1024 21.3529C38.0648 21.2615 38.0095 21.1785 37.9397 21.1085C37.87 21.0385 37.7871 20.9829 37.6959 20.9449C37.6046 20.907 37.5068 20.8873 37.408 20.8871L35.033 20.883C34.9342 20.8828 34.8363 20.9021 34.7449 20.9398C34.6536 20.9774 34.5705 21.0327 34.5005 21.1025C34.4305 21.1722 34.3749 21.2551 34.337 21.3463C34.299 21.4376 34.2794 21.5354 34.2792 21.6342L34.2713 26.1692C34.2711 26.268 34.2904 26.3659 34.3281 26.4572C34.3657 26.5486 34.421 26.6317 34.4908 26.7017C34.5605 26.7717 34.6434 26.8272 34.7346 26.8652C34.8258 26.9032 34.9236 26.9228 35.0225 26.923L37.3975 26.9271C37.4963 26.9273 37.5942 26.908 37.6855 26.8704C37.7769 26.8327 37.86 26.7774 37.93 26.7077C38 26.6379 38.0555 26.5551 38.0935 26.4638C38.1315 26.3726 38.1511 26.2748 38.1513 26.1759L38.1592 21.641Z" fill="#1D91D1"/>
<path d="M50.5302 21.0802C50.1236 20.9186 49.6952 20.8402 49.2452 20.8452C47.4669 20.8602 45.6702 20.8861 43.8552 20.9227C43.7636 20.9244 43.7177 20.8794 43.7177 20.7877L43.7152 17.8377C43.7152 17.7527 43.7569 17.7102 43.8402 17.7102C45.8219 17.7086 47.8019 17.7086 49.7802 17.7102C51.9777 17.7127 53.6652 17.9852 53.7327 20.5002C53.7611 21.4886 53.7661 23.3411 53.7477 26.0577C53.7277 28.8452 53.1827 30.0502 50.2827 30.0727C48.1227 30.0911 46.6944 30.0736 45.9977 30.0202C43.2802 29.8102 43.5552 26.7577 43.7077 24.4427C43.8577 22.1677 45.1452 21.8427 47.2252 21.8302C48.3136 21.8236 49.3686 21.8194 50.3902 21.8177C50.4789 21.8172 50.5646 21.7858 50.6327 21.7291C50.7008 21.6723 50.7471 21.5937 50.7636 21.5066C50.7802 21.4195 50.7659 21.3293 50.7234 21.2516C50.6808 21.1738 50.6125 21.1132 50.5302 21.0802ZM50.6884 25.4412C50.6887 25.2608 50.6174 25.0877 50.4901 24.96C50.3628 24.8322 50.19 24.7603 50.0096 24.76L47.4396 24.7555C47.3503 24.7553 47.2619 24.7728 47.1793 24.8068C47.0968 24.8408 47.0217 24.8908 46.9585 24.9538C46.8952 25.0169 46.845 25.0917 46.8107 25.1742C46.7764 25.2566 46.7586 25.345 46.7585 25.4343L46.757 26.2493C46.7567 26.4297 46.8281 26.6027 46.9554 26.7305C47.0827 26.8582 47.2555 26.9302 47.4358 26.9305L50.0058 26.935C50.0951 26.9351 50.1836 26.9177 50.2661 26.8837C50.3487 26.8496 50.4238 26.7997 50.487 26.7366C50.5503 26.6736 50.6005 26.5987 50.6348 26.5163C50.6691 26.4339 50.6869 26.3455 50.687 26.2562L50.6884 25.4412Z" fill="#1D91D1"/>
<path d="M63.0124 26.4702C63.0832 26.317 63.1199 26.1566 63.1199 26.0002L63.1224 17.8252C63.1224 17.7485 63.1607 17.7102 63.2374 17.7102H66.0574C66.074 17.7098 66.0905 17.7128 66.106 17.719C66.1214 17.7251 66.1355 17.7343 66.1474 17.7459C66.1592 17.7575 66.1687 17.7714 66.1751 17.7868C66.1815 17.8021 66.1849 17.8185 66.1849 17.8352C66.1832 22.1902 66.179 26.5577 66.1724 30.9377C66.1699 32.5402 65.7449 34.1427 64.1699 34.5952C63.8832 34.6768 62.9332 34.7218 61.3199 34.7302C59.6632 34.7385 58.0057 34.7385 56.3474 34.7302C56.3056 34.7302 56.2655 34.7136 56.236 34.684C56.2064 34.6545 56.1899 34.6144 56.1899 34.5727V31.6827C56.1899 31.5993 56.2324 31.5577 56.3174 31.5577C58.194 31.556 60.0674 31.576 61.9374 31.6177C62.6374 31.6327 63.0457 31.2802 63.1624 30.5602C63.2157 30.2302 63.0757 30.0652 62.7424 30.0652C61.8507 30.0652 60.9482 30.0652 60.0349 30.0652C58.2949 30.0652 57.0224 29.8902 56.4049 28.2602C56.2599 27.8802 56.1874 27.281 56.1874 26.4627C56.1857 23.5927 56.1865 20.7227 56.1899 17.8527C56.1899 17.7677 56.2324 17.7252 56.3174 17.7252L59.1024 17.7027C59.204 17.701 59.2549 17.751 59.2549 17.8527L59.2574 26.1227C59.2574 26.6493 59.5199 26.9185 60.0449 26.9302C60.7074 26.9477 62.6799 27.1702 63.0124 26.4702Z" fill="#1D91D1"/>
<path d="M72.1249 20.9324C71.2924 20.9774 71.3649 22.1949 72.3124 22.2349C75.2524 22.3574 77.8249 21.7474 77.8699 25.6424C77.8899 27.2899 77.9599 28.9424 76.3074 29.7549C75.8691 29.9716 75.1524 30.0774 74.1574 30.0724C72.3124 30.0641 70.4707 30.0608 68.6324 30.0624C68.5992 30.0624 68.5674 30.0493 68.544 30.0258C68.5206 30.0024 68.5074 29.9706 68.5074 29.9374L68.5049 27.1249C68.5049 27.0985 68.5101 27.0723 68.5203 27.0478C68.5306 27.0234 68.5455 27.0012 68.5643 26.9826C68.5832 26.964 68.6055 26.9494 68.6301 26.9394C68.6546 26.9295 68.6809 26.9246 68.7074 26.9249C70.4557 26.9449 72.1782 26.9433 73.8749 26.9199C75.0549 26.9024 75.0174 25.5049 74.0399 25.4974C71.2374 25.4749 68.5799 25.7774 68.5574 22.0899C68.5399 19.4199 68.5449 17.7724 71.7324 17.7274C73.7291 17.7008 75.7241 17.6974 77.7174 17.7174C77.7614 17.7181 77.8033 17.736 77.8342 17.7674C77.8651 17.7987 77.8824 17.841 77.8824 17.8849L77.8499 20.7999C77.8496 20.8191 77.8454 20.838 77.8378 20.8555C77.8301 20.873 77.8191 20.8887 77.8053 20.9018C77.7916 20.9149 77.7753 20.925 77.7577 20.9315C77.74 20.9381 77.7212 20.941 77.7024 20.9399C75.4241 20.8549 73.5649 20.8524 72.1249 20.9324Z" fill="#1D91D1"/>
<path d="M87.0126 21.3724C86.7176 20.8149 86.0551 20.9024 85.4876 20.8974C83.721 20.8874 81.9418 20.8932 80.1501 20.9149C80.0701 20.9149 80.0301 20.8757 80.0301 20.7974L80.0051 17.8824C80.0051 17.8413 80.0215 17.8019 80.0505 17.7728C80.0796 17.7437 80.119 17.7274 80.1601 17.7274C82.3235 17.6991 84.481 17.6966 86.6326 17.7199C88.6701 17.7424 90.0276 18.3324 90.0501 20.5649C90.0735 22.7482 90.0668 24.9332 90.0301 27.1199C90.0068 28.4149 89.531 29.2874 88.6026 29.7374C88.141 29.9607 87.2668 30.0724 85.9801 30.0724C83.9176 30.0724 81.2701 30.4649 80.3376 28.8149C80.106 28.4049 79.991 27.7607 79.9926 26.8824C79.9976 24.8774 79.6026 21.8649 82.5001 21.8349C83.8785 21.8216 85.2943 21.8149 86.7476 21.8149C86.7993 21.815 86.8501 21.8017 86.8951 21.7762C86.9401 21.7508 86.9777 21.714 87.0044 21.6695C87.031 21.625 87.0458 21.5742 87.0472 21.5222C87.0487 21.4701 87.0368 21.4185 87.0126 21.3724ZM86.9759 25.4183C86.976 25.3326 86.9593 25.2477 86.9266 25.1685C86.894 25.0893 86.846 25.0173 86.7856 24.9566C86.7251 24.8959 86.6532 24.8477 86.5741 24.8148C86.495 24.7818 86.4102 24.7648 86.3245 24.7647L83.7345 24.7602C83.6488 24.76 83.564 24.7767 83.4847 24.8094C83.4055 24.842 83.3335 24.89 83.2728 24.9505C83.2121 25.0109 83.1639 25.0828 83.131 25.1619C83.0981 25.241 83.081 25.3258 83.0809 25.4115L83.0794 26.2715C83.0792 26.3572 83.096 26.4421 83.1286 26.5213C83.1613 26.6005 83.2092 26.6725 83.2697 26.7332C83.3302 26.7939 83.402 26.8421 83.4811 26.8751C83.5602 26.908 83.6451 26.925 83.7307 26.9252L86.3207 26.9297C86.4064 26.9298 86.4913 26.9131 86.5705 26.8804C86.6497 26.8478 86.7218 26.7998 86.7825 26.7394C86.8431 26.6789 86.8913 26.607 86.9243 26.5279C86.9572 26.4488 86.9742 26.364 86.9744 26.2783L86.9759 25.4183Z" fill="#1D91D1"/>
<path d="M102.955 25.755C102.823 25.8064 102.713 25.9022 102.645 26.0259C102.576 26.1495 102.553 26.2933 102.58 26.4325C102.606 26.5717 102.68 26.6975 102.789 26.7883C102.898 26.8791 103.036 26.9292 103.177 26.93L109.317 26.9425C109.401 26.9441 109.442 26.9858 109.442 27.0675L109.44 29.925C109.44 30.0083 109.398 30.0508 109.315 30.0525C107.076 30.0691 104.848 30.0708 102.63 30.0575C100.6 30.0441 99.5731 29.0233 99.5498 26.995C99.5315 25.205 99.5198 23.4125 99.5148 21.6175C99.5073 19.285 99.7748 17.7375 102.437 17.7175C104.721 17.7025 106.2 17.7016 106.875 17.715C109.86 17.7725 109.6 21.0675 109.47 23.0675C109.465 23.1541 109.422 23.2125 109.342 23.2425L102.955 25.755ZM106.13 21.01C105.195 20.815 103.925 20.79 103.01 21.07C102.38 21.26 102.522 22.265 102.555 22.7125C102.563 22.8158 102.616 22.8483 102.712 22.81C103.821 22.37 104.936 21.9466 106.057 21.54C106.107 21.5216 106.149 21.4925 106.182 21.4525C106.227 21.4008 106.258 21.3591 106.275 21.3275C106.292 21.2981 106.301 21.2652 106.303 21.2314C106.304 21.1975 106.297 21.1638 106.283 21.1329C106.269 21.1019 106.248 21.0747 106.221 21.0533C106.195 21.032 106.163 21.0171 106.13 21.01Z" fill="#1D91D1"/>
<path d="M104.142 39.0223C105.31 39.0598 107.31 38.6098 107.297 40.4373C107.287 41.814 107.27 43.1915 107.245 44.5698C107.243 44.6581 107.198 44.7023 107.11 44.7023L105.97 44.7073C105.947 44.7073 105.924 44.7028 105.903 44.694C105.882 44.6852 105.862 44.6723 105.846 44.6561C105.83 44.6398 105.817 44.6205 105.808 44.5993C105.799 44.578 105.795 44.5553 105.795 44.5323L105.812 40.6973C105.812 40.65 105.794 40.6046 105.761 40.5709C105.727 40.5372 105.682 40.518 105.635 40.5173L104.27 40.4923C104.235 40.4916 104.2 40.4979 104.168 40.5107C104.135 40.5234 104.106 40.5425 104.081 40.5667C104.056 40.5909 104.036 40.6198 104.023 40.6516C104.009 40.6835 104.002 40.7177 104.002 40.7523V44.5723C104.002 44.5933 103.998 44.6141 103.99 44.6334C103.982 44.6527 103.97 44.6702 103.954 44.6847C103.939 44.6991 103.921 44.7104 103.902 44.7177C103.882 44.7251 103.861 44.7283 103.84 44.7273L102.677 44.6873C102.589 44.684 102.545 44.639 102.545 44.5523L102.525 37.0848C102.525 37.0441 102.541 37.0051 102.569 36.9761C102.597 36.9471 102.635 36.9305 102.675 36.9298L103.862 36.9073C103.881 36.9066 103.9 36.9098 103.917 36.9167C103.935 36.9236 103.951 36.9339 103.965 36.9472C103.978 36.9605 103.989 36.9765 103.996 36.9941C104.004 37.0117 104.007 37.0307 104.007 37.0498L104 38.8748C104 38.9131 104.015 38.9499 104.041 38.9774C104.068 39.0049 104.104 39.021 104.142 39.0223Z" fill="#1D91D1"/>
<path d="M144.375 38.9251L145.323 39.1501C145.348 39.1566 145.37 39.1711 145.386 39.1914C145.403 39.2117 145.412 39.2367 145.413 39.2626L145.43 40.2526C145.432 40.3243 145.398 40.3676 145.328 40.3826L144.518 40.5401C144.413 40.5618 144.36 40.6251 144.36 40.7301L144.368 44.5676C144.368 44.6493 144.327 44.6901 144.245 44.6901L143.013 44.6926C142.98 44.6926 142.949 44.6795 142.925 44.6561C142.902 44.6328 142.888 44.601 142.888 44.5676C142.883 42.4576 142.89 40.3526 142.91 38.2526C142.923 36.9701 144.278 36.7701 145.255 36.9801C145.357 37.0018 145.408 37.0643 145.408 37.1676L145.418 38.1651C145.419 38.2668 145.369 38.316 145.268 38.3126C144.896 38.296 144.575 38.4135 144.305 38.6651C144.167 38.7951 144.19 38.8818 144.375 38.9251Z" fill="#1D91D1"/>
<path d="M70.3174 44.7027C70.2889 44.7033 70.2607 44.7096 70.2346 44.7211C70.2084 44.7326 70.1848 44.7492 70.1651 44.7699C70.1453 44.7905 70.1299 44.8149 70.1196 44.8415C70.1092 44.8682 70.1043 44.8966 70.1049 44.9252L70.1574 46.5827C70.1608 46.7043 70.1016 46.7652 69.9799 46.7652H68.8199C68.7249 46.7652 68.6766 46.7177 68.6749 46.6227C68.6599 44.6202 68.7424 42.5752 68.6399 40.5802C68.6049 39.8918 68.8566 39.4235 69.3949 39.1752C69.9749 38.9077 72.3499 38.9302 72.8874 39.2752C73.6799 39.7877 73.4424 42.0502 73.4149 43.1227C73.3674 45.1102 71.6674 44.6727 70.3174 44.7027ZM71.9768 40.9794C71.9764 40.8548 71.9264 40.7354 71.838 40.6476C71.7495 40.5597 71.6298 40.5106 71.5052 40.5111L70.5952 40.5143C70.4705 40.5147 70.3512 40.5646 70.2633 40.6531C70.1755 40.7415 70.1264 40.8612 70.1268 40.9859L70.133 42.7709C70.1335 42.8955 70.1834 43.0149 70.2719 43.1027C70.3603 43.1906 70.48 43.2397 70.6047 43.2392L71.5147 43.2361C71.6393 43.2356 71.7587 43.1857 71.8465 43.0972C71.9344 43.0088 71.9835 42.8891 71.983 42.7644L71.9768 40.9794Z" fill="#1D91D1"/>
<path d="M77.6849 40.6776C77.6249 40.486 77.4574 40.391 77.1824 40.3926C76.3141 40.401 75.4307 40.3968 74.5324 40.3801C74.4141 40.3785 74.3549 40.3176 74.3549 40.1976V39.2326C74.3549 39.1343 74.4049 39.0818 74.5049 39.0751C76.3282 38.9751 77.5574 38.9743 78.1924 39.0726C78.7891 39.1643 79.0974 39.5576 79.1174 40.2526C79.1607 41.7243 79.1532 42.8168 79.0949 43.5301C79.0382 44.2135 78.6532 44.5901 77.9399 44.6601C75.4974 44.8976 73.9524 45.0051 74.3724 41.9926C74.5699 40.5926 76.5149 40.9251 77.5099 40.9151C77.5388 40.9148 77.5672 40.9078 77.5928 40.8946C77.6185 40.8815 77.6407 40.8627 77.6577 40.8396C77.6747 40.8165 77.686 40.7898 77.6908 40.7617C77.6955 40.7336 77.6935 40.7048 77.6849 40.6776ZM77.7096 42.7857C77.7115 42.7129 77.6881 42.6401 77.6408 42.5715C77.5934 42.5029 77.523 42.4398 77.4336 42.3859C77.3443 42.332 77.2376 42.2883 77.1198 42.2574C77.0019 42.2264 76.8753 42.2087 76.7469 42.2053C76.4878 42.1986 76.2377 42.2505 76.0517 42.3497C75.8657 42.449 75.7591 42.5874 75.7552 42.7345C75.7533 42.8074 75.7767 42.8802 75.8241 42.9488C75.8714 43.0174 75.9418 43.0805 76.0312 43.1344C76.1206 43.1882 76.2272 43.2319 76.345 43.2629C76.4629 43.2939 76.5896 43.3116 76.7179 43.3149C76.977 43.3217 77.2271 43.2698 77.4131 43.1705C77.5991 43.0713 77.7057 42.9329 77.7096 42.7857Z" fill="#1D91D1"/>
<path d="M83.1 44.7252C82.0325 44.5602 80.06 45.1227 80.045 43.3152C80.035 41.9402 80.0208 40.5677 80.0025 39.1977C80.0008 39.0927 80.0525 39.041 80.1575 39.0427L81.34 39.0502C81.45 39.0502 81.505 39.1052 81.505 39.2152L81.5025 42.9652C81.5025 43.0014 81.5097 43.0372 81.5238 43.0705C81.5379 43.1038 81.5586 43.1339 81.5845 43.1589C81.6104 43.1839 81.6412 43.2033 81.6748 43.216C81.7084 43.2287 81.7441 43.2343 81.78 43.2327L83.1425 43.1752C83.1907 43.1732 83.2362 43.1525 83.2693 43.1175C83.3025 43.0825 83.3207 43.0359 83.32 42.9877L83.295 39.1527C83.295 39.0743 83.3333 39.0352 83.41 39.0352H84.6175C84.7158 39.0352 84.765 39.0843 84.765 39.1827L84.7525 45.6002C84.7518 45.9087 84.6288 46.2044 84.4104 46.4223C84.192 46.6403 83.896 46.7627 83.5875 46.7627L80.2075 46.7602C80.0875 46.7602 80.0266 46.701 80.025 46.5827L80.015 45.5027C80.015 45.4798 80.0195 45.4572 80.0282 45.4361C80.0369 45.415 80.0496 45.3958 80.0657 45.3798C80.0817 45.3637 80.1007 45.3511 80.1217 45.3426C80.1426 45.334 80.1649 45.3298 80.1875 45.3302L83.05 45.3552C83.1288 45.3537 83.2043 45.323 83.2617 45.2689C83.3192 45.2149 83.3544 45.1414 83.3607 45.0628C83.3669 44.9842 83.3437 44.9061 83.2955 44.8437C83.2473 44.7813 83.1776 44.739 83.1 44.7252Z" fill="#1D91D1"/>
<path d="M88.6227 40.6473L88.6277 43.0098C88.6277 43.0608 88.6483 43.1098 88.6848 43.1459C88.7214 43.182 88.771 43.2023 88.8227 43.2023L90.8052 43.2073C90.8433 43.2072 90.88 43.2213 90.9079 43.2468C90.9358 43.2724 90.9527 43.3074 90.9552 43.3448L91.0352 44.5198C91.0436 44.6265 90.9944 44.6823 90.8877 44.6873C90.1494 44.729 89.4177 44.7515 88.6927 44.7548C87.7077 44.7615 87.1994 44.2823 87.1677 43.3173C87.1294 42.1623 87.1261 41.0556 87.1577 39.9973C87.1649 39.7399 87.2722 39.4955 87.4571 39.3158C87.6419 39.1361 87.8896 39.0353 88.1477 39.0348L90.8227 39.0298C90.9327 39.0298 90.9885 39.0856 90.9902 39.1973L91.0052 40.2898C91.0056 40.3206 90.9997 40.3512 90.988 40.3797C90.9763 40.4083 90.9589 40.4342 90.937 40.4558C90.9151 40.4775 90.889 40.4946 90.8604 40.506C90.8317 40.5174 90.801 40.523 90.7702 40.5223L88.7902 40.4823C88.7683 40.482 88.7466 40.486 88.7263 40.4941C88.706 40.5023 88.6875 40.5144 88.6719 40.5297C88.6563 40.5451 88.644 40.5634 88.6355 40.5836C88.6271 40.6037 88.6227 40.6254 88.6227 40.6473Z" fill="#1D91D1"/>
<path d="M94.8998 40.9026C94.9593 40.8941 95.0135 40.8635 95.0516 40.817C95.0897 40.7704 95.1089 40.7113 95.1054 40.6512C95.102 40.5912 95.0761 40.5346 95.0329 40.4927C94.9897 40.4509 94.9324 40.4267 94.8723 40.4251L91.9923 40.4026C91.9496 40.402 91.9089 40.3845 91.879 40.3541C91.8491 40.3237 91.8323 40.2828 91.8323 40.2401L91.8298 39.1901C91.8298 39.1455 91.8471 39.1026 91.8779 39.0708C91.9088 39.039 91.9508 39.0208 91.9948 39.0201C93.1515 39.0151 94.2981 39.0276 95.4348 39.0576C96.0414 39.0743 96.374 39.4201 96.4323 40.0951C96.5506 41.4834 96.5648 42.6593 96.4748 43.6226C96.3698 44.7751 95.1523 44.7901 94.1748 44.7276C92.9998 44.6551 91.9373 44.9676 91.7573 43.3276C91.4398 40.3926 92.9898 41.1376 94.8998 40.9026ZM95.0496 42.646C95.0495 42.5958 95.0395 42.5461 95.0202 42.4997C95.0009 42.4533 94.9727 42.4112 94.9371 42.3758C94.9015 42.3403 94.8593 42.3122 94.8128 42.2931C94.7664 42.2739 94.7166 42.2641 94.6664 42.2642L93.6314 42.266C93.5812 42.2661 93.5315 42.2761 93.4851 42.2954C93.4387 42.3147 93.3966 42.3429 93.3611 42.3785C93.3257 42.4141 93.2976 42.4563 93.2784 42.5028C93.2593 42.5492 93.2495 42.599 93.2496 42.6492L93.25 42.8842C93.2501 42.9344 93.26 42.9841 93.2794 43.0305C93.2987 43.0769 93.3269 43.119 93.3625 43.1545C93.3981 43.1899 93.4403 43.218 93.4867 43.2372C93.5332 43.2563 93.5829 43.2661 93.6332 43.266L94.6682 43.2642C94.7184 43.2641 94.7681 43.2541 94.8145 43.2348C94.8609 43.2155 94.903 43.1873 94.9384 43.1517C94.9739 43.1161 95.002 43.0739 95.0211 43.0275C95.0403 42.981 95.0501 42.9313 95.05 42.881L95.0496 42.646Z" fill="#1D91D1"/>
<path d="M100.117 43.0826C100.164 43.0554 100.201 43.0139 100.222 42.9643C100.243 42.9147 100.248 42.8596 100.236 42.807C100.224 42.7544 100.195 42.7071 100.154 42.6721C100.112 42.6372 100.061 42.6163 100.007 42.6126C98.8748 42.5476 97.3323 42.8026 97.3298 41.1326C97.3273 40.5326 97.2773 39.7426 97.7573 39.3451C98.3848 38.8226 100.627 39.0201 101.477 39.0276C101.579 39.0276 101.631 39.0784 101.632 39.1801L101.655 40.3301C101.655 40.3528 101.651 40.3754 101.642 40.3965C101.634 40.4176 101.621 40.4367 101.604 40.4528C101.588 40.4689 101.569 40.4816 101.547 40.4901C101.526 40.4987 101.503 40.5029 101.48 40.5026L99.1573 40.4726C99.1045 40.4719 99.0526 40.4858 99.0072 40.5127C98.9617 40.5396 98.9246 40.5785 98.8998 40.6251C98.7665 40.8751 98.8431 41.0226 99.1298 41.0676C99.5215 41.1309 99.9148 41.1659 100.31 41.1726C101.987 41.1976 101.85 43.1751 101.372 44.1926C101.002 44.9801 98.1923 44.7401 97.4323 44.7026C97.4087 44.7017 97.3854 44.696 97.364 44.6858C97.3426 44.6756 97.3236 44.6612 97.3079 44.6435C97.2922 44.6257 97.2803 44.6049 97.2729 44.5825C97.2655 44.56 97.2628 44.5362 97.2648 44.5126L97.3648 43.3276C97.3664 43.3079 97.3718 43.2887 97.3809 43.2711C97.3899 43.2535 97.4023 43.2378 97.4174 43.225C97.4326 43.2123 97.45 43.2026 97.4689 43.1966C97.4878 43.1906 97.5076 43.1884 97.5273 43.1901C98.2098 43.2401 99.5448 43.4051 100.117 43.0826Z" fill="#1D91D1"/>
<path d="M115.005 44.8398L115.047 46.6048C115.048 46.625 115.044 46.6451 115.037 46.6639C115.029 46.6827 115.018 46.6998 115.004 46.7142C114.989 46.7287 114.973 46.7401 114.954 46.748C114.935 46.7558 114.915 46.7598 114.895 46.7598L113.747 46.7573C113.641 46.7573 113.587 46.7031 113.587 46.5948C113.591 44.4965 113.592 42.4023 113.592 40.3123C113.594 39.489 114.021 39.0631 114.872 39.0348C116.29 38.9848 118.337 38.6723 118.335 40.3773C118.333 41.3106 118.329 42.2465 118.322 43.1848C118.305 45.1173 116.447 44.6998 115.155 44.6873C115.135 44.6869 115.115 44.6907 115.097 44.6982C115.078 44.7058 115.061 44.7171 115.047 44.7313C115.033 44.7456 115.022 44.7626 115.015 44.7812C115.008 44.7999 115.004 44.8198 115.005 44.8398ZM116.856 40.9776C116.854 40.851 116.803 40.7301 116.712 40.6415C116.622 40.5529 116.5 40.5039 116.373 40.5052L115.478 40.5145C115.415 40.5152 115.353 40.5282 115.296 40.5528C115.238 40.5774 115.186 40.6131 115.142 40.6579C115.098 40.7027 115.063 40.7557 115.04 40.8139C115.017 40.8721 115.005 40.9343 115.006 40.997L115.024 42.7669C115.026 42.8936 115.077 43.0145 115.168 43.1031C115.258 43.1917 115.38 43.2407 115.507 43.2394L116.402 43.23C116.464 43.2294 116.526 43.2164 116.584 43.1918C116.642 43.1672 116.694 43.1315 116.738 43.0867C116.782 43.0419 116.816 42.9889 116.84 42.9307C116.863 42.8725 116.875 42.8103 116.874 42.7476L116.856 40.9776Z" fill="#1D91D1"/>
<path d="M122.48 40.8801C122.506 40.8765 122.531 40.8666 122.553 40.8512C122.574 40.8358 122.592 40.8154 122.603 40.7918C122.615 40.7681 122.621 40.7419 122.621 40.7155C122.62 40.6891 122.613 40.6632 122.6 40.6401C122.538 40.5351 122.442 40.4801 122.31 40.4751C121.36 40.4418 120.407 40.4118 119.45 40.3851C119.415 40.3845 119.382 40.3703 119.357 40.3456C119.332 40.3209 119.318 40.2875 119.318 40.2526L119.283 39.1876C119.282 39.1695 119.285 39.1515 119.291 39.1346C119.298 39.1177 119.308 39.1021 119.32 39.0889C119.333 39.0757 119.348 39.065 119.364 39.0575C119.381 39.05 119.399 39.0458 119.418 39.0451C120.158 39.0201 120.892 39.0134 121.62 39.0251C123.09 39.0501 123.948 38.8726 123.995 40.6251C124.03 41.8684 124.032 42.8051 124 43.4351C123.953 44.3576 123.348 44.6676 122.475 44.7151C120.068 44.8501 118.845 44.8026 119.34 41.8801C119.565 40.5551 121.598 41.0051 122.48 40.8801ZM122.61 42.7891C122.614 42.6433 122.515 42.5004 122.335 42.3919C122.155 42.2833 121.908 42.218 121.649 42.2103C121.39 42.2027 121.14 42.2532 120.953 42.3509C120.767 42.4485 120.66 42.5853 120.656 42.7311C120.651 42.8769 120.75 43.0198 120.93 43.1283C121.11 43.2369 121.357 43.3022 121.616 43.3098C121.875 43.3175 122.126 43.267 122.312 43.1693C122.498 43.0717 122.605 42.9349 122.61 42.7891Z" fill="#1D91D1"/>
<path d="M128.25 43.0149L128.242 39.1724C128.242 39.134 128.258 39.0971 128.286 39.0699C128.313 39.0427 128.351 39.0274 128.39 39.0274L129.54 39.0249C129.638 39.0249 129.688 39.0741 129.69 39.1724C129.707 41.1649 129.612 43.1974 129.715 45.1774C129.772 46.2774 129.16 46.7574 128.08 46.7599C127.083 46.7599 126.096 46.7641 125.117 46.7724C125.006 46.7724 124.951 46.7174 124.952 46.6074L124.955 45.4749C124.957 45.3616 125.014 45.3074 125.127 45.3124C125.999 45.3591 126.863 45.3666 127.72 45.3349C127.908 45.3283 128.042 45.2874 128.12 45.2124C128.217 45.1174 128.247 44.9924 128.21 44.8374C128.188 44.7508 128.134 44.7058 128.047 44.7024C127.442 44.6758 126.842 44.6466 126.247 44.6149C125.332 44.5649 124.891 44.0674 124.922 43.1224C124.967 41.8108 124.984 40.4983 124.972 39.1849C124.971 39.0766 125.024 39.0233 125.132 39.0249L126.312 39.0499C126.404 39.0516 126.45 39.0983 126.45 39.1899L126.445 43.0374C126.445 43.0596 126.449 43.0816 126.458 43.1021C126.467 43.1226 126.479 43.1412 126.495 43.1568C126.511 43.1724 126.53 43.1846 126.55 43.1929C126.571 43.2012 126.593 43.2053 126.615 43.2049L128.072 43.1949C128.191 43.1933 128.25 43.1333 128.25 43.0149Z" fill="#1D91D1"/>
<path d="M134.63 43.2273C134.711 43.2287 134.789 43.1978 134.847 43.1416C134.905 43.0853 134.939 43.0082 134.94 42.9273C134.941 42.8465 134.911 42.7684 134.854 42.7102C134.798 42.6521 134.721 42.6187 134.64 42.6173C133.718 42.5848 132.095 42.7548 131.993 41.3948C131.865 39.7098 132.123 39.0023 133.935 39.0198C134.677 39.0265 135.413 39.0282 136.145 39.0248C136.168 39.0248 136.19 39.0293 136.211 39.038C136.231 39.0467 136.25 39.0595 136.266 39.0755C136.282 39.0916 136.294 39.1106 136.303 39.1315C136.311 39.1524 136.315 39.1748 136.315 39.1973L136.298 40.3498C136.297 40.3686 136.293 40.387 136.286 40.4042C136.278 40.4214 136.268 40.4369 136.254 40.4499C136.241 40.4629 136.225 40.4731 136.207 40.48C136.19 40.4868 136.171 40.4902 136.153 40.4898L133.775 40.4848C133.74 40.4849 133.706 40.492 133.674 40.5058C133.642 40.5195 133.614 40.5396 133.59 40.5648C133.44 40.7232 133.437 40.8707 133.58 41.0073C133.945 41.3548 135.265 40.9698 135.858 41.4323C136.5 41.9323 136.428 43.6198 136.02 44.2598C135.568 44.9673 132.98 44.7223 132.178 44.7098C132.129 44.7092 132.083 44.6897 132.048 44.6555C132.014 44.6214 131.995 44.5753 131.995 44.5273L131.993 43.3823C131.993 43.3446 132.008 43.3083 132.034 43.2816C132.061 43.2549 132.097 43.2398 132.135 43.2398L134.63 43.2273Z" fill="#1D91D1"/>
<path d="M140.357 40.8676C140.409 40.8569 140.455 40.8276 140.486 40.7851C140.518 40.7426 140.532 40.6899 140.527 40.6372C140.521 40.5844 140.497 40.5351 140.458 40.4988C140.419 40.4625 140.368 40.4416 140.315 40.4401L137.357 40.3801C137.318 40.3795 137.281 40.3635 137.254 40.3359C137.227 40.3082 137.212 40.2711 137.212 40.2326L137.217 39.1926C137.217 39.1554 137.232 39.1197 137.258 39.0927C137.284 39.0657 137.32 39.0496 137.357 39.0476C138.422 38.9976 139.485 39.0501 140.547 39.0176C141.461 38.991 141.934 39.4818 141.967 40.4901C142.012 41.8726 142.2 43.7951 141.587 44.3851C141.025 44.9251 139.54 44.7226 138.627 44.6876C136.992 44.6226 137.182 43.4126 137.232 42.2351C137.307 40.3976 139.275 41.1051 140.357 40.8676ZM140.482 42.6564C140.481 42.6035 140.47 42.5512 140.45 42.5025C140.429 42.4538 140.399 42.4097 140.362 42.3726C140.324 42.3355 140.279 42.3061 140.23 42.2862C140.182 42.2664 140.129 42.2563 140.076 42.2567L139.086 42.2636C138.98 42.2644 138.877 42.3075 138.802 42.3835C138.728 42.4595 138.686 42.5622 138.687 42.6689L138.688 42.8739C138.688 42.9268 138.699 42.979 138.72 43.0277C138.74 43.0764 138.77 43.1206 138.808 43.1577C138.846 43.1948 138.89 43.2241 138.939 43.244C138.988 43.2639 139.04 43.274 139.093 43.2736L140.083 43.2667C140.19 43.2659 140.292 43.2228 140.367 43.1468C140.442 43.0708 140.484 42.9681 140.483 42.8614L140.482 42.6564Z" fill="#1D91D1"/>
<path d="M147.317 43.1926C147.328 43.2042 147.34 43.2134 147.354 43.2195C147.368 43.2255 147.383 43.2283 147.397 43.2276L150.28 43.1951C150.3 43.1948 150.32 43.1983 150.338 43.2056C150.357 43.2129 150.373 43.2237 150.388 43.2374C150.402 43.2511 150.413 43.2675 150.421 43.2856C150.429 43.3036 150.432 43.323 150.432 43.3426L150.442 44.5451C150.444 44.6434 150.396 44.6943 150.297 44.6976C148.889 44.7376 147.789 44.7393 146.997 44.7026C145.952 44.6551 145.767 43.9451 145.745 43.0001C145.722 42.0676 145.342 39.1951 146.747 39.0526C147.239 39.0009 147.949 38.9776 148.877 38.9826C150.001 38.9876 150.525 39.5201 150.45 40.5801C150.425 40.9201 150.587 41.5551 150.062 41.7376C149.166 42.0493 148.283 42.3868 147.415 42.7501C147.168 42.8534 147.136 43.0009 147.317 43.1926ZM147.167 41.4276L148.882 40.9151C148.886 40.9139 148.889 40.9115 148.891 40.9083C148.893 40.905 148.893 40.9012 148.892 40.8976L148.89 40.8901C148.841 40.7269 148.714 40.5945 148.536 40.5218C148.359 40.4492 148.145 40.4422 147.942 40.5026L147.727 40.5651C147.627 40.5951 147.532 40.6407 147.449 40.6995C147.365 40.7582 147.294 40.8288 147.241 40.9073C147.187 40.9858 147.151 41.0706 147.135 41.1569C147.119 41.2432 147.123 41.3292 147.147 41.4101V41.4176C147.148 41.4196 147.149 41.4215 147.15 41.4232C147.152 41.4248 147.153 41.4261 147.155 41.4271C147.157 41.428 147.159 41.4285 147.161 41.4286C147.163 41.4287 147.166 41.4284 147.167 41.4276Z" fill="#1D91D1"/>
<path d="M108.89 44.7027C109.397 44.7027 109.808 44.2919 109.808 43.7852C109.808 43.2785 109.397 42.8677 108.89 42.8677C108.383 42.8677 107.973 43.2785 107.973 43.7852C107.973 44.2919 108.383 44.7027 108.89 44.7027Z" fill="#1D91D1"/>
<path d="M152.01 44.6973C152.511 44.6973 152.918 44.291 152.918 43.7898C152.918 43.2886 152.511 42.8823 152.01 42.8823C151.509 42.8823 151.103 43.2886 151.103 43.7898C151.103 44.291 151.509 44.6973 152.01 44.6973Z" fill="#1D91D1"/>
</svg>
