<svg width="166" height="58" viewBox="0 0 166 58" fill="none" xmlns="http://www.w3.org/2000/svg">
<path d="M34.7123 30.1548C34.0073 31.1098 33.1432 32.0598 32.1198 33.0048C32.0582 33.0598 31.9865 33.0898 31.9048 33.0948L31.7148 33.1048" stroke="#0082BA" stroke-width="2"/>
<path d="M70.0878 15.8276C72.0249 15.8175 73.5872 14.2759 73.5773 12.3843C73.5674 10.4928 71.989 8.96759 70.0519 8.97773C68.1148 8.98787 66.5525 10.5295 66.5624 12.421C66.5723 14.3126 68.1506 15.8378 70.0878 15.8276Z" fill="white"/>
<path d="M130.618 10.1948H125.403C125.36 10.1948 125.325 10.2295 125.325 10.2723V39.3123C125.325 39.3551 125.36 39.3898 125.403 39.3898H130.618C130.66 39.3898 130.695 39.3551 130.695 39.3123V10.2723C130.695 10.2295 130.66 10.1948 130.618 10.1948Z" fill="white"/>
<path d="M34.7127 30.1549C34.0077 31.1099 33.1436 32.0599 32.1202 33.0049C32.0586 33.0599 31.9869 33.0899 31.9052 33.0949L31.7152 33.1049C31.6477 31.2574 30.1727 29.8599 28.3452 30.2549C26.6977 30.6124 26.1852 32.3699 25.0877 33.4499C22.3902 36.0999 17.9677 36.1849 15.2252 33.5249C10.3727 28.8224 14.2002 20.6349 20.7802 21.2774C23.2727 21.5199 24.9477 22.8099 26.2852 24.7874C26.7002 25.4007 27.0752 25.8157 27.4102 26.0324C29.4577 27.3674 32.0977 25.7099 31.6952 23.2599C31.6502 22.9915 31.4736 22.5507 31.1652 21.9374C29.8652 19.369 29.9186 16.9557 31.3252 14.6974C34.7552 9.18236 42.7102 10.7874 44.2977 16.8399C44.5627 17.8499 44.5619 18.9065 44.2952 20.0099C43.5002 23.2949 40.8202 25.4124 37.3977 25.5249C36.8044 25.5432 36.3427 25.6257 36.0127 25.7724C34.1627 26.5907 33.7294 28.0515 34.7127 30.1549Z" fill="#0094CD"/>
<path d="M57.0523 21.255C57.0525 21.2636 57.0551 21.272 57.0599 21.2791C57.0647 21.2863 57.0715 21.2919 57.0794 21.2953C57.0873 21.2987 57.096 21.2998 57.1045 21.2984C57.113 21.2971 57.1209 21.2933 57.1273 21.2875C59.2006 19.3792 61.6623 18.6859 64.5123 19.2075C64.6089 19.2259 64.6515 19.2834 64.6398 19.38L64.0548 24.065C64.0415 24.165 63.9856 24.2034 63.8873 24.18C61.4623 23.5925 58.6273 24.455 57.5823 26.8325C57.364 27.3325 57.2548 28.0417 57.2548 28.96C57.2598 32.3934 57.2598 35.8242 57.2548 39.2525C57.2548 39.3409 57.2106 39.385 57.1223 39.385L52.0523 39.3875C51.954 39.3875 51.9048 39.3384 51.9048 39.24L51.9073 19.61C51.909 19.4984 51.9656 19.4425 52.0773 19.4425H56.9073C57.0106 19.4425 57.0615 19.4934 57.0598 19.595L57.0523 21.255Z" fill="white"/>
<path d="M82.8402 20.9524C86.0727 18.4249 90.7252 18.4549 93.9327 20.7374C101.41 26.0549 98.9602 38.4824 89.4677 39.7149C87.0602 40.0249 84.9502 39.5024 83.0202 38.1099C82.9236 38.0399 82.8752 38.0641 82.8752 38.1824V49.1249C82.8752 49.2083 82.8336 49.2499 82.7502 49.2499H77.6977C77.6011 49.2499 77.5527 49.2016 77.5527 49.1049V19.5699C77.5527 19.4849 77.5952 19.4424 77.6802 19.4424L82.5027 19.4449C82.6244 19.4449 82.6844 19.5058 82.6827 19.6274L82.6802 20.8749C82.6802 21.0099 82.7336 21.0358 82.8402 20.9524ZM87.6602 34.9674C88.3599 34.9674 89.0526 34.8251 89.699 34.5484C90.3453 34.2718 90.9326 33.8663 91.4273 33.3551C91.922 32.8439 92.3145 32.237 92.5822 31.5691C92.8499 30.9012 92.9877 30.1854 92.9877 29.4624C92.9877 28.0024 92.4264 26.6022 91.4273 25.5698C90.4282 24.5374 89.0732 23.9574 87.6602 23.9574C86.2473 23.9574 84.8922 24.5374 83.8931 25.5698C82.894 26.6022 82.3327 28.0024 82.3327 29.4624C82.3327 30.1854 82.4705 30.9012 82.7383 31.5691C83.006 32.237 83.3984 32.8439 83.8931 33.3551C84.3878 33.8663 84.9751 34.2718 85.6215 34.5484C86.2679 34.8251 86.9606 34.9674 87.6602 34.9674Z" fill="white"/>
<path d="M106.738 20.9325C109.271 19.0841 112.026 18.5708 115.003 19.3925C122.21 21.3825 124.455 30.96 119.663 36.4425C116.573 39.98 110.93 41.0375 106.95 38.1225C106.937 38.1134 106.922 38.1081 106.906 38.107C106.89 38.1059 106.874 38.1091 106.86 38.1163C106.846 38.1235 106.834 38.1344 106.826 38.1478C106.818 38.1612 106.813 38.1766 106.813 38.1925L106.815 49.1225C106.815 49.2075 106.773 49.25 106.69 49.25H101.563C101.478 49.25 101.435 49.2083 101.435 49.125L101.438 19.565C101.438 19.485 101.478 19.445 101.56 19.445L106.463 19.4425C106.559 19.4425 106.608 19.4908 106.608 19.5875L106.613 20.87C106.614 20.9716 106.656 20.9925 106.738 20.9325ZM111.587 34.9674C112.287 34.965 112.979 34.8202 113.625 34.5413C114.271 34.2624 114.857 33.8548 115.35 33.3419C115.843 32.829 116.234 32.2208 116.499 31.552C116.765 30.8831 116.9 30.1668 116.898 29.4439C116.895 28.7209 116.755 28.0056 116.484 27.3386C116.214 26.6717 115.82 26.0662 115.323 25.5567C114.826 25.0473 114.237 24.6438 113.59 24.3694C112.942 24.095 112.248 23.9551 111.548 23.9575C110.848 23.9599 110.156 24.1048 109.51 24.3837C108.864 24.6626 108.278 25.0701 107.785 25.583C107.292 26.0959 106.901 26.7042 106.636 27.373C106.37 28.0418 106.235 28.7582 106.238 29.4811C106.24 30.204 106.38 30.9194 106.651 31.5863C106.921 32.2533 107.316 32.8588 107.812 33.3682C108.309 33.8777 108.898 34.2811 109.546 34.5555C110.193 34.8299 110.887 34.9699 111.587 34.9674Z" fill="white"/>
<path d="M139.075 30.8773C139.209 32.1207 139.7 33.1473 140.55 33.9573C143.145 36.4348 146.993 35.6498 149.318 33.2748C149.389 33.2032 149.46 33.2032 149.53 33.2748L152.375 36.1223C152.444 36.1907 152.445 36.2607 152.38 36.3323C149.083 40.0023 143.425 40.7898 139.095 38.5923C130.533 34.2448 132.823 20.0048 142.745 19.0548C149.328 18.4248 153.535 24.5048 152.875 30.6348C152.867 30.7115 152.824 30.7498 152.745 30.7498H139.19C139.105 30.7498 139.067 30.7923 139.075 30.8773ZM147 25.3698C144.915 22.0798 140.335 23.1173 139.303 26.6573C139.269 26.7723 139.312 26.8298 139.43 26.8298H147.313C147.409 26.8298 147.453 26.7823 147.443 26.6873C147.396 26.2023 147.249 25.7632 147 25.3698Z" fill="white"/>
<path d="M72.6626 19.4424H67.4626C67.4129 19.4424 67.3726 19.4827 67.3726 19.5324V39.2974C67.3726 39.3471 67.4129 39.3874 67.4626 39.3874H72.6626C72.7123 39.3874 72.7526 39.3471 72.7526 39.2974V19.5324C72.7526 19.4827 72.7123 19.4424 72.6626 19.4424Z" fill="white"/>
<path d="M34.7127 30.1548C34.981 30.4315 35.3369 30.6731 35.7802 30.8798C36.7552 31.3398 38.1552 31.1748 38.9827 31.3898C45.0052 32.9473 46.5152 40.7973 41.2477 44.2573C37.0877 46.9923 31.3427 44.6148 30.3752 39.7423C29.9627 37.6648 30.4952 36.1098 31.5052 34.0898C31.6577 33.7848 31.6677 33.4373 31.7152 33.1048L31.9052 33.0948C31.9869 33.0898 32.0585 33.0598 32.1202 33.0048C33.1435 32.0598 34.0077 31.1098 34.7127 30.1548Z" fill="#006FA7"/>
</svg>
