<svg width="166" height="58" viewBox="0 0 166 58" fill="none" xmlns="http://www.w3.org/2000/svg">
<path d="M93.6599 22.7049C93.6599 22.2315 93.4718 21.7775 93.137 21.4427C92.8023 21.108 92.3483 20.9199 91.8748 20.9199C91.4014 20.9199 90.9474 21.108 90.6127 21.4427C90.2779 21.7775 90.0898 22.2315 90.0898 22.7049C90.0898 23.1783 90.2779 23.6324 90.6127 23.9671C90.9474 24.3019 91.4014 24.4899 91.8748 24.4899C92.3483 24.4899 92.8023 24.3019 93.137 23.9671C93.4718 23.6324 93.6599 23.1783 93.6599 22.7049Z" stroke="#C390B2" stroke-width="2"/>
<path d="M65.3675 26.7023C64.32 26.3223 64.825 24.8798 65.8175 24.7748C67.4875 24.5965 69.1783 24.8781 70.89 25.6198C71.0083 25.6698 71.0675 25.6306 71.0675 25.5023V22.6348C71.0675 22.5631 71.0333 22.5156 70.965 22.4923C68.605 21.669 66.3958 21.4915 64.3375 21.9598C62.1875 22.4473 60.565 24.2973 60.8 26.5198C61.1075 29.4273 63.7075 30.2173 66.16 30.4248C66.655 30.4648 67.2825 30.7073 67.37 31.1848C67.8375 33.7448 62.3 32.4023 61.215 32.0073C61.1083 31.969 61.055 32.0065 61.055 32.1198L61.0525 35.0073C61.0518 35.0555 61.0676 35.1027 61.0975 35.1413C61.1275 35.1798 61.1697 35.2075 61.2175 35.2198C63.2908 35.7648 65.3725 35.8815 67.4625 35.5698C72.3725 34.8398 73.2975 28.6398 68.285 27.2173C67.47 26.9873 66.105 26.9673 65.3675 26.7023Z" stroke="#C390B2" stroke-width="2"/>
<path d="M98.8126 21.8275C98.8128 21.8165 98.8105 21.8056 98.806 21.7956C98.8015 21.7856 98.7948 21.7767 98.7864 21.7695C98.7781 21.7624 98.7683 21.7571 98.7577 21.7542C98.7471 21.7513 98.736 21.7507 98.7251 21.7525L95.2451 22.36C95.2279 22.3629 95.2122 22.3718 95.2008 22.385C95.1894 22.3982 95.183 22.415 95.1826 22.4325V35.4875C95.1826 35.5074 95.1905 35.5265 95.2046 35.5405C95.2186 35.5546 95.2377 35.5625 95.2576 35.5625H98.7376C98.7575 35.5625 98.7766 35.5546 98.7906 35.5405C98.8047 35.5265 98.8126 35.5074 98.8126 35.4875V21.8275Z" stroke="#C390B2" stroke-width="2"/>
<path d="M104.062 21.8324C104.063 21.8211 104.06 21.8099 104.056 21.7996C104.051 21.7892 104.044 21.7801 104.036 21.7727C104.027 21.7653 104.017 21.7599 104.006 21.7568C103.995 21.7537 103.984 21.7531 103.972 21.7549L100.505 22.3574C100.487 22.3603 100.471 22.3694 100.459 22.3832C100.447 22.3969 100.44 22.4143 100.44 22.4324V35.4849C100.44 35.5055 100.448 35.5252 100.463 35.5397C100.477 35.5543 100.497 35.5624 100.517 35.5624H103.985C104.005 35.5624 104.025 35.5543 104.04 35.5397C104.054 35.5252 104.062 35.5055 104.062 35.4849V21.8324Z" stroke="#C390B2" stroke-width="2"/>
<path d="M76.2151 28.7449L76.2051 21.9199C76.2051 21.8099 76.151 21.7649 76.0426 21.7849L72.6351 22.4449C72.5418 22.4632 72.4951 22.5199 72.4951 22.6149V35.4349C72.4951 35.5199 72.5376 35.5624 72.6226 35.5624H76.0501C76.1651 35.5624 76.2226 35.5041 76.2226 35.3874L76.2101 31.9999C76.2084 31.6566 76.2901 31.6357 76.4551 31.9374C77.0518 33.0407 77.4926 34.2066 77.7776 35.4349C77.786 35.471 77.8064 35.5033 77.8355 35.5264C77.8645 35.5496 77.9005 35.5622 77.9376 35.5624H82.1801C82.2818 35.5624 82.3159 35.5141 82.2826 35.4174C81.6776 33.7091 80.9176 32.0724 80.0026 30.5074C79.9543 30.4224 79.9593 30.3407 80.0176 30.2624C81.0909 28.8357 81.9184 27.2774 82.5001 25.5874C82.5065 25.5688 82.5084 25.5489 82.5055 25.5295C82.5026 25.51 82.4951 25.4915 82.4836 25.4756C82.4721 25.4597 82.4569 25.4467 82.4393 25.4379C82.4217 25.4291 82.4023 25.4246 82.3826 25.4249L78.3801 25.4224C78.3001 25.4224 78.2451 25.4599 78.2151 25.5349C77.7618 26.7216 77.1343 27.8057 76.3326 28.7874C76.2543 28.8824 76.2151 28.8682 76.2151 28.7449Z" stroke="#C390B2" stroke-width="2"/>
<path d="M86.7425 30.3149C86.7675 28.9649 87.4275 28.2749 88.8325 28.3499C88.9442 28.3566 89 28.3041 89 28.1924V25.4399C89 25.3532 88.9559 25.3074 88.8675 25.3024C86.77 25.1974 84.465 25.6399 83.495 27.6349C83.2034 28.2366 83.0459 29.2482 83.0225 30.6699C82.9975 32.2582 82.9984 33.8524 83.025 35.4524C83.025 35.5257 83.0625 35.5624 83.1375 35.5624H86.5575C86.6392 35.5624 86.68 35.5216 86.68 35.4399C86.69 33.7266 86.7109 32.0182 86.7425 30.3149Z" stroke="#C390B2" stroke-width="2"/>
<path d="M93.6925 25.5174C93.6925 25.4969 93.6843 25.4772 93.6698 25.4626C93.6553 25.4481 93.6356 25.4399 93.615 25.4399H90.14C90.1194 25.4399 90.0997 25.4481 90.0852 25.4626C90.0707 25.4772 90.0625 25.4969 90.0625 25.5174V35.4824C90.0625 35.503 90.0707 35.5227 90.0852 35.5372C90.0997 35.5518 90.1194 35.5599 90.14 35.5599H93.615C93.6356 35.5599 93.6553 35.5518 93.6698 35.5372C93.6843 35.5227 93.6925 35.503 93.6925 35.4824V25.5174Z" stroke="#C390B2" stroke-width="2"/>
<path d="M111.105 29.015C111.105 36.4669 108.145 43.6136 102.876 48.8829C97.6063 54.1522 90.4596 57.1125 83.0077 57.1125C75.5557 57.1125 68.409 54.1522 63.1397 48.8829C57.8704 43.6136 54.9102 36.4669 54.9102 29.015C54.9102 21.5631 57.8704 14.4164 63.1397 9.14705C68.409 3.87774 75.5557 0.91748 83.0077 0.91748C86.6975 0.91748 90.3512 1.64424 93.7601 3.05628C97.1691 4.46831 100.266 6.53795 102.876 9.14705C105.485 11.7561 107.554 14.8536 108.966 18.2625C110.378 21.6715 111.105 25.3252 111.105 29.015ZM93.6602 22.705C93.6602 22.2316 93.4721 21.7775 93.1373 21.4428C92.8026 21.108 92.3486 20.92 91.8752 20.92C91.4017 20.92 90.9477 21.108 90.613 21.4428C90.2782 21.7775 90.0902 22.2316 90.0902 22.705C90.0902 23.1784 90.2782 23.6324 90.613 23.9672C90.9477 24.3019 91.4017 24.49 91.8752 24.49C92.3486 24.49 92.8026 24.3019 93.1373 23.9672C93.4721 23.6324 93.6602 23.1784 93.6602 22.705ZM65.3677 26.7025C64.3202 26.3225 64.8252 24.88 65.8177 24.775C67.4877 24.5966 69.1785 24.8783 70.8902 25.62C71.0085 25.67 71.0677 25.6308 71.0677 25.5025V22.635C71.0677 22.5633 71.0335 22.5158 70.9652 22.4925C68.6052 21.6691 66.396 21.4916 64.3377 21.96C62.1877 22.4475 60.5652 24.2975 60.8002 26.52C61.1077 29.4275 63.7077 30.2175 66.1602 30.425C66.6552 30.465 67.2827 30.7075 67.3702 31.185C67.8377 33.745 62.3002 32.4025 61.2152 32.0075C61.1085 31.9691 61.0552 32.0066 61.0552 32.12L61.0527 35.0075C61.0519 35.0557 61.0678 35.1029 61.0977 35.1415C61.1276 35.18 61.1699 35.2077 61.2177 35.22C63.291 35.765 65.3727 35.8816 67.4627 35.57C72.3727 34.84 73.2977 28.64 68.2852 27.2175C67.4702 26.9875 66.1052 26.9675 65.3677 26.7025ZM98.8127 21.8275C98.8128 21.8165 98.8105 21.8056 98.806 21.7956C98.8015 21.7855 98.7948 21.7766 98.7865 21.7695C98.7781 21.7623 98.7683 21.7571 98.7577 21.7542C98.7471 21.7512 98.736 21.7506 98.7252 21.7525L95.2452 22.36C95.2279 22.3629 95.2122 22.3717 95.2008 22.385C95.1894 22.3982 95.183 22.415 95.1827 22.4325V35.4875C95.1827 35.5074 95.1906 35.5264 95.2046 35.5405C95.2187 35.5546 95.2378 35.5625 95.2577 35.5625H98.7377C98.7575 35.5625 98.7766 35.5546 98.7907 35.5405C98.8048 35.5264 98.8127 35.5074 98.8127 35.4875V21.8275ZM104.063 21.8325C104.063 21.8212 104.06 21.8099 104.056 21.7996C104.051 21.7893 104.044 21.7801 104.036 21.7727C104.027 21.7654 104.017 21.7599 104.006 21.7569C103.995 21.7538 103.984 21.7532 103.973 21.755L100.505 22.3575C100.487 22.3604 100.471 22.3695 100.459 22.3832C100.447 22.3969 100.441 22.4144 100.44 22.4325V35.485C100.44 35.5055 100.448 35.5252 100.463 35.5398C100.477 35.5543 100.497 35.5625 100.518 35.5625H103.985C104.006 35.5625 104.025 35.5543 104.04 35.5398C104.054 35.5252 104.063 35.5055 104.063 35.485V21.8325ZM76.2152 28.745L76.2052 21.92C76.2052 21.81 76.151 21.765 76.0427 21.785L72.6352 22.445C72.5418 22.4633 72.4952 22.52 72.4952 22.615V35.435C72.4952 35.52 72.5377 35.5625 72.6227 35.5625H76.0502C76.1652 35.5625 76.2227 35.5041 76.2227 35.3875L76.2102 32C76.2085 31.6566 76.2902 31.6358 76.4552 31.9375C77.0518 33.0408 77.4927 34.2066 77.7777 35.435C77.7861 35.4711 77.8065 35.5034 77.8355 35.5265C77.8645 35.5497 77.9005 35.5623 77.9377 35.5625H82.1802C82.2818 35.5625 82.316 35.5141 82.2827 35.4175C81.6777 33.7091 80.9177 32.0725 80.0027 30.5075C79.9543 30.4225 79.9593 30.3408 80.0177 30.2625C81.091 28.8358 81.9185 27.2775 82.5002 25.5875C82.5066 25.5689 82.5084 25.549 82.5056 25.5296C82.5027 25.5101 82.4952 25.4916 82.4836 25.4757C82.4721 25.4598 82.4569 25.4468 82.4394 25.438C82.4218 25.4292 82.4023 25.4247 82.3827 25.425L78.3802 25.4225C78.3002 25.4225 78.2452 25.46 78.2152 25.535C77.7618 26.7216 77.1343 27.8058 76.3327 28.7875C76.2543 28.8825 76.2152 28.8683 76.2152 28.745ZM86.7427 30.315C86.7677 28.965 87.4277 28.275 88.8327 28.35C88.9443 28.3566 89.0002 28.3041 89.0002 28.1925V25.44C89.0002 25.3533 88.956 25.3075 88.8677 25.3025C86.7702 25.1975 84.4652 25.64 83.4952 27.635C83.2035 28.2366 83.046 29.2483 83.0227 30.67C82.9977 32.2583 82.9985 33.8525 83.0252 35.4525C83.0252 35.5258 83.0627 35.5625 83.1377 35.5625H86.5577C86.6393 35.5625 86.6802 35.5216 86.6802 35.44C86.6902 33.7266 86.711 32.0183 86.7427 30.315ZM93.6927 25.5175C93.6927 25.4969 93.6845 25.4772 93.67 25.4627C93.6554 25.4481 93.6357 25.44 93.6152 25.44H90.1402C90.1196 25.44 90.0999 25.4481 90.0854 25.4627C90.0708 25.4772 90.0627 25.4969 90.0627 25.5175V35.4825C90.0627 35.503 90.0708 35.5227 90.0854 35.5373C90.0999 35.5518 90.1196 35.56 90.1402 35.56H93.6152C93.6357 35.56 93.6554 35.5518 93.67 35.5373C93.6845 35.5227 93.6927 35.503 93.6927 35.4825V25.5175Z" fill="#862165"/>
<path d="M91.8748 24.4899C92.8607 24.4899 93.6599 23.6908 93.6599 22.7049C93.6599 21.7191 92.8607 20.9199 91.8748 20.9199C90.889 20.9199 90.0898 21.7191 90.0898 22.7049C90.0898 23.6908 90.889 24.4899 91.8748 24.4899Z" fill="white"/>
<path d="M65.8175 24.7748C64.825 24.8798 64.32 26.3223 65.3675 26.7023C66.105 26.9673 67.47 26.9873 68.285 27.2173C73.2975 28.6398 72.3725 34.8398 67.4625 35.5698C65.3725 35.8815 63.2908 35.7648 61.2175 35.2198C61.1697 35.2075 61.1275 35.1798 61.0975 35.1413C61.0676 35.1027 61.0518 35.0555 61.0525 35.0073L61.055 32.1198C61.055 32.0065 61.1083 31.969 61.215 32.0073C62.3 32.4023 67.8375 33.7448 67.37 31.1848C67.2825 30.7073 66.655 30.4648 66.16 30.4248C63.7075 30.2173 61.1075 29.4273 60.8 26.5198C60.565 24.2973 62.1875 22.4473 64.3375 21.9598C66.3958 21.4915 68.605 21.669 70.965 22.4923C71.0333 22.5156 71.0675 22.5631 71.0675 22.6348V25.5023C71.0675 25.6306 71.0083 25.6698 70.89 25.6198C69.1783 24.8781 67.4875 24.5965 65.8175 24.7748Z" fill="white"/>
<path d="M98.8126 21.8275V35.4875C98.8126 35.5074 98.8047 35.5265 98.7906 35.5405C98.7766 35.5546 98.7575 35.5625 98.7376 35.5625H95.2576C95.2377 35.5625 95.2186 35.5546 95.2046 35.5405C95.1905 35.5265 95.1826 35.5074 95.1826 35.4875V22.4325C95.183 22.415 95.1894 22.3982 95.2008 22.385C95.2122 22.3718 95.2279 22.3629 95.2451 22.36L98.7251 21.7525C98.736 21.7507 98.7471 21.7513 98.7577 21.7542C98.7683 21.7571 98.7781 21.7624 98.7864 21.7695C98.7948 21.7767 98.8015 21.7856 98.806 21.7956C98.8105 21.8056 98.8128 21.8165 98.8126 21.8275Z" fill="white"/>
<path d="M104.062 21.8324V35.4849C104.062 35.5055 104.054 35.5252 104.04 35.5397C104.025 35.5543 104.005 35.5624 103.985 35.5624H100.517C100.497 35.5624 100.477 35.5543 100.463 35.5397C100.448 35.5252 100.44 35.5055 100.44 35.4849V22.4324C100.44 22.4143 100.447 22.3969 100.459 22.3832C100.471 22.3694 100.487 22.3603 100.505 22.3574L103.972 21.7549C103.984 21.7531 103.995 21.7537 104.006 21.7568C104.017 21.7599 104.027 21.7653 104.036 21.7727C104.044 21.7801 104.051 21.7892 104.056 21.7996C104.06 21.8099 104.063 21.8211 104.062 21.8324Z" fill="white"/>
<path d="M76.3326 28.7874C77.1343 27.8057 77.7618 26.7216 78.2151 25.5349C78.2451 25.4599 78.3001 25.4224 78.3801 25.4224L82.3826 25.4249C82.4023 25.4246 82.4217 25.4291 82.4393 25.4379C82.4569 25.4467 82.4721 25.4597 82.4836 25.4756C82.4951 25.4915 82.5026 25.51 82.5055 25.5295C82.5084 25.5489 82.5065 25.5688 82.5001 25.5874C81.9184 27.2774 81.091 28.8357 80.0176 30.2624C79.9593 30.3407 79.9543 30.4224 80.0026 30.5074C80.9176 32.0724 81.6776 33.7091 82.2826 35.4174C82.3159 35.5141 82.2818 35.5624 82.1801 35.5624H77.9376C77.9005 35.5622 77.8645 35.5496 77.8355 35.5264C77.8064 35.5033 77.786 35.471 77.7776 35.4349C77.4926 34.2066 77.0518 33.0407 76.4551 31.9374C76.2901 31.6357 76.2084 31.6566 76.2101 31.9999L76.2226 35.3874C76.2226 35.5041 76.1651 35.5624 76.0501 35.5624H72.6226C72.5376 35.5624 72.4951 35.5199 72.4951 35.4349V22.6149C72.4951 22.5199 72.5418 22.4632 72.6351 22.4449L76.0426 21.7849C76.151 21.7649 76.2051 21.8099 76.2051 21.9199L76.2151 28.7449C76.2151 28.8682 76.2543 28.8824 76.3326 28.7874Z" fill="white"/>
<path d="M88.8325 28.3499C87.4275 28.2749 86.7675 28.9649 86.7425 30.3149C86.7109 32.0182 86.69 33.7266 86.68 35.4399C86.68 35.5216 86.6392 35.5624 86.5575 35.5624H83.1375C83.0625 35.5624 83.025 35.5257 83.025 35.4524C82.9984 33.8524 82.9975 32.2582 83.0225 30.6699C83.0459 29.2482 83.2034 28.2366 83.495 27.6349C84.465 25.6399 86.77 25.1974 88.8675 25.3024C88.9559 25.3074 89 25.3532 89 25.4399V28.1924C89 28.3041 88.9442 28.3566 88.8325 28.3499Z" fill="white"/>
<path d="M93.615 25.4399H90.14C90.0972 25.4399 90.0625 25.4746 90.0625 25.5174V35.4824C90.0625 35.5252 90.0972 35.5599 90.14 35.5599H93.615C93.6578 35.5599 93.6925 35.5252 93.6925 35.4824V25.5174C93.6925 25.4746 93.6578 25.4399 93.615 25.4399Z" fill="white"/>
</svg>
