<svg width="166" height="58" viewBox="0 0 166 58" fill="none" xmlns="http://www.w3.org/2000/svg">
<path d="M81.0224 47.6626C81.0858 47.6709 81.1502 47.6632 81.2093 47.64C81.2684 47.6168 81.3202 47.5789 81.3599 47.5301L99.5449 25.4026C99.7285 25.1795 99.821 24.8953 99.8038 24.6069C99.7866 24.3185 99.6611 24.0473 99.4524 23.8476L93.6624 18.3201C93.4781 18.1439 93.2462 18.0249 92.9949 17.9776L68.1974 13.4276C68.1224 13.4142 68.049 13.4209 67.9774 13.4476C67.309 13.7059 67.0907 14.1409 67.3224 14.7526C71.4849 25.6951 76.2974 36.3876 80.5949 47.2801C80.6849 47.5067 80.8274 47.6342 81.0224 47.6626Z" stroke="#FF8080" stroke-width="2"/>
<path d="M83.545 25.5325C83.5594 25.5445 83.5775 25.551 83.5962 25.551C83.615 25.551 83.6331 25.5445 83.6475 25.5325L90.4925 19.7675C90.5041 19.7577 90.5127 19.7448 90.5173 19.7303C90.5219 19.7158 90.5222 19.7002 90.5183 19.6855C90.5143 19.6709 90.5063 19.6576 90.4951 19.6473C90.4839 19.637 90.47 19.6301 90.455 19.6275L72.5275 16.32C72.5102 16.317 72.4924 16.3199 72.4769 16.328C72.4613 16.3362 72.4489 16.3492 72.4415 16.3652C72.4341 16.3811 72.4322 16.399 72.436 16.4161C72.4398 16.4332 72.4491 16.4487 72.4625 16.46L83.545 25.5325Z" stroke="#FF8080" stroke-width="2"/>
<path d="M70.9449 17.4377C70.9318 17.4264 70.9152 17.4198 70.8979 17.419C70.8805 17.4182 70.8635 17.4233 70.8493 17.4334C70.8352 17.4435 70.8249 17.458 70.82 17.4746C70.8151 17.4913 70.816 17.5091 70.8224 17.5252L80.7999 41.9027C80.8061 41.9193 80.8179 41.9334 80.8332 41.9424C80.8485 41.9514 80.8665 41.9549 80.884 41.9523C80.9016 41.9496 80.9178 41.941 80.9298 41.9279C80.9418 41.9148 80.9489 41.8979 80.9499 41.8802L82.6299 27.3877C82.6312 27.375 82.6294 27.3623 82.6246 27.3505C82.6198 27.3387 82.6122 27.3283 82.6024 27.3202L70.9449 17.4377Z" stroke="#FF8080" stroke-width="2"/>
<path d="M86.42 25.7275C86.4058 25.7391 86.3958 25.7551 86.3917 25.773C86.3876 25.7909 86.3896 25.8097 86.3974 25.8263C86.4051 25.8429 86.4182 25.8565 86.4345 25.8649C86.4508 25.8733 86.4695 25.8759 86.4875 25.8725L96.4625 24.065C96.4777 24.0622 96.4917 24.0552 96.5031 24.0448C96.5145 24.0344 96.5227 24.0211 96.5268 24.0062C96.531 23.9914 96.5309 23.9757 96.5266 23.9609C96.5223 23.9461 96.514 23.9328 96.5025 23.9225L92.8175 20.5225C92.8032 20.509 92.7844 20.501 92.7647 20.5001C92.745 20.4992 92.7256 20.5054 92.71 20.5175L86.42 25.7275Z" stroke="#FF8080" stroke-width="2"/>
<path d="M96.09 26.3428C96.1016 26.3296 96.1088 26.3132 96.1107 26.2958C96.1126 26.2784 96.109 26.2608 96.1006 26.2455C96.0921 26.2302 96.0791 26.2178 96.0633 26.2102C96.0476 26.2025 96.0298 26.2 96.0125 26.2028L84.685 28.0253C84.6668 28.0284 84.6501 28.0375 84.6374 28.051C84.6248 28.0645 84.6169 28.0818 84.615 28.1003L82.9875 41.8828C82.9851 41.9011 82.9888 41.9197 82.9979 41.9358C83.007 41.9518 83.0211 41.9645 83.038 41.9719C83.055 41.9792 83.0739 41.9808 83.0918 41.9765C83.1098 41.9721 83.1258 41.962 83.1375 41.9478L96.09 26.3428Z" stroke="#FF8080" stroke-width="2"/>
<path d="M80.9001 0H85.3076C92.4026 0.695 98.4093 3.44667 103.328 8.255C113.303 18.005 114.985 33.8575 106.948 45.3375C101.448 53.1942 93.7084 57.415 83.7301 58H82.3151C73.7751 57.5967 66.7618 54.3175 61.2751 48.1625C52.2351 38.025 51.5776 22.4625 59.8201 11.59C65.0068 4.75333 72.0334 0.89 80.9001 0ZM81.0226 47.6625C81.0861 47.6709 81.1504 47.6631 81.2095 47.6399C81.2686 47.6167 81.3205 47.5789 81.3601 47.53L99.5451 25.4025C99.7287 25.1794 99.8212 24.8952 99.8041 24.6068C99.7869 24.3185 99.6614 24.0472 99.4526 23.8475L93.6626 18.32C93.4783 18.1438 93.2464 18.0248 92.9951 17.9775L68.1976 13.4275C68.1226 13.4142 68.0493 13.4208 67.9776 13.4475C67.3093 13.7058 67.0909 14.1408 67.3226 14.7525C71.4851 25.695 76.2976 36.3875 80.5951 47.28C80.6851 47.5067 80.8276 47.6342 81.0226 47.6625Z" fill="#FE0101"/>
<path d="M81.0224 47.6626C80.8274 47.6342 80.6849 47.5067 80.5949 47.2801C76.2974 36.3876 71.4849 25.6951 67.3224 14.7526C67.0907 14.1409 67.309 13.7059 67.9774 13.4476C68.049 13.4209 68.1224 13.4142 68.1974 13.4276L92.9949 17.9776C93.2462 18.0249 93.4781 18.1439 93.6624 18.3201L99.4524 23.8476C99.6611 24.0473 99.7866 24.3185 99.8038 24.6069C99.821 24.8953 99.7285 25.1795 99.5449 25.4026L81.3599 47.5301C81.3202 47.5789 81.2684 47.6168 81.2093 47.64C81.1502 47.6632 81.0858 47.6709 81.0224 47.6626ZM83.5449 25.5326C83.5592 25.5446 83.5774 25.5511 83.5961 25.5511C83.6148 25.5511 83.633 25.5446 83.6474 25.5326L90.4924 19.7676C90.504 19.7578 90.5126 19.7449 90.5172 19.7304C90.5218 19.7158 90.5221 19.7003 90.5181 19.6856C90.5142 19.6709 90.5062 19.6577 90.495 19.6474C90.4837 19.6371 90.4698 19.6302 90.4549 19.6276L72.5274 16.3201C72.5101 16.3171 72.4923 16.32 72.4767 16.3281C72.4612 16.3363 72.4488 16.3493 72.4414 16.3652C72.434 16.3812 72.4321 16.3991 72.4358 16.4162C72.4396 16.4333 72.449 16.4487 72.4624 16.4601L83.5449 25.5326ZM70.9449 17.4376C70.9317 17.4263 70.9151 17.4197 70.8978 17.4189C70.8805 17.4181 70.8634 17.4232 70.8493 17.4333C70.8352 17.4434 70.8249 17.4579 70.82 17.4745C70.8151 17.4912 70.8159 17.509 70.8224 17.5251L80.7999 41.9026C80.8061 41.9192 80.8178 41.9333 80.8331 41.9423C80.8484 41.9513 80.8664 41.9548 80.884 41.9522C80.9016 41.9495 80.9177 41.9409 80.9297 41.9278C80.9417 41.9147 80.9488 41.8978 80.9499 41.8801L82.6299 27.3876C82.6312 27.3749 82.6293 27.3622 82.6245 27.3504C82.6197 27.3386 82.6121 27.3282 82.6024 27.3201L70.9449 17.4376ZM86.4199 25.7276C86.4056 25.7392 86.3957 25.7552 86.3916 25.7731C86.3875 25.7909 86.3894 25.8097 86.3972 25.8263C86.4049 25.843 86.418 25.8565 86.4343 25.8649C86.4507 25.8733 86.4693 25.876 86.4874 25.8726L96.4624 24.0651C96.4775 24.0622 96.4915 24.0552 96.5029 24.0448C96.5143 24.0345 96.5225 24.0211 96.5267 24.0063C96.5308 23.9914 96.5308 23.9757 96.5265 23.9609C96.5222 23.9461 96.5138 23.9329 96.5024 23.9226L92.8174 20.5226C92.803 20.509 92.7843 20.501 92.7645 20.5001C92.7448 20.4992 92.7254 20.5054 92.7099 20.5176L86.4199 25.7276ZM96.0899 26.3426C96.1014 26.3294 96.1086 26.313 96.1105 26.2956C96.1124 26.2782 96.1088 26.2606 96.1004 26.2453C96.0919 26.23 96.0789 26.2176 96.0631 26.21C96.0474 26.2024 96.0296 26.1998 96.0124 26.2026L84.6849 28.0251C84.6666 28.0282 84.6499 28.0373 84.6373 28.0508C84.6246 28.0644 84.6168 28.0816 84.6149 28.1001L82.9874 41.8826C82.9849 41.9009 82.9886 41.9195 82.9977 41.9356C83.0068 41.9516 83.0209 41.9643 83.0378 41.9717C83.0548 41.979 83.0737 41.9806 83.0916 41.9763C83.1096 41.9719 83.1256 41.9619 83.1374 41.9476L96.0899 26.3426Z" fill="#FFFFFE"/>
<path d="M83.545 25.5325L72.4625 16.46C72.4491 16.4487 72.4398 16.4332 72.436 16.4161C72.4322 16.399 72.4341 16.3811 72.4415 16.3652C72.4489 16.3492 72.4613 16.3362 72.4769 16.328C72.4924 16.3199 72.5102 16.317 72.5275 16.32L90.455 19.6275C90.47 19.6301 90.4839 19.637 90.4951 19.6473C90.5063 19.6576 90.5143 19.6709 90.5183 19.6855C90.5222 19.7002 90.5219 19.7158 90.5173 19.7303C90.5127 19.7448 90.5041 19.7577 90.4925 19.7675L83.6475 25.5325C83.6331 25.5445 83.615 25.551 83.5962 25.551C83.5775 25.551 83.5594 25.5445 83.545 25.5325Z" fill="#FE0101"/>
<path d="M70.9449 17.4377L82.6024 27.3202C82.6122 27.3283 82.6198 27.3387 82.6246 27.3505C82.6294 27.3623 82.6312 27.375 82.6299 27.3877L80.9499 41.8802C80.9489 41.8979 80.9418 41.9148 80.9298 41.9279C80.9178 41.941 80.9016 41.9496 80.884 41.9523C80.8665 41.9549 80.8485 41.9514 80.8332 41.9424C80.8179 41.9334 80.8061 41.9193 80.7999 41.9027L70.8224 17.5252C70.816 17.5091 70.8151 17.4913 70.82 17.4746C70.8249 17.458 70.8352 17.4435 70.8493 17.4334C70.8635 17.4233 70.8805 17.4182 70.8979 17.419C70.9152 17.4198 70.9318 17.4264 70.9449 17.4377Z" fill="#FE0101"/>
<path d="M86.42 25.7275L92.71 20.5175C92.7256 20.5054 92.745 20.4992 92.7647 20.5001C92.7844 20.501 92.8032 20.509 92.8175 20.5225L96.5025 23.9225C96.514 23.9328 96.5223 23.9461 96.5266 23.9609C96.5309 23.9757 96.531 23.9914 96.5268 24.0062C96.5227 24.0211 96.5145 24.0344 96.5031 24.0448C96.4917 24.0552 96.4777 24.0622 96.4625 24.065L86.4875 25.8725C86.4695 25.8759 86.4508 25.8733 86.4345 25.8649C86.4182 25.8565 86.4051 25.8429 86.3974 25.8263C86.3896 25.8097 86.3876 25.7909 86.3917 25.773C86.3958 25.7551 86.4058 25.7391 86.42 25.7275Z" fill="#FE0101"/>
<path d="M96.09 26.3423L83.1375 41.9473C83.1258 41.9616 83.1098 41.9716 83.0918 41.976C83.0739 41.9803 83.055 41.9787 83.038 41.9714C83.0211 41.964 83.007 41.9514 82.9979 41.9353C82.9888 41.9192 82.9851 41.9006 82.9875 41.8823L84.615 28.0998C84.6169 28.0814 84.6248 28.0641 84.6374 28.0505C84.6501 28.037 84.6668 28.0279 84.685 28.0248L96.0125 26.2023C96.0298 26.1995 96.0476 26.2021 96.0633 26.2097C96.0791 26.2174 96.0921 26.2297 96.1006 26.245C96.109 26.2603 96.1126 26.2779 96.1107 26.2953C96.1088 26.3127 96.1016 26.3291 96.09 26.3423Z" fill="#FE0101"/>
</svg>
