<svg width="166" height="58" viewBox="0 0 166 58" fill="none" xmlns="http://www.w3.org/2000/svg">
<path d="M23.2225 26.9849C23.3392 27.3116 23.4534 27.3108 23.565 26.9824L27.8575 14.2924C27.9142 14.1258 28.03 14.0433 28.205 14.0449L30.2425 14.0499C30.4125 14.0516 30.47 14.1333 30.415 14.2949C28.575 19.5916 26.7392 24.8691 24.9075 30.1274C24.7359 30.6224 24.6475 31.1299 24.6425 31.6499C24.6192 34.0433 24.6125 36.4324 24.6225 38.8174C24.6225 38.8513 24.6094 38.8837 24.5859 38.9076C24.5625 38.9315 24.5307 38.9449 24.4975 38.9449L22.2425 38.9474C22.1409 38.9474 22.09 38.8966 22.09 38.7949C22.1084 36.3583 22.0967 33.9258 22.055 31.4974C22.0467 30.9958 21.9542 30.5099 21.7775 30.0399C20.0725 25.5233 18.3892 21.0116 16.7275 16.5049C16.6959 16.4183 16.7259 16.3749 16.8175 16.3749L19.3075 16.3699C19.4025 16.3699 19.4659 16.4141 19.4975 16.5024L23.2225 26.9849Z" fill="#ED2B24"/>
<path d="M59.575 23.1227L59.5725 16.5102C59.5725 16.4656 59.5901 16.4227 59.6214 16.3909C59.6527 16.3591 59.6953 16.3409 59.74 16.3402L61.94 16.3252C62.1 16.3236 62.18 16.4036 62.18 16.5652L62.1775 38.8502C62.1775 38.9519 62.1267 39.0027 62.025 39.0027L60.3375 38.9977C60.2325 38.9977 60.1758 38.9452 60.1675 38.8402L60.0825 37.8852C60.0692 37.7319 60.0108 37.7119 59.9075 37.8252C58.8642 38.9669 57.6433 39.4161 56.245 39.1727C51.76 38.3977 51.9025 31.9902 52.3875 28.6277C52.9025 25.0552 55.2875 21.5152 59.455 23.2027C59.535 23.2361 59.575 23.2094 59.575 23.1227ZM55.895 26.2352C54.71 28.3177 54.8025 31.2002 55.025 33.5602C55.1725 35.1527 55.6875 37.3852 57.8425 37.0402C58.775 36.8902 59.5675 36.3227 59.57 35.2927C59.575 32.1744 59.5842 29.0561 59.5975 25.9377C59.5992 25.6711 59.45 25.4569 59.15 25.2952C57.755 24.5452 56.675 24.8652 55.895 26.2352Z" fill="white"/>
<path d="M102.46 19.2873C102.232 20.7273 101.939 22.154 101.58 23.5673C100.58 27.5107 99.5743 31.4523 98.5627 35.3923C98.5427 35.469 98.4935 35.5057 98.4152 35.5023L97.3827 35.4773C97.276 35.4757 97.2093 35.4223 97.1827 35.3173C96.0193 30.6923 94.8868 26.0632 93.7852 21.4298C93.6485 20.8515 93.5277 20.2765 93.4227 19.7048C93.416 19.6698 93.4118 19.6698 93.4102 19.7048C93.2135 26.0782 92.941 32.4632 92.5927 38.8598C92.586 38.9565 92.5352 39.004 92.4402 39.0023L91.3777 38.9998C91.3577 38.9999 91.3378 38.9958 91.3194 38.9879C91.301 38.98 91.2844 38.9685 91.2706 38.954C91.2568 38.9395 91.2461 38.9223 91.2392 38.9036C91.2322 38.8848 91.2292 38.8648 91.2302 38.8448L92.1952 16.6548C92.1984 16.5679 92.2353 16.4856 92.2982 16.425C92.3611 16.3645 92.4451 16.3304 92.5327 16.3298L93.9377 16.3198C94.0143 16.3198 94.061 16.3565 94.0777 16.4298C95.3852 21.8973 96.8177 27.3548 97.9677 32.8548C97.9673 32.8586 97.9685 32.862 97.9708 32.8644C97.9731 32.8668 97.9765 32.868 97.9802 32.8677C97.9838 32.8673 97.9874 32.8655 97.9903 32.8627C97.9931 32.8598 97.9948 32.8561 97.9952 32.8523C98.0735 32.2373 98.1877 31.6223 98.3377 31.0073C99.5193 26.154 100.713 21.3023 101.918 16.4523C101.927 16.4144 101.949 16.3808 101.98 16.3568C102.011 16.3328 102.049 16.3198 102.088 16.3198H103.633C103.683 16.3198 103.732 16.3392 103.769 16.3741C103.806 16.409 103.828 16.4567 103.83 16.5073L104.8 38.8148C104.807 38.9382 104.748 38.9998 104.623 38.9998H103.383C103.335 38.9999 103.288 38.9815 103.254 38.9485C103.219 38.9155 103.198 38.8703 103.195 38.8223C102.924 33.254 102.688 27.7365 102.488 22.2698C102.458 21.4123 102.518 20.3048 102.535 19.2923C102.536 19.2824 102.533 19.2726 102.526 19.2651C102.519 19.2576 102.51 19.253 102.5 19.2523C102.49 19.2517 102.48 19.255 102.473 19.2615C102.465 19.2681 102.461 19.2774 102.46 19.2873Z" fill="white"/>
<path d="M115.885 36.4526C114.52 39.7776 110.7 40.3701 108.593 37.3376C106.43 34.2276 106.228 23.1301 111.688 22.7301C114.445 22.5301 115.92 24.6151 116.528 26.9901C117.359 30.2301 117.145 33.3843 115.885 36.4526ZM115.218 33.4051C115.503 31.0226 115.718 23.9551 111.95 24.0601C109.923 24.1176 108.963 27.1376 108.86 28.8151C108.685 31.7401 108.523 34.7501 110.208 36.9601C110.808 37.7476 111.71 38.1076 112.638 37.8351C114.345 37.3351 115.028 35.0176 115.218 33.4051Z" fill="white"/>
<path d="M121.15 25.2824C121.9 24.2824 122.288 23.5274 123.498 22.9974C124.096 22.7341 124.757 22.6457 125.48 22.7324C128.23 23.0649 128.363 25.2399 128.375 27.6924C128.39 31.4007 128.389 35.1107 128.373 38.8224C128.373 38.8695 128.354 38.9146 128.321 38.9479C128.287 38.9812 128.242 38.9999 128.195 38.9999L126.883 39.0024C126.789 39.0024 126.743 38.9557 126.743 38.8624C126.749 34.9391 126.747 31.0191 126.735 27.1024C126.73 25.4049 126.503 23.9974 124.51 24.0574C123.118 24.0974 122.053 25.4674 121.488 26.6049C121.294 26.9916 121.198 27.4616 121.198 28.0149C121.194 31.6349 121.192 35.2549 121.19 38.8749C121.19 38.9094 121.177 38.9424 121.153 38.9668C121.129 38.9912 121.096 39.0049 121.063 39.0049L119.825 38.9999C119.763 38.9992 119.703 38.9739 119.659 38.9294C119.615 38.885 119.59 38.8249 119.59 38.7624L119.578 23.2074C119.578 23.151 119.6 23.097 119.641 23.0571C119.681 23.0173 119.736 22.9949 119.793 22.9949L120.888 23.0024C120.931 23.003 120.972 23.0207 121.003 23.0516C121.033 23.0825 121.05 23.1241 121.05 23.1674L121.058 25.2499C121.059 25.3532 121.09 25.3641 121.15 25.2824Z" fill="white"/>
<path d="M132.413 31.4126C132.33 33.8276 132.958 38.5401 136.498 37.8726C137.511 37.6809 138.33 37.1542 138.955 36.2926C139.043 36.1709 139.113 36.1809 139.165 36.3226L139.538 37.3751C139.574 37.4751 139.558 37.5651 139.49 37.6451C138.635 38.6501 137.493 39.2001 136.063 39.2951C130.358 39.6751 130.498 31.1751 131.12 27.6876C131.548 25.3026 133.038 22.4001 135.97 22.7076C139.59 23.0876 139.9 28.4976 139.578 31.1426C139.572 31.1903 139.549 31.2342 139.514 31.266C139.478 31.2979 139.433 31.3153 139.385 31.3151H132.513C132.448 31.3151 132.414 31.3476 132.413 31.4126ZM132.503 29.9926L138.09 30.1401C138.098 30.1404 138.106 30.1392 138.113 30.1364C138.12 30.1337 138.127 30.1295 138.132 30.1241C138.138 30.1188 138.143 30.1123 138.146 30.1052C138.149 30.098 138.15 30.0903 138.15 30.0826L138.168 29.3951C138.186 28.7046 138.132 28.019 138.008 27.3774C137.885 26.7358 137.694 26.1508 137.448 25.6558C137.202 25.1608 136.904 24.7656 136.573 24.4926C136.241 24.2197 135.882 24.0744 135.515 24.0651L135.39 24.0626C134.651 24.044 133.927 24.5795 133.379 25.5514C132.83 26.5232 132.502 27.8518 132.465 29.2451L132.448 29.9351C132.448 29.9499 132.453 29.9642 132.464 29.9749C132.474 29.9856 132.488 29.9919 132.503 29.9926Z" fill="white"/>
<path d="M35.5873 37.8875C34.5206 39.0125 33.274 39.4391 31.8473 39.1675C28.3348 38.495 28.0623 33.1225 29.8098 30.7725C31.0623 29.0825 33.1023 28.76 35.1448 28.705C35.2198 28.7033 35.2623 28.6658 35.2723 28.5925C35.3706 27.8791 35.3406 27.1858 35.1823 26.5125C34.5523 23.82 31.5898 25.0125 30.3173 26.2425C30.2987 26.2601 30.2758 26.2725 30.2509 26.2786C30.2261 26.2847 30.2001 26.2841 30.1757 26.277C30.1513 26.2699 30.1294 26.2564 30.1121 26.2381C30.0948 26.2197 30.0828 26.1971 30.0773 26.1725L29.6048 24.195C29.596 24.1575 29.5989 24.1181 29.6132 24.0823C29.6275 24.0465 29.6525 24.016 29.6848 23.995C31.4698 22.7783 33.3523 22.4658 35.3323 23.0575C36.8573 23.5125 37.7448 24.995 37.8073 26.5C37.9523 29.965 37.6123 34.5425 38.1123 38.875C38.1223 38.96 38.0848 39.0025 37.9998 39.0025L36.0998 39C35.9998 39 35.9398 38.9516 35.9198 38.855L35.7298 37.9275C35.727 37.9127 35.7201 37.8991 35.7099 37.888C35.6997 37.877 35.6865 37.869 35.6719 37.8649C35.6572 37.8608 35.6416 37.8607 35.6267 37.8647C35.6118 37.8687 35.5982 37.8765 35.5873 37.8875ZM31.4698 33.47C31.3465 34.7233 31.5623 35.8 32.1173 36.7C32.1739 36.7888 32.2596 36.8551 32.3598 36.8875C33.5715 37.2741 34.5298 36.9558 35.2348 35.9325C35.2831 35.8625 35.3073 35.785 35.3073 35.7L35.3098 30.82C35.3098 30.7466 35.2731 30.7091 35.1998 30.7075C33.1623 30.6575 31.6898 31.19 31.4698 33.47Z" fill="white"/>
<path d="M43.5376 24.2275C44.5609 23.1125 45.7817 22.6442 47.2001 22.8225C49.6151 23.1275 49.8676 25.095 49.8726 27.0825C49.8826 30.9992 49.8817 34.9159 49.8701 38.8325C49.8694 38.8768 49.8516 38.919 49.8203 38.9503C49.789 38.9815 49.7468 38.9994 49.7026 39L47.4876 39.005C47.4246 39.005 47.3642 38.98 47.3196 38.9355C47.2751 38.8909 47.2501 38.8305 47.2501 38.7675C47.2534 34.6042 47.2501 30.4209 47.2401 26.2175C47.2401 25.7425 47.0367 25.4167 46.6301 25.24C45.4576 24.735 44.1001 25.57 43.4751 26.5575C43.4384 26.6159 43.4201 26.68 43.4201 26.75L43.4176 38.855C43.4176 38.8941 43.402 38.9317 43.3744 38.9593C43.3467 38.987 43.3092 39.0025 43.2701 39.0025L40.9376 39C40.9037 39 40.8713 38.9869 40.8474 38.9634C40.8235 38.94 40.8101 38.9082 40.8101 38.875L40.8126 23.105C40.8126 23.0067 40.8609 22.9575 40.9576 22.9575H43.2776C43.3659 22.9575 43.4109 23.0017 43.4126 23.09L43.4326 24.1875C43.4359 24.2892 43.4709 24.3025 43.5376 24.2275Z" fill="white"/>
<path d="M67.1898 31.7502C67.0873 33.1752 67.4023 35.5077 68.5498 36.4602C69.7973 37.4977 71.7248 36.8877 72.8923 36.0252C72.9201 36.0044 72.9525 35.9907 72.9868 35.9854C73.0211 35.98 73.0562 35.9831 73.089 35.9945C73.1218 36.0058 73.1514 36.025 73.175 36.0504C73.1987 36.0758 73.2158 36.1066 73.2248 36.1402L73.6848 37.8152C73.6943 37.8503 73.693 37.8875 73.6809 37.9219C73.6689 37.9563 73.6467 37.9862 73.6173 38.0077C72.7606 38.6227 71.9714 38.9877 71.2498 39.1027C66.3773 39.8702 64.5373 36.3352 64.4798 32.1302C64.4423 29.1327 64.8323 23.1102 68.9298 22.7827C73.6698 22.4052 73.9548 28.2177 73.7023 31.5152C73.6973 31.5918 73.6556 31.6302 73.5773 31.6302H67.3173C67.2373 31.6302 67.1948 31.6702 67.1898 31.7502ZM67.2773 29.4277L71.0723 29.5127C71.0798 29.513 71.0874 29.5118 71.0945 29.5093C71.1016 29.5067 71.1081 29.5027 71.1137 29.4976C71.1193 29.4925 71.1238 29.4863 71.127 29.4795C71.1302 29.4726 71.132 29.4652 71.1323 29.4577L71.1423 28.9727C71.1666 27.9049 71.003 26.8765 70.6875 26.1138C70.372 25.351 69.9304 24.9162 69.4598 24.9052L69.0998 24.8977C68.8667 24.8919 68.6334 24.9904 68.4134 25.1876C68.1933 25.3847 67.9908 25.6767 67.8174 26.0468C67.644 26.4169 67.503 26.8578 67.4026 27.3444C67.3022 27.831 67.2443 28.3537 67.2323 28.8827L67.2223 29.3677C67.2219 29.3752 67.2231 29.3828 67.2257 29.3899C67.2283 29.397 67.2322 29.4035 67.2373 29.4091C67.2424 29.4146 67.2486 29.4191 67.2555 29.4223C67.2623 29.4255 67.2697 29.4273 67.2773 29.4277Z" fill="white"/>
<path d="M145.885 36.6276L149.053 23.1176C149.061 23.0828 149.081 23.0518 149.109 23.0296C149.137 23.0074 149.172 22.9952 149.208 22.9951L150.203 23.0001C150.431 23.0018 150.518 23.1134 150.465 23.3351C149.098 28.9468 147.746 34.4943 146.408 39.9776C145.878 42.1526 144.633 44.5726 141.885 43.9476C141.807 43.9293 141.764 43.8801 141.758 43.8001L141.67 42.6951C141.669 42.6727 141.672 42.6501 141.682 42.6296C141.691 42.609 141.705 42.5911 141.722 42.5774C141.74 42.5637 141.761 42.5548 141.783 42.5513C141.805 42.5478 141.827 42.55 141.848 42.5576C143.59 43.1451 144.588 41.4926 144.903 40.0451C144.996 39.6168 144.977 39.1301 144.845 38.5851C143.6 33.4418 142.363 28.2968 141.135 23.1501C141.11 23.0501 141.15 23.0001 141.255 23.0001L142.445 22.9976C142.517 22.9977 142.587 23.0219 142.644 23.0663C142.7 23.1107 142.74 23.1728 142.758 23.2426C143.679 27.0259 144.585 30.7635 145.475 34.4551C145.63 35.0951 145.708 35.9051 145.86 36.6276C145.86 36.6309 145.861 36.6341 145.864 36.6365C145.866 36.6388 145.869 36.6401 145.873 36.6401C145.876 36.6401 145.879 36.6388 145.881 36.6365C145.884 36.6341 145.885 36.6309 145.885 36.6276Z" fill="white"/>
<path d="M79.6674 32.7551L77.4174 38.9476C77.4118 38.963 77.4016 38.9762 77.3882 38.9856C77.3748 38.995 77.3588 39.0001 77.3424 39.0001L74.9499 39.0026C74.937 39.0023 74.9243 38.9989 74.9129 38.9926C74.9016 38.9864 74.8919 38.9775 74.8848 38.9666C74.8777 38.9558 74.8733 38.9434 74.872 38.9305C74.8707 38.9176 74.8726 38.9046 74.8774 38.8926L78.1549 30.7376C78.1627 30.7184 78.1627 30.6968 78.1549 30.6776L75.1899 23.1101C75.185 23.0979 75.1831 23.0846 75.1845 23.0715C75.1859 23.0585 75.1906 23.0459 75.198 23.035C75.2054 23.0241 75.2154 23.0153 75.2271 23.0092C75.2388 23.0031 75.2518 23 75.2649 23.0001L77.7724 22.9976C77.7892 22.9971 77.8057 23.0019 77.8197 23.0113C77.8336 23.0207 77.8442 23.0343 77.8499 23.0501L79.7724 28.4451C79.7781 28.4604 79.7883 28.4736 79.8017 28.4829C79.8152 28.4923 79.8311 28.4973 79.8474 28.4973C79.8638 28.4973 79.8797 28.4923 79.8931 28.4829C79.9065 28.4736 79.9167 28.4604 79.9224 28.4451L81.9424 23.0501C81.9481 23.0347 81.9583 23.0214 81.9717 23.0121C81.9851 23.0027 82.0011 22.9976 82.0174 22.9976H84.3774C84.3906 22.9975 84.4036 23.0006 84.4153 23.0067C84.427 23.0128 84.4369 23.0216 84.4444 23.0325C84.4518 23.0434 84.4564 23.056 84.4578 23.069C84.4592 23.0821 84.4574 23.0954 84.4524 23.1076L81.5249 30.4626C81.5171 30.4818 81.5171 30.5034 81.5249 30.5226L84.8024 38.8901C84.8074 38.9023 84.8092 38.9155 84.8078 38.9286C84.8064 38.9417 84.8018 38.9543 84.7944 38.9652C84.7869 38.976 84.777 38.9849 84.7653 38.991C84.7536 38.9971 84.7406 39.0002 84.7274 39.0001H82.2124C82.1961 39.0001 82.1801 38.995 82.1667 38.9856C82.1533 38.9762 82.1431 38.963 82.1374 38.9476L79.8174 32.7526C79.8115 32.7374 79.801 32.7243 79.7875 32.7152C79.7739 32.7061 79.7579 32.7014 79.7416 32.7017C79.7252 32.7019 79.7094 32.7072 79.6961 32.7168C79.6829 32.7263 79.6729 32.7397 79.6674 32.7551Z" fill="white"/>
</svg>
