<svg width="24" height="24" viewBox="0 0 24 24" fill="none" xmlns="http://www.w3.org/2000/svg">
<path d="M20.25 4.125H3.75C3.25272 4.125 2.77581 4.32254 2.42418 4.67417C2.07255 5.02581 1.875 5.50272 1.875 6V21C1.8735 21.3571 1.97492 21.707 2.16712 22.0079C2.35932 22.3089 2.63416 22.5481 2.95875 22.6969C3.20792 22.8135 3.47957 22.8743 3.75469 22.875C4.19496 22.8739 4.62066 22.7171 4.95656 22.4325L4.97438 22.4175L7.875 19.875H20.25C20.7473 19.875 21.2242 19.6775 21.5758 19.3258C21.9275 18.9742 22.125 18.4973 22.125 18V6C22.125 5.50272 21.9275 5.02581 21.5758 4.67417C21.2242 4.32254 20.7473 4.125 20.25 4.125ZM19.875 17.625H7.73438C7.29297 17.625 6.86571 17.7807 6.52781 18.0647L6.51 18.0797L4.125 20.1694V6.375H19.875V17.625ZM7.875 10.125C7.875 9.82663 7.99353 9.54048 8.20451 9.3295C8.41548 9.11853 8.70163 9 9 9H15C15.2984 9 15.5845 9.11853 15.7955 9.3295C16.0065 9.54048 16.125 9.82663 16.125 10.125C16.125 10.4234 16.0065 10.7095 15.7955 10.9205C15.5845 11.1315 15.2984 11.25 15 11.25H9C8.70163 11.25 8.41548 11.1315 8.20451 10.9205C7.99353 10.7095 7.875 10.4234 7.875 10.125ZM7.875 13.875C7.875 13.5766 7.99353 13.2905 8.20451 13.0795C8.41548 12.8685 8.70163 12.75 9 12.75H15C15.2984 12.75 15.5845 12.8685 15.7955 13.0795C16.0065 13.2905 16.125 13.5766 16.125 13.875C16.125 14.1734 16.0065 14.4595 15.7955 14.6705C15.5845 14.8815 15.2984 15 15 15H9C8.70163 15 8.41548 14.8815 8.20451 14.6705C7.99353 14.4595 7.875 14.1734 7.875 13.875Z" fill="#FCA311"/>
</svg>
