<svg width="24" height="24" viewBox="0 0 24 24" fill="none" xmlns="http://www.w3.org/2000/svg">
<path d="M23.1056 6.85973C22.881 6.66284 22.6027 6.53749 22.3064 6.49974C22.0101 6.46199 21.7093 6.51357 21.4425 6.64785L17.0456 8.83973L13.2956 2.60629C13.1613 2.38325 12.9716 2.19874 12.7449 2.07065C12.5182 1.94256 12.2622 1.87524 12.0019 1.87524C11.7415 1.87524 11.4855 1.94256 11.2589 2.07065C11.0322 2.19874 10.8425 2.38325 10.7081 2.60629L6.95812 8.83973L2.56031 6.64879C2.29377 6.51564 1.9938 6.46436 1.69817 6.50139C1.40254 6.53842 1.12448 6.66212 0.899023 6.8569C0.673568 7.05168 0.510802 7.30883 0.43123 7.59594C0.351658 7.88306 0.35884 8.18731 0.45187 8.47035L3.92062 19.0969C3.97286 19.257 4.06038 19.4033 4.17672 19.5251C4.29306 19.6469 4.43525 19.7409 4.5928 19.8004C4.75035 19.8599 4.91924 19.8832 5.08702 19.8687C5.2548 19.8542 5.41718 19.8022 5.56218 19.7166C5.58468 19.7035 7.91156 18.375 12 18.375C16.0884 18.375 18.4153 19.7054 18.4331 19.7157C18.5781 19.8024 18.7408 19.8554 18.9091 19.8706C19.0774 19.8859 19.247 19.863 19.4052 19.8038C19.5635 19.7445 19.7063 19.6504 19.8232 19.5283C19.9401 19.4063 20.028 19.2595 20.0803 19.0988L23.5491 8.47785C23.6448 8.19466 23.6537 7.88931 23.5747 7.60099C23.4957 7.31268 23.3324 7.05455 23.1056 6.85973ZM18.3309 17.205C17.0794 16.725 14.925 16.125 12 16.125C9.075 16.125 6.92062 16.7269 5.66906 17.2069L3.13781 9.45285L6.56249 11.1563C6.90285 11.3243 7.29378 11.3586 7.65821 11.2526C8.02264 11.1465 8.33413 10.9078 8.53124 10.5835L12 4.81879L15.4687 10.5844C15.6659 10.9088 15.9774 11.1474 16.3419 11.2533C16.7064 11.3592 17.0973 11.3246 17.4375 11.1563L20.8612 9.45004L18.3309 17.205Z" fill="#FCA311"/>
</svg>
