<svg width="24" height="24" viewBox="0 0 24 24" fill="none" xmlns="http://www.w3.org/2000/svg">
<path d="M12 1.875C9.99747 1.875 8.0399 2.46882 6.37486 3.58137C4.70981 4.69392 3.41206 6.27523 2.64572 8.12533C1.87939 9.97543 1.67888 12.0112 2.06955 13.9753C2.46023 15.9393 3.42454 17.7435 4.84055 19.1595C6.25656 20.5755 8.06066 21.5398 10.0247 21.9305C11.9888 22.3211 14.0246 22.1206 15.8747 21.3543C17.7248 20.5879 19.3061 19.2902 20.4186 17.6251C21.5312 15.9601 22.125 14.0025 22.125 12C22.122 9.3156 21.0543 6.74199 19.1562 4.84383C17.258 2.94567 14.6844 1.87798 12 1.875ZM12 15.375C11.3325 15.375 10.68 15.1771 10.125 14.8062C9.56994 14.4354 9.13736 13.9083 8.88191 13.2916C8.62646 12.6749 8.55963 11.9963 8.68985 11.3416C8.82008 10.6869 9.14152 10.0855 9.61352 9.61351C10.0855 9.14151 10.6869 8.82007 11.3416 8.68985C11.9963 8.55962 12.6749 8.62646 13.2916 8.88191C13.9083 9.13735 14.4354 9.56993 14.8062 10.125C15.1771 10.68 15.375 11.3325 15.375 12C15.375 12.8951 15.0194 13.7535 14.3865 14.3865C13.7536 15.0194 12.8951 15.375 12 15.375ZM15.0994 7.3125C14.5006 6.91301 13.8301 6.63318 13.125 6.48844V4.20656C14.4273 4.39354 15.6615 4.90554 16.7138 5.69531L15.0994 7.3125ZM10.875 6.48844C10.1699 6.63318 9.49943 6.91301 8.90063 7.3125L7.28625 5.69531C8.33849 4.90554 9.57271 4.39354 10.875 4.20656V6.48844ZM7.3125 8.90063C6.91302 9.49943 6.63319 10.1699 6.48844 10.875H4.20657C4.3937 9.57275 4.90569 8.33857 5.69532 7.28625L7.3125 8.90063ZM6.48844 13.125C6.63319 13.8301 6.91302 14.5006 7.3125 15.0994L5.69532 16.7137C4.90569 15.6614 4.3937 14.4273 4.20657 13.125H6.48844ZM8.90063 16.6875C9.49943 17.087 10.1699 17.3668 10.875 17.5116V19.7934C9.57271 19.6065 8.33849 19.0945 7.28625 18.3047L8.90063 16.6875ZM13.125 17.5116C13.8301 17.3668 14.5006 17.087 15.0994 16.6875L16.7138 18.3019C15.6618 19.0926 14.4276 19.6056 13.125 19.7934V17.5116ZM16.6875 15.0994C17.087 14.5006 17.3668 13.8301 17.5116 13.125H19.7934C19.6063 14.4273 19.0943 15.6614 18.3047 16.7137L16.6875 15.0994ZM17.5116 10.875C17.3668 10.1699 17.087 9.49943 16.6875 8.90063L18.3019 7.28625C19.0925 8.33828 19.6055 9.57249 19.7934 10.875H17.5116Z" fill="#FCA311"/>
</svg>
