<svg width="32" height="32" viewBox="0 0 32 32" fill="none" xmlns="http://www.w3.org/2000/svg">
<path d="M4.20968 2.75981C3.58928 2.98408 3.1305 3.40133 2.83333 4.00634L2.6665 4.35057V14.9122V25.4738L2.84376 25.8389C3.07836 26.3187 3.49023 26.7307 3.96986 26.9654L4.3348 27.1428H11.1905C14.9598 27.1428 18.0982 27.1219 18.166 27.101C18.2651 27.0645 18.2807 27.075 18.2807 27.2054C18.2807 27.4661 18.5101 27.8625 18.8229 28.1494C19.3547 28.6344 20.2305 28.9735 21.5547 29.2134C22.1491 29.3177 22.3785 29.3333 23.8069 29.3333C25.2354 29.3333 25.4648 29.3177 26.0591 29.2134C27.7952 28.9004 28.864 28.358 29.2133 27.6122L29.3332 27.3514V22.3183V17.2853L29.2133 17.0245C28.864 16.2787 27.8004 15.7362 26.0696 15.4233C25.4596 15.3138 25.2458 15.3033 23.8069 15.3033C22.3785 15.3033 22.1491 15.319 21.5547 15.4233C20.9917 15.5276 20.2201 15.7154 19.9282 15.8301C19.8552 15.8562 19.8447 15.2929 19.8343 10.1086L19.8187 4.35057L19.6414 3.98548C19.4068 3.50564 18.995 3.09361 18.5153 2.85891L18.1504 2.68158L11.3208 2.67114C4.6841 2.66071 4.48078 2.66071 4.20968 2.75981ZM17.8636 4.361C17.9627 4.42359 18.093 4.55398 18.1504 4.64786C18.2546 4.81997 18.2546 4.91386 18.2546 14.9122V25.0044L18.1399 25.1869C18.0774 25.286 17.9471 25.4164 17.8532 25.4738C17.6812 25.5781 17.5873 25.5781 11.2426 25.5781C4.89785 25.5781 4.80401 25.5781 4.63197 25.4738C4.53812 25.4164 4.40779 25.286 4.34523 25.1869L4.23053 25.0044V14.9122V4.81997L4.34523 4.63743C4.47035 4.43402 4.62154 4.32449 4.85614 4.26712C4.94477 4.24626 7.86429 4.23583 11.3469 4.23583L17.6812 4.24626L17.8636 4.361ZM25.4231 16.9776C25.7516 17.0193 26.2416 17.1132 26.5127 17.1862C27.0132 17.3166 27.6127 17.5565 27.6127 17.6243C27.6127 17.6973 26.9871 17.9424 26.4919 18.0676C25.6733 18.2762 24.9122 18.3597 23.8069 18.3597C22.7017 18.3597 21.9405 18.2762 21.122 18.0676C20.6268 17.9424 20.0011 17.6973 20.0011 17.6243C20.0011 17.5617 20.5642 17.327 20.9917 17.207C22.1804 16.8785 23.9373 16.7846 25.4231 16.9776ZM20.3452 19.5488C20.8822 19.7053 21.6747 19.8566 22.3368 19.9244C23.2387 20.0183 25.2876 19.9609 26.0748 19.8201C26.6118 19.7262 27.399 19.528 27.6857 19.4185C27.7587 19.3924 27.7691 19.455 27.7691 20.0078C27.7691 20.7224 27.7744 20.7119 27.2895 20.9362C26.5231 21.2856 25.2511 21.4891 23.8069 21.4891C22.3628 21.4891 21.0907 21.2856 20.3244 20.9362C19.8395 20.7119 19.8447 20.7224 19.8447 20.0078C19.8447 19.5019 19.8604 19.3924 19.9177 19.4132C19.9542 19.4289 20.1471 19.4915 20.3452 19.5488ZM20.3452 22.6782C20.8822 22.8347 21.6747 22.9859 22.3368 23.0537C23.2387 23.1476 25.2876 23.0902 26.0748 22.9494C26.6118 22.8555 27.399 22.6574 27.6857 22.5478C27.7587 22.5217 27.7691 22.5843 27.7691 23.1372C27.7691 23.8517 27.7744 23.8413 27.2895 24.0656C26.5231 24.415 25.2511 24.6184 23.8069 24.6184C22.3628 24.6184 21.0907 24.415 20.3244 24.0656C19.8395 23.8413 19.8447 23.8517 19.8447 23.1372C19.8447 22.6313 19.8604 22.5217 19.9177 22.5426C19.9542 22.5583 20.1471 22.6208 20.3452 22.6782ZM20.4495 25.8337C21.4922 26.1362 22.0813 26.204 23.8069 26.204C25.2354 26.204 25.4648 26.1883 26.0591 26.084C26.6222 25.9797 27.3938 25.7919 27.6857 25.6772C27.7587 25.6511 27.7691 25.7241 27.7691 26.2666C27.7691 26.9811 27.7744 26.9707 27.2895 27.1949C26.5231 27.5444 25.2511 27.7478 23.8069 27.7478C22.3628 27.7478 21.0907 27.5444 20.3244 27.1949C19.8395 26.9707 19.8447 26.9811 19.8447 26.2666C19.8447 25.7241 19.8552 25.6511 19.9282 25.6772C19.9699 25.6928 20.2097 25.7659 20.4495 25.8337Z" fill="#E6EAF4"/>
<path d="M6.37338 6.14474C6.04494 6.3638 6.0293 6.4316 6.0293 7.61033C6.0293 8.57 6.03972 8.69517 6.12835 8.83078C6.28997 9.0707 6.48808 9.17501 6.81131 9.17501C7.13454 9.17501 7.33265 9.0707 7.49427 8.83078C7.5829 8.69517 7.59332 8.57 7.59332 7.61033C7.59332 6.65066 7.5829 6.52548 7.49427 6.38988C7.33265 6.14996 7.13454 6.04565 6.81131 6.04565C6.61841 6.04565 6.47765 6.07694 6.37338 6.14474Z" fill="#E6EAF4"/>
<path d="M10.7423 9.06548C10.6329 9.14893 9.83521 9.92606 8.97499 10.7971C7.32234 12.4661 7.192 12.633 6.9991 13.2901C6.88962 13.6604 6.88962 14.4376 6.9991 14.8131C7.24935 15.658 7.96359 16.383 8.80295 16.6385C9.10011 16.7324 9.25652 16.7429 9.72051 16.7272C10.0281 16.7116 10.3201 16.6855 10.3722 16.6646C10.4556 16.6229 10.4608 16.6803 10.4608 17.4626V18.3023H9.66838C8.97499 18.3023 8.84987 18.318 8.71953 18.4014C8.47972 18.5631 8.37545 18.7613 8.37545 19.0847C8.37545 19.408 8.47972 19.6062 8.71953 19.7679C8.8603 19.8618 9.00627 19.867 11.2428 19.867C13.4794 19.867 13.6254 19.8618 13.7661 19.7679C14.0059 19.6062 14.1102 19.408 14.1102 19.0847C14.1102 18.7613 14.0059 18.5631 13.7661 18.4014C13.6358 18.318 13.5107 18.3023 12.8225 18.3023H12.0248V17.4678V16.6333L12.1708 16.6698C12.249 16.6959 12.5931 16.7116 12.9372 16.7063C13.495 16.7063 13.5993 16.6907 13.8965 16.5655C14.5638 16.2839 15.1268 15.7258 15.3979 15.0686C15.5804 14.6201 15.6273 13.7804 15.4918 13.3162C15.2989 12.6382 15.1738 12.4765 13.5107 10.7971C12.6505 9.92606 11.8528 9.14893 11.7433 9.06548C11.5765 8.94031 11.4879 8.91423 11.2428 8.91423C10.9978 8.91423 10.9092 8.94031 10.7423 9.06548ZM12.5305 12.1583C13.2187 12.8572 13.8235 13.4987 13.8704 13.5926C13.9955 13.843 13.9799 14.2759 13.8339 14.5523C13.6514 14.8965 13.3491 15.0843 12.9424 15.1104C12.5723 15.1364 12.3064 15.0321 12.077 14.7818C11.7798 14.4584 11.5609 14.3385 11.2428 14.3385C10.9248 14.3385 10.7058 14.4584 10.4087 14.7818C10.1793 15.0321 9.91341 15.1364 9.54326 15.1104C9.13661 15.0843 8.83423 14.8965 8.65176 14.5523C8.50578 14.2759 8.49014 13.843 8.61527 13.5926C8.68825 13.4466 11.1751 10.8962 11.2428 10.8962C11.2585 10.8962 11.8372 11.4647 12.5305 12.1583Z" fill="#E6EAF4"/>
<path d="M15.2362 20.7484C14.9077 20.9675 14.8921 21.0353 14.8921 22.214C14.8921 23.1737 14.9025 23.2989 14.9911 23.4345C15.1528 23.6744 15.3509 23.7787 15.6741 23.7787C15.9973 23.7787 16.1954 23.6744 16.3571 23.4345C16.4457 23.2989 16.4561 23.1737 16.4561 22.214C16.4561 21.2544 16.4457 21.1292 16.3571 20.9936C16.1954 20.7537 15.9973 20.6493 15.6741 20.6493C15.4812 20.6493 15.3404 20.6806 15.2362 20.7484Z" fill="#E6EAF4"/>
</svg>
