<svg width="32" height="32" viewBox="0 0 32 32" fill="none" xmlns="http://www.w3.org/2000/svg">
<path d="M16.1309 5.10353C15.941 5.17209 13.6207 6.01056 10.9682 6.96505C7.35064 8.26759 6.11138 8.73165 6.01646 8.83184C5.94263 8.90567 5.24654 10.0764 4.46608 11.4422C2.50436 14.8594 2.49909 14.6695 4.52408 15.45L5.74224 15.9246V18.9568C5.74224 20.8763 5.76334 22.0629 5.79498 22.1841C5.91099 22.6007 5.76861 22.5375 11.2582 24.5203C15.2924 25.9757 16.4156 26.3607 16.6055 26.3554C16.7742 26.3554 18.2033 25.8597 21.6152 24.631C27.6269 22.4636 27.0732 22.6746 27.2472 22.4478L27.3896 22.2632L27.4054 19.0623L27.4213 15.8613L28.5551 15.4236C29.942 14.8857 30.0527 14.7908 29.9842 14.1685C29.9631 13.9629 29.7047 13.4725 28.534 11.4422C27.7535 10.0764 27.0574 8.90567 26.9836 8.83184C26.8887 8.73165 25.5808 8.23067 21.8473 6.86486C19.0945 5.85764 16.7584 5.01916 16.6582 5.00334C16.5422 4.98752 16.3524 5.02444 16.1309 5.10353ZM20.3707 8.07774C22.3166 8.78966 23.9303 9.38555 23.9566 9.40137C24.0094 9.42774 23.9619 9.44883 19.5322 11.0783L16.5738 12.1646L12.8139 10.7988C10.3618 9.91289 9.08032 9.42247 9.12778 9.3961C9.16469 9.36973 10.8575 8.75274 12.8877 8.01974C15.8883 6.93341 16.6055 6.69611 16.7057 6.73302C16.7795 6.75939 18.4301 7.36583 20.3707 8.07774ZM11.1475 11.9432C13.4098 12.7658 15.2819 13.4514 15.303 13.4725C15.3451 13.5094 13.4678 16.8211 13.3043 17.0004C13.2516 17.0584 12.5397 16.7947 9.13833 15.4764C6.87603 14.601 5.01978 13.8732 5.00924 13.868C4.99342 13.8469 5.54185 12.8766 6.5438 11.1363C6.77583 10.7408 6.9815 10.4244 6.99732 10.435C7.01841 10.4455 8.8852 11.1258 11.1475 11.9432ZM27.0416 12.1594C27.5742 13.0875 28.0013 13.8574 27.9908 13.868C27.9433 13.9101 19.8908 17.0215 19.8117 17.0267C19.7432 17.032 19.4637 16.5679 18.7465 15.2654C18.2086 14.2951 17.7815 13.4935 17.792 13.483C17.8289 13.4408 25.9183 10.4719 25.9922 10.4719C26.0449 10.4666 26.414 11.0572 27.0416 12.1594ZM15.7512 22.2949L15.7354 24.3779L12.5977 23.2494C10.8733 22.6271 8.99067 21.9521 8.42114 21.7412L7.377 21.3668V18.9779C7.377 17.6595 7.39282 16.5838 7.41392 16.5838C7.42974 16.5838 8.79028 17.1058 10.4356 17.7439C12.7612 18.6457 13.4731 18.9041 13.6629 18.9041C14.0848 18.9041 14.1797 18.7986 14.9971 17.3959L15.7354 16.1303L15.7512 18.1711C15.7565 19.2943 15.7565 21.1506 15.7512 22.2949ZM18.9205 18.7828C19.2738 19.0201 19.3213 19.0043 22.6436 17.7176C24.3205 17.0637 25.718 16.531 25.739 16.531C25.7601 16.531 25.7812 17.6226 25.7812 18.9515C25.7812 21.2086 25.776 21.372 25.6916 21.4089C25.6389 21.4248 23.7879 22.0945 21.573 22.8908C19.3582 23.6871 17.5125 24.3568 17.4703 24.3726C17.407 24.3937 17.3965 23.8611 17.3965 20.3226V16.241L18.0715 17.4539C18.5883 18.3873 18.7834 18.6931 18.9205 18.7828Z" fill="#E6EAF4"/>
</svg>
