<svg width="28" height="28" viewBox="0 0 28 28" fill="none" xmlns="http://www.w3.org/2000/svg">
<path d="M12.3967 0.723696C9.99332 0.994585 7.51694 2.04168 5.57234 3.6045C4.94673 4.1046 3.78413 5.30276 3.31492 5.92789C2.2201 7.38653 1.43288 9.04312 1.00538 10.7778C0.708211 11.9864 0.666504 12.3876 0.666504 13.9712C0.666504 14.9141 0.692571 15.5861 0.734278 15.8726C1.20349 18.9254 2.50684 21.4676 4.68605 23.5826C6.22923 25.0829 7.9288 26.0987 9.97247 26.7499C11.2393 27.151 12.4853 27.3333 13.9868 27.3333C15.6134 27.3333 16.7864 27.1458 18.2827 26.6509C20.2325 26.0049 21.8799 24.9735 23.4283 23.4315C24.9715 21.8843 25.9881 20.2642 26.6502 18.295C27.1455 16.8103 27.3332 15.6278 27.3332 13.9973C27.3332 12.3667 27.1455 11.1946 26.6502 9.6995C26.2019 8.35027 25.3886 6.84475 24.4814 5.69868C24.1008 5.2142 22.7766 3.89101 22.2918 3.51073C20.3941 2.01563 18.0428 1.03626 15.6551 0.739325C14.9409 0.650764 13.1057 0.640345 12.3967 0.723696ZM13.2048 3.5524V4.8235L13.038 4.84955C12.9441 4.86517 12.6991 4.90164 12.4958 4.9329C11.9536 5.00583 11.1611 5.22462 10.5981 5.44863L10.1028 5.64659L9.66488 4.88601C9.42506 4.46926 9.13832 3.97437 9.02884 3.78683L8.83073 3.44822L9.15396 3.30235C10.1237 2.86476 11.3749 2.5001 12.3967 2.36466C12.7147 2.32298 13.0223 2.28652 13.0901 2.28131L13.2048 2.2761V3.5524ZM15.8897 2.41154C16.8177 2.56783 17.7144 2.8283 18.6372 3.22421L19.1481 3.4378L18.9969 3.70348C18.9083 3.84934 18.6215 4.34944 18.3557 4.81308L17.8656 5.65179L17.5059 5.49551C17.0106 5.28714 16.0305 5.00583 15.5248 4.9381C15.2954 4.90685 15.0295 4.86517 14.9409 4.84955L14.7688 4.8235V3.54719V2.27089L15.0973 2.30215C15.2745 2.32298 15.6342 2.36987 15.8897 2.41154ZM8.07478 5.39132L8.70039 6.46967L8.41365 6.67805C7.98094 6.99582 7.1885 7.76681 6.80792 8.25129C6.61502 8.49092 6.45341 8.68367 6.43777 8.68367C6.36478 8.68367 4.28983 7.45425 4.28983 7.41257C4.28983 7.29276 5.0927 6.3186 5.67139 5.73515C6.25008 5.15169 7.27191 4.30777 7.39182 4.30777C7.4231 4.30777 7.73069 4.79224 8.07478 5.39132ZM21.124 4.68284C21.4003 4.89122 21.9164 5.35486 22.2761 5.71431C22.8705 6.30818 23.6838 7.28755 23.6838 7.41257C23.6838 7.43862 23.1989 7.74598 22.5994 8.0898L21.5202 8.71493L21.3117 8.4232C21.0458 8.05333 19.9353 6.94373 19.5652 6.67805L19.2732 6.47488L19.904 5.39132C20.2481 4.79224 20.5505 4.30777 20.5766 4.30777C20.6026 4.30777 20.8529 4.47968 21.124 4.68284ZM15.212 6.52697C15.8845 6.63116 16.849 6.95415 17.4694 7.27713C18.1784 7.65221 18.7362 8.06375 19.3306 8.65762C20.3785 9.70992 20.9936 10.8039 21.3794 12.3303C21.5098 12.8408 21.5202 12.9502 21.5202 13.9973C21.5202 15.0339 21.5098 15.159 21.3794 15.6643C20.9936 17.1854 20.3837 18.2846 19.3306 19.3369C18.0116 20.6549 16.3328 21.4259 14.5446 21.5405C12.2924 21.6863 10.2071 20.9101 8.63783 19.3421C7.64207 18.3419 6.9956 17.201 6.62024 15.7685C6.48469 15.2475 6.46383 15.0496 6.44298 14.2473C6.4117 13.1794 6.48469 12.6116 6.76621 11.7103C7.13115 10.5643 7.76198 9.54322 8.64304 8.65762C9.26344 8.0377 9.82128 7.63137 10.5772 7.24587C12.0213 6.51135 13.5645 6.27171 15.212 6.52697ZM4.8216 9.64741L5.6349 10.1163L5.5567 10.2986C5.25432 10.9654 4.94673 12.1219 4.83724 12.9658L4.80596 13.2159H3.52867C2.7623 13.2159 2.2566 13.195 2.2566 13.169C2.2566 13.1377 2.29309 12.8408 2.3348 12.5022C2.47556 11.4134 2.74666 10.4392 3.19501 9.37652L3.41919 8.84516L3.71114 9.01186C3.87276 9.10563 4.37325 9.38694 4.8216 9.64741ZM25.0184 9.9756C25.3416 10.8352 25.5658 11.8249 25.6909 12.9137L25.7222 13.2159H24.4449H23.1676L23.1364 12.9658C23.0165 12.0698 22.7819 11.1529 22.4951 10.4809L22.3387 10.1215L23.4387 9.48071L24.544 8.84516L24.6848 9.15772C24.763 9.32964 24.9141 9.6995 25.0184 9.9756ZM4.83724 15.0235C4.94673 15.8726 5.25432 17.0291 5.5567 17.6959L5.6349 17.8783L4.53487 18.5138L3.42962 19.1494L3.28364 18.8264C2.76751 17.6855 2.43907 16.4717 2.28267 15.0756L2.25139 14.7787H3.52867H4.80596L4.83724 15.0235ZM25.6909 15.0756C25.5345 16.4665 25.2061 17.6907 24.6848 18.8368L24.544 19.1494L23.4387 18.5138L22.3387 17.8731L22.4951 17.5136C22.7245 16.977 22.9852 16.0289 23.079 15.3882C23.1259 15.0808 23.1624 14.8151 23.1624 14.8047C23.1624 14.7891 23.7411 14.7787 24.4449 14.7787H25.7222L25.6909 15.0756ZM23.6838 20.582C23.6838 20.707 22.8705 21.6863 22.2761 22.2802C21.687 22.8741 20.7017 23.6868 20.5766 23.6868C20.5505 23.6868 20.2481 23.2023 19.904 22.6032L19.2732 21.5196L19.5652 21.3165C19.9301 21.0508 21.0406 19.9464 21.3117 19.5713L21.5202 19.2796L22.5994 19.9047C23.1989 20.2486 23.6838 20.5559 23.6838 20.582ZM6.80792 19.7484C7.1885 20.2277 7.97051 20.9883 8.41365 21.3165L8.70039 21.5249L8.07478 22.6032C7.73069 23.2023 7.4231 23.6868 7.39704 23.6868C7.27191 23.6868 6.29179 22.8741 5.69746 22.2802C5.09792 21.6863 4.28983 20.707 4.28983 20.582C4.28983 20.5351 6.35435 19.3161 6.43255 19.3109C6.44819 19.3109 6.62024 19.5088 6.80792 19.7484ZM10.8587 22.6449C11.3123 22.8116 12.2195 23.0408 12.6313 23.0877C12.7877 23.1033 12.9806 23.1294 13.064 23.145L13.2048 23.1762V24.4525V25.7236L12.9076 25.6924C11.5104 25.5361 10.2957 25.2079 9.15396 24.6922L8.83594 24.5463L9.46677 23.4471L10.1028 22.3427L10.2853 22.4209C10.3843 22.4625 10.645 22.5667 10.8587 22.6449ZM18.9969 24.2911L19.1481 24.5567L18.6372 24.7703C17.5945 25.2131 16.5675 25.4996 15.4831 25.6403C15.1442 25.682 14.847 25.7184 14.8157 25.7184C14.7897 25.7184 14.7688 25.2131 14.7688 24.4421V23.171L14.9409 23.145C15.0295 23.1294 15.2954 23.0877 15.5248 23.0564C16.0305 22.9887 17.0106 22.7074 17.5059 22.499L17.8656 22.3427L18.3557 23.1814C18.6215 23.6451 18.9083 24.1452 18.9969 24.2911Z" fill="#E6EAF4"/>
<path d="M13.4865 8.15754C13.106 8.43884 9.72766 11.8771 9.54519 12.174C9.27409 12.6064 9.14375 12.9606 9.07598 13.4242C8.86223 14.9454 9.82671 16.3988 11.3125 16.7843C11.6983 16.8833 12.5377 16.8833 12.8714 16.7843C13.0121 16.7426 13.1425 16.7062 13.1685 16.7062C13.1894 16.7062 13.205 17.0917 13.205 17.5657V18.4253H12.4126C11.7192 18.4253 11.5941 18.4409 11.4637 18.5243C11.2239 18.6857 11.1196 18.8837 11.1196 19.2067C11.1196 19.5297 11.2239 19.7276 11.4637 19.8891C11.6045 19.9829 11.7505 19.9881 13.987 19.9881C16.2236 19.9881 16.3696 19.9829 16.5103 19.8891C16.7501 19.7276 16.8544 19.5297 16.8544 19.2067C16.8544 18.8837 16.7501 18.6857 16.5103 18.5243C16.38 18.4409 16.2549 18.4253 15.5667 18.4253H14.769V17.5657C14.769 17.0917 14.7847 16.7062 14.8107 16.7062C14.8316 16.7062 14.9619 16.7426 15.1027 16.7843C15.4364 16.8833 16.2757 16.8833 16.6615 16.7843C17.8293 16.4822 18.6843 15.5288 18.8876 14.3151C19.0023 13.6222 18.8303 12.8043 18.4393 12.1844C18.2464 11.8823 14.8681 8.43884 14.4875 8.15754C14.3207 8.03251 14.2321 8.00646 13.987 8.00646C13.742 8.00646 13.6534 8.03251 13.4865 8.15754ZM15.5875 11.5593C17.1151 13.0961 17.162 13.1481 17.2454 13.4451C17.5165 14.3776 16.8231 15.2684 15.8326 15.2527C15.4416 15.2527 15.1757 15.1173 14.7325 14.711C14.1382 14.164 13.8358 14.164 13.2415 14.711C12.7984 15.1173 12.5325 15.2527 12.1415 15.2527C11.1509 15.2684 10.4575 14.3776 10.7286 13.4451C10.8121 13.1481 10.859 13.0961 12.3865 11.5593C13.2519 10.6945 13.9714 9.98604 13.987 9.98604C14.0027 9.98604 14.7221 10.6945 15.5875 11.5593Z" fill="#E6EAF4"/>
</svg>
