<svg width="32" height="32" viewBox="0 0 32 32" fill="none" xmlns="http://www.w3.org/2000/svg">
<path d="M3.34416 3.10059C3.00521 3.32487 3 3.34574 3 4.947C3 5.9015 3.02086 6.43874 3.05736 6.51176C3.08865 6.57435 5.29963 8.81716 7.97472 11.4877L12.8295 16.3541L11.2808 17.9032L9.72682 19.4575L8.67347 18.4039C8.08944 17.8249 7.54712 17.3294 7.4689 17.2981C7.23946 17.2095 6.90051 17.2303 6.71279 17.3451C6.36341 17.5589 6.23305 18.0336 6.42077 18.4039C6.4677 18.4978 6.9683 19.035 7.52626 19.5983L8.54832 20.6311L7.16124 22.0289C5.6438 23.5519 5.51865 23.7188 5.38828 24.4334C5.32571 24.7777 5.34657 24.762 4.90333 24.8298C4.37665 24.9133 3.70397 25.3775 3.38588 25.8782C3.08343 26.3476 2.98436 26.7336 3.01043 27.3595C3.02607 27.8654 3.04172 27.9385 3.21901 28.314C3.47974 28.8512 3.85519 29.2268 4.3923 29.4876C4.76775 29.6649 4.84075 29.6806 5.34657 29.6962C5.97232 29.7223 6.3582 29.6232 6.82751 29.3207C7.32811 29.0025 7.79221 28.3297 7.87564 27.8029C7.94343 27.3595 7.92779 27.3804 8.27195 27.3178C8.98635 27.1874 9.15322 27.0622 10.6759 25.5444L12.0734 24.157L13.1059 25.1793C13.6691 25.7374 14.2062 26.2381 14.3 26.285C14.6703 26.4728 15.1448 26.3424 15.3586 25.993C15.4733 25.8052 15.4942 25.4662 15.4055 25.2367C15.3742 25.1584 14.8788 24.616 14.3 24.0318L13.2467 22.9782L14.8006 21.4239L16.3494 19.8748L17.8981 21.4239L19.452 22.9782L18.3987 24.0318C17.8199 24.616 17.3245 25.1584 17.2932 25.2367C17.2045 25.4662 17.2254 25.8052 17.3401 25.993C17.5539 26.3424 18.0284 26.4728 18.3987 26.285C18.4925 26.2381 19.0296 25.7374 19.5928 25.1793L20.6253 24.157L22.0228 25.5444C23.5455 27.0622 23.7124 27.1874 24.4268 27.3178C24.7709 27.3804 24.7553 27.3595 24.8231 27.8029C24.9065 28.3297 25.381 29.0129 25.8764 29.3311C26.3301 29.618 26.7316 29.7171 27.3521 29.6962C27.858 29.6806 27.931 29.6649 28.3064 29.4876C28.8435 29.2268 29.219 28.8512 29.4797 28.314C29.657 27.9385 29.6726 27.8654 29.6883 27.3595C29.7091 26.7388 29.6101 26.3372 29.3233 25.8834C29.0052 25.3879 28.3221 24.9133 27.7954 24.8298C27.3521 24.762 27.373 24.7777 27.3104 24.4334C27.1801 23.7188 27.0549 23.5519 25.5375 22.0289L24.1504 20.6311L25.1724 19.5983C25.7304 19.035 26.231 18.4978 26.2779 18.4039C26.4657 18.0336 26.3353 17.5589 25.9859 17.3451C25.7982 17.2303 25.4592 17.2095 25.2298 17.2981C25.1516 17.3294 24.6093 17.8249 24.0252 18.4039L22.9719 19.4575L21.4179 17.9032L19.8692 16.3541L24.724 11.4877C27.3991 8.81716 29.6101 6.57435 29.6413 6.51176C29.6778 6.43874 29.6987 5.9015 29.6987 4.947C29.6987 2.88153 29.8186 3.00149 27.7537 3.00149C26.7994 3.00149 26.2623 3.02236 26.1893 3.05887C26.1267 3.09016 23.8844 5.30168 21.2146 7.97741L16.3494 12.8334L11.4894 7.97741C8.81427 5.30168 6.57199 3.09016 6.50942 3.05887C6.43641 3.02236 5.89931 3.00149 4.94504 3.00149C3.61532 3.00149 3.48496 3.01192 3.34416 3.10059ZM10.4934 9.27094L15.2021 13.9809L14.592 14.5911L13.9767 15.2066L9.27315 10.5019L4.56438 5.79197V5.18172V4.56625H5.17448H5.78981L10.4934 9.27094ZM28.1343 5.1765V5.79197L20.1195 13.8087L12.0995 21.8307L11.4894 21.2205L10.874 20.605L18.8889 12.5882L26.9089 4.56625H27.519H28.1343V5.1765ZM21.2146 21.2152L20.5992 21.8307L19.0505 20.2816L17.4966 18.7273L18.1067 18.117L18.722 17.5016L20.2707 19.0507L21.8247 20.605L21.2146 21.2152ZM9.66425 24.2717C8.96549 24.9706 8.30845 25.5861 8.20416 25.6435C7.51062 26.0034 6.70236 25.221 7.04652 24.5273C7.09345 24.4334 7.70878 23.7814 8.41274 23.0721L9.70075 21.7785L10.3109 22.3888L10.9262 23.0043L9.66425 24.2717ZM25.6365 24.5012C25.7669 24.7568 25.7617 24.9967 25.6157 25.2732C25.4071 25.6748 24.9013 25.8469 24.5206 25.6591C24.4268 25.6122 23.7749 24.9967 23.0657 24.2926L21.7725 23.0043L22.3826 22.394L22.998 21.7785L24.2651 23.0408C24.9639 23.7397 25.5792 24.3969 25.6365 24.5012ZM5.78981 26.4676C6.29562 26.6971 6.46249 27.2395 6.17569 27.709C5.97232 28.0428 5.51343 28.1888 5.13798 28.048C4.97633 27.9854 4.72081 27.735 4.66345 27.5786C4.52787 27.2187 4.66345 26.744 4.9659 26.551C5.26313 26.3581 5.49779 26.332 5.78981 26.4676ZM27.7015 26.5302C27.9414 26.6814 28.0822 26.9318 28.0822 27.2187C28.0822 27.5212 28.03 27.662 27.8423 27.8498C27.3365 28.3505 26.523 28.0741 26.3874 27.3543C26.3509 27.1561 26.45 26.8431 26.6117 26.6606C26.8724 26.3685 27.3469 26.3111 27.7015 26.5302Z" fill="#E6EAF4"/>
</svg>
