<svg width="32" height="32" viewBox="0 0 32 32" fill="none" xmlns="http://www.w3.org/2000/svg">
    <path d="M14.7854 3.02387C12.6491 3.12937 10.3175 3.84676 8.48186 4.96505C7.26862 5.69826 5.87077 6.92732 4.98458 8.02451C3.52342 9.83381 2.55811 11.9649 2.15194 14.2806C1.98842 15.209 1.95149 16.8284 2.06754 17.8623C2.49481 21.5653 4.07202 24.6775 6.60398 26.8138C9.22562 29.0187 12.7704 30.1528 16.3521 29.9418C18.346 29.8205 20.0392 29.3721 21.7694 28.5123C25.8522 26.4868 28.3631 22.7574 28.9222 17.8886C29.3178 14.4599 28.3367 11.0154 26.1634 8.20913C25.6834 7.59196 24.6495 6.54225 24.0165 6.03058C21.7958 4.23711 19.2585 3.24542 16.3943 3.0397C15.661 2.99222 15.4817 2.98695 14.7854 3.02387ZM17.3701 4.85427C19.9865 5.27627 22.2389 6.39455 23.9902 8.15638C26.0632 10.2347 27.2553 13.1359 27.3503 16.3325C27.4083 18.1998 27.0391 19.9353 26.232 21.6338C24.7286 24.783 21.8274 27.1831 18.4884 28.0376C17.3701 28.3277 16.8584 28.3857 15.4711 28.3857C14.0944 28.3805 13.6935 28.333 12.533 28.0429C8.58736 27.0459 5.3169 23.9179 4.13004 19.9933C3.7397 18.701 3.60255 17.6776 3.64475 16.3114C3.76607 12.1917 5.76527 8.55727 9.00935 6.5528C10.4125 5.68244 12.0688 5.0811 13.6513 4.86482C13.9836 4.81735 14.3318 4.76987 14.4162 4.75933C14.7854 4.70658 16.869 4.77515 17.3701 4.85427Z" fill="#E6EAF4"/>
    <path d="M7.50071 11.9493C7.44269 11.9757 7.32136 12.0812 7.22641 12.1867C7.08399 12.3502 7.05762 12.4188 7.05762 12.6561C7.05762 13.0992 8.31833 20.4894 8.43965 20.7479C8.5135 20.9114 8.60317 20.9958 8.76669 21.0749C8.98824 21.1857 9.03572 21.1857 15.487 21.1857C19.9443 21.1857 22.0279 21.1699 22.1281 21.1277C22.3338 21.0538 22.5554 20.827 22.6134 20.6371C22.7136 20.3259 23.9374 12.9463 23.9374 12.6614C23.9374 12.3977 23.9163 12.3502 23.7369 12.155C23.5523 11.9598 23.4996 11.9335 23.2358 11.9124C22.9404 11.8913 22.9299 11.8913 21.2894 12.7194C20.3821 13.1784 19.3271 13.7111 18.9526 13.9116L18.2668 14.2703L16.9798 13.1362C16.2676 12.5084 15.6347 11.9757 15.5661 11.9493C15.3709 11.8754 15.0386 11.8913 14.8645 11.9809C14.7801 12.0231 14.1946 12.5454 13.5669 13.1362L12.4222 14.2175L12.0477 14.0118C8.85637 12.2763 8.18645 11.9387 7.90161 11.9229C7.74336 11.9124 7.56401 11.9229 7.50071 11.9493ZM17.1064 15.4571C17.3965 15.7156 17.7077 15.9582 17.8026 15.9952C18.1561 16.1481 18.251 16.1112 20.1658 15.1406C21.1681 14.629 22.0068 14.2228 22.0226 14.2386C22.0384 14.2544 21.8485 15.4519 21.6059 16.8972L21.1628 19.5241H15.4975H9.83223L9.39441 16.9394C9.15176 15.5152 8.96187 14.3283 8.97242 14.2966C8.97769 14.265 9.70563 14.629 10.5918 15.109C12.0002 15.8686 12.2376 15.9793 12.4961 16.0004C12.7071 16.0215 12.8337 16.0057 12.9444 15.9424C13.0288 15.9002 13.5827 15.3991 14.1788 14.84L15.2601 13.8166L15.9195 14.4021C16.2835 14.7239 16.8162 15.1987 17.1064 15.4571Z" fill="#E6EAF4"/>
</svg>
