<svg width="32" height="32" viewBox="0 0 32 32" fill="none" xmlns="http://www.w3.org/2000/svg">
    <path d="M23.996 2.73114C19.7819 3.1584 16.4586 4.57563 13.4531 7.2173C12.8384 7.75919 11.8591 8.73874 11.3539 9.32231L11.0153 9.71309L8.91089 9.87461C7.15027 10.0153 6.76481 10.057 6.51478 10.1508C5.96784 10.3592 5.79074 10.578 4.24368 12.9175C3.45713 14.1055 2.77997 15.1528 2.74351 15.2465C2.64975 15.4706 2.64975 16.0281 2.74872 16.3043C2.79039 16.4241 2.89457 16.6117 2.98312 16.7211C3.27482 17.091 3.50922 17.1588 5.36881 17.4505C6.296 17.5912 7.06693 17.7111 7.08776 17.7111C7.1086 17.7111 7.12422 17.9507 7.12422 18.2477C7.12422 18.7479 7.13464 18.8052 7.30133 19.1439C7.4628 19.4826 7.67116 19.7066 9.98393 22.0201C12.3279 24.37 12.5155 24.5419 12.8541 24.7034C13.1926 24.865 13.2551 24.8754 13.75 24.8754C14.0469 24.8754 14.2865 24.8962 14.2865 24.9223C14.2865 24.9431 14.4063 25.7195 14.547 26.6417C14.8387 28.4914 14.9064 28.7259 15.2762 29.0176C15.3856 29.1062 15.5731 29.2104 15.6929 29.2521C15.969 29.3511 16.5263 29.3511 16.7503 29.2573C16.8441 29.2209 17.8963 28.5435 19.0839 27.7567C20.6779 26.699 21.3029 26.2561 21.4853 26.0581C21.9072 25.584 21.9332 25.4694 22.1207 23.083L22.2874 20.9832L22.6208 20.6914C23.2042 20.186 24.2252 19.17 24.7773 18.5447C27.1057 15.9031 28.4496 13.0634 29.0538 9.50467C29.2778 8.18644 29.3507 7.18083 29.3299 5.63334L29.3143 4.24216L29.1476 3.89306C28.9184 3.4085 28.6267 3.10629 28.1527 2.87183L27.7568 2.67904L26.2202 2.66862C25.2461 2.66341 24.4283 2.68946 23.996 2.73114ZM27.4703 4.35158C27.7256 4.47663 27.7412 4.60689 27.7099 6.23775C27.6839 7.69145 27.6214 8.37401 27.4391 9.3692C26.8869 12.3391 25.8712 14.6109 24.1158 16.7992C22.4854 18.8313 20.2039 20.7435 18.1672 21.7804L17.7244 22.0096L13.8594 18.1383L9.98914 14.2722L10.2235 13.8189C11.4424 11.4742 13.6041 9.00447 15.9117 7.32672C18.4276 5.49787 21.6155 4.44537 25.1732 4.27342C26.1941 4.22132 27.288 4.25779 27.4703 4.35158ZM9.67139 11.5472C8.86401 12.7768 8.18164 14.1628 7.71283 15.5331C7.50448 16.1375 7.49927 16.1532 7.36383 16.1271C7.29091 16.1115 6.60854 16.0021 5.84804 15.8874C5.08753 15.7676 4.44683 15.6686 4.426 15.6634C4.35307 15.6425 6.98358 11.7191 7.1086 11.667C7.17631 11.6409 7.79097 11.5732 8.47855 11.5211C9.16613 11.4638 9.73911 11.4169 9.74953 11.4117C9.75994 11.4117 9.72348 11.469 9.67139 11.5472ZM16.0419 22.7183C15.9221 22.786 14.7293 23.1143 14.2605 23.208C14 23.2601 13.7292 23.2862 13.6614 23.2706C13.5833 23.2497 12.5363 22.2441 11.1143 20.8165L8.69732 18.3936L8.72858 18.0914C8.75983 17.7788 8.98381 16.8774 9.18175 16.2313L9.29635 15.8718L12.703 19.2794C14.8803 21.4573 16.0836 22.6974 16.0419 22.7183ZM20.4695 23.4998C20.4174 24.1928 20.3497 24.8128 20.3237 24.8858C20.2924 24.9692 19.6569 25.4225 18.313 26.3134C17.2296 27.0273 16.3388 27.5952 16.3336 27.5744C16.3284 27.5535 16.2294 26.9126 16.1096 26.1519C15.995 25.3912 15.8856 24.7086 15.87 24.6357C15.844 24.5002 15.8596 24.495 16.4638 24.2866C17.6984 23.8593 18.9798 23.2549 20.0424 22.5776C20.3289 22.3952 20.5633 22.2493 20.5633 22.2441C20.5633 22.2441 20.5216 22.8121 20.4695 23.4998Z" fill="#E6EAF4"/>
    <path d="M20.0889 7.21254C19.3023 7.39491 18.6616 7.76485 18.073 8.38488C17.2292 9.26544 16.8593 10.5003 17.0677 11.7143C17.3438 13.2827 18.4428 14.4758 19.9899 14.8771C20.5264 15.0125 21.4276 15.0021 21.9641 14.851C22.6621 14.6582 23.1569 14.3664 23.6934 13.8298C24.2195 13.3087 24.4748 12.9023 24.6936 12.251C24.8134 11.8967 24.829 11.7612 24.829 11.0943C24.8342 10.443 24.8186 10.2867 24.7144 9.94801C24.3029 8.64019 23.3705 7.70232 22.0735 7.2907C21.6047 7.14481 20.5681 7.10312 20.0889 7.21254ZM21.912 8.97366C22.136 9.08829 22.4016 9.27586 22.5631 9.43218C23.9018 10.7713 23.1569 13.0117 21.2661 13.3452C20.6045 13.4598 19.8284 13.1993 19.3179 12.6887C18.0834 11.4434 18.5835 9.40612 20.266 8.84861C20.4952 8.77045 20.6723 8.75482 21.0473 8.77045C21.4744 8.78609 21.5734 8.80693 21.912 8.97366Z" fill="#E6EAF4"/>
    <path d="M5.82705 20.5309C5.65516 20.557 5.45722 20.7342 4.2227 21.9638C3.45178 22.7349 2.78503 23.4279 2.74336 23.5061C2.56626 23.8448 2.7069 24.3293 3.04548 24.5377C3.24863 24.6628 3.65492 24.6784 3.85807 24.569C3.93621 24.5273 4.60295 23.8864 5.33741 23.1466C6.91051 21.573 6.96781 21.474 6.73861 20.9582C6.58235 20.6143 6.24376 20.458 5.82705 20.5309Z" fill="#E6EAF4"/>
    <path d="M8.0877 22.875C7.94706 22.9167 7.33241 23.5003 5.43635 25.3864C4.08203 26.7411 2.90481 27.9395 2.82147 28.049C2.69645 28.2157 2.67041 28.3043 2.67041 28.5439C2.67041 29.0494 2.95169 29.3307 3.45696 29.3307C3.69657 29.3307 3.78512 29.3047 3.95181 29.1796C4.0612 29.0963 5.25925 27.9187 6.61357 26.564C8.77528 24.386 9.0774 24.0682 9.12949 23.8702C9.192 23.6305 9.13991 23.3492 8.99926 23.1408C8.83258 22.9063 8.41066 22.7812 8.0877 22.875Z" fill="#E6EAF4"/>
    <path d="M10.3798 25.2457C10.1767 25.3291 7.55656 27.9083 7.43155 28.1427C7.32216 28.3459 7.33779 28.7523 7.4628 28.9555C7.67116 29.2942 8.15559 29.4349 8.49417 29.2577C8.57231 29.2161 9.26509 28.5491 10.036 27.778C11.2653 26.5431 11.4372 26.3503 11.4685 26.1732C11.5414 25.7564 11.3851 25.4177 11.0413 25.2614C10.7809 25.1467 10.6246 25.1415 10.3798 25.2457Z" fill="#E6EAF4"/>
</svg>
