<svg width="32" height="32" viewBox="0 0 32 32" fill="none" xmlns="http://www.w3.org/2000/svg">
    <path d="M16.7824 2.74156C16.3709 2.83013 15.6833 3.15315 15.3135 3.43448C15.1625 3.5491 13.5269 5.18502 11.6831 7.07623L8.33386 10.5096L7.17752 10.5408C5.84409 10.5721 5.47428 10.645 4.75026 11.0045C4.12001 11.3171 3.40642 12.0309 3.09389 12.6613C2.64074 13.573 2.66678 13.1302 2.66678 19.9552C2.66678 26.7802 2.64074 26.3373 3.09389 27.2491C3.27099 27.6086 3.40642 27.7857 3.8127 28.1869C4.21377 28.5932 4.39086 28.7287 4.75026 28.9058C5.66179 29.3591 5.21905 29.3331 12.0425 29.3331C17.8814 29.3331 18.0794 29.3278 18.4804 29.2289C19.1836 29.0517 19.7097 28.7495 20.2462 28.2129C20.7775 27.6867 21.0379 27.2751 21.2463 26.6499C21.3765 26.2696 21.3869 26.1394 21.4129 25.1234L21.4442 24.0137L24.934 20.4397C26.856 18.4756 28.502 16.7615 28.6009 16.626C28.8666 16.2613 29.1687 15.5945 29.2572 15.1881C29.3666 14.6619 29.3562 13.8075 29.2364 13.3281C29.1114 12.8488 28.8249 12.2653 28.5228 11.8798C28.2624 11.5411 20.3451 3.63767 20.0326 3.39802C19.7097 3.14794 18.9909 2.82492 18.5794 2.73635C18.1262 2.64258 17.2303 2.64258 16.7824 2.74156ZM18.6836 4.49731C19.0951 4.69529 19.1263 4.72655 23.1995 8.7955C27.2675 12.8645 27.2988 12.9009 27.4967 13.3125C27.6894 13.7189 27.6946 13.7449 27.6946 14.3024C27.6946 14.8547 27.6894 14.8911 27.5019 15.2767C27.3248 15.6518 27.1946 15.7977 25.2361 17.7983C24.0954 18.9653 22.7724 20.3199 22.2932 20.8096L21.4233 21.7005L21.4181 17.8139C21.4181 13.4115 21.4286 13.5418 20.991 12.6613C20.8139 12.3018 20.6785 12.1246 20.2722 11.7235C19.8712 11.3171 19.6941 11.1817 19.3347 11.0045C19.0898 10.8847 18.7044 10.7336 18.4752 10.6711C18.0689 10.5617 17.9543 10.5565 14.3343 10.5304L10.6101 10.4992L13.1519 7.89419C16.1 4.87764 16.2511 4.72655 16.6001 4.54941C17.0428 4.32017 17.246 4.27328 17.772 4.28891C18.2252 4.29933 18.3085 4.32017 18.6836 4.49731ZM18.2096 12.2862C18.9857 12.5779 19.4649 13.0781 19.7305 13.8596C19.8243 14.1305 19.8295 14.4274 19.8295 19.9552V25.7642L19.7097 26.1185C19.4701 26.801 18.9336 27.3533 18.2565 27.5981L17.9231 27.718H12.0477C6.30246 27.718 6.16703 27.718 5.87014 27.6138C5.14092 27.3637 4.66172 26.8844 4.37003 26.1237L4.25544 25.8163L4.23981 20.2678C4.22939 17.048 4.24502 14.5577 4.27627 14.3285C4.41691 13.1562 5.1878 12.3487 6.31288 12.1924C6.46914 12.1715 9.14121 12.1559 12.2508 12.1611L17.9023 12.1663L18.2096 12.2862Z" fill="#E6EAF4"/>
    <path d="M7.79735 13.682C6.50038 13.88 5.58886 15.1148 5.78679 16.3964C6.03681 17.9959 7.75047 18.8815 9.2037 18.1626C10.11 17.7145 10.6413 16.6934 10.485 15.6931C10.3496 14.8074 9.71936 14.0624 8.88076 13.7862C8.60991 13.6977 8.05258 13.6456 7.79735 13.682ZM8.49011 15.4222C8.97973 15.7191 8.97973 16.3756 8.49011 16.6725C7.88069 17.0424 7.14105 16.3026 7.51087 15.6931C7.6463 15.4743 7.90673 15.318 8.13592 15.318C8.23488 15.318 8.39635 15.3648 8.49011 15.4222Z" fill="#E6EAF4"/>
    <path d="M15.6103 13.682C14.3134 13.88 13.4018 15.1148 13.5998 16.3964C13.8498 17.9959 15.5635 18.8815 17.0167 18.1626C17.923 17.7145 18.4543 16.6934 18.298 15.6931C18.1626 14.8074 17.5324 14.0624 16.6937 13.7862C16.4229 13.6977 15.8656 13.6456 15.6103 13.682ZM16.3031 15.4222C16.7927 15.7191 16.7927 16.3756 16.3031 16.6725C15.6937 17.0424 14.954 16.3026 15.3239 15.6931C15.4593 15.4743 15.7197 15.318 15.9489 15.318C16.0479 15.318 16.2093 15.3648 16.3031 15.4222Z" fill="#E6EAF4"/>
    <path d="M7.79735 21.4969C6.50038 21.6949 5.58886 22.9297 5.78679 24.2113C6.03681 25.8108 7.75047 26.6964 9.2037 25.9775C10.11 25.5294 10.6413 24.5083 10.485 23.508C10.3496 22.6223 9.71936 21.8773 8.88076 21.6011C8.60991 21.5126 8.05258 21.4605 7.79735 21.4969ZM8.49011 23.2371C8.70887 23.3725 8.86513 23.633 8.86513 23.8622C8.86513 24.0915 8.70887 24.352 8.49011 24.4874C7.88069 24.8573 7.14105 24.1175 7.51087 23.508C7.6463 23.2891 7.90673 23.1329 8.13592 23.1329C8.23488 23.1329 8.39635 23.1797 8.49011 23.2371Z" fill="#E6EAF4"/>
    <path d="M15.6103 21.4969C14.3134 21.6949 13.4018 22.9297 13.5998 24.2113C13.8498 25.8108 15.5635 26.6964 17.0167 25.9775C17.923 25.5294 18.4543 24.5083 18.298 23.508C18.1626 22.6223 17.5324 21.8773 16.6937 21.6011C16.4229 21.5126 15.8656 21.4605 15.6103 21.4969ZM16.3031 23.2371C16.7927 23.534 16.7927 24.1905 16.3031 24.4874C15.6937 24.8573 14.954 24.1175 15.3239 23.508C15.4593 23.2891 15.7197 23.1329 15.9489 23.1329C16.0479 23.1329 16.2093 23.1797 16.3031 23.2371Z" fill="#E6EAF4"/>
</svg>
