<svg width="32" height="32" viewBox="0 0 32 32" fill="none" xmlns="http://www.w3.org/2000/svg">
    <path d="M5.42797 4.03448C3.86705 4.27706 2.50651 5.56904 2.10046 7.19325C1.94226 7.83133 1.9739 8.83855 2.17429 9.42389C2.30085 9.79303 2.30612 9.84577 2.24284 10.004C2.03718 10.5049 1.98972 10.9532 2.01608 12.2452C2.03718 13.3948 2.04772 13.5424 2.17429 13.9748C2.34831 14.5971 2.56979 15.0717 2.92838 15.6201C3.23424 16.0947 3.88814 16.7856 4.252 17.0281L4.47349 17.1758L4.48931 20.5349C4.5104 23.8466 4.5104 23.8941 4.63169 24.2843C5.05883 25.6923 6.17152 26.7628 7.59007 27.1267C8.46018 27.3482 9.21955 27.3165 10.0475 27.0318C10.5221 26.8683 11.2393 26.4253 11.5662 26.0878L11.7666 25.8769L12.141 26.1669C13.1799 26.9685 14.7461 27.3956 16.0961 27.2427C16.7974 27.1636 17.3037 27.0265 17.8837 26.7523L18.3373 26.5361L18.5007 26.6521C18.7328 26.8208 19.2759 27.0581 19.6714 27.1636C20.1882 27.306 21.2007 27.2954 21.7491 27.1425C23.231 26.7206 24.3595 25.608 24.7339 24.1947C24.8288 23.8361 24.8499 23.5724 24.871 22.2013L24.8974 20.6193L25.1558 20.3926C25.7833 19.8336 26.2632 18.9951 26.4372 18.1408L26.5057 17.8297L26.9329 17.5766C27.9348 16.9859 28.6098 16.0895 28.8946 14.9821C29.0212 14.4705 29.037 13.5741 28.921 13.0256C28.826 12.5827 28.5044 11.8918 28.1827 11.4383C28.0509 11.259 27.9454 11.085 27.9454 11.0586C27.9454 11.0323 28.0772 10.8108 28.2407 10.5682C28.8102 9.72975 29.0001 9.11276 29.0001 8.14773C29.0001 6.48661 28.1774 5.15244 26.6956 4.40889C26.0997 4.10831 25.6304 4.00811 24.8604 4.01339C24.4439 4.01866 24.0747 4.0503 23.9112 4.09249C23.6898 4.15577 23.6001 4.15577 23.3575 4.10303C22.5665 3.91846 21.5646 3.98702 20.8632 4.26651C20.5521 4.39307 20.5521 4.39307 20.2726 4.29815C19.624 4.07667 19.1915 4.00811 18.3742 4.01339C17.4777 4.02393 16.9082 4.13995 16.1224 4.47745L15.6953 4.66201L15.5054 4.56709C15.1996 4.40889 14.4508 4.16104 14.05 4.08194C13.2168 3.91846 11.9881 4.00811 11.1443 4.29815C10.8648 4.39834 10.8543 4.39834 10.6223 4.29815C9.99474 4.02921 9.89982 4.01866 7.74827 4.00284C6.63031 3.99757 5.58617 4.00811 5.42797 4.03448ZM9.48849 5.66923C9.64669 5.70087 9.97364 5.81689 10.2268 5.9329C10.4799 6.04892 10.7488 6.14384 10.8279 6.14384C10.907 6.14384 11.1443 6.07529 11.35 5.99091C12.0566 5.70087 12.315 5.64814 12.9953 5.64814C13.8601 5.64814 14.3453 5.7958 15.284 6.32841C15.4158 6.40224 15.6004 6.46024 15.7111 6.46024C15.8218 6.46024 16.0064 6.40224 16.1382 6.32841C17.0611 5.80107 17.5621 5.65341 18.4005 5.64814C19.0808 5.64287 19.3761 5.70087 20.0247 5.96454C20.262 6.06474 20.5204 6.14384 20.5995 6.14384C20.6734 6.14384 20.9423 6.04892 21.1954 5.9329C21.9601 5.57959 22.4769 5.54267 23.2468 5.7747L23.6001 5.88544L24.1169 5.74833C24.7128 5.59541 25.0028 5.58486 25.4405 5.6956C25.9151 5.81689 26.2948 6.0331 26.6218 6.35478C27.1333 6.86102 27.3653 7.42528 27.3653 8.15301C27.3653 8.80163 27.2335 9.12331 26.627 9.99342C26.1155 10.7264 26.0997 10.7581 26.0997 11.0323C26.0997 11.3751 26.0892 11.354 26.6798 12.1872C27.2335 12.9623 27.3653 13.3051 27.3653 13.9485C27.3653 15.1086 26.6798 16.0209 25.5354 16.3953C25.2138 16.5008 24.9554 16.7592 24.9185 17.0176C24.9026 17.1125 24.8815 17.3498 24.8657 17.5397C24.813 18.2568 24.428 18.8949 23.753 19.3959C23.5526 19.5488 23.3575 19.7281 23.3206 19.8019C23.2732 19.8969 23.2521 20.3451 23.2521 21.4894C23.2521 22.3437 23.2257 23.2244 23.1993 23.4406C23.0569 24.5375 22.1868 25.4181 21.0583 25.608C20.3675 25.7292 19.624 25.5025 19.0439 25.0068C18.5851 24.606 18.2687 24.606 17.6675 24.9962C16.4652 25.7767 15.0519 25.8453 13.7072 25.2019C13.2537 24.9804 13.1482 24.9013 12.6209 24.3634C12.083 23.815 12.0144 23.7623 11.7877 23.7306C11.5926 23.699 11.4977 23.7148 11.2973 23.815C11.0863 23.9205 11.0125 23.9996 10.8596 24.2843C10.6275 24.7115 10.1793 25.165 9.79962 25.3548C8.30198 26.1037 6.47738 25.2283 6.16625 23.5988C6.12933 23.4089 6.11351 22.1064 6.11879 19.8758C6.12933 15.9049 6.19262 16.3162 5.5018 15.8733C4.57896 15.2774 4.00943 14.4916 3.74048 13.4475C3.65611 13.11 3.63502 12.8622 3.63502 12.05C3.63502 11.0006 3.6772 10.7475 3.93033 10.2465C4.09908 9.91959 4.08853 9.67702 3.89869 9.27624C3.67193 8.79636 3.6192 8.52214 3.64556 7.9948C3.66666 7.56766 3.68775 7.47801 3.88814 7.07723C4.24146 6.36532 4.8479 5.86435 5.55981 5.69033C5.89203 5.61123 9.08244 5.59013 9.48849 5.66923Z" fill="#E6EAF4"/>
    <path d="M5.90234 7.35131C5.66504 7.42514 5.52793 7.53588 5.42246 7.73627C5.22734 8.12123 5.33809 8.58529 5.68613 8.81732C5.86015 8.93333 5.90761 8.9386 7.04139 8.9386H8.22264V10.7948C8.22264 12.5667 8.21736 12.6669 8.11717 12.8304C7.96951 13.0677 7.68475 13.189 7.43163 13.1099C7.32616 13.0782 7.18378 12.9938 7.10995 12.9147C6.98866 12.7882 6.98339 12.7355 6.95702 11.9761C6.93593 11.3222 6.90956 11.1482 6.83573 11.0269C6.51933 10.5417 5.73359 10.5628 5.42773 11.0585C5.33809 11.2114 5.32227 11.3275 5.32227 11.9814C5.32227 12.3927 5.34863 12.8567 5.38027 13.0097C5.62812 14.1856 6.7039 14.9081 7.94842 14.7341C8.88708 14.6022 9.60427 13.9378 9.79938 13.0097C9.8363 12.8251 9.85739 11.8917 9.85739 10.315V7.89974L9.74137 7.72572C9.67282 7.6308 9.55153 7.49897 9.47243 7.44096C9.33005 7.33549 9.25622 7.33022 7.67948 7.31967C6.77245 7.3144 5.97617 7.33022 5.90234 7.35131Z" fill="#E6EAF4"/>
    <path d="M22.1552 7.35703C22.0603 7.37812 21.9179 7.45195 21.8441 7.5205C21.5541 7.79472 21.5646 7.68398 21.5646 11.059C21.5646 14.6132 21.5435 14.4445 21.9918 14.6765C22.3873 14.8822 22.7828 14.782 23.0623 14.4023C23.1572 14.281 23.1783 14.165 23.1888 13.6535L23.2099 13.047L23.7425 13.7959C24.0378 14.2072 24.3384 14.5921 24.4122 14.6449C24.7445 14.8927 25.3087 14.7872 25.546 14.4339C25.6462 14.2915 25.6779 14.1703 25.6779 13.9646C25.6779 13.6535 25.7148 13.7167 24.523 12.0556C24.1433 11.5177 23.8374 11.0537 23.8533 11.0168C23.8638 10.9851 24.2119 10.4842 24.6285 9.90935C25.0398 9.33455 25.4458 8.75448 25.5302 8.62792C25.989 7.90546 25.3193 7.06172 24.5546 7.39922C24.3542 7.48886 24.2435 7.61015 23.7742 8.26933L23.2257 9.03397L23.1994 8.43808C23.1783 7.94238 23.1519 7.81581 23.0623 7.69453C22.8355 7.38867 22.5191 7.27265 22.1552 7.35703Z" fill="#E6EAF4"/>
    <path d="M12.3096 7.42558C11.5713 7.67343 11.0809 8.16386 10.8594 8.87577C10.7592 9.19217 10.7539 9.37147 10.7539 11.7287C10.7539 14.1228 10.7592 14.2441 10.8594 14.4076C11.0176 14.666 11.2021 14.7662 11.5502 14.7662C11.8982 14.7662 12.0828 14.6607 12.2568 14.3654C12.3517 14.2072 12.3623 14.0701 12.3781 13.221L12.3992 12.2613H13.0267H13.6543V13.2263C13.6543 14.3496 13.6912 14.4761 14.0814 14.6765C14.4769 14.8822 14.8724 14.782 15.1519 14.4023C15.2574 14.2599 15.2627 14.1861 15.2785 11.9027C15.289 10.3365 15.2732 9.42948 15.2363 9.20272C15.1045 8.44862 14.672 7.8791 13.9812 7.55215C13.6648 7.40449 13.5699 7.3834 13.0742 7.37285C12.7209 7.3623 12.4414 7.3834 12.3096 7.42558ZM13.3853 9.0867C13.591 9.22381 13.6543 9.46112 13.6543 10.0992V10.6793H13.0215H12.3887V10.0254C12.3887 9.44002 12.3992 9.36092 12.5047 9.22909C12.7262 8.94432 13.0795 8.89159 13.3853 9.0867Z" fill="#E6EAF4"/>
    <path d="M17.7416 7.42502C17.0191 7.66759 16.534 8.12638 16.2808 8.82247C16.1754 9.10196 16.1648 9.24961 16.1437 10.7947C16.1226 12.6088 16.1543 13.0201 16.3705 13.5C16.9927 14.9185 19.0968 15.2086 20.141 14.022C20.5048 13.6054 20.758 12.7881 20.663 12.3293C20.5839 11.9443 20.2939 11.7123 19.8773 11.7123C19.4238 11.7123 19.1337 11.9812 19.0652 12.4506C19.023 12.7828 18.907 12.9726 18.6855 13.0781C18.3586 13.231 17.9789 13.0886 17.8418 12.7617C17.7257 12.4822 17.7363 9.57656 17.8523 9.33399C18.058 8.89629 18.6117 8.83829 18.9175 9.22852C18.9808 9.30762 19.0494 9.48692 19.0652 9.63457C19.1337 10.1408 19.4765 10.4414 19.9458 10.3992C20.4046 10.357 20.6841 10.0353 20.6736 9.5502C20.663 8.66954 20.1884 7.91544 19.4132 7.55158C19.0968 7.40392 19.0019 7.38283 18.5062 7.37228C18.1529 7.36174 17.8734 7.38283 17.7416 7.42502Z" fill="#E6EAF4"/>
    <path d="M8.3018 16.5479C8.0645 16.6587 7.86411 16.9223 7.82719 17.1807C7.81137 17.302 7.80083 18.7575 7.81137 20.4186C7.82719 23.3875 7.82719 23.435 7.93794 23.5826C8.3018 24.0678 9.10863 24.0361 9.35121 23.5246C9.41976 23.3822 9.43558 23.1555 9.43558 22.3908V21.4364H9.80472C10.3057 21.4364 10.6643 21.352 11.0862 21.1358C11.9299 20.6928 12.3834 19.8332 12.3254 18.7944C12.2779 18.0297 11.9721 17.4338 11.4026 17.0014C10.8752 16.6006 10.5799 16.5215 9.43558 16.5005C8.68149 16.4794 8.42309 16.4952 8.3018 16.5479ZM10.3162 18.2512C10.601 18.4622 10.7117 18.6889 10.6907 19.0159C10.6537 19.5432 10.3479 19.8016 9.75726 19.8016H9.43558V18.9526V18.1036L9.80472 18.1247C10.0684 18.1405 10.2108 18.1721 10.3162 18.2512Z" fill="#E6EAF4"/>
    <path d="M14.9357 16.5584C14.1342 16.7746 13.5172 17.3916 13.3062 18.1879C13.2535 18.3883 13.2324 18.8945 13.2324 20.1971C13.2324 22.0955 13.2588 22.3117 13.533 22.8232C13.7334 23.1871 14.2185 23.6142 14.5877 23.7619C15.0412 23.9359 15.7531 23.9623 16.2224 23.8199C16.8869 23.6142 17.3931 23.1344 17.641 22.4646C17.7306 22.2273 17.7412 22.0006 17.757 20.3131C17.7728 18.6836 17.7623 18.383 17.6884 18.1246C17.3457 16.9487 16.1064 16.2473 14.9357 16.5584ZM15.8217 18.2354C16.1275 18.441 16.1328 18.4621 16.1328 20.2287C16.1328 21.8213 16.1328 21.8424 16.0115 22.0217C15.7637 22.3908 15.2363 22.3908 14.9885 22.0217C14.8672 21.8424 14.8672 21.8213 14.8672 20.2287C14.8672 18.7047 14.8724 18.6045 14.9726 18.441C15.0834 18.2617 15.3312 18.1194 15.5316 18.1141C15.5949 18.1141 15.7215 18.1668 15.8217 18.2354Z" fill="#E6EAF4"/>
    <path d="M18.7961 16.5167C18.601 16.5642 18.3584 16.7909 18.2951 16.986C18.2108 17.2339 18.2529 17.6136 18.3848 17.7929C18.5693 18.0407 18.7961 18.1146 19.3656 18.1146H19.8771V20.688C19.8771 23.2508 19.8771 23.2614 19.9984 23.4934C20.0617 23.6253 20.1883 23.7729 20.2885 23.8256C20.5258 23.968 20.9266 23.9575 21.1586 23.8151C21.5172 23.5936 21.5119 23.6411 21.5119 20.7302V18.1146H22.0551C22.7142 18.1146 22.9041 18.0355 23.0834 17.6927C23.2258 17.4026 23.231 17.2075 23.0886 16.9228C23.0095 16.7593 22.9199 16.6696 22.7564 16.5905C22.5455 16.4851 22.4506 16.4798 20.7156 16.4851C19.7189 16.4903 18.8541 16.5062 18.7961 16.5167Z" fill="#E6EAF4"/>
</svg>
