<svg width="32" height="32" viewBox="0 0 32 32" fill="none" xmlns="http://www.w3.org/2000/svg">
    <path d="M8.52808 2.12129C8.18004 2.35332 8.16422 2.44297 8.16422 4.01445V5.42773H7.01988C5.79117 5.43301 5.46949 5.46992 5.27437 5.65449C4.98433 5.92344 5.00015 5.57012 5.00015 12.2305C5.00015 18.2633 5.00015 18.4109 5.10562 18.6061C5.17418 18.7484 5.27965 18.8486 5.43785 18.9225C5.64879 19.0279 5.75425 19.0332 6.91441 19.0332H8.16422V23.7107C8.16422 28.9314 8.14312 28.6203 8.52808 28.8787L8.70738 29H16.2326H23.7578L23.9371 28.8787C24.322 28.6203 24.3009 28.9314 24.3009 23.7107V19.0332H25.5507C26.7109 19.0332 26.8164 19.0279 27.0273 18.9225C27.1855 18.8486 27.291 18.7484 27.3595 18.6061C27.465 18.4109 27.465 18.2633 27.465 12.2146V6.02363L27.3437 5.84961C27.2804 5.74941 27.1433 5.62285 27.0431 5.56484C26.8744 5.46465 26.7584 5.4541 25.5824 5.43828L24.3009 5.41719V4.01445C24.3009 2.44297 24.2851 2.35332 23.9371 2.12129L23.7578 2H16.2326H8.70738L8.52808 2.12129ZM22.6662 4.50488V5.42773H16.2326H9.79898V4.50488V3.58203H16.2326H22.6662V4.50488ZM25.8302 12.2305V17.3984H16.2326H6.63492V12.2305V7.0625H16.2326H25.8302V12.2305ZM22.6662 19.9561V20.8789H16.2326H9.79898V19.9561V19.0332H16.2326H22.6662V19.9561ZM22.6662 24.9658V27.418H16.2326H9.79898V24.9658V22.5137H16.2326H22.6662V24.9658Z" fill="#E6EAF4"/>
    <path d="M8.54375 8.75008C8.44883 8.80809 8.32754 8.92938 8.26953 9.0243C8.16934 9.19305 8.16406 9.29852 8.16406 12.2358V15.2733L8.28535 15.4473C8.34863 15.5423 8.46992 15.6741 8.54902 15.7321C8.69668 15.8376 8.74941 15.8429 10.0203 15.827C11.1752 15.8165 11.3809 15.8007 11.6393 15.7057C13.1158 15.1889 13.6537 13.3643 12.6992 12.0987L12.4461 11.7612L12.5568 11.4817C12.715 11.0809 12.7098 10.369 12.5463 9.94715C12.3775 9.52 11.9451 9.06121 11.4969 8.845L11.1488 8.67098L9.93066 8.65516C8.7916 8.64461 8.70723 8.64989 8.54375 8.75008ZM10.8746 10.3954C10.9537 10.4639 11.0275 10.5905 11.0434 10.6802C11.0697 10.812 11.0434 10.8805 10.9221 11.0124C10.785 11.1706 10.748 11.1811 10.2893 11.2128L9.79883 11.2444V10.7593V10.2794H10.2682C10.6848 10.2794 10.7586 10.2952 10.8746 10.3954ZM11.2016 12.9372C11.423 13.069 11.5391 13.28 11.5391 13.5436C11.5391 13.7177 11.5021 13.802 11.3703 13.9497C11.1594 14.1764 10.9432 14.2292 10.2893 14.2345H9.79883V13.5173V12.8001L10.4211 12.8212C10.8957 12.837 11.075 12.8634 11.2016 12.9372Z" fill="#E6EAF4"/>
    <path d="M14.8668 8.76046C14.4185 8.99776 14.4396 8.84483 14.4396 12.2304C14.4396 15.5157 14.4291 15.4314 14.7718 15.6792C14.9142 15.7847 14.9986 15.7899 16.3539 15.8058C18.0045 15.8216 18.0625 15.811 18.2787 15.3892C18.4843 14.9937 18.3841 14.5982 18.0045 14.3187C17.8726 14.2185 17.7724 14.2079 16.9656 14.1921L16.0744 14.1763V13.6226V13.0741H16.8021C17.4507 13.0741 17.5562 13.0636 17.7619 12.9528C18.2048 12.7314 18.342 12.2146 18.073 11.7769C17.899 11.4921 17.7144 11.4394 16.8443 11.4394H16.0744V10.8593V10.2792H16.9339C17.9148 10.2792 18.0677 10.2317 18.2787 9.87843C18.4949 9.50928 18.3841 9.06104 18.0045 8.78155C17.8673 8.67608 17.7777 8.67081 16.4804 8.65499C15.1199 8.63917 15.0935 8.63917 14.8668 8.76046Z" fill="#E6EAF4"/>
    <path d="M19.9716 8.76549C19.4601 9.10826 19.5075 9.90983 20.056 10.1735C20.2194 10.2526 20.3829 10.279 20.7046 10.279H21.1317L21.1476 12.8049C21.1634 15.2676 21.1686 15.3362 21.2741 15.4786C21.464 15.7317 21.6327 15.8266 21.9122 15.8319C22.2128 15.8372 22.4606 15.7159 22.6347 15.4838C22.7454 15.3362 22.7454 15.2835 22.7612 12.8049L22.777 10.279H23.2042C23.9267 10.279 24.2536 10.0417 24.2905 9.48795C24.3116 9.14518 24.1956 8.91842 23.9214 8.74967C23.7579 8.64948 23.6524 8.6442 21.9491 8.6442C20.1667 8.6442 20.1509 8.6442 19.9716 8.76549Z" fill="#E6EAF4"/>
    <path d="M15.389 24.1432C14.8564 24.4227 14.8406 25.1557 15.3574 25.5406C15.4892 25.6408 15.5789 25.6514 16.2328 25.6514C16.8867 25.6514 16.9763 25.6408 17.1082 25.5406C17.4879 25.2611 17.5986 24.8129 17.3824 24.4438C17.182 24.1062 16.9974 24.043 16.2328 24.043C15.6896 24.043 15.5367 24.0588 15.389 24.1432Z" fill="#E6EAF4"/>
</svg>
