<svg width="32" height="32" viewBox="0 0 32 32" fill="none" xmlns="http://www.w3.org/2000/svg">
    <path d="M10.1404 2.75974C9.53296 2.98379 9.08379 3.40063 8.79285 4.00505L8.62952 4.34894V8.38709V12.4252L8.79285 12.7639C8.87963 12.9515 9.04296 13.2068 9.15015 13.3319C9.38494 13.6132 9.84432 13.9259 10.1608 14.0144L10.4007 14.0822L8.44577 14.6397C7.36878 14.9471 6.43471 15.2285 6.36835 15.2702C6.3071 15.3119 5.75074 16.1195 5.12803 17.0678C4.03573 18.7456 4.0051 18.7977 4 19.0582C4 19.3813 4.13781 19.6366 4.37771 19.7616C4.46959 19.8137 4.84219 19.9336 5.2097 20.0378C5.5772 20.1368 5.91408 20.2306 5.96512 20.2462C6.04679 20.2723 6.05189 20.4598 6.05189 23.2475C6.05189 26.1185 6.057 26.2279 6.15398 26.3894C6.21012 26.478 6.32752 26.5926 6.4194 26.6395C6.69502 26.7854 15.7652 29.3333 16.0051 29.3333C16.245 29.3333 25.3152 26.7854 25.5908 26.6395C25.6827 26.5926 25.8001 26.478 25.8562 26.3894C25.9532 26.2279 25.9583 26.1185 25.9583 23.2475V20.2723L26.1523 20.2202C27.1068 19.9544 27.6019 19.7981 27.6989 19.7304C27.903 19.5793 28 19.3761 28 19.0686V18.7821L26.8822 17.073C26.2697 16.1299 25.7133 15.3275 25.6521 15.2806C25.5908 15.2337 24.6516 14.9471 23.5746 14.6397L21.6095 14.0822L21.8494 14.0144C22.1659 13.9259 22.6253 13.6132 22.8601 13.3319C22.9672 13.2068 23.1306 12.9515 23.2174 12.7639L23.3807 12.4252V8.38709V4.34894L23.2071 3.98421C22.9775 3.50484 22.5742 3.09321 22.1046 2.85874L21.7473 2.68158L16.0817 2.67116C10.5946 2.66074 10.4058 2.66074 10.1404 2.75974ZM21.4666 4.35936C21.5636 4.42189 21.6912 4.55215 21.7473 4.64594C21.8443 4.81268 21.8494 4.91168 21.8494 8.38709C21.8494 11.8625 21.8443 11.9615 21.7473 12.1282C21.6912 12.222 21.5636 12.3523 21.4666 12.4148C21.2982 12.5242 21.2165 12.5294 19.7516 12.5555C18.7563 12.5711 18.1897 12.6024 18.1438 12.6389C18.1029 12.6701 17.6078 13.0765 17.0413 13.5403L16.0051 14.3844L14.9741 13.5403C14.4024 13.0765 13.9073 12.6701 13.8664 12.6389C13.8205 12.6024 13.2539 12.5711 12.2586 12.5555C10.7937 12.5294 10.712 12.5242 10.5436 12.4148C10.4466 12.3523 10.319 12.222 10.2629 12.1282C10.1659 11.9615 10.1608 11.8625 10.1608 8.41314C10.1608 5.5161 10.1761 4.83873 10.2322 4.69805C10.3139 4.50526 10.5334 4.32289 10.7682 4.26557C10.855 4.24473 13.259 4.23431 16.1072 4.23431L21.288 4.24473L21.4666 4.35936ZM14.7188 15.4109C15.7193 16.2341 15.6733 16.2029 16.0051 16.2029C16.3369 16.2029 16.2909 16.2341 17.2914 15.4109C17.7048 15.0722 18.0723 14.796 18.108 14.796C18.2101 14.796 22.1302 15.9111 22.1302 15.9423C22.1302 15.958 20.752 16.3592 19.0676 16.8385L16.0051 17.7035L12.9426 16.8385C11.2582 16.3592 9.88005 15.958 9.88005 15.9423C9.88005 15.9111 13.7439 14.8064 13.8766 14.8012C13.9277 14.796 14.3054 15.0722 14.7188 15.4109ZM10.9315 17.9484C13.0038 18.5372 14.7035 19.027 14.7137 19.0322C14.7239 19.0426 13.7286 20.6005 13.6316 20.7204C13.6214 20.736 6.09273 18.6049 6.06721 18.5841C6.057 18.5684 7.13399 16.8854 7.15951 16.8802C7.16461 16.8802 8.85921 17.3596 10.9315 17.9484ZM25.4071 17.7243C25.7082 18.1881 25.9481 18.5736 25.943 18.5841C25.9175 18.6049 18.3888 20.736 18.3786 20.7204C18.3735 20.7152 18.1234 20.3348 17.8222 19.8763C17.2812 19.0426 17.2812 19.0426 17.4088 19.0009C17.5568 18.9488 24.7946 16.8854 24.8354 16.8854C24.8507 16.8854 25.1059 17.2606 25.4071 17.7243ZM10.7171 21.5957C12.7384 22.1689 13.8307 22.4555 13.994 22.4555C14.3462 22.4555 14.4789 22.346 14.8873 21.7208L15.2395 21.1789V24.3365V27.494L11.6053 26.4624C9.60442 25.8944 7.8792 25.4046 7.77712 25.3734L7.58316 25.316V23.0286C7.58316 21.5124 7.59847 20.736 7.6342 20.736C7.66482 20.736 9.04806 21.1216 10.7171 21.5957ZM24.4271 23.0286V25.316L24.2382 25.3734C24.131 25.4046 22.4058 25.8944 20.41 26.4624L16.7707 27.494V24.3365V21.1789L17.1229 21.7208C17.3169 22.0178 17.5415 22.3044 17.6231 22.3565C17.8988 22.544 18.1234 22.4972 21.2624 21.6009C22.906 21.132 24.2892 20.7464 24.3403 20.7412C24.4219 20.736 24.4271 20.8767 24.4271 23.0286Z" fill="#E6EAF4"/>
    <path d="M15.4692 5.43791C14.8822 5.5838 14.285 6.08401 14.04 6.63111C13.892 6.95938 13.8103 7.49606 13.8664 7.75137C13.943 8.1109 14.2901 8.3089 14.678 8.22553C14.9434 8.163 15.117 7.93895 15.1578 7.58985C15.2037 7.24074 15.3518 6.99585 15.6223 6.83432C16.1531 6.52169 16.832 6.94374 16.832 7.57943C16.832 7.98585 16.5359 8.35579 16.1684 8.41311C15.7754 8.47042 15.5764 8.56421 15.459 8.74658C15.3518 8.90811 15.3416 8.98105 15.3416 9.65842C15.3416 10.4765 15.3926 10.6484 15.6938 10.8099C16.0051 10.9715 16.3879 10.8673 16.5666 10.5598C16.638 10.44 16.6687 10.2993 16.6687 10.0544V9.71574L16.9953 9.54379C17.3986 9.33016 17.8018 8.90811 17.9855 8.5069C18.1131 8.23074 18.1234 8.14737 18.1234 7.57943C18.1234 6.98022 18.1183 6.93853 17.96 6.61027C17.5109 5.67759 16.4696 5.1878 15.4692 5.43791Z" fill="#E6EAF4"/>
    <path d="M15.6631 11.7747C15.1885 12.0716 15.2599 12.7852 15.7908 12.9727C15.9796 13.0404 16.0306 13.0404 16.2195 12.9727C16.6227 12.8268 16.7861 12.3633 16.5666 11.9987C16.3777 11.681 15.9745 11.5768 15.6631 11.7747Z" fill="#E6EAF4"/>
</svg>
