<svg width="32" height="32" viewBox="0 0 32 32" fill="none" xmlns="http://www.w3.org/2000/svg">
    <path d="M15.0448 4.06933C13.3436 4.45821 11.992 5.71125 11.4493 7.38558C11.2875 7.88247 11.2823 7.93108 11.2771 8.81685C11.2771 9.54059 11.2979 9.80524 11.371 10.0807C11.4232 10.2697 11.4545 10.4318 11.4388 10.448C11.4284 10.4588 11.2458 10.5074 11.037 10.5506C9.36187 10.9125 7.97374 12.2573 7.48842 13.9857C7.27968 14.731 7.29534 15.9462 7.52495 16.8158C7.55104 16.9238 7.53017 16.9292 6.98744 16.9616C6.32469 16.9994 5.95418 17.0967 5.37492 17.3775C4.29468 17.896 3.55887 18.6576 3.05789 19.7756C2.72391 20.5101 2.6665 20.7964 2.6665 21.8064C2.6665 22.8164 2.72391 23.1026 3.05789 23.8372C3.55365 24.9444 4.30512 25.7221 5.37492 26.2352C6.0168 26.5485 6.32991 26.6187 7.18053 26.6511C8.01027 26.6781 8.34948 26.6295 9.03311 26.3595C10.0403 25.9652 11.0735 25.0146 11.5171 24.064L11.6319 23.8102L11.8563 24.199C12.5608 25.4359 13.7193 26.2946 15.0762 26.5809C15.5928 26.6943 16.5634 26.6943 17.0279 26.5863C17.9046 26.3757 18.6091 25.9976 19.2458 25.3765C19.6841 24.9498 20.0338 24.4853 20.2321 24.064L20.3521 23.8048L20.5139 24.1234C21.0253 25.1118 21.9698 25.9706 22.9666 26.3595C23.645 26.6241 24.0311 26.6835 24.84 26.6511C25.6645 26.6187 25.9933 26.5431 26.6248 26.2352C27.705 25.7167 28.4408 24.9552 28.9418 23.8372C29.2758 23.1026 29.3332 22.8164 29.3332 21.8064C29.3332 20.7964 29.2758 20.5101 28.9418 19.7756C28.4408 18.6576 27.705 17.896 26.6248 17.3775C26.0455 17.0967 25.675 16.9994 25.0122 16.9616C24.4695 16.9292 24.4486 16.9238 24.4747 16.8158C24.7043 15.9462 24.72 14.731 24.5113 13.9857C24.0259 12.2573 22.6378 10.9125 20.9627 10.5506C20.7539 10.5074 20.5713 10.4588 20.5608 10.448C20.5452 10.4318 20.5765 10.2697 20.6287 10.0807C20.7591 9.5838 20.7591 8.09851 20.6287 7.60162C20.3312 6.50521 19.6111 5.4412 18.75 4.83628C18.3638 4.56623 17.6959 4.23676 17.2784 4.11794C16.8296 3.98831 15.5197 3.95591 15.0448 4.06933ZM16.8087 5.73826C17.3567 5.88408 17.7637 6.13253 18.2177 6.60242C18.8648 7.26675 19.131 7.92568 19.131 8.84386C19.131 9.37856 19.037 9.81065 18.8074 10.2859C18.6769 10.5668 18.6195 10.6316 18.4578 10.6856C18.176 10.7774 17.5811 11.1015 17.2523 11.3283C16.9287 11.5552 16.2973 12.1871 16.1668 12.4194C16.1199 12.5004 16.0625 12.5652 16.0416 12.5598C16.0207 12.549 15.8798 12.3923 15.7285 12.2141C15.1805 11.5552 14.4604 11.0367 13.7298 10.7612C13.354 10.6154 13.3436 10.61 13.1871 10.2805C12.9627 9.81065 12.8687 9.37856 12.8687 8.84386C12.8687 7.96349 13.1349 7.32076 13.7767 6.65103C14.2308 6.18114 14.737 5.87328 15.2797 5.73285C15.6659 5.64104 16.4382 5.64104 16.8087 5.73826ZM12.7904 12.2195C13.7193 12.4626 14.5439 13.1647 14.9405 14.0451C15.1388 14.488 15.2171 14.839 15.2171 15.3251C15.2171 15.8598 15.1231 16.2919 14.8987 16.7618C14.7422 17.0859 14.7213 17.1021 14.4186 17.2209C13.7872 17.4585 13.2758 17.7772 12.7748 18.2525L12.493 18.5117H12.0077C10.6143 18.5117 9.38797 17.5179 9.03311 16.1083C8.93395 15.6978 8.93395 14.9524 9.03311 14.542C9.29925 13.4618 10.2125 12.5058 11.251 12.2249C11.6319 12.1223 12.4043 12.1169 12.7904 12.2195ZM20.7226 12.2195C21.2705 12.3653 21.6776 12.6138 22.1316 13.0837C22.7787 13.748 23.0448 14.4069 23.0448 15.3251C23.0448 16.2379 22.7735 16.913 22.1368 17.5666C21.4845 18.2363 20.8478 18.5117 19.9659 18.5117C19.5171 18.5117 19.5171 18.5117 19.3345 18.3173C18.917 17.8636 18.3169 17.4693 17.6489 17.2155C17.388 17.1129 17.3567 17.0805 17.2105 16.7672C16.9809 16.2919 16.887 15.8652 16.887 15.3251C16.887 14.4069 17.1531 13.748 17.8002 13.0837C18.2438 12.6192 18.6561 12.3653 19.1831 12.2249C19.5641 12.1223 20.3364 12.1169 20.7226 12.2195ZM8.09377 18.7008C8.64172 18.8466 9.04876 19.095 9.50277 19.5649C10.1499 20.2293 10.416 20.8882 10.416 21.8064C10.416 22.7246 10.1499 23.3835 9.50277 24.0478C8.86089 24.7175 8.22423 24.993 7.33708 24.993C6.44994 24.993 5.81328 24.7175 5.1714 24.0478C4.5243 23.3835 4.25815 22.7246 4.25815 21.8064C4.25815 20.8882 4.5243 20.2293 5.1714 19.5649C5.61497 19.1004 6.02723 18.8466 6.55431 18.7062C6.93526 18.6036 7.7076 18.5982 8.09377 18.7008ZM16.8087 18.7008C17.3567 18.8466 17.7637 19.095 18.2177 19.5649C18.8648 20.2293 19.131 20.8882 19.131 21.8064C19.131 22.7246 18.8648 23.3835 18.2177 24.0478C17.5811 24.7121 16.934 24.993 16.0677 24.993C15.4936 24.993 15.1701 24.9174 14.643 24.6581C14.2829 24.4799 14.1212 24.3557 13.7767 23.9992C13.1349 23.3295 12.8687 22.6867 12.8687 21.8064C12.8687 20.926 13.1349 20.2833 13.7767 19.6135C14.2308 19.1437 14.737 18.8358 15.2797 18.6954C15.6659 18.6036 16.4382 18.6036 16.8087 18.7008ZM25.4193 18.7008C25.9672 18.8466 26.3743 19.095 26.8283 19.5649C27.4754 20.2293 27.7415 20.8882 27.7415 21.8064C27.7415 22.7246 27.4754 23.3835 26.8283 24.0478C26.1864 24.7175 25.5497 24.993 24.6626 24.993C23.7754 24.993 23.1388 24.7175 22.4969 24.0478C21.8498 23.3835 21.5837 22.7246 21.5837 21.8064C21.5837 20.8882 21.8498 20.2293 22.4969 19.5649C22.9405 19.1004 23.3527 18.8466 23.8798 18.7062C24.2608 18.6036 25.0331 18.5982 25.4193 18.7008Z" fill="#E6EAF4"/>
</svg>
