<svg width="32" height="32" viewBox="0 0 32 32" fill="none" xmlns="http://www.w3.org/2000/svg">
    <path d="M16.4681 2.74058C15.8845 2.90203 15.2852 3.29786 14.9465 3.74576C14.6078 4.19366 14.4515 4.60511 14.3004 5.45404L14.1597 6.23526L9.41255 7.50085C4.06619 8.92789 4.04013 8.9383 3.46694 9.51641C3.1126 9.88098 2.81558 10.4226 2.71136 10.8966C2.67488 11.0528 2.65925 11.407 2.66967 11.6778C2.68531 12.1309 2.85205 12.7819 4.73839 19.8026C6.18702 25.1982 6.83317 27.5315 6.94781 27.7711C7.2813 28.4481 7.97956 29.021 8.75077 29.2502C9.15722 29.37 9.89195 29.3595 10.4026 29.2241C11.721 28.8856 19.0631 26.9117 19.4122 26.8075C20.1939 26.5732 20.8504 26.0159 21.1943 25.2972C21.2934 25.0836 21.4028 24.9066 21.4393 24.9066C21.4705 24.9066 21.8822 24.9795 22.3564 25.0628C22.8306 25.1513 23.3933 25.2347 23.607 25.2503C24.8837 25.3493 26.1343 24.5159 26.5147 23.3129C26.5772 23.1149 27.239 19.4953 27.9841 15.261C29.4171 7.12065 29.4275 7.04774 29.2608 6.41755C29.0159 5.4905 28.3072 4.72489 27.437 4.43844C27.265 4.38116 24.9931 3.95929 22.3824 3.50097C17.3696 2.62079 17.0517 2.57913 16.4681 2.74058ZM22.2261 5.12072C24.6648 5.54779 26.7387 5.92277 26.8377 5.94881C27.3432 6.08423 27.7236 6.59984 27.7236 7.14149C27.7236 7.44877 25.1129 22.3493 24.9879 22.766C24.842 23.2452 24.3 23.6566 23.8206 23.6566C23.6695 23.6566 21.4236 23.266 21.3924 23.2347C21.3819 23.2243 21.0901 22.1462 20.741 20.8442C20.3919 19.5421 20.1001 18.438 20.0844 18.3963C20.0688 18.3391 20.1418 18.2766 20.3085 18.1932C20.9807 17.8703 22.2157 16.9276 22.9869 16.162C24.0812 15.0683 24.743 13.9121 24.9149 12.7924C25.1077 11.5268 24.3469 10.3237 23.1224 9.94869C22.643 9.80807 21.8353 9.8289 21.4497 10.0008L21.1943 10.1154L21.0068 9.94348C20.2303 9.24038 19.0631 9.08934 18.1095 9.56849C17.8802 9.68307 17.7604 9.72474 17.7447 9.68307C17.7343 9.64662 17.6405 9.29246 17.5311 8.89143C17.4269 8.4904 17.2706 8.01646 17.1872 7.83418C16.9996 7.43315 16.5098 6.8967 16.0981 6.6415C15.9261 6.53734 15.7907 6.41755 15.7907 6.37068C15.7907 6.17277 16.0147 5.13113 16.0877 4.9853C16.2753 4.62073 16.6192 4.35511 17.0048 4.28741C17.2758 4.24054 16.9527 4.18845 22.2261 5.12072ZM14.9257 7.89667C15.2227 7.98521 15.4936 8.18312 15.6604 8.43832C15.8115 8.67269 19.8552 23.6931 19.8552 24.0264C19.8552 24.5159 19.5842 24.9586 19.1621 25.1618C18.7817 25.344 9.81379 27.719 9.50114 27.719C8.97484 27.719 8.48501 27.3544 8.31827 26.8388C8.27658 26.7086 7.34904 23.266 6.25997 19.1932C4.80613 13.7819 4.27462 11.7143 4.27462 11.5111C4.27462 11.3549 4.31631 11.1414 4.37363 11.0268C4.47264 10.8028 4.82698 10.4539 5.0302 10.3758C5.09794 10.3497 7.16666 9.79245 9.6262 9.13101C12.0857 8.47478 14.1805 7.9123 14.2795 7.88626C14.5401 7.81334 14.6495 7.81334 14.9257 7.89667ZM19.8187 11.0841C19.9594 11.1726 20.0636 11.3132 20.1782 11.5476C20.2824 11.7663 20.3919 11.9226 20.5013 11.9851C20.9025 12.2351 21.2048 12.1934 21.606 11.8288C21.9395 11.5268 22.0646 11.4695 22.4033 11.4695C22.8514 11.4695 23.2266 11.808 23.3256 12.2872C23.3673 12.4955 23.2162 13.0319 22.9973 13.4694C22.5909 14.2819 21.778 15.1777 20.7202 15.9693C20.3919 16.2141 20.1053 16.4172 20.0792 16.4172C20.0375 16.4172 19.5425 15.6985 19.2976 15.2714C19.1777 15.0683 18.344 11.9851 18.344 11.7559C18.344 11.5684 18.5629 11.1987 18.74 11.0789C19.0735 10.8601 19.4852 10.8653 19.8187 11.0841Z" fill="#E6EAF4"/>
    <path d="M10.5017 12.5839C10.4184 12.6203 10.3037 12.7036 10.2516 12.7609C10.1057 12.9224 8.29232 18.3233 8.28711 18.5941C8.28711 18.7191 8.32359 18.8857 8.36527 18.9691C8.45907 19.1514 12.659 22.8544 12.9196 22.9898C13.0186 23.0419 13.1749 23.0835 13.2583 23.0835C13.4824 23.0835 13.8263 22.9012 13.9305 22.7242C14.1024 22.4325 15.8429 17.1931 15.8429 16.9691C15.8429 16.8493 15.796 16.6827 15.7439 16.5941C15.6344 16.4119 11.4449 12.7036 11.2156 12.5839C11.0385 12.4953 10.7102 12.4953 10.5017 12.5839ZM12.6851 15.9952C13.4459 16.6671 14.0712 17.2452 14.0712 17.2764C14.0712 17.3285 13.0446 20.4169 12.93 20.7034L12.8727 20.844L11.4449 19.5888L10.0171 18.3337L10.6216 16.5421C10.9603 15.5577 11.2469 14.7557 11.2625 14.7661C11.2834 14.7713 11.9191 15.3234 12.6851 15.9952Z" fill="#E6EAF4"/>
</svg>
