<svg width="32" height="32" viewBox="0 0 32 32" fill="none" xmlns="http://www.w3.org/2000/svg">
    <path d="M7.13322 2.70414C6.96411 2.77188 6.75272 3.05329 6.71044 3.25131C6.63117 3.67342 6.89012 4.12679 7.24948 4.19454C7.46616 4.23102 7.46616 4.26228 7.31818 4.78861C7.08037 5.65888 6.73686 6.48746 5.84374 8.35828C4.26361 11.6622 3.80912 12.9024 3.45504 14.8306C3.34935 15.4194 3.3335 15.6592 3.3335 16.8786C3.3335 18.0928 3.34935 18.3429 3.46033 18.937C4.10507 22.5171 6.17668 25.5448 9.30524 27.4834L9.7703 27.77H9.27353C8.87189 27.77 8.74506 27.7908 8.60766 27.8742C8.13732 28.1556 8.13732 28.9477 8.60766 29.2291C8.77148 29.3333 8.93003 29.3333 15.9904 29.3333C23.0508 29.3333 23.2094 29.3333 23.3732 29.2291C23.5952 29.0988 23.7167 28.8539 23.7167 28.5516C23.7167 28.2494 23.5952 28.0045 23.3732 27.8742C23.2358 27.7908 23.109 27.77 22.7073 27.77H22.2106L22.6809 27.4781C26.042 25.4041 28.2087 22.0012 28.6262 18.1449C28.7055 17.3684 28.6632 15.4507 28.547 14.8202C28.2299 13.1265 27.7701 11.881 26.3802 8.91588C26.0156 8.13941 25.5875 7.19618 25.4237 6.81056C25.1119 6.09141 24.6362 4.74692 24.5781 4.41862C24.5411 4.23623 24.5464 4.2258 24.7261 4.19454C24.8476 4.17369 24.9745 4.09552 25.0749 3.98088C25.3655 3.65257 25.355 3.19399 25.0537 2.87089L24.8793 2.67808L16.0591 2.66766C11.213 2.66245 7.19664 2.67808 7.13322 2.70414ZM22.9134 4.51242C23.1512 5.72142 23.574 6.82098 24.7789 9.35883C25.5611 10.9951 25.968 11.9123 26.1688 12.4595L26.2322 12.6471L25.8993 12.496C25.2281 12.1989 24.8106 12.1155 23.9704 12.1155C22.9451 12.1155 22.2317 12.2979 21.4178 12.7722C20.9317 13.0536 20.2499 13.6789 20.0015 14.075C19.9698 14.1271 19.9381 14.1114 19.8694 14.0124C19.658 13.6945 18.7966 12.9337 18.4214 12.7253C17.2218 12.0582 15.7368 11.9227 14.4367 12.3501C13.7127 12.5846 13.2371 12.8764 12.6822 13.4131C12.4179 13.6685 12.159 13.9395 12.1114 14.0124L12.0269 14.1375L11.9423 14.0124C11.7362 13.7102 10.9224 12.9806 10.5683 12.7774C9.65932 12.2667 9.05686 12.1103 7.98406 12.1155C7.28648 12.1208 7.1385 12.1364 6.72629 12.2615C6.46734 12.3344 6.14497 12.4543 6.00229 12.5272L5.74333 12.6575L5.87545 12.3032C6.1027 11.7091 6.52547 10.7502 7.04866 9.66108C8.42798 6.77929 8.88246 5.61198 9.09385 4.4082L9.12556 4.21538H15.9904H22.8553L22.9134 4.51242ZM8.72392 13.7779C9.56948 13.9551 10.415 14.57 10.8008 15.2996C11.5565 16.7222 11.1285 18.5045 9.82315 19.3591C9.43736 19.6092 8.78734 19.8333 8.30114 19.875C7.46616 19.9532 6.50434 19.604 5.89131 18.9995C5.27299 18.3898 4.9929 17.7905 4.95591 16.962C4.92949 16.3314 4.9929 15.9979 5.26242 15.4455C5.66935 14.6117 6.3775 14.0385 7.28648 13.804C7.74625 13.6841 8.23244 13.6737 8.72392 13.7779ZM16.947 13.8509C17.4015 13.9916 18.0145 14.3876 18.3316 14.7472C18.6275 15.0703 18.9657 15.7321 19.0556 16.1542C19.1507 16.5763 19.0979 17.4049 18.9604 17.7853C18.5747 18.8328 17.6657 19.6092 16.5559 19.8281C15.5359 20.0314 14.368 19.6457 13.6599 18.864C12.9834 18.1188 12.7192 17.0193 12.9781 16.0239C13.1261 15.4507 13.3639 15.0338 13.7973 14.6065C14.2148 14.1896 14.7327 13.903 15.3034 13.7779C15.7632 13.6737 16.4925 13.7102 16.947 13.8509ZM24.5623 13.7779C26.2587 14.1219 27.3209 15.7634 26.9562 17.4674C26.6814 18.765 25.6773 19.6561 24.2716 19.8542C23.685 19.9428 23.1248 19.8385 22.5012 19.5363C21.6979 19.1402 21.0532 18.3273 20.8524 17.4622C20.6251 16.4825 20.9581 15.3725 21.6979 14.6326C22.4642 13.8665 23.4895 13.559 24.5623 13.7779ZM12.7879 20.5785C14.4473 20.9954 15.425 22.5692 15.0656 24.242C14.6323 26.2691 12.2436 27.2905 10.452 26.2222C9.47964 25.6386 8.90889 24.6693 8.90889 23.5906C8.90889 22.7099 9.20483 22.0064 9.83372 21.381C10.6264 20.5994 11.7098 20.3023 12.7879 20.5785ZM20.5723 20.5525C21.7614 20.7766 22.7179 21.6833 22.998 22.861C23.1142 23.3352 23.072 24.1326 22.9134 24.5755C22.5963 25.477 21.7719 26.2431 20.826 26.5349C20.3503 26.6756 19.5946 26.686 19.1348 26.5506C18.0303 26.2275 17.1531 25.3259 16.8941 24.2576C16.8043 23.9033 16.8148 23.2623 16.9153 22.8454C17.1161 21.9751 17.7133 21.2195 18.4954 20.8339C19.1877 20.5004 19.8271 20.4118 20.5723 20.5525ZM6.1344 21.1049C6.54133 21.2872 7.20192 21.4644 7.46087 21.4644C7.556 21.4644 7.64584 21.4853 7.66169 21.5113C7.68283 21.5374 7.64584 21.6677 7.58771 21.8032C7.42916 22.1627 7.31818 22.6369 7.28119 23.1007L7.2442 23.5228L6.86898 22.9757C6.66288 22.6734 6.38279 22.2305 6.25067 21.9855C6.00229 21.5374 5.72219 20.9433 5.75919 20.9433C5.76976 20.9433 5.93887 21.0163 6.1344 21.1049ZM26.0526 21.3446C25.7989 21.9022 25.5558 22.3191 25.1119 22.9705L24.7367 23.5228L24.6997 23.0643C24.6732 22.762 24.594 22.4181 24.4777 22.0741C24.3773 21.7823 24.3086 21.527 24.3245 21.5009C24.335 21.4801 24.4249 21.4644 24.52 21.4644C24.7842 21.4644 25.4395 21.2872 25.8253 21.1101C26.0103 21.0215 26.1794 20.9485 26.2005 20.9485C26.2217 20.9433 26.1583 21.1257 26.0526 21.3446ZM16.223 26.5193C16.4713 26.8372 16.8677 27.1967 17.2535 27.4521L17.5389 27.6397L17.2271 27.6762C16.8254 27.7231 15.1554 27.7231 14.7538 27.6762L14.442 27.6397L14.7274 27.4521C15.1132 27.1967 15.5095 26.8372 15.7579 26.5193C15.8689 26.3786 15.9746 26.2587 15.9904 26.2587C16.0063 26.2587 16.112 26.3786 16.223 26.5193Z" fill="#E6EAF4"/>
</svg>
