<svg width="32" height="32" viewBox="0 0 32 32" fill="none" xmlns="http://www.w3.org/2000/svg">
    <path d="M14.3967 2.72368C11.9933 2.99457 9.51694 4.04166 7.57234 5.60448C6.94673 6.10459 5.78413 7.30275 5.31492 7.92788C4.2201 9.38651 3.43288 11.0431 3.00538 12.7778C2.70821 13.9864 2.6665 14.3875 2.6665 15.9712C2.6665 16.9141 2.69257 17.5861 2.73428 17.8726C3.20349 20.9253 4.50684 23.4675 6.68605 25.5826C8.22923 27.0829 9.9288 28.0987 11.9725 28.7499C13.2393 29.151 14.4853 29.3333 15.9868 29.3333C17.6134 29.3333 18.7864 29.1458 20.2827 28.6509C22.2325 28.0049 23.8799 26.9735 25.4283 25.4315C26.9715 23.8843 27.9881 22.2642 28.6502 20.295C29.1455 18.8103 29.3332 17.6278 29.3332 15.9972C29.3332 14.3667 29.1455 13.1946 28.6502 11.6995C28.2019 10.3503 27.3886 8.84473 26.4814 7.69866C26.1008 7.21419 24.7766 5.891 24.2918 5.51071C22.3941 4.01561 20.0428 3.03625 17.6551 2.73931C16.9409 2.65075 15.1057 2.64033 14.3967 2.72368ZM15.2048 5.20857V6.13584L14.8294 6.17231C14.0735 6.24003 12.7805 6.58906 11.9985 6.92767C11.8578 6.99018 11.7326 7.02665 11.7274 7.0006C11.717 6.97976 11.5137 6.62032 11.2739 6.20356L10.8307 5.4482L11.154 5.30234C12.1237 4.86475 13.3749 4.50009 14.3967 4.36464C14.7147 4.32297 15.0223 4.2865 15.0901 4.28129L15.2048 4.27608V5.20857ZM17.8897 4.41153C18.458 4.5053 19.2087 4.69284 19.7405 4.87517C20.2722 5.05228 21.1481 5.43257 21.1272 5.46904C21.1116 5.50029 20.2514 7.0006 20.2357 7.02665C20.2305 7.03186 20.0064 6.94851 19.7353 6.83911C18.8803 6.49008 17.9158 6.24524 17.1285 6.17231L16.7688 6.13584V5.20336V4.27087L17.0973 4.30213C17.2745 4.32297 17.6342 4.36985 17.8897 4.41153ZM9.89752 7.08395L10.3459 7.86016L9.99658 8.11021C9.55344 8.43319 8.41691 9.56884 8.09368 10.0116L7.84343 10.3607L7.06663 9.90745C6.63913 9.66261 6.28983 9.43861 6.28983 9.41256C6.28983 9.29274 7.09792 8.31337 7.67139 7.73513C8.25008 7.15168 9.27191 6.30775 9.39182 6.30775C9.4231 6.30775 9.64728 6.65678 9.89752 7.08395ZM23.124 6.68283C23.4003 6.8912 23.9164 7.35484 24.2761 7.71429C24.8705 8.30816 25.6838 9.28753 25.6838 9.41256C25.6838 9.43861 25.3345 9.66261 24.907 9.91266L24.1302 10.3607L23.8799 10.0116C23.5567 9.56884 22.4202 8.43319 21.977 8.11021L21.6277 7.86016L22.0813 7.08395C22.3263 6.65678 22.5505 6.30775 22.5766 6.30775C22.6026 6.30775 22.8529 6.47966 23.124 6.68283ZM17.0295 7.78722C21.9614 8.44361 25.2354 13.2467 24.0155 18.0289C22.9884 22.0558 19.0314 24.7491 14.9441 24.2073C10.0122 23.5509 6.73819 18.7478 7.95813 13.9656C8.98518 9.93871 12.9422 7.24545 17.0295 7.78722ZM6.2377 11.3088C6.65477 11.5484 6.99886 11.7464 7.00407 11.7516C7.00929 11.7516 6.92066 12.0016 6.80596 12.2986C6.68605 12.5955 6.53487 13.0279 6.46709 13.2571C6.32633 13.7207 6.13343 14.7626 6.13343 15.0387V15.2158H5.19501C4.63718 15.2158 4.2566 15.195 4.2566 15.169C4.2566 15.1377 4.29309 14.8408 4.3348 14.5021C4.41821 13.851 4.6059 13.0175 4.78315 12.4549C4.94998 11.9443 5.40877 10.8399 5.45047 10.8608C5.46611 10.8712 5.82063 11.0744 6.2377 11.3088ZM27.0184 11.9756C27.3416 12.8351 27.5658 13.8249 27.6909 14.9137L27.7222 15.2158H26.789H25.8558L25.8193 14.8564C25.7463 14.0646 25.4596 12.9602 25.0999 12.1162C25.0165 11.9183 24.9695 11.7464 24.9904 11.7412C25.0112 11.7307 25.371 11.5276 25.788 11.2827L26.544 10.8399L26.6848 11.1577C26.763 11.3296 26.9141 11.6995 27.0184 11.9756ZM6.15429 17.1381C6.22727 17.9299 6.4723 18.8833 6.84246 19.8001C6.94151 20.045 7.00407 20.2481 6.98322 20.2585C6.95715 20.2638 6.60264 20.4669 6.18557 20.7118L5.42962 21.1494L5.28364 20.8264C4.76751 19.6855 4.43907 18.4717 4.28267 17.0756L4.25139 16.7787H5.18459H6.11779L6.15429 17.1381ZM27.6909 17.0756C27.5345 18.4665 27.2061 19.6855 26.6848 20.8368L26.544 21.1546L25.788 20.7118C25.371 20.4669 25.0112 20.2638 24.9904 20.2533C24.9695 20.2481 25.0165 20.0762 25.0999 19.8783C25.4596 19.0343 25.7463 17.9299 25.8193 17.1381L25.8558 16.7787H26.789H27.7222L27.6909 17.0756ZM8.3335 22.2746C8.70365 22.7382 9.54301 23.5509 10.0018 23.8843L10.3459 24.1343L9.89752 24.9105C9.64728 25.3377 9.4231 25.6867 9.39704 25.6867C9.27191 25.6867 8.29179 24.8741 7.69746 24.2802C7.10313 23.6915 6.28983 22.707 6.28983 22.5819C6.28983 22.5559 6.63392 22.3319 7.06142 22.087L7.82779 21.639L7.93206 21.7745C7.98941 21.8474 8.17188 22.0766 8.3335 22.2746ZM25.6838 22.5819C25.6838 22.707 24.8705 23.6863 24.2761 24.2802C23.687 24.8741 22.7017 25.6867 22.5766 25.6867C22.5505 25.6867 22.3263 25.3377 22.0813 24.9105L21.6277 24.1343L21.977 23.8843C22.4202 23.5613 23.5567 22.4257 23.8799 21.9829L24.1302 21.6338L24.907 22.0818C25.3345 22.3319 25.6838 22.5559 25.6838 22.5819ZM12.327 25.1919C13.0412 25.4679 14.0057 25.7232 14.6991 25.8066L15.2048 25.8639V26.7963V27.7236L14.9076 27.6924C13.5104 27.5361 12.2957 27.2079 11.154 26.6922L10.8359 26.5463L11.2843 25.7545C11.5345 25.3169 11.7379 24.9626 11.7379 24.9574C11.7379 24.9574 12.0037 25.0616 12.327 25.1919ZM20.5225 25.4679C20.6789 25.744 20.8874 26.1035 20.9761 26.265L21.1429 26.5567L20.6372 26.7703C19.5945 27.2131 18.5675 27.4996 17.4831 27.6403C17.1442 27.6819 16.847 27.7184 16.8157 27.7184C16.7897 27.7184 16.7688 27.3381 16.7688 26.7859V25.8587L17.1285 25.8222C17.921 25.7493 18.9845 25.4732 19.8187 25.1189C20.022 25.0356 20.194 24.9626 20.2097 24.9626C20.2253 24.9626 20.3661 25.1866 20.5225 25.4679Z" fill="#E6EAF4"/>
    <path d="M11.6701 11.3453C11.3052 11.5224 11.1384 12.0382 11.3208 12.408C11.3677 12.507 11.8213 12.9967 12.3218 13.5072L13.2394 14.4241L13.109 14.7575C12.7702 15.6014 12.7702 16.3932 13.109 17.2371L13.2394 17.5705L12.3218 18.4874C11.8213 18.9979 11.373 19.4824 11.326 19.5762C11.154 19.9148 11.2635 20.3732 11.5711 20.592C11.7796 20.7431 12.1654 20.7743 12.3948 20.6597C12.4938 20.6128 12.9839 20.1596 13.4948 19.6595L14.4124 18.7427L14.746 18.8729C15.5906 19.2115 16.3831 19.2115 17.2276 18.8729L17.5613 18.7427L18.4789 19.6595C18.9898 20.1596 19.4798 20.6128 19.5789 20.6597C19.8083 20.7743 20.1941 20.7431 20.4026 20.592C20.7102 20.3732 20.8197 19.9148 20.6476 19.5762C20.6007 19.4824 20.1524 18.9979 19.6519 18.4874L18.7343 17.5705L18.8647 17.2371C19.0419 16.7996 19.1149 16.4349 19.1149 15.9973C19.1149 15.5597 19.0419 15.1951 18.8647 14.7575L18.7343 14.4241L19.6519 13.5072C20.1524 12.9967 20.6059 12.507 20.6529 12.408C20.7676 12.1788 20.7363 11.7933 20.5851 11.5849C20.3661 11.2776 19.9073 11.1682 19.5685 11.3401C19.4746 11.387 18.9898 11.835 18.4789 12.3351L17.5613 13.2519L17.2276 13.1217C16.7897 12.9446 16.4248 12.8717 15.9868 12.8717C15.5489 12.8717 15.184 12.9446 14.746 13.1217L14.4124 13.2519L13.4948 12.3351C12.9839 11.835 12.4991 11.387 12.4052 11.3401C12.1915 11.2359 11.8891 11.2359 11.6701 11.3453ZM16.4873 14.5751C16.6594 14.6324 16.8366 14.7523 17.0347 14.9502C17.358 15.2732 17.4987 15.5962 17.4987 15.9973C17.4987 16.3984 17.358 16.7214 17.0347 17.0444C16.4039 17.6747 15.5698 17.6747 14.9389 17.0444C14.3081 16.4141 14.3081 15.5806 14.9389 14.9502C15.3821 14.5074 15.9139 14.3772 16.4873 14.5751Z" fill="#E6EAF4"/>
</svg>
