<svg width="32" height="32" viewBox="0 0 32 32" fill="none" xmlns="http://www.w3.org/2000/svg">
    <path d="M14.1077 2.67757C14.025 2.69321 13.72 2.75054 13.4356 2.80788C10.5921 3.40208 8.17772 5.74241 7.45909 8.59876L7.34535 9.05744H6.66291C6.03734 9.05744 5.96496 9.06787 5.80469 9.17733C5.4583 9.41188 5.44796 9.45879 5.44796 11.3613V13.0709H4.98784C4.60009 13.0709 4.50703 13.0866 4.3571 13.1908C3.97452 13.4462 4.00037 13.0136 4.00037 19.3518C4.00037 25.6899 3.97452 25.2573 4.3571 25.5127C4.50703 25.617 4.60009 25.6326 4.98784 25.6326H5.44796V27.1807C5.44796 28.9164 5.4583 28.9841 5.80469 29.2135L5.98047 29.3333H15.1159H24.2512L24.427 29.2135C24.7734 28.9841 24.7837 28.9164 24.7837 27.1807V25.6326H25.2439C25.6316 25.6326 25.7247 25.617 25.8746 25.5127C26.2365 25.273 26.2313 25.3146 26.2313 22.5938V20.1597H27.4566C28.5733 20.1597 28.6974 20.1492 28.8939 20.0554C29.0283 19.9877 29.1472 19.8782 29.2196 19.7479L29.3333 19.5394L29.323 16.386C29.3075 13.2951 29.3075 13.2325 29.1989 13.0918C29.0025 12.8259 28.8318 12.7321 28.532 12.7321C28.2321 12.7321 28.0615 12.8259 27.8651 13.0918C27.7617 13.2325 27.7565 13.3003 27.741 15.8908L27.7255 18.5439H26.981H26.2313V16.1045C26.2313 13.3889 26.2365 13.4306 25.8746 13.1908C25.7247 13.0866 25.6316 13.0709 25.2439 13.0709H24.7837V11.3613C24.7837 9.45879 24.7734 9.41188 24.427 9.17733C24.2667 9.06787 24.1944 9.05744 23.5688 9.05744H22.8812L22.7726 8.59876C22.2194 6.36789 20.5805 4.37678 18.4712 3.38123C17.3286 2.84436 16.672 2.69321 15.2968 2.67236C14.7281 2.66193 14.1956 2.66714 14.1077 2.67757ZM16.2016 4.3403C17.401 4.53837 18.5332 5.11693 19.438 5.9926C20.4978 7.01943 21.1079 8.18699 21.3457 9.64122C21.4853 10.5117 21.6197 10.6211 22.5503 10.6211H23.181V11.846V13.0709H15.1159H7.05066V11.846V10.6211H7.68657C8.22942 10.6211 8.34316 10.6055 8.48792 10.5169C8.6637 10.4074 8.85499 10.0634 8.86016 9.84971C8.86016 9.78195 8.89635 9.55783 8.93771 9.33891C9.20655 8.04625 9.82178 6.92561 10.7782 6.00303C12.2465 4.5957 14.1646 4.00671 16.2016 4.3403ZM10.8765 19.3518V24.0689H8.23976H5.60306V19.3518V14.6346H8.23976H10.8765V19.3518ZM17.7525 19.3518V24.0689H15.1159H12.4792V19.3518V14.6346H15.1159H17.7525V19.3518ZM24.6286 19.3518V24.0689H21.9919H19.3552V19.3518V14.6346H21.9919H24.6286V19.3518ZM10.1268 25.7212C9.89933 26.2633 9.89933 27.139 10.1268 27.6758C10.163 27.7644 10.0699 27.7696 8.60683 27.7696H7.05066V26.7011V25.6326H8.60683C10.0699 25.6326 10.163 25.6378 10.1268 25.7212ZM18.0886 25.7733C18.6004 26.0496 18.8072 26.5812 18.6056 27.0816C18.5022 27.3266 18.3471 27.4882 18.0886 27.6289C17.8818 27.7436 17.8508 27.7436 15.1159 27.7436C12.3809 27.7436 12.3499 27.7436 12.1431 27.6289C11.2332 27.139 11.4141 25.8932 12.4275 25.6795C12.5257 25.6587 13.7975 25.6482 15.2451 25.6482C17.8353 25.6587 17.887 25.6587 18.0886 25.7733ZM23.181 26.7011V27.7696H21.6249C20.1618 27.7696 20.0687 27.7644 20.1049 27.6758C20.198 27.4569 20.2858 26.9878 20.2858 26.7011C20.2858 26.4144 20.198 25.9453 20.1049 25.7212C20.0687 25.6378 20.1618 25.6326 21.6249 25.6326H23.181V26.7011Z" fill="#E6EAF4"/>
    <path d="M14.7539 5.81485C14.6453 5.86698 14.4178 6.10674 14.1645 6.43512L13.7612 6.96678L13.1564 7.18569C12.8255 7.30558 12.5049 7.4411 12.4377 7.48279C12.2775 7.58704 12.1172 7.91542 12.1172 8.14476C12.1172 8.3741 12.1947 8.53568 12.598 9.11946L12.9134 9.57814L12.9444 10.3079C12.9702 10.9229 12.9909 11.0584 13.0788 11.1783C13.3838 11.5901 13.6372 11.6266 14.4695 11.3816L15.0899 11.1992L15.7672 11.3868C16.5427 11.6005 16.7185 11.5953 17.0028 11.3451C17.2355 11.1366 17.2872 10.9333 17.2872 10.2297V9.65633L17.6026 9.18722C18.1557 8.35325 18.2126 8.15518 18.0162 7.75905C17.8817 7.50364 17.7887 7.44631 17.0907 7.20133L16.5065 6.99805L16.0671 6.43512C15.6069 5.84613 15.4363 5.72103 15.1054 5.72103C15.0124 5.72103 14.8521 5.76273 14.7539 5.81485ZM15.3174 8.11348C15.4156 8.23858 15.5811 8.35846 15.7465 8.43144C15.8965 8.49398 16.0257 8.55653 16.036 8.56174C16.0464 8.56696 15.9792 8.68684 15.8965 8.82757C15.8086 8.96309 15.7362 9.14031 15.7362 9.2185C15.7362 9.29147 15.7207 9.42699 15.7052 9.5156L15.6741 9.67197L15.3846 9.59378C15.1106 9.52081 14.8986 9.53645 14.5833 9.65633C14.5212 9.68239 14.5057 9.62506 14.485 9.33317C14.4695 9.0517 14.4385 8.93703 14.3248 8.77024L14.1852 8.56174L14.485 8.42622C14.6763 8.33761 14.8469 8.21252 14.9348 8.09785C15.0124 7.9936 15.0951 7.9102 15.1158 7.9102C15.1416 7.9102 15.2295 7.99881 15.3174 8.11348Z" fill="#E6EAF4"/>
    <path d="M6.77162 16.7665C6.28564 17.0897 6.30115 17.8507 6.79747 18.1478C6.91638 18.2207 7.10767 18.2572 7.49024 18.2781L8.01758 18.3093L7.43338 19.6593C6.80264 21.1083 6.7406 21.3481 6.92672 21.6661C7.20073 22.13 7.96071 22.1769 8.26574 21.7442C8.30193 21.6869 8.7207 20.7487 9.19634 19.6645C9.90463 18.0435 10.0597 17.6422 10.0597 17.4389C10.0597 17.1522 9.93565 16.9072 9.70817 16.7665C9.55824 16.6779 9.43933 16.6675 8.23472 16.6675C7.03012 16.6675 6.91121 16.6779 6.77162 16.7665Z" fill="#E6EAF4"/>
    <path d="M13.6476 16.7665C13.1616 17.0897 13.1771 17.8507 13.6734 18.1478C13.7924 18.2207 13.9836 18.2572 14.3714 18.2781L14.8987 18.3093L14.3094 19.6593C13.6786 21.1083 13.6166 21.3481 13.8027 21.6661C14.0767 22.13 14.8367 22.1769 15.1417 21.7442C15.1779 21.6869 15.5967 20.7487 16.0723 19.6645C16.7806 18.0435 16.9357 17.6422 16.9357 17.4389C16.9357 17.1522 16.8116 16.9072 16.5841 16.7665C16.4342 16.6779 16.3153 16.6675 15.1107 16.6675C13.9061 16.6675 13.7872 16.6779 13.6476 16.7665Z" fill="#E6EAF4"/>
    <path d="M20.5236 16.7665C20.0376 17.0897 20.0531 17.8507 20.5494 18.1478C20.6683 18.2207 20.8596 18.2572 21.2474 18.2781L21.7747 18.3093L21.1853 19.6593C20.5546 21.1083 20.4925 21.3481 20.6787 21.6661C20.9527 22.13 21.7127 22.1769 22.0177 21.7442C22.0539 21.6869 22.4727 20.7487 22.9483 19.6645C23.6566 18.0435 23.8117 17.6422 23.8117 17.4389C23.8117 17.1522 23.6876 16.9072 23.4601 16.7665C23.3102 16.6779 23.1913 16.6675 21.9867 16.6675C20.7821 16.6675 20.6632 16.6779 20.5236 16.7665Z" fill="#E6EAF4"/>
</svg>
