<svg width="32" height="32" viewBox="0 0 32 32" fill="none" xmlns="http://www.w3.org/2000/svg">
    <path d="M13.1415 2.68888C13.0193 2.73578 12.8173 2.92338 12.7376 3.07971C12.5888 3.36111 12.6419 3.64251 12.9289 4.11151C13.0778 4.34601 13.1894 4.54925 13.184 4.55446C13.1734 4.55967 12.9927 4.61699 12.7801 4.67953C11.7756 4.97656 10.5161 5.60711 9.60724 6.27413C9.07577 6.66496 8.12975 7.55606 7.70458 8.07197C5.13757 11.183 4.6061 15.5395 6.34932 19.13C7.06681 20.5943 8.16696 21.9492 9.43717 22.9185L9.79326 23.1946V25.4823V27.77H9.02794C8.3264 27.77 8.25199 27.7804 8.08724 27.8899C7.60891 28.2025 7.60891 28.9008 8.08724 29.2135L8.26794 29.3333H16.0381H23.8082L23.9889 29.2135C24.0898 29.151 24.2121 29.0155 24.2599 28.9165C24.4459 28.5517 24.329 28.1139 23.9889 27.8899C23.8241 27.7804 23.7497 27.77 23.0482 27.77H22.2828V25.4563V23.1425L22.5911 22.9185C23.0641 22.5641 23.9038 21.746 24.3556 21.1988C25.5142 19.7814 26.237 18.1763 26.5718 16.2795C26.6994 15.5395 26.6994 13.8303 26.5665 13.0538C26.2901 11.4019 25.6524 9.88023 24.6745 8.53054C24.2759 7.97817 23.3352 7.00369 22.7771 6.55032C21.8364 5.79992 20.6459 5.14853 19.4926 4.75769C19.1737 4.65347 18.9027 4.55967 18.8921 4.55446C18.8867 4.54404 18.9983 4.34601 19.1472 4.11151C19.3597 3.76237 19.4129 3.63209 19.4129 3.4497C19.4129 3.18915 19.3279 2.99633 19.1206 2.80873L18.9771 2.67846L16.1018 2.66803C14.518 2.66282 13.184 2.67324 13.1415 2.68888ZM16.7715 4.77333C16.5802 5.08599 16.3357 5.47162 16.2347 5.63316C16.1337 5.79992 16.0434 5.93541 16.0381 5.93541C16.0327 5.93541 15.9424 5.79992 15.8414 5.63316C15.7404 5.47162 15.4959 5.08599 15.3046 4.77333L14.9485 4.21574H16.0381H17.1276L16.7715 4.77333ZM15.5863 8.16055C15.8308 8.32731 16.2453 8.32731 16.4951 8.16055C16.6174 8.08239 16.8671 7.73324 17.2976 7.0558C17.6378 6.51384 17.946 6.06047 17.9779 6.05005C18.0683 6.01878 18.7273 6.20117 18.7114 6.24807C18.7007 6.26892 18.148 7.58212 17.473 9.16109L16.2506 12.0376L16.0381 12.022L15.8308 12.0064L14.619 9.1194C13.9494 7.53001 13.4232 6.2116 13.4445 6.19075C13.471 6.16991 13.6305 6.12301 13.8059 6.08132L14.1194 6.00315L14.7625 7.02453C15.2036 7.72282 15.4641 8.08239 15.5863 8.16055ZM13.0884 9.74474L14.2948 12.6265L14.146 12.7776L13.9972 12.9235L11.191 11.7771C9.64976 11.1465 8.31045 10.5994 8.2201 10.5629L8.05535 10.4951L8.27857 10.1356C8.85255 9.2132 9.71885 8.25436 10.5373 7.64466C10.9731 7.32157 11.8182 6.80566 11.8554 6.84214C11.866 6.85777 12.4187 8.16055 13.0884 9.74474ZM20.7309 7.1027C21.6716 7.67592 22.5592 8.45759 23.1917 9.28616C23.5318 9.7291 23.9836 10.4326 23.9836 10.516C23.9836 10.5472 19.0993 12.5483 18.1799 12.8923C18.1374 12.9079 18.0311 12.861 17.946 12.7828L17.7866 12.6369L19.0143 9.75516C19.6839 8.17098 20.2633 6.87341 20.2898 6.87341C20.3217 6.87341 20.5184 6.97763 20.7309 7.1027ZM10.6702 13.33L13.3275 14.4139V14.6328V14.8568L10.3619 16.0554C8.725 16.712 7.38038 17.2383 7.36975 17.2279C7.3166 17.181 7.08275 16.0398 7.02961 15.602C6.90737 14.5338 7.01366 13.3144 7.32723 12.2565L7.40695 11.9855L7.70989 12.1158C7.87465 12.1835 9.20864 12.7307 10.6702 13.33ZM24.9243 13.2049C24.988 13.5436 25.0146 13.9501 25.0146 14.664C25.0146 15.6541 24.988 15.8678 24.7701 16.7902C24.6745 17.2175 24.6532 17.2488 24.5469 17.2227C24.4884 17.2071 23.1545 16.6703 21.5919 16.0293L18.7486 14.8673L18.7326 14.6536L18.7167 14.4452L19.0515 14.3045C19.2375 14.2315 20.5715 13.6896 22.0171 13.1059L24.6479 12.0481L24.7382 12.392C24.7914 12.5796 24.8711 12.9444 24.9243 13.2049ZM16.4473 13.7C16.4685 13.7 16.5748 13.7781 16.6811 13.8667C16.915 14.0648 17.0744 14.3826 17.0744 14.638C17.0744 15.0705 16.6758 15.5447 16.2613 15.6125C16.139 15.6281 16.0381 15.6437 16.0381 15.6437C16.0381 15.6437 15.9371 15.6281 15.8148 15.6125C15.4003 15.5447 15.0017 15.0705 15.0017 14.638C15.0017 14.3983 15.1611 14.0752 15.3631 13.8876C15.565 13.7052 15.9583 13.5958 16.2241 13.6531C16.325 13.6791 16.426 13.7 16.4473 13.7ZM14.146 16.4984L14.2895 16.6391L13.0459 19.5573C12.3656 21.1623 11.8022 22.4807 11.7969 22.4859C11.7916 22.4911 11.6056 22.3869 11.3824 22.2514C10.1068 21.4958 8.98542 20.3858 8.24136 19.156C8.05535 18.8538 8.02877 18.7808 8.09255 18.7443C8.18822 18.687 13.8909 16.3681 13.9547 16.3629C13.9813 16.3576 14.0663 16.4202 14.146 16.4984ZM21.0179 17.5562C22.6283 18.2128 23.957 18.7652 23.9729 18.7808C23.9889 18.7912 23.8985 18.9632 23.7816 19.1612C23.0375 20.3858 21.9161 21.4958 20.6406 22.2514C20.2951 22.4599 20.2314 22.4807 20.1942 22.4078C20.1729 22.3609 19.6202 21.0477 18.9665 19.4843L17.7813 16.6495L17.9195 16.5036C17.9939 16.4254 18.063 16.3629 18.0736 16.3576C18.0789 16.3576 19.4023 16.8944 21.0179 17.5562ZM17.4624 20.1774C18.1374 21.772 18.6688 23.0956 18.6529 23.1113C18.5944 23.1686 17.8451 23.3458 17.3402 23.4239C16.7502 23.5125 15.4109 23.5229 14.8422 23.4448C14.3745 23.3822 13.5082 23.1946 13.4126 23.1373C13.3594 23.1061 13.6624 22.3452 14.5871 20.167L15.8255 17.2383L16.0327 17.254L16.2453 17.2696L17.4624 20.1774ZM12.1052 24.4036C13.3063 24.8883 14.5552 25.1123 16.0115 25.1123C17.4571 25.1123 18.6848 24.8935 19.9018 24.414C20.2314 24.289 20.5449 24.1639 20.5981 24.1483C20.6831 24.1118 20.6884 24.2212 20.6884 25.9409V27.77H16.0381H11.3877V25.9409C11.3877 24.4974 11.4036 24.117 11.4568 24.1431C11.4887 24.1587 11.7863 24.2733 12.1052 24.4036Z" fill="#E6EAF4"/>
</svg>
