<svg width="32" height="32" viewBox="0 0 32 32" fill="none" xmlns="http://www.w3.org/2000/svg">
    <path d="M14.8117 3.07334C9.9072 3.67982 5.73572 6.9284 3.89521 11.5692C3.51023 12.529 3.16744 13.9424 3.05142 15.0288C2.98286 15.688 2.98286 17.3017 3.05142 17.9609C3.57879 22.9393 6.85901 27.2268 11.5737 29.0989C12.5335 29.4839 13.9468 29.8267 15.0332 29.9427C15.6924 30.0113 17.3062 30.0113 17.9654 29.9427C23.3234 29.3732 27.8746 25.6025 29.4409 20.429C29.8311 19.1475 29.9999 17.9609 29.9999 16.4948C29.9999 15.3927 29.9472 14.7862 29.7573 13.8316C28.8713 9.33847 25.744 5.60471 21.4249 3.89076C20.4651 3.50578 19.0518 3.163 17.9654 3.04697C17.2745 2.97314 15.492 2.98896 14.8117 3.07334ZM17.9548 4.91913C22.4849 5.51505 26.2292 8.63707 27.6215 12.9773C28.3387 15.2186 28.3387 17.7711 27.6215 20.0124C26.4665 23.6196 23.624 26.4621 20.0168 27.617C17.7755 28.3343 15.2231 28.3343 12.9818 27.617C9.37456 26.4621 6.53204 23.6196 5.37711 20.0124C4.65989 17.7711 4.65989 15.2186 5.37711 12.9773C6.64279 9.02205 9.96521 5.98441 13.9837 5.09843C15.1809 4.84002 16.7735 4.76619 17.9548 4.91913Z" fill="#E6EAF4"/>
    <path d="M16.0985 9.31771C15.9139 9.40209 15.5342 9.86617 13.3668 12.6401C11.9798 14.4174 10.7932 15.952 10.7247 16.0522C10.4768 16.4213 10.5137 16.896 10.8196 17.2229C11.0674 17.4866 11.1255 17.4972 12.5915 17.4972H13.9627L13.9785 20.3397L13.9943 23.1822L14.1525 23.3826C14.4742 23.7781 14.4584 23.7729 16.4993 23.7729C18.5402 23.7729 18.5244 23.7781 18.8461 23.3826L19.0043 23.1822L19.0201 20.3397L19.036 17.4972H20.4071C21.8732 17.4972 21.9312 17.4866 22.1791 17.2229C22.4849 16.896 22.5219 16.4213 22.274 16.0522C22.2054 15.952 21.0189 14.4174 19.6319 12.6401C16.9318 9.18059 16.9687 9.21751 16.4993 9.21751C16.3991 9.21751 16.2198 9.26497 16.0985 9.31771ZM18.0709 13.6738L19.595 15.625L18.6879 15.6514C17.8336 15.6778 17.7703 15.683 17.591 15.8096C17.4802 15.8834 17.3484 16.0364 17.2904 16.1577C17.1902 16.3633 17.1849 16.4846 17.1849 19.1478V21.9271H16.4993H15.8137V19.1478C15.8137 16.4846 15.8085 16.3633 15.7083 16.1577C15.6503 16.0364 15.5184 15.8834 15.4077 15.8096C15.2284 15.683 15.1651 15.6778 14.3108 15.6514L13.4037 15.625L14.9383 13.6632C15.7821 12.5821 16.4888 11.7014 16.5099 11.712C16.531 11.7172 17.2324 12.5979 18.0709 13.6738Z" fill="#E6EAF4"/>
</svg>
