<svg width="184" height="24" viewBox="0 0 184 24" fill="none" xmlns="http://www.w3.org/2000/svg">
<g clip-path="url(#clip0_1663_5526)">
<path d="M10.1984 0.196722C5.90155 0.823587 2.13953 3.99374 0.695348 8.18478C-1.15892 13.5937 1.24806 19.8445 6.24031 22.6027C8.09457 23.6236 9.34264 23.9102 12.0349 23.9102C14.7271 23.9102 15.9574 23.6236 17.8295 22.6027C23.7132 19.3609 25.7636 11.6415 22.269 5.80269C21.4845 4.51314 19.5767 2.59672 18.293 1.80866C16.938 0.984781 15.3155 0.429558 13.6574 0.196722C12.1062 -0.0182037 11.7853 -0.0182037 10.1984 0.196722ZM14.8341 2.07732C17.2411 2.81165 19.6302 4.65642 20.914 6.82359C23.3388 10.9251 22.6969 15.9579 19.3093 19.3967C15.2977 23.4624 8.77209 23.4624 4.76046 19.3967C0.570542 15.134 0.695349 8.66836 5.04574 4.54896C6.65039 3.02657 8.62946 2.05941 10.7868 1.71911C11.6605 1.59374 13.8178 1.79075 14.8341 2.07732Z" fill="white"/>
<path d="M5.91938 9.52811C4.99225 10.3162 4.84961 10.6565 5.36667 10.9789C5.58062 11.1221 5.79458 11.0684 6.22248 10.7639L6.7752 10.3699V12.3401V14.3281H6.06202C5.42016 14.3281 5.34884 14.3639 5.34884 14.7759V15.2236H7.22093H9.09303V14.7759C9.09303 14.3998 9.00388 14.3281 8.55814 14.3281H8.02326V11.552V8.77587H7.43489C7.00698 8.77587 6.5969 8.9908 5.91938 9.52811Z" fill="white"/>
<path d="M10.5372 9.24114C10.0915 9.59935 9.98449 9.85009 9.98449 10.3695C9.98449 10.8173 10.1093 11.1576 10.3232 11.3546C10.6442 11.659 10.6442 11.677 10.2341 12.0889C9.77054 12.5546 9.64573 13.7008 9.98449 14.3456C10.6085 15.5098 13.4612 15.5098 14.0853 14.3456C14.424 13.7008 14.2992 12.5546 13.8357 12.0889C13.4256 11.677 13.4256 11.659 13.7465 11.3546C13.9605 11.1576 14.0853 10.8173 14.0853 10.3695C14.0853 9.38442 13.3186 8.77547 12.0349 8.77547C11.2682 8.77547 10.9651 8.86502 10.5372 9.24114ZM12.6232 9.88591C12.7481 10.0113 12.8372 10.262 12.8372 10.477C12.8372 10.6919 12.7481 10.9426 12.6232 11.068C12.124 11.5695 11.2326 11.1934 11.2326 10.477C11.2326 10.262 11.3217 10.0113 11.4465 9.88591C11.5713 9.76054 11.8209 9.67099 12.0349 9.67099C12.2488 9.67099 12.4984 9.76054 12.6232 9.88591ZM12.6232 12.465C13.3543 12.9665 12.9442 14.3277 12.0705 14.3277C11.1256 14.3277 10.6977 12.9844 11.4465 12.465C11.6605 12.3038 11.9279 12.1785 12.0349 12.1785C12.1419 12.1785 12.4093 12.3038 12.6232 12.465Z" fill="white"/>
<path d="M16.7597 10.9247V11.8203H15.8682C15.0302 11.8203 14.9767 11.8561 14.9767 12.268C14.9767 12.68 15.0302 12.7158 15.8682 12.7158H16.7597V13.6113C16.7597 14.4531 16.7954 14.5068 17.2054 14.5068C17.6155 14.5068 17.6512 14.4531 17.6512 13.6113V12.7158H18.5426C19.3806 12.7158 19.4341 12.68 19.4341 12.268C19.4341 11.8561 19.3806 11.8203 18.5426 11.8203H17.6512V10.9247C17.6512 10.083 17.6155 10.0292 17.2054 10.0292C16.7954 10.0292 16.7597 10.083 16.7597 10.9247Z" fill="white"/>
<path d="M180.078 0.376152C178.99 0.823913 178.295 1.89854 178.295 3.17018C178.295 4.65675 179.275 5.74929 180.826 6.00003C181.718 6.16123 183.037 5.53436 183.59 4.67466C184.089 3.92242 184.143 2.36421 183.715 1.61197C183.019 0.465704 181.326 -0.12534 180.078 0.376152ZM182.663 1.43287C182.912 1.6657 183.198 2.14929 183.305 2.5075C183.465 3.06272 183.447 3.29556 183.144 3.97615C182.467 5.51645 180.719 5.80302 179.596 4.5672C179.115 4.0657 179.008 3.79705 179.008 3.13436C179.008 1.6657 179.899 0.841824 181.379 0.949286C181.967 1.00302 182.378 1.16421 182.663 1.43287Z" fill="white"/>
<path d="M179.899 3.04431C179.899 4.53088 179.917 4.65625 180.256 4.65625C180.541 4.65625 180.612 4.53088 180.612 4.02938C180.612 3.45625 180.666 3.40252 181.129 3.40252C181.647 3.40252 181.86 3.65326 181.86 4.31595C181.86 4.54879 181.985 4.65625 182.235 4.65625C182.52 4.65625 182.574 4.58461 182.467 4.26222C182.413 4.04729 182.36 3.42043 182.36 2.88312C182.36 2.32789 182.288 1.77267 182.181 1.66521C182.074 1.52192 181.575 1.43237 180.951 1.43237H179.899V3.04431ZM181.771 2.32789C181.771 2.507 181.557 2.61446 181.201 2.65028C180.702 2.70401 180.612 2.65028 180.612 2.32789C180.612 2.0055 180.702 1.95177 181.201 2.0055C181.557 2.04132 181.771 2.14879 181.771 2.32789Z" fill="white"/>
<path d="M88.2558 6.71632C88.2558 7.28945 88.2915 7.34318 88.7907 7.34318H89.3256V12.179V17.0148H88.7907C88.2915 17.0148 88.2558 17.0686 88.2558 17.6417V18.2686H89.593H90.9302V17.6059V16.9432L91.4294 17.4089C92.1426 18.0895 92.5884 18.2686 93.5155 18.2686C94.5318 18.2686 95.138 17.9641 95.976 17.0327C97.7054 15.1163 97.438 11.5163 95.4411 9.86855C94.2465 8.86557 92.8915 8.90139 91.6791 9.95811L90.9302 10.6029V8.34617V6.08945H89.593H88.2558V6.71632ZM94.6031 10.9432C95.031 11.3551 95.5659 12.788 95.5659 13.5402C95.5659 14.4357 95.1558 15.7969 94.7457 16.2984C93.8542 17.3372 92.1961 17.0865 91.3403 15.779C90.9837 15.2596 90.9302 14.9372 90.9302 13.5939C90.9302 12.0715 90.948 11.982 91.5008 11.3551C91.8217 10.9969 92.2318 10.6387 92.4279 10.5492C93.0163 10.2984 94.1395 10.4954 94.6031 10.9432Z" fill="white"/>
<path d="M97.7054 6.62676C97.7054 7.11034 97.7589 7.16408 98.2403 7.16408H98.7752V12.0894V17.0148H98.1512C97.5628 17.0148 97.5271 17.0506 97.5271 17.6417V18.2686H99.4884H101.45V17.6417C101.45 17.0686 101.414 17.0148 100.915 17.0148H100.38V11.5521V6.08945H99.0426H97.7054V6.62676Z" fill="white"/>
<path d="M56.9829 6.53743C54.6829 7.36131 53.114 10.6747 53.6488 13.63C54.3798 17.8389 58.1954 19.8091 60.9767 17.427L61.6899 16.8001V17.4449C61.6899 18.0718 61.7078 18.0897 62.4031 18.0897H63.1163V15.224V12.3583H61.0659H59.0155V12.9852V13.6121H60.3527C61.0837 13.6121 61.6899 13.6658 61.6899 13.7374C61.6899 14.2389 61.2442 15.2956 60.8519 15.7613C59.9426 16.8538 58.445 17.1941 57.2682 16.5852C55.3961 15.618 54.6829 11.7673 55.9132 9.47474C57.1969 7.12847 60.0496 7.11056 61.155 9.43892C61.5651 10.3165 61.6364 10.3703 62.2783 10.3882H62.938V8.41802V6.44787H62.2248C61.5295 6.44787 61.5116 6.46578 61.5116 7.07474V7.71952L60.8341 7.16429C59.7109 6.26877 58.3558 6.03593 56.9829 6.53743Z" fill="white"/>
<path d="M32.6279 7.61125C32.6279 8.5426 32.6457 8.59633 33.0736 8.59633H33.5194V12.3575V16.1187H33.0736C32.6457 16.1187 32.6279 16.1724 32.6279 17.1038V18.0889H36.2473C40.2232 18.0889 40.7581 17.9635 41.7566 16.8889C42.9155 15.671 42.6837 13.1814 41.3287 12.3575L40.7938 12.0351L41.2395 11.7307C42.7015 10.7635 42.1845 7.77245 40.4194 6.91275C39.9023 6.67991 39.1713 6.62618 36.2116 6.62618H32.6279V7.61125ZM39.207 9.02618C39.6884 9.45603 39.6884 10.2799 39.2248 10.7456C38.9217 11.0501 38.6364 11.1038 37.4419 11.1038H36.0155V9.83215V8.56051L37.424 8.61424C38.4938 8.66797 38.9217 8.77543 39.207 9.02618ZM39.3496 13.5396C39.8845 13.9336 40.045 14.4351 39.8488 15.1695C39.7062 15.7784 38.7791 16.1187 37.2636 16.1187H36.0155V14.7038C36.0155 13.0739 35.962 13.1277 37.8341 13.1456C38.5651 13.1635 38.9752 13.271 39.3496 13.5396Z" fill="white"/>
<path d="M115 7.0921C114.893 7.34285 114.822 7.5936 114.822 7.64733C114.822 7.70106 114.216 9.63539 113.467 11.9279C112.201 15.8324 112.076 16.119 111.684 16.119C111.274 16.119 111.256 16.1727 111.256 17.1936V18.2682H112.664H114.073L114.447 17.0145L114.84 15.7608H116.747H118.655L119.012 16.9787L119.368 18.1787L120.759 18.2324L122.132 18.2861V17.1936C122.132 16.1906 122.096 16.119 121.722 16.119C121.365 16.119 121.187 15.707 119.743 11.3727L118.174 6.62643H116.676C115.232 6.62643 115.16 6.64434 115 7.0921ZM117.942 13.4682C118.049 13.7548 117.924 13.7906 116.694 13.7906C115.66 13.7906 115.339 13.7369 115.41 13.5578C115.446 13.4503 115.749 12.4294 116.088 11.3011L116.676 9.27718L117.247 11.2115C117.567 12.2861 117.871 13.307 117.942 13.4682Z" fill="white"/>
<path d="M46.9806 9.11572C44.9481 9.63512 43.7 11.3545 43.6822 13.6292C43.6822 15.3306 44.0744 16.3157 45.1264 17.265C45.7861 17.856 46.2674 18.1247 46.9628 18.2859C49.1736 18.7695 51.4915 17.5157 51.9907 15.5097L52.1155 14.9903L50.9566 15.0799C49.9047 15.1336 49.7264 15.2053 49.3163 15.7068C48.2822 16.9426 46.5884 16.4411 46.0892 14.7217L45.9822 14.3277H49.138H52.2938L52.1868 13.4321C51.9729 11.6769 51.0457 10.1724 49.7442 9.49184C48.9775 9.09781 47.7116 8.9187 46.9806 9.11572ZM49.1202 11.5515C49.9581 12.3754 49.762 12.5366 47.8721 12.5366C46.7845 12.5366 46.1783 12.465 46.1783 12.3396C46.1783 12.2321 46.4101 11.9097 46.6954 11.6232C47.3907 10.9247 48.4783 10.8889 49.1202 11.5515Z" fill="white"/>
<path d="M83.531 9.04467C83.4419 9.0805 83.1388 9.15214 82.8713 9.20587C82.6039 9.27751 82.1046 9.5999 81.7659 9.9402L81.1419 10.5492L80.7853 9.9402C80.1791 8.90139 78.4139 8.84766 77.1837 9.85065L76.5062 10.388L76.4527 9.79691L76.3992 9.22378H75.062H73.7248L73.6713 9.88647C73.6178 10.5492 73.6178 10.5671 74.2419 10.5671H74.8837V13.7909V17.0148H74.2597C73.6713 17.0148 73.6357 17.0506 73.6357 17.6417V18.2686H75.5969H77.5581V17.6417C77.5581 17.0506 77.5225 17.0148 76.9341 17.0148H76.3101V14.7581C76.3101 12.3223 76.4705 11.6954 77.2907 10.9253C77.5938 10.6387 77.9682 10.4954 78.4853 10.4954C79.6085 10.4775 79.6977 10.7283 79.6977 14.7223V18.0895H81.0349H82.3721V17.4626C82.3721 16.8715 82.3364 16.8357 81.7481 16.8357H81.124V14.6506C81.124 12.8059 81.1775 12.3581 81.4984 11.6954C81.9263 10.7999 82.6574 10.3342 83.4953 10.4238C84.4046 10.5133 84.5116 10.9432 84.5116 14.7223V18.0895H85.8488H87.186V17.4626C87.186 16.8715 87.1504 16.8357 86.562 16.8357H85.938V13.8805C85.938 10.6745 85.7775 9.92229 85.0108 9.42079C84.5651 9.13423 83.8163 8.93721 83.531 9.04467Z" fill="white"/>
<path d="M154.492 9.11596C153.119 9.47417 151.782 10.6742 151.354 11.9279C151.033 12.8592 151.069 14.7936 151.426 15.6175C152.192 17.4443 153.529 18.3398 155.473 18.3398C156.774 18.3398 157.719 17.9458 158.54 17.0682C158.95 16.6384 159.574 15.4742 159.574 15.116C159.574 15.0622 159.057 15.0443 158.415 15.0801C157.416 15.1697 157.22 15.2413 156.81 15.7249C155.901 16.8175 154.421 16.5846 153.797 15.2772C153.636 14.9548 153.512 14.5966 153.512 14.507C153.512 14.3995 154.813 14.31 156.596 14.2921L159.663 14.2384L159.609 13.3607C159.538 11.7488 158.575 10.1727 157.256 9.49208C156.489 9.09805 155.223 8.91895 154.492 9.11596ZM156.56 11.6234C156.846 11.91 157.078 12.2324 157.078 12.3398C157.078 12.4652 156.453 12.5369 155.295 12.5369C153.583 12.5369 153.512 12.5189 153.69 12.1966C154.296 11.0503 155.705 10.7637 156.56 11.6234Z" fill="white"/>
<path d="M66.593 9.45629C65.755 9.85032 65.1845 10.4414 64.917 11.1578C64.6139 11.9279 64.6674 11.9996 65.4876 11.9996C66.2008 11.9996 66.2721 11.9458 66.4682 11.4085C66.8248 10.4414 68.2333 10.0652 69.3387 10.6563C69.9271 10.9429 70.0698 11.2473 70.0698 12.107C70.0698 12.6981 70.0519 12.716 69.3209 12.716C68.269 12.716 66.3969 13.1817 65.5946 13.6473C63.8116 14.6503 64.0791 17.2115 66.0403 18.107C67.217 18.6444 68.3225 18.4832 69.4992 17.6055L70.0698 17.1757V17.713V18.2682H71.407H72.7442V17.6414C72.7442 17.0503 72.7085 17.0145 72.138 17.0145H71.5139L71.4605 13.9876C71.407 10.6205 71.3 10.316 70.0876 9.59958C69.2318 9.09808 67.4845 9.02644 66.593 9.45629ZM70.0698 14.5966C70.0698 15.7429 69.6597 16.4414 68.7682 16.8533C67.7519 17.3011 67.3419 17.2832 66.6822 16.7279C66.2008 16.316 66.1294 16.1548 66.1829 15.51C66.2364 14.8652 66.3077 14.7399 66.8961 14.4533C67.5558 14.1309 68.7325 13.8444 69.5884 13.8085C70.0519 13.7906 70.0698 13.8264 70.0698 14.5966Z" fill="white"/>
<path d="M104.748 9.47464C103.928 9.85076 102.947 10.8896 102.555 11.803C102.216 12.6448 102.216 14.9373 102.555 15.7612C103.839 18.806 107.975 19.3075 109.562 16.5851C109.812 16.1731 110.008 15.7612 110.008 15.7075C110.008 15.6358 109.633 15.5821 109.17 15.5821C108.403 15.6 108.278 15.6537 107.957 16.1731C107.315 17.194 105.675 17.3552 104.766 16.4776C104.534 16.2806 104.267 15.797 104.142 15.4209C103.75 14.0776 103.589 14.1493 107.066 14.1493C110.614 14.1493 110.364 14.2925 109.936 12.4836C109.615 11.0866 108.92 10.1373 107.815 9.5821C106.745 9.04479 105.747 9.00897 104.748 9.47464ZM107.298 10.7463C107.619 10.9433 108.011 11.3911 108.153 11.7314C108.635 12.8955 108.653 12.8955 106.157 12.8955H103.91L104.017 12.394C104.195 11.6776 104.695 11.0508 105.39 10.7105C106.174 10.2985 106.567 10.2985 107.298 10.7463Z" fill="white"/>
<path d="M137.572 9.40225C136.663 9.72464 135.896 10.4948 135.647 11.3187C135.54 11.6948 135.486 12.0351 135.522 12.0709C135.557 12.1067 136.074 12.1784 136.663 12.1963C137.661 12.2679 137.733 12.2321 137.786 11.8739C137.875 11.3187 138.481 10.9246 139.248 10.9246C140.015 10.9246 140.407 11.2112 140.567 11.856C140.674 12.3037 140.621 12.3396 140.104 12.4291C136.235 12.9843 135.236 13.5396 135.022 15.2411C134.684 17.7127 138.125 19.3605 140.211 17.7127L140.674 17.3545V17.8202V18.2858L142.154 18.2321L143.616 18.1784V17.2829C143.616 16.4769 143.581 16.3873 143.206 16.3336C142.778 16.262 142.778 16.262 142.885 14.2202C143.01 11.9097 142.85 11.0321 142.172 10.2261C141.37 9.25897 139.105 8.84703 137.572 9.40225ZM140.674 14.5963C140.674 15.7605 139.551 16.7814 138.517 16.5664C137.501 16.3336 137.126 15.4202 137.786 14.8112C138.143 14.4888 139.195 14.2023 140.104 14.1664C140.603 14.1485 140.674 14.2023 140.674 14.5963Z" fill="white"/>
<path d="M148.234 9.7426L147.628 10.3516V9.83215V9.31275H146.095H144.579L144.633 10.2441C144.668 11.0142 144.74 11.1933 145.007 11.1933C145.31 11.1933 145.328 11.4262 145.364 13.7545C145.399 16.2799 145.399 16.2978 145.007 16.2978C144.633 16.2978 144.597 16.3874 144.597 17.1933V18.0889H146.647H148.698V17.1933C148.698 16.3516 148.662 16.2978 148.252 16.2978H147.806V14.3456C147.806 12.5187 147.824 12.3754 148.252 11.9456C148.769 11.4441 149.393 11.265 150.249 11.4083L150.837 11.5157V10.3157V9.13364H149.839C148.947 9.13364 148.787 9.18737 148.234 9.7426Z" fill="white"/>
<path d="M121.775 10.2083C121.775 11.0142 121.811 11.1038 122.185 11.1038C122.542 11.1038 122.631 11.3366 123.255 13.665C123.629 15.062 124.057 16.6381 124.218 17.1396L124.467 18.0889H125.751H127.035L127.659 15.3127L128.283 12.5366L128.782 14.6322C129.05 15.7963 129.353 17.0322 129.46 17.4083L129.638 18.0889H130.868H132.081L132.277 17.4978C132.366 17.1933 132.794 15.6172 133.204 14.0232C133.846 11.4978 134.006 11.1217 134.327 11.068C134.63 11.0322 134.719 10.871 134.755 10.1545L134.809 9.31275H132.919H131.029L131.082 10.2441C131.136 11.0859 131.171 11.1933 131.51 11.1396C131.867 11.0859 131.867 11.1038 131.421 13.1456C131.171 14.2739 130.922 15.1695 130.868 15.1336C130.797 15.0978 130.494 13.7724 130.155 12.1963L129.549 9.31275H128.265H126.999L126.803 10.4232C126.696 11.0501 126.411 12.4829 126.179 13.5933L125.751 15.653L125.252 13.5038C124.985 12.3396 124.717 11.3008 124.681 11.2292C124.628 11.1396 124.771 11.1038 125.002 11.1396C125.395 11.1933 125.43 11.1217 125.484 10.2441L125.537 9.31275H123.665H121.775V10.2083Z" fill="white"/>
<path d="M163.888 12.0179C163.05 12.5731 162.605 13.5403 162.605 14.8656C162.605 16.1731 162.908 16.9612 163.657 17.6059C164.78 18.5552 166.367 18.4656 167.436 17.391C168.952 15.8686 168.72 13.0388 166.991 11.9821C166.206 11.4985 164.673 11.5343 163.888 12.0179ZM166.402 12.9134C167.365 13.6656 167.49 15.797 166.616 16.7283C166.188 17.194 165.35 17.3373 164.673 17.0865C164.013 16.8358 163.621 15.3492 163.871 14.1134C164.191 12.6806 165.386 12.1074 166.402 12.9134Z" fill="white"/>
<path d="M168.881 12.1247C168.916 12.5366 169.005 12.6083 169.344 12.5724C169.736 12.5187 169.736 12.5366 169.736 14.8471V17.1933H169.291C168.934 17.1933 168.845 17.2829 168.845 17.6411C168.845 18.0889 168.863 18.0889 170.36 18.0889C171.858 18.0889 171.876 18.0889 171.876 17.6411C171.876 17.265 171.787 17.1933 171.341 17.1933H170.806V15.9575C170.806 14.2919 170.949 13.7008 171.484 13.1635C171.822 12.8232 172.108 12.7157 172.696 12.7157C173.445 12.7157 173.481 12.6978 173.481 12.1784C173.481 11.659 173.445 11.6411 172.66 11.6411C172.001 11.6411 171.751 11.7307 171.323 12.1605L170.806 12.6799V12.1605C170.806 11.6411 170.788 11.6411 169.808 11.6411C168.845 11.6411 168.827 11.6411 168.881 12.1247Z" fill="white"/>
<path d="M174.55 12.322C173.73 13.1279 173.481 14.2921 173.819 15.5817C174.319 17.4802 176.262 18.2682 177.671 17.1757L178.116 16.8175V17.3548C178.116 18.1966 177.76 18.7697 177.1 18.9847C176.316 19.2533 175.531 19.0563 175.192 18.519C174.907 18.0891 173.98 17.91 173.766 18.2324C173.605 18.5011 174.426 19.4862 175.05 19.7727C175.888 20.1847 177.35 20.1488 178.081 19.7011C179.026 19.1279 179.186 18.4832 179.186 15.313V12.5369H179.632C179.988 12.5369 180.078 12.4473 180.078 12.0891C180.078 11.6593 180.024 11.6414 179.097 11.6414C178.152 11.6414 178.116 11.6593 178.116 12.107V12.5727L177.564 12.107C177.136 11.7488 176.833 11.6414 176.119 11.6414C175.317 11.6414 175.157 11.713 174.55 12.322ZM177.421 13.0384C178.722 14.2026 178.063 16.6563 176.44 16.6563C175.406 16.6563 174.907 15.9757 174.907 14.525C174.907 12.7697 176.244 11.9817 177.421 13.0384Z" fill="white"/>
<path d="M160.465 17.462C160.465 18.053 160.501 18.0889 161.089 18.0889C161.678 18.0889 161.713 18.053 161.713 17.462C161.713 16.871 161.678 16.8351 161.089 16.8351C160.501 16.8351 160.465 16.871 160.465 17.462Z" fill="white"/>
</g>
<defs>
<clipPath id="clip0_1663_5526">
<rect width="184" height="24" fill="white"/>
</clipPath>
</defs>
</svg>
