<svg width="24" height="24" viewBox="0 0 24 24" fill="none" xmlns="http://www.w3.org/2000/svg">
<path d="M12 22C13.9778 22 15.9112 21.4135 17.5557 20.3147C19.2002 19.2159 20.4819 17.6541 21.2388 15.8268C21.9957 13.9996 22.1937 11.9889 21.8078 10.0491C21.422 8.10929 20.4696 6.32746 19.0711 4.92894C17.6725 3.53041 15.8907 2.578 13.9509 2.19215C12.0111 1.8063 10.0004 2.00433 8.17317 2.76121C6.34591 3.51808 4.78412 4.79981 3.6853 6.4443C2.58649 8.08879 2 10.0222 2 12C2.0028 14.6513 3.05727 17.1932 4.93202 19.068C6.80678 20.9427 9.34869 21.9972 12 22ZM12 3.53846C13.6735 3.53846 15.3095 4.03472 16.701 4.96449C18.0925 5.89426 19.177 7.21577 19.8174 8.76191C20.4579 10.3081 20.6254 12.0094 20.2989 13.6508C19.9725 15.2921 19.1666 16.7998 17.9832 17.9832C16.7998 19.1666 15.2921 19.9725 13.6508 20.299C12.0094 20.6254 10.3081 20.4579 8.76191 19.8174C7.21576 19.177 5.89425 18.0925 4.96449 16.701C4.03472 15.3095 3.53846 13.6735 3.53846 12C3.54101 9.75664 4.43331 7.6059 6.0196 6.0196C7.60589 4.43331 9.75664 3.54101 12 3.53846ZM12.7692 11.2308L12.7692 16.6154C12.7692 16.8194 12.6882 17.0151 12.5439 17.1593C12.3997 17.3036 12.204 17.3846 12 17.3846C11.796 17.3846 11.6003 17.3036 11.4561 17.1593C11.3118 17.0151 11.2308 16.8194 11.2308 16.6154L11.2308 11.2308C11.2308 11.0268 11.3118 10.8311 11.4561 10.6868C11.6003 10.5426 11.796 10.4615 12 10.4615C12.204 10.4615 12.3997 10.5426 12.5439 10.6868C12.6882 10.8311 12.7692 11.0268 12.7692 11.2308ZM10.8462 7.76923C10.8462 7.54102 10.9138 7.31794 11.0406 7.12819C11.1674 6.93844 11.3476 6.79055 11.5584 6.70322C11.7693 6.61589 12.0013 6.59304 12.2251 6.63756C12.4489 6.68208 12.6545 6.79197 12.8159 6.95334C12.9773 7.11471 13.0872 7.32031 13.1317 7.54413C13.1762 7.76795 13.1533 7.99995 13.066 8.21079C12.9787 8.42163 12.8308 8.60183 12.641 8.72862C12.4513 8.85541 12.2282 8.92308 12 8.92308C11.694 8.92308 11.4005 8.80151 11.1841 8.58512C10.9677 8.36874 10.8462 8.07525 10.8462 7.76923Z" fill="white"/>
</svg>
