<svg width="18" height="16" viewBox="0 0 18 16" fill="none" xmlns="http://www.w3.org/2000/svg">
<g clip-path="url(#clip0_1663_5552)">
<path d="M15.1497 15.5865V15.1044C15.1502 15.0035 15.1336 14.9032 15.1005 14.8076C15.0703 14.7231 15.0217 14.646 14.9581 14.5817C14.8973 14.5178 14.8231 14.4676 14.7406 14.4346C14.6507 14.4 14.5549 14.3828 14.4583 14.3838H14.4195C14.3238 14.383 14.2288 14.4002 14.1398 14.4346C14.0584 14.4684 13.9852 14.5185 13.9249 14.5817C13.8638 14.647 13.817 14.7238 13.7876 14.8076C13.7533 14.9028 13.7366 15.0034 13.7384 15.1044V15.5865H15.1497ZM14.8338 15.2237H14.0569V15.0943C14.0568 15.0449 14.0656 14.996 14.0828 14.9496C14.0976 14.908 14.1225 14.8706 14.1553 14.8405C14.1876 14.8089 14.2278 14.7861 14.2719 14.7746C14.3197 14.7565 14.3708 14.7479 14.4221 14.7492H14.4635C14.5164 14.7485 14.569 14.7571 14.6189 14.7746C14.663 14.7861 14.7032 14.8089 14.7354 14.8405C14.7698 14.8703 14.7964 14.9077 14.8131 14.9496C14.8315 14.9957 14.8403 15.0448 14.839 15.0943L14.8338 15.2237Z" fill="#E6EAF4"/>
<path d="M15.1496 13.7923V13.4473H13.7383V13.805L15.1496 13.7923Z" fill="#E6EAF4"/>
<path d="M15.1716 12.2374V12.207C15.1753 12.1681 15.1753 12.1291 15.1716 12.0903C15.1618 12.0537 15.1488 12.0181 15.1328 11.9837C15.1165 11.9533 15.0974 11.9244 15.0758 11.8974C15.057 11.874 15.0331 11.8549 15.0059 11.8416C15.036 11.8439 15.0663 11.8439 15.0965 11.8416C15.1189 11.8354 15.1406 11.8269 15.1613 11.8162V11.5625H14.3844V12.1283H14.677V11.8746H14.7003C14.723 11.8753 14.7449 11.8833 14.7625 11.8974C14.7851 11.9111 14.8045 11.9292 14.8194 11.9507C14.8377 11.9749 14.8525 12.0013 14.8635 12.0294C14.8738 12.0605 14.8791 12.093 14.879 12.1258V12.1511C14.8793 12.1991 14.8696 12.2466 14.8505 12.2907C14.8314 12.3297 14.804 12.3643 14.7702 12.3922C14.7329 12.4202 14.6908 12.4417 14.6459 12.4556C14.5922 12.4715 14.5363 12.4792 14.4802 12.4785H14.4232C14.368 12.4791 14.3129 12.4714 14.2601 12.4556C14.2142 12.4423 14.1712 12.4208 14.1332 12.3922C14.098 12.3661 14.0696 12.3322 14.0503 12.2932C14.0292 12.2515 14.0185 12.2054 14.0193 12.1588V12.1359C14.0184 12.0801 14.0346 12.0253 14.0659 11.9786C14.1027 11.9252 14.1525 11.8816 14.2109 11.8517L14.0296 11.5752C13.9805 11.6082 13.9345 11.6456 13.8924 11.6868C13.8536 11.7278 13.8197 11.7729 13.7914 11.8213C13.7651 11.8703 13.7451 11.9223 13.7318 11.9761C13.717 12.0307 13.71 12.087 13.7111 12.1435V12.1664C13.709 12.2619 13.7267 12.3568 13.7629 12.4455C13.7954 12.5271 13.8458 12.6007 13.9105 12.6611C13.9758 12.7226 14.0534 12.7701 14.1384 12.8007C14.2302 12.8344 14.3278 12.8507 14.4258 12.8489H14.4647C14.5649 12.8493 14.6646 12.8339 14.7599 12.8032C14.8413 12.7757 14.9169 12.7335 14.9826 12.6789C15.0446 12.6273 15.0934 12.5621 15.125 12.4886C15.158 12.4089 15.1738 12.3234 15.1716 12.2374Z" fill="#E6EAF4"/>
<path d="M15.1496 10.9103V10.5576H13.7383V10.9103H15.1496Z" fill="#E6EAF4"/>
<path d="M15.1496 9.66005V9.3023H14.0516V8.96484H13.7383V9.99751H14.0516V9.66005H15.1496Z" fill="#E6EAF4"/>
<path d="M15.147 8.67932V8.29873L14.7585 8.1947H14.7119L14.1163 8.02217V7.99679L14.7016 7.82934H14.7508L15.1418 7.72531V7.33203L13.7305 7.77859V8.23022L15.147 8.67932ZM14.888 8.34186V7.66949L14.6031 7.77859V8.23276L14.888 8.34186Z" fill="#E6EAF4"/>
<path d="M15.1496 6.83008V6.00293H14.8337V6.47232H13.7383V6.83008H15.1496Z" fill="#E6EAF4"/>
<path d="M17.4504 15.7305V15.355L17.0671 15.251H17.0205L16.4249 15.0784V15.0531L17.0101 14.8856H17.0593L17.4504 14.779V14.3984L16.0391 14.845V15.2966L17.4504 15.7305ZM17.1914 15.3956V14.7156L16.9066 14.8222V15.2789L17.1914 15.3956Z" fill="#E6EAF4"/>
<path d="M17.4762 13.3937V13.3632C17.4761 13.3238 17.4709 13.2846 17.4607 13.2465C17.4529 13.2097 17.4407 13.1739 17.4244 13.1399C17.4087 13.1092 17.3896 13.0803 17.3674 13.0537C17.3486 13.0303 17.3247 13.0112 17.2975 12.9979C17.3277 13.0001 17.358 13.0001 17.3881 12.9979C17.4106 12.9916 17.4323 12.9831 17.4529 12.9725V12.7188H16.676V13.2998H16.9686V13.0461H16.9894C17.013 13.0462 17.0358 13.0543 17.0541 13.0689C17.0762 13.0832 17.0955 13.1012 17.1111 13.1222C17.1293 13.1463 17.1441 13.1728 17.1551 13.2008C17.1655 13.232 17.1707 13.2645 17.1706 13.2972V13.3226C17.171 13.3706 17.1613 13.4181 17.1421 13.4622C17.1231 13.5012 17.0957 13.5358 17.0619 13.5637C17.0239 13.5922 16.9809 13.6137 16.935 13.6271C16.8822 13.6432 16.8271 13.6509 16.7718 13.6499H16.7304C16.6751 13.6506 16.6201 13.6429 16.5673 13.6271C16.5211 13.6143 16.478 13.5927 16.4404 13.5637C16.4052 13.5375 16.3768 13.5036 16.3575 13.4647C16.3363 13.423 16.3257 13.3768 16.3264 13.3302V13.3074C16.3256 13.2516 16.3418 13.1968 16.373 13.1501C16.4099 13.0967 16.4597 13.0531 16.5181 13.0232L16.3368 12.7467C16.2876 12.7797 16.2417 12.817 16.1995 12.8583C16.1608 12.8992 16.1269 12.9443 16.0986 12.9928C16.0722 13.0418 16.0522 13.0937 16.039 13.1475C16.0233 13.202 16.0154 13.2584 16.0157 13.315V13.3378C16.0144 13.4335 16.0329 13.5284 16.0701 13.6169C16.1026 13.6985 16.153 13.7722 16.2177 13.8326C16.283 13.8941 16.3606 13.9416 16.4456 13.9722C16.5374 14.0059 16.6349 14.0222 16.733 14.0204H16.7718C16.8706 14.0134 16.9676 13.9912 17.0593 13.9544C17.1407 13.9269 17.2163 13.8847 17.282 13.8301C17.3431 13.7776 17.3917 13.7126 17.4244 13.6398C17.4584 13.562 17.4761 13.4783 17.4762 13.3937Z" fill="#E6EAF4"/>
<path d="M17.4504 12.0726V11.1973H17.1344V11.7047H16.8936V11.2556H16.5984V11.7149H16.3524V11.2074H16.0391V12.065L17.4504 12.0726Z" fill="#E6EAF4"/>
<path d="M17.4504 10.5751V10.2301H16.4948L17.4504 9.74038V9.3877H16.0391V9.7353H16.904L16.0391 10.1768V10.5751H17.4504Z" fill="#E6EAF4"/>
<path d="M17.4764 8.11914C17.4771 8.06282 17.471 8.00661 17.4583 7.95168C17.4436 7.89949 17.4246 7.84857 17.4013 7.79944C17.3763 7.75179 17.344 7.70816 17.3055 7.67004C17.267 7.63012 17.2235 7.59517 17.176 7.56601L16.9766 7.81974C17.0028 7.83691 17.0278 7.85555 17.0517 7.87556C17.0737 7.89568 17.0936 7.91777 17.1113 7.94153C17.1249 7.96616 17.137 7.99158 17.1476 8.01765C17.1515 8.04627 17.1515 8.07529 17.1476 8.10391V8.11914C17.1485 8.16277 17.1396 8.20607 17.1217 8.246C17.1017 8.28375 17.0744 8.31735 17.0414 8.34495C17.0047 8.37399 16.9624 8.39555 16.9171 8.40839C16.8638 8.422 16.809 8.42882 16.7539 8.42868H16.7151C16.6601 8.42882 16.6052 8.422 16.552 8.40839C16.5069 8.39368 16.4648 8.37135 16.4277 8.34242C16.3932 8.31622 16.3657 8.28228 16.3474 8.24346C16.3272 8.20507 16.3174 8.16228 16.3189 8.11914V8.10138C16.3177 8.04277 16.3349 7.98521 16.3681 7.93645C16.4044 7.88733 16.4512 7.84662 16.5053 7.8172L16.3008 7.56348C16.254 7.59253 16.2113 7.62751 16.1739 7.6675C16.1376 7.70772 16.1063 7.75201 16.0807 7.79944C16.0533 7.84704 16.0332 7.89834 16.0211 7.95168C16.0075 8.00651 16.0006 8.06272 16.0004 8.11914C15.9957 8.25462 16.0347 8.38812 16.1118 8.50063C16.189 8.61315 16.3004 8.69895 16.4302 8.74584C16.5211 8.7801 16.6177 8.79731 16.7151 8.79659H16.7539C16.8521 8.79715 16.9496 8.77995 17.0414 8.74584C17.1251 8.7155 17.2018 8.6689 17.2667 8.60883C17.3298 8.54611 17.3799 8.47201 17.4143 8.39062C17.4534 8.30513 17.4745 8.2128 17.4764 8.11914Z" fill="#E6EAF4"/>
<path d="M17.4504 6.68379V6.32349H16.904L16.0391 5.85156V6.2626L16.557 6.49603V6.51125L16.0391 6.74722V7.15825L16.904 6.68379H17.4504Z" fill="#E6EAF4"/>
<path d="M0 16H4.6612V5.58199H4.92016L7.34916 13.993H10.6586L13.0902 5.58199H18.0104V0H11.3371L9.11524 7.95433H8.88217L6.66293 0H0V16Z" fill="#E6EAF4"/>
</g>
<defs>
<clipPath id="clip0_1663_5552">
<rect width="18" height="16" fill="white"/>
</clipPath>
</defs>
</svg>
