<svg width="39" height="24" viewBox="0 0 39 24" fill="none" xmlns="http://www.w3.org/2000/svg">
<path d="M27.3222 0.292048C26.6111 0.654127 26.1444 1.71774 26.3889 2.38532C26.5333 2.75871 26.3667 3.03027 26.1444 2.80397C25.9667 2.62293 25.6667 2.63425 25.2556 2.84923C24.4333 3.2792 24.0444 4.11651 24.0222 5.47431L24 6.45871L23.6111 6.49266C23.1333 6.53792 23.0556 6.65107 23.0556 7.36391C23.0444 7.66942 23 8.14465 22.9556 8.40489L22.8667 8.89143L23.2556 8.95932L23.6444 9.03853L23.3889 9.23088C23.1556 9.41192 23.1444 9.4685 23.2222 10.3737C23.2556 10.8942 23.3111 11.4034 23.3444 11.5052C23.3778 11.6297 23.3111 11.7089 23.1667 11.7541C22.9667 11.8107 22.9444 11.8899 22.9889 12.433C23.0111 12.7725 23.0667 13.1119 23.1 13.1798C23.1444 13.2477 23.0889 13.7342 22.9889 14.2774C22.9 14.8205 22.8444 15.3976 22.8667 15.5673C22.9333 15.8728 22.7667 16.2801 22.1667 17.3211C21.9889 17.6266 21.8333 18 21.8333 18.1471C21.8333 18.2829 21.7333 18.611 21.6 18.8713C21.4222 19.222 21.3778 19.4709 21.4222 19.8443C21.4556 20.1951 21.3889 20.6477 21.2111 21.27C21.0667 21.7792 20.9444 22.3676 20.9444 22.5939C20.9444 23.0691 21.0889 23.1483 21.9667 23.1483C22.5444 23.1483 22.7667 22.9333 22.6 22.526C22.3556 21.881 22.6 20.6251 23.0556 20.2177C23.3333 19.9688 23.8222 18.7015 23.9444 17.9095C24.0111 17.4342 24.1222 17.1627 24.3222 16.959C24.4778 16.8006 24.6111 16.6196 24.6111 16.5743C24.6111 16.5177 24.7111 16.3706 24.8333 16.2462C24.9556 16.1217 25.0556 15.9294 25.0556 15.8162C25.0556 15.4881 25.5444 14.2887 25.8222 13.904C26.0889 13.5419 26.1 13.5419 26.2444 13.7569C26.3333 13.8813 26.5 13.9832 26.6111 13.9832C26.7444 13.9832 27.0444 14.3113 27.4667 14.945C28 15.7257 28.1667 15.9067 28.4 15.9067C28.8667 15.9067 29 16.1557 28.8333 16.7214C28.6444 17.3777 28.6889 18.396 28.9444 19.3917C29.2111 20.3875 29.2222 20.693 28.9889 21.5529C28.7444 22.4468 28.8 22.5713 29.4667 22.5826C29.7556 22.5826 30.5111 22.6165 31.1444 22.6505C32.2333 22.7183 32.2778 22.7183 32.2778 22.492C32.2778 22.2318 31.8889 21.9037 31.5889 21.9037C31.4889 21.9037 31.2222 21.6774 31 21.4058C30.5444 20.8287 30.5444 20.874 30.6889 18.6223C30.8111 16.5177 30.8 15.2391 30.6556 15.1373C30.5889 15.092 30.3778 14.6508 30.1778 14.1529C29.7444 13.0667 29.3778 12.4104 28.9333 11.9012C28.7111 11.641 28.6 11.3807 28.5778 11.0752C28.5556 10.6679 28.5667 10.6453 28.8889 10.6453C29.1667 10.6453 29.2444 10.5887 29.3444 10.2492C29.4556 9.90978 29.5556 8.60856 29.5111 7.96361C29.5 7.86177 29.4 7.73731 29.2778 7.70336C29.1 7.64679 29.0667 7.56758 29.1222 7.38654C29.1556 7.25076 29.2111 7.1263 29.2222 7.10367C29.2444 7.08104 29.6 7.23945 30.0222 7.45443C30.7111 7.81651 31.0778 7.91835 31.4778 7.8844C31.5556 7.87309 31.8111 7.68073 32.0444 7.44312C32.3444 7.13761 32.4889 6.88868 32.5333 6.53792C32.5889 6.20978 32.6667 6.06269 32.7889 6.06269C32.9778 6.06269 32.9778 5.94954 32.7778 5.14618C32.7333 4.9425 32.8111 4.77278 33.1111 4.44465L33.5111 4.02599H34.5111C35.0556 4.02599 35.5 3.98073 35.5 3.92416C35.5 3.8789 36.1333 3.83364 36.9 3.82232C37.6667 3.82232 38.3333 3.78838 38.3667 3.75443C38.5111 3.59602 38.2111 3.53945 37.2222 3.56208C36.3556 3.57339 36.1667 3.53945 36.1667 3.40367C36.1667 3.31315 36.0889 3.23394 36 3.23394C35.8889 3.23394 35.8333 3.09816 35.8111 2.80397L35.8 2.38532L35.7556 2.78134C35.7111 3.15474 35.5 3.55076 35.5 3.25657C35.5 3.15474 34.9111 3.12079 33.1556 3.12079C31.2778 3.12079 30.7889 3.08685 30.6556 2.96238C30.5667 2.87186 30.5 2.7474 30.5 2.67951C30.5 2.61162 30.4556 2.55504 30.3889 2.55504C30.3333 2.55504 30.2778 2.65688 30.2778 2.77003C30.2778 3.04159 30.2333 3.07553 29.6444 3.17737C29.1667 3.25657 29.1667 3.25657 29.1667 2.91712C29.1667 2.66819 29.2333 2.55504 29.3889 2.49847C29.7 2.39663 29.7778 1.95535 29.6111 1.26513C29.4778 0.710701 29.4444 0.676756 28.8333 0.371252C28.0778 0.00917244 27.9111 -0.00214195 27.3222 0.292048ZM31.8333 4.56911C31.8333 4.67095 31.7 4.95382 31.5444 5.19143C31.2778 5.59877 31.2444 5.61009 31.1 5.41773C30.8333 5.04434 30.9 4.85199 31.3111 4.89725C31.5667 4.91988 31.6111 4.90856 31.4556 4.84067C31.2667 4.75015 31.2667 4.73884 31.4333 4.5578C31.6778 4.30887 31.8333 4.30887 31.8333 4.56911Z" fill="#245DF4"/>
<path d="M2.01112 2.82661C1.44445 3.04159 0.988896 3.50551 0.777785 4.08257C0.63334 4.46728 0.600007 4.97646 0.63334 7.03578L0.666674 9.53639L0.966673 10.0003C1.51112 10.8376 1.63334 10.8716 4.74445 10.9055C7.71112 10.9508 8.15556 10.8829 8.73334 10.3963C9.05556 10.1135 9.3889 9.52508 9.3889 9.23089C9.3889 9.163 8.23334 9.10642 6.0889 9.09511L2.77778 9.06116L2.74445 6.8208L2.72223 4.59175H6.05556C8.64445 4.59175 9.3889 4.5578 9.3889 4.44465C9.37778 4.04863 8.92223 3.33578 8.4889 3.04159L8.02223 2.72477L5.23334 2.70214C3.05556 2.67951 2.35556 2.70214 2.01112 2.82661Z" fill="#245DF4"/>
<path d="M12.2444 2.83789C12 2.91709 11.6889 3.10945 11.5333 3.25654C11.0444 3.72046 10.9444 4.04859 10.9444 5.23666C10.9444 6.2437 10.9667 6.39079 11.2222 6.7755C11.7778 7.59018 12.0111 7.64676 15.1667 7.64676H17.9444V8.4388V9.24217L14.4444 9.20822C10.6556 9.17428 10.7778 9.15165 11.1111 9.78529C11.3333 10.2492 11.8778 10.6792 12.4 10.815C12.6889 10.8942 13.8889 10.9281 15.7 10.9055C18.4556 10.8715 18.5667 10.8602 18.9667 10.6113C19.6111 10.2039 19.8667 9.68345 19.9222 8.6651C19.9778 7.6807 19.8444 7.13758 19.4222 6.61709C18.8778 5.97214 18.7778 5.94951 15.6667 5.94951H12.8333V5.21403V4.47856H16.2778C18.5667 4.47856 19.7222 4.44461 19.7222 4.36541C19.7222 3.78835 19 2.98498 18.3 2.78131C17.6556 2.60027 12.7667 2.64553 12.2444 2.83789Z" fill="#245DF4"/>
<path d="M2 13.0893C1.46667 13.2251 1.08889 13.5532 0.822226 14.1529C0.644448 14.5489 0.611115 14.911 0.611115 17.0948C0.611115 19.8443 0.700003 20.2403 1.33334 20.7495C1.88889 21.2021 2.3 21.2474 5.45556 21.2021L8.46667 21.1682L8.87778 20.84C9.65556 20.2403 9.72223 20.0254 9.72223 18.1358V16.4725H6.71111H3.71111L3.94445 16.9024C4.36667 17.6605 4.66667 17.7737 6.47778 17.8076L8.06667 17.8529L8.03334 18.7128L8 19.5841L5.2 19.618L2.38889 19.6407V17.0948V14.5489H6.05556C8.07778 14.5489 9.72223 14.5263 9.72223 14.4923C9.72223 14.3226 9.37778 13.7795 9.08889 13.5079C8.87778 13.3043 8.56667 13.1572 8.17778 13.078C7.44445 12.9422 2.61111 12.9535 2 13.0893Z" fill="#245DF4"/>
<path d="M12.6111 13.1006C12.0889 13.2477 11.5556 13.7795 11.4 14.3113C11.3222 14.5829 11.2778 15.6691 11.2778 17.1627C11.2778 19.9122 11.3556 20.2517 12.1222 20.8401L12.5333 21.1682L15.4333 21.2022C18.6445 21.2474 19.0111 21.1795 19.5445 20.5346C19.9889 20.0028 20.0556 19.5162 20.0556 16.9817C20.0556 14.73 20.0445 14.5716 19.8111 14.0963C19.4778 13.4514 19.0889 13.1685 18.3667 13.0667C17.5111 12.9422 13.0667 12.9648 12.6111 13.1006ZM18.2778 17.0948V19.6407H15.6111H12.9445V17.0948V14.5489H15.6111H18.2778V17.0948Z" fill="#245DF4"/>
</svg>
