<svg width="41" height="40" viewBox="0 0 41 40" fill="none" xmlns="http://www.w3.org/2000/svg">
<path d="M17.4983 5.14635C17.4452 5.18172 17.3435 5.26132 17.2684 5.32765C17.1976 5.39399 16.8615 5.58414 16.521 5.75218L15.9064 6.0573L15.4597 6.05288C15.2165 6.05288 14.6107 6.04403 14.1242 6.03077L13.2354 6.01308L13.0983 5.86715C12.9966 5.7566 12.9259 5.72564 12.7932 5.72122C12.7003 5.72122 11.9486 5.70796 11.1216 5.69027C10.2947 5.67258 9.01229 5.66373 8.26937 5.66816C7.52646 5.67258 6.63761 5.677 6.29269 5.677L5.66917 5.68142L5.56746 5.93348C5.41711 6.33147 5.40385 6.86655 5.53209 7.34856C5.6338 7.71559 5.63822 7.80846 5.63822 8.95378C5.6338 9.67459 5.61169 10.2981 5.58073 10.4794C5.5542 10.6474 5.50113 10.9791 5.46576 11.2091C5.43038 11.439 5.35962 11.7884 5.31098 11.9829C5.15179 12.5976 5.22254 13.9331 5.45691 14.6848C5.8151 15.8434 5.93892 16.8119 5.79299 17.3116C5.76204 17.4221 5.73108 17.6874 5.73108 17.9086C5.72666 18.3685 5.80184 18.5719 6.09812 18.9477C6.27058 19.1644 6.27942 19.191 6.27942 19.4784C6.27942 20.1904 6.11138 20.4822 5.64706 20.5839C5.46133 20.6281 5.39942 20.6591 5.41269 20.7033C5.42596 20.7387 5.45691 21.3047 5.48344 21.968C5.53209 23.2903 5.55862 23.6308 5.62495 23.843C5.65148 23.9315 5.77973 24.0862 5.96103 24.2499L6.25731 24.5152L6.275 24.9485C6.28827 25.3598 6.23962 26.0364 6.14234 26.7749C6.07158 27.3011 6.06274 27.3276 5.85048 27.5974C5.48344 28.075 5.48344 28.075 5.48787 29.0611C5.48787 29.5431 5.50555 30.1534 5.52767 30.4231C5.62495 31.5419 5.62937 31.9178 5.5542 32.5104C5.44365 33.4169 5.43922 33.3948 5.71782 33.5186C5.84163 33.5761 6.12907 33.6689 6.34575 33.722C6.71279 33.8105 6.80123 33.8149 7.51761 33.7795C7.94214 33.7574 8.72927 33.7397 9.26435 33.7397C9.79942 33.7397 10.3699 33.722 10.5335 33.6999C10.7634 33.6734 10.874 33.6778 11.0376 33.7353C11.2189 33.7972 11.2985 33.7972 11.6169 33.753C11.9353 33.7087 12.037 33.7087 12.351 33.7751C12.6649 33.8414 12.802 33.8458 13.3548 33.806C13.7086 33.7795 14.2613 33.7485 14.5841 33.7309C15.1059 33.7087 15.1767 33.7132 15.2563 33.7839C15.3271 33.8458 15.4597 33.8679 15.9064 33.8945C16.2203 33.9122 16.5254 33.952 16.5918 33.9829C16.7023 34.036 16.7289 34.0271 16.8659 33.921C17.0605 33.7751 17.2286 33.7662 17.2639 33.9122C17.3347 34.1863 18.0422 35 18.2147 35C18.2368 35 18.3872 34.8541 18.5463 34.6772L18.8338 34.3588L19.1168 34.3632C19.276 34.3632 19.4838 34.3986 19.5855 34.4384C19.9084 34.5711 20.1472 34.6064 20.3638 34.5578L20.5628 34.5136L20.753 34.7126C20.8901 34.8541 20.9785 34.9116 21.067 34.9116C21.1377 34.9116 21.434 34.7922 21.7303 34.6462C22.429 34.3013 22.5837 34.2836 24.5427 34.2836C25.4095 34.2836 26.3514 34.2615 26.7228 34.2261C27.3154 34.1775 27.4038 34.1598 27.647 34.0316L27.9168 33.8856L28.1423 34.0006C28.4298 34.1465 28.7039 34.1952 29.2302 34.1996C29.4601 34.204 29.951 34.2217 30.3136 34.2482C31.2909 34.3102 31.7508 34.3057 31.8348 34.2306C31.8746 34.1952 32.0028 34.1598 32.1178 34.151C32.2858 34.1421 32.3256 34.12 32.3256 34.0581C32.3256 33.9077 32.2372 33.806 32.109 33.806C32.0072 33.806 31.9896 33.7883 31.994 33.7043C31.9984 33.6159 32.0294 33.6026 32.3743 33.5717C32.5777 33.554 32.8961 33.5451 33.0862 33.5584C33.524 33.5893 34.4306 33.8193 34.7622 33.9829C34.9037 34.0581 35.0585 34.1156 35.1027 34.1156C35.1867 34.1156 35.1912 34.005 35.1912 29.238C35.1912 26.5582 35.1956 24.2145 35.2 24.0332C35.2044 23.8519 35.1912 23.3168 35.1779 22.848L35.1469 21.999H34.687C34.435 21.999 34.2271 21.9857 34.2271 21.9725C34.2271 21.884 34.3377 21.7823 34.5057 21.716L34.7003 21.6408L34.7313 21.3224C34.8109 20.3982 34.8462 19.3369 34.8064 18.9654C34.7357 18.2844 34.6649 18.1075 34.1918 17.4221C33.8336 16.8959 33.8336 16.9003 34.2448 16.3829L34.4615 16.1088L34.3819 15.8257C34.3377 15.6665 34.3156 15.5295 34.3289 15.5162C34.3421 15.5029 34.4969 15.4189 34.6782 15.326C35.2177 15.0563 35.1779 15.2951 35.1779 12.1156C35.1779 9.72323 35.1691 9.35177 35.0939 8.84323C34.9612 7.92343 34.9612 7.87921 35.0673 7.48564C35.1558 7.14956 35.1602 7.10092 35.1071 6.69409L35.0497 6.26072L34.8816 6.23419C34.718 6.20323 34.6119 6.14132 34.2979 5.88926C34.1033 5.73007 33.7938 5.68584 32.9005 5.68142C32.2505 5.68142 31.9188 5.6372 31.8923 5.55318C31.8834 5.52665 31.8038 5.50454 31.711 5.50454C31.5385 5.50454 31.4147 5.60183 31.2511 5.86715C31.2068 5.93348 31.1184 6.0175 31.0476 6.0573L30.9194 6.11921L30.8885 5.95559C30.8221 5.57087 30.7779 5.51338 30.5391 5.46032C29.951 5.33208 29.1417 5.27459 26.117 5.16404C25.1176 5.12866 24.9186 5.2569 24.8213 5.99981C24.7992 6.18996 24.7859 6.21208 24.6798 6.21208C24.6179 6.21208 24.4101 6.24303 24.2199 6.27841C23.7733 6.36243 23.6274 6.36243 23.4372 6.26514C23.3134 6.20765 23.2692 6.14574 23.2117 5.96886L23.1409 5.74776L22.7164 5.72122C22.2653 5.69027 21.9779 5.64605 21.9779 5.61067C21.9779 5.5974 22.0265 5.51338 22.0885 5.42494C22.1504 5.3365 22.199 5.23921 22.199 5.20826C22.199 5.1773 22.084 5.14635 21.9027 5.12424C21.5755 5.08886 20.4567 5.07559 19.9658 5.10213C19.7978 5.11097 19.192 5.11097 18.6259 5.10213C17.7769 5.08444 17.5779 5.09328 17.4983 5.14635ZM11.2366 10.1699C11.3206 10.2141 11.4931 10.3379 11.6213 10.444C11.7496 10.5546 11.9839 10.7138 12.1387 10.8022C12.2979 10.8951 12.7755 11.1825 13.2 11.4434C13.8324 11.837 13.9739 11.9431 13.9739 12.0227C13.9739 12.2836 14.3232 12.602 14.8583 12.8231C15.1148 12.9293 15.2651 13.0221 15.3536 13.1283C15.442 13.2388 15.5703 13.314 15.8002 13.398C15.9727 13.4599 16.1628 13.5351 16.2115 13.566C16.5033 13.7297 21.7126 17.2718 22.0796 17.5548C22.2211 17.6609 22.5395 17.8643 22.7872 18.0014C23.0348 18.1385 23.3664 18.3419 23.5256 18.4525C23.6848 18.563 24.1138 18.8549 24.4764 19.0937C24.8434 19.3369 25.2282 19.6066 25.3387 19.6951C25.6129 19.9206 27.3463 21.0704 27.6072 21.1986C27.7222 21.2561 27.9831 21.4551 28.1821 21.632C28.5978 22.0078 28.9339 22.2201 29.1108 22.2201C29.2567 22.2201 29.3849 22.282 29.5309 22.4147C29.5884 22.4633 29.8493 22.6579 30.1146 22.8392C30.3799 23.0205 30.7823 23.3124 31.0078 23.4848C31.2334 23.6573 31.4987 23.843 31.596 23.8961C31.7508 23.9801 31.7685 24.0066 31.7596 24.1349C31.7287 24.471 31.6048 25.0856 31.5075 25.3996C31.4501 25.5853 31.3395 25.9745 31.2643 26.2663C30.9902 27.3276 30.7735 27.9246 30.3843 28.6941C29.8802 29.6935 29.9156 29.6669 29.0577 29.6316C28.2927 29.6006 27.2756 29.4989 26.7228 29.4016C26.4221 29.3485 26.2629 29.2955 26.1126 29.1982C25.9976 29.123 25.604 28.7206 25.2282 28.3049C24.8567 27.8893 24.4808 27.478 24.388 27.394C24.2995 27.31 23.9413 26.9297 23.6008 26.5538C23.2559 26.1779 22.8358 25.718 22.6589 25.5323C22.4864 25.351 22.2875 25.0901 22.2167 24.9574C22.115 24.7672 22 24.6523 21.6551 24.3914C21.3279 24.1481 20.9564 23.7767 20.1604 22.9188C19.5767 22.2864 18.9664 21.6541 18.8028 21.5126C18.6392 21.3711 18.029 20.7431 17.4452 20.1152C16.8615 19.4828 15.6012 18.1827 14.6505 17.2187C13.6953 16.2547 12.9126 15.4454 12.9126 15.4145C12.9126 15.3835 12.3996 14.8352 11.7761 14.1984C9.46334 11.8503 8.77791 11.1295 8.70716 10.957C8.63641 10.789 8.63641 10.7845 8.72927 10.7801C8.92384 10.7624 9.23781 10.6563 9.70656 10.444C10.4318 10.1124 10.6042 10.0593 10.8607 10.077C10.989 10.0858 11.157 10.1301 11.2366 10.1699ZM28.0052 10.4838C28.2263 10.5988 28.6464 10.8464 28.9339 11.0366C29.2213 11.2312 29.4822 11.3859 29.5132 11.3859C29.553 11.3859 29.5662 11.4479 29.5574 11.5938C29.5486 11.7132 29.5309 12.036 29.522 12.3146C29.5088 12.6639 29.4734 12.9204 29.407 13.1327C29.2036 13.7916 29.1019 14.3001 29.0621 14.8883C29.0356 15.2509 28.9958 15.525 28.9648 15.5648C28.841 15.7108 28.4253 15.6223 28.2352 15.4101C28.1865 15.3526 27.7886 15.0696 27.3508 14.7777C26.913 14.4858 26.4442 14.1542 26.3116 14.0392C26.1789 13.9242 25.8605 13.6854 25.604 13.5086C25.3476 13.3317 24.9496 13.0221 24.7196 12.8231C24.4897 12.6241 24.189 12.3942 24.0563 12.3057C23.9236 12.2217 23.7733 12.1067 23.7246 12.0493C23.676 11.9962 23.5478 11.8901 23.4372 11.8149C23.2647 11.6955 23.0746 11.5142 23.0967 11.4876C23.11 11.4788 25.8207 10.7668 26.2895 10.6519C26.882 10.5104 27.196 10.4131 27.3287 10.3423C27.5011 10.2495 27.5674 10.2671 28.0052 10.4838ZM11.7938 23.7767C12.2537 24.2145 12.9259 24.8778 13.2885 25.2448C13.6555 25.6163 14.2923 26.2221 14.708 26.598C15.1192 26.9739 15.7427 27.5399 16.0832 27.8495C16.6272 28.3403 16.8483 28.5747 16.8483 28.6499C16.8483 28.6587 16.6537 28.7339 16.4193 28.8135C16.1805 28.8931 15.8754 29.0125 15.7427 29.0832C15.5791 29.1672 15.3271 29.2424 14.991 29.2999C14.6416 29.3618 14.363 29.4414 14.1066 29.5608C13.3769 29.888 13.3415 29.8925 12.3466 29.8836C11.2941 29.8748 11.4046 29.919 10.6838 29.2513C10.4406 29.0302 10.1841 28.8179 10.109 28.7781C10.0338 28.7427 9.88786 28.6322 9.78615 28.5305C9.68445 28.4332 9.50314 28.3005 9.38816 28.2386C9.10073 28.0838 9.05651 27.9821 9.07862 27.5487C9.09631 27.2525 9.12726 27.1286 9.26435 26.8412C9.35279 26.6466 9.4943 26.3106 9.57832 26.0939C9.86133 25.3598 10.8961 22.9719 10.9315 22.9719C10.9492 22.9719 11.3383 23.3345 11.7938 23.7767Z" fill="#245DF4"/>
</svg>
