<svg width="38" height="22" viewBox="0 0 38 22" fill="none" xmlns="http://www.w3.org/2000/svg">
<path d="M3.29565 0.392588C2.94 0.429539 2.73214 0.50806 2.51967 0.6882C2.22868 0.933002 2.2102 1.00691 2.22406 1.95841C2.2333 2.42954 2.22406 3.16395 2.2102 3.58889L2.17787 4.36487L1.96078 4.32792C1.47117 4.24478 0.838378 4.31868 0.704429 4.48035C0.653621 4.54039 0.662859 4.54501 0.769094 4.52192C0.870711 4.4942 0.889187 4.50344 0.866092 4.56349C0.852235 4.60506 0.810665 4.63739 0.773713 4.63739C0.69981 4.63739 0.676715 4.78058 0.639764 5.45032C0.61205 5.96303 0.61205 5.96764 0.741381 6.11545C0.926138 6.33716 1.10166 6.39259 1.6236 6.39259C1.93307 6.39259 2.10397 6.41106 2.16401 6.45725C2.24715 6.5173 2.24715 6.67434 2.21944 11.0346C2.20097 14.1432 2.17787 15.5658 2.14554 15.5981C2.11782 15.6258 1.8684 15.6628 1.59127 15.6767C1.04623 15.709 0.82914 15.7921 0.722905 16.0046C0.644383 16.1524 0.649002 17.3025 0.722905 17.5242C0.806046 17.7598 0.949233 17.8106 1.66517 17.8383L2.27949 17.8614V19.2379C2.27949 20.0877 2.29796 20.7067 2.3303 20.8591C2.39496 21.1593 2.59357 21.3718 2.87533 21.4503C3.21251 21.5381 4.24715 21.5843 7.19866 21.6397C10.8384 21.709 15.1617 21.6351 15.3141 21.5058C15.3742 21.4596 15.3927 21.4596 15.4157 21.5196C15.4573 21.6397 15.5358 21.5981 15.5358 21.4503C15.5358 21.3579 15.5127 21.3118 15.4666 21.3118C15.4296 21.3118 15.3973 21.2887 15.3973 21.2656C15.3973 21.1455 15.5866 21.2748 15.7021 21.478C15.7483 21.5612 15.8222 21.5658 16.7414 21.575C17.2864 21.5797 18.6767 21.6074 19.8315 21.6351C21.3095 21.672 22.2795 21.672 23.1109 21.6351C24.4273 21.5843 24.7645 21.5427 24.843 21.4318C24.9169 21.3302 24.9492 21.3395 24.9677 21.4596L24.9816 21.5658L26.6906 21.6027C28.5566 21.6397 32.6167 21.6166 32.8291 21.5612C32.9215 21.5381 32.9539 21.5427 32.9308 21.5797C32.8753 21.6674 33.1201 21.6951 33.7067 21.6674C34.7368 21.612 35.2495 21.5011 35.5081 21.2748C35.7114 21.0947 35.7345 20.9422 35.7714 19.4411C35.7945 18.6512 35.8222 17.9445 35.8361 17.866L35.8592 17.7228L36.4042 17.7459C36.9862 17.769 37.4712 17.6951 37.2587 17.612C37.134 17.5658 37.1201 17.5011 37.2218 17.4457C37.3696 17.3626 37.4342 16.2817 37.3095 16.0185C37.194 15.7783 37.0416 15.7228 36.3626 15.6767C36.0301 15.6582 35.7529 15.6305 35.7483 15.6212C35.7391 15.612 35.7206 13.5335 35.7067 10.9977L35.679 6.39259H36.2795C36.9539 6.39259 37.1248 6.3464 37.2864 6.12469C37.4019 5.95841 37.4065 5.92607 37.3603 5.21938C37.328 4.74363 37.3095 4.66972 37.2356 4.64663C37.1894 4.63739 37.1525 4.59582 37.1525 4.55887C37.1525 4.51268 37.1848 4.49882 37.2587 4.52192L37.3603 4.54963L37.2541 4.45725C37.1201 4.33716 36.7414 4.29559 36.201 4.33254L35.776 4.36025L35.7252 4.21707C35.6975 4.13854 35.6513 3.63046 35.6282 3.09467C35.5728 2.03231 35.5174 1.51961 35.4204 1.19628C35.2726 0.6882 35.1248 0.609678 34.2887 0.568108C33.9469 0.549631 33.5405 0.50806 33.388 0.475729C33.097 0.411062 31.0924 0.401825 21.4619 0.424919L17.1109 0.434158L17.0416 0.535774C16.9677 0.63739 16.9677 0.63739 16.903 0.549631C16.8384 0.461872 16.7737 0.457253 15.328 0.457253C13.9423 0.457253 13.8176 0.461872 13.776 0.535774C13.7206 0.632772 13.5959 0.646629 13.5959 0.554251C13.5959 0.521917 13.5497 0.475729 13.4943 0.457253C13.2957 0.397205 3.82221 0.33716 3.29565 0.392588ZM17.8222 2.4942C25.1155 2.50806 31.425 2.50344 31.8499 2.48035C32.4181 2.45263 32.6536 2.45725 32.7506 2.49882C32.8199 2.53115 33.0093 2.55425 33.1617 2.55887H33.4481L33.4758 3.26095C33.5174 4.28635 33.6051 10.7251 33.582 10.7667C33.5682 10.7898 33.5774 12.7113 33.6005 15.0392C33.6282 17.7506 33.6236 19.3164 33.5959 19.3949L33.5497 19.5104H26.007C21.8545 19.5104 18.298 19.5242 18.0993 19.5427C17.8037 19.5658 17.7345 19.5843 17.716 19.6582C17.6883 19.7644 17.5405 19.7644 17.5127 19.6582C17.4943 19.5843 17.425 19.5658 17.1017 19.5427C16.5197 19.4965 11.4989 19.5057 9.20789 19.5566C7.72983 19.5889 7.14323 19.5889 6.9908 19.5519C6.81067 19.5057 6.75524 19.5104 6.62591 19.575C6.51043 19.6351 6.45963 19.6443 6.40882 19.6027C6.36725 19.5658 6.01159 19.5335 5.39727 19.515C4.87995 19.4965 4.43653 19.4642 4.41806 19.4457C4.39496 19.4272 4.36725 19.1455 4.35339 18.8268C4.33491 18.5034 4.32106 18.2355 4.31644 18.2263C4.31644 18.2217 4.27025 18.2171 4.21944 18.2171C4.15939 18.2171 4.12706 18.1847 4.12706 18.1247C4.12706 18.0739 4.15939 18.0323 4.19635 18.0323C4.2333 18.0323 4.27949 17.9769 4.29796 17.903C4.32106 17.8337 4.33491 15.1732 4.33491 11.9861C4.33491 7.41337 4.32106 6.18935 4.27949 6.1755C4.23792 6.16164 4.2333 6.12931 4.26563 6.06926C4.34877 5.91222 4.37187 5.32561 4.31182 4.96072C4.24254 4.56349 4.24254 4.64663 4.3072 3.50575C4.3303 3.02076 4.35339 2.57734 4.35801 2.5173C4.35801 2.42492 4.37648 2.41568 4.46424 2.4434C4.51967 2.45725 10.5335 2.48497 17.8222 2.4942Z" fill="#245DF4"/>
<path d="M14.335 4.50344C14.2472 4.52654 14.007 4.53578 13.8038 4.52192C13.5867 4.50344 13.4066 4.51268 13.365 4.5404C13.3096 4.58197 13.2957 4.73439 13.2957 5.44571C13.2957 6.21245 13.3049 6.31407 13.3788 6.36488C13.4805 6.4434 13.4805 6.50806 13.365 6.62354C13.2911 6.69744 13.2726 6.77596 13.2726 7.01153C13.2726 7.17319 13.2911 7.31638 13.3142 7.32562C13.3327 7.33485 13.3327 7.59813 13.3049 7.91684C13.2818 8.23555 13.2587 10.3649 13.2541 12.6513L13.2495 16.8083L13.3511 17.0023C13.4112 17.1085 13.5451 17.2656 13.656 17.3579L13.8592 17.5242L15.4712 17.4965C17.9747 17.4549 18.2518 17.4134 18.4689 17.0439C18.686 16.6743 18.6999 16.2725 18.6999 10.3649C18.6999 7.38104 18.686 4.8822 18.6629 4.80829C18.626 4.66511 18.5521 4.64663 18.4689 4.7621C18.4089 4.84063 18.3072 4.80829 18.3072 4.7113C18.3072 4.62354 18.0948 4.5912 17.5497 4.5912C17.268 4.5912 17.037 4.6143 16.9678 4.65125C16.723 4.77596 16.7137 4.84986 16.7137 7.68589C16.7137 9.12238 16.723 10.8776 16.7368 11.5843C16.7553 12.5912 16.746 12.8776 16.7045 12.8914C16.6121 12.9238 16.6352 13.1409 16.7414 13.2563C16.82 13.3395 16.8292 13.3764 16.783 13.4549C16.7553 13.515 16.7137 13.9676 16.6906 14.4942C16.6444 15.4503 16.6121 15.6489 16.4689 15.7506C16.4042 15.7967 16.3719 15.7875 16.2564 15.6905C16.1133 15.5704 16.0809 15.5658 15.5266 15.6582C15.2079 15.709 15.2218 15.8291 15.2634 12.582C15.2865 10.9931 15.2911 8.5912 15.2772 7.24247L15.2449 4.78982L14.9862 4.65125C14.6721 4.48035 14.5474 4.45264 14.335 4.50344Z" fill="#245DF4"/>
<path d="M20.6305 4.49423C20.3996 4.50809 20.1917 4.54042 20.1687 4.55889C20.1271 4.60046 20.1178 7.33026 20.1548 8.72518C20.1779 9.59354 20.1779 9.60277 20.0763 9.64896C20.0208 9.67206 19.9654 9.7321 19.9562 9.78753C19.9423 9.83834 19.9008 9.96305 19.8592 10.0647C19.813 10.1848 19.7899 10.4111 19.7853 10.6975C19.7853 11.1409 19.7945 11.1778 20.0024 11.5751C20.0717 11.709 20.0855 12.0185 20.1132 14.2217C20.1363 15.5935 20.1502 16.9007 20.1502 17.1224V17.5289L21.8499 17.5012C22.783 17.4873 23.7021 17.4642 23.8823 17.4503C24.5289 17.4042 24.8384 17.2102 24.9862 16.7483C25.0693 16.5035 25.074 16.2956 25.074 13.8661C25.074 11.3164 25.0693 11.2471 24.9816 11.1363C24.9308 11.0716 24.8014 10.9099 24.6906 10.776L24.492 10.5358L24.6536 10.3695C24.7414 10.2771 24.8338 10.1201 24.8661 10.0185C24.9862 9.61201 25.0555 5.09007 24.9446 4.86836C24.9169 4.8037 24.7922 4.70208 24.6721 4.64665C24.4781 4.54966 24.3534 4.53118 23.5867 4.49885C22.6536 4.45266 21.3141 4.45266 20.6305 4.49423ZM23.0185 6.32333C23.0601 6.37414 23.0693 6.78984 23.0555 8.00924C23.037 9.89839 23.0693 9.79215 22.5797 9.74134C22.0763 9.69053 22.1086 9.71363 22.067 9.26559C22.0162 8.72518 22.0162 7.56582 22.067 6.84065L22.104 6.25404H22.5335C22.8523 6.25404 22.977 6.27252 23.0185 6.32333ZM22.9308 11.6582C23.0509 11.7275 23.0693 12.0785 23.0555 14.0139L23.0416 15.746L22.7645 15.7598C22.0947 15.7968 21.9377 15.6952 22.0024 15.261C22.0255 15.1224 22.0532 14.2956 22.067 13.4273C22.0809 12.5589 22.1132 11.7968 22.1409 11.7321C22.164 11.6721 22.2287 11.6074 22.2887 11.5982C22.4319 11.5658 22.8292 11.6074 22.9308 11.6582Z" fill="#245DF4"/>
<path d="M26.7922 4.72513C26.649 4.87756 26.5058 5.0577 26.4781 5.1316C26.358 5.44569 26.3257 6.65585 26.3903 8.54961C26.4319 9.87525 26.4412 11.3117 26.4227 13.5565L26.395 16.702L26.5612 16.9561C26.8384 17.3764 26.94 17.4272 27.5959 17.4826C27.91 17.5104 28.7506 17.5242 29.4619 17.515C30.6767 17.4965 30.7691 17.4919 30.9446 17.3995C31.2079 17.2609 31.4111 17.0115 31.4897 16.7251C31.6375 16.194 31.6144 10.1108 31.4666 9.79211L31.4019 9.65816L30.3857 9.68587C29.8268 9.69973 29.3326 9.72282 29.291 9.7413C29.1709 9.78749 29.1525 9.87987 29.1294 10.6281L29.1017 11.3256L29.3372 11.4734L29.5728 11.6166L29.5913 13.3348C29.6051 14.6143 29.6236 15.0993 29.6698 15.2286C29.7252 15.381 29.7206 15.4226 29.6513 15.5704L29.5728 15.7367L29.0324 15.709C28.3903 15.6766 28.3118 15.6535 28.3534 15.5196C28.4504 15.2194 28.4966 10.4064 28.4227 7.77825C28.4042 6.95146 28.3903 6.27248 28.395 6.26786C28.3996 6.26324 28.6629 6.24477 28.9816 6.22629C29.7206 6.18934 29.7252 6.19396 29.7483 6.72052C29.7622 6.93299 29.7899 7.16855 29.8176 7.23784C29.8592 7.34407 29.8546 7.38102 29.8037 7.41336C29.6975 7.47802 29.8176 7.61197 30.0347 7.65816C30.2194 7.69973 31.3049 7.63968 31.3557 7.58426C31.4019 7.53807 31.4712 6.41567 31.4712 5.69511V4.97456L31.2679 4.78518C31.1571 4.68356 30.9862 4.57271 30.8892 4.54038C30.7599 4.49419 30.2102 4.47571 28.88 4.46647L27.0555 4.448L26.7922 4.72513Z" fill="#245DF4"/>
<path d="M7.12013 4.53115C6.95384 4.54039 6.79218 4.57272 6.76909 4.60505C6.70904 4.67434 6.70442 4.86833 6.70904 6.42953L6.71366 7.64431L6.81066 7.6166C6.90304 7.58427 6.90766 7.59351 6.87994 7.73669C6.86608 7.81983 6.82451 7.90298 6.79218 7.92607C6.75061 7.94916 6.72752 8.25863 6.70442 9.04385C6.67671 10.097 6.67209 10.1293 6.55662 10.3279C6.44114 10.5265 6.43652 10.5589 6.43652 11.321V12.1108L6.552 12.1385C6.61666 12.157 6.6998 12.2217 6.74137 12.2817C6.80604 12.3833 6.81066 12.4157 6.75523 12.545C6.70904 12.6605 6.69518 13.1778 6.69057 14.9376V17.1778L6.80604 17.3487C6.8707 17.4457 6.97232 17.5381 7.03699 17.5566C7.10165 17.5796 7.43421 17.5935 7.77602 17.5935C8.49657 17.5935 8.61666 17.5519 8.6998 17.2609C8.77832 16.9746 8.80142 15.8429 8.75523 14.0831C8.73214 13.1409 8.73214 12.4018 8.75523 12.3741C8.77832 12.351 9.25408 12.3187 9.8453 12.3002C10.94 12.2679 11.2402 12.2217 11.5497 12.0323C11.8592 11.8429 11.8407 12.06 11.8499 8.3972C11.8592 4.79905 11.8638 4.9099 11.6097 4.72515C11.5451 4.67896 11.3511 4.61891 11.1709 4.59582C10.8291 4.54963 7.64207 4.49882 7.12013 4.53115ZM9.72059 6.34639C9.80373 6.39258 9.80835 6.46187 9.81297 7.99997C9.81297 8.88219 9.83144 9.64431 9.85454 9.69512C9.87763 9.74593 9.89611 9.75979 9.89611 9.72746C9.90073 9.62584 9.98387 9.7136 10.0162 9.85679C10.0578 10.0415 10.007 10.1801 9.90073 10.1801C9.8453 10.1801 9.80835 10.2171 9.79911 10.2817C9.78525 10.3833 9.76678 10.388 9.43883 10.3741C8.75061 10.3464 8.56123 10.2171 8.71828 9.87988C8.79218 9.72746 8.7968 9.56579 8.76447 8.0323C8.72752 6.10159 8.66747 6.31406 9.26793 6.30482C9.46655 6.30482 9.66978 6.3233 9.72059 6.34639Z" fill="#245DF4"/>
</svg>
