<svg width="34" height="34" viewBox="0 0 34 34" fill="none" xmlns="http://www.w3.org/2000/svg">
<path d="M14.0451 0.521271C14.0451 0.553806 14.0614 0.591763 14.0776 0.613454C14.1319 0.66768 14.1373 1.13402 14.0776 1.10148C14.0505 1.08521 14.0451 1.09606 14.0668 1.13402C14.0885 1.16655 14.1319 1.18282 14.159 1.16655C14.1861 1.14486 14.2078 1.17198 14.2078 1.21536C14.2078 1.26416 14.2295 1.30212 14.262 1.30212C14.2891 1.30212 14.2945 1.3455 14.2783 1.3943C14.2512 1.45937 14.2674 1.47564 14.3217 1.45395C14.3813 1.43226 14.3976 1.46479 14.3921 1.60036C14.3867 1.69796 14.3542 1.82268 14.3217 1.88775C14.2783 1.96909 14.2837 2.01247 14.3433 2.06127C14.3867 2.09923 14.4084 2.15345 14.3867 2.19141C14.365 2.22395 14.3921 2.21852 14.441 2.17514C14.5223 2.11007 14.5331 2.1155 14.5331 2.21852C14.5331 2.29444 14.5114 2.32698 14.4735 2.29986C14.4355 2.27817 14.4355 2.30528 14.4789 2.38662C14.5277 2.47338 14.5277 2.52219 14.4843 2.56557C14.4138 2.63606 14.403 2.89634 14.4735 2.85296C14.5928 2.77705 14.6579 2.98852 14.6253 3.34099C14.5982 3.63381 14.6036 3.69345 14.6633 3.67176C14.7338 3.64465 14.8368 3.86155 14.8097 3.98085C14.8043 4.00796 14.8314 4.05134 14.8639 4.07303C14.9127 4.10014 14.9181 4.14895 14.8802 4.24113C14.8476 4.31162 14.8314 4.40381 14.8314 4.44719C14.8368 4.49057 14.8476 4.58817 14.8531 4.66409C14.8585 4.77254 14.8693 4.78338 14.9127 4.71831C14.9507 4.66409 14.9669 4.74543 14.9669 5.00571C14.9669 5.23888 14.9886 5.3636 15.0212 5.3419C15.0537 5.32564 15.0754 5.36902 15.0754 5.44493C15.0754 5.52085 15.1025 5.59676 15.135 5.61845C15.173 5.64014 15.1893 5.76486 15.173 5.94381C15.1513 6.20409 15.1567 6.22578 15.2435 6.1824C15.2923 6.14986 15.3682 6.00888 15.4062 5.85705C15.4875 5.54796 15.5634 5.49916 15.5634 5.77029C15.5634 5.86789 15.5743 6.01972 15.5851 6.10648C15.596 6.19324 15.5905 6.2312 15.5797 6.19324C15.5634 6.15529 15.5038 6.12817 15.4387 6.13902C15.3302 6.15529 15.3194 6.18782 15.3194 6.5674C15.3194 6.86021 15.3357 6.97409 15.3845 6.95782C15.417 6.94698 15.4604 6.8819 15.4821 6.81683C15.52 6.70838 15.5255 6.70838 15.5471 6.80057C15.5634 6.85479 15.5417 6.91986 15.5092 6.94155C15.4116 7.0012 15.4875 7.2886 15.5905 7.25064C15.6285 7.23437 15.6827 7.26148 15.699 7.31029C15.7586 7.45127 15.7749 7.70071 15.7207 7.66817C15.6936 7.6519 15.6719 7.57599 15.6719 7.49465C15.6719 7.28317 15.558 7.42416 15.5363 7.66817C15.5255 7.79289 15.5417 7.85796 15.5797 7.84712C15.6176 7.84169 15.6448 7.87423 15.6448 7.91761C15.6448 7.96099 15.661 8.00979 15.6827 8.02606C15.7532 8.08029 15.7803 8.41106 15.7261 8.51409C15.6881 8.59 15.6881 8.62254 15.7261 8.62254C15.7532 8.62254 15.7803 8.68761 15.7803 8.76895C15.7803 9.0943 15.6068 9.07803 18.9688 9.08888L22.0596 9.0943L22.1193 8.96416C22.1518 8.89367 22.1789 8.79606 22.1789 8.75268C22.1789 8.7093 22.2006 8.68219 22.2277 8.69845C22.2548 8.71472 22.2765 8.62796 22.2765 8.49782C22.2765 8.3731 22.2982 8.15078 22.3145 8.00437C22.3416 7.82 22.3362 7.74951 22.2928 7.77662C22.2602 7.79831 22.2331 7.78205 22.2331 7.74409C22.2331 7.62479 22.3741 7.26148 22.4067 7.29402C22.45 7.34282 22.5964 6.80599 22.6073 6.55113C22.6073 6.46979 22.6452 6.37219 22.6886 6.32881C22.7374 6.28543 22.77 6.12275 22.7808 5.93296C22.7862 5.75944 22.8133 5.58592 22.8405 5.54796C22.873 5.51 22.8784 5.45578 22.8567 5.42324C22.8405 5.39613 22.8459 5.36902 22.8784 5.36902C22.9055 5.36902 22.9381 5.40155 22.9543 5.43409C22.9652 5.47205 22.976 5.43951 22.9706 5.35817C22.9706 5.28226 22.9435 5.22803 22.9164 5.24972C22.8893 5.26599 22.8893 5.2443 22.9164 5.20092C22.9435 5.15754 22.9706 5.04909 22.9706 4.96233C22.976 4.87014 22.9814 4.74 22.9869 4.66951C22.9923 4.58275 23.014 4.55564 23.0736 4.5719C23.1333 4.59902 23.1441 4.5719 23.1279 4.44719C23.1116 4.355 23.0899 4.21402 23.0736 4.12183C23.0628 4.03507 23.079 3.94831 23.1116 3.92662C23.155 3.89951 23.1604 3.91578 23.1387 3.97543C23.079 4.12726 23.1767 4.07845 23.2526 3.9212C23.2851 3.83986 23.3122 3.67719 23.3122 3.55789C23.3068 3.43317 23.2905 3.38979 23.2797 3.45486C23.2688 3.52536 23.2309 3.57958 23.2038 3.57958C23.1387 3.57958 23.1441 3.35726 23.2092 3.25423C23.2471 3.19458 23.2634 3.19458 23.2634 3.24338C23.2634 3.28134 23.2851 3.30303 23.3122 3.28676C23.3393 3.2705 23.361 3.16747 23.361 3.06444C23.361 2.95599 23.3827 2.84212 23.4152 2.80416C23.4424 2.77162 23.4695 2.67402 23.4695 2.59268C23.4695 2.51134 23.5183 2.34867 23.5833 2.22937C23.6593 2.07754 23.6864 1.95824 23.6647 1.84437C23.6267 1.67085 23.7026 1.10148 23.7352 1.25874C23.784 1.46479 23.849 1.34007 23.8436 1.0581C23.8382 0.808665 23.8165 0.759863 23.7352 0.759863C23.681 0.759863 23.6538 0.73275 23.6701 0.705637C23.6864 0.673102 23.7514 0.651412 23.8111 0.651412C23.8653 0.651412 23.9141 0.618876 23.9141 0.580919C23.9141 0.488736 22.9652 0.456201 22.8513 0.548384C22.7917 0.597186 22.6561 0.597186 22.2277 0.548384C21.5445 0.472468 21.1866 0.472468 21.1107 0.548384C21.0673 0.591763 20.8775 0.591763 20.4057 0.542961C19.7225 0.477891 16.084 0.494158 15.7152 0.570074C15.5797 0.597186 15.5092 0.586341 15.5092 0.553806C15.5092 0.515848 15.2435 0.488736 14.7771 0.477891C14.2783 0.467046 14.0451 0.477891 14.0451 0.521271ZM15.8291 0.743595C15.8291 0.814088 15.8183 0.81951 15.7966 0.765285C15.7803 0.721905 15.7532 0.716482 15.7315 0.749018C15.7098 0.781552 15.6719 0.77613 15.6285 0.727327C15.5688 0.662257 15.5797 0.651412 15.699 0.651412C15.7912 0.651412 15.8345 0.678524 15.8291 0.743595ZM20.9751 0.852046C20.9209 0.86289 20.8233 0.86289 20.7582 0.852046C20.6877 0.841201 20.7311 0.830356 20.8504 0.830356C20.9697 0.824933 21.0239 0.835778 20.9751 0.852046ZM14.8043 1.2262C14.8043 1.34007 14.7826 1.40514 14.75 1.38345C14.7229 1.36719 14.6958 1.26416 14.6958 1.16113C14.6958 1.04726 14.7175 0.982186 14.75 1.00388C14.7826 1.02014 14.8043 1.12317 14.8043 1.2262ZM23.5779 1.83895C23.5942 1.88233 23.5725 1.90402 23.5291 1.88775C23.4912 1.8769 23.4478 1.83352 23.4369 1.79557C23.4207 1.75219 23.4424 1.7305 23.4857 1.74676C23.5237 1.75761 23.5671 1.80099 23.5779 1.83895ZM14.9127 2.19683C14.9127 2.3324 14.891 2.44085 14.8585 2.44085C14.8314 2.44085 14.8043 2.3324 14.8043 2.19683C14.8043 2.06127 14.8314 1.95282 14.8585 1.95282C14.891 1.95282 14.9127 2.06127 14.9127 2.19683ZM23.2959 2.35409C23.3285 2.64148 23.2363 2.69571 23.1875 2.41916C23.155 2.25106 23.1929 2.02874 23.2471 2.07754C23.258 2.09381 23.2797 2.21852 23.2959 2.35409ZM22.9381 2.47338C22.9381 2.5493 22.911 2.60352 22.8784 2.59268C22.8459 2.58183 22.8242 2.55472 22.8242 2.53303C22.8296 2.51134 22.8296 2.44627 22.8296 2.3812C22.8296 2.32155 22.8567 2.28902 22.8838 2.30528C22.9164 2.32155 22.9381 2.40289 22.9381 2.47338ZM14.7446 2.72282C14.7392 2.95057 14.7392 2.95057 14.6904 2.79331C14.6633 2.70113 14.6524 2.5981 14.6687 2.56014C14.7175 2.43 14.75 2.5005 14.7446 2.72282ZM15.0157 4.49057C15.0157 4.62071 15.0103 4.62613 14.9669 4.52852C14.9019 4.37669 14.9019 4.27367 14.9669 4.31162C14.9995 4.32789 15.0212 4.40923 15.0157 4.49057ZM15.8725 5.97634C15.8617 6.04683 15.8508 6.00345 15.8508 5.88416C15.8454 5.76486 15.8562 5.71064 15.8725 5.75944C15.8833 5.81367 15.8833 5.91127 15.8725 5.97634ZM22.5476 6.16071C22.5531 6.23662 22.5368 6.28543 22.5043 6.26374C22.4717 6.24747 22.45 6.27458 22.45 6.32338C22.45 6.37761 22.4338 6.40472 22.4175 6.38303C22.3741 6.34507 22.4446 6.01972 22.4988 6.01972C22.5151 6.01972 22.5422 6.07937 22.5476 6.16071ZM22.206 6.13359C22.2602 6.21493 22.1843 6.57282 22.1193 6.53486C22.0542 6.49148 22.0542 6.07395 22.1193 6.07395C22.1518 6.07395 22.1898 6.10106 22.206 6.13359ZM22.0325 7.79289C22.0054 7.85254 21.9891 7.85796 21.962 7.80374C21.9349 7.76578 21.9295 7.70071 21.9457 7.66275C21.9729 7.6031 21.9891 7.59768 22.0162 7.6519C22.0433 7.68986 22.0488 7.75493 22.0325 7.79289ZM15.8833 7.90134C15.8833 8.0369 15.8779 8.04233 15.8345 7.94472C15.7695 7.79831 15.7695 7.75493 15.8345 7.75493C15.8671 7.75493 15.8888 7.82 15.8833 7.90134ZM22.2006 8.22127C22.2169 8.26465 22.2114 8.28634 22.1789 8.27007C22.1464 8.25381 22.1193 8.29176 22.1193 8.36226C22.1138 8.45986 22.1084 8.46529 22.0867 8.38937C22.0596 8.29176 22.0976 8.13451 22.1464 8.13451C22.1572 8.13451 22.1843 8.17247 22.2006 8.22127ZM18.3994 8.8774C18.3289 8.88824 18.2205 8.88824 18.1554 8.8774C18.0849 8.86655 18.1391 8.85571 18.2747 8.85571C18.4102 8.85571 18.4645 8.86655 18.3994 8.8774ZM20.5684 8.8774C20.4979 8.88824 20.3895 8.88824 20.3244 8.8774C20.2539 8.86655 20.3081 8.85571 20.4437 8.85571C20.5793 8.85571 20.6335 8.86655 20.5684 8.8774Z" fill="#245DF4"/>
<path d="M15.8996 10.721C15.8508 10.7644 15.8345 11.1928 15.8345 12.1743C15.8345 12.9334 15.84 13.5625 15.8508 13.5679C15.8562 13.5733 17.2715 13.595 18.9904 13.6113L22.1193 13.6384L22.0379 13.5136C21.9837 13.4323 21.9728 13.3618 22.0108 13.2967C22.0921 13.1395 22.0867 11.2525 22.0054 11.1169C21.9457 11.0247 21.9457 10.9976 22.0108 10.9596C22.0488 10.9325 22.0921 10.8566 22.0976 10.7861L22.1138 10.656H19.0338C16.6533 10.6505 15.9484 10.6668 15.8996 10.721ZM21.9078 10.9108C21.9078 10.9325 20.6497 10.9542 19.1097 10.9542C17.1359 10.9542 16.328 10.9379 16.3497 10.8946C16.3931 10.8241 21.9078 10.8403 21.9078 10.9108Z" fill="#245DF4"/>
<path d="M0.526719 14.0234C0.461648 14.0939 0.483338 14.1535 0.570099 14.121C0.624324 14.0993 0.651437 14.121 0.651437 14.1861C0.651437 14.2349 0.635169 14.262 0.613479 14.2457C0.564676 14.1915 0.434536 14.3108 0.467071 14.3867C0.510451 14.5168 0.532141 16.0514 0.537564 19.7279C0.542986 22.6994 0.559254 23.4749 0.613479 23.4694C0.646014 23.4586 0.67855 23.502 0.67855 23.5616C0.67855 23.643 0.646014 23.6647 0.559254 23.6538C0.450803 23.6375 0.445381 23.6484 0.505029 23.7677C0.559254 23.8816 0.586367 23.8924 0.689395 23.8436C0.759888 23.8111 0.814113 23.7677 0.814113 23.7406C0.814113 23.7135 0.938831 23.708 1.08524 23.7243C1.25334 23.7406 1.35637 23.7352 1.35637 23.6972C1.35637 23.6701 1.31299 23.643 1.26418 23.6375C1.20996 23.6375 1.23165 23.6159 1.31841 23.5887C1.39975 23.5616 1.64376 23.5562 1.84982 23.5671C2.07756 23.5833 2.22397 23.5725 2.20228 23.5454C2.13721 23.4423 2.43003 23.3556 2.73911 23.3935C2.9777 23.4206 3.03735 23.4098 3.03735 23.3502C3.03735 23.2688 3.31932 23.1441 3.4332 23.1821C3.47116 23.1929 3.58503 23.2146 3.68806 23.2309C3.82362 23.2525 3.85616 23.2471 3.79651 23.2092C3.72601 23.1604 3.72601 23.1549 3.79651 23.1549C3.86158 23.1495 3.85616 23.1387 3.78024 23.0953C3.73144 23.0682 3.66094 23.0573 3.63383 23.0736C3.6013 23.0899 3.57961 23.079 3.57961 23.0465C3.57961 23.0031 3.62841 22.9923 3.72059 23.014C3.80193 23.0356 3.89411 23.0248 3.93749 22.9868C3.99714 22.938 4.09475 22.938 4.34961 22.9923C4.66954 23.0519 4.6858 23.0519 4.77799 22.9326C4.85932 22.8242 4.89728 22.8133 5.19552 22.8459C5.4558 22.873 5.54256 22.8621 5.60763 22.7971C5.71066 22.694 5.71608 22.629 5.62932 22.5964C5.59137 22.5802 5.61848 22.5747 5.69439 22.5802C5.77031 22.5856 5.86792 22.6127 5.90587 22.6398C5.9601 22.6723 5.97094 22.6615 5.93841 22.6127C5.90587 22.5639 5.92756 22.5585 6.02517 22.5856C6.09566 22.6073 6.177 22.6452 6.20954 22.6723C6.26918 22.732 6.36137 22.7374 6.32341 22.6778C6.28003 22.6018 6.6813 22.488 6.95242 22.4988C7.17475 22.5042 7.23982 22.4825 7.3808 22.3416C7.47841 22.2548 7.55975 22.1789 7.56517 22.1789C7.57059 22.1789 7.67904 22.2168 7.80376 22.2602C7.9339 22.3036 8.02608 22.3144 8.02608 22.2819C8.02608 22.2168 8.32432 22.0867 8.54122 22.065C8.63341 22.0542 8.72017 22.0216 8.74186 21.9891C8.76897 21.9566 8.78524 21.9566 8.78524 21.9945C8.78524 22.0379 8.84489 22.0433 8.95876 22.0216L9.1377 21.9837L9.15397 19.0392C9.17024 16.1056 9.17024 16.0948 9.06179 16.0677C8.90996 16.0297 8.91538 15.9538 9.06721 15.9321C9.14313 15.9213 9.19735 15.8725 9.20277 15.8074C9.21362 15.7478 9.20277 15.7315 9.18651 15.7694C9.17024 15.802 9.13228 15.8237 9.10517 15.802C9.03468 15.7586 8.83404 15.8345 8.86658 15.8942C8.88827 15.9213 8.86115 15.943 8.81777 15.943C8.76897 15.943 8.73101 15.9159 8.73101 15.8887C8.73101 15.8562 8.69848 15.8345 8.66052 15.8345C8.55749 15.8345 8.39482 15.6285 8.47615 15.5959C8.51411 15.5851 8.45989 15.5688 8.36228 15.5688C8.26468 15.5634 8.13996 15.5905 8.08031 15.6285C7.99897 15.6827 7.96101 15.6773 7.86883 15.5959C7.77665 15.5146 7.35911 15.4278 6.93073 15.4007C6.90362 15.4007 6.88735 15.3682 6.88735 15.3248C6.88735 15.2218 6.74094 15.1947 6.49151 15.2597C6.32883 15.3031 6.25292 15.2977 6.11193 15.2272C5.88418 15.1079 5.58052 15.0645 5.47749 15.1296C5.41242 15.173 5.41785 15.1838 5.51545 15.1838C5.69439 15.1838 5.71066 15.2652 5.54799 15.3411C5.407 15.4061 5.34735 15.3899 5.33651 15.276C5.33651 15.238 5.32566 15.1675 5.32566 15.1133C5.32024 15.0645 5.28228 15.0211 5.2389 15.0211C5.19552 15.0211 5.15214 14.9994 5.1413 14.9723C5.13587 14.9452 4.99489 14.9127 4.84306 14.9018C4.63158 14.8856 4.55566 14.8964 4.55566 14.9506C4.55566 15.0482 4.50144 15.0374 4.31165 14.9127C4.22489 14.853 4.01883 14.7771 3.867 14.7446C3.70975 14.7121 3.54707 14.6524 3.50369 14.609C3.44404 14.5494 3.33017 14.5385 3.03735 14.5602C2.80961 14.5765 2.6632 14.5711 2.67947 14.5385C2.76623 14.403 2.22397 14.3162 2.02334 14.4409C1.95285 14.4843 1.73594 14.4247 1.73594 14.365C1.73594 14.3379 1.81728 14.3108 1.91489 14.3108C2.08299 14.2999 2.08299 14.2999 1.87151 14.262C1.75221 14.2403 1.70341 14.2186 1.75763 14.2132C1.81728 14.2132 1.84439 14.1915 1.82813 14.1698C1.80644 14.1535 1.68714 14.1698 1.56242 14.2132C1.39432 14.2674 1.32925 14.2674 1.31841 14.224C1.30214 14.1861 1.25876 14.1752 1.20996 14.1915C1.14489 14.2186 1.13404 14.2078 1.16658 14.1535C1.19369 14.1102 1.18827 14.0939 1.15031 14.121C1.1232 14.1373 1.08524 14.1264 1.07439 14.0939C1.0527 14.0288 0.586367 13.9692 0.526719 14.0234ZM1.12862 14.2566C1.13947 14.2566 1.12862 14.2891 1.10693 14.3216C1.08524 14.365 1.05813 14.3596 1.02559 14.3108C0.982212 14.2457 0.971367 14.2457 0.927986 14.3108C0.884606 14.3759 0.868338 14.3759 0.797845 14.3054C0.72193 14.2349 0.732775 14.224 0.911719 14.2349C1.02017 14.2403 1.11778 14.2511 1.12862 14.2566ZM1.30214 14.4789C1.30214 14.506 1.26961 14.5331 1.22623 14.5331C1.18285 14.5331 1.12862 14.506 1.11235 14.4789C1.09608 14.4463 1.12862 14.4247 1.18827 14.4247C1.25334 14.4247 1.30214 14.4463 1.30214 14.4789ZM1.79017 14.5873C1.79017 14.6144 1.71425 14.6416 1.62207 14.6416C1.52989 14.6416 1.47024 14.6199 1.49193 14.5873C1.5082 14.5548 1.58411 14.5331 1.66003 14.5331C1.73052 14.5331 1.79017 14.5548 1.79017 14.5873ZM2.33242 14.5873C2.39207 14.6253 2.35954 14.6416 2.21313 14.6416C2.09925 14.6416 2.00707 14.6144 2.00707 14.5873C2.00707 14.5168 2.22397 14.5168 2.33242 14.5873ZM0.884606 15.0591C0.852071 15.6339 0.824958 15.6773 0.819536 15.1675C0.814113 14.9127 0.792423 14.75 0.754465 14.75C0.727352 14.75 0.716507 14.7229 0.732775 14.6958C0.749043 14.6632 0.797845 14.6416 0.835803 14.6416C0.890029 14.6416 0.900874 14.7446 0.884606 15.0591ZM3.25425 14.7283C3.25425 14.7392 3.19461 14.75 3.11869 14.75C3.04277 14.75 2.98313 14.7283 2.98313 14.7012C2.98313 14.6795 3.04277 14.6687 3.11869 14.6849C3.19461 14.6958 3.25425 14.7175 3.25425 14.7283ZM4.96777 15.1187C5.01116 15.1459 5.01116 15.2001 4.98404 15.2868L4.93524 15.417L4.81052 15.2868C4.69665 15.1621 4.71292 15.0754 4.8539 15.0754C4.88644 15.0754 4.93524 15.0971 4.96777 15.1187ZM6.31799 15.4604C6.2963 15.4875 6.18242 15.5092 6.0577 15.5092C5.80827 15.5092 5.83538 15.4224 6.10108 15.3899C6.29087 15.3682 6.36137 15.3899 6.31799 15.4604ZM5.01658 15.5634C5.03827 15.5959 4.97862 15.6176 4.88101 15.6176C4.78341 15.6176 4.72376 15.5959 4.74545 15.5634C4.76172 15.5309 4.82679 15.5092 4.88101 15.5092C4.93524 15.5092 5.00031 15.5309 5.01658 15.5634ZM6.83313 15.5525C6.83313 15.5742 6.77348 15.5959 6.69756 15.5959C6.62165 15.5959 6.562 15.5742 6.562 15.5525C6.562 15.5309 6.62165 15.5092 6.69756 15.5092C6.77348 15.5092 6.83313 15.5309 6.83313 15.5525ZM0.797845 21.4306C0.792423 22.5151 0.787 21.6421 0.787 19.4947C0.787 17.3474 0.792423 16.4635 0.797845 17.5263C0.808691 18.5892 0.808691 20.3461 0.797845 21.4306ZM8.93165 16.187C8.97503 16.3063 8.9208 16.3388 8.74728 16.2954C8.60087 16.2629 8.60087 16.2575 8.69848 16.1816C8.83404 16.084 8.88827 16.084 8.93165 16.187ZM8.05862 21.859C8.13453 21.9782 7.98813 22.0108 7.71158 21.9294C7.55975 21.8806 7.42961 21.8373 7.42961 21.821C7.42961 21.7722 8.02066 21.8047 8.05862 21.859ZM6.38306 22.3795C6.36679 22.4337 6.35594 22.3904 6.35594 22.2873C6.35594 22.1843 6.36679 22.1409 6.38306 22.1897C6.3939 22.244 6.3939 22.3307 6.38306 22.3795ZM7.3808 22.1843C7.30489 22.2168 7.22897 22.2168 7.20186 22.1897C7.17475 22.1626 7.22897 22.1409 7.332 22.1355C7.5001 22.1355 7.5001 22.1409 7.3808 22.1843ZM7.10425 22.3687C7.10425 22.4121 7.07714 22.45 7.04461 22.45C7.01749 22.45 7.00122 22.4283 7.01749 22.4012C7.03918 22.3741 7.01749 22.3361 6.98496 22.3253C6.94158 22.309 6.95242 22.2928 7.01207 22.2928C7.06087 22.2873 7.10425 22.3253 7.10425 22.3687ZM4.77256 22.6127C4.83763 22.6561 4.83221 22.6669 4.73461 22.6669C4.66411 22.6669 4.60989 22.6398 4.60989 22.6127C4.60989 22.5422 4.66954 22.5422 4.77256 22.6127ZM5.50461 22.6127C5.54799 22.6832 5.36904 22.6832 5.26059 22.6127C5.19552 22.5693 5.21179 22.5585 5.32566 22.5585C5.407 22.5585 5.48834 22.5802 5.50461 22.6127ZM3.71517 22.7211C3.6989 22.7482 3.58503 22.7754 3.46573 22.7754C3.33559 22.7754 3.25968 22.7537 3.28137 22.7211C3.29763 22.6886 3.41151 22.6669 3.5308 22.6669C3.66094 22.6669 3.73686 22.6886 3.71517 22.7211ZM4.23031 22.7211C4.23031 22.7916 4.17066 22.7916 4.06763 22.7211C4.00256 22.6778 4.00799 22.6669 4.11101 22.6669C4.17608 22.6669 4.23031 22.6886 4.23031 22.7211ZM4.60989 22.8296C4.60989 22.8567 4.56108 22.8838 4.50144 22.8838C4.44179 22.8838 4.39299 22.8567 4.39299 22.8296C4.39299 22.7971 4.44179 22.7754 4.50144 22.7754C4.56108 22.7754 4.60989 22.7971 4.60989 22.8296ZM1.172 23.4532C1.24792 23.5237 1.24249 23.5345 1.11778 23.5345C0.982212 23.5345 0.938831 23.4803 1.01475 23.4098C1.06355 23.3556 1.08524 23.361 1.172 23.4532Z" fill="#245DF4"/>
<path d="M10.7374 18.8766V21.9728L12.2069 21.9511L13.6764 21.9349L13.6655 19.0447C13.6655 17.0817 13.6818 16.1599 13.7198 16.1599C13.7469 16.1599 13.774 16.1057 13.774 16.0352C13.774 15.9376 13.7631 15.9321 13.7198 15.9972C13.671 16.0677 13.6655 16.0677 13.6601 15.9972C13.6547 15.9538 13.6547 15.8942 13.6601 15.8671C13.6655 15.84 13.633 15.8345 13.5842 15.8508C13.5408 15.8725 13.5029 15.8616 13.5029 15.8345C13.5029 15.7695 13.248 15.764 13.2209 15.8291C13.1992 15.8942 12.2015 15.943 12.2015 15.8779C12.2015 15.8508 12.2231 15.84 12.2448 15.8562C12.2665 15.8671 12.3207 15.8616 12.3641 15.8291C12.4238 15.7966 12.4075 15.7803 12.2991 15.7803C12.2123 15.7803 12.1472 15.8128 12.1472 15.8454C12.1472 15.8942 12.1255 15.8888 12.093 15.8345C12.0442 15.764 12.0388 15.764 12.0388 15.8345C12.0388 15.8996 12.0279 15.8996 11.99 15.8454C11.952 15.7857 11.9412 15.7857 11.9141 15.8562C11.8707 15.9647 11.7676 15.9701 11.7676 15.8616C11.7676 15.8183 11.7297 15.7803 11.6863 15.7803C11.6429 15.7803 11.605 15.8128 11.605 15.8508C11.605 15.905 11.5399 15.9159 11.3338 15.8888C11.182 15.8671 11.0465 15.8725 11.0356 15.8942C11.0193 15.9159 10.9597 15.9213 10.8946 15.905C10.8079 15.8833 10.8024 15.8616 10.8567 15.8291C10.9109 15.7911 10.9055 15.7803 10.835 15.7803C10.7428 15.7803 10.7374 15.9647 10.7374 18.8766ZM13.2588 16.3226C13.2209 16.3822 10.7916 16.3714 10.7916 16.3063C10.7916 16.2846 11.3555 16.2683 12.0442 16.2683C12.8305 16.2683 13.2805 16.29 13.2588 16.3226Z" fill="#245DF4"/>
<path d="M18.0198 16.4798C17.9439 16.572 17.9222 16.6533 17.9493 16.7021C17.971 16.7401 17.9819 16.8106 17.9602 16.8539C17.9439 16.9082 17.9548 16.9244 17.9927 16.8973C18.0361 16.8702 18.0578 16.9027 18.0578 16.9949C18.0578 17.098 18.0307 17.1359 17.9493 17.1359C17.868 17.1359 17.8463 17.1034 17.8571 16.9732C17.8626 16.8865 17.8897 16.8106 17.9168 16.8106C17.9439 16.8106 17.9493 16.7943 17.9331 16.778C17.9114 16.7563 17.8626 16.7726 17.8138 16.8106C17.765 16.8485 17.7162 16.8648 17.6999 16.8539C17.6836 16.8377 17.5264 16.9732 17.3474 17.1522C17.1305 17.3745 17.0438 17.4992 17.0817 17.5372C17.1739 17.6294 17.1414 17.6944 17.0438 17.6185C16.957 17.548 16.9516 17.5534 17.0221 17.6348C17.098 17.7378 17.0329 17.7703 16.9407 17.6782C16.8702 17.6077 16.3226 18.1282 16.3226 18.2746C16.3226 18.3397 16.3876 18.4156 16.5015 18.4699C16.6588 18.5566 16.6696 18.5566 16.5991 18.4753C16.5232 18.3777 16.572 18.356 16.6967 18.4319C16.7347 18.459 16.751 18.5078 16.7347 18.5403C16.6696 18.638 16.7455 18.7952 16.8865 18.8603C16.957 18.8928 17.0871 19.0446 17.1793 19.2073C17.2769 19.3646 17.3529 19.473 17.3529 19.4459C17.3529 19.4242 17.4396 19.4784 17.5426 19.5706C17.6511 19.6628 17.7541 19.7387 17.7812 19.7387C17.8029 19.7387 17.8571 19.8038 17.9005 19.8851C17.9439 19.9665 18.0361 20.0912 18.1066 20.1617C18.2367 20.2918 18.2421 20.2918 18.4157 20.1996C18.5187 20.1454 18.5838 20.0858 18.5729 20.0587C18.5567 20.037 18.5892 19.9827 18.6488 19.9448C18.7031 19.9068 18.7627 19.8255 18.7736 19.7658C18.7844 19.7008 18.844 19.6465 18.92 19.6303C18.9959 19.614 19.0447 19.5869 19.0284 19.5652C19.0176 19.5435 19.1098 19.4568 19.229 19.3646C19.3538 19.2778 19.4893 19.1531 19.5327 19.0934C19.5761 19.0284 19.6249 18.985 19.6357 18.9958C19.6466 19.0013 19.652 18.9958 19.6466 18.985C19.6357 18.9742 19.6629 18.9253 19.7008 18.882C19.755 18.8115 19.7442 18.8061 19.6303 18.8386C19.5164 18.8711 19.511 18.8657 19.5924 18.8169C19.6466 18.7789 19.7225 18.7681 19.7659 18.7844C19.8472 18.8115 19.9286 18.638 19.8743 18.5512C19.8255 18.4699 19.9448 18.4265 20.0533 18.4861C20.14 18.5295 20.1726 18.5187 20.2268 18.4102C20.2648 18.3397 20.3244 18.2963 20.3569 18.3126C20.3895 18.3343 20.1563 18.0849 19.8364 17.7703C19.3158 17.2552 19.126 17.0925 19.2182 17.2389C19.2507 17.2877 19.0935 17.3745 19.0501 17.3311C19.0338 17.3203 19.0555 17.2552 19.0881 17.1901C19.1423 17.0871 19.1314 17.0492 18.9796 16.8919C18.8712 16.7834 18.7573 16.7184 18.6814 16.7238C18.5783 16.7292 18.5675 16.7455 18.6163 16.8051C18.6705 16.8702 18.6651 16.8811 18.5892 16.8485C18.535 16.8323 18.4807 16.8377 18.4645 16.8648C18.4157 16.9461 18.15 16.6045 18.1825 16.5123C18.1988 16.4744 18.2638 16.4418 18.3235 16.4473C18.394 16.4527 18.4157 16.4744 18.3886 16.5015C18.3018 16.5882 18.3831 16.7075 18.4916 16.6479C18.5404 16.6208 18.6 16.6153 18.6217 16.6316C18.638 16.6479 18.6543 16.6479 18.6543 16.6208C18.6543 16.5991 18.5946 16.5232 18.5187 16.4527C18.4428 16.3822 18.3831 16.3496 18.3831 16.3822C18.3831 16.4147 18.3452 16.4147 18.2801 16.3768C18.1445 16.3063 18.1608 16.3008 18.0198 16.4798ZM18.9362 17.1088C18.9959 17.2118 18.9905 17.2118 18.8657 17.1305C18.7952 17.0817 18.7302 16.9841 18.7302 16.9136C18.7248 16.7943 18.7248 16.7943 18.8007 16.8973C18.844 16.9515 18.9037 17.0492 18.9362 17.1088ZM17.7324 17.2715C17.7324 17.3149 17.7107 17.3528 17.6836 17.3528C17.6511 17.3528 17.4342 17.5426 17.201 17.7758C16.9462 18.0198 16.7238 18.1987 16.6588 18.1987C16.5991 18.1987 16.5612 18.177 16.5774 18.1499C16.5937 18.1228 16.6425 18.1174 16.6859 18.1391C16.7564 18.1608 16.7618 18.1553 16.7076 18.0903C16.6479 18.0198 16.6642 18.0035 16.7889 17.971C16.9299 17.933 17.3529 17.5643 17.3529 17.4721C17.3529 17.4504 17.3908 17.3745 17.4396 17.3094C17.5318 17.1739 17.7324 17.1468 17.7324 17.2715ZM19.5273 17.5534C19.5924 17.6348 19.5924 17.6402 19.5002 17.6077C19.4243 17.5751 19.408 17.586 19.4351 17.6619C19.4676 17.7378 19.4568 17.7432 19.408 17.6944C19.3755 17.6619 19.3592 17.5914 19.3755 17.548C19.4188 17.4396 19.4351 17.4396 19.5273 17.5534ZM19.6845 17.7595C19.7388 17.727 19.8201 17.9439 19.7713 17.9873C19.7225 18.0415 19.5219 17.7812 19.5598 17.7161C19.5869 17.6727 19.6032 17.6782 19.6195 17.7215C19.6303 17.7595 19.6574 17.7758 19.6845 17.7595ZM17.624 17.8896C17.624 18.0089 17.5372 18.0849 17.4938 18.0089C17.4505 17.9439 17.5101 17.7866 17.5752 17.7866C17.6023 17.7866 17.624 17.8354 17.624 17.8896ZM17.4342 18.112C17.4776 18.1879 17.3203 18.2421 17.2064 18.1933C17.1143 18.1553 17.1197 18.1499 17.2173 18.112C17.3637 18.0469 17.3962 18.0469 17.4342 18.112ZM20.0858 18.1499C20.1292 18.2584 20.0424 18.2746 19.9123 18.177L19.793 18.0849H19.9286C20.0045 18.0849 20.075 18.112 20.0858 18.1499ZM17.1793 18.4156C17.4776 18.7193 17.5047 19.1965 17.2173 19.1965C17.1902 19.1965 17.1956 19.1748 17.2336 19.1477C17.3366 19.088 17.2986 18.6217 17.1956 18.6434C17.1468 18.6542 17.136 18.6271 17.1576 18.5729C17.1739 18.5241 17.1685 18.5024 17.136 18.5187C17.1034 18.5403 17.0329 18.5349 16.9733 18.5187C16.8865 18.4915 16.8811 18.4699 16.9353 18.4102C17.0221 18.3072 17.0709 18.3126 17.1793 18.4156ZM19.4676 19.0067C19.4676 19.0501 19.4297 19.088 19.3809 19.088C19.3375 19.088 19.3104 19.1043 19.3212 19.126C19.3321 19.1531 19.2724 19.2236 19.1911 19.2941C19.023 19.4296 18.9742 19.408 19.1206 19.267C19.1911 19.1965 19.1911 19.1748 19.1314 19.1368C19.0826 19.1043 19.0989 19.088 19.1857 19.088C19.2507 19.088 19.3212 19.0501 19.3375 19.0067C19.3592 18.9633 19.3917 18.9253 19.4188 18.9253C19.446 18.9253 19.4676 18.9633 19.4676 19.0067ZM18.0469 19.2995C18.15 19.3592 18.2855 19.6303 18.3018 19.793C18.3072 19.8689 18.3235 19.9611 18.3343 20.0044C18.3452 20.0424 18.3126 20.0858 18.2638 20.0912C18.1825 20.1075 18.1662 20.0641 18.1662 19.8092C18.1662 19.511 18.1662 19.511 17.9493 19.4296C17.7975 19.37 17.7487 19.3266 17.7975 19.2941C17.8897 19.2399 17.9602 19.2399 18.0469 19.2995Z" fill="#245DF4"/>
<path d="M22.9001 18.638C22.8621 18.6542 22.8296 18.6976 22.8296 18.7356C22.8296 18.7735 22.77 18.844 22.694 18.8928C22.6181 18.9416 22.5585 19.0067 22.5585 19.0392C22.5585 19.0663 22.4717 19.1639 22.3687 19.2561C22.2657 19.3483 22.1952 19.4459 22.2114 19.473C22.2277 19.5001 22.2223 19.5164 22.1952 19.511C22.1084 19.4784 21.7288 19.8363 21.7722 19.9068C21.7993 19.9502 21.7939 19.9611 21.7559 19.9339C21.718 19.9123 21.6909 19.9231 21.6909 19.9556C21.6909 19.9882 21.6312 20.0424 21.5553 20.0749C21.4794 20.1075 21.4197 20.1671 21.4197 20.2051C21.4197 20.243 21.3709 20.3027 21.3113 20.3352C21.2516 20.3677 21.2028 20.4437 21.2028 20.5033C21.2028 20.5684 21.1757 20.6063 21.1378 20.5901C21.0998 20.5792 21.0239 20.5901 20.9697 20.6172C20.8883 20.6606 20.8829 20.6823 20.9426 20.7582C20.9805 20.807 20.9914 20.8341 20.9642 20.8124C20.8992 20.7582 20.6064 20.8775 20.6064 20.9588C20.6064 20.9968 20.5304 21.0944 20.4383 21.1703C20.3244 21.2679 20.2756 21.3492 20.2973 21.4143C20.3244 21.5227 20.0858 21.7451 19.9448 21.7451C19.9014 21.7451 19.793 21.8318 19.69 21.9349C19.5923 22.0379 19.4947 22.1138 19.473 22.103C19.4514 22.0867 19.4297 22.1301 19.4297 22.1897C19.4242 22.2548 19.3809 22.3415 19.3321 22.3903C19.2507 22.4717 19.2507 22.4663 19.2833 22.3687C19.3212 22.2711 19.3158 22.2711 19.2345 22.3361C19.1694 22.3849 19.1585 22.4283 19.1911 22.4717C19.2724 22.5693 19.1694 22.7049 19.0772 22.6235C19.0121 22.5747 18.9633 22.6018 18.8169 22.7482C18.7139 22.8567 18.6651 22.938 18.7085 22.938C18.7464 22.938 18.7681 22.9543 18.7464 22.9706C18.7139 23.0085 18.9254 23.2634 18.9904 23.2634C19.0121 23.2634 19.0338 23.2363 19.0338 23.2092C19.0338 23.1766 19.0013 23.1549 18.9633 23.1549C18.92 23.1549 18.8874 23.117 18.8874 23.0736C18.8874 22.9651 19.0121 22.9706 19.0555 23.0736C19.0718 23.117 19.1152 23.1495 19.1531 23.1441C19.1857 23.1332 19.229 23.1712 19.2399 23.22C19.2507 23.2905 19.2236 23.3176 19.1477 23.3176C19.0826 23.3176 19.0338 23.3393 19.0338 23.3718C19.0338 23.3989 19.0501 23.4261 19.0772 23.4261C19.0989 23.4261 19.1857 23.4857 19.2724 23.5616C19.3592 23.6375 19.4514 23.6972 19.473 23.6972C19.5002 23.6972 19.5327 23.7568 19.5544 23.8327C19.5761 23.9195 19.6628 24.0008 19.7984 24.0605C19.9123 24.1147 20.0099 24.1906 20.0099 24.2232C20.0099 24.2611 20.037 24.2937 20.0695 24.2937C20.0966 24.2937 20.1129 24.3153 20.0966 24.3425C20.0804 24.3696 20.1075 24.3858 20.1563 24.3804C20.2051 24.3804 20.2539 24.4075 20.2702 24.4509C20.2864 24.4997 20.2702 24.5106 20.2268 24.4834C20.178 24.4509 20.178 24.4672 20.2268 24.5648C20.2864 24.6787 20.2973 24.6787 20.3461 24.6027C20.4166 24.4726 20.525 24.4889 20.5955 24.6461C20.6389 24.7437 20.6389 24.7871 20.5955 24.8142C20.5576 24.8359 20.5521 24.8305 20.5738 24.7925C20.5955 24.7546 20.5792 24.7275 20.5304 24.7275C20.4816 24.7275 20.4437 24.7492 20.4437 24.7763C20.4437 24.8522 20.5521 24.9064 20.7148 24.9173C20.8233 24.9227 20.8558 24.901 20.8666 24.8142C20.8666 24.7546 20.8504 24.6787 20.8178 24.6407C20.7853 24.5973 20.7907 24.5648 20.8504 24.5431C20.8992 24.5268 20.9317 24.5431 20.9317 24.5919C20.9317 24.6353 20.9697 24.6732 21.013 24.6732C21.0564 24.6732 21.0944 24.6461 21.0944 24.6136C21.0944 24.5865 21.1866 24.4726 21.3004 24.375C21.4089 24.272 21.4794 24.1852 21.4469 24.1852C21.4197 24.1852 21.4523 24.1527 21.5282 24.1147C21.6041 24.0768 21.6692 23.99 21.68 23.9195C21.6963 23.8273 21.7288 23.8002 21.7993 23.8219C21.859 23.8382 21.9132 23.8165 21.9295 23.7731C21.9457 23.7297 21.9349 23.6972 21.9078 23.6972C21.8752 23.6972 21.8535 23.6538 21.8535 23.605C21.8535 23.5345 21.8698 23.5291 21.9186 23.5779C22 23.6592 22.0921 23.6646 22.0433 23.5887C22.0271 23.5562 22.0488 23.5345 22.0921 23.5345C22.1409 23.5345 22.2277 23.464 22.2928 23.3718C22.3578 23.2851 22.4338 23.2254 22.4609 23.2417C22.4826 23.258 22.5042 23.2471 22.5042 23.22C22.5042 23.1875 22.5639 23.1115 22.6398 23.0411C22.7103 22.9706 22.7754 22.8675 22.7754 22.8079C22.7754 22.7482 22.8025 22.7211 22.8513 22.7374C22.9326 22.7699 23.2634 22.4554 23.2634 22.3415C23.2634 22.3036 23.2797 22.2873 23.3014 22.3036C23.3556 22.3578 24.6733 21.0293 24.6353 20.9642C24.619 20.9317 24.619 20.9208 24.6461 20.9425C24.6678 20.9642 24.7221 20.9588 24.7654 20.9263C24.8251 20.872 24.8251 20.8558 24.7546 20.8015C24.7004 20.7582 24.6895 20.7202 24.7275 20.6606C24.7709 20.5901 24.7817 20.5955 24.7817 20.6714C24.7817 20.7744 24.8251 20.7907 24.9227 20.7256C25.0095 20.6714 24.9986 20.487 24.9064 20.5196C24.863 20.5358 24.8197 20.5142 24.8034 20.4708C24.76 20.3623 24.6733 20.3677 24.6733 20.4816C24.6733 20.5521 24.657 20.5575 24.6082 20.5087C24.5594 20.4599 24.5594 20.4274 24.6082 20.3786C24.7275 20.2593 24.6841 20.1563 24.5377 20.1942C24.4292 20.2213 24.3913 20.1996 24.3208 20.0641C24.2774 19.9773 24.2395 19.8851 24.2449 19.8689C24.2557 19.793 24.0551 19.717 24.0334 19.7821C23.9846 19.9285 23.7569 19.7604 23.7514 19.5815C23.7514 19.5218 23.7731 19.5327 23.8328 19.6086C23.9087 19.7062 23.9087 19.7062 23.9033 19.5652C23.8924 19.4459 23.849 19.4025 23.7135 19.3537C23.6159 19.3212 23.5128 19.3103 23.4857 19.3266C23.4586 19.3429 23.4478 19.3049 23.464 19.2399C23.4857 19.1368 23.4803 19.1314 23.4315 19.1965C23.3935 19.2453 23.3719 19.2507 23.3719 19.2127C23.3719 19.1802 23.399 19.1314 23.4261 19.1151C23.4586 19.0934 23.4261 19.0338 23.3447 18.9687C23.2688 18.9091 23.2254 18.8332 23.2471 18.8006C23.2688 18.7681 23.2471 18.7573 23.1929 18.7789C23.1387 18.8006 23.079 18.7735 23.0357 18.7139C22.9977 18.6596 22.9326 18.6271 22.9001 18.638ZM23.1007 18.9037C23.1007 18.9199 23.0573 18.9253 23.0031 18.9145C22.9435 18.9037 22.8567 18.9362 22.8025 18.9796C22.7103 19.0501 22.7049 19.0501 22.7483 18.9796C22.8513 18.7898 22.8947 18.7627 22.9977 18.8223C23.0519 18.8494 23.1007 18.8874 23.1007 18.9037ZM23.3014 19.088C23.323 19.1477 23.3122 19.1531 23.2742 19.0989C23.2471 19.0609 23.1875 19.0446 23.1278 19.0663C23.0573 19.0934 23.0411 19.088 23.0682 19.0392C23.1224 18.9525 23.2742 18.985 23.3014 19.088ZM22.7049 19.3375C22.7211 19.3808 22.694 19.4622 22.6452 19.511C22.5639 19.5923 22.5585 19.5869 22.5585 19.4242C22.5585 19.2453 22.6452 19.1911 22.7049 19.3375ZM24.3479 20.2484C24.3479 20.281 24.31 20.2539 24.2666 20.1942C24.2232 20.14 24.1907 20.0532 24.1907 20.0099C24.1907 19.9231 24.3425 20.1617 24.3479 20.2484ZM21.7451 20.4979C21.7451 20.5738 21.7071 20.6063 21.6258 20.6063C21.5173 20.6063 21.5119 20.6009 21.6095 20.4979C21.6638 20.4382 21.718 20.3894 21.7288 20.3894C21.7342 20.3894 21.7451 20.4382 21.7451 20.4979ZM24.3479 20.8232C24.4835 20.9588 24.4943 21.0889 24.3588 20.9696C24.3045 20.9154 24.2286 20.8775 24.1961 20.8775C24.1581 20.8775 24.131 20.8395 24.131 20.7961C24.131 20.6823 24.2178 20.6931 24.3479 20.8232ZM24.0226 21.051C24.0226 21.0835 24.0659 21.1432 24.1147 21.1811C24.169 21.2191 24.1907 21.2679 24.169 21.295C24.1419 21.3167 24.093 21.295 24.0551 21.2408C24.0171 21.192 23.9575 21.1486 23.925 21.1486C23.8273 21.1486 23.784 21.0293 23.8653 20.9859C23.9466 20.9317 24.0226 20.9642 24.0226 21.051ZM20.8775 21.3384C20.8775 21.4468 20.8504 21.4739 20.7419 21.4739C20.5847 21.4739 20.5738 21.436 20.6985 21.3004C20.8178 21.1649 20.8775 21.1757 20.8775 21.3384ZM23.7623 21.539C23.7135 21.5878 23.6972 21.577 23.6972 21.4739C23.6972 21.3709 23.7135 21.3601 23.7623 21.4089C23.8111 21.4577 23.8111 21.4902 23.7623 21.539ZM23.5888 21.7451C23.5888 21.7722 23.5291 21.7993 23.4532 21.7993C23.3773 21.7993 23.3176 21.7722 23.3176 21.7451C23.3176 21.7125 23.3773 21.6908 23.4532 21.6908C23.5291 21.6908 23.5888 21.7125 23.5888 21.7451ZM23.155 21.9403C23.155 22.0325 23.014 22.0433 22.9597 21.9565C22.9218 21.8915 23.0411 21.7884 23.1116 21.8318C23.1333 21.8481 23.155 21.8969 23.155 21.9403ZM23.3176 22.0596C23.3176 22.1301 23.2526 22.1789 23.1983 22.1463C23.1441 22.1138 23.1929 22.0162 23.2688 22.0162C23.2959 22.0162 23.3176 22.0379 23.3176 22.0596ZM22.938 22.3144C22.938 22.3578 22.9164 22.3958 22.8838 22.3958C22.8567 22.3958 22.8296 22.3578 22.8296 22.3144C22.8296 22.2711 22.8567 22.2331 22.8838 22.2331C22.9164 22.2331 22.938 22.2711 22.938 22.3144ZM19.7821 22.3741C19.7333 22.4229 19.6683 22.4446 19.6357 22.4283C19.5273 22.3578 19.5761 22.2873 19.7225 22.2873C19.858 22.2873 19.8635 22.2927 19.7821 22.3741ZM22.6669 22.6181C22.6669 22.6452 22.629 22.6669 22.5856 22.6669C22.5042 22.6669 22.4771 22.6018 22.5368 22.5422C22.5802 22.4988 22.6669 22.5476 22.6669 22.6181ZM22.5042 22.9543C22.5042 22.9651 22.4554 22.9923 22.3958 23.0085C22.3253 23.0248 22.2873 23.0085 22.2873 22.9597C22.2873 22.9218 22.2385 22.8621 22.1735 22.8296C22.0921 22.7808 22.0759 22.7482 22.1247 22.6994C22.168 22.6398 22.2114 22.6561 22.3416 22.7753C22.4338 22.8621 22.5042 22.938 22.5042 22.9543ZM22.2331 23.2037C22.2331 23.2308 22.1952 23.2634 22.1518 23.2851C22.103 23.3013 22.0704 23.2851 22.0704 23.2363C22.0704 23.1929 22.1084 23.1549 22.1518 23.1549C22.1952 23.1549 22.2331 23.1766 22.2331 23.2037ZM19.6466 23.5399C19.6628 23.6104 19.652 23.643 19.614 23.6267C19.5327 23.5996 19.4947 23.4261 19.5652 23.4261C19.5923 23.4261 19.6303 23.4749 19.6466 23.5399ZM21.474 23.6972C21.5607 23.7839 21.5661 23.8056 21.4957 23.8056C21.3818 23.8056 21.2028 23.708 21.2028 23.643C21.2028 23.5508 21.3601 23.5833 21.474 23.6972ZM19.8255 23.7406C19.8906 23.7839 19.9665 23.9683 19.9177 23.9683C19.8635 23.9683 19.6845 23.7948 19.6845 23.7406C19.6845 23.6863 19.7442 23.6863 19.8255 23.7406ZM21.3926 23.9737C21.3601 24.1256 21.3221 24.1635 21.2571 24.0984C21.1866 24.028 21.2462 23.8599 21.3384 23.8599C21.3872 23.8599 21.4035 23.9032 21.3926 23.9737ZM20.2268 24.0822C20.2268 24.1418 20.2051 24.1744 20.1726 24.1581C20.1454 24.1418 20.1183 24.0876 20.1183 24.0442C20.1183 24.0008 20.1454 23.9683 20.1726 23.9683C20.2051 23.9683 20.2268 24.0171 20.2268 24.0822ZM21.0402 24.3479C21.0835 24.375 21.1052 24.413 21.0835 24.4292C21.0347 24.478 20.8233 24.4075 20.8233 24.3425C20.8233 24.2774 20.9371 24.2828 21.0402 24.3479Z" fill="#245DF4"/>
<path d="M20.0316 21.5553C20.0316 21.6584 20.0478 21.6746 20.102 21.6258C20.1563 21.5824 20.1563 21.5499 20.1129 21.4957C20.0316 21.3981 20.0316 21.3981 20.0316 21.5553Z" fill="#245DF4"/>
<path d="M26.1048 21.962C26.1102 22.0325 26.0777 22.0976 26.0343 22.1138C25.9801 22.1301 25.9693 22.1138 25.9964 22.0433C26.0289 21.9566 26.0235 21.9511 25.9096 22.0271C25.8337 22.0759 25.7795 22.1735 25.774 22.2657C25.7632 22.4012 25.7686 22.4066 25.812 22.3145C25.8445 22.244 25.8608 22.2331 25.8608 22.2873C25.8608 22.3307 25.8391 22.4066 25.812 22.45C25.774 22.5097 25.7578 22.5097 25.7578 22.4609C25.7578 22.4229 25.7307 22.4066 25.7036 22.4229C25.671 22.4446 25.6602 22.4826 25.6764 22.5097C25.6927 22.5368 25.671 22.5422 25.6222 22.5259C25.5463 22.4934 25.5463 22.4771 25.6331 22.3741C25.7307 22.2602 25.7307 22.2602 25.6222 22.347C25.3294 22.5802 25.2697 22.6398 25.2697 22.6832C25.2697 22.7049 25.2914 22.7157 25.3186 22.6995C25.3457 22.6832 25.3836 22.7049 25.3999 22.7537C25.4487 22.8784 25.4433 22.8892 25.3457 22.873C25.2914 22.8621 25.2481 22.9001 25.2372 22.9543C25.2155 23.0953 25.1071 23.2092 24.9986 23.2092C24.9444 23.2092 24.8685 23.2526 24.8305 23.3014C24.7655 23.3827 24.7655 23.3881 24.8631 23.3502C24.9444 23.323 24.9552 23.3285 24.9064 23.3719C24.8631 23.4207 24.8197 23.4207 24.7492 23.3827C24.657 23.3339 24.6678 23.3176 24.8251 23.2254C24.9227 23.1712 24.9878 23.0953 24.9715 23.0628C24.9607 23.0248 24.9661 22.9977 24.9878 22.9977C25.1179 23.0194 25.1938 22.976 25.1993 22.8838C25.2047 22.8242 25.1993 22.7754 25.183 22.7754C25.1667 22.7754 24.9824 22.9435 24.7709 23.1549C24.5594 23.361 24.4076 23.5345 24.4401 23.5345C24.4726 23.5345 24.516 23.502 24.5269 23.464C24.5431 23.4315 24.5486 23.4803 24.5377 23.5833C24.5269 23.6809 24.4997 23.7785 24.4781 23.8002C24.4564 23.8165 24.4564 23.784 24.4781 23.7297C24.5052 23.643 24.4997 23.6376 24.4293 23.6972C24.3859 23.7352 24.3642 23.784 24.3805 23.8111C24.3967 23.8382 24.3696 23.8436 24.3208 23.8273C24.2557 23.8002 24.2503 23.7785 24.2991 23.7189C24.3316 23.6755 24.3425 23.643 24.3208 23.643C24.2395 23.643 23.6972 24.2503 23.6972 24.3425C23.6972 24.4184 23.6864 24.4184 23.643 24.3479C23.5725 24.234 23.5725 24.3316 23.6484 24.4672C23.6809 24.5323 23.6864 24.5648 23.6538 24.5431C23.5888 24.5052 23.464 24.6407 23.5183 24.6949C23.54 24.7166 23.5183 24.7166 23.464 24.6949C23.3881 24.6678 23.3827 24.6461 23.4315 24.5865C23.4857 24.5214 23.4803 24.516 23.4044 24.5431C23.3556 24.5594 23.3176 24.6028 23.3176 24.6353C23.3176 24.6678 23.3014 24.6733 23.2851 24.657C23.2634 24.6407 23.1821 24.7166 23.0953 24.8359C23.0086 24.9498 22.8893 25.0745 22.8296 25.1071C22.77 25.1396 22.7212 25.2101 22.7212 25.2643C22.7212 25.3185 22.6724 25.4216 22.6127 25.4921C22.5314 25.5951 22.5097 25.6005 22.5368 25.5192C22.5693 25.4324 22.5585 25.427 22.4609 25.4812C22.3036 25.568 22.2602 25.6547 22.347 25.7144C22.4066 25.7578 22.4012 25.7632 22.3307 25.7415C22.2819 25.7252 22.1843 25.7632 22.103 25.8391C22.0325 25.9042 21.9566 25.9476 21.9403 25.9313C21.924 25.915 21.9078 25.9421 21.9078 25.9964C21.9078 26.0452 21.8861 26.0723 21.8536 26.056C21.7722 26.0072 21.7885 26.094 21.8807 26.2241C21.924 26.2892 21.9457 26.3542 21.9349 26.3759C21.9186 26.3922 21.924 26.3976 21.9457 26.3814C21.9837 26.3488 22.206 26.685 22.1897 26.7501C22.1843 26.7772 22.2331 26.788 22.2982 26.7772C22.3958 26.7664 22.4229 26.788 22.4283 26.8965C22.4392 27.1785 22.45 27.2002 22.4988 27.1188C22.5639 27.0158 22.6181 27.1242 22.591 27.3303C22.5802 27.4442 22.591 27.4821 22.6236 27.4496C22.7157 27.3574 22.8133 27.4333 22.8025 27.5743C22.7916 27.6448 22.8188 27.7478 22.8621 27.8021C22.9055 27.8617 22.9326 27.8726 22.9381 27.8292C22.9381 27.7966 22.976 27.7641 23.0248 27.7641C23.0953 27.7641 23.1007 27.7804 23.0465 27.8454C22.9923 27.9105 23.0031 27.9702 23.1007 28.1654C23.1658 28.3009 23.2471 28.404 23.2797 28.3985C23.3176 28.3931 23.3393 28.4311 23.3285 28.4853C23.3122 28.5666 23.3285 28.5775 23.4207 28.5287C23.5508 28.4582 23.6213 28.5395 23.5074 28.6317C23.4478 28.6805 23.4424 28.7239 23.4857 28.8052C23.5237 28.8811 23.5616 28.892 23.6105 28.854C23.6538 28.8161 23.6755 28.8269 23.6755 28.9028C23.6755 28.9571 23.6484 28.9896 23.6159 28.9733C23.5888 28.9571 23.6376 29.0221 23.7297 29.1252C23.8165 29.2282 23.9412 29.4017 23.9955 29.5102C24.0822 29.6783 24.1039 29.6945 24.1581 29.624C24.1961 29.5752 24.2557 29.5481 24.2937 29.5644C24.3479 29.5807 24.3425 29.6078 24.272 29.6728C24.1798 29.7704 24.1473 30.0145 24.2395 29.9602C24.272 29.944 24.2937 29.9548 24.2937 29.9819C24.2937 30.0145 24.3154 30.0416 24.3425 30.0416C24.3696 30.0416 24.3805 29.9928 24.3642 29.9331C24.3154 29.7433 24.4293 29.8138 24.4889 30.009C24.5269 30.1338 24.5269 30.2314 24.4943 30.291C24.4618 30.3507 24.4618 30.3723 24.4997 30.3452C24.5323 30.329 24.5702 30.3344 24.5919 30.3669C24.6136 30.3995 24.6516 30.4049 24.6841 30.3886C24.7166 30.3669 24.7275 30.3778 24.7112 30.4103C24.6624 30.4862 24.7275 30.6435 24.7871 30.6055C24.8143 30.5892 24.8359 30.638 24.8359 30.714C24.8359 30.7845 24.8739 30.8821 24.9173 30.9309C24.9661 30.9742 25.004 31.0285 24.9986 31.0447C24.9932 31.1261 25.0095 31.164 25.1125 31.2833C25.183 31.3701 25.2372 31.3972 25.2752 31.3592C25.3077 31.3267 25.2914 31.2725 25.2155 31.2074C25.1559 31.1532 25.1071 31.0502 25.1071 30.9797C25.1071 30.8821 25.1342 30.8549 25.2426 30.8549C25.3186 30.8549 25.3782 30.8604 25.3782 30.8712C25.3782 30.8766 25.3565 30.958 25.3294 31.0556C25.2914 31.1857 25.2969 31.2454 25.3565 31.2942C25.4378 31.3647 25.465 31.587 25.3782 31.5328C25.3511 31.5165 25.3402 31.4623 25.3565 31.408C25.3836 31.3267 25.3782 31.3267 25.3294 31.4026C25.2643 31.5057 25.3674 31.7768 25.4758 31.7768C25.5138 31.7768 25.5571 31.8147 25.5734 31.8581C25.5951 31.9015 25.6276 31.9232 25.6547 31.9069C25.6819 31.8907 25.7036 31.9503 25.7036 32.0316C25.7036 32.1184 25.7632 32.2702 25.8391 32.3733C25.9096 32.4709 25.9584 32.5793 25.9367 32.6064C25.915 32.639 25.9476 32.6498 26.0181 32.6335C26.0831 32.6119 26.1265 32.6227 26.1102 32.6444C26.094 32.6715 26.1048 32.704 26.1319 32.7203C26.159 32.7366 26.197 32.8125 26.2133 32.8884C26.2295 32.9589 26.3109 33.0836 26.3868 33.1595C26.4627 33.2354 26.5115 33.333 26.4952 33.3764C26.4844 33.4144 26.5061 33.4795 26.5495 33.5174C26.62 33.5771 26.6254 33.5662 26.5983 33.4469C26.5712 33.333 26.5874 33.3005 26.6742 33.268C26.7555 33.2463 26.7826 33.1975 26.7664 33.1107C26.7501 33.024 26.7718 32.9914 26.8423 32.9914C26.8965 32.9914 26.929 33.0131 26.9182 33.0348C26.8586 33.1324 27.0429 33.0673 27.1947 32.9372C27.3086 32.8396 27.3249 32.8071 27.2544 32.8342C27.1514 32.8667 27.1514 32.8613 27.249 32.7528C27.352 32.639 27.4116 32.6064 27.3574 32.6986C27.3412 32.7257 27.3574 32.7366 27.4062 32.7203C27.4496 32.704 27.4767 32.6607 27.4605 32.6227C27.4442 32.5847 27.4821 32.5088 27.5472 32.4546C27.6069 32.4004 27.6557 32.3136 27.6557 32.2594C27.6557 32.1184 27.4605 32.1889 27.3032 32.3949C27.1947 32.5251 27.1676 32.5414 27.1676 32.4654C27.1676 32.4058 27.2436 32.2919 27.3357 32.2052C27.4659 32.0859 27.5255 32.0588 27.6014 32.1021C27.6502 32.1292 27.7045 32.1401 27.7207 32.1292C27.7858 32.0642 27.7207 32.319 27.6502 32.4058C27.5797 32.4926 27.5852 32.4926 27.699 32.4329C27.7641 32.3949 27.8183 32.3407 27.8129 32.3028C27.7966 32.1726 27.8183 32.1021 27.878 32.1021C27.9051 32.1021 27.9159 32.1238 27.8997 32.1564C27.8834 32.1889 27.9051 32.1943 27.9485 32.178C28.0298 32.1455 28.0569 32.0804 28.0407 31.972C28.0352 31.9449 28.0678 31.9503 28.1112 31.9937C28.2088 32.0696 28.2305 31.9937 28.1383 31.9015C28.1003 31.8635 28.1057 31.8364 28.1708 31.8093C28.2196 31.793 28.2413 31.7985 28.225 31.831C28.2088 31.8635 28.2305 31.869 28.2793 31.8527C28.3443 31.8256 28.3497 31.8039 28.2955 31.7388C28.2142 31.6358 28.3497 31.5382 28.4528 31.6195C28.5666 31.7171 28.648 31.6195 28.5558 31.484C28.4853 31.3755 28.4907 31.3538 28.5829 31.2942C28.7022 31.2237 28.8161 31.2616 28.7619 31.3538C28.7185 31.4243 28.8161 31.3701 28.9679 31.2399C29.033 31.1857 29.0438 31.1423 29.0059 31.0935C28.9788 31.0556 28.9408 30.9797 28.93 30.9146C28.9137 30.8116 28.9191 30.8061 29.0276 30.8658C29.1577 30.9417 29.3366 30.9688 29.3204 30.9146C29.315 30.8983 29.3475 30.8224 29.3855 30.7519C29.4288 30.676 29.4343 30.638 29.3963 30.6597C29.3638 30.6814 29.3366 30.6597 29.3366 30.6109C29.3366 30.5404 29.3692 30.5242 29.4668 30.5513C29.5481 30.573 29.6186 30.5567 29.6403 30.5188C29.6674 30.4808 29.6512 30.4699 29.5915 30.4916C29.5319 30.5133 29.5156 30.5025 29.5373 30.4428C29.5535 30.3995 29.6078 30.3778 29.6566 30.3886C29.7054 30.4049 29.7705 30.3995 29.7976 30.3778C29.8735 30.3235 29.9006 30.1283 29.8301 30.1771C29.7976 30.1934 29.7705 30.1717 29.7705 30.1283C29.7705 30.047 29.8247 30.0253 29.9223 30.0524C29.944 30.0633 29.9548 30.0849 29.9494 30.1066C29.9385 30.1283 29.9819 30.1392 30.0416 30.1338C30.0958 30.1283 30.1283 30.1066 30.1175 30.0849C30.1012 30.0633 30.1121 30.0416 30.1392 30.0416C30.2151 30.0416 30.2585 29.8355 30.1934 29.8138C30.1555 29.7976 30.1609 29.7488 30.2097 29.6783C30.2747 29.5698 30.2856 29.5698 30.3507 29.6511C30.4103 29.7271 30.4212 29.7271 30.4103 29.662C30.3995 29.6078 30.4483 29.5752 30.5459 29.5644C30.7194 29.5427 30.817 29.3963 30.7357 29.277C30.6923 29.2173 30.6923 29.2282 30.7194 29.3095C30.7465 29.3909 30.7357 29.4017 30.6869 29.3529C30.6001 29.2661 30.676 29.1469 30.7736 29.2282C30.8116 29.2607 30.8766 29.2716 30.92 29.2553C31.0556 29.2011 31.2291 28.9245 31.202 28.8052C31.164 28.6697 31.2833 28.5883 31.3647 28.6968C31.4135 28.7619 31.446 28.751 31.549 28.6209C31.6195 28.5395 31.6521 28.469 31.625 28.469C31.5924 28.469 31.5545 28.5016 31.5382 28.5341C31.5219 28.5883 31.5328 28.4094 31.5545 28.3172C31.5599 28.3118 31.6087 28.328 31.6683 28.3606C31.7551 28.4094 31.7659 28.404 31.7443 28.3335C31.7171 28.2738 31.7334 28.2576 31.8093 28.2901C31.8744 28.3118 31.8907 28.3064 31.8635 28.263C31.8364 28.2196 31.8527 28.2088 31.9069 28.2304C31.9557 28.2467 31.9937 28.2359 31.9937 28.1979C31.9937 28.1654 32.0262 28.1545 32.0642 28.1762C32.0967 28.1979 32.113 28.1979 32.0913 28.1708C32.0696 28.1491 32.075 28.0949 32.1076 28.0515C32.1564 27.9973 32.1509 27.9539 32.0859 27.8834C32.0045 27.7966 32.0045 27.7858 32.1076 27.7804C32.1672 27.7749 32.2323 27.8075 32.2485 27.8509C32.2757 27.9214 32.2919 27.9159 32.3678 27.8346C32.46 27.737 32.4871 27.6177 32.4166 27.6394C32.3299 27.6719 32.3787 27.5038 32.4763 27.4171C32.5956 27.3086 32.7257 27.3466 32.6769 27.4713C32.6552 27.5309 32.6824 27.5255 32.78 27.455C32.9372 27.3357 33.0402 27.1297 32.9697 27.0863C32.9372 27.0646 32.9155 27.0266 32.9155 26.9995C32.9155 26.967 32.9426 26.9616 32.9806 26.9833C33.0185 27.0049 33.024 26.9995 33.0023 26.9561C32.9806 26.9236 32.9481 26.9073 32.9264 26.9182C32.9047 26.929 32.8396 26.9073 32.78 26.864C32.6878 26.7935 32.6932 26.788 32.8776 26.788C33.0185 26.788 33.0782 26.8097 33.0782 26.864C33.0782 26.9887 33.165 27.0104 33.2571 26.9073C33.3385 26.8152 33.3385 26.7989 33.2138 26.6688C33.1378 26.582 33.0999 26.5061 33.1324 26.4898C33.165 26.4735 33.2029 26.4952 33.2192 26.5386C33.2355 26.5874 33.2734 26.6091 33.3005 26.5928C33.3276 26.5766 33.3493 26.6037 33.3493 26.6525C33.3493 26.7609 33.4524 26.7338 33.5283 26.6145C33.6042 26.4952 33.474 26.3651 33.3059 26.3976C33.2138 26.4139 33.1812 26.403 33.2083 26.3651C33.23 26.3271 33.1921 26.2892 33.1053 26.2675C33.0294 26.2512 32.9697 26.2133 32.9697 26.1807C32.9697 26.1536 32.9426 26.1482 32.9101 26.1699C32.8721 26.1916 32.8559 26.1753 32.8721 26.1319C32.8884 26.0885 32.845 26.0289 32.7854 25.9964C32.7203 25.9638 32.6769 25.9096 32.6878 25.8662C32.6986 25.8228 32.6715 25.812 32.6173 25.8283C32.5739 25.8499 32.5359 25.8391 32.5359 25.8066C32.5359 25.774 32.5088 25.7686 32.4763 25.7849C32.4438 25.8066 32.3841 25.7795 32.3462 25.7252C32.2974 25.6656 32.2702 25.6493 32.2648 25.6873C32.2648 25.7252 32.2269 25.7578 32.1781 25.7578C32.1347 25.7578 32.113 25.7307 32.1293 25.6981C32.1726 25.633 32.0045 25.4324 31.9015 25.4324C31.8635 25.4324 31.831 25.4107 31.831 25.3836C31.831 25.3131 31.6466 25.3402 31.6141 25.4161C31.5978 25.4649 31.5599 25.4649 31.5057 25.427C31.4352 25.3836 31.4406 25.3673 31.5274 25.2969C31.6195 25.2264 31.6195 25.2155 31.5436 25.183C31.4948 25.1667 31.4677 25.1233 31.484 25.0962C31.5057 25.0637 31.4731 25.0691 31.4081 25.1016C31.24 25.1938 31.1532 25.1776 31.2345 25.0799C31.2942 25.0095 31.2779 24.9986 31.1044 25.0257C30.9851 25.0474 30.9092 25.0366 30.9092 25.004C30.9092 24.9715 30.9363 24.9444 30.9688 24.9444C31.0556 24.9444 30.9959 24.8088 30.9038 24.8088C30.7953 24.8034 30.5838 24.6082 30.6218 24.5485C30.6381 24.516 30.6272 24.5106 30.5893 24.5323C30.5567 24.554 30.4591 24.5323 30.3778 24.478C30.2964 24.4238 30.2259 24.3913 30.2259 24.4076C30.2205 24.4184 30.1663 24.3859 30.1066 24.3316C30.0524 24.2828 29.9657 24.2503 29.9223 24.2666C29.8084 24.3099 29.3312 24.028 29.3421 23.9195C29.3583 23.7623 29.3366 23.7352 29.2553 23.8057C29.2065 23.8436 29.1577 23.8599 29.136 23.8382C29.1197 23.8219 29.1306 23.8057 29.1631 23.8057C29.2011 23.8057 29.2282 23.7785 29.2282 23.746C29.2282 23.7135 29.1902 23.7026 29.1414 23.7189C29.0981 23.7352 29.0764 23.7297 29.0926 23.6972C29.1089 23.6647 29.0981 23.643 29.0655 23.643C29.033 23.643 29.0221 23.6159 29.0438 23.5779C29.0709 23.5399 29.0601 23.5345 29.0113 23.5616C28.9733 23.5833 28.93 23.5725 28.9028 23.5399C28.8703 23.4803 28.7564 23.4423 28.5938 23.4315C28.5558 23.4261 28.5233 23.399 28.5233 23.3664C28.5233 23.3393 28.5558 23.3285 28.5938 23.3502C28.6371 23.3773 28.6371 23.3664 28.5829 23.3014C28.545 23.2526 28.4907 23.22 28.469 23.2363C28.4419 23.2526 28.3877 23.2146 28.3443 23.1495C28.2738 23.0519 28.2305 23.0411 28.0244 23.0736L27.7912 23.1116L27.9268 22.9652C28.0569 22.8188 28.0569 22.8188 27.9376 22.8784C27.84 22.9272 27.8183 22.9272 27.8292 22.873C27.84 22.835 27.8129 22.8079 27.7804 22.8133C27.7424 22.8242 27.7099 22.8025 27.7099 22.7699C27.7099 22.7428 27.6882 22.732 27.6557 22.7483C27.6286 22.7645 27.6014 22.7591 27.6014 22.732C27.6014 22.7049 27.5472 22.6615 27.4821 22.6398C27.4062 22.6181 27.3845 22.5964 27.4279 22.5747C27.5689 22.5151 27.4821 22.4609 27.3303 22.5151C27.1405 22.5802 26.826 22.5259 26.9507 22.45C26.9941 22.4229 27.07 22.4283 27.1243 22.4554C27.2273 22.5097 27.249 22.4663 27.1731 22.347C27.1405 22.2928 27.1026 22.2873 27.0266 22.3307C26.9616 22.3687 26.8911 22.3687 26.8314 22.3361C26.7555 22.2982 26.723 22.3036 26.7013 22.3687C26.6688 22.45 26.4627 22.488 26.4627 22.4066C26.4627 22.347 26.7067 22.2331 26.8314 22.2331C26.9182 22.2277 26.9182 22.2277 26.826 22.1735C26.7772 22.1409 26.7447 22.0976 26.7609 22.065C26.7826 22.0379 26.7338 22.0379 26.6525 22.0704C26.5657 22.103 26.5224 22.103 26.544 22.0704C26.5874 21.9999 26.3922 21.9078 26.3 21.962C26.2512 21.9945 26.2024 21.9783 26.1645 21.924C26.1102 21.8481 26.0994 21.8535 26.1048 21.962ZM26.2458 22.4229C26.1753 22.553 25.9747 22.6127 25.9747 22.5042C25.9747 22.4717 26.0181 22.45 26.0777 22.45C26.1374 22.45 26.1916 22.4012 26.2078 22.3307C26.2295 22.2657 26.2566 22.2277 26.2783 22.2494C26.3 22.2711 26.2838 22.347 26.2458 22.4229ZM27.5472 23.0248C27.5472 23.0845 27.5093 23.0953 27.4008 23.0682C27.1297 23.0031 27.0755 22.9055 27.2924 22.873C27.4333 22.8459 27.5472 22.9164 27.5472 23.0248ZM25.4324 23.2417C25.4324 23.258 25.3945 23.3068 25.3511 23.3556C25.2426 23.4586 25.1776 23.4098 25.2752 23.2959C25.3511 23.2146 25.4324 23.1821 25.4324 23.2417ZM27.8509 23.4098C27.8346 23.4261 27.7804 23.4207 27.7262 23.399C27.634 23.361 27.634 23.3556 27.737 23.3176C27.84 23.2797 27.9214 23.3447 27.8509 23.4098ZM27.4388 23.3719C27.4388 23.399 27.3791 23.4261 27.3032 23.4261C27.2273 23.4261 27.1676 23.399 27.1676 23.3719C27.1676 23.3393 27.2273 23.3176 27.3032 23.3176C27.3791 23.3176 27.4388 23.3393 27.4388 23.3719ZM24.0931 24.0388C24.1093 24.0822 24.0768 24.1147 24.0117 24.1147C23.925 24.1256 23.9195 24.1093 23.9683 24.0442C24.0497 23.9521 24.0605 23.9521 24.0931 24.0388ZM24.5648 24.0551C24.5648 24.1798 24.4184 24.3045 24.3045 24.2774C24.2286 24.2557 24.2286 24.2449 24.3371 24.2123C24.4021 24.1907 24.4564 24.131 24.4564 24.0714C24.4564 24.0117 24.4835 23.9683 24.5106 23.9683C24.5431 23.9683 24.5648 24.0063 24.5648 24.0551ZM30.1392 24.5648L30.2639 24.7275H30.1283C30.0036 24.7275 29.9331 24.6407 29.9331 24.478C29.9331 24.3588 30.009 24.3913 30.1392 24.5648ZM30.6326 24.7221C30.714 24.7763 30.6706 24.8902 30.5676 24.8902C30.4537 24.8902 30.3507 24.798 30.3886 24.7329C30.4374 24.6624 30.5296 24.657 30.6326 24.7221ZM23.6972 24.9227C23.6972 25.0474 23.5508 25.1721 23.4369 25.145C23.361 25.1233 23.361 25.1125 23.4695 25.0799C23.5345 25.0583 23.5888 24.9986 23.5888 24.939C23.5888 24.8793 23.6159 24.8359 23.643 24.8359C23.6755 24.8359 23.6972 24.8739 23.6972 24.9227ZM23.2634 24.939C23.2634 24.9715 23.2363 25.0095 23.1983 25.0311C23.1604 25.0528 23.155 25.0474 23.1766 25.0095C23.1983 24.9715 23.1875 24.9444 23.1495 24.9444C23.117 24.9444 23.1007 24.9878 23.1116 25.042C23.1333 25.1071 23.1062 25.1396 23.0411 25.1396C22.9489 25.1396 22.9543 25.0962 23.0628 24.9552C23.1224 24.8793 23.2634 24.8685 23.2634 24.939ZM30.4483 25.1071C30.47 25.1396 30.4049 25.1613 30.291 25.1613C30.1826 25.1613 30.0958 25.1342 30.0958 25.1071C30.0958 25.0745 30.1663 25.0528 30.2531 25.0528C30.3452 25.0528 30.432 25.0745 30.4483 25.1071ZM22.8296 25.3131C22.8296 25.3673 22.7971 25.4595 22.7537 25.5192C22.6832 25.6114 22.6832 25.6005 22.7374 25.4161C22.8079 25.1938 22.8296 25.1667 22.8296 25.3131ZM31.8852 25.5571C31.8852 25.6602 31.831 25.7035 31.7443 25.6656C31.6304 25.6222 31.6521 25.4866 31.7768 25.4866C31.8364 25.4866 31.8852 25.5192 31.8852 25.5571ZM22.8296 25.7795C22.8296 25.8228 22.8079 25.8716 22.7808 25.8879C22.7537 25.9042 22.7157 26.0289 22.694 26.1699C22.6669 26.3651 22.6778 26.441 22.7483 26.5169C22.7971 26.5711 22.8296 26.6742 22.8188 26.7447C22.7971 26.8694 22.7971 26.8694 22.7212 26.723C22.6832 26.6416 22.6019 26.5603 22.5476 26.5386C22.4663 26.5169 22.45 26.4735 22.4717 26.3922C22.488 26.3271 22.5043 26.2024 22.5043 26.1211C22.5043 26.0126 22.5368 25.9584 22.6127 25.9367C22.6724 25.9204 22.7212 25.8608 22.7212 25.8066C22.7212 25.7469 22.7483 25.7035 22.7754 25.7035C22.8079 25.7035 22.8296 25.7361 22.8296 25.7795ZM32.1455 25.9692C32.1618 26.0126 32.1401 26.0343 32.0967 26.018C32.0588 26.0072 32.0154 25.9638 32.0045 25.9259C31.9883 25.8825 32.01 25.8608 32.0533 25.8771C32.0913 25.8879 32.1347 25.9313 32.1455 25.9692ZM22.2548 26.1211C22.2874 26.2078 22.206 26.3542 22.1193 26.3542C22.0976 26.3542 22.0813 26.2729 22.0867 26.1699C22.0976 25.9855 22.1952 25.9584 22.2548 26.1211ZM32.7745 26.2187C32.8776 26.2946 32.8505 26.4085 32.7312 26.4085C32.6173 26.4085 32.4655 26.2675 32.5034 26.2024C32.5522 26.1157 32.6498 26.1211 32.7745 26.2187ZM32.5902 26.6525C32.5902 26.6959 32.5414 26.7338 32.4817 26.7338C32.4221 26.7338 32.3733 26.6959 32.3733 26.6525C32.3733 26.6091 32.4221 26.5711 32.4817 26.5711C32.5414 26.5711 32.5902 26.6091 32.5902 26.6525ZM32.8613 27.2164C32.8613 27.2435 32.8233 27.2923 32.78 27.3303C32.7095 27.3845 32.6986 27.3791 32.6986 27.2815C32.6986 27.2164 32.7312 27.1676 32.78 27.1676C32.8233 27.1676 32.8613 27.1893 32.8613 27.2164ZM31.7226 27.7966C31.7226 27.8129 31.6846 27.8617 31.6412 27.9105C31.5328 28.0135 31.4677 27.9593 31.5599 27.8454C31.625 27.7641 31.7226 27.737 31.7226 27.7966ZM23.4912 28.1708C23.4586 28.3497 23.3773 28.3985 23.3881 28.2413C23.3936 28.1437 23.4532 28.0461 23.5128 28.0352C23.5183 28.0352 23.5074 28.0949 23.4912 28.1708ZM23.6755 28.3985C23.6159 28.4582 23.5725 28.366 23.6159 28.2684C23.6593 28.1762 23.6593 28.1762 23.6809 28.2684C23.6972 28.3226 23.6918 28.3823 23.6755 28.3985ZM24.028 28.8161C24.0605 28.9245 24.0497 28.9733 23.99 28.995C23.8653 29.0438 23.7894 28.9299 23.8274 28.7673C23.8707 28.5883 23.9738 28.6154 24.028 28.8161ZM24.4564 28.7076C24.4564 28.751 24.4293 28.8052 24.3967 28.8215C24.3642 28.8432 24.3154 28.9137 24.2883 28.9788C24.2395 29.0818 24.2395 29.0818 24.2666 28.9571C24.2774 28.8811 24.2937 28.7781 24.2937 28.7239C24.2937 28.6751 24.3316 28.6317 24.375 28.6317C24.4184 28.6317 24.4564 28.6642 24.4564 28.7076ZM31.1044 28.9679C31.0556 28.995 31.0176 29.0547 31.0176 29.1035C31.0176 29.1685 31.0014 29.174 30.9363 29.1197C30.8658 29.0601 30.8712 29.033 30.9797 28.9028C31.0773 28.7835 31.1098 28.7727 31.1478 28.8378C31.1803 28.892 31.164 28.9354 31.1044 28.9679ZM29.8789 29.7433C29.8789 29.7867 29.8572 29.8247 29.8247 29.8247C29.7976 29.8247 29.7705 29.7867 29.7705 29.7433C29.7705 29.6999 29.7976 29.662 29.8247 29.662C29.8572 29.662 29.8789 29.6999 29.8789 29.7433ZM25.0908 30.6164C25.1342 30.7248 25.0474 30.8116 24.9498 30.7519C24.8685 30.6977 24.9064 30.5296 24.9986 30.5296C25.0312 30.5296 25.0691 30.5676 25.0908 30.6164ZM26.3 31.2888C26.3 31.3159 26.2621 31.343 26.2187 31.343C26.1753 31.343 26.1374 31.3159 26.1374 31.2888C26.1374 31.2562 26.1753 31.2345 26.2187 31.2345C26.2621 31.2345 26.3 31.2562 26.3 31.2888ZM25.9693 31.5978C26.2078 31.7551 26.2404 31.831 26.1048 31.9449C26.0072 32.0262 25.9367 31.9557 25.8825 31.7063C25.8662 31.6249 25.8228 31.5599 25.7795 31.5599C25.7415 31.5599 25.6927 31.5328 25.6764 31.5057C25.6168 31.408 25.7415 31.446 25.9693 31.5978ZM26.0831 32.3461C26.0831 32.3895 26.0614 32.4275 26.0343 32.4275C25.9638 32.4275 25.915 32.3407 25.9584 32.2973C26.0181 32.2377 26.0831 32.2648 26.0831 32.3461Z" fill="#245DF4"/>
<path d="M29.7433 24.131C29.727 24.1635 29.7487 24.2015 29.7975 24.2177C29.9006 24.2611 29.9602 24.2177 29.906 24.1364C29.8626 24.0605 29.7867 24.0605 29.7433 24.131Z" fill="#245DF4"/>
<path d="M26.8206 33.1487C26.8369 33.192 26.826 33.2463 26.7935 33.2679C26.7013 33.3222 26.723 33.3927 26.826 33.3818C26.9399 33.3656 26.9616 33.127 26.8532 33.0944C26.8152 33.0782 26.7989 33.0998 26.8206 33.1487Z" fill="#245DF4"/>
</svg>
