<svg width="20" height="20" viewBox="0 0 20 20" fill="none" xmlns="http://www.w3.org/2000/svg">
<path d="M7.27544 12.2773L12.2754 7.27727C12.3626 7.19007 12.4662 7.12089 12.5801 7.0737C12.6941 7.0265 12.8162 7.00221 12.9395 7.00221C13.0628 7.00221 13.185 7.0265 13.2989 7.0737C13.4128 7.12089 13.5164 7.19007 13.6036 7.27727C13.6908 7.36448 13.76 7.46801 13.8071 7.58195C13.8543 7.69589 13.8786 7.81801 13.8786 7.94134C13.8786 8.06466 13.8543 8.18678 13.8071 8.30072C13.76 8.41466 13.6908 8.51819 13.6036 8.6054L8.60357 13.6054C8.42745 13.7815 8.18858 13.8805 7.93951 13.8805C7.69043 13.8805 7.45156 13.7815 7.27544 13.6054C7.09932 13.4293 7.00038 13.1904 7.00038 12.9413C7.00038 12.6923 7.09932 12.4534 7.27544 12.2773ZM17.5098 3.37102C16.6299 2.49307 15.4376 2 14.1946 2C12.9516 2 11.7593 2.49307 10.8793 3.37102L8.52623 5.7218C8.3501 5.89793 8.25116 6.1368 8.25116 6.38587C8.25116 6.5092 8.27545 6.63132 8.32265 6.74526C8.36984 6.8592 8.43902 6.96272 8.52623 7.04993C8.61343 7.13714 8.71696 7.20631 8.8309 7.25351C8.94484 7.3007 9.06696 7.32499 9.19029 7.32499C9.43936 7.32499 9.67823 7.22605 9.85435 7.04993L12.2036 4.70149C12.7311 4.17386 13.4466 3.87739 14.1927 3.87732C14.9389 3.87725 15.6544 4.17357 16.1821 4.7011C16.7097 5.22863 17.0062 5.94416 17.0063 6.69028C17.0063 7.43639 16.71 8.15198 16.1825 8.67962L13.8301 11.0273C13.7429 11.1145 13.6737 11.218 13.6266 11.3319C13.5794 11.4459 13.5551 11.568 13.5551 11.6913C13.5551 11.8147 13.5794 11.9368 13.6266 12.0507C13.6737 12.1647 13.7429 12.2682 13.8301 12.3554C13.9173 12.4426 14.0209 12.5118 14.1348 12.559C14.2487 12.6062 14.3709 12.6305 14.4942 12.6305C14.6175 12.6305 14.7396 12.6062 14.8536 12.559C14.9675 12.5118 15.071 12.4426 15.1583 12.3554L17.5083 10.007C18.3867 9.12648 18.8798 7.9334 18.8793 6.68968C18.8789 5.44595 18.3849 4.25323 17.5059 3.37337L17.5098 3.37102ZM11.027 13.8304L8.67779 16.1804C8.41653 16.4416 8.10638 16.6488 7.76505 16.7901C7.42372 16.9315 7.05789 17.0042 6.68845 17.0042C6.31901 17.0041 5.9532 16.9313 5.61189 16.7899C5.27059 16.6485 4.96048 16.4413 4.69927 16.18C4.17174 15.6524 3.87542 14.9368 3.87549 14.1907C3.87556 13.4446 4.17203 12.729 4.69966 12.2015L7.0481 9.85227C7.13531 9.76507 7.20448 9.66154 7.25168 9.5476C7.29887 9.43366 7.32316 9.31154 7.32316 9.18821C7.32316 9.06488 7.29887 8.94276 7.25168 8.82882C7.20448 8.71488 7.13531 8.61135 7.0481 8.52415C6.96089 8.43694 6.85737 8.36777 6.74343 8.32057C6.62949 8.27338 6.50737 8.24908 6.38404 8.24908C6.26071 8.24908 6.13859 8.27338 6.02465 8.32057C5.91071 8.36777 5.80718 8.43694 5.71997 8.52415L3.3731 10.8757C2.93774 11.3111 2.5924 11.828 2.3568 12.3969C2.12121 12.9658 1.99996 13.5755 2 14.1912C2.00007 15.4347 2.49413 16.6273 3.37349 17.5066C4.25285 18.3858 5.44547 18.8797 6.689 18.8797C7.93253 18.8796 9.1251 18.3855 10.0043 17.5062L12.3528 15.157C12.5289 14.9808 12.6279 14.742 12.6279 14.4929C12.6279 14.2438 12.5289 14.005 12.3528 13.8288C12.1767 13.6527 11.9378 13.5538 11.6887 13.5538C11.4397 13.5538 11.2008 13.6527 11.0247 13.8288L11.027 13.8304Z" fill="#245DF4"/>
</svg>
