<svg width="24" height="24" viewBox="0 0 24 24" fill="none" xmlns="http://www.w3.org/2000/svg">
<path d="M21.057 7.18114C21.0663 7.39235 21.0663 7.59395 21.0663 7.80515C21.0755 14.2084 16.3711 21.6004 7.76781 21.6004C5.23036 21.6004 2.73921 20.842 0.599976 19.4212C0.970406 19.4692 1.34084 19.4884 1.71127 19.4884C3.81346 19.4884 5.86009 18.7588 7.51777 17.4052C5.51744 17.3668 3.7579 16.0132 3.14669 14.0356C3.8505 14.1796 4.57284 14.1508 5.25814 13.9492C3.08186 13.5076 1.51679 11.5204 1.50753 9.20675C1.50753 9.18755 1.50753 9.16835 1.50753 9.14915C2.15578 9.52355 2.88738 9.73475 3.62825 9.75395C1.58162 8.33315 0.942624 5.50114 2.18357 3.28353C4.56358 6.31714 8.06415 8.15075 11.824 8.35235C11.4443 6.67234 11.9629 4.90594 13.1761 3.71553C15.056 1.88193 18.0195 1.97793 19.7975 3.92673C20.844 3.71553 21.8534 3.31233 22.7702 2.74593C22.4183 3.86913 21.6867 4.81954 20.7144 5.42434C21.6404 5.30914 22.548 5.04994 23.4 4.66594C22.7702 5.64514 21.9738 6.48994 21.057 7.18114Z" fill="#E6EAF4"/>
</svg>
