<svg width="166" height="58" viewBox="0 0 166 58" fill="none" xmlns="http://www.w3.org/2000/svg">
<path d="M26.3325 20.2275C26.3291 20.2635 26.3358 20.2996 26.3518 20.332C26.3678 20.3643 26.3925 20.3916 26.4231 20.4108C26.4536 20.43 26.4889 20.4403 26.525 20.4406C26.5611 20.4409 26.5966 20.4312 26.6275 20.4125C27.7742 19.7158 28.9267 19.0217 30.085 18.33C31.2767 17.6183 32.4692 17.62 33.6625 18.335C36.2975 19.9133 38.93 21.495 41.56 23.08C43.205 24.07 43.4225 25.1075 43.4325 27.075C43.4458 29.9883 43.4458 32.9008 43.4325 35.8125C43.4242 37.4192 42.8008 38.5908 41.5625 39.3275C38.8342 40.9525 36.1025 42.57 33.3675 44.18C32.0175 44.975 30.7225 44.405 29.3475 43.5875C25.5292 41.3092 23.0467 39.8142 21.9 39.1025C20.4975 38.23 20.255 37.0125 20.2525 35.3125C20.2492 28.2675 20.2492 21.1342 20.2525 13.9125C20.2525 13.6625 20.3775 13.5225 20.6275 13.4925C25.52 12.925 26.7425 15.9975 26.3325 20.2275ZM32.5525 31.0825L37.38 25.8725C37.54 25.7008 37.5317 25.5375 37.355 25.3825C35.3017 23.5958 33.0775 23.0217 30.6825 23.66C23.445 25.59 22.895 35.9575 29.9125 38.54C32.6608 39.55 35.2158 38.9967 37.5775 36.88C37.5963 36.863 37.6116 36.8425 37.6225 36.8197C37.6333 36.7968 37.6395 36.7721 37.6407 36.7469C37.6419 36.7217 37.638 36.6967 37.6293 36.6731C37.6206 36.6496 37.6072 36.6282 37.59 36.61L32.555 31.35C32.47 31.2617 32.4692 31.1725 32.5525 31.0825Z" fill="#45D91E"/>
<path d="M72.2825 30.93C72.5775 35.445 77.415 34.67 80.215 33.615C80.2469 33.6029 80.2812 33.5987 80.315 33.603C80.3488 33.6072 80.3812 33.6198 80.4092 33.6394C80.4373 33.6591 80.4602 33.6854 80.476 33.716C80.4918 33.7466 80.5001 33.7806 80.5 33.815L80.495 36.4875C80.495 36.5173 80.4862 36.5465 80.4697 36.5714C80.4533 36.5963 80.4299 36.6158 80.4025 36.6275C78.6642 37.3592 76.9042 37.68 75.1225 37.59C69.1675 37.2825 67.94 32.5475 68.47 27.5025C69.1325 21.185 75.6025 20.3125 80.3575 22.3675C80.4475 22.4075 80.4925 22.4775 80.4925 22.5775L80.5 25.3525C80.5001 25.3703 80.496 25.3879 80.4879 25.4038C80.4799 25.4197 80.4682 25.4335 80.4538 25.444C80.4394 25.4545 80.4227 25.4614 80.4051 25.4642C80.3875 25.467 80.3695 25.4656 80.3525 25.46C77.1625 24.4075 73.0125 23.505 72.2325 28.11C72.1675 28.495 72.1842 29.435 72.2825 30.93Z" fill="white"/>
<path d="M97.7025 34.1201L97.7075 29.7901C97.7075 29.7051 97.75 29.6626 97.835 29.6626L100.88 29.6901C100.965 29.6901 101.008 29.7326 101.008 29.8176L101 36.1826C100.999 36.2905 100.968 36.396 100.909 36.4864C100.85 36.5769 100.766 36.6484 100.668 36.6926C97.8925 37.9526 93.78 38.3151 91.2875 36.3026C88.865 34.3476 88.72 31.4726 88.8625 28.4376C89.0225 25.0026 90.67 22.2951 94.21 21.6001C96.4417 21.1634 98.6342 21.4201 100.788 22.3701C100.868 22.4051 100.908 22.4659 100.908 22.5526L100.928 25.3776C100.929 25.4826 100.88 25.5176 100.78 25.4826C98.3875 24.6476 94.63 23.7501 93.22 26.3151C92.4725 27.6776 92.515 29.9601 92.7475 31.5626C93.1275 34.1751 95.3 34.6426 97.545 34.3026C97.65 34.2876 97.7025 34.2267 97.7025 34.1201Z" fill="white"/>
<path d="M65.07 29.2626C66.9033 30.6409 67.4 32.4734 66.56 34.7601C65.69 37.1251 63.2625 37.5526 61 37.5351C59.0533 37.5201 57.1191 37.5051 55.1975 37.4901C55.1676 37.4901 55.139 37.4785 55.1179 37.4578C55.0968 37.4372 55.085 37.4092 55.085 37.3801L55.0925 21.7451C55.0925 21.7079 55.1072 21.6723 55.1335 21.6461C55.1597 21.6198 55.1953 21.6051 55.2325 21.6051C57.3125 21.6034 59.4008 21.6301 61.4975 21.6851C62.7608 21.7184 63.8675 22.0334 64.8175 22.6301C66.86 23.9101 66.9725 27.7201 65.07 29.1226C65.0066 29.1692 65.0066 29.2159 65.07 29.2626ZM58.7575 24.8551L58.7425 27.9901C58.7425 28.036 58.7606 28.0802 58.7928 28.1129C58.8251 28.1457 58.869 28.1644 58.915 28.1651L60.835 28.1751C61.0596 28.1764 61.2822 28.1368 61.4902 28.0584C61.6983 27.98 61.8875 27.8643 62.0473 27.7181C62.207 27.5718 62.334 27.3978 62.4211 27.206C62.5083 27.0141 62.5537 26.8082 62.555 26.6001V26.2851C62.5575 25.8648 62.3798 25.4606 62.061 25.1615C61.7422 24.8624 61.3084 24.6928 60.855 24.6901L58.935 24.6801C58.9118 24.6797 58.8887 24.684 58.8672 24.6927C58.8457 24.7013 58.8261 24.7141 58.8096 24.7304C58.7931 24.7467 58.78 24.7661 58.771 24.7875C58.7621 24.8089 58.7575 24.8319 58.7575 24.8551ZM58.7575 30.8551L58.7475 34.2851C58.7475 34.3317 58.7658 34.3765 58.7986 34.4097C58.8313 34.4429 58.8758 34.4619 58.9225 34.4626L61.375 34.4726C61.5951 34.4736 61.8134 34.4322 62.0171 34.3508C62.2209 34.2694 62.4062 34.1495 62.5625 33.9981C62.7188 33.8467 62.8429 33.6668 62.9279 33.4685C63.0128 33.2702 63.0568 33.0575 63.0575 32.8426V32.3276C63.0587 31.8944 62.8839 31.4784 62.5712 31.1709C62.2586 30.8634 61.8337 30.6896 61.39 30.6876L58.9375 30.6776C58.9139 30.6772 58.8906 30.6816 58.8688 30.6903C58.8469 30.6991 58.8271 30.7121 58.8103 30.7287C58.7936 30.7452 58.7803 30.7648 58.7712 30.7865C58.7621 30.8082 58.7575 30.8315 58.7575 30.8551Z" fill="white"/>
<path d="M111.722 34.0025L107.165 33.9775C107.132 33.9774 107.101 33.9874 107.074 34.0063C107.048 34.0251 107.028 34.0518 107.017 34.0825L105.902 37.2425C105.892 37.2728 105.872 37.299 105.845 37.3173C105.819 37.3357 105.787 37.3454 105.755 37.345H102.155C102.13 37.345 102.105 37.339 102.083 37.3273C102.061 37.3156 102.042 37.2988 102.027 37.2781C102.013 37.2574 102.004 37.2336 102.001 37.2087C101.998 37.1838 102.001 37.1585 102.01 37.135L107.672 21.8275C107.684 21.7981 107.703 21.7728 107.729 21.7549C107.755 21.7371 107.786 21.7275 107.817 21.7275L111.35 21.7075C111.382 21.7072 111.414 21.7169 111.44 21.7352C111.467 21.7536 111.487 21.7797 111.497 21.81L117 37.1425C117.008 37.1661 117.011 37.1913 117.008 37.2161C117.004 37.2409 116.995 37.2645 116.98 37.2848C116.966 37.3052 116.947 37.3218 116.924 37.3332C116.902 37.3445 116.877 37.3503 116.852 37.35L113.15 37.33C113.118 37.3299 113.087 37.3199 113.061 37.3016C113.035 37.2833 113.016 37.2574 113.005 37.2275L111.867 34.105C111.857 34.0751 111.837 34.0493 111.811 34.031C111.785 34.0126 111.754 34.0027 111.722 34.0025ZM108.142 30.65C108.137 30.6691 108.135 30.6894 108.139 30.7091C108.142 30.7288 108.15 30.7475 108.162 30.7635C108.174 30.7796 108.189 30.7926 108.207 30.8016C108.225 30.8105 108.245 30.8151 108.265 30.815L110.825 30.7975C110.845 30.7978 110.865 30.7931 110.883 30.7841C110.902 30.775 110.917 30.7617 110.929 30.7453C110.941 30.7289 110.949 30.7099 110.952 30.6899C110.956 30.6698 110.954 30.6493 110.947 30.63L109.637 26.6975C109.629 26.6719 109.613 26.6496 109.591 26.6338C109.569 26.618 109.543 26.6095 109.516 26.6095C109.489 26.6095 109.463 26.618 109.441 26.6338C109.42 26.6496 109.403 26.6719 109.395 26.6975L108.142 30.65Z" fill="white"/>
<path d="M130.108 27.63L125.925 34.8575C125.918 34.8688 125.909 34.8781 125.897 34.8845C125.886 34.8909 125.872 34.8941 125.859 34.8939C125.846 34.8936 125.833 34.8899 125.822 34.8831C125.811 34.8762 125.801 34.8666 125.795 34.855L121.893 27.98C121.884 27.9657 121.872 27.9545 121.856 27.9482C121.841 27.9418 121.824 27.9407 121.808 27.945C121.792 27.9493 121.778 27.9587 121.768 27.9718C121.758 27.9849 121.753 28.001 121.753 28.0175L121.738 37.295C121.737 37.3145 121.729 37.3329 121.715 37.3464C121.701 37.36 121.682 37.3675 121.663 37.3675L118.243 37.31C118.224 37.3094 118.205 37.3015 118.192 37.2881C118.178 37.2746 118.171 37.2565 118.17 37.2375L118.155 21.78C118.155 21.7702 118.157 21.7604 118.161 21.7513C118.165 21.7422 118.17 21.7339 118.177 21.727C118.184 21.72 118.192 21.7145 118.201 21.7107C118.21 21.7069 118.22 21.705 118.23 21.705L122.07 21.6925C122.083 21.6927 122.097 21.6966 122.108 21.7036C122.119 21.7107 122.129 21.7206 122.135 21.7325L125.82 28.7175C125.826 28.7295 125.836 28.7396 125.848 28.7466C125.859 28.7536 125.873 28.7573 125.886 28.7573C125.9 28.7573 125.913 28.7536 125.925 28.7466C125.937 28.7396 125.946 28.7295 125.953 28.7175L129.653 21.76C129.659 21.7481 129.668 21.7382 129.68 21.7311C129.691 21.7241 129.704 21.7202 129.718 21.72L133.548 21.715C133.567 21.715 133.587 21.7229 133.601 21.737C133.615 21.751 133.623 21.7701 133.623 21.79L133.763 37.27C133.763 37.2899 133.755 37.309 133.741 37.323C133.727 37.3371 133.707 37.345 133.688 37.345L130.308 37.32C130.298 37.32 130.288 37.3181 130.279 37.3143C130.27 37.3105 130.261 37.305 130.255 37.298C130.248 37.2911 130.242 37.2828 130.238 37.2737C130.234 37.2646 130.233 37.2549 130.233 37.245L130.248 27.6675C130.248 27.651 130.242 27.6349 130.232 27.6218C130.222 27.6087 130.208 27.5993 130.192 27.595C130.176 27.5907 130.159 27.5918 130.144 27.5982C130.129 27.6045 130.116 27.6157 130.108 27.63Z" fill="white"/>
<path d="M139.485 31.03L139.48 33.7775C139.48 33.7992 139.484 33.8207 139.493 33.8407C139.501 33.8607 139.513 33.8789 139.528 33.8942C139.544 33.9095 139.562 33.9217 139.582 33.93C139.602 33.9383 139.623 33.9425 139.645 33.9425L145.968 33.9125C145.989 33.9122 146.011 33.9162 146.031 33.9244C146.052 33.9325 146.07 33.9446 146.086 33.96C146.101 33.9753 146.114 33.9936 146.122 34.0138C146.131 34.034 146.135 34.0557 146.135 34.0775L146.16 37.165C146.16 37.2084 146.143 37.25 146.113 37.2808C146.082 37.3117 146.041 37.3294 145.998 37.33L135.91 37.35C135.866 37.35 135.824 37.3327 135.793 37.3017C135.762 37.2708 135.745 37.2288 135.745 37.185L135.728 21.8875C135.728 21.8659 135.732 21.8444 135.74 21.8244C135.748 21.8044 135.761 21.7862 135.776 21.7709C135.791 21.7555 135.809 21.7434 135.829 21.7351C135.849 21.7268 135.871 21.7225 135.893 21.7225L145.815 21.7575C145.858 21.7575 145.9 21.7746 145.931 21.805C145.962 21.8354 145.979 21.8767 145.98 21.92L146.005 24.9825C146.005 25.0042 146.001 25.0257 145.993 25.0459C145.985 25.066 145.974 25.0844 145.958 25.0999C145.943 25.1155 145.925 25.1279 145.906 25.1365C145.886 25.1451 145.864 25.1497 145.843 25.15L139.65 25.2C139.628 25.2004 139.607 25.205 139.587 25.2135C139.567 25.2221 139.549 25.2346 139.534 25.2501C139.519 25.2657 139.507 25.2841 139.499 25.3042C139.491 25.3243 139.487 25.3459 139.488 25.3675L139.513 27.6875C139.513 27.7092 139.517 27.7306 139.526 27.7505C139.535 27.7704 139.547 27.7884 139.563 27.8035C139.578 27.8186 139.597 27.8304 139.617 27.8384C139.637 27.8464 139.658 27.8504 139.68 27.85L145.573 27.8025C145.594 27.8022 145.616 27.8062 145.636 27.8144C145.657 27.8225 145.675 27.8346 145.691 27.85C145.706 27.8653 145.719 27.8836 145.727 27.9038C145.736 27.924 145.74 27.9457 145.74 27.9675L145.73 30.7125C145.73 30.7563 145.713 30.7983 145.682 30.8292C145.651 30.8602 145.609 30.8775 145.565 30.8775L139.65 30.865C139.606 30.865 139.564 30.8824 139.533 30.9134C139.502 30.9443 139.485 30.9863 139.485 31.03Z" fill="white"/>
<path d="M29.7875 30.2925C30.482 30.2925 31.045 29.7295 31.045 29.035C31.045 28.3405 30.482 27.7775 29.7875 27.7775C29.093 27.7775 28.53 28.3405 28.53 29.035C28.53 29.7295 29.093 30.2925 29.7875 30.2925Z" fill="#45D91E"/>
<path d="M85.38 37.6075C86.3935 37.6075 87.215 36.7859 87.215 35.7725C87.215 34.7591 86.3935 33.9375 85.38 33.9375C84.3666 33.9375 83.545 34.7591 83.545 35.7725C83.545 36.7859 84.3666 37.6075 85.38 37.6075Z" fill="white"/>
</svg>
