<svg width="166" height="58" viewBox="0 0 166 58" fill="none" xmlns="http://www.w3.org/2000/svg">
<path d="M49.0527 7.39685C49.0307 7.52055 49.09 7.63456 49.1851 7.65151C49.2803 7.66846 49.3753 7.58193 49.3973 7.45823C49.4193 7.33453 49.3601 7.22051 49.2649 7.20356C49.1698 7.18661 49.0748 7.27315 49.0527 7.39685Z" fill="#480000" fill-opacity="0.757"/>
<path d="M32.6932 12.5563C32.8999 12.3948 32.9586 12.1245 32.8243 11.9526C32.69 11.7807 32.4135 11.7722 32.2068 11.9338C32.0001 12.0953 31.9414 12.3656 32.0757 12.5375C32.21 12.7094 32.4865 12.7178 32.6932 12.5563Z" fill="#B90101" fill-opacity="0.773"/>
<path d="M56.255 13.8675C56.4975 12.6375 57.9675 12.3525 59 12.1125C59.0809 12.0931 59.1656 12.1019 59.24 12.1375C59.89 12.4475 61.135 13.05 61.4425 13.715C61.4742 13.7867 61.48 13.86 61.46 13.935C61.1983 14.88 60.9108 15.4759 60.5975 15.7225C59.1775 16.8359 57.8566 16.84 56.635 15.735C56.015 15.1775 56.1125 14.5925 56.255 13.8675Z" fill="#4C0000" fill-opacity="0.506"/>
<path d="M43.2975 20.4201L42.965 20.8801C42.9117 20.9551 42.84 20.9959 42.75 21.0026C42.0967 21.0509 41.4558 21.1351 40.8275 21.2551C40.075 21.4001 39.1625 21.2701 39.135 20.3776C39.0933 18.9676 38.5925 17.9226 37.6325 17.2426C37.5946 17.2154 37.564 17.1794 37.5431 17.1376C37.5222 17.0958 37.5117 17.0494 37.5125 17.0026C37.5275 16.4451 38.0575 16.0751 38.2075 15.6926C38.4308 15.1209 38.3925 14.5567 38.0925 14.0001C38.0542 13.9284 38.0608 13.8617 38.1125 13.8001C39.0492 12.6517 40.2317 12.1792 41.66 12.3826C42.8975 12.5601 43.68 12.0551 44.74 13.0726C45.24 13.5551 45.575 13.7226 46.2225 13.5551C46.845 13.3926 47.3075 13.3826 47.385 14.1251C47.515 15.3726 46.435 15.1426 45.665 15.2476C45.595 15.2559 45.5533 15.2951 45.54 15.3651L45.3225 16.4651C45.3178 16.4901 45.3081 16.514 45.2939 16.5353C45.2797 16.5566 45.2614 16.5748 45.24 16.589C45.2186 16.6032 45.1946 16.613 45.1692 16.6179C45.1439 16.6228 45.1178 16.6227 45.0925 16.6176C44.2075 16.4326 43.7242 16.7734 43.6425 17.6401C43.6378 17.6855 43.6236 17.7293 43.6007 17.7686C43.5778 17.8078 43.5469 17.8416 43.51 17.8676L42.7325 18.4101C42.6984 18.4338 42.67 18.4647 42.649 18.5006C42.628 18.5364 42.6151 18.5764 42.611 18.6178C42.607 18.6591 42.612 18.7008 42.6256 18.7401C42.6392 18.7793 42.6612 18.8151 42.69 18.8451C42.9767 19.1434 43.3008 19.2392 43.6625 19.1326C43.7492 19.1059 43.8083 19.0501 43.84 18.9651C44.3725 17.5226 45.725 17.0576 46.92 18.1401C47.5875 18.7451 46.825 19.9826 46.4075 20.4901C45.7425 21.3026 44.645 21.0476 44.03 20.3751C43.9824 20.3233 43.9239 20.2827 43.8587 20.2564C43.7935 20.2302 43.7232 20.2187 43.653 20.2231C43.5828 20.2274 43.5145 20.2473 43.453 20.2814C43.3915 20.3155 43.3384 20.3628 43.2975 20.4201ZM42.2375 17.0126C42.2558 16.9959 42.2725 16.9767 42.2875 16.9551C42.3125 16.9217 42.3075 16.8917 42.2725 16.8651C42.0542 16.6934 41.775 16.6742 41.435 16.8076C40.47 17.1876 40.2142 17.8434 40.6675 18.7751C40.6875 18.8162 40.7194 18.8504 40.7591 18.8731C40.7988 18.8959 40.8444 18.9061 40.89 18.9026L42.02 18.8101C42.0763 18.8058 42.1295 18.7828 42.1712 18.7447C42.2129 18.7067 42.2407 18.6557 42.25 18.6001C42.3383 18.0717 42.3325 17.5476 42.2325 17.0276C42.2308 17.0226 42.2325 17.0176 42.2375 17.0126Z" fill="#4C0000" fill-opacity="0.506"/>
<path d="M34.4182 17.8125C34.7625 18.0893 35.2451 18.0608 35.496 17.7487C35.7469 17.4367 35.6711 16.9593 35.3268 16.6824C34.9824 16.4056 34.4999 16.4341 34.249 16.7462C33.9981 17.0582 34.0739 17.5356 34.4182 17.8125Z" fill="#480000" fill-opacity="0.757"/>
<path d="M53.96 19.075C53.9978 19.0903 54.0383 19.0977 54.0791 19.0966C54.1199 19.0955 54.1599 19.0859 54.1968 19.0685C54.2337 19.0512 54.2666 19.0263 54.2934 18.9956C54.3202 18.9649 54.3403 18.9289 54.3525 18.89C54.64 17.9725 55.8625 16.575 56.9625 17.1075C57.7925 17.5075 58.115 18.9475 58.2325 19.73C58.2442 19.8133 58.2867 19.875 58.36 19.915C58.56 20.0233 58.7925 20.0525 59.0575 20.0025C59.5808 19.9025 60.0733 19.9642 60.535 20.1875C60.5714 20.2054 60.6031 20.2312 60.6274 20.2629C60.6517 20.2946 60.668 20.3313 60.675 20.37C61.06 22.555 58.585 21.975 57.4175 21.97C57.3358 21.97 57.2625 21.9442 57.1975 21.8925C56.065 20.9775 55.33 20.4075 54.01 21.575C53.6433 21.9 53.1175 22.0458 52.4325 22.0125C52.3525 22.0092 52.2783 21.9858 52.21 21.9425C51.7225 21.6225 51.335 21.5225 50.7575 21.7775C50.1458 22.0475 49.5283 22.3008 48.905 22.5375C48.8283 22.5658 48.7509 22.5708 48.6725 22.5525C47.71 22.3275 47.2025 21.4875 47.7875 20.595C47.9825 20.2983 48.2217 20.0225 48.505 19.7675C49.2025 19.14 50 19.805 50.8 19.805C50.8411 19.805 50.8815 19.7956 50.918 19.7773C50.9545 19.7591 50.986 19.7326 51.01 19.7C51.4217 19.1417 51.9659 18.7708 52.6425 18.5875C52.688 18.5761 52.7351 18.5787 52.7775 18.595L53.96 19.075Z" fill="#4C0000" fill-opacity="0.506"/>
<path d="M141.335 24.25C141.063 24.14 140.913 24.0075 140.908 23.6875C140.893 22.3108 140.917 20.935 140.98 19.56C141 19.1125 141.158 18.4475 140.968 17.895C140.886 17.6567 140.733 17.595 140.51 17.71C140.148 17.8917 139.839 17.7675 139.583 17.3375C140.396 16.9558 141.07 17.0267 141.605 17.55C141.633 17.5777 141.656 17.6108 141.671 17.6474C141.686 17.6839 141.693 17.7231 141.693 17.7625C141.656 19.8242 141.671 21.8733 141.738 23.91C141.741 24.035 141.712 24.1242 141.65 24.1775C141.57 24.2492 141.465 24.2733 141.335 24.25Z" fill="#970200" fill-opacity="0.949"/>
<path d="M139.582 17.3375C139.839 17.7675 140.148 17.8917 140.51 17.71C140.733 17.595 140.886 17.6567 140.967 17.895C141.157 18.4475 141 19.1125 140.98 19.56C140.917 20.935 140.892 22.3109 140.907 23.6875C140.912 24.0075 141.062 24.14 141.335 24.25L138.17 24.28C138.15 24.2802 138.13 24.2761 138.112 24.268C138.094 24.2599 138.078 24.2479 138.065 24.233C138.052 24.218 138.042 24.2004 138.037 24.1813C138.031 24.1622 138.03 24.1422 138.032 24.1225C138.039 24.0692 138.052 24.0109 138.07 23.9475C138.087 23.8942 138.117 23.8417 138.16 23.79C139.062 22.765 139.482 21.81 139.467 20.36C139.456 19.3584 139.494 18.3509 139.582 17.3375Z" fill="#B90101" fill-opacity="0.773"/>
<path d="M90.375 20.0475C91.1067 20.1909 91.8383 20.1909 92.57 20.0475C92.5912 20.0433 92.6131 20.0451 92.6333 20.0528C92.6535 20.0604 92.6712 20.0736 92.6842 20.0909C92.6973 20.1081 92.7052 20.1286 92.7071 20.1502C92.709 20.1717 92.7048 20.1933 92.695 20.2125L92.1375 21.3275C92.1195 21.3641 92.0916 21.3948 92.0571 21.4161C92.0226 21.4373 91.9828 21.4482 91.9425 21.4475L89.6125 21.4425C89.4901 21.4424 89.3704 21.4063 89.2686 21.3387C89.1668 21.2711 89.0873 21.175 89.04 21.0625C88.5725 19.96 87.655 18.485 88.9225 17.585C88.9529 17.5633 88.9883 17.5497 89.0254 17.5454C89.0625 17.5411 89.1 17.5464 89.1345 17.5606C89.169 17.5749 89.1994 17.5977 89.2226 17.6269C89.2459 17.6561 89.2613 17.6907 89.2675 17.7275C89.3892 18.4525 89.6342 19.1367 90.0025 19.78C90.0418 19.8491 90.0955 19.9088 90.1598 19.9549C90.2241 20.0011 90.2975 20.0327 90.375 20.0475Z" fill="#6B0100" fill-opacity="0.761"/>
<path d="M61.9924 18.2594C62.0259 18.5946 62.2747 18.8443 62.5481 18.817C62.8215 18.7897 63.016 18.4958 62.9825 18.1606C62.9491 17.8253 62.7003 17.5757 62.4269 17.603C62.1535 17.6303 61.959 17.9242 61.9924 18.2594Z" fill="#4C0000" fill-opacity="0.506"/>
<path d="M31.39 20.4175C30.7317 20.4992 30.4225 20.4025 30.4625 20.1275C30.4192 20.0559 30.395 19.9625 30.39 19.8475C30.295 19.7759 30.2859 19.6667 30.3625 19.52C30.3992 19.4517 30.4042 19.3817 30.3775 19.31C30.3109 19.1217 30.23 19.0192 30.135 19.0025C29.905 18.8159 29.8642 18.4642 30.0125 17.9475C30.0342 17.8742 30.0817 17.8284 30.155 17.81C30.7134 17.67 31.0967 17.8792 31.305 18.4375C31.5667 19.1309 31.595 19.7909 31.39 20.4175Z" fill="#4C0000" fill-opacity="0.506"/>
<path d="M28.4925 18.6525C28.4876 18.6532 28.4825 18.6529 28.4777 18.6516C28.4729 18.6504 28.4684 18.6482 28.4644 18.6451C28.4605 18.6421 28.4572 18.6383 28.4547 18.634C28.4522 18.6297 28.4506 18.6249 28.45 18.62V18.61C28.4405 18.5181 28.449 18.4254 28.4749 18.337C28.5008 18.2485 28.5436 18.1662 28.601 18.0947C28.6583 18.0232 28.7291 17.9639 28.8091 17.9202C28.8892 17.8765 28.977 17.8492 29.0675 17.84L29.0925 17.8375C29.1831 17.8283 29.2746 17.8373 29.3618 17.864C29.449 17.8907 29.5302 17.9345 29.6008 17.9931C29.6714 18.0516 29.73 18.1236 29.7732 18.205C29.8163 18.2864 29.8433 18.3756 29.8525 18.4675V18.4775C29.8532 18.487 29.8502 18.4965 29.8442 18.5039C29.8382 18.5114 29.8295 18.5162 29.82 18.5175L28.4925 18.6525Z" fill="#0D0201" fill-opacity="0.98"/>
<path d="M11.9161 18.6116C12.1143 18.6282 12.2856 18.5145 12.2987 18.3577C12.3119 18.2008 12.162 18.0602 11.9638 18.0436C11.7657 18.0269 11.5944 18.1406 11.5813 18.2974C11.5681 18.4543 11.718 18.5949 11.9161 18.6116Z" fill="#0D0201" fill-opacity="0.98"/>
<path d="M60.18 19.1725C60.1758 19.1807 60.17 19.188 60.1629 19.194C60.1558 19.2 60.1476 19.2045 60.1388 19.2073C60.1299 19.2101 60.1206 19.2111 60.1114 19.2103C60.1022 19.2094 60.0932 19.2068 60.085 19.2025L59.8675 19.09C59.6674 18.9866 59.4948 18.8503 59.3874 18.7111C59.2801 18.5719 59.2468 18.4411 59.295 18.3475L59.305 18.325C59.3286 18.2783 59.3717 18.2422 59.4316 18.2187C59.4915 18.1952 59.5672 18.1848 59.6543 18.1881C59.7414 18.1913 59.8382 18.2082 59.9391 18.2377C60.04 18.2672 60.1431 18.3087 60.2425 18.36L60.46 18.4725C60.4683 18.4767 60.4756 18.4825 60.4816 18.4896C60.4875 18.4966 60.4921 18.5048 60.4949 18.5137C60.4976 18.5225 60.4987 18.5318 60.4978 18.5411C60.497 18.5503 60.4943 18.5593 60.49 18.5675L60.18 19.1725Z" fill="#4C0000" fill-opacity="0.506"/>
<path d="M34.6525 19.5049L34.6528 19.5062L34.6525 19.5074L34.65 19.5099C34.471 19.7841 34.1915 19.9765 33.8727 20.0449C33.5539 20.1134 33.222 20.0522 32.95 19.8749L32.9375 19.8674C32.6655 19.6901 32.4756 19.4112 32.4095 19.092C32.3434 18.7728 32.4065 18.4393 32.585 18.1649L32.5875 18.1624L32.5887 18.1621L32.59 18.1624L34.6525 19.5049Z" fill="#480000" fill-opacity="0.757"/>
<path d="M22.4217 19.0003C22.3754 19.1274 22.4021 19.2539 22.4812 19.2827C22.5604 19.3115 22.662 19.2318 22.7083 19.1046C22.7546 18.9775 22.728 18.851 22.6488 18.8222C22.5697 18.7934 22.468 18.8731 22.4217 19.0003Z" fill="#0D0201" fill-opacity="0.98"/>
<path d="M30.135 19.0024C30.23 19.0191 30.3108 19.1216 30.3775 19.3099C30.4041 19.3816 30.3991 19.4516 30.3625 19.5199C30.2858 19.6666 30.295 19.7758 30.39 19.8474L30.2375 20.0074C30.1691 20.0791 30.11 20.0716 30.06 19.9849C29.86 19.6399 29.885 19.3124 30.135 19.0024Z" fill="#0D0201" fill-opacity="0.98"/>
<path d="M27.3431 19.8963C27.3058 20.1266 27.3827 20.3307 27.515 20.3521C27.6472 20.3735 27.7846 20.2042 27.8219 19.9738C27.8592 19.7435 27.7823 19.5394 27.6501 19.518C27.5178 19.4966 27.3804 19.6659 27.3431 19.8963Z" fill="#0D0201" fill-opacity="0.98"/>
<path d="M98.7225 22.245C97.8175 21.75 97.57 20.9642 97.98 19.8875C98.005 19.8192 98.0533 19.7892 98.125 19.7975C100.308 20.0225 101.98 20.4 102.2 23.0475C102.204 23.1022 102.198 23.1572 102.18 23.209C102.162 23.2609 102.134 23.3085 102.097 23.3489C102.059 23.3893 102.014 23.4216 101.964 23.4437C101.914 23.4658 101.86 23.4773 101.805 23.4775L99.44 23.4875C99.392 23.4874 99.3453 23.473 99.306 23.4462C99.2667 23.4194 99.2367 23.3815 99.22 23.3375L98.84 22.38C98.8175 22.3219 98.7759 22.2741 98.7225 22.245Z" fill="#970101" fill-opacity="0.769"/>
<path d="M116.562 19.8075C118.21 19.51 119.992 20.1525 119.995 22.0725C119.997 22.1608 119.954 22.1967 119.867 22.18C119.114 22.0333 118.368 21.9658 117.63 21.9775C117.392 21.9825 117.002 21.7958 116.46 21.4175C116.431 21.3967 116.407 21.369 116.391 21.3367C116.375 21.3045 116.367 21.2687 116.367 21.2325L116.387 20.0125C116.389 19.8958 116.447 19.8275 116.562 19.8075Z" fill="#B90101" fill-opacity="0.773"/>
<path d="M124.164 19.8088L121.494 19.8367C121.458 19.8371 121.429 19.8665 121.43 19.9024L121.505 27.122C121.506 27.1579 121.535 27.1867 121.571 27.1863L124.241 27.1584C124.277 27.158 124.306 27.1286 124.305 27.0927L124.23 19.8731C124.229 19.8372 124.2 19.8084 124.164 19.8088Z" fill="#B90101" fill-opacity="0.773"/>
<path d="M97.105 26.8575L97.095 28.5C96.98 28.6316 96.8859 28.6966 96.8125 28.695C95.47 28.655 93.9725 28.095 93.34 26.85C92.855 25.895 92.775 23.235 93.0275 22.28C93.5425 20.3475 95.24 19.8825 97.0075 19.8225C97.0264 19.8214 97.0453 19.8244 97.063 19.8311C97.0807 19.8378 97.0969 19.8482 97.1105 19.8616C97.1241 19.8749 97.1349 19.891 97.1421 19.9088C97.1493 19.9266 97.1529 19.9457 97.1525 19.965L97.1275 21.445C97.1254 21.5361 97.0982 21.625 97.0488 21.7021C96.9995 21.7792 96.9299 21.8416 96.8475 21.8825C96.39 22.105 96.0475 22.4275 96.01 22.9875C95.9417 23.9858 95.9492 24.9541 96.0325 25.8925C96.0444 26.0216 96.0954 26.1438 96.1786 26.2426C96.2618 26.3415 96.3731 26.4121 96.4975 26.445C96.7109 26.5 96.9134 26.6375 97.105 26.8575Z" fill="#6B0100" fill-opacity="0.761"/>
<path d="M109.23 21.3775C109.102 21.2742 109.033 21.1833 109.025 21.105C109.018 21.0216 108.981 20.9433 108.92 20.885C108.859 20.8266 108.78 20.7923 108.696 20.7886C108.613 20.7849 108.532 20.8121 108.468 20.8649C108.404 20.9177 108.362 20.9925 108.35 21.075C108.28 21.52 108.013 21.7642 107.55 21.8075C107.477 21.8142 107.414 21.8433 107.363 21.895C106.983 22.2625 106.63 22.4575 106.325 22.9225C106.133 23.2175 105.908 23.4892 105.65 23.7375C105.593 23.7911 105.521 23.8244 105.445 23.8325C104.628 23.9275 104.194 24.38 104.143 25.19C104.14 25.2232 104.128 25.255 104.108 25.2813C104.087 25.3076 104.059 25.3271 104.028 25.3375L103.198 25.6175L104.835 20.04C104.849 19.9932 104.877 19.9521 104.916 19.9228C104.955 19.8935 105.003 19.8776 105.053 19.8775L108.415 19.865C108.532 19.8643 108.647 19.9025 108.74 19.9735C108.833 20.0446 108.9 20.1445 108.93 20.2575L109.23 21.3775Z" fill="#6B0100" fill-opacity="0.761"/>
<path d="M114.607 21.645C114.524 21.6505 114.444 21.6813 114.378 21.7334C114.313 21.7855 114.264 21.8563 114.24 21.9367C114.215 22.017 114.215 22.1031 114.24 22.1835C114.265 22.264 114.314 22.3351 114.38 22.3875C114.61 22.5675 114.842 22.69 115.157 22.6925C116.621 22.7041 117.765 22.7941 118.59 22.9625C120.83 23.4225 121.262 26.735 118.757 27.2175C117.941 27.3758 117.119 27.4708 116.292 27.5025C116.194 27.5058 116.157 27.46 116.182 27.365C116.316 26.8533 116.329 26.3341 116.222 25.8075C116.215 25.7692 116.217 25.7297 116.228 25.6923C116.239 25.655 116.259 25.6209 116.287 25.5931C116.314 25.5653 116.348 25.5445 116.385 25.5326C116.422 25.5208 116.462 25.5181 116.5 25.525C117.032 25.6216 117.382 25.4325 117.55 24.9575C117.57 24.9005 117.577 24.8395 117.569 24.7795C117.561 24.7195 117.538 24.6624 117.503 24.6129C117.469 24.5634 117.423 24.5229 117.369 24.495C117.315 24.4671 117.256 24.4525 117.195 24.4525C115.572 24.4525 112.28 24.6725 111.69 22.5225C111.005 20.0325 113.767 19.9175 115.38 19.8425C115.403 19.8414 115.427 19.8451 115.448 19.8534C115.47 19.8617 115.49 19.8744 115.506 19.8906C115.523 19.9069 115.535 19.9263 115.544 19.9477C115.552 19.9691 115.556 19.992 115.555 20.015L115.502 21.3875C115.5 21.4405 115.479 21.4909 115.442 21.5291C115.405 21.5673 115.355 21.5907 115.302 21.595L114.607 21.645Z" fill="#B90101" fill-opacity="0.773"/>
<path d="M126.095 19.8425C127.198 19.7741 127.85 20.2925 128.05 21.3975C128.054 21.4209 128.053 21.445 128.046 21.4678C128.039 21.4906 128.026 21.5114 128.009 21.5285C127.993 21.5456 127.972 21.5585 127.949 21.5661C127.926 21.5738 127.901 21.576 127.878 21.5725C127.051 21.4441 126.22 21.4333 125.385 21.54C125.329 21.5474 125.273 21.5424 125.219 21.5253C125.165 21.5082 125.116 21.4794 125.075 21.4409C125.034 21.4025 125.001 21.3554 124.98 21.3029C124.959 21.2505 124.949 21.194 124.953 21.1375L125.008 20.1C125.014 19.9866 125.071 19.91 125.178 19.87C125.493 19.75 125.808 19.86 126.095 19.8425Z" fill="#970200" fill-opacity="0.949"/>
<path d="M19.4347 20.3464C19.4936 20.5334 19.6535 20.6496 19.7918 20.606C19.93 20.5625 19.9943 20.3755 19.9354 20.1885C19.8764 20.0016 19.7165 19.8853 19.5783 19.9289C19.44 19.9725 19.3757 20.1594 19.4347 20.3464Z" fill="#0D0201" fill-opacity="0.98"/>
<path d="M87.2125 24.35L87.01 25.0675L86.18 27.06C86.1539 27.1227 86.1101 27.1763 86.0539 27.2144C85.9977 27.2524 85.9315 27.2732 85.8635 27.2743C85.7954 27.2754 85.7284 27.2566 85.6705 27.2204C85.6126 27.1841 85.5664 27.1319 85.5375 27.07C84.6908 25.2317 83.8433 23.3434 82.995 21.405C82.8317 21.0317 82.6533 20.6917 82.46 20.385C82.4419 20.3568 82.4318 20.3242 82.4306 20.2907C82.4294 20.2572 82.4372 20.2239 82.4532 20.1942C82.4692 20.1645 82.4928 20.1394 82.5217 20.1216C82.5505 20.1037 82.5836 20.0937 82.6175 20.0925C83.4141 20.0759 84.2083 20.0775 85 20.0975C85.73 20.115 85.775 20.5125 86.04 21.185C86.4566 22.2384 86.8475 23.2934 87.2125 24.35Z" fill="#6B0100" fill-opacity="0.761"/>
<path d="M30.4625 20.1274C30.4225 20.4024 30.7317 20.4991 31.39 20.4174C31.2325 20.6049 31.0775 20.8249 30.825 20.8299C30.485 20.8383 30.3084 20.6399 30.295 20.2349C30.2934 20.1833 30.3492 20.1474 30.4625 20.1274Z" fill="#0D0201" fill-opacity="0.98"/>
<path d="M76.1675 20.1475C76.2941 20.1475 76.4156 20.1978 76.5051 20.2873C76.5947 20.3769 76.645 20.4983 76.645 20.625V20.66C76.6487 22.7962 76.6374 24.8457 76.6135 26.3609C76.5896 27.8762 76.5551 28.7341 76.5175 28.7475L73.7525 28.7525C73.7337 28.7591 73.7147 28.5548 73.6966 28.1514C73.6785 27.7479 73.6617 27.1533 73.647 26.4016C73.6324 25.6499 73.6203 24.7561 73.6113 23.7716C73.6024 22.7871 73.5968 21.7313 73.595 20.665V20.63C73.595 20.5033 73.6453 20.3819 73.7348 20.2923C73.8244 20.2028 73.9458 20.1525 74.0725 20.1525L76.1675 20.1475Z" fill="#480000" fill-opacity="0.757"/>
<path d="M67.5 22.065C67.3083 22.405 67.0658 22.5658 66.7725 22.5475C66.6825 22.5425 66.6192 22.5808 66.5825 22.6625L66.185 23.54C66.1167 23.6883 66.025 23.7041 65.91 23.5875L65.6975 23.3775C65.6558 23.3341 65.6142 23.3341 65.5725 23.3775C65.3258 23.6358 65.0408 23.8408 64.7175 23.9925C64.4458 24.1208 64.19 24.1116 63.95 23.965C63.8817 23.9233 63.8275 23.8675 63.7875 23.7975L63.365 23.0475C63.6175 21.12 65.5725 20.2975 67.3125 20.2C67.4092 20.195 67.4583 20.2408 67.46 20.3375L67.5 22.065Z" fill="#6B0100" fill-opacity="0.761"/>
<path d="M68.1875 22.25C68 21.59 68.2025 21.0425 68.2225 20.39C68.2242 20.2883 68.275 20.2317 68.375 20.22C68.6533 20.1883 69.0058 20.2067 69.4325 20.275C71.4592 20.6033 72.4817 21.8033 72.5 23.875C72.515 25.3283 72.515 26.7817 72.5 28.235C72.48 30.63 70.8025 32.025 68.4575 32.045C68.3707 32.0457 68.2871 32.0128 68.2242 31.9531C68.1612 31.8934 68.1239 31.8117 68.12 31.725L68.045 30.2375C68.0428 30.1957 68.0524 30.1542 68.0728 30.1179C68.0932 30.0816 68.1234 30.052 68.16 30.0325L69.055 29.565C69.0989 29.5422 69.134 29.5062 69.155 29.4625C69.36 29.0158 69.465 28.5492 69.47 28.0625C69.485 26.7075 69.4892 25.3533 69.4825 24C69.4775 23.1783 69.1008 22.6508 68.3525 22.4175C68.3127 22.4053 68.2767 22.3836 68.2478 22.3543C68.219 22.325 68.1982 22.2891 68.1875 22.25Z" fill="#480000" fill-opacity="0.757"/>
<path d="M76.995 20.875C76.9567 20.655 77.0242 20.4842 77.1975 20.3625C77.3009 20.2909 77.4609 20.2442 77.6775 20.2225C81.24 19.875 83.1825 21.7025 82.7075 25.2825C82.295 28.41 79.9075 28.9475 77.2075 28.735C77.1242 28.7284 77.0809 28.6834 77.0775 28.6L76.9875 26.7075C76.9854 26.6728 76.9968 26.6384 77.0194 26.6111C77.0421 26.5838 77.0744 26.5656 77.11 26.56C77.695 26.4775 78.6125 26.6025 79.1025 26.155C79.6775 25.63 79.61 24.25 79.515 23.56C79.36 22.4425 78.2475 22.545 77.4225 22.5C77.3752 22.4978 77.3288 22.4862 77.286 22.4659C77.2432 22.4456 77.2047 22.4169 77.1729 22.3816C77.1411 22.3463 77.1165 22.3051 77.1006 22.2602C77.0846 22.2153 77.0777 22.1677 77.08 22.12C77.105 21.66 77.0925 21.46 76.995 20.875Z" fill="#480000" fill-opacity="0.757"/>
<path d="M34.1675 20.9675C34.795 20.4275 36.5725 20.83 37.2775 21.115C37.3625 21.15 37.4217 21.2108 37.455 21.2975C37.5634 21.5708 37.4867 21.8375 37.225 22.0975C36.35 22.965 33.83 24.625 33.33 22.4775C33.125 21.6 33.615 21.445 34.1675 20.9675Z" fill="#4C0000" fill-opacity="0.506"/>
<path d="M137.546 21.0528C137.481 21.248 137.515 21.4352 137.622 21.4709C137.73 21.5067 137.87 21.3774 137.935 21.1822C137.999 20.987 137.965 20.7998 137.858 20.764C137.75 20.7283 137.61 20.8576 137.546 21.0528Z" fill="#970200" fill-opacity="0.949"/>
<path d="M109.23 21.3775C109.428 22.0275 109.631 22.68 109.838 23.335C110.155 24.345 110.508 26.0625 111.14 27.3875C111.185 27.4809 111.157 27.5367 111.055 27.555C110.168 27.7217 109.278 27.7575 108.383 27.6625C108.324 27.6562 108.267 27.6381 108.215 27.6094C108.163 27.5806 108.117 27.5417 108.08 27.495C107.743 27.0717 107.311 26.7925 106.783 26.6575C106.696 26.6355 106.616 26.5936 106.549 26.5353C106.482 26.4769 106.429 26.4037 106.395 26.3214C106.361 26.2392 106.347 26.1501 106.353 26.0613C106.36 25.9726 106.387 25.8865 106.433 25.81C106.881 25.0517 107.148 24.2384 107.233 23.37C107.236 23.3266 107.225 23.2832 107.202 23.2466C107.178 23.2099 107.143 23.1822 107.102 23.1676C107.061 23.1531 107.016 23.1525 106.974 23.1661C106.933 23.1796 106.897 23.2065 106.873 23.2425C106.665 23.5625 106.468 23.9175 106.375 24.3075C106.135 25.3109 105.878 26.3584 105.605 27.45C105.574 27.5742 105.504 27.6851 105.405 27.7662C105.306 27.8472 105.183 27.8942 105.055 27.9L102.448 28.0125C102.346 28.0159 102.313 27.9709 102.35 27.8775L103.198 25.6175L104.028 25.3375C104.059 25.3272 104.087 25.3076 104.108 25.2813C104.128 25.2551 104.14 25.2233 104.143 25.19C104.194 24.38 104.628 23.9275 105.445 23.8325C105.521 23.8245 105.593 23.7911 105.65 23.7375C105.908 23.4892 106.133 23.2175 106.325 22.9225C106.63 22.4575 106.983 22.2625 107.363 21.895C107.414 21.8434 107.477 21.8142 107.55 21.8075C108.013 21.7642 108.28 21.52 108.35 21.075C108.362 20.9925 108.404 20.9177 108.468 20.8649C108.532 20.8121 108.613 20.785 108.696 20.7887C108.78 20.7924 108.86 20.8267 108.92 20.885C108.981 20.9434 109.018 21.0217 109.025 21.105C109.033 21.1834 109.102 21.2742 109.23 21.3775ZM107.035 23.0375L107.103 23.08C107.114 23.0874 107.127 23.0916 107.141 23.0921C107.155 23.0927 107.168 23.0895 107.18 23.0831C107.192 23.0766 107.202 23.0671 107.208 23.0556C107.215 23.044 107.218 23.0308 107.218 23.0175V22.63C107.218 22.6139 107.214 22.598 107.206 22.584C107.197 22.57 107.186 22.5585 107.172 22.5506C107.158 22.5426 107.142 22.5386 107.126 22.539C107.109 22.5393 107.094 22.544 107.08 22.5525C106.96 22.6259 106.927 22.7625 106.98 22.9625C106.988 22.993 107.008 23.0197 107.035 23.0375Z" fill="#B90101" fill-opacity="0.773"/>
<path d="M55.39 22.5075C55.5805 22.5075 55.735 22.353 55.735 22.1625C55.735 21.972 55.5805 21.8175 55.39 21.8175C55.1994 21.8175 55.045 21.972 55.045 22.1625C55.045 22.353 55.1994 22.5075 55.39 22.5075Z" fill="#4C0000" fill-opacity="0.506"/>
<path d="M21.1598 22.6127C21.2852 22.8447 21.4844 22.9801 21.6046 22.9151C21.7249 22.85 21.7206 22.6093 21.5952 22.3773C21.4698 22.1453 21.2706 22.01 21.1504 22.075C21.0302 22.14 21.0344 22.3808 21.1598 22.6127Z" fill="#0D0201" fill-opacity="0.98"/>
<path d="M67.5 22.0649C67.4033 22.4016 67.1767 22.6666 66.82 22.8599C66.7502 22.8989 66.6943 22.9583 66.66 23.0299C66.425 23.5283 66.3092 23.8933 66.3125 24.1249C66.3292 25.3816 66.3275 26.5316 66.3075 27.5749C65.5442 26.9916 64.56 26.5533 63.355 26.2599C63.225 25.2316 63.2283 24.1608 63.365 23.0474L63.7875 23.7974C63.8275 23.8674 63.8817 23.9233 63.95 23.9649C64.19 24.1116 64.4458 24.1208 64.7175 23.9924C65.0408 23.8408 65.3258 23.6358 65.5725 23.3774C65.6142 23.3341 65.6558 23.3341 65.6975 23.3774L65.91 23.5874C66.025 23.7041 66.1167 23.6883 66.185 23.5399L66.5825 22.6624C66.6192 22.5808 66.6825 22.5424 66.7725 22.5474C67.0658 22.5658 67.3083 22.4049 67.5 22.0649Z" fill="#480000" fill-opacity="0.757"/>
<path d="M11.785 22.96C11.9838 22.96 12.145 22.7988 12.145 22.6C12.145 22.4012 11.9838 22.24 11.785 22.24C11.5862 22.24 11.425 22.4012 11.425 22.6C11.425 22.7988 11.5862 22.96 11.785 22.96Z" fill="#0D0201" fill-opacity="0.98"/>
<path d="M87.415 25.415L87.63 24.5775L88.465 22.7C88.5154 22.5865 88.6028 22.4935 88.7128 22.4362C88.8227 22.379 88.9487 22.3609 89.07 22.385C89.7566 22.52 90.4408 22.5209 91.1225 22.3875C91.1641 22.3794 91.2072 22.3827 91.2472 22.397C91.2871 22.4114 91.3224 22.4363 91.3493 22.4691C91.3763 22.5019 91.3938 22.5414 91.4001 22.5834C91.4063 22.6254 91.4011 22.6683 91.385 22.7075C90.7166 24.2909 89.9758 25.8217 89.1625 27.3C88.625 28.275 89.1675 30.4875 89.54 31.5225C90.9825 35.5525 93.2975 38.3675 96.5025 41.1275C97.11 41.6525 98.025 42.1225 98.3375 42.9025C98.353 42.9414 98.3592 42.9832 98.3558 43.0245C98.3523 43.0657 98.3392 43.1053 98.3175 43.14L97.0825 45.1825C97.0308 45.2675 96.9633 45.2817 96.88 45.225C91.08 41.3075 86.7725 35.8125 86.065 28.68C86.0566 28.5984 86.0683 28.5209 86.1 28.4475L87.415 25.415Z" fill="#480000" fill-opacity="0.757"/>
<path d="M41.1466 23.6218C41.5493 23.6408 41.8885 23.3868 41.9042 23.0544C41.9199 22.722 41.6061 22.4372 41.2034 22.4182C40.8007 22.3992 40.4615 22.6532 40.4458 22.9856C40.4301 23.318 40.7439 23.6028 41.1466 23.6218Z" fill="#480000" fill-opacity="0.757"/>
<path d="M31.185 22.5025C31.244 22.4826 31.3085 22.487 31.3643 22.5147C31.4201 22.5423 31.4626 22.591 31.4825 22.65L31.515 22.7475C31.5819 22.9453 31.5842 23.156 31.5213 23.3333C31.4585 23.5105 31.3357 23.6397 31.18 23.6925L31.1 23.72C31.0227 23.7461 30.9397 23.7526 30.8556 23.7391C30.7715 23.7256 30.688 23.6923 30.61 23.6412C30.5319 23.5901 30.4609 23.5222 30.4008 23.4413C30.3407 23.3605 30.2929 23.2683 30.26 23.17L30.2275 23.0725C30.2077 23.0135 30.2121 22.949 30.2397 22.8932C30.2674 22.8374 30.316 22.7949 30.375 22.775L31.185 22.5025Z" fill="#480000" fill-opacity="0.757"/>
<path d="M106.98 22.9625C106.927 22.7625 106.96 22.6258 107.08 22.5525C107.094 22.544 107.109 22.5393 107.126 22.539C107.142 22.5386 107.158 22.5426 107.172 22.5505C107.186 22.5585 107.197 22.57 107.205 22.584C107.214 22.598 107.218 22.6139 107.217 22.63V23.0175C107.218 23.0308 107.215 23.044 107.208 23.0555C107.202 23.0671 107.192 23.0766 107.18 23.0831C107.168 23.0895 107.155 23.0926 107.141 23.0921C107.127 23.0916 107.114 23.0874 107.102 23.08L107.035 23.0375C107.008 23.0197 106.988 22.9929 106.98 22.9625Z" fill="#970101" fill-opacity="0.769"/>
<path d="M124.99 23.6925C124.848 23.3441 124.886 23.0033 125.103 22.67C125.127 22.6334 125.16 22.6038 125.2 22.584C125.239 22.5643 125.283 22.5552 125.328 22.5575C126.266 22.6092 127.199 22.6375 128.128 22.6425C128.948 22.65 129.56 23.07 130.025 23.655C130.054 23.692 130.073 23.7366 130.078 23.7836C130.083 23.8306 130.075 23.878 130.055 23.9204C130.035 23.9628 130.003 23.9985 129.963 24.0232C129.923 24.0479 129.877 24.0606 129.83 24.06L125.5 24.0375C125.253 24.0375 125.083 23.9225 124.99 23.6925Z" fill="#970200" fill-opacity="0.949"/>
<path d="M62.2225 26.06L60.4025 26.1775C60.3408 26.1809 60.3108 26.2134 60.3125 26.275L60.3575 28.08C60.3583 28.1119 60.3685 28.1427 60.3868 28.1686C60.4051 28.1944 60.4305 28.2141 60.46 28.225C60.9383 28.4017 61.2633 28.7192 61.435 29.1775C61.4683 29.2675 61.5908 29.2942 61.8025 29.2575C60.9408 30.2059 59.8766 30.7434 58.61 30.87C58.5873 30.8722 58.5645 30.8677 58.5444 30.8571C58.5242 30.8465 58.5076 30.8303 58.4964 30.8105C58.4853 30.7906 58.4802 30.7679 58.4817 30.7452C58.4832 30.7225 58.4913 30.7007 58.505 30.6825C58.8416 30.2559 58.8025 29.8634 58.3875 29.505C58.3729 29.4926 58.3609 29.4774 58.3524 29.4602C58.3438 29.443 58.3388 29.4243 58.3376 29.4052C58.3364 29.386 58.3391 29.3669 58.3456 29.3488C58.352 29.3307 58.362 29.3141 58.375 29.3C58.7525 28.8875 59.2975 28.575 59.5075 28.0975C59.8475 27.3225 59.695 26.51 58.9675 26.02C58.7775 25.8917 58.6125 25.7442 58.4725 25.5775L58.5425 23.775C58.8325 23.7067 59.1191 23.6625 59.4025 23.6425C61.2475 23.5109 62.1875 24.3167 62.2225 26.06Z" fill="#970101" fill-opacity="0.769"/>
<path d="M38.8374 24.7292C39.1397 24.6465 39.3322 24.3873 39.2674 24.1502C39.2025 23.9132 38.9049 23.7881 38.6026 23.8708C38.3002 23.9535 38.1077 24.2127 38.1726 24.4497C38.2375 24.6868 38.5351 24.8119 38.8374 24.7292Z" fill="#6B0100" fill-opacity="0.761"/>
<path d="M58.5425 23.775L58.4725 25.5775C58.3525 24.9559 58.3758 24.355 58.5425 23.775Z" fill="#480000" fill-opacity="0.757"/>
<path d="M57.8925 29.51L57.6025 30.645C57.5908 30.695 57.6108 30.7208 57.6625 30.7225C57.6908 30.7225 57.7217 30.72 57.755 30.715C57.8125 30.7063 57.8679 30.72 57.9109 30.7535C57.9538 30.787 57.9813 30.838 57.9881 30.8969C57.9948 30.9557 57.9805 31.0183 57.9476 31.0728C57.9148 31.1272 57.8659 31.1698 57.81 31.1925C54.6 32.4625 53.7025 29.6925 53.95 27.215C54.1425 25.2625 55.645 24.17 57.515 23.9725C57.543 23.9697 57.5713 23.9725 57.5982 23.9808C57.625 23.989 57.6499 24.0025 57.6714 24.0205C57.6928 24.0384 57.7104 24.0605 57.7231 24.0853C57.7357 24.1101 57.7432 24.1372 57.745 24.165L57.845 25.4875C57.8517 25.5725 57.825 25.6458 57.765 25.7075C57.3875 26.0975 56.9475 26.41 56.78 26.9275C56.4267 28.0291 56.7767 28.8441 57.83 29.3725C57.8546 29.3842 57.8743 29.4044 57.8857 29.4295C57.8971 29.4546 57.8995 29.483 57.8925 29.51ZM55.7125 30.2775C55.9708 30.0191 56.2992 29.9333 56.6975 30.02C56.7142 30.0238 56.7316 30.0218 56.747 30.0143C56.7624 30.0068 56.7747 29.9943 56.782 29.9788C56.7893 29.9634 56.7911 29.9459 56.7871 29.9293C56.7831 29.9127 56.7735 29.8979 56.76 29.8875C56.5767 29.7458 56.3617 29.6825 56.115 29.6975C55.83 29.7125 55.6725 29.8675 55.3925 29.9575C55.3608 29.9675 55.3117 30.0458 55.245 30.1925C55.2367 30.2108 55.2292 30.2316 55.2225 30.255C55.2195 30.2664 55.2202 30.2786 55.2246 30.2896C55.229 30.3006 55.2369 30.3099 55.247 30.3161C55.2571 30.3223 55.2689 30.325 55.2808 30.3239C55.2926 30.3228 55.3037 30.3179 55.3125 30.31L55.38 30.245C55.3983 30.2266 55.4075 30.2308 55.4075 30.2575V30.325C55.4075 30.3783 55.4175 30.4291 55.4375 30.4775C55.5242 30.6858 55.6192 30.7608 55.7225 30.7025C55.8242 30.6458 55.84 30.5708 55.77 30.4775L55.7025 30.39C55.6742 30.35 55.6775 30.3125 55.7125 30.2775Z" fill="#B90101" fill-opacity="0.773"/>
<path d="M87.2125 24.35C87.3275 24.6216 87.4667 24.6975 87.63 24.5775L87.415 25.415L87.355 25.095C87.34 25.02 87.2958 24.9925 87.2225 25.0125L87.01 25.0675L87.2125 24.35Z" fill="#4C0000" fill-opacity="0.506"/>
<path d="M49.49 29.9499C49.195 30.0116 49.0058 29.8983 48.9225 29.6099L48.81 27.9649C48.8051 27.888 48.7702 27.8155 48.7125 27.7624C48.3125 27.4024 47.8233 27.2499 47.245 27.3049C47.0516 27.3216 46.9425 27.4074 46.9175 27.5624C46.9109 27.6026 46.8903 27.6391 46.8594 27.6655C46.8285 27.692 46.7892 27.7067 46.7485 27.707C46.7079 27.7073 46.6684 27.6932 46.6371 27.6672C46.6058 27.6412 46.5847 27.605 46.5775 27.5649L46.5075 27.1374L46.33 24.7824C46.3217 24.6641 46.3766 24.6041 46.495 24.6024L49.1725 24.5399C49.2019 24.5393 49.2304 24.5504 49.2519 24.571C49.2734 24.5916 49.2862 24.6199 49.2875 24.6499L49.49 29.9499Z" fill="#B90101" fill-opacity="0.773"/>
<path d="M102.22 25.265C101.995 26.205 101.77 27.255 100.935 27.815C100.093 28.3783 99.1333 28.665 98.055 28.675C97.855 28.6766 97.7583 28.5775 97.765 28.3775L97.815 26.93C97.8172 26.8809 97.8325 26.8333 97.8594 26.7924C97.8862 26.7515 97.9236 26.7187 97.9675 26.6975L98.7925 26.3025C98.8198 26.2892 98.8439 26.2697 98.8629 26.2455C98.8819 26.2213 98.8954 26.1929 98.9025 26.1625L99.1675 24.965C99.1796 24.9101 99.2104 24.8612 99.2547 24.8265C99.2989 24.7919 99.3538 24.7736 99.41 24.775L101.885 24.83C101.938 24.8307 101.989 24.8432 102.036 24.8668C102.083 24.8904 102.124 24.9243 102.157 24.9661C102.189 25.0079 102.211 25.0565 102.222 25.1082C102.233 25.1599 102.232 25.2135 102.22 25.265Z" fill="#B90101" fill-opacity="0.773"/>
<path d="M111.467 24.815C112.622 24.77 114.54 24.9 115.497 25.6075C115.536 25.6356 115.567 25.6722 115.589 25.7147C115.611 25.7571 115.623 25.8042 115.625 25.8525L115.662 27.1925C115.664 27.2306 115.658 27.2685 115.644 27.3042C115.631 27.3399 115.611 27.3727 115.585 27.4005C115.559 27.4284 115.527 27.4508 115.493 27.4666C115.458 27.4824 115.421 27.4912 115.382 27.4925C113.425 27.56 111.695 27.1825 111.362 24.9425C111.351 24.8608 111.386 24.8183 111.467 24.815Z" fill="#B90101" fill-opacity="0.773"/>
<path d="M34.9225 24.78C34.9388 24.779 34.9551 24.7813 34.9705 24.7867C34.9859 24.792 35.0001 24.8005 35.0122 24.8114C35.0243 24.8224 35.0341 24.8356 35.041 24.8504C35.048 24.8652 35.0519 24.8812 35.0525 24.8975L35.0575 25.0275C35.0654 25.1933 35.0209 25.3548 34.9337 25.4766C34.8466 25.5984 34.7239 25.6707 34.5925 25.6775L34.5275 25.68C34.3957 25.6864 34.2661 25.6266 34.1672 25.5136C34.0682 25.4006 34.0081 25.2437 34 25.0775L33.9925 24.95C33.9915 24.9337 33.9937 24.9174 33.9991 24.902C34.0045 24.8866 34.0129 24.8724 34.0239 24.8603C34.0348 24.8482 34.0481 24.8384 34.0629 24.8315C34.0776 24.8245 34.0937 24.8207 34.11 24.82L34.9225 24.78Z" fill="#480000" fill-opacity="0.757"/>
<path d="M22.7088 25.73C22.8142 26.0149 23.0266 26.1989 23.1833 26.1409C23.34 26.0829 23.3816 25.805 23.2762 25.5201C23.1708 25.2352 22.9584 25.0513 22.8017 25.1092C22.645 25.1672 22.6034 25.4451 22.7088 25.73Z" fill="#B90101" fill-opacity="0.773"/>
<path d="M143.208 25.4096L125.409 25.2854C125.162 25.2836 124.96 25.4826 124.958 25.7297L124.952 26.5947C124.95 26.8418 125.149 27.0436 125.397 27.0453L143.196 27.1696C143.443 27.1713 143.645 26.9724 143.647 26.7252L143.653 25.8602C143.655 25.6131 143.456 25.4113 143.208 25.4096Z" fill="#970200" fill-opacity="0.949"/>
<path d="M149.372 26.095C148.57 25.78 148.43 26.2025 147.98 26.6775C147.373 27.3175 146.713 27.8634 146 28.315C145.953 28.3447 145.899 28.362 145.844 28.3651C145.789 28.3682 145.733 28.357 145.684 28.3327C145.634 28.3084 145.591 28.2717 145.559 28.2262C145.527 28.1806 145.508 28.1277 145.502 28.0725C145.466 27.7142 145.603 27.4475 145.915 27.2725C146.877 26.7309 147.817 26.1525 148.735 25.5375C148.817 25.4842 148.902 25.4759 148.99 25.5125L149.97 25.915C150.243 26.0284 150.273 26.1867 150.06 26.39C149.893 26.55 149.673 26.5442 149.4 26.3725C149.335 26.3309 149.318 26.275 149.35 26.205L149.385 26.1275C149.392 26.1125 149.387 26.1017 149.372 26.095Z" fill="#970200" fill-opacity="0.949"/>
<path d="M44.5775 27.0075C44.5425 27.4659 44.33 27.6167 43.94 27.46C43.2 27.1634 42.5958 27.235 42.1275 27.675C42.0772 27.7236 42.0131 27.7543 41.945 27.7625L41.39 27.8325L40.075 27.815C40.002 27.8144 39.9322 27.7853 39.8803 27.7339C39.8285 27.6826 39.7988 27.613 39.7975 27.54L39.7725 25.95C39.7709 25.8805 39.7957 25.8129 39.842 25.7606C39.8883 25.7082 39.9527 25.675 40.0225 25.6675C40.6925 25.5975 41.3683 25.57 42.05 25.585C43.2866 25.6117 44.1291 26.0859 44.5775 27.0075Z" fill="#B90101" fill-opacity="0.773"/>
<path d="M36.59 35.1925C36.3866 32.7108 36.2041 30.2292 36.0425 27.7475C35.92 25.8875 37.2375 26.055 38.545 25.7625C38.6055 25.7493 38.6682 25.7494 38.7287 25.7627C38.7891 25.7761 38.846 25.8023 38.8952 25.8396C38.9444 25.877 38.9849 25.9245 39.0137 25.979C39.0426 26.0334 39.0593 26.0935 39.0625 26.155L39.7275 38.32C39.7325 38.405 39.7008 38.4733 39.6325 38.525C39.4691 38.6433 39.2883 38.7083 39.09 38.72C37.945 38.785 37.0175 38.9475 36.8125 37.5075C36.7658 37.1808 36.6916 36.4092 36.59 35.1925Z" fill="#970101" fill-opacity="0.769"/>
<path d="M62.2225 26.0601C62.3908 27.3351 62.2508 28.4009 61.8025 29.2576C61.5908 29.2942 61.4683 29.2676 61.435 29.1776C61.2633 28.7192 60.9383 28.4017 60.46 28.2251C60.4306 28.2141 60.4051 28.1944 60.3868 28.1686C60.3686 28.1427 60.3584 28.1119 60.3575 28.0801L60.3125 26.2751C60.3108 26.2134 60.3408 26.1809 60.4025 26.1776L62.2225 26.0601Z" fill="#B90101" fill-opacity="0.773"/>
<path d="M66.3075 27.575C66.1992 28.69 66.5483 29.4842 67.355 29.9575C67.3866 29.9759 67.4132 30.0018 67.4324 30.0327C67.4516 30.0637 67.4628 30.0988 67.465 30.135L67.58 31.8625C67.5814 31.8811 67.5789 31.8997 67.5727 31.9172C67.5666 31.9348 67.5568 31.9509 67.5442 31.9645C67.5315 31.9781 67.5161 31.989 67.4991 31.9964C67.482 32.0038 67.4636 32.0076 67.445 32.0075C65.51 32.0042 64.215 31.2183 63.56 29.65C63.1525 28.675 63.3025 27.3575 63.355 26.26C64.56 26.5533 65.5442 26.9917 66.3075 27.575Z" fill="#B90101" fill-opacity="0.773"/>
<path d="M84.8925 30.1775C85.1575 34.305 87.4825 38.63 90.22 41.6575C91.94 43.5575 93.7825 45.1525 95.955 46.625C95.9668 46.6326 95.9755 46.6442 95.9796 46.6579C95.9837 46.6716 95.983 46.6865 95.9775 46.7C95.6142 47.4767 95.1525 48.1917 94.5925 48.845C94.35 49.1275 93.8175 48.93 93.5125 48.7225C87.25 44.49 82.0925 37.4325 81.2275 29.7775C81.2175 29.6942 81.2508 29.6367 81.3275 29.605C82.5492 29.0983 83.3375 28.2083 83.6925 26.935C83.699 26.9128 83.7118 26.8931 83.7295 26.8782C83.7471 26.8633 83.7688 26.8539 83.7917 26.8513C83.8146 26.8486 83.8379 26.8527 83.8585 26.8632C83.8791 26.8736 83.8961 26.8899 83.9075 26.91C84.5425 28.015 84.8025 28.795 84.8925 30.1775Z" fill="#480000" fill-opacity="0.757"/>
<path d="M97.105 26.8575C97.2866 27.4342 97.2833 27.9817 97.095 28.5L97.105 26.8575Z" fill="#4C0000" fill-opacity="0.506"/>
<path d="M44.5775 27.0074C45.0725 28.6858 44.7583 30.0433 43.635 31.0799C43.6195 31.0939 43.6079 31.1117 43.6016 31.1316C43.5953 31.1515 43.5943 31.1728 43.5989 31.1931C43.6035 31.2135 43.6134 31.2323 43.6277 31.2475C43.6419 31.2628 43.66 31.274 43.68 31.2799C44.2033 31.4316 44.655 31.7591 45.035 32.2624L43.925 32.4449C43.866 32.4546 43.8055 32.4507 43.7482 32.4336C43.6909 32.4164 43.6383 32.3865 43.5942 32.3461C43.5502 32.3056 43.5159 32.2557 43.4939 32.2001C43.472 32.1445 43.4629 32.0846 43.4675 32.0249C43.4792 31.8616 43.4108 31.7499 43.2625 31.6899C43.2042 31.6649 43.1883 31.6249 43.215 31.5699C43.23 31.5399 43.2492 31.5099 43.2725 31.4799C43.3458 31.3849 43.3242 31.3241 43.2075 31.2974C43.0292 31.2541 42.8475 31.2591 42.6625 31.3124C42.5958 31.3308 42.5275 31.3399 42.4575 31.3399L41.075 31.3474C41.0278 31.3475 40.9813 31.3573 40.9387 31.3763C40.896 31.3952 40.8581 31.4229 40.8275 31.4574C40.6075 31.7024 40.3517 31.6474 40.06 31.2924C39.9483 31.0841 39.97 30.8858 40.125 30.6974C40.1766 30.6346 40.2483 30.5921 40.3275 30.5774C41.59 30.3324 42.2925 30.1374 42.26 28.7574C42.2467 28.2124 41.9567 27.9041 41.39 27.8324L41.945 27.7624C42.0131 27.7543 42.0772 27.7235 42.1275 27.6749C42.5958 27.2349 43.2 27.1633 43.94 27.4599C44.33 27.6166 44.5425 27.4658 44.5775 27.0074Z" fill="#970101" fill-opacity="0.769"/>
<path d="M46.5075 27.1375L46.5775 27.565C46.5847 27.605 46.6058 27.6412 46.6371 27.6672C46.6684 27.6932 46.7079 27.7073 46.7486 27.707C46.7892 27.7067 46.8285 27.692 46.8594 27.6656C46.8903 27.6391 46.9109 27.6026 46.9175 27.5625C46.9425 27.4075 47.0517 27.3216 47.245 27.305C47.8233 27.25 48.3125 27.4025 48.7125 27.7625C48.7702 27.8155 48.8052 27.8881 48.81 27.965L48.9225 29.61C48.6758 29.4866 48.6242 29.7166 48.7675 30.2999C48.7717 30.3171 48.7724 30.3348 48.7698 30.3522C48.7671 30.3695 48.761 30.3862 48.752 30.4011C48.7429 30.416 48.731 30.4288 48.7169 30.4389C48.7028 30.4491 48.6869 30.4562 48.67 30.4599C48.0175 30.6174 47.64 30.595 47.2675 31.3525C47.2592 31.3698 47.247 31.3851 47.2319 31.397C47.2167 31.4089 47.199 31.4172 47.18 31.4213C47.161 31.4254 47.1412 31.4252 47.1222 31.4206C47.1031 31.416 47.0853 31.4073 47.07 31.395C46.89 31.25 46.7458 31.0566 46.6375 30.815L46.5075 27.1375Z" fill="#970101" fill-opacity="0.769"/>
<path d="M148.887 27.2225C148.921 27.1877 148.967 27.1677 149.015 27.1668C149.063 27.1658 149.11 27.1841 149.145 27.2175L149.29 27.36C149.377 27.4449 149.421 27.5665 149.413 27.6981C149.405 27.8298 149.346 27.9608 149.247 28.0625L149.092 28.22C148.994 28.3218 148.864 28.3859 148.733 28.3981C148.601 28.4103 148.478 28.3696 148.39 28.285L148.245 28.1425C148.211 28.1086 148.191 28.0625 148.191 28.0142C148.19 27.966 148.209 27.9195 148.242 27.885L148.887 27.2225Z" fill="#970200" fill-opacity="0.949"/>
<path d="M143.985 28.6991C144.18 28.5557 144.251 28.3224 144.145 28.1779C144.038 28.0334 143.794 28.0325 143.6 28.1759C143.405 28.3193 143.334 28.5527 143.44 28.6971C143.547 28.8416 143.791 28.8425 143.985 28.6991Z" fill="#970200" fill-opacity="0.949"/>
<path d="M31.0767 29.092C31.3301 29.014 31.4967 28.8246 31.4488 28.6689C31.4009 28.5131 31.1566 28.4501 30.9032 28.5281C30.6499 28.606 30.4833 28.7954 30.5312 28.9511C30.5791 29.1069 30.8233 29.1699 31.0767 29.092Z" fill="#B90101" fill-opacity="0.773"/>
<path d="M142.368 29.0037C142.598 28.9335 142.75 28.7663 142.708 28.6303C142.667 28.4943 142.447 28.441 142.217 28.5112C141.987 28.5815 141.835 28.7487 141.876 28.8847C141.918 29.0207 142.138 29.074 142.368 29.0037Z" fill="#970200" fill-opacity="0.949"/>
<path d="M28.803 29.7907C28.9617 29.7481 29.0756 29.6585 29.0574 29.5905C29.0391 29.5225 28.8957 29.5018 28.737 29.5443C28.5783 29.5869 28.4644 29.6765 28.4826 29.7445C28.5009 29.8125 28.6443 29.8332 28.803 29.7907Z" fill="#0D0201" fill-opacity="0.98"/>
<path d="M48.9225 29.61C49.0058 29.8984 49.195 30.0117 49.49 29.95L49.735 34.345C49.7397 34.4297 49.7137 34.5132 49.6618 34.5802C49.6099 34.6472 49.5356 34.6933 49.4525 34.71C48.6925 34.8634 47.9825 35.1467 47.3225 35.56C47.2789 35.5877 47.2288 35.6033 47.1773 35.6056C47.1257 35.6078 47.0745 35.5964 47.0287 35.5726C46.9829 35.5488 46.9442 35.5135 46.9163 35.47C46.8885 35.4266 46.8725 35.3766 46.87 35.325L46.6375 30.815C46.7458 31.0567 46.89 31.25 47.07 31.395C47.0853 31.4074 47.1031 31.4161 47.1222 31.4207C47.1412 31.4253 47.161 31.4255 47.18 31.4214C47.199 31.4173 47.2167 31.409 47.2319 31.3971C47.247 31.3851 47.2592 31.3699 47.2675 31.3525C47.64 30.595 48.0175 30.6175 48.67 30.46C48.6869 30.4563 48.7028 30.4492 48.7169 30.439C48.731 30.4289 48.7429 30.4161 48.752 30.4012C48.761 30.3863 48.7671 30.3696 48.7698 30.3523C48.7724 30.3349 48.7717 30.3172 48.7675 30.3C48.6242 29.7167 48.6758 29.4867 48.9225 29.61Z" fill="#480000" fill-opacity="0.757"/>
<path d="M55.7025 30.39L55.77 30.4775C55.84 30.5708 55.8242 30.6458 55.7225 30.7025C55.6192 30.7608 55.5242 30.6858 55.4375 30.4775C55.4175 30.4291 55.4075 30.3783 55.4075 30.325V30.2575C55.4075 30.2308 55.3983 30.2266 55.38 30.245L55.3125 30.31C55.3037 30.3179 55.2926 30.3228 55.2807 30.3239C55.2689 30.325 55.2571 30.3223 55.247 30.3161C55.2368 30.3099 55.229 30.3006 55.2246 30.2896C55.2202 30.2786 55.2194 30.2664 55.2225 30.255C55.2292 30.2316 55.2367 30.2108 55.245 30.1925C55.3117 30.0458 55.3608 29.9675 55.3925 29.9575C55.6725 29.8675 55.83 29.7125 56.115 29.6975C56.3617 29.6825 56.5767 29.7458 56.76 29.8875C56.7735 29.8979 56.7831 29.9127 56.7871 29.9293C56.7911 29.9459 56.7893 29.9634 56.782 29.9788C56.7747 29.9943 56.7624 30.0068 56.747 30.0143C56.7316 30.0218 56.7142 30.0238 56.6975 30.02C56.2992 29.9333 55.9708 30.0191 55.7125 30.2775C55.6775 30.3125 55.6742 30.35 55.7025 30.39Z" fill="#970101" fill-opacity="0.769"/>
<path d="M134.112 32.8213C135.018 32.7849 135.726 32.0933 135.694 31.2765C135.661 30.4598 134.9 29.8272 133.993 29.8636C133.087 29.9001 132.379 30.5917 132.411 31.4084C132.444 32.2251 133.205 32.8577 134.112 32.8213Z" fill="#4C0000" fill-opacity="0.506"/>
<path d="M137.181 30.5894C137.382 30.6409 137.573 30.571 137.608 30.4332C137.644 30.2955 137.51 30.1421 137.309 30.0906C137.108 30.0391 136.917 30.109 136.882 30.2467C136.846 30.3845 136.98 30.5379 137.181 30.5894Z" fill="#6B0100" fill-opacity="0.761"/>
<path d="M130.16 30.6471C130.349 30.5947 130.476 30.4595 130.445 30.3451C130.413 30.2307 130.234 30.1804 130.045 30.2328C129.856 30.2852 129.729 30.4204 129.76 30.5348C129.792 30.6492 129.971 30.6995 130.16 30.6471Z" fill="#970200" fill-opacity="0.949"/>
<path d="M128.51 30.75L128.73 30.91C128.744 30.9199 128.754 30.9339 128.759 30.9501C128.765 30.9663 128.765 30.9837 128.759 30.9999C128.754 31.016 128.744 31.0301 128.73 31.04C128.716 31.0499 128.699 31.0551 128.682 31.055C128.227 31.055 128.011 30.8266 128.032 30.37C128.034 30.3505 128.04 30.3317 128.049 30.3148C128.059 30.2979 128.072 30.2835 128.088 30.2727C128.104 30.2618 128.122 30.2548 128.141 30.2522C128.16 30.2495 128.179 30.2513 128.197 30.2575C128.336 30.3041 128.41 30.4125 128.42 30.5825C128.423 30.6525 128.453 30.7083 128.51 30.75Z" fill="#0D0201" fill-opacity="0.98"/>
<path d="M50.385 32.47C50.3516 32.1617 50.4708 31.9584 50.7425 31.86C51.5841 31.5584 52.4533 31.2242 53.35 30.8575C53.3925 30.8403 53.4385 30.8331 53.4843 30.8365C53.5301 30.84 53.5745 30.854 53.614 30.8775C53.6534 30.901 53.6869 30.9333 53.7118 30.9719C53.7367 31.0105 53.7524 31.0544 53.7575 31.1L53.905 32.455C53.9416 32.7934 53.8016 33.0234 53.485 33.145L50.7225 34.2125C50.7009 34.221 50.6777 34.2244 50.6546 34.2224C50.6315 34.2204 50.6091 34.2131 50.5891 34.2011C50.5691 34.1891 50.552 34.1726 50.5392 34.1529C50.5263 34.1332 50.5181 34.1109 50.515 34.0875C50.445 33.5525 50.44 33.0075 50.385 32.47Z" fill="#480000" fill-opacity="0.757"/>
<path d="M45.035 32.2624C45.5183 33.0491 45.6592 33.8733 45.4575 34.7349C44.9725 36.7874 42.6325 37.9099 40.6825 38.2374C40.6504 38.2424 40.6177 38.2407 40.5863 38.2325C40.555 38.2243 40.5257 38.2098 40.5003 38.1898C40.475 38.1699 40.4541 38.1449 40.4389 38.1165C40.4238 38.0881 40.4148 38.057 40.4125 38.0249L40.2975 36.3399C40.2897 36.2269 40.3203 36.1147 40.3844 36.0216C40.4484 35.9285 40.5421 35.86 40.65 35.8274C41.325 35.6199 42.395 35.2724 42.645 34.5499C43.2875 32.6924 41.845 32.4424 40.5525 32.9224C40.5028 32.9406 40.4496 32.9468 40.3971 32.9405C40.3445 32.9341 40.2943 32.9154 40.2504 32.8859C40.2065 32.8564 40.1702 32.8169 40.1445 32.7707C40.1188 32.7245 40.1044 32.6728 40.1025 32.6199L40.06 31.2924C40.3517 31.6474 40.6075 31.7024 40.8275 31.4574C40.8581 31.4229 40.896 31.3952 40.9386 31.3763C40.9813 31.3573 41.0278 31.3475 41.075 31.3474L42.4575 31.3399C42.5275 31.3399 42.5958 31.3308 42.6625 31.3124C42.8475 31.2591 43.0292 31.2541 43.2075 31.2974C43.3242 31.3241 43.3458 31.3849 43.2725 31.4799C43.2492 31.5099 43.23 31.5399 43.215 31.5699C43.1883 31.6249 43.2042 31.6649 43.2625 31.6899C43.4108 31.7499 43.4792 31.8616 43.4675 32.0249C43.4629 32.0846 43.472 32.1445 43.4939 32.2001C43.5159 32.2557 43.5502 32.3056 43.5942 32.3461C43.6383 32.3865 43.6909 32.4164 43.7482 32.4336C43.8055 32.4507 43.866 32.4546 43.925 32.4449L45.035 32.2624Z" fill="#6B0100" fill-opacity="0.761"/>
<path d="M136.79 31.935C136.907 31.935 137.003 31.8399 137.003 31.7225C137.003 31.6051 136.907 31.51 136.79 31.51C136.673 31.51 136.578 31.6051 136.578 31.7225C136.578 31.8399 136.673 31.935 136.79 31.935Z" fill="#970200" fill-opacity="0.949"/>
<path d="M128.968 35.1224C128.893 35.2507 128.77 35.344 128.627 35.382C128.483 35.4199 128.331 35.3994 128.203 35.3249L127.588 34.9699C127.332 34.8216 127.153 34.5649 127.09 34.2564C127.027 33.9479 127.086 33.6129 127.253 33.3249L127.275 33.2849C127.442 32.9973 127.703 32.7802 128.002 32.6813C128.3 32.5824 128.612 32.6098 128.867 32.7574L129.483 33.1149C129.546 33.1517 129.602 33.2007 129.647 33.259C129.692 33.3174 129.724 33.3839 129.743 33.455C129.762 33.526 129.767 33.6001 129.758 33.673C129.748 33.7459 129.724 33.8163 129.688 33.8799L128.968 35.1224Z" fill="#4C0000" fill-opacity="0.506"/>
<path d="M126.222 33.1875L126.607 33.11C126.709 33.09 126.734 33.035 126.682 32.945C126.574 32.7617 126.338 32.7225 125.975 32.8275C126.065 32.6325 126.259 32.57 126.557 32.64C126.636 32.6584 126.693 32.7034 126.73 32.775L127.012 33.32C127.044 33.38 127.026 33.4084 126.957 33.405C126.692 33.39 126.447 33.3175 126.222 33.1875Z" fill="#0D0201" fill-opacity="0.98"/>
<path d="M126.223 33.1875C126.114 33.2092 126.027 33.1617 125.96 33.045C125.908 32.955 125.913 32.8825 125.975 32.8275C126.338 32.7225 126.574 32.7617 126.683 32.945C126.734 33.035 126.709 33.09 126.608 33.11L126.223 33.1875Z" fill="#B90101" fill-opacity="0.773"/>
<path d="M65.5325 39.8749C65.0425 39.7016 64.575 39.5574 64.13 39.4424C63.2925 39.2224 60.885 37.9624 61.5175 36.8974C62.2442 35.6791 63.0134 34.4074 63.825 33.0824C63.849 33.0435 63.8866 33.0149 63.9306 33.0024C63.9746 32.9899 64.0217 32.9944 64.0625 33.0149C65.8975 33.9416 67.815 34.1124 69.815 33.5274C69.8349 33.5219 69.856 33.5224 69.8755 33.529C69.8951 33.5356 69.9122 33.5479 69.9246 33.5644C69.9371 33.5809 69.9442 33.6007 69.9452 33.6213C69.9462 33.642 69.9409 33.6624 69.93 33.6799L65.9575 39.7299C65.8525 39.8883 65.7109 39.9366 65.5325 39.8749Z" fill="#970101" fill-opacity="0.769"/>
<path d="M120.506 33.9611C120.524 34.1564 120.642 34.3052 120.77 34.2936C120.898 34.2819 120.987 34.1142 120.969 33.919C120.951 33.7237 120.833 33.5749 120.705 33.5865C120.577 33.5981 120.488 33.7659 120.506 33.9611Z" fill="#B90101" fill-opacity="0.773"/>
<path d="M120.928 36.25C120.954 36.0217 120.777 35.8892 120.395 35.8525L121.263 35.6125C121.307 35.6001 121.349 35.5774 121.383 35.5461C121.417 35.5148 121.444 35.4759 121.46 35.4325C121.56 35.1708 121.743 35.0859 122.01 35.1775C122.079 35.201 122.139 35.2453 122.182 35.3044C122.225 35.3635 122.248 35.4344 122.249 35.5074C122.25 35.5803 122.228 35.6518 122.187 35.7118C122.145 35.7719 122.086 35.8175 122.018 35.8425L120.928 36.25Z" fill="#0D0201" fill-opacity="0.98"/>
<path d="M125.697 35.8072C125.896 35.8766 126.096 35.8177 126.146 35.6756C126.196 35.5336 126.076 35.3622 125.878 35.2928C125.679 35.2235 125.479 35.2824 125.429 35.4244C125.379 35.5665 125.499 35.7378 125.697 35.8072Z" fill="#0D0201" fill-opacity="0.98"/>
<path d="M120.395 35.8525C120.777 35.8892 120.954 36.0217 120.927 36.25C120.344 36.3734 120.167 36.2409 120.395 35.8525Z" fill="#B90101" fill-opacity="0.773"/>
<path d="M119.166 36.7603C119.258 36.6846 119.301 36.5862 119.263 36.5404C119.225 36.4947 119.12 36.519 119.029 36.5946C118.938 36.6703 118.894 36.7688 118.932 36.8145C118.97 36.8603 119.075 36.836 119.166 36.7603Z" fill="#0D0201" fill-opacity="0.98"/>
<path d="M127.61 36.585C127.622 36.7084 127.54 36.8009 127.365 36.8625C127.32 36.8192 127.301 36.7684 127.308 36.71C127.313 36.655 127.339 36.6159 127.387 36.5925C127.449 36.5625 127.523 36.56 127.61 36.585Z" fill="#B90101" fill-opacity="0.773"/>
<path d="M127.61 36.585C127.702 36.5783 127.758 36.5941 127.78 36.6325C127.813 36.6902 127.824 36.7576 127.811 36.8224C127.798 36.8872 127.762 36.9449 127.71 36.985C127.612 37.0616 127.517 37.0708 127.427 37.0125C127.379 36.9825 127.358 36.9325 127.365 36.8625C127.54 36.8008 127.622 36.7083 127.61 36.585Z" fill="#0D0201" fill-opacity="0.98"/>
<path d="M113.435 42.7501C113.435 42.9828 113.343 43.206 113.178 43.3705C113.013 43.5351 112.79 43.6276 112.557 43.6276C112.325 43.6276 112.102 43.5351 111.937 43.3705C111.772 43.206 111.68 42.9828 111.68 42.7501C111.68 42.5173 111.772 42.2941 111.937 42.1296C112.102 41.965 112.325 41.8726 112.557 41.8726C112.79 41.8726 113.013 41.965 113.178 42.1296C113.343 42.2941 113.435 42.5173 113.435 42.7501ZM112.562 43.1753C112.602 43.1713 112.64 43.1559 112.675 43.1302C112.709 43.1045 112.739 43.0688 112.764 43.0253C112.788 42.9818 112.805 42.9313 112.815 42.8766C112.825 42.8219 112.827 42.7642 112.821 42.7067C112.815 42.6492 112.801 42.5931 112.781 42.5416C112.76 42.49 112.733 42.444 112.701 42.4062C112.668 42.3684 112.632 42.3396 112.593 42.3213C112.553 42.3031 112.513 42.2958 112.473 42.2998C112.433 42.3039 112.395 42.3192 112.36 42.3449C112.326 42.3707 112.296 42.4063 112.271 42.4498C112.247 42.4933 112.23 42.5439 112.22 42.5985C112.21 42.6532 112.208 42.7109 112.214 42.7684C112.22 42.8259 112.234 42.882 112.254 42.9336C112.275 42.9851 112.302 43.0311 112.334 43.0689C112.367 43.1067 112.403 43.1355 112.442 43.1538C112.482 43.172 112.522 43.1794 112.562 43.1753Z" fill="#970200" fill-opacity="0.949"/>
<path d="M108.295 43.263C108.193 43.5549 108.302 43.8585 108.537 43.9411C108.773 44.0237 109.047 43.854 109.15 43.5621C109.252 43.2702 109.143 42.9666 108.908 42.884C108.672 42.8014 108.398 42.9711 108.295 43.263Z" fill="#970200" fill-opacity="0.949"/>
</svg>
