<svg width="16" height="16" viewBox="0 0 16 16" fill="none" xmlns="http://www.w3.org/2000/svg">
<path d="M14.5306 5.03057L6.53063 13.0306C6.46095 13.1005 6.37816 13.156 6.28699 13.1938C6.19583 13.2317 6.09809 13.2512 5.99938 13.2512C5.90067 13.2512 5.80293 13.2317 5.71176 13.1938C5.6206 13.156 5.53781 13.1005 5.46813 13.0306L1.96813 9.53057C1.89836 9.4608 1.84302 9.37798 1.80527 9.28683C1.76751 9.19568 1.74808 9.09798 1.74808 8.99932C1.74808 8.90066 1.76751 8.80296 1.80527 8.71181C1.84302 8.62066 1.89836 8.53783 1.96813 8.46807C2.03789 8.3983 2.12072 8.34296 2.21187 8.30521C2.30302 8.26745 2.40072 8.24802 2.49938 8.24802C2.59804 8.24802 2.69574 8.26745 2.78689 8.30521C2.87804 8.34296 2.96086 8.3983 3.03063 8.46807L6 11.4374L13.4694 3.96932C13.6103 3.82842 13.8014 3.74927 14.0006 3.74927C14.1999 3.74927 14.391 3.82842 14.5319 3.96932C14.6728 4.11021 14.7519 4.30131 14.7519 4.50057C14.7519 4.69983 14.6728 4.89092 14.5319 5.03182L14.5306 5.03057Z" fill="#245DF4"/>
</svg>
