<svg width="166" height="58" viewBox="0 0 166 58" fill="none" xmlns="http://www.w3.org/2000/svg">
<path d="M20.9375 18.265C16.095 20.0525 13.4575 24.485 14.2 29.66" stroke="#9A9998" stroke-width="2"/>
<path d="M14.2 29.66C14.7783 33.8167 16.8425 36.7133 20.3925 38.35C28.3625 42.025 37.205 35.49 35.93 26.9125C35.5225 24.17 34.215 21.6325 32.0625 19.9275C28.7242 17.2858 25.0158 16.7317 20.9375 18.265" stroke="#8F731F" stroke-width="2"/>
<path d="M14.2 29.66C15.1333 33.09 17.0892 35.4508 20.0675 36.7425C21.3458 37.2958 22.7075 37.5483 24.1525 37.5C32.4875 37.215 36.7875 27.25 31.09 21.075C28.52 18.29 25.1358 17.3533 20.9375 18.265" stroke="#F4D987" stroke-width="2"/>
<path d="M24.0075 20.8575C22.97 20.8025 19.81 20.595 19.075 21.2C18.0816 22.0234 17.0933 22.8267 16.11 23.61C15.9316 23.7515 15.8071 23.9499 15.757 24.1723C15.707 24.3946 15.7345 24.6276 15.835 24.8325C16.36 25.9075 16.8866 27.0559 17.415 28.2775C17.9925 29.6125 18.8825 29.46 20.0825 29.7925C20.1144 29.8013 20.1442 29.8162 20.1703 29.8364C20.1964 29.8567 20.2183 29.8818 20.2345 29.9104C20.2508 29.939 20.2612 29.9705 20.2652 30.003C20.2691 30.0356 20.2665 30.0686 20.2575 30.1C20.0108 31 20.2216 31.775 20.89 32.425C21.8716 33.3817 22.8858 34.3875 23.9325 35.4425C24.0272 35.5379 24.1467 35.6048 24.2775 35.6357C24.4083 35.6666 24.5451 35.6603 24.6725 35.6175C26.1225 35.1325 27.5608 34.6175 28.9875 34.0725C29.685 33.805 29.805 33.5825 30.0275 32.9125C30.5808 31.2459 31.0816 29.5834 31.53 27.925C31.5728 27.7697 31.5643 27.6046 31.5058 27.4543C31.4472 27.3039 31.3418 27.1762 31.205 27.09C29.9483 26.2934 28.685 25.5067 27.415 24.73C26.8716 24.3984 26.3408 24.3042 25.8225 24.4475C25.7732 24.4609 25.7218 24.4644 25.6712 24.4579C25.6206 24.4514 25.5718 24.435 25.5277 24.4097C25.4836 24.3843 25.4449 24.3506 25.414 24.3103C25.3831 24.2701 25.3605 24.2241 25.3475 24.175L24.6 21.34C24.5645 21.2076 24.4881 21.0896 24.3817 21.003C24.2754 20.9164 24.1444 20.8655 24.0075 20.8575Z" stroke="#F4D987" stroke-width="2"/>
<path d="M23.6825 21.73C23.7725 21.6634 23.8033 21.5759 23.775 21.4675C23.7619 21.4185 23.7333 21.3751 23.6936 21.344C23.6539 21.3128 23.6052 21.2956 23.555 21.295C22.5825 21.275 19.9225 21.0925 19.185 21.695C18.2966 22.4217 17.4083 23.1342 16.52 23.8325C16.487 23.8581 16.4627 23.8931 16.4505 23.9329C16.4382 23.9728 16.4385 24.0154 16.4513 24.0551C16.4642 24.0947 16.489 24.1294 16.5223 24.1545C16.5556 24.1795 16.5958 24.1937 16.6375 24.195L20.79 24.3425C20.8447 24.3441 20.8974 24.3253 20.9375 24.29C21.8375 23.5117 22.6983 22.7009 23.52 21.8575C23.5366 21.8409 23.5908 21.7984 23.6825 21.73Z" stroke="#8F731F" stroke-width="2"/>
<path d="M23.7525 22.045C22.9142 22.7267 22.1367 23.4708 21.42 24.2775C21.245 24.475 21.195 24.7575 21.32 24.975C21.3387 25.0066 21.366 25.0322 21.3988 25.0487C21.4316 25.0653 21.4684 25.0721 21.5049 25.0684C21.5414 25.0648 21.5761 25.0507 21.605 25.028C21.6338 25.0052 21.6555 24.9747 21.6675 24.94C21.7358 24.73 21.8692 24.5742 22.0675 24.4725C22.1075 24.4525 22.153 24.4464 22.1968 24.455C22.2407 24.4636 22.2805 24.4864 22.31 24.52L22.535 24.7775C22.5917 24.8442 22.6633 24.8717 22.75 24.86L24.995 24.5925C25.06 24.5842 25.0833 24.5492 25.065 24.4875L24.3725 22.0875C24.3659 22.066 24.3549 22.0456 24.34 22.0275C24.115 21.7592 23.9592 21.7133 23.8725 21.89C23.8442 21.95 23.8042 22.0017 23.7525 22.045Z" stroke="#8F731F" stroke-width="2"/>
<path d="M16.665 24.4225C16.5683 24.3941 16.4783 24.3966 16.395 24.43C16.3693 24.4399 16.3459 24.4549 16.3262 24.4741C16.3064 24.4933 16.2908 24.5162 16.2803 24.5415C16.2698 24.5667 16.2645 24.5938 16.2649 24.6211C16.2653 24.6484 16.2713 24.6752 16.2825 24.7L17.9225 28.385C17.9856 28.5266 18.0801 28.6519 18.1989 28.7511C18.3176 28.8504 18.4574 28.921 18.6075 28.9575L20.205 29.35C20.2967 29.3716 20.3517 29.3366 20.37 29.245C20.5833 28.165 20.785 27.0758 20.975 25.9775C21.05 25.5508 21.0325 25.2308 20.9225 25.0175C20.4625 24.13 17.565 24.685 16.665 24.4225Z" stroke="#8F731F" stroke-width="2"/>
<path d="M22.25 25.31C22.1567 25.32 22.09 25.3667 22.05 25.45C21.935 25.6917 21.9867 25.89 22.205 26.045C23.35 26.8567 24.4592 27.6358 25.5325 28.3825C25.6584 28.4695 25.8002 28.5305 25.9496 28.5619C26.099 28.5932 26.253 28.5943 26.4025 28.565L30.295 27.8025C30.357 27.7901 30.4145 27.7613 30.4615 27.719C30.5086 27.6768 30.5433 27.6226 30.5623 27.5623C30.5812 27.502 30.5835 27.4377 30.569 27.3761C30.5546 27.3146 30.5238 27.2581 30.48 27.2125C30.3683 27.0975 30.2142 26.9817 30.0175 26.865C29.0142 26.2683 28.0792 25.6808 27.2125 25.1025C26.9348 24.9168 26.6004 24.8345 26.2675 24.87L22.25 25.31Z" stroke="#8F731F" stroke-width="2"/>
<path d="M21.35 26.0925C20.985 27.395 20.82 28.85 20.5975 30.1925C20.495 30.82 20.53 31.43 20.9525 31.86C21.9225 32.845 22.9033 33.8 23.895 34.725C23.9286 34.7565 23.97 34.7786 24.0149 34.789C24.0598 34.7994 24.1066 34.7978 24.1507 34.7844C24.1948 34.771 24.2346 34.7462 24.2661 34.7125C24.2975 34.6788 24.3196 34.6374 24.33 34.5925L25.545 29.4275C25.5856 29.2518 25.5728 29.068 25.5082 28.8996C25.4436 28.7312 25.3302 28.586 25.1825 28.4825L21.625 25.9925C21.6018 25.976 21.5749 25.9653 21.5466 25.9615C21.5183 25.9577 21.4894 25.9609 21.4625 25.9707C21.4355 25.9805 21.4112 25.9967 21.3916 26.0179C21.372 26.0391 21.3577 26.0647 21.35 26.0925Z" stroke="#8F731F" stroke-width="2"/>
<path d="M30.8675 28.4475C30.9491 28.1658 30.8458 28.0508 30.5575 28.1025C29.4358 28.3008 28.25 28.5375 27 28.8125C26.3175 28.9625 26.0775 29.0875 25.9025 29.815C25.5025 31.4766 25.1016 33.115 24.7 34.73C24.6924 34.7593 24.6927 34.7901 24.701 34.8192C24.7093 34.8484 24.7253 34.8748 24.7472 34.8957C24.7691 34.9166 24.7962 34.9312 24.8257 34.9381C24.8552 34.945 24.886 34.944 24.915 34.935C26.2383 34.5333 27.55 34.0625 28.85 33.5225C29.505 33.25 29.4875 32.8725 29.68 32.295C30.06 31.1583 30.4558 29.8758 30.8675 28.4475Z" stroke="#8F731F" stroke-width="2"/>
<path d="M20.7754 22.4317C20.7356 22.3486 20.6373 22.2977 20.5022 22.2902C20.367 22.2826 20.2061 22.3191 20.0549 22.3916C19.9036 22.4641 19.7743 22.5666 19.6955 22.6766C19.6167 22.7867 19.5948 22.8952 19.6346 22.9783C19.6744 23.0614 19.7727 23.1123 19.9079 23.1198C20.043 23.1273 20.2039 23.0908 20.3552 23.0184C20.5064 22.9459 20.6357 22.8433 20.7145 22.7333C20.7933 22.6233 20.8152 22.5148 20.7754 22.4317Z" stroke="#9A9998" stroke-width="2"/>
<path d="M24.0025 23.9263C24.1248 23.9023 24.23 23.8175 24.295 23.6906C24.3599 23.5637 24.3792 23.405 24.3487 23.2495C24.3182 23.094 24.2403 22.9544 24.1323 22.8614C24.0242 22.7684 23.8948 22.7297 23.7725 22.7536C23.6502 22.7776 23.545 22.8624 23.48 22.9894C23.4151 23.1163 23.3958 23.2749 23.4263 23.4304C23.4568 23.5859 23.5347 23.7255 23.6427 23.8185C23.7508 23.9115 23.8802 23.9503 24.0025 23.9263Z" stroke="#9A9998" stroke-width="2"/>
<path d="M20.3916 26.2614C20.4693 26.1941 20.5046 26.0844 20.4899 25.9564C20.4751 25.8284 20.4114 25.6925 20.3129 25.5788C20.2641 25.5224 20.2082 25.4732 20.1484 25.4339C20.0886 25.3946 20.0261 25.366 19.9644 25.3498C19.9027 25.3335 19.843 25.3299 19.7888 25.3391C19.7346 25.3483 19.6869 25.3702 19.6484 25.4035C19.5708 25.4708 19.5354 25.5805 19.5502 25.7086C19.5649 25.8366 19.6286 25.9724 19.7271 26.0862C19.7759 26.1425 19.8318 26.1917 19.8916 26.231C19.9514 26.2703 20.0139 26.2989 20.0756 26.3152C20.1373 26.3315 20.197 26.3351 20.2512 26.3259C20.3054 26.3166 20.3531 26.2947 20.3916 26.2614Z" stroke="#9A9998" stroke-width="2"/>
<path d="M19.1297 28.519C19.1677 28.4847 19.1951 28.4395 19.2105 28.3859C19.2259 28.3324 19.229 28.2716 19.2194 28.207C19.2099 28.1424 19.1879 28.0753 19.1549 28.0095C19.1219 27.9437 19.0783 27.8805 19.0268 27.8235C18.9753 27.7665 18.9168 27.7168 18.8547 27.6773C18.7926 27.6378 18.728 27.6092 18.6647 27.5932C18.6015 27.5771 18.5407 27.574 18.4859 27.5839C18.431 27.5938 18.3833 27.6166 18.3453 27.6509C18.3073 27.6853 18.2798 27.7305 18.2644 27.784C18.249 27.8376 18.246 27.8984 18.2555 27.9629C18.2651 28.0275 18.287 28.0946 18.32 28.1604C18.3531 28.2262 18.3966 28.2894 18.4481 28.3464C18.4996 28.4035 18.5581 28.4531 18.6202 28.4927C18.6823 28.5322 18.7469 28.5608 18.8102 28.5768C18.8735 28.5928 18.9343 28.596 18.9891 28.586C19.0439 28.5761 19.0917 28.5534 19.1297 28.519Z" stroke="#9A9998" stroke-width="2"/>
<path d="M27.2045 25.786C27.2114 25.7396 27.1991 25.6908 27.1686 25.6424C27.138 25.5941 27.0897 25.5471 27.0263 25.5042C26.9629 25.4613 26.8858 25.4232 26.7993 25.3923C26.7128 25.3614 26.6187 25.3381 26.5222 25.3239C26.3274 25.2951 26.135 25.3048 25.9875 25.3508C25.84 25.3967 25.7493 25.4753 25.7354 25.5691C25.7286 25.6155 25.7408 25.6643 25.7714 25.7127C25.8019 25.761 25.8503 25.808 25.9136 25.8509C25.977 25.8938 26.0541 25.9319 26.1406 25.9628C26.2271 25.9937 26.3213 26.017 26.4177 26.0312C26.6125 26.06 26.8049 26.0503 26.9524 26.0043C27.1 25.9584 27.1906 25.8798 27.2045 25.786Z" stroke="#9A9998" stroke-width="2"/>
<path d="M24.3882 26.0008C24.3945 25.954 24.3815 25.905 24.3499 25.8566C24.3183 25.8083 24.2687 25.7615 24.2039 25.7191C24.1391 25.6766 24.0605 25.6392 23.9724 25.609C23.8844 25.5788 23.7886 25.5565 23.6907 25.5433C23.4929 25.5165 23.2982 25.5285 23.1493 25.5765C23.0004 25.6245 22.9096 25.7046 22.8968 25.7992C22.8904 25.846 22.9034 25.895 22.9351 25.9434C22.9667 25.9917 23.0163 26.0385 23.0811 26.081C23.1458 26.1235 23.2245 26.1609 23.3126 26.191C23.4006 26.2212 23.4963 26.2435 23.5943 26.2568C23.792 26.2835 23.9868 26.2716 24.1357 26.2236C24.2846 26.1756 24.3754 26.0955 24.3882 26.0008Z" stroke="#9A9998" stroke-width="2"/>
<path d="M27.0241 26.6468C27.0391 26.5492 26.9782 26.444 26.8548 26.3544C26.7314 26.2649 26.5557 26.1983 26.3663 26.1693C26.2725 26.155 26.1782 26.1503 26.0887 26.1555C25.9992 26.1608 25.9163 26.1759 25.8448 26.1999C25.7732 26.2239 25.7144 26.2565 25.6717 26.2957C25.629 26.3349 25.6032 26.3799 25.5958 26.4283C25.5808 26.5259 25.6418 26.6311 25.7651 26.7206C25.8885 26.8102 26.0642 26.8768 26.2536 26.9058C26.3474 26.9201 26.4417 26.9248 26.5312 26.9196C26.6207 26.9143 26.7036 26.8992 26.7751 26.8752C26.8467 26.8511 26.9055 26.8186 26.9482 26.7794C26.9909 26.7402 27.0167 26.6952 27.0241 26.6468Z" stroke="#9A9998" stroke-width="2"/>
<path d="M29.7855 27.3423C29.7945 27.2932 29.7845 27.2411 29.7561 27.1891C29.7278 27.1371 29.6817 27.0862 29.6204 27.0391C29.5591 26.9921 29.4838 26.95 29.3989 26.9152C29.314 26.8803 29.221 26.8535 29.1254 26.8361C28.9323 26.801 28.74 26.8067 28.5907 26.852C28.4414 26.8973 28.3474 26.9785 28.3294 27.0776C28.3205 27.1267 28.3305 27.1788 28.3588 27.2308C28.3872 27.2828 28.4333 27.3338 28.4946 27.3808C28.5559 27.4278 28.6311 27.4699 28.7161 27.5047C28.801 27.5396 28.8939 27.5665 28.9895 27.5838C29.1826 27.6189 29.375 27.6132 29.5242 27.5679C29.6735 27.5226 29.7675 27.4414 29.7855 27.3423Z" stroke="#9A9998" stroke-width="2"/>
<path d="M26.8871 27.5913C26.8928 27.5444 26.8794 27.4956 26.8478 27.4478C26.8161 27.4 26.7668 27.354 26.7025 27.3126C26.6383 27.2711 26.5605 27.235 26.4736 27.2063C26.3866 27.1775 26.2922 27.1567 26.1957 27.145C26.0993 27.1334 26.0026 27.1311 25.9113 27.1382C25.82 27.1454 25.7358 27.1619 25.6636 27.1869C25.5914 27.2118 25.5325 27.2446 25.4903 27.2835C25.4481 27.3224 25.4235 27.3666 25.4178 27.4135C25.4122 27.4605 25.4255 27.5093 25.4572 27.5571C25.4889 27.6049 25.5382 27.6509 25.6024 27.6923C25.6666 27.7337 25.7444 27.7699 25.8314 27.7986C25.9183 27.8274 26.0128 27.8482 26.1092 27.8598C26.2057 27.8715 26.3024 27.8738 26.3937 27.8667C26.485 27.8595 26.5692 27.843 26.6414 27.818C26.7136 27.7931 26.7725 27.7602 26.8147 27.7214C26.8568 27.6825 26.8815 27.6383 26.8871 27.5913Z" stroke="#9A9998" stroke-width="2"/>
<path d="M22.0244 28.3596C22.1483 28.355 22.2645 28.2807 22.3475 28.1528C22.4306 28.025 22.4736 27.8542 22.4671 27.6779C22.4607 27.5017 22.4053 27.3344 22.3131 27.213C22.2209 27.0916 22.0995 27.026 21.9756 27.0305C21.8517 27.035 21.7354 27.1094 21.6524 27.2373C21.5694 27.3651 21.5263 27.5359 21.5328 27.7122C21.5393 27.8884 21.5947 28.0556 21.6869 28.1771C21.779 28.2985 21.9004 28.3641 22.0244 28.3596Z" stroke="#9A9998" stroke-width="2"/>
<path d="M24.2664 30.0669C24.3849 30.0619 24.4956 29.9845 24.574 29.8517C24.6525 29.7189 24.6922 29.5416 24.6846 29.3588C24.6769 29.1759 24.6224 29.0026 24.5332 28.8768C24.4439 28.751 24.3271 28.6832 24.2086 28.6881C24.09 28.6931 23.9793 28.7705 23.9009 28.9033C23.8225 29.0361 23.7827 29.2134 23.7904 29.3963C23.798 29.5791 23.8525 29.7525 23.9417 29.8783C24.031 30.004 24.1478 30.0719 24.2664 30.0669Z" stroke="#9A9998" stroke-width="2"/>
<path d="M21.7732 30.012C21.8329 30.0097 21.8914 29.9901 21.9453 29.9543C21.9991 29.9185 22.0474 29.8673 22.0872 29.8035C22.127 29.7397 22.1577 29.6646 22.1774 29.5825C22.1972 29.5004 22.2056 29.4129 22.2022 29.325C22.1988 29.2371 22.1837 29.1505 22.1577 29.0701C22.1318 28.9898 22.0954 28.9172 22.0508 28.8567C22.0062 28.7961 21.9542 28.7488 21.8977 28.7172C21.8413 28.6857 21.7815 28.6707 21.7218 28.673C21.6621 28.6753 21.6036 28.6948 21.5498 28.7306C21.4959 28.7664 21.4477 28.8176 21.4078 28.8814C21.368 28.9452 21.3373 29.0203 21.3176 29.1024C21.2979 29.1845 21.2895 29.272 21.2928 29.3599C21.2962 29.4479 21.3113 29.5345 21.3373 29.6148C21.3633 29.6952 21.3996 29.7677 21.4442 29.8282C21.4888 29.8888 21.5408 29.9362 21.5973 29.9677C21.6537 29.9992 21.7135 30.0143 21.7732 30.012Z" stroke="#9A9998" stroke-width="2"/>
<path d="M21.5025 31.5897C21.6264 31.5855 21.7429 31.5103 21.8263 31.3804C21.9097 31.2505 21.9532 31.0766 21.9472 30.897C21.9443 30.8081 21.9293 30.7205 21.9031 30.6391C21.8769 30.5577 21.84 30.4842 21.7945 30.4228C21.749 30.3613 21.6959 30.3132 21.638 30.281C21.5802 30.2489 21.5189 30.2334 21.4575 30.2354C21.3336 30.2395 21.2171 30.3148 21.1337 30.4447C21.0503 30.5746 21.0068 30.7484 21.0127 30.928C21.0157 31.017 21.0307 31.1046 21.0569 31.186C21.0831 31.2674 21.12 31.3409 21.1655 31.4023C21.211 31.4637 21.2641 31.5119 21.3219 31.5441C21.3798 31.5762 21.4411 31.5917 21.5025 31.5897Z" stroke="#9A9998" stroke-width="2"/>
<path d="M23.9453 31.8348C24.0073 31.8331 24.0683 31.8139 24.1247 31.7783C24.1811 31.7426 24.2318 31.6912 24.274 31.6269C24.3163 31.5626 24.3491 31.4868 24.3707 31.4037C24.3922 31.3206 24.4021 31.2319 24.3998 31.1426C24.3975 31.0533 24.3829 30.9653 24.357 30.8834C24.3311 30.8016 24.2944 30.7275 24.2489 30.6656C24.2034 30.6036 24.15 30.5549 24.0918 30.5222C24.0336 30.4896 23.9717 30.4736 23.9097 30.4752C23.8476 30.4768 23.7867 30.496 23.7303 30.5317C23.6738 30.5673 23.6231 30.6188 23.5809 30.6831C23.5387 30.7473 23.5058 30.8232 23.4842 30.9063C23.4627 30.9894 23.4528 31.0781 23.4551 31.1674C23.4574 31.2566 23.472 31.3447 23.4979 31.4266C23.5238 31.5084 23.5605 31.5824 23.606 31.6444C23.6516 31.7064 23.7049 31.7551 23.7631 31.7878C23.8213 31.8204 23.8832 31.8364 23.9453 31.8348Z" stroke="#9A9998" stroke-width="2"/>
<path d="M23.6151 33.562C23.6745 33.5599 23.7326 33.54 23.7862 33.5036C23.8398 33.4672 23.8878 33.4149 23.9275 33.3498C23.9671 33.2847 23.9977 33.208 24.0174 33.1242C24.037 33.0403 24.0455 32.9508 24.0422 32.8609C24.0389 32.771 24.0239 32.6824 23.9982 32.6002C23.9724 32.518 23.9363 32.4438 23.892 32.3817C23.8477 32.3197 23.796 32.2711 23.7398 32.2387C23.6837 32.2063 23.6243 32.1908 23.5649 32.1929C23.5055 32.1951 23.4473 32.215 23.3937 32.2514C23.3401 32.2878 23.2921 32.3401 23.2525 32.4052C23.2128 32.4703 23.1823 32.547 23.1626 32.6308C23.1429 32.7147 23.1345 32.8042 23.1378 32.8941C23.1411 32.984 23.156 33.0726 23.1818 33.1548C23.2076 33.237 23.2437 33.3112 23.288 33.3733C23.3323 33.4353 23.384 33.4839 23.4401 33.5163C23.4962 33.5487 23.5557 33.5642 23.6151 33.562Z" stroke="#9A9998" stroke-width="2"/>
<path d="M29.2493 30.0298C29.3055 30.0617 29.3703 30.0774 29.4398 30.0759C29.5094 30.0744 29.5824 30.0557 29.6548 30.021C29.7271 29.9863 29.7973 29.9361 29.8614 29.8735C29.9254 29.8108 29.9821 29.7368 30.0282 29.6557C30.0742 29.5747 30.1088 29.4881 30.1298 29.401C30.1508 29.3138 30.1579 29.2279 30.1507 29.1479C30.1435 29.068 30.1222 28.9957 30.0878 28.9352C30.0535 28.8747 30.0069 28.827 29.9507 28.7951C29.8944 28.7632 29.8297 28.7475 29.7601 28.749C29.6905 28.7505 29.6175 28.7692 29.5451 28.8039C29.4728 28.8386 29.4026 28.8888 29.3385 28.9514C29.2745 29.0141 29.2178 29.0881 29.1717 29.1692C29.1257 29.2503 29.0911 29.3368 29.0701 29.4239C29.0491 29.5111 29.042 29.597 29.0492 29.677C29.0564 29.7569 29.0777 29.8292 29.1121 29.8897C29.1464 29.9503 29.193 29.9979 29.2493 30.0298Z" stroke="#9A9998" stroke-width="2"/>
<path d="M26.4864 30.7223C26.6015 30.7909 26.7501 30.7924 26.8996 30.7266C27.0491 30.6607 27.1873 30.5328 27.2837 30.3711C27.3802 30.2093 27.4269 30.027 27.4138 29.8641C27.4006 29.7012 27.3286 29.5712 27.2135 29.5026C27.0985 29.434 26.9498 29.4325 26.8003 29.4984C26.6508 29.5643 26.5126 29.6922 26.4162 29.8539C26.3198 30.0156 26.273 30.198 26.2862 30.3609C26.2994 30.5237 26.3714 30.6537 26.4864 30.7223Z" stroke="#9A9998" stroke-width="2"/>
<path d="M28.3426 33.0931C28.4569 33.169 28.6074 33.1805 28.7608 33.1248C28.9143 33.0692 29.0583 32.9511 29.161 32.7964C29.2637 32.6418 29.3169 32.4633 29.3087 32.3003C29.3005 32.1372 29.2317 32.003 29.1173 31.927C29.003 31.8511 28.8526 31.8396 28.6991 31.8953C28.5456 31.9509 28.4017 32.069 28.2989 32.2237C28.1962 32.3783 28.1431 32.5568 28.1513 32.7198C28.1595 32.8829 28.2283 33.0171 28.3426 33.0931Z" stroke="#9A9998" stroke-width="2"/>
<path d="M25.7284 33.9178C25.7861 33.9498 25.8522 33.9653 25.9229 33.9635C25.9937 33.9616 26.0677 33.9424 26.1407 33.9069C26.2137 33.8715 26.2843 33.8205 26.3484 33.7569C26.4125 33.6932 26.469 33.6182 26.5145 33.5361C26.56 33.454 26.5937 33.3664 26.6137 33.2782C26.6337 33.1901 26.6395 33.1032 26.6309 33.0226C26.6223 32.9419 26.5994 32.8689 26.5635 32.808C26.5276 32.747 26.4794 32.6991 26.4217 32.6671C26.3639 32.6351 26.2978 32.6196 26.2271 32.6215C26.1563 32.6234 26.0824 32.6426 26.0094 32.678C25.9364 32.7135 25.8658 32.7644 25.8016 32.8281C25.7375 32.8917 25.681 32.9667 25.6355 33.0488C25.59 33.131 25.5563 33.2186 25.5363 33.3067C25.5163 33.3948 25.5105 33.4817 25.5191 33.5624C25.5277 33.6431 25.5507 33.716 25.5866 33.777C25.6225 33.838 25.6706 33.8858 25.7284 33.9178Z" stroke="#9A9998" stroke-width="2"/>
<path d="M14.875 22.3475C17.73 17.61 23.5925 15.26 28.89 16.58C41.66 19.7625 42.06 37.7025 29.37 41.4825C28.6183 41.7058 27.735 41.8233 26.72 41.835C25.455 41.85 24.135 41.9225 22.94 41.645C14.33 39.655 10.3475 29.8525 14.875 22.3475ZM20.9375 18.265C16.095 20.0525 13.4575 24.485 14.2 29.66C14.7783 33.8166 16.8425 36.7133 20.3925 38.35C28.3625 42.025 37.205 35.49 35.93 26.9125C35.5225 24.17 34.215 21.6325 32.0625 19.9275C28.7242 17.2858 25.0158 16.7316 20.9375 18.265Z" fill="#353330"/>
<path d="M14.2 29.66C15.1333 33.09 17.0892 35.4508 20.0675 36.7425C21.3458 37.2958 22.7075 37.5483 24.1525 37.5C32.4875 37.215 36.7875 27.25 31.09 21.075C28.52 18.29 25.1358 17.3533 20.9375 18.265C25.0158 16.7317 28.7242 17.2858 32.0625 19.9275C34.215 21.6325 35.5225 24.17 35.93 26.9125C37.205 35.49 28.3625 42.025 20.3925 38.35C16.8425 36.7133 14.7783 33.8167 14.2 29.66Z" fill="#E9B20E"/>
<path d="M14.2 29.66C13.4575 24.485 16.095 20.0525 20.9375 18.265C25.1358 17.3533 28.52 18.29 31.09 21.075C36.7875 27.25 32.4875 37.215 24.1525 37.5C22.7075 37.5483 21.3458 37.2958 20.0675 36.7425C17.0892 35.4508 15.1333 33.09 14.2 29.66ZM24.0075 20.8575C22.97 20.8025 19.81 20.595 19.075 21.2C18.0817 22.0233 17.0933 22.8267 16.11 23.61C15.9316 23.7514 15.8071 23.9498 15.757 24.1722C15.707 24.3946 15.7345 24.6276 15.835 24.8325C16.36 25.9075 16.8867 27.0558 17.415 28.2775C17.9925 29.6125 18.8825 29.46 20.0825 29.7925C20.1144 29.8012 20.1442 29.8161 20.1704 29.8364C20.1965 29.8566 20.2183 29.8817 20.2346 29.9103C20.2508 29.9389 20.2612 29.9704 20.2652 30.003C20.2691 30.0355 20.2665 30.0685 20.2575 30.1C20.0108 31 20.2217 31.775 20.89 32.425C21.8717 33.3817 22.8858 34.3875 23.9325 35.4425C24.0272 35.5378 24.1467 35.6047 24.2775 35.6356C24.4083 35.6666 24.5451 35.6603 24.6725 35.6175C26.1225 35.1325 27.5608 34.6175 28.9875 34.0725C29.685 33.805 29.805 33.5825 30.0275 32.9125C30.5808 31.2458 31.0817 29.5833 31.53 27.925C31.5728 27.7697 31.5643 27.6046 31.5058 27.4542C31.4472 27.3038 31.3418 27.1761 31.205 27.09C29.9483 26.2933 28.685 25.5067 27.415 24.73C26.8717 24.3983 26.3408 24.3042 25.8225 24.4475C25.7732 24.4608 25.7218 24.4643 25.6712 24.4578C25.6206 24.4513 25.5718 24.4349 25.5277 24.4096C25.4836 24.3843 25.4449 24.3505 25.414 24.3103C25.3831 24.27 25.3605 24.224 25.3475 24.175L24.6 21.34C24.5645 21.2075 24.4881 21.0896 24.3818 21.0029C24.2754 20.9163 24.1444 20.8654 24.0075 20.8575Z" fill="white"/>
<path d="M19.075 21.2C19.81 20.595 22.97 20.8025 24.0075 20.8575C24.1444 20.8655 24.2754 20.9164 24.3817 21.003C24.4881 21.0896 24.5645 21.2076 24.6 21.34L25.3475 24.175C25.3605 24.2241 25.3831 24.2701 25.414 24.3103C25.4449 24.3506 25.4836 24.3843 25.5277 24.4097C25.5718 24.435 25.6206 24.4514 25.6712 24.4579C25.7218 24.4644 25.7732 24.4609 25.8225 24.4475C26.3408 24.3042 26.8716 24.3984 27.415 24.73C28.685 25.5067 29.9483 26.2934 31.205 27.09C31.3418 27.1762 31.4472 27.3039 31.5058 27.4543C31.5643 27.6046 31.5728 27.7697 31.53 27.925C31.0816 29.5834 30.5808 31.2459 30.0275 32.9125C29.805 33.5825 29.685 33.805 28.9875 34.0725C27.5608 34.6175 26.1225 35.1325 24.6725 35.6175C24.5451 35.6603 24.4083 35.6666 24.2775 35.6357C24.1467 35.6048 24.0272 35.5379 23.9325 35.4425C22.8858 34.3875 21.8716 33.3817 20.89 32.425C20.2216 31.775 20.0108 31 20.2575 30.1C20.2665 30.0686 20.2691 30.0356 20.2652 30.003C20.2612 29.9705 20.2508 29.939 20.2345 29.9104C20.2183 29.8818 20.1964 29.8567 20.1703 29.8364C20.1442 29.8162 20.1144 29.8013 20.0825 29.7925C18.8825 29.46 17.9925 29.6125 17.415 28.2775C16.8866 27.0559 16.36 25.9075 15.835 24.8325C15.7345 24.6276 15.707 24.3946 15.757 24.1723C15.8071 23.9499 15.9316 23.7515 16.11 23.61C17.0933 22.8267 18.0816 22.0234 19.075 21.2ZM23.6825 21.73C23.7725 21.6634 23.8033 21.5759 23.775 21.4675C23.7619 21.4185 23.7333 21.3751 23.6936 21.344C23.6539 21.3128 23.6052 21.2956 23.555 21.295C22.5825 21.275 19.9225 21.0925 19.185 21.695C18.2966 22.4217 17.4083 23.1342 16.52 23.8325C16.487 23.8581 16.4627 23.8931 16.4505 23.933C16.4382 23.9728 16.4385 24.0154 16.4513 24.0551C16.4642 24.0947 16.489 24.1295 16.5223 24.1545C16.5556 24.1796 16.5958 24.1937 16.6375 24.195L20.79 24.3425C20.8447 24.3441 20.8974 24.3253 20.9375 24.2901C21.8375 23.5117 22.6983 22.7009 23.52 21.8575C23.5366 21.8409 23.5908 21.7984 23.6825 21.73ZM23.7525 22.045C22.9141 22.7267 22.1366 23.4709 21.42 24.2775C21.245 24.475 21.195 24.7575 21.32 24.975C21.3387 25.0066 21.366 25.0322 21.3988 25.0488C21.4316 25.0653 21.4684 25.0722 21.5049 25.0685C21.5414 25.0648 21.5761 25.0508 21.6049 25.028C21.6337 25.0053 21.6554 24.9747 21.6675 24.94C21.7358 24.73 21.8691 24.5742 22.0675 24.4725C22.1075 24.4526 22.1529 24.4464 22.1968 24.455C22.2407 24.4636 22.2805 24.4865 22.31 24.52L22.535 24.7775C22.5916 24.8442 22.6633 24.8717 22.75 24.86L24.995 24.5925C25.06 24.5842 25.0833 24.5492 25.065 24.4875L24.3725 22.0875C24.3659 22.0661 24.3548 22.0457 24.34 22.0275C24.115 21.7592 23.9591 21.7134 23.8725 21.89C23.8441 21.95 23.8041 22.0017 23.7525 22.045ZM16.665 24.4225C16.5683 24.3942 16.4783 24.3967 16.395 24.43C16.3693 24.44 16.3459 24.455 16.3261 24.4742C16.3064 24.4933 16.2908 24.5163 16.2803 24.5415C16.2697 24.5668 16.2645 24.5939 16.2649 24.6212C16.2653 24.6484 16.2712 24.6753 16.2825 24.7L17.9225 28.385C17.9856 28.5267 18.0801 28.652 18.1989 28.7512C18.3176 28.8504 18.4574 28.921 18.6075 28.9575L20.205 29.35C20.2966 29.3717 20.3516 29.3367 20.37 29.245C20.5833 28.165 20.785 27.0759 20.975 25.9776C21.05 25.5509 21.0325 25.2309 20.9225 25.0175C20.4625 24.13 17.565 24.685 16.665 24.4225ZM22.25 25.31C22.1566 25.32 22.09 25.3667 22.05 25.45C21.935 25.6917 21.9866 25.89 22.205 26.045C23.35 26.8567 24.4591 27.6359 25.5325 28.3825C25.6583 28.4696 25.8002 28.5306 25.9496 28.5619C26.099 28.5932 26.253 28.5943 26.4025 28.565L30.295 27.8025C30.357 27.7902 30.4145 27.7613 30.4615 27.7191C30.5085 27.6768 30.5433 27.6227 30.5622 27.5624C30.5812 27.502 30.5835 27.4377 30.569 27.3762C30.5546 27.3146 30.5238 27.2581 30.48 27.2125C30.3683 27.0975 30.2141 26.9817 30.0175 26.865C29.0141 26.2684 28.0791 25.6809 27.2125 25.1026C26.9348 24.9169 26.6004 24.8346 26.2675 24.87L22.25 25.31ZM21.35 26.0925C20.985 27.3951 20.82 28.85 20.5975 30.1925C20.495 30.82 20.53 31.43 20.9525 31.86C21.9225 32.845 22.9033 33.8 23.895 34.725C23.9286 34.7565 23.97 34.7786 24.0149 34.789C24.0598 34.7994 24.1066 34.7978 24.1507 34.7844C24.1948 34.771 24.2346 34.7462 24.2661 34.7125C24.2975 34.6788 24.3196 34.6374 24.33 34.5925L25.545 29.4275C25.5856 29.2518 25.5728 29.068 25.5082 28.8996C25.4436 28.7313 25.3302 28.586 25.1825 28.4825L21.625 25.9925C21.6018 25.976 21.5749 25.9654 21.5466 25.9616C21.5183 25.9578 21.4895 25.9609 21.4625 25.9707C21.4355 25.9805 21.4112 25.9967 21.3916 26.0179C21.372 26.0391 21.3577 26.0647 21.35 26.0925ZM30.8675 28.4475C30.9491 28.1659 30.8458 28.0509 30.5575 28.1026C29.4358 28.3009 28.25 28.5375 27 28.8125C26.3175 28.9625 26.0775 29.0875 25.9025 29.815C25.5025 31.4767 25.1016 33.115 24.7 34.73C24.6924 34.7594 24.6927 34.7902 24.7011 34.8193C24.7094 34.8485 24.7253 34.8748 24.7472 34.8957C24.7691 34.9166 24.7963 34.9313 24.8257 34.9382C24.8552 34.9451 24.886 34.944 24.915 34.9351C26.2383 34.5334 27.55 34.0625 28.85 33.5225C29.505 33.25 29.4875 32.8725 29.68 32.295C30.06 31.1584 30.4558 29.8759 30.8675 28.4475Z" fill="#E9B20E"/>
<path d="M23.52 21.8575C22.6983 22.7009 21.8375 23.5117 20.9375 24.29C20.8974 24.3253 20.8447 24.3441 20.79 24.3425L16.6375 24.195C16.5958 24.1937 16.5556 24.1795 16.5223 24.1545C16.489 24.1294 16.4642 24.0947 16.4513 24.0551C16.4385 24.0154 16.4382 23.9728 16.4505 23.9329C16.4627 23.8931 16.487 23.8581 16.52 23.8325C17.4083 23.1342 18.2966 22.4217 19.185 21.695C19.9225 21.0925 22.5825 21.275 23.555 21.295C23.6052 21.2956 23.6539 21.3128 23.6936 21.344C23.7333 21.3751 23.7619 21.4185 23.775 21.4675C23.8033 21.5759 23.7725 21.6634 23.6825 21.73C23.5908 21.7984 23.5366 21.8409 23.52 21.8575ZM20.7754 22.4317C20.7356 22.3486 20.6373 22.2977 20.5021 22.2902C20.367 22.2827 20.2061 22.3192 20.0548 22.3917C19.9036 22.4641 19.7743 22.5667 19.6955 22.6767C19.6167 22.7867 19.5948 22.8952 19.6346 22.9783C19.6744 23.0614 19.7727 23.1124 19.9078 23.1199C20.043 23.1274 20.2039 23.0909 20.3551 23.0184C20.5064 22.9459 20.6357 22.8434 20.7145 22.7334C20.7933 22.6233 20.8152 22.5148 20.7754 22.4317Z" fill="#353330"/>
<path d="M23.8725 21.89C23.9592 21.7133 24.115 21.7592 24.34 22.0275C24.3549 22.0456 24.3659 22.066 24.3725 22.0875L25.065 24.4875C25.0833 24.5492 25.06 24.5842 24.995 24.5925L22.75 24.86C22.6633 24.8717 22.5917 24.8442 22.535 24.7775L22.31 24.52C22.2805 24.4864 22.2407 24.4636 22.1968 24.455C22.153 24.4464 22.1075 24.4525 22.0675 24.4725C21.8692 24.5742 21.7358 24.73 21.6675 24.94C21.6555 24.9747 21.6338 25.0052 21.605 25.028C21.5761 25.0507 21.5414 25.0648 21.5049 25.0684C21.4684 25.0721 21.4316 25.0653 21.3988 25.0487C21.366 25.0322 21.3387 25.0066 21.32 24.975C21.195 24.7575 21.245 24.475 21.42 24.2775C22.1367 23.4708 22.9142 22.7267 23.7525 22.045C23.8042 22.0017 23.8442 21.95 23.8725 21.89ZM24.0025 23.9263C24.1248 23.9023 24.23 23.8175 24.2949 23.6906C24.3599 23.5637 24.3792 23.405 24.3487 23.2495C24.3182 23.094 24.2403 22.9544 24.1323 22.8614C24.0242 22.7684 23.8948 22.7297 23.7725 22.7537C23.6501 22.7777 23.545 22.8625 23.48 22.9894C23.4151 23.1163 23.3958 23.275 23.4263 23.4305C23.4568 23.586 23.5346 23.7256 23.6427 23.8186C23.7508 23.9116 23.8802 23.9503 24.0025 23.9263Z" fill="#353330"/>
<path d="M47.97 31.3125C47.355 27.295 49.4025 23.4325 53.4375 22.3525C55.0625 21.9175 56.65 22.1208 58.2 22.9625C58.2767 23.0025 58.2959 23.0616 58.2575 23.14L57.2325 25.2425C57.1942 25.3208 57.1367 25.34 57.06 25.3C53.1075 23.275 50.44 26.9025 50.805 30.4775C50.9525 31.9075 51.6 32.7525 53.1225 32.6125C54.1309 32.5175 55.02 32.325 55.79 32.035C55.885 32 55.9417 32.0325 55.96 32.1325L56.375 34.4175C56.39 34.4908 56.3625 34.5433 56.2925 34.575C53.0275 36.065 48.6075 35.4675 47.97 31.3125Z" fill="white"/>
<path d="M66.44 25.5525C65.3125 24.8725 62.65 24.165 61.815 25.5225C61.2925 26.37 61.9825 26.99 62.7425 27.18C63.9192 27.4734 64.9117 27.9225 65.72 28.5275C67.71 30.0225 67.3275 33.1425 65.3 34.4225C63.295 35.6875 59.2225 35.5875 57.28 34.205C57.2468 34.182 57.2227 34.148 57.2118 34.1088C57.2008 34.0696 57.2037 34.0277 57.22 33.99L58.11 31.9375C58.1184 31.9181 58.1306 31.9005 58.1459 31.8858C58.1612 31.8712 58.1794 31.8598 58.1992 31.8523C58.2191 31.8448 58.2402 31.8415 58.2614 31.8424C58.2826 31.8433 58.3034 31.8484 58.3225 31.8575C59.9392 32.6542 61.5608 32.8784 63.1875 32.53C63.6575 32.43 64.0475 31.9625 64.0175 31.455C63.9675 30.6425 63.4875 30.35 62.7175 30.125C60.81 29.5625 58.5875 28.825 58.57 26.485C58.555 24.32 60.2475 22.5475 62.375 22.2675C64.23 22.0225 66.0175 22.3084 67.7375 23.125C67.8242 23.1667 67.845 23.2292 67.8 23.3125L66.635 25.4975C66.59 25.5842 66.525 25.6025 66.44 25.5525Z" fill="white"/>
<path d="M75.0675 30.4299L73.3825 30.4324C73.3689 30.4323 73.3556 30.4288 73.3437 30.4223C73.3318 30.4158 73.3217 30.4064 73.3142 30.395C73.3068 30.3836 73.3023 30.3706 73.3011 30.3571C73.3 30.3435 73.3022 30.3299 73.3075 30.3174L74.2675 27.9974C74.2992 27.9208 74.3567 27.8824 74.44 27.8824H78.245C78.2672 27.8826 78.2891 27.8875 78.3092 27.8968C78.3294 27.9061 78.3473 27.9196 78.3617 27.9364C78.3762 27.9533 78.3869 27.973 78.393 27.9943C78.3992 28.0156 78.4007 28.038 78.3975 28.0599L77.4625 34.0175C77.4523 34.0815 77.428 34.1424 77.3912 34.1956C77.3544 34.2488 77.3061 34.2931 77.25 34.3249C74.805 35.7074 70.62 35.9375 68.7575 33.3925C67.8375 32.1375 67.7625 30.5024 67.995 28.9899C68.4125 26.2474 69.5175 23.8424 72.2475 22.7399C74.1675 21.9649 76.1633 21.9933 78.235 22.8249C78.2568 22.8336 78.2765 22.8466 78.293 22.8633C78.3094 22.8799 78.3223 22.8997 78.3308 22.9216C78.3392 22.9434 78.3431 22.9667 78.3421 22.9901C78.3411 23.0135 78.3353 23.0364 78.325 23.0574L77.2725 25.2449C77.2375 25.3199 77.1833 25.3399 77.11 25.3049C76.1533 24.8549 75.1783 24.6933 74.185 24.8199C71.355 25.1849 70.205 28.7899 71.0925 31.0674C71.5658 32.2808 72.4917 32.7741 73.87 32.5474C74.3133 32.4758 74.675 32.3483 74.955 32.1649C75.02 32.1199 75.0575 32.0583 75.0675 31.9799L75.2175 30.5974C75.2292 30.4858 75.1792 30.4299 75.0675 30.4299Z" fill="white"/>
<path d="M90.5375 27.9374C90.4775 32.2399 87.5325 35.8049 82.9975 35.3299C80.585 35.0774 79.4975 33.1849 79.2975 30.8874C78.9425 26.7724 81.375 22.1399 85.995 22.2324C89.5375 22.3024 90.58 24.8424 90.5375 27.9374ZM83.3913 32.7657C83.7341 32.9041 84.1146 32.9394 84.5113 32.8694C84.9079 32.7995 85.3128 32.6256 85.7029 32.3579C86.0931 32.0901 86.4607 31.7336 86.7849 31.3088C87.1091 30.884 87.3836 30.3991 87.5925 29.882C87.8015 29.3648 87.9409 28.8254 88.0028 28.2946C88.0646 27.7638 88.0478 27.252 87.9532 26.7884C87.8586 26.3247 87.688 25.9184 87.4513 25.5925C87.2146 25.2667 86.9164 25.0277 86.5736 24.8892C86.2309 24.7507 85.8503 24.7155 85.4537 24.7854C85.0571 24.8554 84.6522 25.0293 84.262 25.297C83.8719 25.5648 83.5043 25.9213 83.18 26.3461C82.8558 26.7709 82.5814 27.2557 82.3725 27.7729C82.1635 28.2901 82.0241 28.8295 81.9622 29.3603C81.9004 29.8911 81.9172 30.4029 82.0118 30.8665C82.1064 31.3301 82.2769 31.7365 82.5136 32.0623C82.7503 32.3882 83.0486 32.6272 83.3913 32.7657Z" fill="white"/>
<path d="M20.3551 23.0184C20.6702 22.8675 20.8583 22.6048 20.7754 22.4317C20.6925 22.2586 20.3699 22.2407 20.0548 22.3916C19.7398 22.5426 19.5517 22.8052 19.6346 22.9783C19.7175 23.1514 20.0401 23.1693 20.3551 23.0184Z" fill="white"/>
<path d="M23.4263 23.4305C23.4899 23.7543 23.7478 23.9763 24.0026 23.9263C24.2573 23.8764 24.4123 23.5733 24.3487 23.2495C24.2852 22.9257 24.0272 22.7037 23.7725 22.7537C23.5178 22.8037 23.3628 23.1067 23.4263 23.4305Z" fill="white"/>
<path d="M139.625 30.0475C140.653 31.5408 141.182 33.2042 141.21 35.0375C141.212 35.1258 141.168 35.17 141.08 35.17H138.45C138.348 35.17 138.294 35.1192 138.288 35.0175C138.183 33.5025 137.66 32.16 136.72 30.99C136.693 30.9556 136.658 30.9279 136.618 30.9088C136.578 30.8898 136.534 30.8799 136.49 30.88L134.933 30.8825C134.846 30.8825 134.796 30.9242 134.783 31.0075L134.075 35.155C134.06 35.25 134.004 35.2975 133.908 35.2975H131.173C131.071 35.2975 131.028 35.2467 131.045 35.145L133.148 22.8725C133.163 22.7825 133.216 22.7392 133.308 22.7425C135.094 22.7908 136.865 22.82 138.62 22.83C141.213 22.845 142.508 24.7825 142.003 27.1775C141.741 28.4125 140.963 29.3167 139.67 29.89C139.592 29.925 139.577 29.9775 139.625 30.0475ZM135.7 25.4075C135.675 25.4082 135.65 25.4176 135.631 25.434C135.612 25.4504 135.599 25.4729 135.595 25.4975L135.148 28.25C135.133 28.34 135.17 28.3892 135.26 28.3975C136.245 28.4992 137.048 28.4633 137.67 28.29C138.633 28.0225 139.23 26.875 138.673 25.9675C138.198 25.19 136.515 25.3925 135.7 25.4075Z" fill="#E9B20E"/>
<path d="M113.385 27.8975L110.6 32.975C110.563 33.0417 110.507 33.075 110.432 33.075L108.13 33.08C108.035 33.08 107.979 33.0333 107.962 32.94L106.962 27.455C106.962 27.4378 106.955 27.4214 106.943 27.4094C106.93 27.3974 106.913 27.3909 106.896 27.3912C106.879 27.3916 106.863 27.3987 106.851 27.4112C106.839 27.4236 106.832 27.4403 106.832 27.4575L105.622 35.07C105.611 35.1433 105.567 35.1808 105.492 35.1825L102.707 35.25C102.687 35.2508 102.666 35.2468 102.648 35.2385C102.629 35.2302 102.612 35.2176 102.599 35.2018C102.585 35.1859 102.575 35.1672 102.57 35.147C102.565 35.1268 102.564 35.1056 102.567 35.085L104.705 22.9125C104.718 22.8392 104.762 22.8025 104.837 22.8025L108.63 22.805C108.723 22.805 108.777 22.8508 108.79 22.9425L109.727 29.035C109.73 29.0491 109.737 29.0619 109.748 29.0719C109.758 29.0818 109.771 29.0883 109.785 29.0905C109.8 29.0927 109.814 29.0904 109.827 29.0841C109.84 29.0777 109.851 29.0676 109.857 29.055L113.087 22.87C113.098 22.8503 113.114 22.8338 113.132 22.8223C113.151 22.8108 113.173 22.8049 113.195 22.805L117.177 22.8025C117.264 22.8025 117.3 22.8442 117.285 22.9275L115.177 35.11C115.161 35.2033 115.105 35.25 115.01 35.25H112.305C112.195 35.25 112.15 35.1958 112.17 35.0875L113.497 27.9375C113.501 27.923 113.499 27.9078 113.492 27.8947C113.485 27.8816 113.473 27.8716 113.459 27.8666C113.445 27.8616 113.43 27.862 113.416 27.8677C113.402 27.8734 113.391 27.884 113.385 27.8975Z" fill="#E9B20E"/>
<path d="M120.062 31.5625L119.417 35.1425C119.399 35.2442 119.337 35.295 119.232 35.295L116.532 35.2975C116.434 35.2975 116.393 35.25 116.41 35.155L118.512 23C118.527 22.92 118.575 22.8783 118.655 22.875C121.13 22.76 122.974 22.75 124.187 22.845C127.497 23.105 128.147 26.7975 126.607 29.1125C125.102 31.3775 122.775 31.59 120.22 31.4375C120.13 31.4325 120.077 31.4741 120.062 31.5625ZM124.292 26.4175C124.077 25.1325 122.357 25.3575 121.197 25.3825C121.112 25.3841 121.064 25.4275 121.052 25.5125L120.58 28.6125C120.567 28.7058 120.607 28.7533 120.702 28.755C122.197 28.78 124.68 28.7375 124.292 26.4175Z" fill="#E9B20E"/>
<path d="M126.815 35.255L128.915 22.8675C128.918 22.8496 128.927 22.8333 128.941 22.8214C128.954 22.8095 128.972 22.8028 128.99 22.8025L131.952 22.805C131.964 22.8052 131.975 22.8078 131.985 22.8126C131.995 22.8174 132.003 22.8243 132.011 22.8329C132.018 22.8414 132.023 22.8514 132.026 22.8621C132.029 22.8728 132.029 22.884 132.027 22.895L129.807 35.275C129.804 35.2929 129.794 35.3089 129.78 35.3203C129.766 35.3318 129.748 35.3378 129.73 35.3375L126.892 35.345C126.881 35.3451 126.87 35.3428 126.86 35.3382C126.849 35.3335 126.84 35.3266 126.833 35.3181C126.825 35.3095 126.82 35.2994 126.817 35.2885C126.814 35.2776 126.813 35.2662 126.815 35.255Z" fill="#E9B20E"/>
<path d="M96.6925 30.2024L96.2725 32.63C96.27 32.6439 96.2705 32.6583 96.2741 32.672C96.2777 32.6858 96.2842 32.6986 96.2932 32.7095C96.3023 32.7205 96.3136 32.7294 96.3265 32.7355C96.3393 32.7416 96.3533 32.7448 96.3675 32.7449L102.04 32.7424C102.054 32.7422 102.069 32.7452 102.082 32.7511C102.095 32.7571 102.107 32.7659 102.116 32.7769C102.125 32.7879 102.132 32.8008 102.136 32.8147C102.14 32.8287 102.14 32.8433 102.138 32.8574L101.718 35.1699C101.713 35.1927 101.701 35.2132 101.683 35.2278C101.666 35.2425 101.643 35.2503 101.62 35.2499H92.9125C92.8983 35.2498 92.8843 35.2466 92.8715 35.2405C92.8586 35.2343 92.8473 35.2255 92.8383 35.2145C92.8292 35.2036 92.8227 35.1908 92.8191 35.177C92.8155 35.1633 92.8149 35.1489 92.8175 35.1349L94.9125 22.9524C94.9166 22.9297 94.9287 22.9092 94.9466 22.8946C94.9644 22.8799 94.9869 22.8721 95.01 22.8724H103.663C103.678 22.8728 103.693 22.8767 103.707 22.884C103.72 22.8913 103.732 22.9017 103.741 22.9144C103.75 22.9271 103.755 22.9417 103.757 22.957C103.759 22.9723 103.758 22.9879 103.753 23.0025L102.945 25.2625C102.938 25.2812 102.926 25.2974 102.91 25.309C102.894 25.3206 102.875 25.3271 102.855 25.3274L97.6625 25.3325C97.6398 25.3327 97.618 25.3408 97.6006 25.3554C97.5833 25.37 97.5716 25.3902 97.5675 25.4125L97.185 27.4549C97.1824 27.4689 97.183 27.4833 97.1866 27.497C97.1902 27.5108 97.1967 27.5236 97.2058 27.5345C97.2148 27.5455 97.2261 27.5543 97.239 27.5605C97.2518 27.5666 97.2658 27.5698 97.28 27.5699H101.528C101.542 27.5696 101.557 27.5726 101.57 27.5787C101.583 27.5848 101.595 27.5939 101.605 27.6052C101.614 27.6165 101.621 27.6297 101.624 27.644C101.628 27.6582 101.628 27.6731 101.625 27.6874L101.15 30.0375C101.145 30.0593 101.133 30.0789 101.116 30.093C101.099 30.1071 101.077 30.1149 101.055 30.1149L96.79 30.1224C96.7669 30.1221 96.7444 30.1299 96.7266 30.1446C96.7087 30.1592 96.6966 30.1797 96.6925 30.2024Z" fill="#E9B20E"/>
<path d="M146.468 27.5674L150.698 27.5724C150.712 27.5725 150.727 27.5759 150.74 27.5823C150.754 27.5886 150.765 27.5979 150.775 27.6094C150.784 27.6209 150.791 27.6343 150.794 27.6486C150.798 27.663 150.798 27.678 150.795 27.6924L150.343 30.0374C150.338 30.06 150.326 30.0802 150.308 30.0948C150.29 30.1093 150.268 30.1173 150.245 30.1174L145.995 30.1199C145.971 30.1196 145.948 30.1277 145.93 30.1428C145.912 30.1579 145.899 30.1791 145.895 30.2024L145.48 32.6299C145.477 32.6443 145.478 32.659 145.482 32.673C145.486 32.6871 145.492 32.7001 145.502 32.7113C145.511 32.7225 145.522 32.7315 145.536 32.7378C145.549 32.744 145.563 32.7473 145.578 32.7474L151.248 32.74C151.262 32.7401 151.276 32.7434 151.29 32.7496C151.303 32.7559 151.314 32.7649 151.324 32.7761C151.333 32.7873 151.34 32.8003 151.343 32.8144C151.347 32.8284 151.348 32.8431 151.345 32.8574L150.913 35.1674C150.908 35.1904 150.896 35.2112 150.879 35.2263C150.861 35.2414 150.838 35.2497 150.815 35.2499H142.11C142.095 35.2498 142.081 35.2465 142.068 35.2403C142.055 35.234 142.043 35.225 142.034 35.2138C142.025 35.2026 142.018 35.1896 142.014 35.1755C142.011 35.1614 142.01 35.1468 142.013 35.1324L144.113 22.9549C144.117 22.9316 144.129 22.9104 144.147 22.8953C144.166 22.8802 144.189 22.8721 144.213 22.8724H152.85C152.866 22.8724 152.882 22.8761 152.896 22.8834C152.91 22.8907 152.922 22.9012 152.932 22.9142C152.941 22.9271 152.947 22.9422 152.949 22.9579C152.952 22.9737 152.95 22.9899 152.945 23.0049L152.145 25.2624C152.138 25.2818 152.126 25.2987 152.109 25.3107C152.093 25.3228 152.073 25.3295 152.053 25.3299L146.85 25.3249C146.827 25.3252 146.804 25.3335 146.786 25.3486C146.769 25.3637 146.757 25.3845 146.753 25.4074L146.37 27.4499C146.367 27.4643 146.368 27.479 146.372 27.493C146.376 27.5071 146.382 27.5201 146.392 27.5313C146.401 27.5425 146.412 27.5515 146.426 27.5578C146.439 27.564 146.453 27.5673 146.468 27.5674Z" fill="#E9B20E"/>
<path d="M16.665 24.4225C17.565 24.685 20.4625 24.13 20.9225 25.0175C21.0325 25.2308 21.05 25.5508 20.975 25.9775C20.785 27.0758 20.5833 28.165 20.37 29.245C20.3517 29.3366 20.2967 29.3716 20.205 29.35L18.6075 28.9575C18.4574 28.921 18.3176 28.8504 18.1989 28.7511C18.0801 28.6519 17.9856 28.5266 17.9225 28.385L16.2825 24.7C16.2713 24.6752 16.2653 24.6484 16.2649 24.6211C16.2645 24.5938 16.2698 24.5667 16.2803 24.5415C16.2908 24.5162 16.3064 24.4933 16.3262 24.4741C16.3459 24.4549 16.3693 24.4399 16.395 24.43C16.4783 24.3966 16.5683 24.3941 16.665 24.4225ZM20.3916 26.2614C20.4693 26.1941 20.5046 26.0844 20.4898 25.9564C20.4751 25.8284 20.4114 25.6925 20.3129 25.5788C20.2641 25.5224 20.2082 25.4732 20.1484 25.4339C20.0886 25.3946 20.0261 25.366 19.9644 25.3498C19.9027 25.3335 19.843 25.3299 19.7888 25.3391C19.7346 25.3483 19.6869 25.3702 19.6484 25.4035C19.5707 25.4708 19.5354 25.5805 19.5502 25.7086C19.5649 25.8366 19.6286 25.9724 19.7271 26.0862C19.7759 26.1425 19.8318 26.1917 19.8916 26.231C19.9514 26.2703 20.0139 26.2989 20.0756 26.3152C20.1373 26.3315 20.197 26.3351 20.2512 26.3259C20.3054 26.3166 20.3531 26.2947 20.3916 26.2614ZM19.1297 28.519C19.1677 28.4847 19.1952 28.4395 19.2106 28.3859C19.226 28.3324 19.229 28.2716 19.2194 28.207C19.2099 28.1424 19.188 28.0753 19.1549 28.0095C19.1219 27.9437 19.0784 27.8805 19.0269 27.8235C18.9754 27.7665 18.9169 27.7168 18.8548 27.6773C18.7926 27.6378 18.7281 27.6092 18.6648 27.5932C18.6015 27.5771 18.5407 27.574 18.4859 27.5839C18.4311 27.5938 18.3833 27.6166 18.3453 27.6509C18.3073 27.6853 18.2798 27.7305 18.2644 27.784C18.249 27.8376 18.246 27.8984 18.2556 27.9629C18.2651 28.0275 18.287 28.0946 18.3201 28.1604C18.3531 28.2262 18.3966 28.2895 18.4481 28.3465C18.4996 28.4035 18.5581 28.4531 18.6202 28.4927C18.6824 28.5322 18.7469 28.5608 18.8102 28.5768C18.8735 28.5928 18.9343 28.596 18.9891 28.5861C19.0439 28.5761 19.0917 28.5534 19.1297 28.519Z" fill="#353330"/>
<path d="M22.25 25.31L26.2675 24.87C26.6004 24.8345 26.9348 24.9168 27.2125 25.1025C28.0792 25.6808 29.0142 26.2683 30.0175 26.865C30.2142 26.9817 30.3683 27.0975 30.48 27.2125C30.5238 27.2581 30.5546 27.3146 30.569 27.3761C30.5835 27.4377 30.5812 27.502 30.5623 27.5623C30.5433 27.6226 30.5086 27.6768 30.4615 27.719C30.4145 27.7613 30.357 27.7901 30.295 27.8025L26.4025 28.565C26.253 28.5943 26.099 28.5932 25.9496 28.5619C25.8002 28.5305 25.6584 28.4695 25.5325 28.3825C24.4592 27.6358 23.35 26.8567 22.205 26.045C21.9867 25.89 21.935 25.6917 22.05 25.45C22.09 25.3667 22.1567 25.32 22.25 25.31ZM27.2045 25.786C27.2114 25.7395 27.1992 25.6907 27.1686 25.6424C27.138 25.594 27.0897 25.547 27.0263 25.5041C26.963 25.4612 26.8858 25.4232 26.7993 25.3923C26.7128 25.3613 26.6187 25.3381 26.5222 25.3238C26.3274 25.2951 26.1351 25.3047 25.9875 25.3507C25.84 25.3967 25.7493 25.4752 25.7355 25.569C25.7286 25.6155 25.7408 25.6643 25.7714 25.7126C25.802 25.761 25.8503 25.808 25.9137 25.8509C25.977 25.8938 26.0541 25.9318 26.1406 25.9627C26.2271 25.9937 26.3213 26.0169 26.4178 26.0312C26.6126 26.0599 26.8049 26.0503 26.9525 26.0043C27.1 25.9583 27.1907 25.8798 27.2045 25.786ZM24.3882 26.0008C24.3945 25.954 24.3815 25.905 24.3499 25.8566C24.3183 25.8083 24.2687 25.7615 24.2039 25.719C24.1391 25.6765 24.0605 25.6392 23.9724 25.609C23.8844 25.5788 23.7886 25.5565 23.6907 25.5433C23.4929 25.5165 23.2982 25.5285 23.1493 25.5765C23.0004 25.6244 22.9096 25.7046 22.8968 25.7992C22.8904 25.846 22.9035 25.895 22.9351 25.9434C22.9667 25.9917 23.0163 26.0385 23.0811 26.081C23.1459 26.1235 23.2245 26.1609 23.3126 26.191C23.4006 26.2212 23.4963 26.2435 23.5943 26.2568C23.792 26.2835 23.9868 26.2716 24.1357 26.2236C24.2846 26.1756 24.3754 26.0954 24.3882 26.0008ZM27.0242 26.6468C27.0391 26.5491 26.9782 26.444 26.8548 26.3544C26.7315 26.2649 26.5558 26.1983 26.3663 26.1693C26.2726 26.1549 26.1782 26.1502 26.0887 26.1555C25.9993 26.1607 25.9164 26.1758 25.8448 26.1999C25.7733 26.2239 25.7145 26.2564 25.6717 26.2956C25.629 26.3348 25.6032 26.3799 25.5958 26.4282C25.5809 26.5259 25.6418 26.6311 25.7651 26.7206C25.8885 26.8102 26.0642 26.8767 26.2536 26.9057C26.3474 26.9201 26.4418 26.9248 26.5312 26.9195C26.6207 26.9143 26.7036 26.8992 26.7752 26.8752C26.8467 26.8511 26.9055 26.8186 26.9483 26.7794C26.991 26.7402 27.0168 26.6951 27.0242 26.6468ZM29.7856 27.3423C29.7945 27.2932 29.7845 27.2412 29.7562 27.1892C29.7278 27.1372 29.6817 27.0862 29.6204 27.0392C29.5591 26.9922 29.4838 26.9501 29.3989 26.9152C29.314 26.8804 29.2211 26.8535 29.1254 26.8361C28.9323 26.801 28.74 26.8068 28.5907 26.8521C28.4414 26.8974 28.3474 26.9785 28.3294 27.0777C28.3205 27.1268 28.3305 27.1788 28.3588 27.2308C28.3872 27.2828 28.4333 27.3338 28.4946 27.3808C28.5559 27.4278 28.6312 27.4699 28.7161 27.5048C28.801 27.5396 28.8939 27.5665 28.9895 27.5839C29.1826 27.619 29.375 27.6132 29.5243 27.5679C29.6735 27.5226 29.7675 27.4415 29.7856 27.3423ZM26.8871 27.5914C26.8928 27.5445 26.8794 27.4957 26.8478 27.4479C26.8161 27.4 26.7668 27.3541 26.7026 27.3126C26.6384 27.2712 26.5605 27.2351 26.4736 27.2063C26.3866 27.1776 26.2922 27.1568 26.1957 27.1451C26.0993 27.1334 26.0026 27.1311 25.9113 27.1383C25.82 27.1455 25.7358 27.162 25.6636 27.1869C25.5914 27.2119 25.5325 27.2447 25.4903 27.2836C25.4481 27.3225 25.4235 27.3667 25.4178 27.4136C25.4122 27.4605 25.4255 27.5093 25.4572 27.5571C25.4889 27.605 25.5382 27.6509 25.6024 27.6924C25.6666 27.7338 25.7444 27.7699 25.8314 27.7987C25.9184 27.8274 26.0128 27.8482 26.1092 27.8599C26.2057 27.8716 26.3024 27.8739 26.3937 27.8667C26.485 27.8595 26.5692 27.843 26.6414 27.8181C26.7136 27.7932 26.7725 27.7603 26.8147 27.7214C26.8568 27.6825 26.8815 27.6383 26.8871 27.5914Z" fill="#353330"/>
<path d="M26.4178 26.0311C26.8235 26.091 27.1757 25.9813 27.2046 25.7859C27.2334 25.5906 26.9279 25.3837 26.5223 25.3238C26.1166 25.2639 25.7643 25.3737 25.7355 25.569C25.7067 25.7643 26.0121 25.9712 26.4178 26.0311Z" fill="white"/>
<path d="M19.7271 26.0863C19.9323 26.3232 20.2298 26.4016 20.3916 26.2615C20.5533 26.1214 20.5181 25.8157 20.3129 25.5788C20.1077 25.3419 19.8102 25.2635 19.6485 25.4036C19.4867 25.5437 19.5219 25.8494 19.7271 26.0863Z" fill="white"/>
<path d="M23.5943 26.2567C24.0061 26.3124 24.3616 26.1978 24.3882 26.0008C24.4148 25.8038 24.1026 25.5989 23.6907 25.5432C23.2789 25.4875 22.9234 25.6021 22.8968 25.7991C22.8701 25.9962 23.1824 26.201 23.5943 26.2567Z" fill="white"/>
<path d="M20.5975 30.1925C20.82 28.85 20.985 27.395 21.35 26.0925C21.3577 26.0647 21.372 26.0391 21.3916 26.0179C21.4112 25.9967 21.4355 25.9805 21.4625 25.9707C21.4894 25.9609 21.5183 25.9577 21.5466 25.9615C21.5749 25.9653 21.6018 25.976 21.625 25.9925L25.1825 28.4825C25.3302 28.586 25.4436 28.7312 25.5082 28.8996C25.5728 29.068 25.5856 29.2518 25.545 29.4275L24.33 34.5925C24.3196 34.6374 24.2975 34.6788 24.2661 34.7125C24.2346 34.7462 24.1948 34.771 24.1507 34.7844C24.1066 34.7978 24.0598 34.7994 24.0149 34.789C23.97 34.7786 23.9286 34.7565 23.895 34.725C22.9033 33.8 21.9225 32.845 20.9525 31.86C20.53 31.43 20.495 30.82 20.5975 30.1925ZM22.0243 28.3596C22.1482 28.355 22.2645 28.2807 22.3475 28.1528C22.4306 28.025 22.4736 27.8541 22.4671 27.6779C22.4607 27.5017 22.4053 27.3344 22.3131 27.213C22.2209 27.0916 22.0995 27.0259 21.9756 27.0305C21.8517 27.035 21.7354 27.1094 21.6524 27.2372C21.5694 27.3651 21.5263 27.5359 21.5328 27.7122C21.5393 27.8884 21.5947 28.0556 21.6869 28.177C21.779 28.2985 21.9004 28.3641 22.0243 28.3596ZM24.2664 30.0669C24.3849 30.0619 24.4956 29.9845 24.5741 29.8517C24.6525 29.7189 24.6922 29.5416 24.6846 29.3588C24.6769 29.1759 24.6224 29.0026 24.5332 28.8768C24.4439 28.751 24.3271 28.6832 24.2086 28.6881C24.09 28.6931 23.9793 28.7705 23.9009 28.9033C23.8225 29.0361 23.7827 29.2134 23.7904 29.3963C23.798 29.5791 23.8525 29.7525 23.9418 29.8783C24.031 30.004 24.1478 30.0719 24.2664 30.0669ZM21.7732 30.012C21.8329 30.0097 21.8914 29.9901 21.9452 29.9544C21.9991 29.9186 22.0473 29.8674 22.0872 29.8036C22.127 29.7398 22.1576 29.6647 22.1774 29.5826C22.1971 29.5005 22.2055 29.413 22.2021 29.3251C22.1988 29.2371 22.1837 29.1505 22.1577 29.0702C22.1317 28.9898 22.0954 28.9173 22.0508 28.8568C22.0062 28.7962 21.9542 28.7488 21.8977 28.7173C21.8412 28.6858 21.7815 28.6707 21.7217 28.673C21.662 28.6753 21.6036 28.6949 21.5497 28.7307C21.4958 28.7664 21.4476 28.8177 21.4078 28.8815C21.3679 28.9453 21.3373 29.0204 21.3176 29.1025C21.2978 29.1846 21.2894 29.2721 21.2928 29.36C21.2962 29.4479 21.3113 29.5345 21.3372 29.6149C21.3632 29.6952 21.3995 29.7677 21.4442 29.8283C21.4888 29.8888 21.5408 29.9362 21.5972 29.9678C21.6537 29.9993 21.7135 30.0143 21.7732 30.012ZM21.5024 31.5896C21.6264 31.5855 21.7428 31.5103 21.8263 31.3804C21.9097 31.2505 21.9532 31.0766 21.9472 30.897C21.9443 30.8081 21.9293 30.7204 21.9031 30.6391C21.8768 30.5577 21.84 30.4842 21.7945 30.4228C21.749 30.3613 21.6958 30.3131 21.638 30.281C21.5802 30.2489 21.5189 30.2334 21.4575 30.2354C21.3336 30.2395 21.2171 30.3148 21.1337 30.4447C21.0503 30.5746 21.0068 30.7484 21.0127 30.928C21.0157 31.0169 21.0307 31.1046 21.0569 31.186C21.0831 31.2674 21.12 31.3409 21.1655 31.4023C21.2109 31.4637 21.2641 31.5119 21.3219 31.544C21.3797 31.5762 21.4411 31.5917 21.5024 31.5896ZM23.9453 31.8348C24.0073 31.8332 24.0683 31.814 24.1247 31.7783C24.1811 31.7427 24.2319 31.6912 24.2741 31.627C24.3163 31.5627 24.3491 31.4868 24.3707 31.4037C24.3923 31.3206 24.4022 31.2319 24.3998 31.1427C24.3975 31.0534 24.3829 30.9653 24.3571 30.8835C24.3312 30.8016 24.2944 30.7276 24.2489 30.6656C24.2034 30.6036 24.15 30.5549 24.0918 30.5223C24.0336 30.4896 23.9717 30.4736 23.9097 30.4753C23.8476 30.4769 23.7867 30.4961 23.7303 30.5317C23.6738 30.5674 23.6231 30.6188 23.5809 30.6831C23.5387 30.7474 23.5058 30.8232 23.4843 30.9063C23.4627 30.9894 23.4528 31.0781 23.4551 31.1674C23.4575 31.2567 23.472 31.3447 23.4979 31.4266C23.5238 31.5085 23.5605 31.5825 23.6061 31.6445C23.6516 31.7064 23.705 31.7551 23.7632 31.7878C23.8214 31.8205 23.8832 31.8364 23.9453 31.8348ZM23.6151 33.5621C23.6745 33.5599 23.7326 33.54 23.7862 33.5036C23.8398 33.4672 23.8878 33.415 23.9275 33.3499C23.9671 33.2847 23.9977 33.2081 24.0174 33.1242C24.037 33.0403 24.0455 32.9508 24.0422 32.8609C24.0389 32.7711 24.0239 32.6825 23.9981 32.6002C23.9724 32.518 23.9363 32.4438 23.892 32.3818C23.8477 32.3197 23.796 32.2711 23.7398 32.2387C23.6837 32.2063 23.6243 32.1908 23.5649 32.193C23.5055 32.1952 23.4473 32.215 23.3937 32.2514C23.3401 32.2878 23.2921 32.3401 23.2525 32.4052C23.2128 32.4703 23.1823 32.547 23.1626 32.6309C23.1429 32.7148 23.1345 32.8042 23.1378 32.8941C23.1411 32.984 23.156 33.0726 23.1818 33.1548C23.2076 33.237 23.2436 33.3113 23.288 33.3733C23.3323 33.4353 23.384 33.4839 23.4401 33.5163C23.4962 33.5487 23.5557 33.5643 23.6151 33.5621Z" fill="#353330"/>
<path d="M26.2537 26.9058C26.6481 26.9661 26.9931 26.8502 27.0242 26.6468C27.0553 26.4435 26.7608 26.2297 26.3663 26.1693C25.9719 26.109 25.6269 26.2249 25.5958 26.4283C25.5647 26.6316 25.8592 26.8454 26.2537 26.9058Z" fill="white"/>
<path d="M28.9895 27.5839C29.3916 27.657 29.748 27.5488 29.7855 27.3424C29.8231 27.1359 29.5275 26.9092 29.1254 26.8362C28.7233 26.7631 28.3669 26.8712 28.3294 27.0777C28.2919 27.2842 28.5874 27.5108 28.9895 27.5839Z" fill="white"/>
<path d="M21.5328 27.7121C21.5463 28.0791 21.7663 28.369 22.0244 28.3595C22.2824 28.3501 22.4806 28.0449 22.4672 27.6779C22.4537 27.3108 22.2336 27.021 21.9756 27.0304C21.7176 27.0399 21.5193 27.3451 21.5328 27.7121Z" fill="white"/>
<path d="M26.1093 27.8598C26.515 27.9089 26.8633 27.7887 26.8872 27.5913C26.911 27.394 26.6015 27.1942 26.1958 27.1451C25.79 27.096 25.4418 27.2162 25.4179 27.4135C25.394 27.6109 25.7035 27.8107 26.1093 27.8598Z" fill="white"/>
<path d="M18.4481 28.3465C18.6647 28.5862 18.9699 28.6635 19.1297 28.5191C19.2895 28.3747 19.2434 28.0633 19.0268 27.8236C18.8102 27.5839 18.5051 27.5066 18.3453 27.651C18.1855 27.7954 18.2315 28.1068 18.4481 28.3465Z" fill="white"/>
<path d="M30.8675 28.4475C30.4559 29.8758 30.06 31.1583 29.68 32.295C29.4875 32.8725 29.505 33.25 28.85 33.5225C27.55 34.0625 26.2384 34.5333 24.915 34.935C24.8861 34.944 24.8553 34.945 24.8258 34.9381C24.7963 34.9312 24.7692 34.9166 24.7473 34.8957C24.7253 34.8748 24.7094 34.8484 24.7011 34.8192C24.6928 34.7901 24.6924 34.7593 24.7 34.73C25.1017 33.115 25.5025 31.4766 25.9025 29.815C26.0775 29.0875 26.3175 28.9625 27 28.8125C28.25 28.5375 29.4359 28.3008 30.5575 28.1025C30.8459 28.0508 30.9492 28.1658 30.8675 28.4475ZM29.2493 30.0298C29.3056 30.0618 29.3703 30.0774 29.4399 30.0759C29.5095 30.0744 29.5825 30.0558 29.6548 30.021C29.7272 29.9863 29.7974 29.9361 29.8614 29.8735C29.9255 29.8108 29.9822 29.7368 30.0282 29.6557C30.0743 29.5747 30.1088 29.4881 30.1299 29.401C30.1509 29.3138 30.158 29.2279 30.1508 29.148C30.1436 29.068 30.1222 28.9957 30.0879 28.9352C30.0536 28.8747 30.007 28.8271 29.9507 28.7951C29.8945 28.7632 29.8297 28.7475 29.7601 28.749C29.6906 28.7505 29.6175 28.7692 29.5452 28.8039C29.4729 28.8387 29.4027 28.8888 29.3386 28.9515C29.2745 29.0141 29.2178 29.0881 29.1718 29.1692C29.1257 29.2503 29.0912 29.3368 29.0702 29.424C29.0491 29.5111 29.042 29.5971 29.0492 29.677C29.0564 29.7569 29.0778 29.8292 29.1121 29.8897C29.1465 29.9503 29.1931 29.9979 29.2493 30.0298ZM26.4865 30.7223C26.6015 30.7909 26.7501 30.7924 26.8997 30.7265C27.0492 30.6607 27.1874 30.5328 27.2838 30.371C27.3802 30.2093 27.427 30.0269 27.4138 29.8641C27.4006 29.7012 27.3286 29.5712 27.2136 29.5026C27.0985 29.434 26.9499 29.4325 26.8004 29.4984C26.6508 29.5643 26.5127 29.6921 26.4162 29.8539C26.3198 30.0156 26.2731 30.198 26.2862 30.3609C26.2994 30.5237 26.3714 30.6537 26.4865 30.7223ZM28.3426 33.093C28.457 33.169 28.6074 33.1804 28.7609 33.1247C28.9144 33.0691 29.0583 32.951 29.161 32.7963C29.2638 32.6417 29.3169 32.4632 29.3087 32.3002C29.3005 32.1371 29.2317 32.0029 29.1174 31.9269C29.0031 31.851 28.8526 31.8396 28.6991 31.8952C28.5457 31.9508 28.4017 32.069 28.299 32.2236C28.1963 32.3782 28.1431 32.5567 28.1513 32.7197C28.1595 32.8828 28.2283 33.0171 28.3426 33.093ZM25.7284 33.9178C25.7861 33.9498 25.8522 33.9653 25.9229 33.9635C25.9937 33.9616 26.0677 33.9424 26.1407 33.9069C26.2137 33.8715 26.2843 33.8205 26.3484 33.7569C26.4126 33.6932 26.469 33.6182 26.5145 33.5361C26.56 33.454 26.5937 33.3663 26.6137 33.2782C26.6337 33.1901 26.6395 33.1032 26.6309 33.0225C26.6223 32.9419 26.5994 32.8689 26.5635 32.8079C26.5276 32.747 26.4794 32.6991 26.4217 32.6671C26.364 32.6351 26.2978 32.6196 26.2271 32.6215C26.1564 32.6233 26.0824 32.6426 26.0094 32.678C25.9364 32.7134 25.8658 32.7644 25.8016 32.8281C25.7375 32.8917 25.681 32.9667 25.6355 33.0488C25.59 33.131 25.5563 33.2186 25.5363 33.3067C25.5163 33.3948 25.5105 33.4817 25.5191 33.5624C25.5277 33.6431 25.5507 33.716 25.5866 33.777C25.6225 33.838 25.6707 33.8858 25.7284 33.9178Z" fill="#353330"/>
<path d="M23.7904 29.3962C23.8063 29.7769 24.0195 30.0772 24.2664 30.0668C24.5133 30.0565 24.7006 29.7394 24.6846 29.3587C24.6686 28.978 24.4555 28.6777 24.2086 28.6881C23.9617 28.6984 23.7744 29.0154 23.7904 29.3962Z" fill="white"/>
<path d="M21.2928 29.36C21.307 29.7297 21.5221 30.0216 21.7732 30.012C22.0243 30.0023 22.2164 29.6948 22.2022 29.325C22.188 28.9553 21.9729 28.6633 21.7218 28.673C21.4707 28.6826 21.2786 28.9902 21.2928 29.36Z" fill="white"/>
<path d="M29.1718 29.1693C28.9781 29.5102 29.0128 29.8955 29.2493 30.0299C29.4858 30.1642 29.8345 29.9967 30.0282 29.6558C30.2219 29.3148 30.1872 28.9295 29.9507 28.7952C29.7142 28.6608 29.3654 28.8283 29.1718 29.1693Z" fill="white"/>
<path d="M26.4162 29.8539C26.2155 30.1907 26.2469 30.5796 26.4865 30.7224C26.726 30.8652 27.083 30.7079 27.2838 30.3711C27.4846 30.0343 27.4531 29.6455 27.2136 29.5026C26.974 29.3598 26.617 29.5171 26.4162 29.8539Z" fill="white"/>
<path d="M21.0128 30.928C21.0252 31.3019 21.2444 31.5982 21.5025 31.5896C21.7605 31.581 21.9597 31.2709 21.9473 30.897C21.9349 30.523 21.7156 30.2268 21.4576 30.2353C21.1995 30.2439 21.0004 30.554 21.0128 30.928Z" fill="white"/>
<path d="M23.4551 31.1674C23.465 31.5428 23.6844 31.8416 23.9453 31.8348C24.2061 31.828 24.4097 31.5181 24.3998 31.1427C24.39 30.7672 24.1705 30.4684 23.9097 30.4753C23.6488 30.4821 23.4453 30.792 23.4551 31.1674Z" fill="white"/>
<path d="M28.299 32.2237C28.085 32.5457 28.1046 32.9349 28.3426 33.0931C28.5807 33.2513 28.9471 33.1184 29.161 32.7964C29.375 32.4744 29.3554 32.0852 29.1174 31.927C28.8793 31.7688 28.5129 31.9017 28.299 32.2237Z" fill="white"/>
<path d="M23.1378 32.8941C23.1517 33.2722 23.3654 33.5712 23.6151 33.5621C23.8648 33.5529 24.0561 33.239 24.0422 32.8609C24.0283 32.4829 23.8146 32.1838 23.5649 32.193C23.3152 32.2021 23.1239 32.516 23.1378 32.8941Z" fill="white"/>
<path d="M25.6355 33.0489C25.4441 33.3943 25.4856 33.7833 25.7284 33.9179C25.9711 34.0524 26.3231 33.8815 26.5145 33.5361C26.7059 33.1907 26.6644 32.8017 26.4216 32.6671C26.1789 32.5326 25.827 32.7035 25.6355 33.0489Z" fill="white"/>
</svg>
