<svg width="166" height="58" viewBox="0 0 166 58" fill="none" xmlns="http://www.w3.org/2000/svg">
<path d="M70.7189 8.20104C70.7164 6.75985 70.1414 5.37869 69.1206 4.36139C68.0997 3.34409 66.7166 2.77399 65.2754 2.7765L55.8114 2.79303C54.3702 2.79555 52.989 3.37047 51.9717 4.39133C50.9544 5.41218 50.3843 6.79534 50.3868 8.23653L50.4259 30.625C50.4285 32.0662 51.0034 33.4474 52.0242 34.4647C53.0451 35.482 54.4282 36.0521 55.8694 36.0496L65.3334 36.033C66.7746 36.0305 68.1558 35.4556 69.1731 34.4347C70.1904 33.4139 70.7605 32.0307 70.758 30.5895L70.7189 8.20104Z" stroke="#808080"/>
<path d="M93.055 8.28524C93.055 6.82644 92.4755 5.4274 91.4439 4.39588C90.4124 3.36435 89.0134 2.78485 87.5546 2.78485H78.168C76.7092 2.78485 75.3101 3.36435 74.2786 4.39588C73.2471 5.4274 72.6676 6.82644 72.6676 8.28524V30.5411C72.6676 31.9999 73.2471 33.3989 74.2786 34.4304C75.3101 35.462 76.7092 36.0415 78.168 36.0415H87.5546C89.0134 36.0415 90.4124 35.462 91.4439 34.4304C92.4755 33.3989 93.055 31.9999 93.055 30.5411V8.28524Z" stroke="#808080"/>
<path d="M115.546 8.47439C115.548 6.99215 114.962 5.56959 113.916 4.51965C112.87 3.46972 111.449 2.87842 109.967 2.87582L100.713 2.85963C99.9789 2.85835 99.2519 3.00164 98.5733 3.28133C97.8948 3.56101 97.278 3.97161 96.7581 4.48968C96.2382 5.00774 95.8255 5.62314 95.5434 6.30072C95.2614 6.9783 95.1155 7.7048 95.1143 8.43873L95.0756 30.5618C95.073 32.0441 95.6594 33.4666 96.7057 34.5166C97.7519 35.5665 99.1724 36.1578 100.655 36.1604L109.909 36.1766C110.643 36.1779 111.37 36.0346 112.048 35.7549C112.727 35.4752 113.343 35.0646 113.863 34.5465C114.383 34.0285 114.796 33.4131 115.078 32.7355C115.36 32.0579 115.506 31.3314 115.507 30.5975L115.546 8.47439Z" stroke="#808080"/>
<path d="M36.7023 51.6857C36.4315 50.8233 36.1606 47.899 37.0174 47.1306C37.1582 47.0045 37.3246 46.9103 37.5053 46.8545C37.686 46.7987 37.8767 46.7826 38.0645 46.8073C38.2523 46.8319 38.4328 46.8968 38.5936 46.9974C38.7544 47.098 38.8918 47.2321 38.9965 47.3904L39.4166 48.0262C39.5566 48.2362 39.7428 48.2933 39.9749 48.1975L41.5062 47.5673C41.5801 47.5363 41.647 47.4905 41.7026 47.4328C41.7583 47.3751 41.8017 47.3067 41.8302 47.2318C41.8586 47.1568 41.8715 47.0768 41.8681 46.9967C41.8646 46.9166 41.845 46.838 41.8102 46.7658C40.7083 44.514 38.8693 43.7806 36.2933 44.5656C33.8554 45.3064 33.6785 48.1091 33.767 50.4032C33.8886 53.779 35.6612 55.2421 39.0849 54.7925C40.4817 54.6082 41.3883 53.7016 41.8047 52.0727C41.8637 51.8552 41.7863 51.7041 41.5725 51.6194L39.7814 50.9284C39.7414 50.912 39.6984 50.9043 39.6551 50.9055C39.6118 50.9068 39.5691 50.9171 39.5297 50.9358C39.4903 50.9545 39.455 50.9811 39.426 51.014C39.3971 51.047 39.375 51.0856 39.3613 51.1274C38.9891 52.2919 38.2299 52.6199 37.0838 52.1114C36.8921 52.0266 36.765 51.8847 36.7023 51.6857Z" stroke="#808080"/>
<path d="M47.3659 51.1383C47.4754 51.167 47.5728 51.2293 47.6446 51.3166C47.7164 51.4039 47.7589 51.5117 47.7663 51.625C47.7736 51.7383 47.7453 51.8514 47.6854 51.9485C47.6255 52.0456 47.537 52.1219 47.4322 52.1665C46.3008 52.642 45.3647 52.4061 44.624 51.459C44.4987 51.3005 44.3402 51.2544 44.1486 51.3208L42.6781 51.8459C42.5984 51.8744 42.5308 51.9288 42.4865 52.0003C42.4423 52.0717 42.424 52.1557 42.4349 52.2384C42.9324 55.909 49.7208 55.7487 50.3565 52.0726C50.8872 48.9769 48.1232 48.319 45.7904 48.1035C45.6306 48.0871 45.4818 48.0147 45.3703 47.8991C45.2588 47.7835 45.1919 47.6322 45.1813 47.4719C45.1707 47.3117 45.2171 47.1528 45.3124 47.0236C45.4077 46.8943 45.5457 46.8029 45.7019 46.7657C46.6896 46.5409 47.3806 46.8191 47.7749 47.6004C47.8239 47.6983 47.9086 47.7735 48.0115 47.8106C48.1144 47.8476 48.2277 47.8436 48.3277 47.7994L49.8811 47.0973C50.0875 47.0052 50.1723 46.8467 50.1354 46.6219C49.6047 43.4323 42.8329 43.272 42.5675 47.3572C42.3575 50.6242 45.0994 50.5192 47.3659 51.1383Z" stroke="#808080"/>
<path d="M56.255 51.1216C56.3609 51.1236 56.4631 51.1617 56.5444 51.2297C56.6257 51.2977 56.6813 51.3914 56.7019 51.4954C56.7226 51.5993 56.7071 51.7072 56.6579 51.8011C56.6088 51.895 56.529 51.9693 56.4319 52.0116C54.79 52.7026 53.889 52.3875 53.8613 50.5025C53.8392 49.325 53.3859 46.0303 55.8183 46.9093C56.0084 46.9775 56.1713 47.1055 56.2826 47.2741L56.7525 48.0038C56.8043 48.0822 56.8814 48.1403 56.971 48.1685C57.0606 48.1967 57.1572 48.1932 57.2445 48.1586L58.8974 47.5173C58.9918 47.4812 59.0697 47.4118 59.1165 47.3222C59.1634 47.2326 59.1759 47.129 59.1517 47.0309C58.3943 43.9739 54.1599 43.4708 52.2582 45.4388C51.6612 46.0543 51.3111 47.0401 51.2079 48.3963C50.9591 51.7629 51.3793 55.3008 55.8183 54.853C59.1682 54.5158 59.4778 51.9729 59.1793 49.0763C59.1572 48.8662 59.0411 48.7612 58.831 48.7612L55.2489 48.7501C55.1399 48.7501 55.0352 48.793 54.9576 48.8696C54.88 48.9461 54.8357 49.0502 54.8343 49.1592L54.8177 50.6739C54.814 50.965 54.9596 51.1124 55.2544 51.1161L56.255 51.1216Z" stroke="#808080"/>
<path d="M68.3364 48.0196C68.339 47.5375 68.2465 47.0597 68.0644 46.6134C67.8822 46.1671 67.614 45.7611 67.2749 45.4184C66.9359 45.0758 66.5326 44.8033 66.0883 44.6165C65.6439 44.4297 65.1671 44.3323 64.6851 44.3298L63.9112 44.3257C62.9377 44.3206 62.002 44.7025 61.3101 45.3872C60.6181 46.072 60.2265 47.0036 60.2214 47.9771L60.2047 51.1611C60.2022 51.6432 60.2946 52.121 60.4768 52.5673C60.6589 53.0136 60.9271 53.4196 61.2662 53.7623C61.6053 54.1049 62.0085 54.3774 62.4529 54.5642C62.8972 54.751 63.374 54.8484 63.8561 54.8509L64.6299 54.855C65.6034 54.8601 66.5391 54.4782 67.231 53.7935C67.923 53.1087 68.3146 52.1771 68.3197 51.2037L68.3364 48.0196Z" stroke="#808080"/>
<path d="M88.1517 46.7713C89.1836 46.5465 89.8948 46.8376 90.2855 47.6447C90.3273 47.7305 90.4011 47.7965 90.491 47.8285C90.5809 47.8606 90.6798 47.8561 90.7664 47.8161L92.4359 47.0477C92.646 46.9519 92.7086 46.7952 92.6238 46.5778C91.2971 43.1449 85.0836 43.4324 84.9786 47.6392C84.9067 50.4916 87.82 50.7238 89.8377 51.1053C89.9421 51.1244 90.0381 51.1754 90.1124 51.2512C90.1866 51.3271 90.2356 51.424 90.2526 51.5288C90.2695 51.6336 90.2537 51.7411 90.2071 51.8365C90.1605 51.9319 90.0856 52.0105 89.9925 52.0616C88.8353 52.7029 87.855 52.4781 87.0516 51.3872C86.9521 51.2508 86.8249 51.214 86.6702 51.2766L85.067 51.9013C84.9719 51.9386 84.8946 52.011 84.8514 52.1036C84.8082 52.1962 84.8023 52.3019 84.8349 52.3988C86.3827 56.976 94.719 54.7648 92.552 50.1379C91.8223 48.5734 89.8764 48.1533 88.3009 48.1533C88.1243 48.1607 87.9514 48.1006 87.8175 47.9853C87.6835 47.8699 87.5984 47.7079 87.5794 47.5322C87.5604 47.3564 87.609 47.18 87.7152 47.0387C87.8215 46.8974 87.9775 46.8018 88.1517 46.7713Z" stroke="#808080"/>
<path d="M110.004 51.1219C109.44 52.222 108.517 52.8632 107.428 51.929C107.361 51.8728 107.306 51.8038 107.267 51.726C107.227 51.6482 107.203 51.5631 107.196 51.4757C107.058 49.8615 106.499 46.2738 108.876 46.8543C109.484 47.0035 109.772 47.5729 110.032 48.0925C110.067 48.1659 110.13 48.2227 110.207 48.2514C110.284 48.2802 110.369 48.2787 110.446 48.2473L112.066 47.5674C112.159 47.5293 112.236 47.4628 112.287 47.3779C112.338 47.2931 112.359 47.1946 112.348 47.0975C111.922 43.261 104.968 43.2058 104.542 47.6945C104.365 49.5556 104.456 51.2951 104.813 52.913C104.86 53.1277 104.976 53.3204 105.145 53.4603C107.618 55.5462 109.919 55.454 112.049 53.1839C112.163 53.0624 112.247 52.9158 112.293 52.756C112.34 52.5962 112.347 52.4278 112.316 52.2648C112.285 52.1017 112.215 51.9487 112.113 51.8182C112.011 51.6877 111.879 51.5836 111.729 51.5144L110.513 50.9505C110.422 50.9078 110.319 50.9018 110.224 50.9337C110.129 50.9657 110.05 51.0331 110.004 51.1219Z" stroke="#7C7222"/>
<path d="M121.251 48.0143C121.256 47.0423 120.875 46.108 120.191 45.4171C119.507 44.7262 118.577 44.3352 117.605 44.3301L116.853 44.3262C116.372 44.3236 115.895 44.4159 115.449 44.5978C115.004 44.7796 114.598 45.0475 114.256 45.386C113.914 45.7246 113.642 46.1272 113.455 46.5709C113.269 47.0146 113.171 47.4907 113.169 47.972L113.152 51.1893C113.147 52.1613 113.528 53.0955 114.212 53.7864C114.896 54.4774 115.826 54.8684 116.798 54.8735L117.55 54.8774C118.031 54.8799 118.508 54.7876 118.954 54.6058C119.399 54.4239 119.805 54.1561 120.147 53.8175C120.489 53.479 120.761 53.0764 120.948 52.6327C121.134 52.1889 121.232 51.7128 121.234 51.2315L121.251 48.0143Z" stroke="#7C7222"/>
<path d="M72.5018 48.6507C72.4129 48.6493 72.3279 48.6133 72.265 48.5504C72.202 48.4875 72.1661 48.4025 72.1646 48.3135L72.1481 47.4346C72.1473 47.3891 72.1556 47.3439 72.1725 47.3017C72.1894 47.2595 72.2146 47.221 72.2465 47.1886C72.2784 47.1562 72.3164 47.1305 72.3583 47.1129C72.4003 47.0953 72.4453 47.0863 72.4908 47.0863H75.8187C75.9086 47.0863 75.995 47.051 76.0591 46.9879C76.1232 46.9248 76.16 46.839 76.1614 46.7491L76.1725 44.8419C76.1725 44.752 76.1371 44.6656 76.074 44.6015C76.011 44.5374 75.9252 44.5006 75.8353 44.4992L69.8318 44.4937C69.7409 44.4937 69.6537 44.5298 69.5895 44.594C69.5252 44.6583 69.4891 44.7455 69.4891 44.8364V54.3169C69.4891 54.3629 69.4983 54.4084 69.5162 54.4507C69.5341 54.493 69.5603 54.5313 69.5933 54.5633C69.6263 54.5953 69.6654 54.6203 69.7083 54.6368C69.7512 54.6534 69.7969 54.6612 69.8429 54.6597L71.8772 54.6099C71.9671 54.607 72.0523 54.5689 72.1144 54.5037C72.1764 54.4386 72.2104 54.3516 72.2089 54.2617L72.1646 51.564C72.1639 51.5185 72.1722 51.4734 72.1891 51.4311C72.206 51.3889 72.2312 51.3505 72.263 51.3181C72.2949 51.2856 72.333 51.2599 72.3749 51.2423C72.4169 51.2248 72.4619 51.2157 72.5074 51.2157L75.0945 51.1991C75.1844 51.1992 75.2708 51.1638 75.3349 51.1007C75.399 51.0376 75.4358 50.9519 75.4372 50.8619L75.4593 49.0156C75.4601 48.9706 75.4519 48.9258 75.4354 48.884C75.4188 48.8421 75.3942 48.8039 75.3629 48.7716C75.3316 48.7392 75.2942 48.7134 75.2529 48.6955C75.2116 48.6776 75.1671 48.668 75.1221 48.6673L72.5018 48.6507Z" stroke="#808080"/>
<path d="M81.5678 53.2833C81.6231 54.9528 83.2428 54.8699 84.47 54.4608C84.6395 54.4055 84.6967 54.2931 84.6414 54.1236L81.7447 45.3838C81.6335 45.0518 81.4208 44.7629 81.1367 44.558C80.8527 44.353 80.5116 44.2424 80.1619 44.2418C79.8122 44.2412 79.4715 44.3506 79.188 44.5546C78.9046 44.7585 78.6928 45.0467 78.5827 45.3783L75.6528 54.1568C75.6342 54.215 75.6298 54.2768 75.6401 54.3371C75.6503 54.3973 75.6749 54.4542 75.7117 54.503C75.7486 54.5518 75.7966 54.591 75.8518 54.6173C75.9069 54.6436 75.9676 54.6563 76.0287 54.6543L77.9359 54.5935C78.1607 54.5861 78.3044 54.4737 78.3671 54.2563L78.6324 53.3055C78.6877 53.1064 78.8185 53.0069 79.0249 53.0069L81.2582 52.9848C81.4572 52.9848 81.5604 53.0843 81.5678 53.2833Z" stroke="#808080"/>
<path d="M98.4504 47.5396C98.4504 47.4247 98.4957 47.3145 98.5764 47.2327C98.6571 47.151 98.7667 47.1043 98.8816 47.1029L100.551 47.0863C100.665 47.0849 100.774 47.039 100.854 46.9584C100.935 46.8779 100.981 46.769 100.982 46.6551L100.999 44.9359C101 44.8781 100.989 44.8207 100.967 44.7671C100.946 44.7134 100.914 44.6647 100.873 44.6235C100.832 44.5824 100.784 44.5497 100.731 44.5274C100.677 44.5051 100.62 44.4936 100.562 44.4937L93.724 44.5102C93.6652 44.5102 93.607 44.522 93.5529 44.545C93.4988 44.568 93.4499 44.6016 93.4091 44.6439C93.3684 44.6863 93.3365 44.7364 93.3156 44.7913C93.2947 44.8462 93.285 44.9048 93.2872 44.9635L93.3591 46.6717C93.3634 46.7856 93.4121 46.8933 93.4947 46.9718C93.5773 47.0503 93.6874 47.0933 93.8013 47.0918L95.4155 47.0697C95.4733 47.069 95.5307 47.0797 95.5844 47.1014C95.638 47.123 95.6868 47.155 95.7279 47.1957C95.7691 47.2363 95.8017 47.2847 95.824 47.338C95.8463 47.3914 95.8578 47.4486 95.8578 47.5064V54.2119C95.8578 54.2702 95.8694 54.3279 95.892 54.3816C95.9147 54.4354 95.9478 54.484 95.9896 54.5247C96.0313 54.5654 96.0808 54.5973 96.135 54.6186C96.1893 54.6399 96.2473 54.6501 96.3055 54.6486L98.0248 54.6155C98.1396 54.614 98.2493 54.5674 98.33 54.4856C98.4107 54.4039 98.456 54.2936 98.4559 54.1787L98.4504 47.5396Z" stroke="#808080"/>
<path d="M129.833 49.0045C129.431 50.7476 129.328 52.5166 129.523 54.3114C129.542 54.5104 129.652 54.6099 129.855 54.6099L131.674 54.5988C131.76 54.5988 131.843 54.5645 131.904 54.5033C131.966 54.4421 132 54.3592 132 54.2727V44.8474C132 44.6152 131.884 44.4991 131.652 44.4991L129.794 44.4936C129.721 44.4939 129.65 44.5148 129.588 44.5539C129.527 44.593 129.477 44.6488 129.446 44.7147L127.356 49.1427C127.242 49.3822 127.13 49.3822 127.019 49.1427L125.007 44.7976C124.911 44.5876 124.747 44.4844 124.515 44.4881L122.818 44.4936C122.715 44.4936 122.617 44.535 122.544 44.6086C122.472 44.6822 122.431 44.782 122.431 44.8861V54.2837C122.431 54.3292 122.44 54.3742 122.458 54.4162C122.475 54.4581 122.501 54.4962 122.533 54.5281C122.566 54.56 122.604 54.5851 122.646 54.602C122.689 54.6189 122.734 54.6272 122.779 54.6265L124.498 54.5988C124.764 54.5952 124.908 54.4606 124.93 54.1953C125.081 52.2973 124.919 50.4325 124.443 48.6009C124.432 48.5493 124.443 48.518 124.476 48.5069C124.502 48.4922 124.521 48.4977 124.532 48.5235C125.048 49.8761 125.541 51.0701 126.013 52.1057C126.115 52.3303 126.28 52.5204 126.489 52.6528C126.697 52.7851 126.939 52.854 127.186 52.8511C127.433 52.8482 127.673 52.7735 127.878 52.6363C128.083 52.499 128.244 52.305 128.34 52.078L129.678 48.9547C129.918 48.3909 129.969 48.4074 129.833 49.0045Z" stroke="#7C7222"/>
<path d="M103.481 52.714C103.479 52.4882 103.387 52.2725 103.226 52.1142C103.065 51.956 102.848 51.8682 102.622 51.8701L101.793 51.8773C101.681 51.8783 101.571 51.9013 101.468 51.945C101.365 51.9887 101.272 52.0522 101.193 52.1319C101.115 52.2117 101.053 52.3061 101.011 52.4097C100.969 52.5134 100.948 52.6243 100.949 52.7361L100.96 53.9743C100.962 54.2 101.054 54.4158 101.215 54.574C101.376 54.7323 101.593 54.8201 101.819 54.8181L102.648 54.8109C102.76 54.81 102.87 54.787 102.973 54.7433C103.076 54.6996 103.169 54.6361 103.248 54.5564C103.326 54.4766 103.388 54.3822 103.43 54.2786C103.472 54.1749 103.493 54.064 103.492 53.9522L103.481 52.714Z" stroke="#7C7222"/>
<path d="M68.9695 8.3625C68.9695 7.389 68.5828 6.45536 67.8944 5.76699C67.206 5.07862 66.2724 4.69189 65.2989 4.69189H55.6912C54.7177 4.69189 53.784 5.07862 53.0957 5.76699C52.4073 6.45536 52.0206 7.389 52.0206 8.3625V30.4525C52.0206 31.426 52.4073 32.3596 53.0957 33.048C53.784 33.7364 54.7177 34.1231 55.6912 34.1231H65.2989C66.2724 34.1231 67.206 33.7364 67.8944 33.048C68.5828 32.3596 68.9695 31.426 68.9695 30.4525V8.3625Z" stroke="#808080"/>
<path d="M91.3801 8.37909C91.3801 7.40118 90.9916 6.46333 90.3001 5.77185C89.6087 5.08037 88.6708 4.69189 87.6929 4.69189H78.0962C77.1183 4.69189 76.1805 5.08037 75.489 5.77185C74.7975 6.46333 74.4091 7.40118 74.4091 8.37909V30.4359C74.4091 31.4138 74.7975 32.3517 75.489 33.0432C76.1805 33.7346 77.1183 34.1231 78.0962 34.1231H87.6929C88.6708 34.1231 89.6087 33.7346 90.3001 33.0432C90.9916 32.3517 91.3801 31.4138 91.3801 30.4359V8.37909Z" stroke="#808080"/>
<path d="M113.777 8.48056C113.776 7.992 113.679 7.50838 113.491 7.05733C113.304 6.60628 113.029 6.19663 112.683 5.85176C112.337 5.50689 111.926 5.23357 111.474 5.04739C111.023 4.86121 110.539 4.76582 110.05 4.76667L100.553 4.78325C100.064 4.7841 99.5808 4.88117 99.1298 5.06893C98.6787 5.25668 98.2691 5.53144 97.9242 5.87751C97.5793 6.22359 97.306 6.6342 97.1198 7.08591C96.9336 7.53761 96.8383 8.02157 96.8391 8.51014L96.8776 30.5448C96.8784 31.0334 96.9755 31.517 97.1633 31.968C97.351 32.4191 97.6258 32.8287 97.9718 33.1736C98.3179 33.5185 98.7285 33.7918 99.1802 33.978C99.6319 34.1641 100.116 34.2595 100.604 34.2587L110.102 34.2421C110.59 34.2413 111.074 34.1442 111.525 33.9564C111.976 33.7687 112.386 33.4939 112.73 33.1478C113.075 32.8018 113.349 32.3912 113.535 31.9394C113.721 31.4877 113.816 31.0038 113.815 30.5152L113.777 8.48056Z" stroke="#808080"/>
<path d="M60.0859 25.925C61.0809 27.893 61.385 29.9752 60.998 32.1716C60.9685 32.3449 61.0422 32.4296 61.2191 32.4259L62.7006 32.4204C62.8923 32.4204 62.9862 32.3227 62.9826 32.1274C62.8775 28.1472 60.611 22.4036 56.6143 20.513C56.5806 20.4996 56.5435 20.4976 56.5086 20.5073C56.4737 20.517 56.4429 20.5379 56.4209 20.5667C56.399 20.5955 56.3871 20.6308 56.3871 20.667C56.3871 20.7032 56.3989 20.7385 56.4208 20.7673C59.2511 24.0694 59.9827 27.8321 58.6154 32.0556C58.5564 32.2472 58.6246 32.3596 58.8199 32.3928C60.7548 32.7521 60.1024 27.2683 59.8537 26.0024C59.7358 25.4017 59.8131 25.3759 60.0859 25.925Z" stroke="#7C7222"/>
<path d="M84.2931 12.1051C85.3139 14.0546 85.6585 16.135 85.3268 18.3462C85.301 18.5268 85.2273 18.6871 85.1057 18.8271L84.6856 19.3302C84.6584 19.3624 84.642 19.4026 84.6385 19.4448C84.6351 19.4871 84.6449 19.5291 84.6665 19.5649C84.6881 19.6007 84.7204 19.6283 84.7586 19.6438C84.7968 19.6592 84.839 19.6617 84.8791 19.6508L86.8581 19.1699C87.1013 19.1072 87.2211 18.9506 87.2174 18.7C87.1179 13.6031 85.008 9.63033 80.8878 6.78156C80.8561 6.76346 80.8191 6.75674 80.7831 6.76251C80.747 6.76827 80.714 6.78617 80.6895 6.81325C80.665 6.84033 80.6505 6.87497 80.6483 6.91143C80.6462 6.94788 80.6566 6.98398 80.6778 7.01373C83.5486 10.4669 84.2378 14.3808 82.7452 18.7553C82.6789 18.9506 82.7489 19.0372 82.9553 19.0151C85.1002 18.7718 84.3815 13.5147 84.072 12.188C84.066 12.1591 84.0706 12.1286 84.085 12.1023C84.0994 12.076 84.1225 12.0558 84.1499 12.0455C84.1773 12.0352 84.2071 12.0356 84.2335 12.0466C84.26 12.0576 84.2812 12.0784 84.2931 12.1051Z" stroke="#7C7222"/>
<path d="M81.2416 27.4452L80.02 27.3402C79.8467 27.3254 79.6827 27.3586 79.528 27.4397C77.466 28.5342 78.2952 30.2921 79.1355 31.8289C79.1981 31.9469 79.2958 31.9985 79.4285 31.9837L82.0487 31.7184C82.1815 31.704 82.3041 31.6476 82.397 31.5581C83.6021 30.4359 87.0129 26.5718 86.4214 24.4822C86.0013 23.0062 85.9902 21.674 87.3556 20.7784C87.4603 20.7162 87.5371 20.6161 87.5702 20.4988C87.6033 20.3816 87.5901 20.2562 87.5333 20.1484C87.4766 20.0406 87.3807 19.9587 87.2653 19.9196C87.15 19.8804 87.024 19.8871 86.9134 19.9382C85.1923 20.6347 83.5413 20.5241 81.9603 19.6065C81.8829 19.5622 81.8055 19.5622 81.7281 19.6065L81.5623 19.7115C81.532 19.7309 81.5069 19.7574 81.4892 19.7887C81.4714 19.8199 81.4616 19.8551 81.4605 19.891C81.4594 19.927 81.4671 19.9626 81.4829 19.9949C81.4987 20.0272 81.5222 20.0552 81.5512 20.0764L83.5081 21.5358C83.674 21.6574 83.7827 21.8177 83.8343 22.0167C84.0517 22.8238 83.7938 23.2918 83.0604 23.4208C82.8098 23.465 82.7176 23.6088 82.784 23.852C83.0346 24.766 82.725 25.3519 81.8553 25.6099C81.7952 25.6281 81.7422 25.6644 81.7036 25.7139C81.665 25.7634 81.6427 25.8236 81.6397 25.8863L81.5733 27.1522C81.5623 27.3623 81.4517 27.46 81.2416 27.4452Z" stroke="#7C7222"/>
<path d="M103.21 13.4925C101.701 13.2603 100.634 13.9016 100.584 15.4881C100.557 16.3616 101.137 17.0305 101.469 17.8652C101.535 18.031 101.655 18.101 101.828 18.0753L104.266 17.727C104.476 17.6975 104.66 17.6109 104.819 17.4672C106.672 15.783 108.042 13.7615 108.926 11.4029C108.968 11.2898 108.985 11.169 108.978 11.0482C108.97 10.9273 108.937 10.809 108.882 10.7009C108.189 9.39257 108.336 8.22615 109.324 7.20163C109.354 7.16934 109.374 7.12893 109.382 7.08537C109.389 7.04181 109.384 6.997 109.366 6.95647C109.349 6.91593 109.32 6.88143 109.283 6.85722C109.246 6.83301 109.202 6.82014 109.158 6.82019L105.3 6.84783C105.247 6.84752 105.195 6.86679 105.155 6.90195C105.116 6.93711 105.09 6.98569 105.084 7.03839C105.078 7.0911 105.092 7.14422 105.122 7.18759C105.153 7.23097 105.198 7.26155 105.25 7.27349C106.016 7.4725 106.367 7.93501 106.3 8.66102C106.288 8.77471 106.248 8.88345 106.183 8.97718C106.119 9.07091 106.031 9.1466 105.93 9.19724L105.471 9.42942C105.261 9.53261 105.178 9.7003 105.222 9.93247C105.381 10.7654 105.056 11.3347 104.249 11.6406C104.156 11.6767 104.08 11.7455 104.034 11.8341C103.988 11.9226 103.976 12.0249 104.001 12.1216C104.118 12.5822 104.017 12.9839 103.696 13.3267C103.564 13.4667 103.402 13.522 103.21 13.4925Z" stroke="#7C7222"/>
<path d="M103.857 15.5822C103.857 15.2215 103.713 14.8756 103.458 14.6206C103.203 14.3656 102.858 14.2223 102.497 14.2223C102.136 14.2223 101.79 14.3656 101.535 14.6206C101.28 14.8756 101.137 15.2215 101.137 15.5822C101.137 15.9429 101.28 16.2887 101.535 16.5438C101.79 16.7988 102.136 16.9421 102.497 16.9421C102.858 16.9421 103.203 16.7988 103.458 16.5438C103.713 16.2887 103.857 15.9429 103.857 15.5822Z" stroke="#7C7222"/>
<path d="M80.295 31.027C80.6381 30.9958 80.9533 30.8138 81.1713 30.5213C81.3893 30.2287 81.4922 29.8494 81.4574 29.4669C81.4226 29.0843 81.2529 28.7299 80.9857 28.4815C80.7184 28.233 80.3755 28.111 80.0324 28.1423C79.6893 28.1735 79.3741 28.3554 79.1561 28.648C78.9381 28.9406 78.8352 29.3198 78.87 29.7024C78.9048 30.0849 79.0745 30.4394 79.3417 30.6878C79.609 30.9362 79.9519 31.0582 80.295 31.027Z" stroke="#7C7222"/>
<path d="M65.6415 48.0925C65.6415 47.9263 65.6088 47.7617 65.5452 47.6081C65.4816 47.4545 65.3883 47.3149 65.2708 47.1974C65.1532 47.0798 65.0136 46.9866 64.8601 46.923C64.7065 46.8593 64.5419 46.8266 64.3756 46.8266H64.1213C63.9551 46.8266 63.7905 46.8593 63.6369 46.923C63.4833 46.9866 63.3437 47.0798 63.2262 47.1974C63.1086 47.3149 63.0154 47.4545 62.9518 47.6081C62.8882 47.7617 62.8554 47.9263 62.8554 48.0925V51.0555C62.8554 51.2218 62.8882 51.3864 62.9518 51.54C63.0154 51.6936 63.1086 51.8331 63.2262 51.9507C63.3437 52.0682 63.4833 52.1615 63.6369 52.2251C63.7905 52.2887 63.9551 52.3215 64.1213 52.3215H64.3756C64.5419 52.3215 64.7065 52.2887 64.8601 52.2251C65.0136 52.1615 65.1532 52.0682 65.2708 51.9507C65.3883 51.8331 65.4816 51.6936 65.5452 51.54C65.6088 51.3864 65.6415 51.2218 65.6415 51.0555V48.0925Z" stroke="#808080"/>
<path d="M118.584 48.0661C118.582 47.7347 118.448 47.4179 118.212 47.1853C117.976 46.9526 117.657 46.8232 117.326 46.8255L117.05 46.8275C116.885 46.8286 116.723 46.8621 116.572 46.9259C116.421 46.9897 116.284 47.0827 116.169 47.1995C116.053 47.3164 115.962 47.4547 115.901 47.6067C115.839 47.7587 115.808 47.9214 115.809 48.0855L115.83 51.0816C115.832 51.4129 115.966 51.7298 116.202 51.9624C116.438 52.1951 116.757 52.3245 117.088 52.3222L117.364 52.3202C117.528 52.3191 117.691 52.2856 117.842 52.2218C117.993 52.158 118.13 52.065 118.245 51.9481C118.36 51.8313 118.451 51.693 118.513 51.541C118.575 51.389 118.606 51.2263 118.605 51.0622L118.584 48.0661Z" stroke="#7C7222"/>
<path d="M80.136 47.9155C80.0918 47.7423 80.0512 47.7441 80.0144 47.921L79.4616 50.4252C79.41 50.6537 79.5021 50.7698 79.738 50.7735H80.5119C80.7404 50.7735 80.827 50.6647 80.7717 50.4473L80.136 47.9155Z" stroke="#808080"/>
<path d="M70.75 30.5438C70.7525 31.9839 70.1858 33.3661 69.1745 34.3863C68.1633 35.4064 66.7903 35.981 65.3577 35.9835L55.95 36C54.5174 36.0025 53.1424 35.4328 52.1277 34.4162C51.1129 33.3996 50.5414 32.0194 50.5389 30.5792L50.5 8.20625C50.4975 6.76606 51.0642 5.38386 52.0755 4.36372C53.0867 3.34357 54.4597 2.76904 55.8923 2.76653L65.3 2.75001C66.7326 2.7475 68.1076 3.31721 69.1223 4.3338C70.1371 5.35039 70.7086 6.7306 70.7111 8.17079L70.75 30.5438ZM68.9721 8.33215C68.9721 7.35932 68.5877 6.42633 67.9034 5.73844C67.2192 5.05054 66.2911 4.66409 65.3234 4.66409H55.7728C54.8051 4.66409 53.877 5.05054 53.1927 5.73844C52.5084 6.42633 52.124 7.35932 52.124 8.33215V30.4068C52.124 31.3796 52.5084 32.3126 53.1927 33.0005C53.877 33.6884 54.8051 34.0749 55.7728 34.0749H65.3234C66.2911 34.0749 67.2192 33.6884 67.9034 33.0005C68.5877 32.3126 68.9721 31.3796 68.9721 30.4068V8.33215Z" fill="white"/>
<path d="M93 30.5007C93 31.9592 92.4173 33.358 91.3801 34.3893C90.3428 35.4206 88.9361 36 87.4692 36H78.0308C76.5639 36 75.1571 35.4206 74.1199 34.3893C73.0827 33.358 72.5 31.9592 72.5 30.5007V8.24929C72.5 6.79079 73.0827 5.39202 74.1199 4.36071C75.1571 3.32939 76.5639 2.75 78.0308 2.75H87.4692C88.9361 2.75 90.3428 3.32939 91.3801 4.36071C92.4173 5.39202 93 6.79079 93 8.24929V30.5007ZM91.3158 8.34325C91.3158 7.36554 90.9251 6.42788 90.2298 5.73653C89.5345 5.04518 88.5915 4.65679 87.6082 4.65679H77.9585C76.9752 4.65679 76.0322 5.04518 75.3369 5.73653C74.6416 6.42788 74.2509 7.36554 74.2509 8.34325V30.3957C74.2509 31.3734 74.6416 32.3111 75.3369 33.0024C76.0322 33.6938 76.9752 34.0822 77.9585 34.0822H87.6082C88.5915 34.0822 89.5345 33.6938 90.2298 33.0024C90.9251 32.3111 91.3158 31.3734 91.3158 30.3957V8.34325Z" fill="white"/>
<path d="M115.461 30.6402C115.46 31.3782 115.314 32.1087 115.032 32.79C114.749 33.4713 114.336 34.0901 113.815 34.611C113.294 35.1319 112.677 35.5448 111.997 35.826C111.318 36.1072 110.59 36.2513 109.855 36.25L100.587 36.2337C99.1028 36.2311 97.6802 35.6366 96.6324 34.5809C95.5846 33.5252 94.9974 32.0948 95 30.6044L95.0387 8.35976C95.04 7.62179 95.186 6.8913 95.4685 6.21C95.7509 5.5287 96.1643 4.90993 96.6849 4.38901C97.2055 3.8681 97.8233 3.45524 98.5028 3.17402C99.1824 2.8928 99.9104 2.74872 100.645 2.75001L109.913 2.76629C111.397 2.7689 112.82 3.36345 113.868 4.41915C114.915 5.47485 115.503 6.90523 115.5 8.39561L115.461 30.6402ZM113.729 8.40173C113.728 7.91048 113.631 7.42421 113.443 6.97068C113.255 6.51715 112.979 6.10525 112.633 5.75849C112.286 5.41172 111.875 5.13689 111.423 4.94969C110.97 4.76249 110.486 4.66658 109.996 4.66743L100.485 4.68411C99.9961 4.68496 99.5118 4.78256 99.0601 4.97135C98.6084 5.16013 98.1981 5.4364 97.8527 5.78438C97.5074 6.13235 97.2336 6.54522 97.0472 6.99941C96.8607 7.4536 96.7652 7.94021 96.7661 8.43146L96.8046 30.5872C96.8055 31.0784 96.9027 31.5647 97.0907 32.0182C97.2787 32.4717 97.5539 32.8836 97.9004 33.2304C98.247 33.5772 98.6582 33.852 99.1106 34.0392C99.5629 34.2264 100.048 34.3223 100.537 34.3215L110.048 34.3048C110.537 34.3039 111.021 34.2063 111.473 34.0175C111.925 33.8288 112.335 33.5525 112.68 33.2045C113.026 32.8565 113.3 32.4437 113.486 31.9895C113.672 31.5353 113.768 31.0487 113.767 30.5574L113.729 8.40173Z" fill="white"/>
<path d="M84.018 12.2208C84.3361 13.5581 85.0745 18.8573 82.8706 19.1025C82.6586 19.1248 82.5867 19.0375 82.6548 18.8406C84.1884 14.4311 83.4803 10.486 80.5305 7.00526C80.5087 6.97526 80.4981 6.93888 80.5003 6.90213C80.5025 6.86538 80.5174 6.83047 80.5426 6.80318C80.5677 6.77588 80.6017 6.75784 80.6387 6.75203C80.6758 6.74622 80.7137 6.75299 80.7463 6.77123C84.9798 9.64276 87.1477 13.6473 87.2499 18.7849C87.2537 19.0375 87.1306 19.1953 86.8807 19.2585L84.8473 19.7433C84.8062 19.7542 84.7628 19.7518 84.7235 19.7362C84.6842 19.7206 84.6511 19.6928 84.6289 19.6567C84.6067 19.6206 84.5966 19.5782 84.6002 19.5357C84.6037 19.4931 84.6206 19.4526 84.6485 19.4201L85.0802 18.913C85.2051 18.7719 85.2809 18.6103 85.3074 18.4282C85.6482 16.1994 85.2941 14.1024 84.2452 12.1372C84.233 12.1104 84.2112 12.0894 84.184 12.0783C84.1569 12.0672 84.1263 12.0668 84.0981 12.0772C84.0699 12.0876 84.0462 12.108 84.0314 12.1345C84.0166 12.161 84.0118 12.1917 84.018 12.2208Z" fill="#F7E444"/>
<path d="M103.595 13.2506C103.914 12.9081 104.014 12.5068 103.897 12.0465C103.873 11.9499 103.885 11.8478 103.93 11.7593C103.976 11.6708 104.052 11.6021 104.144 11.566C104.947 11.2604 105.269 10.6916 105.112 9.85944C105.068 9.62748 105.15 9.45994 105.359 9.35685L105.815 9.12488C105.916 9.07429 106.003 8.99867 106.067 8.90502C106.131 8.81138 106.171 8.70274 106.183 8.58915C106.249 7.8638 105.901 7.40171 105.139 7.20288C105.088 7.19096 105.043 7.16041 105.012 7.11707C104.982 7.07373 104.968 7.02066 104.974 6.968C104.981 6.91535 105.006 6.86681 105.045 6.83168C105.085 6.79656 105.136 6.77731 105.189 6.77762L109.024 6.75C109.068 6.74995 109.111 6.76281 109.148 6.787C109.185 6.81119 109.214 6.84565 109.231 6.88615C109.249 6.92665 109.254 6.97142 109.247 7.01494C109.239 7.05846 109.219 7.09883 109.189 7.13109C108.207 8.15468 108.061 9.32003 108.75 10.6271C108.805 10.7352 108.837 10.8534 108.845 10.9741C108.853 11.0949 108.835 11.2156 108.794 11.3286C107.914 13.685 106.553 15.7046 104.71 17.3873C104.553 17.5309 104.37 17.6174 104.161 17.6468L101.737 17.9948C101.565 18.0206 101.446 17.9506 101.38 17.7849C101.05 16.951 100.473 16.2827 100.501 15.41C100.55 13.8249 101.611 13.1843 103.111 13.4162C103.302 13.4457 103.463 13.3905 103.595 13.2506ZM103.754 15.5039C103.754 15.1436 103.612 14.798 103.358 14.5432C103.105 14.2884 102.761 14.1453 102.402 14.1453C102.044 14.1453 101.7 14.2884 101.446 14.5432C101.193 14.798 101.05 15.1436 101.05 15.5039C101.05 15.8643 101.193 16.2098 101.446 16.4646C101.7 16.7194 102.044 16.8626 102.402 16.8626C102.761 16.8626 103.105 16.7194 103.358 16.4646C103.612 16.2098 103.754 15.8643 103.754 15.5039Z" fill="#F7E444"/>
<path d="M81.6392 27.2295L81.7066 25.9802C81.7097 25.9183 81.7324 25.8589 81.7716 25.81C81.8108 25.7612 81.8646 25.7253 81.9257 25.7074C82.8093 25.4528 83.1238 24.8745 82.8692 23.9725C82.8018 23.7325 82.8954 23.5907 83.15 23.547C83.8951 23.4197 84.1572 22.9578 83.9363 22.1613C83.8839 21.9649 83.7734 21.8067 83.6049 21.6867L81.6168 20.2464C81.5873 20.2255 81.5634 20.1979 81.5474 20.1661C81.5313 20.1342 81.5235 20.099 81.5246 20.0635C81.5257 20.0281 81.5357 19.9934 81.5537 19.9625C81.5717 19.9317 81.5972 19.9055 81.628 19.8864L81.7965 19.7827C81.8751 19.7391 81.9537 19.7391 82.0324 19.7827C83.6386 20.6883 85.316 20.7975 87.0646 20.1101C87.1769 20.0597 87.3049 20.0531 87.4221 20.0917C87.5393 20.1303 87.6368 20.2112 87.6944 20.3175C87.7521 20.4239 87.7655 20.5477 87.7319 20.6634C87.6983 20.7791 87.6202 20.8779 87.5139 20.9393C86.1267 21.8231 86.1379 23.1379 86.5647 24.5945C87.1657 26.6567 83.7004 30.47 82.4761 31.5775C82.3816 31.6659 82.2572 31.7215 82.1222 31.7357L79.4601 31.9976C79.3253 32.0121 79.2261 31.9612 79.1624 31.8448C78.3088 30.3282 77.4663 28.5933 79.5612 27.5132C79.7185 27.4331 79.8851 27.4004 80.0611 27.415L81.3023 27.5186C81.5157 27.5332 81.628 27.4368 81.6392 27.2295ZM80.3405 31.0533C80.6891 31.0225 81.0093 30.843 81.2308 30.5542C81.4523 30.2655 81.5568 29.8912 81.5215 29.5137C81.4861 29.1362 81.3137 28.7863 81.0422 28.5412C80.7707 28.296 80.4223 28.1756 80.0737 28.2064C79.7251 28.2373 79.4048 28.4168 79.1834 28.7055C78.9619 28.9943 78.8573 29.3686 78.8927 29.7461C78.9281 30.1236 79.1005 30.4734 79.372 30.7186C79.6435 30.9637 79.9919 31.0842 80.3405 31.0533Z" fill="#F7E444"/>
<path d="M59.9164 26.0358C60.1615 27.3097 60.8044 32.8281 58.8976 32.4665C58.7051 32.4331 58.6379 32.32 58.696 32.1272C60.0435 27.8771 59.3225 24.0906 56.5332 20.7677C56.5116 20.7387 56.5 20.7032 56.5 20.6668C56.5 20.6303 56.5117 20.5948 56.5334 20.5658C56.555 20.5368 56.5853 20.5158 56.6197 20.5061C56.6541 20.4963 56.6907 20.4983 56.7239 20.5118C60.6627 22.4143 62.8964 28.1942 62.9999 32.1995C63.0035 32.396 62.9109 32.4943 62.7221 32.4943L61.262 32.4999C61.0877 32.5036 61.015 32.4183 61.0441 32.244C61.4254 30.0337 61.1258 27.9383 60.1452 25.9579C59.8764 25.4053 59.8001 25.4313 59.9164 26.0358Z" fill="#F7E444"/>
<path d="M37.0351 52.2034C38.1645 52.7186 38.9126 52.3863 39.2793 51.2064C39.2929 51.1641 39.3146 51.125 39.3431 51.0916C39.3717 51.0582 39.4064 51.0312 39.4453 51.0123C39.4841 50.9934 39.5262 50.983 39.5688 50.9817C39.6115 50.9804 39.6539 50.9883 39.6933 51.0048L41.4582 51.7049C41.6689 51.7908 41.7451 51.9438 41.687 52.1641C41.2767 53.8145 40.3833 54.733 39.007 54.9197C35.6333 55.3752 33.8865 53.8929 33.7667 50.4727C33.6795 48.1484 33.8539 45.3089 36.2561 44.5584C38.7945 43.7631 40.6067 44.5061 41.6925 46.7875C41.7267 46.8607 41.7461 46.9403 41.7495 47.0215C41.7528 47.1026 41.7401 47.1836 41.7121 47.2596C41.6841 47.3355 41.6413 47.4049 41.5865 47.4633C41.5316 47.5217 41.4657 47.5681 41.3929 47.5996L39.884 48.238C39.6552 48.3351 39.4718 48.2773 39.3338 48.0644L38.9198 47.4203C38.8167 47.2599 38.6813 47.1241 38.5228 47.0221C38.3644 46.9202 38.1865 46.8545 38.0015 46.8295C37.8164 46.8045 37.6285 46.8209 37.4504 46.8774C37.2724 46.9339 37.1084 47.0293 36.9697 47.1571C36.1254 47.9356 36.3923 50.8984 36.6592 51.7721C36.7209 51.9737 36.8462 52.1175 37.0351 52.2034Z" fill="white"/>
<path d="M47.344 51.1927C45.004 50.568 42.1732 50.674 42.3901 47.3777C42.6641 43.2559 49.6555 43.4177 50.2034 46.6359C50.2414 46.8627 50.1539 47.0226 49.9408 47.1156L48.3371 47.8239C48.2338 47.8685 48.1169 47.8725 48.0106 47.8352C47.9043 47.7978 47.8169 47.7218 47.7664 47.6231C47.3592 46.8348 46.6458 46.5541 45.6261 46.7809C45.4649 46.8185 45.3224 46.9107 45.224 47.0411C45.1256 47.1715 45.0777 47.3318 45.0886 47.4935C45.0995 47.6551 45.1687 47.8078 45.2838 47.9245C45.3989 48.0411 45.5525 48.1141 45.7175 48.1307C48.1259 48.3482 50.9795 49.0119 50.4317 52.1353C49.7753 55.8443 42.7668 56.0061 42.2531 52.3026C42.242 52.2192 42.2608 52.1344 42.3065 52.0623C42.3522 51.9903 42.422 51.9353 42.5043 51.9066L44.0224 51.3768C44.2202 51.3098 44.3839 51.3563 44.5132 51.5162C45.278 52.4718 46.2444 52.7098 47.4125 52.2301C47.5207 52.185 47.6121 52.1081 47.6739 52.0101C47.7358 51.9122 47.7649 51.798 47.7574 51.6837C47.7498 51.5694 47.7059 51.4606 47.6318 51.3726C47.5577 51.2845 47.4571 51.2216 47.344 51.1927Z" fill="white"/>
<path d="M56.2806 51.185L55.2942 51.1794C55.0036 51.1757 54.8601 51.0265 54.8637 50.7319L54.88 49.1991C54.8815 49.0888 54.9252 48.9835 55.0017 48.9061C55.0782 48.8286 55.1813 48.7852 55.2888 48.7852L58.82 48.7964C59.0271 48.7964 59.1415 48.9026 59.1633 49.1152C59.4576 52.0465 59.1524 54.6198 55.8501 54.961C51.4741 55.4142 51.0599 51.8339 51.3052 48.4271C51.4069 47.0547 51.752 46.0571 52.3406 45.4343C54.2152 43.4428 58.3895 43.9519 59.1361 47.0454C59.16 47.1447 59.1476 47.2496 59.1015 47.3402C59.0553 47.4309 58.9785 47.5011 58.8854 47.5377L57.256 48.1866C57.1699 48.2216 57.0748 48.2252 56.9864 48.1966C56.8981 48.1681 56.8221 48.1093 56.771 48.03L56.3078 47.2915C56.1981 47.1209 56.0375 46.9914 55.8501 46.9223C53.4523 46.0329 53.8991 49.367 53.9209 50.5585C53.9482 52.4661 54.8364 52.7849 56.4549 52.0857C56.5507 52.0429 56.6294 51.9677 56.6778 51.8727C56.7262 51.7776 56.7415 51.6684 56.7212 51.5632C56.7008 51.4581 56.646 51.3632 56.5658 51.2944C56.4857 51.2256 56.385 51.187 56.2806 51.185Z" fill="white"/>
<path d="M68.2335 51.2721C68.2285 52.266 67.8432 53.2171 67.1625 53.9162C66.4817 54.6153 65.5613 55.0052 64.6035 54.9999L63.8422 54.9958C63.368 54.9933 62.8989 54.8938 62.4618 54.7031C62.0246 54.5124 61.6279 54.2342 61.2943 53.8843C60.9608 53.5345 60.6969 53.12 60.5177 52.6643C60.3385 52.2087 60.2476 51.7208 60.25 51.2287L60.2665 47.9779C60.2715 46.984 60.6568 46.0329 61.3375 45.3338C62.0183 44.6347 62.9387 44.2448 63.8964 44.2501L64.6578 44.2542C65.132 44.2567 65.6011 44.3562 66.0382 44.5469C66.4754 44.7376 66.8721 45.0158 67.2057 45.3657C67.5392 45.7155 67.8031 46.13 67.9823 46.5857C68.1615 47.0413 68.2524 47.5292 68.25 48.0213L68.2335 51.2721ZM65.5987 48.0955C65.5987 47.9258 65.5665 47.7577 65.5039 47.6009C65.4413 47.4441 65.3496 47.3016 65.234 47.1816C65.1183 47.0616 64.981 46.9664 64.8299 46.9014C64.6788 46.8365 64.5169 46.8031 64.3533 46.8031H64.1032C63.9396 46.8031 63.7777 46.8365 63.6266 46.9014C63.4755 46.9664 63.3382 47.0616 63.2225 47.1816C63.1069 47.3016 63.0152 47.4441 62.9526 47.6009C62.89 47.7577 62.8578 47.9258 62.8578 48.0955V51.1206C62.8578 51.2904 62.89 51.4584 62.9526 51.6152C63.0152 51.772 63.1069 51.9145 63.2225 52.0345C63.3382 52.1545 63.4755 52.2497 63.6266 52.3147C63.7777 52.3796 63.9396 52.4131 64.1032 52.4131H64.3533C64.5169 52.4131 64.6788 52.3796 64.8299 52.3147C64.981 52.2497 65.1183 52.1545 65.234 52.0345C65.3496 51.9145 65.4413 51.772 65.5039 51.6152C65.5665 51.4584 65.5987 51.2904 65.5987 51.1206V48.0955Z" fill="white"/>
<path d="M88.2984 46.8131C88.1263 46.8438 87.9721 46.9399 87.8671 47.0819C87.762 47.2239 87.714 47.4012 87.7328 47.5779C87.7515 47.7546 87.8357 47.9174 87.9681 48.0333C88.1005 48.1492 88.2713 48.2096 88.4459 48.2022C90.0028 48.2022 91.9258 48.6245 92.647 50.197C94.7885 54.8477 86.5502 57.0702 85.0205 52.4695C84.9883 52.3721 84.9942 52.2659 85.0369 52.1728C85.0796 52.0797 85.1559 52.0069 85.25 51.9694L86.8343 51.3416C86.9872 51.2786 87.1129 51.3156 87.2112 51.4527C88.0052 52.5492 88.974 52.7751 90.1176 52.1306C90.2095 52.0792 90.2836 52.0002 90.3296 51.9043C90.3757 51.8084 90.3914 51.7004 90.3746 51.595C90.3578 51.4897 90.3094 51.3923 90.236 51.316C90.1626 51.2398 90.0678 51.1885 89.9646 51.1693C87.9706 50.7859 85.0915 50.5526 85.1626 47.6855C85.2664 43.4571 91.4069 43.1681 92.718 46.6186C92.8018 46.8372 92.7398 46.9946 92.5322 47.0909L90.8824 47.8633C90.7968 47.9035 90.699 47.908 90.6102 47.8758C90.5213 47.8436 90.4484 47.7773 90.4071 47.691C90.0211 46.8798 89.3181 46.5872 88.2984 46.8131Z" fill="white"/>
<path d="M107.418 51.9528C108.487 52.8925 109.393 52.2475 109.947 51.141C109.992 51.0518 110.069 50.9839 110.162 50.9518C110.255 50.9196 110.357 50.9257 110.446 50.9687L111.639 51.5358C111.787 51.6054 111.916 51.7102 112.017 51.8414C112.117 51.9726 112.185 52.1266 112.216 52.2906C112.247 52.4546 112.239 52.6239 112.193 52.7847C112.148 52.9454 112.066 53.0929 111.954 53.215C109.863 55.4984 107.605 55.5911 105.178 53.493C105.012 53.3523 104.898 53.1585 104.852 52.9426C104.501 51.3153 104.413 49.5657 104.586 47.6937C105.004 43.1788 111.829 43.2344 112.247 47.0932C112.258 47.1909 112.237 47.2899 112.187 47.3753C112.137 47.4606 112.061 47.5275 111.97 47.5658L110.381 48.2497C110.305 48.2813 110.221 48.2828 110.146 48.2539C110.07 48.2249 110.009 48.1678 109.974 48.0941C109.719 47.5714 109.437 46.9987 108.84 46.8486C106.507 46.2647 107.055 49.8733 107.19 51.4969C107.197 51.5848 107.221 51.6704 107.26 51.7487C107.299 51.8269 107.353 51.8963 107.418 51.9528Z" fill="#F7E444"/>
<path d="M121.233 51.2855C121.23 51.7758 121.131 52.2609 120.941 52.7129C120.751 53.165 120.474 53.5752 120.125 53.9201C119.777 54.265 119.364 54.5379 118.91 54.7232C118.456 54.9085 117.97 55.0025 117.48 54.9999L116.714 54.996C115.724 54.9908 114.776 54.5924 114.08 53.8885C113.383 53.1845 112.995 52.2327 113 51.2424L113.017 47.9645C113.02 47.4742 113.119 46.9891 113.309 46.5371C113.499 46.085 113.776 45.6748 114.125 45.3299C114.473 44.985 114.886 44.7121 115.34 44.5268C115.794 44.3415 116.28 44.2475 116.77 44.2501L117.536 44.254C118.526 44.2592 119.474 44.6576 120.17 45.3615C120.867 46.0655 121.255 47.0173 121.25 48.0076L121.233 51.2855ZM118.533 48.0607C118.531 47.7231 118.395 47.4003 118.154 47.1633C117.914 46.9263 117.589 46.7944 117.252 46.7968L116.97 46.7988C116.803 46.7999 116.638 46.834 116.484 46.899C116.33 46.9641 116.19 47.0588 116.073 47.1778C115.956 47.2968 115.863 47.4378 115.8 47.5927C115.737 47.7476 115.705 47.9133 115.707 48.0804L115.728 51.133C115.73 51.4706 115.867 51.7934 116.107 52.0304C116.347 52.2674 116.672 52.3993 117.009 52.3969L117.291 52.3949C117.458 52.3938 117.623 52.3597 117.777 52.2947C117.931 52.2296 118.071 52.1349 118.188 52.0159C118.306 51.8968 118.398 51.7559 118.461 51.601C118.524 51.4461 118.556 51.2804 118.555 51.1132L118.533 48.0607Z" fill="#F7E444"/>
<path d="M72.4301 48.6913L74.9785 48.708C75.0223 48.7088 75.0655 48.7184 75.1057 48.7365C75.1458 48.7545 75.1822 48.7806 75.2126 48.8132C75.2431 48.8458 75.2671 48.8843 75.2831 48.9265C75.2992 48.9687 75.3072 49.0138 75.3065 49.0592L75.2849 50.9208C75.2835 51.0114 75.2478 51.0979 75.1854 51.1615C75.1231 51.2251 75.0391 51.2608 74.9516 51.2608L72.4355 51.2775C72.3913 51.2775 72.3475 51.2866 72.3067 51.3043C72.2659 51.322 72.2289 51.348 72.1979 51.3806C72.1668 51.4133 72.1424 51.4521 72.126 51.4947C72.1095 51.5372 72.1014 51.5828 72.1021 51.6286L72.1452 54.3485C72.1466 54.4392 72.1136 54.5269 72.0533 54.5926C71.9929 54.6583 71.91 54.6967 71.8226 54.6997L69.8441 54.7498C69.7994 54.7513 69.7549 54.7435 69.7132 54.7268C69.6715 54.7101 69.6335 54.6849 69.6014 54.6526C69.5693 54.6204 69.5438 54.5818 69.5264 54.5391C69.5089 54.4964 69.5 54.4506 69.5 54.4043V44.8456C69.5 44.7539 69.5351 44.666 69.5976 44.6012C69.6601 44.5364 69.7449 44.5 69.8333 44.5L75.672 44.5056C75.7595 44.507 75.8429 44.5441 75.9043 44.6087C75.9656 44.6734 76 44.7604 76 44.8511L75.9892 46.774C75.9878 46.8647 75.9521 46.9512 75.8897 47.0148C75.8274 47.0784 75.7434 47.114 75.6559 47.114H72.4194C72.3751 47.114 72.3313 47.1231 72.2905 47.1408C72.2497 47.1585 72.2128 47.1845 72.1817 47.2172C72.1507 47.2499 72.1263 47.2886 72.1098 47.3312C72.0934 47.3738 72.0853 47.4193 72.086 47.4651L72.1021 48.3513C72.1035 48.4411 72.1385 48.5267 72.1997 48.5902C72.2609 48.6536 72.3436 48.6899 72.4301 48.6913Z" fill="white"/>
<path d="M81.2624 53.0201L78.974 53.0423C78.7625 53.0423 78.6284 53.1421 78.5718 53.3417L78.2999 54.2955C78.2357 54.5136 78.0884 54.6264 77.8581 54.6338L75.9038 54.6948C75.8412 54.6968 75.779 54.6841 75.7225 54.6577C75.666 54.6312 75.6168 54.5919 75.579 54.543C75.5412 54.4941 75.5161 54.437 75.5055 54.3766C75.495 54.3161 75.4995 54.2541 75.5186 54.1957L78.5208 45.39C78.6337 45.0574 78.8507 44.7683 79.1411 44.5637C79.4315 44.3591 79.7807 44.2494 80.139 44.25C80.4974 44.2506 80.8468 44.3616 81.1379 44.5672C81.429 44.7727 81.6469 45.0625 81.7609 45.3955L84.7291 54.1624C84.7858 54.3325 84.7272 54.4452 84.5535 54.5007C83.296 54.911 81.6363 54.9942 81.5796 53.3196C81.5721 53.1199 81.4663 53.0201 81.2624 53.0201ZM80.1125 47.9352C80.0672 47.7615 80.0257 47.7633 79.9879 47.9407L79.4215 50.4527C79.3686 50.6819 79.463 50.7984 79.7047 50.802H80.4977C80.7318 50.802 80.8206 50.693 80.7639 50.4749L80.1125 47.9352Z" fill="white"/>
<path d="M98.439 47.5744L98.4445 54.2756C98.4445 54.3915 98.3991 54.5028 98.318 54.5853C98.2368 54.6678 98.1266 54.7149 98.0112 54.7164L96.2835 54.7499C96.2249 54.7513 96.1667 54.741 96.1122 54.7196C96.0576 54.6981 96.0079 54.6658 95.966 54.6248C95.924 54.5837 95.8907 54.5346 95.868 54.4804C95.8452 54.4261 95.8335 54.3679 95.8335 54.3091V47.5409C95.8335 47.4826 95.822 47.4248 95.7996 47.3709C95.7772 47.3171 95.7444 47.2682 95.703 47.2272C95.6617 47.1862 95.6127 47.1539 95.5588 47.1321C95.5049 47.1102 95.4472 47.0994 95.3891 47.1001L93.767 47.1224C93.6524 47.124 93.5419 47.0805 93.4588 47.0013C93.3758 46.922 93.3269 46.8133 93.3225 46.6984L93.2503 44.9743C93.2481 44.915 93.2578 44.8559 93.2788 44.8004C93.2999 44.745 93.3318 44.6944 93.3728 44.6517C93.4138 44.609 93.4629 44.575 93.5173 44.5518C93.5717 44.5286 93.6301 44.5167 93.6892 44.5167L100.561 44.5C100.619 44.5 100.677 44.5116 100.73 44.5341C100.784 44.5566 100.833 44.5895 100.873 44.6311C100.914 44.6726 100.946 44.7218 100.968 44.776C100.99 44.8301 101.001 44.888 101 44.9464L100.983 46.6816C100.982 46.7966 100.936 46.9065 100.855 46.9878C100.774 47.0691 100.664 47.1154 100.55 47.1169L98.8723 47.1336C98.7569 47.1351 98.6467 47.1822 98.5655 47.2647C98.4844 47.3472 98.439 47.4585 98.439 47.5744Z" fill="white"/>
<path d="M129.695 49.0158L128.367 52.1735C128.271 52.403 128.111 52.5991 127.908 52.7379C127.704 52.8766 127.465 52.9521 127.221 52.9551C126.976 52.958 126.735 52.8884 126.528 52.7546C126.322 52.6207 126.158 52.4286 126.056 52.2015C125.588 51.1545 125.098 49.9473 124.586 48.5799C124.575 48.5538 124.556 48.5483 124.531 48.5632C124.498 48.5743 124.487 48.606 124.498 48.6582C124.97 50.5099 125.131 52.3952 124.981 54.314C124.959 54.5823 124.816 54.7183 124.553 54.722L122.846 54.75C122.801 54.7507 122.756 54.7423 122.714 54.7252C122.672 54.7081 122.634 54.6827 122.602 54.6505C122.569 54.6182 122.544 54.5798 122.526 54.5374C122.509 54.4949 122.5 54.4494 122.5 54.4035V44.9025C122.5 44.7973 122.54 44.6963 122.613 44.6219C122.685 44.5475 122.782 44.5057 122.884 44.5057L124.569 44.5001C124.8 44.4964 124.962 44.6007 125.057 44.8131L127.055 49.2059C127.165 49.448 127.277 49.448 127.39 49.2059L129.464 44.7292C129.496 44.6626 129.544 44.6062 129.606 44.5666C129.667 44.5271 129.738 44.5059 129.81 44.5057L131.654 44.5113C131.885 44.5113 132 44.6286 132 44.8634V54.3923C132 54.4797 131.966 54.5636 131.905 54.6254C131.844 54.6873 131.762 54.722 131.676 54.722L129.871 54.7332C129.669 54.7332 129.56 54.6326 129.541 54.4314C129.347 52.6169 129.45 50.8285 129.849 49.0661C129.984 48.4626 129.933 48.4458 129.695 49.0158Z" fill="#F7E444"/>
<path d="M102.622 51.87L101.793 51.8772C101.323 51.8813 100.945 52.2658 100.949 52.7359L100.96 53.9742C100.964 54.4443 101.349 54.8221 101.819 54.818L102.648 54.8108C103.118 54.8067 103.496 54.4222 103.492 53.9521L103.481 52.7138C103.477 52.2437 103.092 51.8659 102.622 51.87Z" fill="#F7E444"/>
</svg>
