<svg width="166" height="58" viewBox="0 0 166 58" fill="none" xmlns="http://www.w3.org/2000/svg">
<path d="M111.895 29C111.895 32.7945 111.148 36.5519 109.695 40.0576C108.243 43.5633 106.115 46.7487 103.432 49.4318C100.749 52.115 97.5633 54.2434 94.0576 55.6955C90.5519 57.1476 86.7945 57.895 83 57.895C75.3366 57.895 67.987 54.8507 62.5681 49.4318C57.1493 44.013 54.105 36.6634 54.105 29C54.105 21.3365 57.1493 13.987 62.5681 8.56813C67.987 3.14927 75.3366 0.10498 83 0.10498C90.6634 0.10498 98.013 3.14927 103.432 8.56813C108.851 13.987 111.895 21.3365 111.895 29ZM110.05 29.0175C110.05 21.8434 107.2 14.9631 102.127 9.89024C97.0544 4.81738 90.1741 1.96748 83 1.96748C75.8259 1.96748 68.9456 4.81738 63.8728 9.89024C58.7999 14.9631 55.95 21.8434 55.95 29.0175C55.95 36.1916 58.7999 43.0719 63.8728 48.1447C68.9456 53.2176 75.8259 56.0675 83 56.0675C90.1741 56.0675 97.0544 53.2176 102.127 48.1447C107.2 43.0719 110.05 36.1916 110.05 29.0175Z" fill="#C32D4F"/>
<path d="M82.9575 4.54752C83.293 4.54752 83.565 4.27553 83.565 3.94002C83.565 3.60451 83.293 3.33252 82.9575 3.33252C82.622 3.33252 82.35 3.60451 82.35 3.94002C82.35 4.27553 82.622 4.54752 82.9575 4.54752Z" fill="#C32D4F"/>
<path d="M80.6125 4.62998C80.9314 4.62998 81.19 4.37142 81.19 4.05248C81.19 3.73353 80.9314 3.47498 80.6125 3.47498C80.2936 3.47498 80.035 3.73353 80.035 4.05248C80.035 4.37142 80.2936 4.62998 80.6125 4.62998Z" fill="#C32D4F"/>
<path d="M85.3075 4.61497C85.6251 4.61497 85.8825 4.35753 85.8825 4.03997C85.8825 3.7224 85.6251 3.46497 85.3075 3.46497C84.9899 3.46497 84.7325 3.7224 84.7325 4.03997C84.7325 4.35753 84.9899 4.61497 85.3075 4.61497Z" fill="#C32D4F"/>
<path d="M87.605 4.93747C87.9253 4.93747 88.185 4.67779 88.185 4.35747C88.185 4.03714 87.9253 3.77747 87.605 3.77747C87.2847 3.77747 87.025 4.03714 87.025 4.35747C87.025 4.67779 87.2847 4.93747 87.605 4.93747Z" fill="#C32D4F"/>
<path d="M78.3175 4.95004C78.6364 4.95004 78.895 4.69149 78.895 4.37254C78.895 4.0536 78.6364 3.79504 78.3175 3.79504C77.9985 3.79504 77.74 4.0536 77.74 4.37254C77.74 4.69149 77.9985 4.95004 78.3175 4.95004Z" fill="#C32D4F"/>
<path d="M76.06 5.48495C76.3803 5.48495 76.64 5.22528 76.64 4.90495C76.64 4.58463 76.3803 4.32495 76.06 4.32495C75.7397 4.32495 75.48 4.58463 75.48 4.90495C75.48 5.22528 75.7397 5.48495 76.06 5.48495Z" fill="#C32D4F"/>
<path d="M89.855 5.4675C90.1753 5.4675 90.435 5.20782 90.435 4.8875C90.435 4.56717 90.1753 4.3075 89.855 4.3075C89.5347 4.3075 89.275 4.56717 89.275 4.8875C89.275 5.20782 89.5347 5.4675 89.855 5.4675Z" fill="#C32D4F"/>
<path d="M73.8775 6.23251C74.1978 6.23251 74.4575 5.97283 74.4575 5.65251C74.4575 5.33218 74.1978 5.07251 73.8775 5.07251C73.5572 5.07251 73.2975 5.33218 73.2975 5.65251C73.2975 5.97283 73.5572 6.23251 73.8775 6.23251Z" fill="#C32D4F"/>
<path d="M92.0575 6.19749C92.3751 6.19749 92.6325 5.94005 92.6325 5.62249C92.6325 5.30492 92.3751 5.04749 92.0575 5.04749C91.7399 5.04749 91.4825 5.30492 91.4825 5.62249C91.4825 5.94005 91.7399 6.19749 92.0575 6.19749Z" fill="#C32D4F"/>
<path d="M71.76 7.16501C72.0789 7.16501 72.3375 6.90645 72.3375 6.58751C72.3375 6.26857 72.0789 6.01001 71.76 6.01001C71.4411 6.01001 71.1825 6.26857 71.1825 6.58751C71.1825 6.90645 71.4411 7.16501 71.76 7.16501Z" fill="#C32D4F"/>
<path d="M94.165 7.13754C94.4839 7.13754 94.7425 6.87899 94.7425 6.56004C94.7425 6.2411 94.4839 5.98254 94.165 5.98254C93.846 5.98254 93.5875 6.2411 93.5875 6.56004C93.5875 6.87899 93.846 7.13754 94.165 7.13754Z" fill="#C32D4F"/>
<path d="M69.745 8.30001C70.0653 8.30001 70.325 8.04034 70.325 7.72001C70.325 7.39969 70.0653 7.14001 69.745 7.14001C69.4247 7.14001 69.165 7.39969 69.165 7.72001C69.165 8.04034 69.4247 8.30001 69.745 8.30001Z" fill="#C32D4F"/>
<path d="M96.19 8.26254C96.5089 8.26254 96.7675 8.00399 96.7675 7.68504C96.7675 7.3661 96.5089 7.10754 96.19 7.10754C95.871 7.10754 95.6125 7.3661 95.6125 7.68504C95.6125 8.00399 95.871 8.26254 96.19 8.26254Z" fill="#C32D4F"/>
<path d="M98.09 9.57003C98.4117 9.57003 98.6725 9.30924 98.6725 8.98753C98.6725 8.66582 98.4117 8.40503 98.09 8.40503C97.7683 8.40503 97.5075 8.66582 97.5075 8.98753C97.5075 9.30924 97.7683 9.57003 98.09 9.57003Z" fill="#C32D4F"/>
<path d="M67.84 9.61753C68.1589 9.61753 68.4175 9.35897 68.4175 9.04002C68.4175 8.72108 68.1589 8.46252 67.84 8.46252C67.5211 8.46252 67.2625 8.72108 67.2625 9.04002C67.2625 9.35897 67.5211 9.61753 67.84 9.61753Z" fill="#C32D4F"/>
<path d="M99.875 11.045C100.193 11.045 100.45 10.7876 100.45 10.47C100.45 10.1525 100.193 9.89502 99.875 9.89502C99.5574 9.89502 99.3 10.1525 99.3 10.47C99.3 10.7876 99.5574 11.045 99.875 11.045Z" fill="#C32D4F"/>
<path d="M66.0625 11.0975C66.3814 11.0975 66.64 10.8389 66.64 10.52C66.64 10.2011 66.3814 9.9425 66.0625 9.9425C65.7436 9.9425 65.485 10.2011 65.485 10.52C65.485 10.8389 65.7436 11.0975 66.0625 11.0975Z" fill="#C32D4F"/>
<path d="M101.518 12.68C101.836 12.68 102.095 12.4215 102.095 12.1025C102.095 11.7836 101.836 11.525 101.518 11.525C101.199 11.525 100.94 11.7836 100.94 12.1025C100.94 12.4215 101.199 12.68 101.518 12.68Z" fill="#C32D4F"/>
<path d="M64.425 12.745C64.7467 12.745 65.0075 12.4842 65.0075 12.1625C65.0075 11.8408 64.7467 11.58 64.425 11.58C64.1033 11.58 63.8425 11.8408 63.8425 12.1625C63.8425 12.4842 64.1033 12.745 64.425 12.745Z" fill="#C32D4F"/>
<path d="M102.993 14.4675C103.313 14.4675 103.573 14.2078 103.573 13.8875C103.573 13.5672 103.313 13.3075 102.993 13.3075C102.672 13.3075 102.413 13.5672 102.413 13.8875C102.413 14.2078 102.672 14.4675 102.993 14.4675Z" fill="#C32D4F"/>
<path d="M62.96 14.525C63.279 14.525 63.5375 14.2664 63.5375 13.9475C63.5375 13.6286 63.279 13.37 62.96 13.37C62.6411 13.37 62.3825 13.6286 62.3825 13.9475C62.3825 14.2664 62.6411 14.525 62.96 14.525Z" fill="#C32D4F"/>
<path d="M104.3 16.3675C104.62 16.3675 104.88 16.1078 104.88 15.7875C104.88 15.4672 104.62 15.2075 104.3 15.2075C103.98 15.2075 103.72 15.4672 103.72 15.7875C103.72 16.1078 103.98 16.3675 104.3 16.3675Z" fill="#C32D4F"/>
<path d="M61.655 16.445C61.9753 16.445 62.235 16.1854 62.235 15.865C62.235 15.5447 61.9753 15.285 61.655 15.285C61.3347 15.285 61.075 15.5447 61.075 15.865C61.075 16.1854 61.3347 16.445 61.655 16.445Z" fill="#C32D4F"/>
<path d="M105.437 18.385C105.756 18.385 106.015 18.1264 106.015 17.8075C106.015 17.4885 105.756 17.23 105.437 17.23C105.119 17.23 104.86 17.4885 104.86 17.8075C104.86 18.1264 105.119 18.385 105.437 18.385Z" fill="#C32D4F"/>
<path d="M60.5325 18.4625C60.8514 18.4625 61.11 18.2039 61.11 17.885C61.11 17.5661 60.8514 17.3075 60.5325 17.3075C60.2136 17.3075 59.955 17.5661 59.955 17.885C59.955 18.2039 60.2136 18.4625 60.5325 18.4625Z" fill="#C32D4F"/>
<path d="M80.36 38.27C78.575 37.375 78.0475 35.33 78.0475 33.5C78.0475 30.995 78.0516 28.49 78.06 25.985C78.065 23.8025 78.015 22.455 78.9575 20.905C79.8825 19.385 81.9925 19.065 83.62 19.3425C86.485 19.8275 87.11 22.3625 87.125 24.875C87.15 29.7367 87.1475 32.7992 87.1175 34.0625C87.0875 35.2275 86.5225 36.9825 85.57 37.7875C84.2425 38.9075 81.895 39.04 80.36 38.27ZM79.8275 34.155C79.855 35.695 80.6325 37.165 82.265 37.3875C84.95 37.7525 85.35 34.9725 85.36 33.0625C85.3783 29.9392 85.375 26.8133 85.35 23.685C85.3466 23.305 85.2283 22.8192 84.995 22.2275C84.4025 20.725 82.855 20.22 81.4125 20.845C80.235 21.355 79.865 22.7675 79.8425 23.9375C79.7758 27.3442 79.7708 30.75 79.8275 34.155Z" fill="#C32D4F"/>
<path d="M90.7175 21.7275C91.61 19.44 94.2975 18.76 96.4425 19.49C98.8075 20.295 99.2975 22.6475 99.305 24.85C99.315 27.7116 99.3117 30.5741 99.295 33.4375C99.275 36.89 97.505 39.3325 93.7125 38.6525C91.0625 38.175 90.2025 35.8225 90.2125 33.4375C90.2242 30.2091 90.2358 26.98 90.2475 23.75C90.2492 23.2016 90.4058 22.5275 90.7175 21.7275ZM92.045 34.28C92.1 36.245 93.48 37.95 95.63 37.26C96.745 36.9025 97.4375 35.6275 97.485 34.5325C97.5983 32.0458 97.6067 28.7725 97.51 24.7125C97.4575 22.455 97.13 20.5125 94.4725 20.625C92.7625 20.6975 92.0975 22.2325 92.055 23.7525C91.9533 27.2608 91.95 30.77 92.045 34.28Z" fill="#C32D4F"/>
<path d="M106.368 20.5075C106.688 20.5075 106.948 20.2479 106.948 19.9275C106.948 19.6072 106.688 19.3475 106.368 19.3475C106.047 19.3475 105.788 19.6072 105.788 19.9275C105.788 20.2479 106.047 20.5075 106.368 20.5075Z" fill="#C32D4F"/>
<path d="M59.6 20.5851C59.9189 20.5851 60.1775 20.3265 60.1775 20.0076C60.1775 19.6886 59.9189 19.4301 59.6 19.4301C59.281 19.4301 59.0225 19.6886 59.0225 20.0076C59.0225 20.3265 59.281 20.5851 59.6 20.5851Z" fill="#C32D4F"/>
<path d="M68.66 27.505C70.0375 26.19 72.4725 25.99 73.8775 27.2775C75.55 28.8125 75.475 32.45 75.15 34.56C74.85 36.5075 74.0825 38.3175 71.8925 38.685C68.4325 39.2625 66.555 37.0725 66.72 33.72C66.7233 33.6333 66.7683 33.59 66.855 33.59H68.2525C68.3492 33.59 68.4 33.6383 68.405 33.735C68.5325 35.9675 69.07 37.965 72.005 37.1775C73.21 36.8525 73.5825 34.9225 73.655 33.69C73.745 32.1525 73.83 28.5375 72.015 27.9375C70.58 27.4625 69.4458 27.8983 68.6125 29.245C68.5941 29.2749 68.5686 29.2995 68.5384 29.3166C68.5082 29.3337 68.4743 29.3426 68.44 29.3425L67.2575 29.3375C67.1608 29.3375 67.1125 29.2892 67.1125 29.1925V19.5725C67.1125 19.4858 67.155 19.4425 67.24 19.4425H74.38C74.4617 19.4425 74.5025 19.4842 74.5025 19.5675L74.495 20.945C74.495 21.0317 74.4525 21.075 74.3675 21.075H68.745C68.6667 21.075 68.6267 21.1142 68.625 21.1925L68.5275 27.445C68.5242 27.5717 68.5683 27.5917 68.66 27.505Z" fill="#C32D4F"/>
<path d="M107.105 22.6925C107.423 22.6925 107.68 22.435 107.68 22.1175C107.68 21.7999 107.423 21.5425 107.105 21.5425C106.787 21.5425 106.53 21.7999 106.53 22.1175C106.53 22.435 106.787 22.6925 107.105 22.6925Z" fill="#C32D4F"/>
<path d="M58.8725 22.7725C59.1928 22.7725 59.4525 22.5129 59.4525 22.1925C59.4525 21.8722 59.1928 21.6125 58.8725 21.6125C58.5522 21.6125 58.2925 21.8722 58.2925 22.1925C58.2925 22.5129 58.5522 22.7725 58.8725 22.7725Z" fill="#C32D4F"/>
<path d="M107.64 24.95C107.959 24.95 108.217 24.6915 108.217 24.3725C108.217 24.0536 107.959 23.795 107.64 23.795C107.321 23.795 107.062 24.0536 107.062 24.3725C107.062 24.6915 107.321 24.95 107.64 24.95Z" fill="#C32D4F"/>
<path d="M58.35 25.0274C58.6676 25.0274 58.925 24.77 58.925 24.4524C58.925 24.1349 58.6676 23.8774 58.35 23.8774C58.0324 23.8774 57.775 24.1349 57.775 24.4524C57.775 24.77 58.0324 25.0274 58.35 25.0274Z" fill="#C32D4F"/>
<path d="M107.958 27.2375C108.276 27.2375 108.535 26.979 108.535 26.66C108.535 26.3411 108.276 26.0825 107.958 26.0825C107.639 26.0825 107.38 26.3411 107.38 26.66C107.38 26.979 107.639 27.2375 107.958 27.2375Z" fill="#C32D4F"/>
<path d="M58.04 27.33C58.3603 27.33 58.62 27.0704 58.62 26.75C58.62 26.4297 58.3603 26.17 58.04 26.17C57.7197 26.17 57.46 26.4297 57.46 26.75C57.46 27.0704 57.7197 27.33 58.04 27.33Z" fill="#C32D4F"/>
<path d="M108.067 29.555C108.388 29.555 108.647 29.2953 108.647 28.975C108.647 28.6547 108.388 28.395 108.067 28.395C107.747 28.395 107.487 28.6547 107.487 28.975C107.487 29.2953 107.747 29.555 108.067 29.555Z" fill="#C32D4F"/>
<path d="M57.935 29.6325C58.2526 29.6325 58.51 29.3751 58.51 29.0575C58.51 28.74 58.2526 28.4825 57.935 28.4825C57.6174 28.4825 57.36 28.74 57.36 29.0575C57.36 29.3751 57.6174 29.6325 57.935 29.6325Z" fill="#C32D4F"/>
<path d="M107.958 31.8575C108.276 31.8575 108.535 31.599 108.535 31.28C108.535 30.9611 108.276 30.7025 107.958 30.7025C107.639 30.7025 107.38 30.9611 107.38 31.28C107.38 31.599 107.639 31.8575 107.958 31.8575Z" fill="#C32D4F"/>
<path d="M58.0525 31.95C58.3728 31.95 58.6325 31.6904 58.6325 31.37C58.6325 31.0497 58.3728 30.79 58.0525 30.79C57.7322 30.79 57.4725 31.0497 57.4725 31.37C57.4725 31.6904 57.7322 31.95 58.0525 31.95Z" fill="#C32D4F"/>
<path d="M107.645 34.155C107.965 34.155 108.225 33.8953 108.225 33.575C108.225 33.2547 107.965 32.995 107.645 32.995C107.325 32.995 107.065 33.2547 107.065 33.575C107.065 33.8953 107.325 34.155 107.645 34.155Z" fill="#C32D4F"/>
<path d="M58.37 34.2375C58.6889 34.2375 58.9475 33.979 58.9475 33.66C58.9475 33.3411 58.6889 33.0825 58.37 33.0825C58.0511 33.0825 57.7925 33.3411 57.7925 33.66C57.7925 33.979 58.0511 34.2375 58.37 34.2375Z" fill="#C32D4F"/>
<path d="M107.117 36.3974C107.434 36.3974 107.69 36.1411 107.69 35.8249C107.69 35.5088 107.434 35.2524 107.117 35.2524C106.801 35.2524 106.545 35.5088 106.545 35.8249C106.545 36.1411 106.801 36.3974 107.117 36.3974Z" fill="#C32D4F"/>
<path d="M58.9025 36.4875C59.2214 36.4875 59.48 36.229 59.48 35.91C59.48 35.5911 59.2214 35.3325 58.9025 35.3325C58.5836 35.3325 58.325 35.5911 58.325 35.91C58.325 36.229 58.5836 36.4875 58.9025 36.4875Z" fill="#C32D4F"/>
<path d="M106.382 38.5999C106.701 38.5999 106.96 38.3414 106.96 38.0224C106.96 37.7035 106.701 37.4449 106.382 37.4449C106.064 37.4449 105.805 37.7035 105.805 38.0224C105.805 38.3414 106.064 38.5999 106.382 38.5999Z" fill="#C32D4F"/>
<path d="M59.645 38.6775C59.9639 38.6775 60.2225 38.4189 60.2225 38.1C60.2225 37.781 59.9639 37.5225 59.645 37.5225C59.3261 37.5225 59.0675 37.781 59.0675 38.1C59.0675 38.4189 59.3261 38.6775 59.645 38.6775Z" fill="#C32D4F"/>
<path d="M105.455 40.7151C105.774 40.7151 106.033 40.4565 106.033 40.1376C106.033 39.8186 105.774 39.5601 105.455 39.5601C105.136 39.5601 104.878 39.8186 104.878 40.1376C104.878 40.4565 105.136 40.7151 105.455 40.7151Z" fill="#C32D4F"/>
<path d="M60.585 40.7975C60.9053 40.7975 61.165 40.5378 61.165 40.2174C61.165 39.8971 60.9053 39.6375 60.585 39.6375C60.2647 39.6375 60.005 39.8971 60.005 40.2174C60.005 40.5378 60.2647 40.7975 60.585 40.7975Z" fill="#C32D4F"/>
<path d="M104.325 42.735C104.644 42.735 104.902 42.4764 104.902 42.1575C104.902 41.8385 104.644 41.58 104.325 41.58C104.006 41.58 103.747 41.8385 103.747 42.1575C103.747 42.4764 104.006 42.735 104.325 42.735Z" fill="#C32D4F"/>
<path d="M61.7125 42.81C62.0314 42.81 62.29 42.5515 62.29 42.2325C62.29 41.9136 62.0314 41.655 61.7125 41.655C61.3936 41.655 61.135 41.9136 61.135 42.2325C61.135 42.5515 61.3936 42.81 61.7125 42.81Z" fill="#C32D4F"/>
<path d="M103.012 44.655C103.334 44.655 103.595 44.3942 103.595 44.0725C103.595 43.7508 103.334 43.49 103.012 43.49C102.691 43.49 102.43 43.7508 102.43 44.0725C102.43 44.3942 102.691 44.655 103.012 44.655Z" fill="#C32D4F"/>
<path d="M63.0325 44.7125C63.3514 44.7125 63.61 44.4539 63.61 44.135C63.61 43.8161 63.3514 43.5575 63.0325 43.5575C62.7136 43.5575 62.455 43.8161 62.455 44.135C62.455 44.4539 62.7136 44.7125 63.0325 44.7125Z" fill="#C32D4F"/>
<path d="M101.545 46.435C101.864 46.435 102.122 46.1765 102.122 45.8575C102.122 45.5386 101.864 45.28 101.545 45.28C101.226 45.28 100.967 45.5386 100.967 45.8575C100.967 46.1765 101.226 46.435 101.545 46.435Z" fill="#C32D4F"/>
<path d="M64.5125 46.4925C64.8314 46.4925 65.09 46.234 65.09 45.915C65.09 45.5961 64.8314 45.3375 64.5125 45.3375C64.1935 45.3375 63.935 45.5961 63.935 45.915C63.935 46.234 64.1935 46.4925 64.5125 46.4925Z" fill="#C32D4F"/>
<path d="M99.905 48.07C100.223 48.07 100.48 47.8126 100.48 47.495C100.48 47.1775 100.223 46.92 99.905 46.92C99.5875 46.92 99.33 47.1775 99.33 47.495C99.33 47.8126 99.5875 48.07 99.905 48.07Z" fill="#C32D4F"/>
<path d="M66.15 48.1175C66.4662 48.1175 66.7225 47.8612 66.7225 47.545C66.7225 47.2288 66.4662 46.9725 66.15 46.9725C65.8338 46.9725 65.5775 47.2288 65.5775 47.545C65.5775 47.8612 65.8338 48.1175 66.15 48.1175Z" fill="#C32D4F"/>
<path d="M98.13 49.5525C98.4503 49.5525 98.71 49.2928 98.71 48.9725C98.71 48.6521 98.4503 48.3925 98.13 48.3925C97.8097 48.3925 97.55 48.6521 97.55 48.9725C97.55 49.2928 97.8097 49.5525 98.13 49.5525Z" fill="#C32D4F"/>
<path d="M67.9375 49.5999C68.2564 49.5999 68.515 49.3414 68.515 49.0224C68.515 48.7035 68.2564 48.4449 67.9375 48.4449C67.6186 48.4449 67.36 48.7035 67.36 49.0224C67.36 49.3414 67.6186 49.5999 67.9375 49.5999Z" fill="#C32D4F"/>
<path d="M96.2225 50.8675C96.5428 50.8675 96.8025 50.6078 96.8025 50.2875C96.8025 49.9672 96.5428 49.7075 96.2225 49.7075C95.9022 49.7075 95.6425 49.9672 95.6425 50.2875C95.6425 50.6078 95.9022 50.8675 96.2225 50.8675Z" fill="#C32D4F"/>
<path d="M69.8475 50.9C70.1637 50.9 70.42 50.6437 70.42 50.3275C70.42 50.0113 70.1637 49.755 69.8475 49.755C69.5313 49.755 69.275 50.0113 69.275 50.3275C69.275 50.6437 69.5313 50.9 69.8475 50.9Z" fill="#C32D4F"/>
<path d="M71.8675 52.02C72.1865 52.02 72.445 51.7614 72.445 51.4425C72.445 51.1235 72.1865 50.865 71.8675 50.865C71.5486 50.865 71.29 51.1235 71.29 51.4425C71.29 51.7614 71.5486 52.02 71.8675 52.02Z" fill="#C32D4F"/>
<path d="M94.2 51.99C94.5189 51.99 94.7775 51.7314 94.7775 51.4125C94.7775 51.0935 94.5189 50.835 94.2 50.835C93.8811 50.835 93.6225 51.0935 93.6225 51.4125C93.6225 51.7314 93.8811 51.99 94.2 51.99Z" fill="#C32D4F"/>
<path d="M92.0875 52.935C92.4078 52.935 92.6675 52.6753 92.6675 52.355C92.6675 52.0347 92.4078 51.775 92.0875 51.775C91.7672 51.775 91.5075 52.0347 91.5075 52.355C91.5075 52.6753 91.7672 52.935 92.0875 52.935Z" fill="#C32D4F"/>
<path d="M73.985 52.9651C74.3053 52.9651 74.565 52.7054 74.565 52.3851C74.565 52.0647 74.3053 51.8051 73.985 51.8051C73.6647 51.8051 73.405 52.0647 73.405 52.3851C73.405 52.7054 73.6647 52.9651 73.985 52.9651Z" fill="#C32D4F"/>
<path d="M76.1875 53.6975C76.5092 53.6975 76.77 53.4367 76.77 53.115C76.77 52.7933 76.5092 52.5325 76.1875 52.5325C75.8658 52.5325 75.605 52.7933 75.605 53.115C75.605 53.4367 75.8658 53.6975 76.1875 53.6975Z" fill="#C32D4F"/>
<path d="M89.895 53.67C90.2167 53.67 90.4775 53.4092 90.4775 53.0875C90.4775 52.7658 90.2167 52.505 89.895 52.505C89.5733 52.505 89.3125 52.7658 89.3125 53.0875C89.3125 53.4092 89.5733 53.67 89.895 53.67Z" fill="#C32D4F"/>
<path d="M78.4325 54.2175C78.7528 54.2175 79.0125 53.9578 79.0125 53.6375C79.0125 53.3172 78.7528 53.0575 78.4325 53.0575C78.1122 53.0575 77.8525 53.3172 77.8525 53.6375C77.8525 53.9578 78.1122 54.2175 78.4325 54.2175Z" fill="#C32D4F"/>
<path d="M87.65 54.2C87.969 54.2 88.2275 53.9415 88.2275 53.6225C88.2275 53.3036 87.969 53.045 87.65 53.045C87.3311 53.045 87.0725 53.3036 87.0725 53.6225C87.0725 53.9415 87.3311 54.2 87.65 54.2Z" fill="#C32D4F"/>
<path d="M80.7275 54.525C81.0451 54.525 81.3025 54.2676 81.3025 53.95C81.3025 53.6324 81.0451 53.375 80.7275 53.375C80.4099 53.375 80.1525 53.6324 80.1525 53.95C80.1525 54.2676 80.4099 54.525 80.7275 54.525Z" fill="#C32D4F"/>
<path d="M85.355 54.5176C85.6726 54.5176 85.93 54.2601 85.93 53.9426C85.93 53.625 85.6726 53.3676 85.355 53.3676C85.0374 53.3676 84.78 53.625 84.78 53.9426C84.78 54.2601 85.0374 54.5176 85.355 54.5176Z" fill="#C32D4F"/>
<path d="M83.04 54.6225C83.3589 54.6225 83.6175 54.364 83.6175 54.045C83.6175 53.7261 83.3589 53.4675 83.04 53.4675C82.721 53.4675 82.4625 53.7261 82.4625 54.045C82.4625 54.364 82.721 54.6225 83.04 54.6225Z" fill="#C32D4F"/>
</svg>
