<svg width="166" height="58" viewBox="0 0 166 58" fill="none" xmlns="http://www.w3.org/2000/svg">
<path d="M107.702 35.7877L106.825 35.8302C106.743 35.8335 106.668 35.8135 106.6 35.7702C106.255 35.5552 105.972 35.441 105.75 35.4277C104.575 35.3594 102.747 35.3569 100.267 35.4202C99.929 35.4285 99.6374 35.4935 99.3924 35.6152C99.129 35.7419 98.8649 35.8977 98.5999 36.0827" stroke="#08D780" stroke-opacity="0.835" stroke-width="2"/>
<path d="M98.6 36.0827C98.335 35.9827 98.025 35.9985 97.67 36.1302C97.585 36.1618 97.5258 36.1343 97.4925 36.0477L97.325 35.6177" stroke="#0BF894"/>
<path d="M24.03 18.1551C25.0966 18.0618 26.1891 18.2826 27.3075 18.8176C27.5508 18.9343 27.9175 18.8909 28.4075 18.6876C28.4841 18.6559 28.5366 18.6009 28.565 18.5226C29.195 16.8151 24.0725 16.6976 23.08 16.6701C23.0397 16.6685 22.9998 16.6776 22.9642 16.6965C22.9286 16.7154 22.8987 16.7434 22.8775 16.7776C22.6791 17.0893 22.6541 17.4084 22.8025 17.7351C23.0525 18.2826 23.5175 18.2001 24.03 18.1551Z" stroke="#067C4B" stroke-width="2"/>
<path d="M24.9974 39.2176C29.5549 38.9426 33.4649 34.8626 33.9749 30.3976C34.4674 26.0526 32.1749 21.3701 28.0299 19.5776C26.4924 18.9126 24.3724 18.6976 22.6874 18.7576C19.4549 18.8701 16.5299 21.0951 14.8924 23.7051C12.7824 27.0701 12.9974 31.0151 14.9849 34.3851C17.0482 37.8868 20.3857 39.4976 24.9974 39.2176Z" stroke="#808080" stroke-width="2"/>
<path d="M13.4599 24.4352L17.2849 19.8302C17.2952 19.8168 17.3 19.8 17.2981 19.7832C17.2963 19.7664 17.2879 19.7509 17.2749 19.7402L16.9549 19.4727C16.85 19.3857 16.7122 19.3404 16.5494 19.3394C16.3866 19.3384 16.2019 19.3817 16.006 19.4669C15.81 19.5521 15.6066 19.6775 15.4074 19.8359C15.2082 19.9944 15.017 20.1827 14.8449 20.3902L13.5599 21.9352C13.3876 22.1427 13.2377 22.3653 13.1187 22.5903C12.9997 22.8153 12.914 23.0383 12.8664 23.2465C12.8188 23.4548 12.8103 23.6442 12.8413 23.804C12.8724 23.9638 12.9424 24.0907 13.0474 24.1777L13.3699 24.4452C13.3832 24.4556 13.4001 24.4603 13.4169 24.4584C13.4337 24.4566 13.4491 24.4482 13.4599 24.4352Z" stroke="#067C4B" stroke-width="2"/>
<path d="M33.7623 22.0828L32.9948 22.3853C32.9107 22.4192 32.8434 22.4851 32.8078 22.5685C32.7722 22.6519 32.7711 22.7461 32.8048 22.8303L34.3873 26.8278C34.4531 26.9942 34.536 27.152 34.6311 27.2922C34.7263 27.4324 34.8319 27.5523 34.942 27.6449C35.052 27.7375 35.1643 27.8011 35.2725 27.8321C35.3806 27.863 35.4825 27.8607 35.5723 27.8253L35.6098 27.8103C35.7906 27.7379 35.911 27.5353 35.9448 27.247C35.9785 26.9587 35.9228 26.6084 35.7898 26.2728L34.2073 22.2753C34.1908 22.2334 34.1661 22.1952 34.1348 22.1628C34.1035 22.1305 34.0661 22.1046 34.0247 22.0867C33.9834 22.0689 33.9389 22.0593 33.8939 22.0586C33.8489 22.058 33.8042 22.0662 33.7623 22.0828Z" stroke="#067C4B" stroke-width="2"/>
<path d="M14.2274 34.1575C13.6224 33.0675 13.2724 32.0425 13.0449 30.8125C12.9324 30.2 12.4274 30.2125 11.9749 30.3475C10.9299 30.66 12.2249 33.2675 12.4449 33.895C12.6799 34.5625 13.1324 35.485 13.5599 35.875C13.8899 36.1775 14.3524 35.89 14.4324 35.4875C14.5257 35.0159 14.4574 34.5725 14.2274 34.1575Z" stroke="#067C4B" stroke-width="2"/>
<path d="M31.4023 38.7227C32.4873 37.9052 34.6298 35.6977 34.6548 34.2277C34.6556 34.1868 34.6465 34.1463 34.6282 34.1098C34.6099 34.0732 34.583 34.0416 34.5498 34.0177C34.0248 33.6327 33.5223 33.7877 33.1973 34.3552C32.3323 35.8677 31.3673 36.5852 30.4298 37.8052C30.3824 37.8674 30.3502 37.94 30.3358 38.0169C30.3215 38.0939 30.3255 38.1731 30.3473 38.2482C30.3692 38.3234 30.4085 38.3924 30.4619 38.4496C30.5153 38.5068 30.5814 38.5507 30.6548 38.5777L31.1548 38.7577C31.1955 38.773 31.2395 38.7779 31.2827 38.7718C31.326 38.7657 31.3671 38.7488 31.4023 38.7227Z" stroke="#067C4B" stroke-width="2"/>
<path d="M19.2549 40.4327C19.8449 40.6652 20.2924 40.9452 20.9399 41.0577C22.0515 41.2527 23.1774 41.3502 24.3174 41.3502C24.3578 41.3502 24.3976 41.3407 24.4336 41.3225C24.4697 41.3042 24.5009 41.2778 24.5249 41.2452C24.7149 40.9902 24.6424 40.5102 24.5974 40.2252C24.559 39.9685 24.3807 39.8535 24.0624 39.8802C22.619 40.0035 21.3082 39.7919 20.1299 39.2452C19.0574 38.7477 18.4974 40.1377 19.2549 40.4327Z" stroke="#067C4B" stroke-width="2"/>
<path d="M21.6173 25.0703C22.1873 26.0619 22.8207 27.0103 23.5173 27.9153C23.649 28.0836 23.9148 28.1694 24.3148 28.1728C24.3932 28.1744 24.4565 28.1436 24.5048 28.0803C24.7048 27.8178 24.8498 27.5603 25.1298 27.3703C25.9073 26.8428 27.2823 26.0003 27.4723 25.0603C27.7223 23.8203 26.9773 22.8703 25.7523 22.7478C25.239 22.6961 24.6557 22.5436 24.0023 22.2903C22.4348 21.6803 20.7548 23.5728 21.6173 25.0703Z" stroke="#808080" stroke-width="2"/>
<path d="M22.4048 28.095C21.9215 27.2167 21.3173 26.4317 20.5923 25.74C19.7073 24.895 18.4898 25 17.7698 25.9375C17.5348 26.2409 17.3756 26.7125 17.2923 27.3525C17.1473 28.4425 16.6298 30.0075 17.6373 30.8125C19.2623 32.1125 21.2948 30.125 22.5498 29.2975C22.7815 29.1459 22.8873 28.8934 22.8673 28.54C22.8623 28.46 22.8248 28.4 22.7548 28.36C22.5581 28.2484 22.4415 28.16 22.4048 28.095Z" stroke="#808080" stroke-width="2"/>
<path d="M30.0873 30.055C30.6223 29.015 30.6773 27.5725 29.5123 27.03C27.8048 26.235 26.1598 27.8925 24.9848 28.73C24.7615 28.89 24.624 29.0925 24.5723 29.3375C24.5573 29.4125 24.5782 29.4758 24.6348 29.5275C24.9898 29.8425 25.389 30.3666 25.8323 31.1C26.039 31.4433 26.3765 31.8083 26.8448 32.195C28.6048 33.65 30.1773 32.3775 30.0373 30.2975C30.0308 30.2142 30.0481 30.1301 30.0873 30.055Z" stroke="#808080" stroke-width="2"/>
<path d="M20.0949 33.72C20.1499 34.3833 20.4274 34.8691 20.9274 35.1775C21.1474 35.3125 21.5966 35.4125 22.2749 35.4775C22.7516 35.5225 23.2191 35.6183 23.6774 35.765C25.5749 36.375 26.3299 34.3175 25.7874 32.835C25.4849 32.0125 24.4749 31.0025 23.9949 29.9925C23.9682 29.9358 23.9249 29.8975 23.8649 29.8775C23.4249 29.7308 23.1082 29.8441 22.9149 30.2175C22.8706 30.3026 22.8041 30.3743 22.7224 30.425C21.5624 31.1425 19.9624 32.1575 20.0949 33.72Z" stroke="#808080" stroke-width="2"/>
<path d="M26.7373 24.8251C27.0073 23.5826 25.7073 23.0901 24.6898 23.3526C24.6496 23.3628 24.6079 23.3645 24.5674 23.3576C24.5269 23.3507 24.4885 23.3354 24.4548 23.3126C23.7498 22.8476 23.0557 22.8834 22.3723 23.4201C21.8523 23.8276 21.7773 24.1601 22.1323 24.7501C22.589 25.5101 23.114 26.3342 23.7073 27.2226C23.7416 27.2736 23.7858 27.3172 23.8374 27.3506C23.889 27.3839 23.9469 27.4065 24.0074 27.4168C24.068 27.4271 24.1301 27.4249 24.1898 27.4104C24.2495 27.3959 24.3057 27.3695 24.3548 27.3326C24.9573 26.8776 26.5623 25.6351 26.7373 24.8251Z" stroke="#067C4B" stroke-width="2"/>
<path d="M22.1098 28.5527C21.3098 27.4427 19.6248 24.6602 18.1098 26.6627C18.0104 26.7945 17.953 26.953 17.9448 27.1177C17.8823 28.3802 17.0898 30.1127 18.8173 30.7102C18.8995 30.7375 18.9884 30.7339 19.0673 30.7002C20.1623 30.2202 21.1656 29.5927 22.0773 28.8177C22.1149 28.7856 22.1391 28.7405 22.1451 28.6915C22.1511 28.6424 22.1385 28.5929 22.1098 28.5527Z" stroke="#067C4B" stroke-width="2"/>
<path d="M29.4125 30.0878C29.685 29.1228 30.365 27.9803 28.935 27.5328C27.77 27.1703 26.23 28.4203 25.48 29.1603C25.4289 29.2105 25.3979 29.2777 25.3928 29.3495C25.3878 29.4213 25.409 29.4926 25.4525 29.5503C25.9575 30.207 26.4917 30.8411 27.055 31.4528C27.865 32.3311 28.6283 32.3028 29.345 31.3678C29.5833 31.0595 29.6125 30.7095 29.4325 30.3178C29.3986 30.2453 29.3916 30.1638 29.4125 30.0878Z" stroke="#067C4B" stroke-width="2"/>
<path d="M25.1499 33.07C24.8049 32.3275 24.1949 31.37 23.6599 30.78C23.6078 30.7231 23.537 30.6868 23.4604 30.6776C23.3838 30.6684 23.3065 30.687 23.2424 30.73C22.3574 31.33 19.3699 33.4425 21.4149 34.64C21.9599 34.9575 22.9949 34.8025 23.7149 34.9875C25.0774 35.3375 25.7099 34.27 25.1499 33.07Z" stroke="#067C4B" stroke-width="2"/>
<path d="M36.5326 29.0474C36.5326 32.4296 35.189 35.6732 32.7975 38.0648C30.4059 40.4564 27.1623 41.7999 23.7801 41.7999C20.3979 41.7999 17.1543 40.4564 14.7627 38.0648C12.3712 35.6732 11.0276 32.4296 11.0276 29.0474C11.0276 25.6652 12.3712 22.4216 14.7627 20.03C17.1543 17.6385 20.3979 16.2949 23.7801 16.2949C27.1623 16.2949 30.4059 17.6385 32.7975 20.03C35.189 22.4216 36.5326 25.6652 36.5326 29.0474ZM24.0301 18.1549C25.0968 18.0616 26.1893 18.2824 27.3076 18.8174C27.5509 18.9341 27.9176 18.8908 28.4076 18.6874C28.4843 18.6558 28.5368 18.6008 28.5651 18.5224C29.1951 16.8149 24.0726 16.6974 23.0801 16.6699C23.0398 16.6683 22.9999 16.6774 22.9643 16.6963C22.9287 16.7152 22.8988 16.7432 22.8776 16.7774C22.6793 17.0891 22.6543 17.4083 22.8026 17.7349C23.0526 18.2824 23.5176 18.1999 24.0301 18.1549ZM24.9976 39.2174C29.5551 38.9424 33.4651 34.8624 33.9751 30.3974C34.4676 26.0524 32.1751 21.3699 28.0301 19.5774C26.4926 18.9124 24.3726 18.6974 22.6876 18.7574C19.4551 18.8699 16.5301 21.0949 14.8926 23.7049C12.7826 27.0699 12.9976 31.0149 14.9851 34.3849C17.0484 37.8866 20.3859 39.4974 24.9976 39.2174ZM13.4601 24.4349L17.2851 19.8299C17.2955 19.8166 17.3002 19.7997 17.2983 19.7829C17.2965 19.7661 17.2881 19.7507 17.2751 19.7399L16.9551 19.4724C16.8502 19.3854 16.7124 19.3401 16.5496 19.3391C16.3868 19.3381 16.2021 19.3815 16.0062 19.4667C15.8103 19.5519 15.6069 19.6773 15.4076 19.8357C15.2084 19.9941 15.0172 20.1824 14.8451 20.3899L13.5601 21.9349C13.3878 22.1424 13.2379 22.365 13.1189 22.59C12.9999 22.815 12.9142 23.038 12.8666 23.2463C12.819 23.4545 12.8105 23.6439 12.8415 23.8037C12.8726 23.9635 12.9426 24.0905 13.0476 24.1774L13.3701 24.4449C13.3834 24.4553 13.4003 24.46 13.4171 24.4582C13.4339 24.4563 13.4493 24.448 13.4601 24.4349ZM33.7626 22.0824L32.9951 22.3849C32.9109 22.4188 32.8437 22.4847 32.8081 22.5681C32.7724 22.6516 32.7714 22.7457 32.8051 22.8299L34.3876 26.8274C34.4534 26.9938 34.5362 27.1517 34.6314 27.2919C34.7266 27.4321 34.8322 27.5519 34.9422 27.6445C35.0523 27.7372 35.1646 27.8008 35.2727 27.8317C35.3809 27.8627 35.4828 27.8604 35.5726 27.8249L35.6101 27.8099C35.7908 27.7375 35.9113 27.5349 35.9451 27.2466C35.9788 26.9584 35.9231 26.608 35.7901 26.2724L34.2076 22.2749C34.191 22.233 34.1664 22.1948 34.1351 22.1625C34.1037 22.1301 34.0663 22.1043 34.025 22.0864C33.9837 22.0685 33.9392 22.0589 33.8942 22.0583C33.8492 22.0576 33.8044 22.0658 33.7626 22.0824ZM14.2276 34.1574C13.6226 33.0674 13.2726 32.0424 13.0451 30.8124C12.9326 30.1999 12.4276 30.2124 11.9751 30.3474C10.9301 30.6599 12.2251 33.2674 12.4451 33.8949C12.6801 34.5624 13.1326 35.4849 13.5601 35.8749C13.8901 36.1774 14.3526 35.8899 14.4326 35.4874C14.5259 35.0158 14.4576 34.5724 14.2276 34.1574ZM31.4026 38.7224C32.4876 37.9049 34.6301 35.6974 34.6551 34.2274C34.6559 34.1865 34.6468 34.1461 34.6285 34.1095C34.6102 34.0729 34.5833 34.0413 34.5501 34.0174C34.0251 33.6324 33.5226 33.7874 33.1976 34.3549C32.3326 35.8674 31.3676 36.5849 30.4301 37.8049C30.3826 37.8672 30.3504 37.9397 30.3361 38.0166C30.3218 38.0936 30.3257 38.1728 30.3476 38.248C30.3695 38.3231 30.4087 38.3921 30.4621 38.4493C30.5155 38.5065 30.5816 38.5504 30.6551 38.5774L31.1551 38.7574C31.1958 38.7728 31.2398 38.7776 31.283 38.7715C31.3262 38.7654 31.3673 38.7485 31.4026 38.7224ZM19.2551 40.4324C19.8451 40.6649 20.2926 40.9449 20.9401 41.0574C22.0518 41.2524 23.1776 41.3499 24.3176 41.3499C24.358 41.3499 24.3978 41.3404 24.4339 41.3222C24.4699 41.3039 24.5012 41.2775 24.5251 41.2449C24.7151 40.9899 24.6426 40.5099 24.5976 40.2249C24.5593 39.9683 24.3809 39.8533 24.0626 39.8799C22.6193 40.0033 21.3084 39.7916 20.1301 39.2449C19.0576 38.7474 18.4976 40.1374 19.2551 40.4324Z" fill="#000001"/>
<path d="M24.03 18.1551C23.5175 18.2001 23.0525 18.2826 22.8025 17.7351C22.6541 17.4084 22.6791 17.0893 22.8775 16.7776C22.8987 16.7434 22.9286 16.7154 22.9642 16.6965C22.9998 16.6776 23.0397 16.6685 23.08 16.6701C24.0725 16.6976 29.195 16.8151 28.565 18.5226C28.5366 18.6009 28.4841 18.6559 28.4075 18.6876C27.9175 18.8909 27.5508 18.9343 27.3075 18.8176C26.1891 18.2826 25.0966 18.0618 24.03 18.1551Z" fill="#0BF894"/>
<path d="M33.9751 30.3976C33.4651 34.8626 29.5551 38.9426 24.9976 39.2176C20.386 39.4976 17.0485 37.8868 14.9851 34.3851C12.9976 31.0151 12.7826 27.0701 14.8926 23.7051C16.5301 21.0951 19.4551 18.8701 22.6876 18.7576C24.3726 18.6976 26.4926 18.9126 28.0301 19.5776C32.1751 21.3701 34.4676 26.0526 33.9751 30.3976ZM21.6176 25.0701C22.1876 26.0618 22.821 27.0101 23.5176 27.9151C23.6493 28.0835 23.9151 28.1693 24.3151 28.1726C24.3935 28.1743 24.4568 28.1435 24.5051 28.0801C24.7051 27.8176 24.8501 27.5601 25.1301 27.3701C25.9076 26.8426 27.2826 26.0001 27.4726 25.0601C27.7226 23.8201 26.9776 22.8701 25.7526 22.7476C25.2393 22.696 24.656 22.5435 24.0026 22.2902C22.4351 21.6802 20.7551 23.5726 21.6176 25.0701ZM22.4051 28.0951C21.9218 27.2168 21.3176 26.4318 20.5926 25.7401C19.7076 24.8951 18.4901 25.0001 17.7701 25.9376C17.5351 26.241 17.376 26.7126 17.2926 27.3526C17.1476 28.4426 16.6301 30.0076 17.6376 30.8126C19.2626 32.1126 21.2951 30.1251 22.5501 29.2976C22.7818 29.146 22.8876 28.8935 22.8676 28.5401C22.8626 28.4601 22.8251 28.4001 22.7551 28.3601C22.5585 28.2485 22.4418 28.1601 22.4051 28.0951ZM30.0876 30.0551C30.6226 29.0151 30.6776 27.5726 29.5126 27.0301C27.8051 26.2351 26.1601 27.8926 24.9851 28.7301C24.7618 28.8901 24.6243 29.0926 24.5726 29.3376C24.5576 29.4126 24.5785 29.476 24.6351 29.5276C24.9901 29.8426 25.3893 30.3668 25.8326 31.1001C26.0393 31.4435 26.3768 31.8085 26.8451 32.1951C28.6051 33.6501 30.1776 32.3776 30.0376 30.2976C30.0311 30.2144 30.0484 30.1303 30.0876 30.0551ZM20.0951 33.7201C20.1501 34.3835 20.4276 34.8693 20.9276 35.1777C21.1476 35.3127 21.5968 35.4126 22.2751 35.4776C22.7518 35.5226 23.2193 35.6185 23.6776 35.7651C25.5751 36.3751 26.3301 34.3176 25.7876 32.8351C25.4851 32.0126 24.4751 31.0026 23.9951 29.9926C23.9685 29.936 23.9251 29.8976 23.8651 29.8776C23.4251 29.731 23.1085 29.8443 22.9151 30.2176C22.8709 30.3028 22.8044 30.3745 22.7226 30.4251C21.5626 31.1426 19.9626 32.1576 20.0951 33.7201Z" fill="white"/>
<path d="M13.4601 24.4352C13.4494 24.4482 13.4339 24.4566 13.4171 24.4584C13.4003 24.4603 13.3835 24.4556 13.3701 24.4452L13.0476 24.1777C12.9426 24.0907 12.8726 23.9638 12.8416 23.804C12.8105 23.6442 12.819 23.4548 12.8666 23.2465C12.9142 23.0383 12.9999 22.8153 13.1189 22.5903C13.2379 22.3653 13.3878 22.1427 13.5601 21.9352L14.8451 20.3902C15.0173 20.1827 15.2084 19.9944 15.4077 19.8359C15.6069 19.6775 15.8103 19.5521 16.0062 19.4669C16.2022 19.3817 16.3868 19.3384 16.5496 19.3394C16.7124 19.3404 16.8502 19.3857 16.9551 19.4727L17.2751 19.7402C17.2882 19.7509 17.2965 19.7664 17.2984 19.7832C17.3002 19.8 17.2955 19.8168 17.2851 19.8302L13.4601 24.4352Z" fill="#0BF894"/>
<path d="M49.2601 35.7975C47.4634 36.4525 45.6276 36.5183 43.7526 35.995C40.3901 34.7975 38.6001 31.925 39.4651 28.4675C39.8726 26.8475 40.5201 25.3025 41.7751 24.1625C44.6951 21.5125 49.5776 20.8325 52.8251 23.505C53.2926 23.89 53.3926 24.53 52.9276 24.955C52.3392 25.4917 51.7434 26.0192 51.1401 26.5375C51.0767 26.5925 51.0084 26.5992 50.9351 26.5575C49.5301 25.745 48.2951 24.6575 46.5101 25.31C43.9334 26.2483 42.9176 28.1258 43.4626 30.9425C43.7426 32.39 45.5501 33.0125 46.8201 32.9325C47.8651 32.8675 48.6826 32.4 49.5851 31.8275C50.4926 31.2525 51.4451 32.51 51.7826 33.1975C52.3276 34.3025 50.0201 35.48 49.2601 35.7975Z" fill="white"/>
<path d="M60.2499 36.2974L59.4074 36.5449L58.5624 36.6324C58.4074 36.6024 58.2599 36.6074 58.1199 36.6474L57.6974 36.6174C56.7758 36.5507 55.8624 36.3207 54.9574 35.9274C54.4108 35.7157 53.8324 35.504 53.2224 35.2924C52.7099 35.1149 52.5474 34.8824 52.6424 34.3599C52.6658 34.2332 52.7449 34.0882 52.8799 33.9249C53.2599 33.4632 53.4591 32.984 53.4774 32.4874C53.4809 32.3901 53.5093 32.2954 53.56 32.2123C53.6106 32.1292 53.6818 32.0604 53.7668 32.0125C53.8518 31.9647 53.9477 31.9393 54.0454 31.9388C54.143 31.9384 54.2393 31.9628 54.3249 32.0099C55.9666 32.9182 57.7116 33.259 59.5599 33.0324C60.0299 32.9757 60.4291 32.7765 60.7574 32.4349C60.8155 32.3737 60.8493 32.2928 60.8524 32.2074C60.8708 31.6224 60.5708 31.2307 59.9524 31.0324C57.7124 30.3174 53.5199 29.6799 54.1674 26.2749C55.1499 21.1049 61.8599 21.1324 65.5999 22.8899C65.6323 22.9047 65.6613 22.926 65.6853 22.9525C65.7092 22.9789 65.7276 23.01 65.7392 23.0438C65.7509 23.0777 65.7556 23.1136 65.7532 23.1494C65.7507 23.1852 65.7411 23.2203 65.7249 23.2524L64.4199 25.8299C64.3978 25.8726 64.36 25.9052 64.3147 25.9206C64.2695 25.936 64.2202 25.933 64.1774 25.9124C62.4499 25.0699 60.3074 24.4949 58.5549 25.3924C58.3099 25.5174 58.1691 25.7257 58.1324 26.0174C58.0474 26.6974 58.6549 27.1549 59.2499 27.3099C61.5224 27.9024 64.6124 28.2874 64.7649 31.3074C64.9074 34.1499 62.5749 35.3724 60.2499 36.2974Z" fill="white"/>
<path d="M91.9375 35.4699C89.8775 36.4649 88.17 37.2574 85.92 36.2324C84.17 35.4374 82.1375 34.2124 81.6525 32.1824C81.1525 30.0841 81.32 28.1682 82.155 26.4349C84.33 21.9224 90.8175 20.2399 94.7825 23.4749C96.975 25.2624 97.11 28.5099 96.155 31.0024C95.3933 32.9907 93.9875 34.4799 91.9375 35.4699ZM86.3301 32.3405C86.6879 32.6429 87.1126 32.8591 87.5797 32.9769C88.0469 33.0947 88.5474 33.1117 89.0528 33.0269C89.5581 32.9421 90.0584 32.7573 90.525 32.4828C90.9916 32.2084 91.4155 31.8499 91.7723 31.4276C92.1292 31.0053 92.4121 30.5276 92.6048 30.0217C92.7976 29.5159 92.8964 28.9918 92.8957 28.4794C92.895 27.967 92.7948 27.4763 92.6008 27.0353C92.4067 26.5943 92.1227 26.2117 91.7649 25.9093C91.407 25.6069 90.9824 25.3907 90.5153 25.2729C90.0481 25.1551 89.5476 25.1381 89.0422 25.2229C88.5368 25.3077 88.0366 25.4925 87.5699 25.767C87.1033 26.0414 86.6795 26.3999 86.3226 26.8222C85.9658 27.2445 85.6829 27.7222 85.4902 28.2281C85.2974 28.7339 85.1986 29.258 85.1992 29.7704C85.1999 30.2828 85.3002 30.7735 85.4942 31.2145C85.6882 31.6555 85.9723 32.0381 86.3301 32.3405Z" fill="white"/>
<path d="M74.5325 32.9651C75.225 32.8601 75.505 32.4476 75.6675 31.7451C75.8625 30.8968 76.0692 30.0443 76.2875 29.1876C76.3146 29.0795 76.3768 28.9834 76.4645 28.9142C76.5522 28.845 76.6605 28.8067 76.7725 28.8051L79.3325 28.7701C79.3977 28.7693 79.4623 28.7834 79.5212 28.8115C79.5801 28.8396 79.6317 28.8809 79.6721 28.9321C79.7124 28.9834 79.7405 29.0432 79.754 29.107C79.7675 29.1709 79.7661 29.2369 79.75 29.3001C79.3467 30.8835 79.0292 32.4835 78.7975 34.1001C78.6725 34.9776 76.18 36.0101 75.43 36.3651C74.75 36.6885 73.9875 36.8443 73.1425 36.8326C71.2825 36.8076 68.8975 35.3376 67.6375 34.1076C66.905 33.3926 66.5075 32.1426 66.3925 31.0601C66.1042 28.3568 66.8509 26.1226 68.6325 24.3576C71.7775 21.2451 77.395 20.9726 80.6625 23.9651C80.7122 24.0101 80.7524 24.0647 80.7805 24.1256C80.8086 24.1864 80.8242 24.2524 80.8263 24.3196C80.8284 24.3868 80.817 24.4538 80.7927 24.5166C80.7684 24.5793 80.7318 24.6367 80.685 24.6851C80.0617 25.3335 79.3967 25.8801 78.69 26.3251C78.4125 26.5001 78.005 26.3951 77.7075 26.2151C76.05 25.2076 74.9025 24.8876 72.9325 25.6226C68.91 27.1226 68.9675 33.8001 74.5325 32.9651Z" fill="white"/>
<path d="M134.49 36.0401L132.998 36.3226C132.834 36.3476 132.753 36.3984 132.753 36.4751C132.483 36.4401 132.247 36.4584 132.045 36.5301C131.237 36.5684 130.703 36.5451 130.443 36.4601C130.129 36.3551 129.525 36.0726 128.63 35.6126C126.223 34.3701 124.948 32.8001 125.073 29.8726C125.318 24.2001 130.163 20.9626 135.625 22.0601C136.48 22.2326 138.933 23.2701 139.045 24.3576C139.085 24.7442 138.88 25.0092 138.43 25.1526C138.351 25.1772 138.28 25.2211 138.223 25.2801C137.615 25.9151 136.758 26.8301 136.005 26.1951C134.92 25.2776 133.59 24.9451 132.193 25.3326C130.328 25.8509 129.256 27.1767 128.978 29.3101C128.598 32.2276 131.338 33.6276 133.773 32.6701C134.353 32.4401 134.948 31.9551 135.45 31.7001C136.195 31.3251 137.208 32.6601 137.59 33.2201C137.813 33.5451 137.868 33.7826 137.578 34.1001C136.77 34.9826 135.563 35.5501 134.49 36.0401Z" fill="#0BF894"/>
<path d="M142.675 36.19L141.318 36.2475C140.933 36.2209 140.368 36.2325 139.625 36.2825C139.212 36.3092 139.015 36.1042 139.035 35.6675C139.04 34.205 139.64 32.5625 139.835 31.5325C140.403 28.5375 140.967 25.5684 141.525 22.625C141.585 22.3134 141.773 22.1559 142.09 22.1525L145.253 22.11C145.533 22.1067 145.636 22.24 145.563 22.51L144.225 27.3975C144.202 27.4809 144.233 27.5217 144.318 27.52C144.639 27.515 144.877 27.4359 145.03 27.2825C146.517 25.7725 147.913 24.4392 149.218 23.2825C149.77 22.7925 150.408 22.3075 151.158 22.1325C152.353 21.8559 153.524 21.8517 154.673 22.12C154.716 22.1298 154.756 22.1514 154.789 22.1825C154.821 22.2136 154.844 22.2531 154.855 22.2967C154.867 22.3402 154.866 22.3862 154.853 22.4295C154.84 22.4729 154.816 22.512 154.783 22.5425C152.68 24.455 150.645 26.295 148.39 28.1425C148.117 28.3659 148.102 28.6625 148.345 29.0325C149.668 31.0492 150.903 33.1192 152.05 35.2425C152.227 35.5725 152.38 35.8959 152.51 36.2125C152.525 36.2498 152.53 36.2903 152.524 36.33C152.519 36.3697 152.502 36.4072 152.478 36.4387C152.453 36.4701 152.42 36.4945 152.383 36.5092C152.345 36.5239 152.305 36.5285 152.265 36.5225C151.222 36.3692 150.18 36.35 149.14 36.465C149.063 36.4734 148.993 36.4567 148.93 36.415C148.55 36.155 148.218 35.9375 147.958 35.5525C147.313 34.5942 146.613 33.4559 145.86 32.1375C145.68 31.8209 145.423 31.5184 145.09 31.23C145.027 31.175 144.959 31.17 144.888 31.215C142.993 32.435 143.19 34.455 142.675 36.19Z" fill="#0BF894"/>
<path d="M102.522 32.9274L106.84 32.8599L107.942 32.8549C108.281 32.8532 108.408 33.0166 108.325 33.3449L107.735 35.6774C107.678 35.5841 107.667 35.6207 107.702 35.7874L106.825 35.8299C106.743 35.8332 106.668 35.8132 106.6 35.7699C106.255 35.5549 105.972 35.4407 105.75 35.4274C104.575 35.3591 102.747 35.3566 100.267 35.4199C99.9291 35.4282 99.6375 35.4932 99.3925 35.6149C99.1291 35.7416 98.865 35.8974 98.6 36.0824C98.335 35.9824 98.025 35.9982 97.67 36.1299C97.585 36.1616 97.5258 36.1341 97.4925 36.0474L97.325 35.6174L99.9075 22.6099C99.933 22.4815 100.001 22.3656 100.102 22.2815C100.202 22.1974 100.327 22.1501 100.457 22.1474L103.662 22.0899C103.703 22.0891 103.743 22.0974 103.78 22.1142C103.817 22.1311 103.85 22.1561 103.876 22.1873C103.902 22.2185 103.92 22.2552 103.93 22.2946C103.94 22.334 103.941 22.3752 103.932 22.4149L101.842 32.6049C101.829 32.6732 101.852 32.7257 101.91 32.7624C102.067 32.8591 102.271 32.9141 102.522 32.9274Z" fill="#0BF894"/>
<path d="M21.6176 25.0698C20.7551 23.5723 22.4351 21.6798 24.0026 22.2898C24.6559 22.5431 25.2392 22.6956 25.7526 22.7473C26.9776 22.8698 27.7226 23.8198 27.4726 25.0598C27.2826 25.9998 25.9076 26.8423 25.1301 27.3698C24.8501 27.5598 24.7051 27.8173 24.5051 28.0798C24.4567 28.1431 24.3934 28.1739 24.3151 28.1723C23.9151 28.1689 23.6492 28.0831 23.5176 27.9148C22.8209 27.0098 22.1876 26.0614 21.6176 25.0698ZM26.7376 24.8248C27.0076 23.5823 25.7076 23.0898 24.6901 23.3523C24.6499 23.3625 24.6081 23.3642 24.5676 23.3573C24.5271 23.3504 24.4888 23.3351 24.4551 23.3123C23.7501 22.8473 23.0559 22.8831 22.3726 23.4198C21.8526 23.8273 21.7776 24.1598 22.1326 24.7498C22.5892 25.5098 23.1142 26.3339 23.7076 27.2223C23.7418 27.2733 23.786 27.3169 23.8376 27.3503C23.8892 27.3836 23.9471 27.4062 24.0077 27.4165C24.0683 27.4268 24.1303 27.4246 24.19 27.4101C24.2498 27.3957 24.3059 27.3692 24.3551 27.3323C24.9576 26.8773 26.5626 25.6348 26.7376 24.8248Z" fill="#000001"/>
<path d="M33.7626 22.0823C33.8044 22.0657 33.8491 22.0575 33.8942 22.0581C33.9392 22.0588 33.9836 22.0684 34.025 22.0863C34.0663 22.1041 34.1037 22.13 34.135 22.1623C34.1664 22.1947 34.191 22.2329 34.2076 22.2748L35.7901 26.2723C35.923 26.6079 35.9788 26.9583 35.945 27.2465C35.9113 27.5348 35.7908 27.7374 35.6101 27.8098L35.5726 27.8248C35.4828 27.8602 35.3809 27.8626 35.2727 27.8316C35.1646 27.8007 35.0523 27.7371 34.9422 27.6444C34.8322 27.5518 34.7265 27.432 34.6314 27.2917C34.5362 27.1515 34.4534 26.9937 34.3876 26.8273L32.8051 22.8298C32.7713 22.7456 32.7724 22.6514 32.808 22.568C32.8436 22.4846 32.9109 22.4187 32.9951 22.3848L33.7626 22.0823Z" fill="#0BF894"/>
<path d="M113.658 36.1975C113.063 35.8725 112.481 35.5234 111.913 35.15C109.903 33.835 109.895 31.61 110.293 29.44C110.626 27.6267 110.963 25.8142 111.303 24.0025C111.428 23.3292 111.587 22.7517 111.78 22.27C111.797 22.2268 111.826 22.1898 111.865 22.1639C111.903 22.138 111.949 22.1244 111.995 22.125L115.253 22.1275C115.32 22.1277 115.386 22.1439 115.446 22.1747C115.506 22.2054 115.558 22.2499 115.597 22.3045C115.637 22.3591 115.663 22.4222 115.673 22.4888C115.684 22.5554 115.678 22.6235 115.658 22.6875C115.288 23.8159 115.006 24.9517 114.813 26.095C114.659 27.0017 114.503 27.765 114.343 28.385C114.054 29.5017 113.9 30.2684 113.88 30.685C113.75 33.3 117.085 33.685 118.31 32.1325C118.642 31.7109 118.947 30.8717 119.225 29.615C119.745 27.2684 120.208 24.9142 120.613 22.5525C120.633 22.4369 120.693 22.3323 120.783 22.2568C120.873 22.1814 120.986 22.1401 121.103 22.14L124.288 22.15C124.329 22.1502 124.37 22.1596 124.407 22.1777C124.445 22.1958 124.478 22.2221 124.504 22.2547C124.53 22.2872 124.549 22.3252 124.558 22.3659C124.568 22.4066 124.569 22.449 124.56 22.49C123.998 25.0375 123.42 27.5475 122.998 30.09C122.531 32.8934 120.902 34.9384 118.11 36.225C117.23 36.63 116.383 36.8225 115.568 36.8025C115.011 36.7892 114.374 36.5875 113.658 36.1975Z" fill="#0BF894"/>
<path d="M26.7376 24.8251C26.5626 25.6351 24.9576 26.8776 24.3551 27.3326C24.3059 27.3695 24.2498 27.3959 24.1901 27.4104C24.1303 27.4249 24.0683 27.4271 24.0077 27.4168C23.9471 27.4065 23.8892 27.3839 23.8377 27.3506C23.7861 27.3172 23.7418 27.2736 23.7076 27.2226C23.1143 26.3342 22.5893 25.5101 22.1326 24.7501C21.7776 24.1601 21.8526 23.8276 22.3726 23.4201C23.0559 22.8834 23.7501 22.8476 24.4551 23.3126C24.4888 23.3354 24.5272 23.3507 24.5677 23.3576C24.6082 23.3645 24.6499 23.3628 24.6901 23.3526C25.7076 23.0901 27.0076 23.5826 26.7376 24.8251Z" fill="#0BF894"/>
<path d="M22.405 28.095C22.4417 28.16 22.5584 28.2484 22.755 28.36C22.825 28.4 22.8625 28.46 22.8675 28.54C22.8875 28.8934 22.7817 29.1459 22.55 29.2975C21.295 30.125 19.2625 32.1125 17.6375 30.8125C16.63 30.0075 17.1475 28.4425 17.2925 27.3525C17.3759 26.7125 17.535 26.2409 17.77 25.9375C18.49 25 19.7075 24.895 20.5925 25.74C21.3175 26.4317 21.9217 27.2167 22.405 28.095ZM22.11 28.5525C21.31 27.4425 19.625 24.66 18.11 26.6625C18.0107 26.7944 17.9532 26.9529 17.945 27.1175C17.8825 28.38 17.09 30.1125 18.8175 30.71C18.8997 30.7373 18.9887 30.7338 19.0675 30.7C20.1625 30.22 21.1659 29.5925 22.0775 28.8175C22.1151 28.7854 22.1393 28.7404 22.1453 28.6913C22.1514 28.6423 22.1388 28.5927 22.11 28.5525Z" fill="#000001"/>
<path d="M22.1101 28.5527C22.1388 28.5929 22.1514 28.6424 22.1454 28.6915C22.1393 28.7405 22.1152 28.7856 22.0776 28.8177C21.1659 29.5927 20.1626 30.2202 19.0676 30.7002C18.9887 30.7339 18.8997 30.7375 18.8176 30.7102C17.0901 30.1127 17.8826 28.3802 17.9451 27.1177C17.9532 26.953 18.0107 26.7945 18.1101 26.6627C19.6251 24.6602 21.3101 27.4427 22.1101 28.5527Z" fill="#0BF894"/>
<path d="M29.5126 27.03C30.6776 27.5725 30.6226 29.015 30.0876 30.055C30.0484 30.1301 30.0311 30.2142 30.0376 30.2975C30.1776 32.3775 28.6051 33.65 26.8451 32.195C26.3767 31.8083 26.0392 31.4433 25.8326 31.1C25.3892 30.3666 24.9901 29.8425 24.6351 29.5275C24.5784 29.4758 24.5576 29.4125 24.5726 29.3375C24.6242 29.0925 24.7617 28.89 24.9851 28.73C26.1601 27.8925 27.8051 26.235 29.5126 27.03ZM29.4126 30.0875C29.6851 29.1225 30.3651 27.98 28.9351 27.5325C27.7701 27.17 26.2301 28.42 25.4801 29.16C25.4289 29.2101 25.398 29.2774 25.3929 29.3492C25.3878 29.4209 25.4091 29.4923 25.4526 29.55C25.9576 30.2066 26.4917 30.8408 27.0551 31.4525C27.8651 32.3308 28.6284 32.3025 29.3451 31.3675C29.5834 31.0591 29.6126 30.7091 29.4326 30.3175C29.3987 30.245 29.3916 30.1634 29.4126 30.0875Z" fill="#000001"/>
<path d="M29.4325 30.3173C29.6125 30.709 29.5833 31.059 29.345 31.3673C28.6283 32.3023 27.865 32.3306 27.055 31.4523C26.4917 30.8406 25.9575 30.2065 25.4525 29.5498C25.409 29.4921 25.3878 29.4208 25.3928 29.349C25.3979 29.2772 25.4289 29.21 25.48 29.1598C26.23 28.4198 27.77 27.1698 28.935 27.5323C30.365 27.9798 29.685 29.1223 29.4125 30.0873C29.3916 30.1633 29.3986 30.2448 29.4325 30.3173Z" fill="#0BF894"/>
<path d="M20.0949 33.72C19.9624 32.1575 21.5624 31.1425 22.7224 30.425C22.8041 30.3743 22.8706 30.3026 22.9149 30.2175C23.1082 29.8441 23.4249 29.7308 23.8649 29.8775C23.9249 29.8975 23.9682 29.9358 23.9949 29.9925C24.4749 31.0025 25.4849 32.0125 25.7874 32.835C26.3299 34.3175 25.5749 36.375 23.6774 35.765C23.2191 35.6183 22.7516 35.5225 22.2749 35.4775C21.5966 35.4125 21.1474 35.3125 20.9274 35.1775C20.4274 34.8691 20.1499 34.3833 20.0949 33.72ZM25.1499 33.07C24.8049 32.3275 24.1949 31.37 23.6599 30.78C23.6078 30.7231 23.537 30.6868 23.4604 30.6776C23.3838 30.6684 23.3065 30.687 23.2424 30.73C22.3574 31.33 19.3699 33.4425 21.4149 34.64C21.9599 34.9575 22.9949 34.8025 23.7149 34.9875C25.0774 35.3375 25.7099 34.27 25.1499 33.07Z" fill="#000001"/>
<path d="M14.2274 34.1575C14.4574 34.5725 14.5257 35.0159 14.4324 35.4875C14.3524 35.89 13.8899 36.1775 13.5599 35.875C13.1324 35.485 12.6799 34.5625 12.4449 33.895C12.2249 33.2675 10.9299 30.66 11.9749 30.3475C12.4274 30.2125 12.9324 30.2 13.0449 30.8125C13.2724 32.0425 13.6224 33.0675 14.2274 34.1575Z" fill="#0BF894"/>
<path d="M23.6599 30.78C24.1949 31.37 24.8049 32.3275 25.1499 33.07C25.7099 34.27 25.0774 35.3375 23.7149 34.9875C22.9949 34.8025 21.9599 34.9575 21.4149 34.64C19.3699 33.4425 22.3574 31.33 23.2424 30.73C23.3065 30.687 23.3838 30.6684 23.4604 30.6776C23.537 30.6868 23.6078 30.7231 23.6599 30.78Z" fill="#0BF894"/>
<path d="M34.6551 34.2277C34.6301 35.6977 32.4876 37.9052 31.4026 38.7227C31.3673 38.7488 31.3262 38.7657 31.283 38.7718C31.2397 38.7779 31.1958 38.773 31.1551 38.7577L30.6551 38.5777C30.5816 38.5507 30.5155 38.5068 30.4621 38.4496C30.4087 38.3924 30.3695 38.3234 30.3476 38.2482C30.3257 38.1731 30.3218 38.0939 30.3361 38.0169C30.3504 37.94 30.3826 37.8674 30.4301 37.8052C31.3676 36.5852 32.3326 35.8677 33.1976 34.3552C33.5226 33.7877 34.0251 33.6327 34.5501 34.0177C34.5833 34.0416 34.6102 34.0732 34.6285 34.1098C34.6468 34.1463 34.6559 34.1868 34.6551 34.2277Z" fill="#0BF894"/>
<path d="M107.703 35.7877C107.716 35.8277 107.708 35.8735 107.678 35.9252C107.659 35.9598 107.632 35.9891 107.6 36.0105C107.567 36.0319 107.529 36.0447 107.49 36.0477C104.535 36.2527 101.572 36.2644 98.6001 36.0827C98.8651 35.8977 99.1293 35.7419 99.3926 35.6152C99.6376 35.4935 99.9293 35.4285 100.268 35.4202C102.748 35.3569 104.575 35.3594 105.75 35.4277C105.972 35.441 106.255 35.5552 106.6 35.7702C106.668 35.8135 106.743 35.8335 106.825 35.8302L107.703 35.7877Z" fill="#0BF894"/>
<path d="M19.2551 40.4327C18.4976 40.1377 19.0576 38.7477 20.1301 39.2452C21.3084 39.7919 22.6193 40.0035 24.0626 39.8802C24.3809 39.8535 24.5593 39.9685 24.5976 40.2252C24.6426 40.5102 24.7151 40.9902 24.5251 41.2452C24.5012 41.2778 24.4699 41.3042 24.4339 41.3225C24.3978 41.3407 24.358 41.3502 24.3176 41.3502C23.1776 41.3502 22.0518 41.2527 20.9401 41.0577C20.2926 40.9452 19.8451 40.6652 19.2551 40.4327Z" fill="#0BF894"/>
</svg>
