<svg width="166" height="58" viewBox="0 0 166 58" fill="none" xmlns="http://www.w3.org/2000/svg">
<path d="M26.4725 16.375L29.845 19.8375C30.0833 20.0808 30.0808 20.3233 29.8375 20.565L25.485 24.8875C25.2583 25.1125 25.0308 25.1125 24.8025 24.8875C23.5508 23.6425 22.2925 22.3792 21.0275 21.0975C20.305 20.365 20.4575 18.8525 20.455 17.4425L20.4675 15.5775C20.4692 15.4908 20.5125 15.4442 20.5975 15.4375C21.2658 15.3758 21.925 15.3392 22.575 15.3275C24.3125 15.2925 25.39 15.185 26.4725 16.375Z" fill="#2CA35E"/>
<path d="M48.08 15.7725L48.2025 17.19C48.0225 18.1367 47.9475 19.0892 47.9775 20.0475C47.985 20.345 47.84 20.7225 47.655 20.9025C46.4417 22.1008 45.2434 23.2867 44.06 24.46C44.0684 24.51 44.0384 24.5425 43.97 24.5575L43.5325 25.0125C43.4949 25.052 43.4497 25.0835 43.3996 25.1052C43.3495 25.1269 43.2956 25.1383 43.2411 25.1388C43.1865 25.1392 43.1324 25.1288 43.082 25.1079C43.0316 25.0871 42.9858 25.0563 42.9475 25.0175L38.525 20.555C38.4356 20.4648 38.385 20.3432 38.3841 20.2166C38.3832 20.0899 38.432 19.9681 38.52 19.8775C39.7884 18.5675 41.1134 17.2333 42.495 15.875C42.585 15.7867 42.7492 15.7208 42.9875 15.6775C43.1209 15.6525 43.2967 15.645 43.515 15.655C44.53 15.6967 45.5384 15.6433 46.54 15.495C46.8934 15.4417 47.1575 15.4142 47.3325 15.4125C47.9375 15.4075 48.1867 15.5275 48.08 15.7725Z" fill="#2CA35E"/>
<path d="M35.4225 20.33L43.11 28.0075L43.7325 28.6075C43.8875 28.9159 44.0992 29.1475 44.3675 29.3025C44.2025 29.3509 44.0675 29.4492 43.9625 29.5975C42.3858 31.3125 40.7375 32.9617 39.0175 34.545C38.3792 35.1317 37.68 35.8509 36.92 36.7025C36.1825 37.525 35.36 38.2525 34.62 39.065C34.39 39.3184 34.1208 39.3159 33.8125 39.0575C33.3242 38.6475 32.8742 38.2059 32.4625 37.7325L24.23 29.3725C24.1683 29.3092 24.1683 29.2467 24.23 29.185L34.005 19.2575C34.425 19.2425 34.8975 19.6 35.4225 20.33ZM35.445 24.8625C34.765 23.5925 32.87 24.27 32.4425 25.3275C31.8575 26.775 32.815 27.9825 34.2375 28.3C34.3058 28.315 34.3725 28.3092 34.4375 28.2825L35.38 27.895C35.4139 27.8811 35.4439 27.859 35.4674 27.8307C35.491 27.8024 35.5073 27.7687 35.515 27.7325C35.5433 27.5909 35.62 27.4984 35.745 27.455C35.82 27.4284 35.8533 27.3742 35.845 27.2925C35.8333 27.1992 35.8608 27.1275 35.9275 27.0775C35.9334 27.073 35.9405 27.0703 35.948 27.0698C35.9554 27.0693 35.9628 27.0711 35.9693 27.0749C35.9757 27.0786 35.9809 27.0842 35.9841 27.0909C35.9874 27.0976 35.9885 27.1052 35.9875 27.1125L35.975 27.19C35.972 27.1996 35.973 27.2101 35.9777 27.219C35.9823 27.2279 35.9904 27.2345 36 27.2375C36.0096 27.2405 36.02 27.2396 36.0289 27.2349C36.0378 27.2302 36.0445 27.2221 36.0475 27.2125C36.4842 26.3159 36.3492 25.555 35.6425 24.93C35.6275 24.9167 35.6092 24.9092 35.5875 24.9075C35.5642 24.9075 35.5408 24.9075 35.5175 24.9075C35.4858 24.9059 35.4617 24.8909 35.445 24.8625ZM33.965 30.8775C31.975 31.0675 31.5775 34.0425 33.595 34.71C34.2867 34.9384 34.9617 34.7675 35.62 34.1975C36.255 33.6492 36.4667 33.0717 36.255 32.465C35.925 31.52 35.19 30.9684 34.05 30.81C34.0383 30.8084 34.0308 30.8125 34.0275 30.8225C34.0242 30.8275 34.0208 30.8334 34.0175 30.84C34.0058 30.8634 33.9883 30.8759 33.965 30.8775Z" fill="#2CA35E"/>
<path d="M128.698 19.85L129.043 20.3125C129.109 21.3392 129.103 22.3809 129.023 23.4375C128.893 25.1075 131.115 24.69 132.115 24.6075L133.308 24.695C133.345 24.6976 133.38 24.7142 133.405 24.7416C133.431 24.769 133.445 24.8051 133.445 24.8425L133.455 27.7225C133.456 27.7721 133.437 27.8199 133.403 27.8559C133.369 27.8919 133.322 27.9131 133.273 27.915L131.735 27.995C131.077 27.9734 130.415 27.9742 129.75 27.9975C129.333 28.0125 129.095 28.1875 129.048 28.6275C128.901 30.0375 128.873 31.4559 128.965 32.8825C129.135 35.56 131.423 35.0475 133.208 34.655C133.244 34.6475 133.282 34.6506 133.317 34.6639C133.352 34.6772 133.383 34.7001 133.405 34.73C133.465 34.8117 133.488 34.9117 133.475 35.03L133.878 37.2025C133.896 37.3009 133.86 37.3709 133.77 37.4125L132.905 37.8125C131.1 38.2392 129.358 38.155 127.678 37.56C126.048 36.76 125.48 35.155 125.255 33.425L125.03 21.4275L125.02 19.9075C125.02 19.8766 125.026 19.8459 125.038 19.8175C125.05 19.789 125.068 19.7634 125.09 19.7421C125.113 19.7208 125.139 19.7043 125.168 19.6936C125.196 19.683 125.227 19.6783 125.258 19.68L128.698 19.85Z" fill="white"/>
<path d="M105.38 19.6975L107.727 19.81L108.475 19.9275C108.55 19.9392 108.59 19.9842 108.595 20.0625L108.62 20.55L108.605 22.89L108.662 24.4925L108.695 24.67C108.698 24.6878 108.705 24.7048 108.715 24.7198C108.725 24.7348 108.738 24.7475 108.754 24.7572C108.769 24.7668 108.786 24.7732 108.804 24.7758C108.822 24.7785 108.84 24.7773 108.857 24.7725C112 23.92 115.03 24.5725 116.42 27.765L116.585 28.14C117.052 29.6934 117.162 31.3075 116.917 32.9825C116.294 35.5742 114.727 37.2175 112.215 37.9125L110.532 38.1425C108.731 38.1225 106.95 37.8892 105.19 37.4425C104.727 37.3225 104.695 37.065 104.667 36.635C104.704 36.5117 104.696 36.4284 104.642 36.385L104.587 24.195L104.602 20.3125C104.516 19.8842 104.775 19.6792 105.38 19.6975ZM108.505 28.52L108.45 33.885C108.447 34.1644 108.556 34.4334 108.751 34.6331C108.946 34.8328 109.213 34.9467 109.492 34.95L110.29 34.96C110.67 34.9641 111.047 34.8891 111.4 34.7393C111.752 34.5894 112.073 34.3677 112.345 34.0868C112.617 33.8059 112.833 33.4713 112.983 33.1021C113.132 32.7329 113.211 32.3363 113.215 31.935L113.23 30.57C113.238 29.7599 112.942 28.9798 112.406 28.4013C111.869 27.8228 111.137 27.4932 110.37 27.485L109.572 27.4775C109.434 27.4759 109.296 27.5015 109.168 27.553C109.039 27.6045 108.922 27.6809 108.823 27.7777C108.724 27.8745 108.645 27.9899 108.59 28.1172C108.536 28.2446 108.507 28.3815 108.505 28.52Z" fill="white"/>
<path d="M99.6275 19.7899L101.975 19.7849C102.122 19.7699 102.245 19.7866 102.345 19.8349C102.438 19.8783 102.498 19.9699 102.525 20.1099C102.595 20.4749 102.61 20.8574 102.57 21.2574C102.605 21.3408 102.614 21.4449 102.597 21.5699L102.485 36.3299L102.495 36.6749L102.37 37.6374C102.365 37.6759 102.346 37.7114 102.317 37.7371C102.287 37.7629 102.249 37.7772 102.21 37.7774L98.9875 37.7699C98.7625 37.7699 98.6475 37.6583 98.6425 37.4349L98.525 33.0474L98.4825 32.1774C98.5625 28.2508 98.6233 24.3233 98.665 20.3949C98.6725 19.7174 99.0725 19.7074 99.6275 19.7899Z" fill="white"/>
<path d="M120.625 19.795L122.757 19.7925C122.867 19.7925 122.924 19.8467 122.927 19.955L122.997 22.9725C122.999 23.0237 122.99 23.0746 122.971 23.1222C122.952 23.1698 122.924 23.2131 122.888 23.2495C122.852 23.286 122.809 23.3147 122.762 23.3342C122.714 23.3536 122.664 23.3632 122.613 23.3625L119.255 23.3125C119.112 23.2375 119.029 23.1142 119.007 22.9425L119 22.6075L119.037 20.45C119.004 20.0717 119.2 19.8559 119.625 19.8025C119.767 19.7842 120.1 19.7817 120.625 19.795Z" fill="white"/>
<path d="M128.698 19.85C128.853 19.8267 128.974 19.8408 129.063 19.8925C129.108 19.9192 129.13 19.9917 129.13 20.11C129.105 20.55 129.076 20.6175 129.043 20.3125L128.698 19.85Z" fill="white"/>
<path d="M62.3525 20.4425L64.4025 20.87C64.4609 20.9317 64.53 20.9575 64.61 20.9475L65.88 21.455C67.24 22.1533 68.3075 23.1958 69.0825 24.5825C69.9775 26.5558 70.2317 28.6642 69.845 30.9075C69.6617 31.1908 69.585 31.5167 69.615 31.885C69.3784 33.1 68.8167 34.2042 67.93 35.1975C66.94 36.2758 65.7109 37.0425 64.2425 37.4975C62.1792 37.9758 60.0034 38.1467 57.715 38.01L55.135 37.655C55.0417 37.6417 54.9909 37.5883 54.9825 37.495L54.8525 35.9275L54.845 22.9875C54.7867 22.9775 54.785 22.9408 54.84 22.8775L54.955 21.075C54.9615 20.9789 55.0003 20.8877 55.0651 20.8161C55.1299 20.7445 55.2171 20.6965 55.3125 20.68C57.6259 20.2733 59.9725 20.1942 62.3525 20.4425ZM59.3525 23.6775L59.0675 23.685C58.9775 23.6867 58.915 23.7275 58.88 23.8075L58.8 23.995L58.755 34.2525C58.7545 34.3506 58.7904 34.4454 58.8559 34.5188C58.9215 34.5922 59.012 34.6389 59.11 34.65C62.685 35.0525 65.5 33.8425 65.96 29.9375C66.1017 28.7308 65.9684 27.585 65.56 26.5C64.6025 23.9525 61.915 23.3625 59.3525 23.6775Z" fill="white"/>
<path d="M54.845 22.9875L54.8525 35.9276C54.8542 35.9126 54.855 35.8984 54.855 35.885C54.7067 31.6034 54.7034 27.3042 54.845 22.9875Z" fill="white"/>
<path d="M95.4275 26.195L95.905 26.875L96.425 27.8975C96.4517 28.0759 96.5175 28.2367 96.6225 28.38L96.915 30.13L96.91 32.1275C96.9467 32.3592 96.8308 32.4734 96.5625 32.47C93.9575 32.4384 91.355 32.4267 88.755 32.435C88.7101 32.4356 88.6659 32.4462 88.6258 32.4662C88.5856 32.4863 88.5506 32.5151 88.5234 32.5505C88.4961 32.586 88.4774 32.6271 88.4686 32.6708C88.4598 32.7144 88.4611 32.7595 88.4725 32.8025C88.7892 34.0092 89.6383 34.6809 91.02 34.8175C91.6733 34.9859 92.3967 34.9909 93.19 34.8325L95.445 34.485C95.4688 34.4815 95.4931 34.4827 95.5164 34.4886C95.5398 34.4945 95.5617 34.5049 95.581 34.5194C95.6003 34.5338 95.6166 34.5518 95.6288 34.5726C95.6411 34.5933 95.6491 34.6162 95.6525 34.64L95.9875 37.225C95.9992 37.3117 95.9625 37.3659 95.8775 37.3875L93.97 37.8775C91.56 38.4042 89.3167 38.1184 87.24 37.02L86.265 36.235C84.7117 34.1717 84.2275 31.82 84.8125 29.18C84.9125 28.725 85.1942 28.115 85.6575 27.35C87.7875 23.8375 92.5325 23.3875 95.4275 26.195ZM93.09 29.9525C93.4533 29.8409 93.4775 29.515 93.1625 28.975C92.785 27.1 89.8875 26.8525 88.9275 28.3175C88.6542 28.7342 88.5158 29.2142 88.5125 29.7575C88.5125 29.8542 88.56 29.9075 88.655 29.9175C90.1283 30.0775 91.6067 30.0892 93.09 29.9525Z" fill="white"/>
<path d="M144.765 25.64L144.315 27.615L143.96 27.755C143.887 27.7824 143.808 27.7833 143.738 27.7575C142.648 27.375 139.45 26.7375 139.36 28.4625C139.355 28.5342 139.377 28.5975 139.425 28.6525C139.743 29.0108 140.002 29.2292 140.2 29.3075C141.33 29.7542 142.425 30.2317 143.485 30.74C144.76 31.445 145.406 32.5083 145.423 33.93C145.433 34.88 145.42 35.6425 144.8 36.395C142.81 38.8075 138.383 38.3425 135.788 37.4275C135.616 37.3675 135.547 37.2475 135.58 37.0675L136.025 34.62C136.038 34.5417 136.084 34.5108 136.163 34.5275L137.788 34.85C138.65 35.125 141.393 35.6875 141.943 34.39C141.961 34.3482 141.97 34.3031 141.969 34.2574C141.969 34.2118 141.959 34.1667 141.94 34.125C141.673 33.5533 141.234 33.155 140.623 32.93C138.095 31.9975 135.838 31.4225 135.86 28.19C135.878 25.7275 137.938 24.605 140.128 24.475C141.088 24.4167 142.338 24.5075 143.878 24.7475C144.519 24.8475 144.815 25.145 144.765 25.64Z" fill="white"/>
<path d="M123.007 26.6051L122.907 31.0726L122.87 33.4326L122.902 34.8276L122.805 37.5301C122.803 37.5953 122.776 37.6572 122.729 37.7029C122.683 37.7486 122.62 37.7744 122.555 37.7751L119.252 37.8026C119.235 37.8029 119.217 37.7997 119.201 37.7932C119.184 37.7868 119.169 37.7771 119.156 37.7648C119.144 37.7525 119.133 37.7378 119.126 37.7215C119.119 37.7053 119.115 37.6878 119.115 37.6701L119.057 34.6976L119.067 26.7426L119.21 24.5601L122.692 24.5451C122.755 24.5444 122.815 24.5681 122.859 24.6111C122.904 24.6541 122.931 24.7129 122.932 24.7751L123.007 26.6051Z" fill="white"/>
<path d="M79.82 24.5601L81.47 24.5801C82.0517 24.6417 82.4367 24.6667 82.625 24.6551C82.7917 24.6451 82.9175 24.7051 83.0025 24.8351L83.0375 32.0051C82.8242 33.1467 82.8025 34.2434 82.9725 35.2951L82.97 37.0176C82.9701 37.1124 82.9385 37.2047 82.8801 37.2799C82.8217 37.355 82.7399 37.4087 82.6475 37.4326C81.8958 37.6209 81.1433 37.7642 80.39 37.8626C77.2475 38.2726 73.0075 38.4751 72.0825 34.4901C71.9542 33.9334 71.8908 33.1034 71.8925 32.0001C71.8992 29.4551 71.8725 27.2884 71.8125 25.5001C71.8042 25.2117 71.8825 24.9792 72.0475 24.8026C72.1039 24.7414 72.1813 24.7031 72.265 24.6951L73.0575 24.6151L75.16 24.6351C75.4 24.6384 75.5183 24.7601 75.515 25.0001L75.4875 27.7451C75.2375 29.4401 75.2425 31.1209 75.5025 32.7876C75.6108 33.4709 75.765 33.9492 75.965 34.2226C76.5725 35.0526 78.1975 35.0176 79.1175 34.8001C79.1884 34.7831 79.2515 34.7422 79.2964 34.6841C79.3414 34.626 79.3655 34.5541 79.365 34.4801L79.3175 30.2851L79.305 28.4551C79.245 27.0217 79.2583 25.8184 79.345 24.8451C79.3583 24.6917 79.5167 24.5967 79.82 24.5601Z" fill="white"/>
<path d="M96.6225 28.38L96.8525 29.1525L96.915 30.13L96.6225 28.38Z" fill="white"/>
<path d="M93.1625 28.975C93.4775 29.515 93.4533 29.8408 93.09 29.9525L93.1625 28.975Z" fill="white"/>
<path d="M75.3425 31.1577C75.3443 31.663 75.3692 32.0726 75.3982 32.0725C75.4272 32.0724 75.4493 31.6626 75.4475 31.1573C75.4458 30.652 75.4208 30.2424 75.3918 30.2425C75.3628 30.2426 75.3408 30.6523 75.3425 31.1577Z" fill="white"/>
<path d="M69.845 30.9075C69.9716 31.5741 69.895 31.9 69.615 31.885C69.585 31.5166 69.6616 31.1908 69.845 30.9075Z" fill="white"/>
<path d="M122.907 31.0725L123.04 31.9525L123.017 32.485L122.87 33.4325L122.907 31.0725Z" fill="white"/>
<path d="M83.0375 32.005C83.1675 33.12 83.1459 34.2167 82.9725 35.295C82.8025 34.2433 82.8242 33.1467 83.0375 32.005Z" fill="white"/>
<path d="M44.0525 33.1375L45.57 34.62C45.5066 35.23 45.0641 35.82 44.2425 36.39C44.2105 36.412 44.1838 36.4407 44.1642 36.4742C44.1446 36.5077 44.1326 36.5451 44.129 36.5837C44.1255 36.6223 44.1304 36.6613 44.1435 36.6978C44.1567 36.7343 44.1776 36.7674 44.205 36.795L47.8125 40.4525C47.8675 40.5075 47.8683 40.5641 47.815 40.6225L47.5375 40.9175L45.51 42.865C45.4416 42.93 45.3658 42.9433 45.2825 42.905L45.0675 42.81L41.7125 39.4475C41.6551 39.3897 41.5774 39.3568 41.496 39.3558C41.4146 39.3549 41.3361 39.386 41.2775 39.4425L40.1625 40.5225C40.1068 40.5769 40.0409 40.6198 39.9686 40.6486C39.8963 40.6775 39.819 40.6918 39.7411 40.6906C39.6633 40.6894 39.5864 40.6729 39.515 40.6419C39.4436 40.6109 39.379 40.566 39.325 40.51L38.135 39.2775C37.7983 38.9275 37.8133 38.5933 38.18 38.275C38.8383 37.705 39.4391 37.1575 39.9825 36.6325C40.1075 36.5125 40.6541 35.9183 41.6225 34.85C42.2375 34.1716 42.8958 33.5341 43.5975 32.9375C43.6691 32.8775 43.74 32.8775 43.81 32.9375L44.0525 33.1375Z" fill="#2CA35E"/>
<path d="M29.5875 37.7L30.5225 38.8875C30.5742 38.9558 30.57 39.0192 30.51 39.0775L28.9925 40.57C28.8891 40.6717 28.7503 40.7293 28.6053 40.7307C28.4603 40.7321 28.3204 40.6772 28.215 40.5775L27.0525 39.4775C26.9898 39.4179 26.9062 39.3853 26.8197 39.3867C26.7332 39.3881 26.6507 39.4234 26.59 39.485L23.3325 42.7725C23.2733 42.8331 23.1937 42.8696 23.1089 42.8751C23.024 42.8807 22.9399 42.8548 22.8725 42.8025L22.3275 42.38L20.7675 40.74C20.5442 40.5483 20.5009 40.4192 20.6375 40.3525L21.275 39.705L23.9375 37.045C24.0357 36.9465 24.0917 36.8136 24.0935 36.6745C24.0954 36.5355 24.043 36.4011 23.9475 36.3L22.7525 35.0325C22.6742 34.9508 22.6767 34.8717 22.76 34.795C23.3733 34.225 23.7983 33.7842 24.035 33.4725C24.4117 32.9792 24.8358 32.9667 25.3075 33.435C26.7408 34.8583 28.1675 36.28 29.5875 37.7Z" fill="#2CA35E"/>
</svg>
