<svg width="166" height="58" viewBox="0 0 166 58" fill="none" xmlns="http://www.w3.org/2000/svg">
<path d="M85.1675 48.34L84.8275 48.49C84.7325 48.5317 84.6558 48.51 84.5975 48.425C81.5158 43.8634 79.1433 38.9542 77.48 33.6975C77.4567 33.6259 77.4533 33.5534 77.47 33.48C78.015 31.065 77.6117 28.83 76.26 26.775C76.1767 26.65 76.1325 26.3725 76.1275 25.9425C76.1267 25.9042 76.1343 25.866 76.1498 25.8306C76.1654 25.7952 76.1885 25.7635 76.2175 25.7375C76.4525 25.5325 76.5675 25.33 76.5625 25.13C76.43 19.67 78.4 14.2425 82.84 10.9025C84.7633 9.4542 87.0033 8.37087 89.56 7.65253C89.7267 7.60587 89.7475 7.64253 89.6225 7.76253C84.465 12.615 81.1825 18.42 83.64 25.7825C83.875 26.485 84.45 26.805 84.77 27.48C84.8018 27.5468 84.807 27.6231 84.7847 27.6933C84.7624 27.7634 84.7142 27.8222 84.65 27.8575C82.81 28.865 81.055 30.2225 82.2325 32.5475C82.3692 32.8192 82.8533 33.2442 83.685 33.8225C83.765 33.8775 83.7967 33.9525 83.78 34.0475C83.4667 35.8675 84.08 37.2475 85.62 38.1875C85.653 38.2074 85.6806 38.2352 85.7002 38.2683C85.7199 38.3015 85.731 38.339 85.7325 38.3775C85.7825 39.9625 86.2125 41.4675 87.8675 41.9C91.6525 42.89 93.335 45.91 90.48 49.1625C90.459 49.1867 90.4467 49.2166 90.445 49.2475L90.3275 50.61C90.3261 50.6277 90.3205 50.6448 90.3112 50.6599C90.302 50.675 90.2893 50.6877 90.2741 50.6969C90.259 50.7062 90.242 50.7118 90.2243 50.7132C90.2066 50.7146 90.1889 50.7118 90.1725 50.705C88.425 49.985 85.8025 49.06 85.335 48.3875C85.2917 48.3259 85.2358 48.31 85.1675 48.34ZM89.6067 47.3797C90.0319 47.0008 90.2757 46.4533 90.2845 45.8578C90.2933 45.2622 90.0662 44.6673 89.6534 44.204C89.449 43.9745 89.2051 43.7843 88.9356 43.6441C88.6662 43.5039 88.3765 43.4165 88.0831 43.387C87.7896 43.3574 87.4982 43.3862 87.2254 43.4717C86.9527 43.5572 86.7039 43.6978 86.4933 43.8854C86.0681 44.2643 85.8243 44.8117 85.8155 45.4073C85.8067 46.0028 86.0338 46.5977 86.4466 47.0611C86.651 47.2905 86.8949 47.4808 87.1644 47.621C87.4338 47.7611 87.7235 47.8485 88.0169 47.8781C88.3104 47.9077 88.6018 47.8789 88.8746 47.7934C89.1473 47.7078 89.3961 47.5673 89.6067 47.3797Z" fill="#FBC300"/>
<path d="M95.325 29.7625C95.0375 29.41 94.6325 29.095 94.165 28.9275C91.81 28.0775 88.7425 26.9725 88.995 23.93C89.4 19.0475 95.4 19.645 98.4925 20.8275C98.8458 20.9642 98.9708 21.2134 98.8675 21.575C98.6425 22.3567 98.3717 23.0967 98.055 23.795C98.0305 23.8508 97.9871 23.8963 97.9324 23.9236C97.8777 23.951 97.815 23.9586 97.755 23.945C96.5133 23.6617 95.2417 23.455 93.94 23.325C93.585 23.29 93.2833 23.485 93.035 23.91C93.0182 23.9384 93.0087 23.9704 93.0074 24.0031C93.0061 24.0359 93.013 24.0684 93.0275 24.0975C93.4875 25.0125 95.2225 25.385 96.13 25.7225C97.345 26.1742 98.2792 26.9159 98.9325 27.9475C99.2708 28.4825 99.4467 29.0942 99.46 29.7825C99.535 33.8375 96.1875 34.4 92.9425 34.205C91.7975 34.1375 89.03 33.695 88.3775 32.6375C88.3552 32.6021 88.342 32.5618 88.3389 32.5204C88.3359 32.479 88.3431 32.4376 88.36 32.4L89.4 30.01C89.4417 29.9117 89.5133 29.88 89.615 29.915C90.9633 30.3817 92.34 30.6942 93.745 30.8525C94.3475 30.9225 94.6925 30.73 95.195 30.4475C95.253 30.4151 95.3031 30.3703 95.342 30.3164C95.3808 30.2624 95.4074 30.2007 95.4197 30.1354C95.4321 30.0701 95.4301 30.0029 95.4137 29.9384C95.3973 29.874 95.367 29.814 95.325 29.7625Z" fill="#FBC300"/>
<path d="M143.955 29.9325C143.707 29.4642 143.454 29.1875 143.198 29.1025C140.108 28.085 136.438 26.595 137.823 22.6875C138.349 21.2009 139.454 20.3375 141.138 20.0975C141.578 20.0342 142.553 20.0275 144.063 20.0775C145.164 20.1125 146.293 20.445 147.448 21.075C147.477 21.0909 147.5 21.1167 147.512 21.1478C147.525 21.1788 147.526 21.2133 147.515 21.245L146.635 23.8475C146.619 23.8933 146.587 23.9316 146.544 23.9551C146.502 23.9786 146.452 23.9857 146.405 23.975C144.387 23.525 143.088 23.3067 142.51 23.32C142.132 23.3284 141.826 23.5209 141.593 23.8975C141.575 23.9274 141.565 23.9611 141.564 23.9956C141.562 24.0301 141.57 24.0643 141.585 24.095C141.783 24.475 141.997 24.7075 142.225 24.7925C144.41 25.6025 147.928 26.6275 148.018 29.7025C148.165 34.675 143.028 34.5725 139.628 33.9375C138.651 33.7542 137.783 33.3842 137.025 32.8275C136.968 32.7863 136.927 32.7271 136.908 32.6595C136.889 32.5919 136.893 32.5199 136.92 32.455L137.953 29.9925C137.996 29.8909 138.07 29.8584 138.175 29.895C139.858 30.5034 141.36 30.8317 142.68 30.88C143.217 30.8984 143.639 30.6509 143.948 30.1375C143.989 30.0709 143.992 30.0025 143.955 29.9325Z" fill="#FBC300"/>
<path d="M22.8 28.88L22.8175 33.7675C22.8175 33.8239 22.7954 33.8779 22.756 33.9178C22.7166 33.9576 22.6632 33.98 22.6075 33.98L19.4875 33.9725C19.2075 33.9708 19.0667 33.83 19.065 33.55C19.06 30.6283 19.06 27.7242 19.065 24.8375C19.0684 23.4508 19.1967 22.4975 19.45 21.9775C20.1875 20.46 21.495 20.2375 23.1825 20.2425C25.1625 20.2475 27.1409 20.2517 29.1175 20.255C29.2025 20.255 29.245 20.2975 29.245 20.3825V23.0025C29.245 23.0858 29.2034 23.1283 29.12 23.13C27.45 23.1433 25.7859 23.1442 24.1275 23.1325C22.6575 23.12 22.685 24.7075 22.8475 25.715C22.8609 25.8017 22.9117 25.845 23 25.845H28.02C28.0757 25.845 28.1309 25.856 28.1823 25.8774C28.2337 25.8988 28.2804 25.9301 28.3197 25.9696C28.3589 26.0091 28.39 26.056 28.4111 26.1076C28.4322 26.1591 28.4429 26.2143 28.4425 26.27L28.4225 28.2325C28.4212 28.3726 28.3647 28.5065 28.2654 28.6049C28.1661 28.7033 28.032 28.7582 27.8925 28.7575L22.93 28.75C22.8434 28.75 22.8 28.7933 22.8 28.88Z" fill="#FBC300"/>
<path d="M33.14 31.3525L32.41 33.81C32.397 33.8552 32.3695 33.8951 32.3317 33.9235C32.2938 33.9518 32.2476 33.9673 32.2 33.9675L28.8675 33.9775C28.8229 33.978 28.7787 33.9679 28.7388 33.948C28.6988 33.9282 28.6641 33.8991 28.6375 33.8633C28.6109 33.8274 28.5932 33.7858 28.5858 33.7417C28.5784 33.6977 28.5816 33.6526 28.595 33.61L32.5875 21.02C32.6577 20.7973 32.7972 20.6027 32.9856 20.4647C33.174 20.3267 33.4015 20.2523 33.635 20.2525L36.4425 20.25C36.6702 20.2499 36.8921 20.3223 37.0759 20.4567C37.2597 20.5911 37.396 20.7805 37.465 20.9975L41.445 33.51C41.5417 33.8167 41.4292 33.97 41.1075 33.97L37.87 33.9775C37.7758 33.9774 37.6843 33.9458 37.6104 33.8878C37.5365 33.8297 37.4844 33.7486 37.4625 33.6575L36.945 31.555C36.9243 31.469 36.8751 31.3924 36.8052 31.3375C36.7354 31.2826 36.6491 31.2527 36.56 31.2525L33.2775 31.2475C33.2058 31.2475 33.16 31.2825 33.14 31.3525ZM34.04 28.2225C34.0363 28.2391 34.0363 28.2564 34.0401 28.273C34.0439 28.2896 34.0513 28.3052 34.0618 28.3186C34.0724 28.332 34.0857 28.3429 34.101 28.3505C34.1162 28.3581 34.133 28.3622 34.15 28.3625L35.8625 28.3875C35.8797 28.3878 35.8968 28.3843 35.9124 28.3772C35.9281 28.37 35.9419 28.3595 35.9529 28.3463C35.964 28.3331 35.9719 28.3176 35.9762 28.3009C35.9804 28.2843 35.9809 28.2669 35.9775 28.25L35.175 24.46C35.1698 24.4341 35.1559 24.4109 35.1356 24.394C35.1153 24.3772 35.0899 24.3679 35.0635 24.3676C35.0372 24.3673 35.0115 24.3761 34.9908 24.3924C34.9702 24.4088 34.9558 24.4318 34.95 24.4575L34.04 28.2225Z" fill="#FBC300"/>
<path d="M46.7975 28.715L46.82 33.765C46.82 33.7925 46.8146 33.8198 46.804 33.8453C46.7935 33.8708 46.778 33.894 46.7585 33.9135C46.739 33.933 46.7159 33.9484 46.6904 33.959C46.6649 33.9695 46.6376 33.975 46.61 33.975L43.375 33.97C43.267 33.97 43.1633 33.927 43.0869 33.8506C43.0105 33.7742 42.9675 33.6705 42.9675 33.5625V21.0625C42.9675 20.8492 43.0519 20.6445 43.2023 20.4932C43.3526 20.3419 43.5567 20.2563 43.77 20.255C45.67 20.2483 47.6175 20.2466 49.6125 20.25C50.5009 20.2533 51.2059 20.3625 51.7275 20.5775C53.4142 21.2791 54.1717 22.6133 54 24.58C53.8925 25.7925 53.4775 26.675 52.4125 27.2425C52.3985 27.2499 52.3866 27.2607 52.378 27.274C52.3694 27.2873 52.3644 27.3026 52.3634 27.3184C52.3624 27.3342 52.3655 27.35 52.3723 27.3643C52.3792 27.3786 52.3896 27.3909 52.4025 27.4C52.9059 27.7666 53.2492 28.2716 53.4325 28.915C53.8525 30.3933 54.2442 31.9316 54.6075 33.53C54.6195 33.5829 54.6194 33.6379 54.6073 33.6909C54.5952 33.7438 54.5713 33.7933 54.5375 33.8358C54.5037 33.8783 54.4607 33.9126 54.4118 33.9363C54.3629 33.9599 54.3093 33.9723 54.255 33.9725L50.8725 33.98C50.7975 33.98 50.75 33.9441 50.73 33.8725C50.3417 32.4425 49.98 31.01 49.645 29.575C49.395 28.495 47.755 28.4725 46.925 28.5675C46.84 28.5775 46.7975 28.6266 46.7975 28.715ZM46.7725 23.5625L46.7625 25.4375C46.7622 25.4712 46.7686 25.5046 46.7812 25.5358C46.7939 25.567 46.8126 25.5954 46.8363 25.6194C46.86 25.6433 46.8883 25.6623 46.9194 25.6753C46.9505 25.6883 46.9838 25.695 47.0175 25.695L48.525 25.7025C48.9495 25.7045 49.3571 25.5856 49.6585 25.3719C49.9599 25.1582 50.1303 24.867 50.1325 24.5625V24.4775C50.1336 24.3262 50.0931 24.1762 50.0134 24.0361C49.9337 23.8959 49.8163 23.7683 49.6679 23.6605C49.5195 23.5528 49.343 23.467 49.1487 23.4081C48.9543 23.3493 48.7457 23.3185 48.535 23.3175L47.03 23.31C46.9965 23.3096 46.9633 23.3159 46.9323 23.3284C46.9012 23.3409 46.8729 23.3594 46.849 23.3829C46.8251 23.4063 46.806 23.4342 46.7929 23.4651C46.7798 23.4959 46.7729 23.529 46.7725 23.5625Z" fill="#FBC300"/>
<path d="M60.4925 27.8C60.486 27.7828 60.4737 27.7684 60.4576 27.7595C60.4415 27.7505 60.4228 27.7476 60.4048 27.7512C60.3867 27.7548 60.3706 27.7647 60.3592 27.7792C60.3478 27.7936 60.3418 27.8116 60.3425 27.83L60.375 33.5675C60.3757 33.6691 60.3361 33.767 60.2649 33.8396C60.1937 33.9122 60.0967 33.9537 59.995 33.955L56.6525 33.9875C56.5508 33.9891 56.5 33.9391 56.5 33.8375V21.3125C56.5 21.0311 56.6119 20.7612 56.8111 20.562C57.0102 20.3629 57.2805 20.2506 57.5625 20.25H60.125C60.1992 20.25 60.2709 20.2756 60.3275 20.3225C60.7108 20.6358 60.9875 20.9841 61.1575 21.3675C62.0575 23.3841 63.0033 25.3666 63.995 27.315C64.0069 27.3379 64.0251 27.357 64.0474 27.3701C64.0697 27.3831 64.0953 27.3896 64.1211 27.3889C64.1469 27.3881 64.172 27.38 64.1935 27.3656C64.215 27.3512 64.232 27.3311 64.2425 27.3075C65.2092 25.1341 66.2367 22.975 67.325 20.83C67.7675 19.96 69.9225 20.245 70.7325 20.265C70.8922 20.2692 71.0448 20.3318 71.1613 20.441C71.2779 20.5502 71.3504 20.6984 71.365 20.8575C71.395 21.205 71.5675 21.53 71.57 21.8925C71.5717 25.7608 71.5708 29.6391 71.5675 33.5275C71.5675 33.8241 71.4192 33.9733 71.1225 33.975L68.0925 33.9775C68.0401 33.9775 67.9899 33.9567 67.9528 33.9196C67.9158 33.8826 67.895 33.8323 67.895 33.78L67.93 27.4975C67.9302 27.473 67.9219 27.4492 67.9065 27.4302C67.891 27.4112 67.8694 27.3982 67.8454 27.3934C67.8213 27.3887 67.7964 27.3925 67.7749 27.4042C67.7533 27.4159 67.7366 27.4347 67.7275 27.4575C67.1242 28.9258 66.4675 30.3808 65.7575 31.8225C65.335 32.6775 64.1075 32.47 63.0575 32.415C62.9708 32.41 62.8958 32.3783 62.8325 32.32C62.6325 32.1383 62.4508 31.895 62.2875 31.59C61.6192 30.3383 61.0208 29.075 60.4925 27.8Z" fill="#FBC300"/>
<path d="M105.162 24.81L108.677 20.28C108.685 20.2703 108.695 20.2626 108.706 20.2574C108.718 20.2522 108.73 20.2496 108.742 20.25H113.24C113.255 20.2496 113.271 20.2537 113.284 20.2619C113.297 20.27 113.308 20.2818 113.314 20.2959C113.321 20.3099 113.323 20.3256 113.321 20.341C113.319 20.3564 113.313 20.3708 113.302 20.3825L109.195 25.265C109.184 25.2773 109.178 25.2924 109.176 25.3085C109.174 25.3246 109.177 25.3408 109.185 25.355L113.797 33.85C113.804 33.8622 113.807 33.8758 113.807 33.8895C113.806 33.9033 113.803 33.9167 113.796 33.9285C113.788 33.9403 113.779 33.9501 113.767 33.9569C113.755 33.9638 113.741 33.9674 113.727 33.9675L109.497 33.9825C109.483 33.9824 109.469 33.9784 109.457 33.9709C109.444 33.9634 109.434 33.9528 109.427 33.94L106.565 28.5125C106.559 28.5006 106.551 28.4903 106.54 28.4825C106.529 28.4748 106.517 28.4698 106.503 28.4681C106.49 28.4663 106.477 28.4679 106.465 28.4726C106.452 28.4773 106.441 28.485 106.432 28.495L105.065 30.0325C105.052 30.047 105.045 30.0657 105.045 30.085L105.06 33.9025C105.06 33.9238 105.052 33.9441 105.037 33.9591C105.022 33.9741 105.001 33.9825 104.98 33.9825L101.277 33.9675C101.256 33.9675 101.236 33.9591 101.221 33.9441C101.206 33.9291 101.197 33.9088 101.197 33.8875L101.19 20.335C101.19 20.3138 101.198 20.2935 101.213 20.2785C101.228 20.2635 101.249 20.255 101.27 20.255L104.997 20.2525C105.019 20.2525 105.039 20.261 105.054 20.276C105.069 20.291 105.077 20.3113 105.077 20.3325L105.02 24.76C105.02 24.7766 105.025 24.7928 105.035 24.8063C105.044 24.8199 105.058 24.8301 105.073 24.8356C105.089 24.8411 105.106 24.8416 105.122 24.837C105.138 24.8324 105.152 24.823 105.162 24.81Z" fill="#FBC300"/>
<path d="M119.303 20.255H115.953C115.812 20.255 115.698 20.3692 115.698 20.51V33.72C115.698 33.8608 115.812 33.975 115.953 33.975H119.303C119.443 33.975 119.558 33.8608 119.558 33.72V20.51C119.558 20.3692 119.443 20.255 119.303 20.255Z" fill="#FBC300"/>
<path d="M131.008 27.3075L130.988 20.7C130.986 20.4067 131.132 20.2592 131.425 20.2575L134.693 20.2475C134.728 20.2475 134.763 20.2615 134.788 20.2863C134.813 20.3112 134.828 20.3449 134.828 20.38L134.825 32.9475C134.825 33.2011 134.729 33.4454 134.557 33.6313C134.384 33.8172 134.148 33.9311 133.895 33.95C133.338 33.9917 132.735 34.0025 132.085 33.9825C131.228 33.955 130.868 33.4725 130.423 32.83C129.074 30.885 127.783 28.9083 126.548 26.9C126.533 26.8749 126.51 26.8553 126.484 26.8444C126.457 26.8336 126.427 26.832 126.399 26.8401C126.371 26.8481 126.347 26.8653 126.33 26.8889C126.313 26.9124 126.304 26.941 126.305 26.97L126.32 33.8275C126.322 33.9275 126.273 33.9775 126.173 33.9775L122.815 33.9675C122.717 33.9669 122.624 33.9276 122.555 33.8583C122.486 33.7889 122.448 33.6952 122.448 33.5975C122.449 29.7325 122.452 25.825 122.455 21.875C122.457 21.24 122.608 20.7525 122.91 20.4125C122.971 20.3436 123.057 20.3014 123.15 20.295C124.153 20.225 125.953 19.935 126.605 20.8775C128.04 22.9492 129.459 25.1067 130.863 27.35C130.871 27.3653 130.885 27.3773 130.901 27.3839C130.917 27.3906 130.935 27.3915 130.952 27.3866C130.969 27.3816 130.983 27.3711 130.994 27.3568C131.004 27.3424 131.009 27.325 131.008 27.3075Z" fill="#FBC300"/>
<path d="M73.4301 42.38C74.7045 42.38 75.7376 41.3469 75.7376 40.0725C75.7376 38.7981 74.7045 37.765 73.4301 37.765C72.1557 37.765 71.1226 38.7981 71.1226 40.0725C71.1226 41.3469 72.1557 42.38 73.4301 42.38Z" fill="#FBC300"/>
<path d="M96.285 40.4374L96.295 41.9174C96.295 41.9637 96.277 42.0081 96.2448 42.0412C96.2126 42.0744 96.1687 42.0936 96.1225 42.0949L95.6175 42.1049C95.594 42.1053 95.5706 42.1009 95.5488 42.0922C95.527 42.0834 95.5071 42.0704 95.4904 42.0539C95.4736 42.0373 95.4603 42.0177 95.4512 41.996C95.4422 41.9743 95.4375 41.951 95.4375 41.9274L95.4325 38.1049C95.4324 38.06 95.4494 38.0166 95.48 37.9837C95.5106 37.9507 95.5526 37.9306 95.5975 37.9274L96.1125 37.8924C96.1375 37.8907 96.1626 37.8942 96.1861 37.9028C96.2096 37.9114 96.2311 37.9248 96.249 37.9423C96.2669 37.9598 96.281 37.9809 96.2902 38.0042C96.2994 38.0274 96.3036 38.0524 96.3025 38.0774L96.245 39.3524C96.244 39.3766 96.2479 39.4007 96.2565 39.4233C96.2651 39.4458 96.2783 39.4664 96.2951 39.4837C96.312 39.5011 96.3322 39.5148 96.3545 39.524C96.3768 39.5332 96.4008 39.5378 96.425 39.5374L97.8525 39.5024C97.8991 39.5011 97.9434 39.4815 97.9757 39.4478C98.0079 39.4141 98.0257 39.3691 98.025 39.3224L98.01 38.0524C98.0093 38.0058 98.027 37.9607 98.0593 37.9271C98.0916 37.8934 98.1359 37.8738 98.1825 37.8724L98.6525 37.8624C98.6758 37.8621 98.699 37.8664 98.7206 37.875C98.7423 37.8836 98.762 37.8964 98.7787 37.9127C98.7955 37.9289 98.8088 37.9483 98.818 37.9697C98.8273 37.9911 98.8322 38.0141 98.8325 38.0374L98.855 41.9174C98.8557 41.9641 98.8379 42.0091 98.8057 42.0428C98.7734 42.0765 98.7291 42.0961 98.6825 42.0974L98.185 42.1149C98.1608 42.116 98.1368 42.1121 98.1142 42.1034C98.0916 42.0948 98.071 42.0817 98.0537 42.0648C98.0364 42.048 98.0227 42.0278 98.0134 42.0054C98.0042 41.9831 97.9996 41.9591 98 41.9349L98.02 40.4449C98.0203 40.4214 98.016 40.3981 98.0072 40.3763C97.9984 40.3544 97.9854 40.3346 97.9689 40.3178C97.9524 40.3011 97.9327 40.2878 97.911 40.2787C97.8893 40.2696 97.866 40.2649 97.8425 40.2649L96.4625 40.2574C96.439 40.2574 96.4157 40.2621 96.394 40.2712C96.3723 40.2803 96.3526 40.2936 96.3361 40.3103C96.3196 40.3271 96.3066 40.3469 96.2978 40.3688C96.289 40.3906 96.2847 40.4139 96.285 40.4374Z" fill="#FDFCFC"/>
<path d="M119.17 42.206C118.919 42.1969 118.673 42.131 118.446 42.0123C118.219 41.8936 118.015 41.7243 117.845 41.5141C117.676 41.304 117.544 41.057 117.458 40.7874C117.372 40.5177 117.333 40.2307 117.344 39.9426C117.365 39.3609 117.586 38.8103 117.959 38.412C118.332 38.0138 118.825 37.8004 119.33 37.819C119.581 37.8282 119.827 37.894 120.054 38.0127C120.281 38.1314 120.485 38.3007 120.655 38.5109C120.824 38.7211 120.956 38.968 121.042 39.2377C121.128 39.5073 121.167 39.7944 121.156 40.0824C121.135 40.6642 120.914 41.2147 120.541 41.613C120.168 42.0112 119.675 42.2246 119.17 42.206ZM119.209 41.3797C119.332 41.3823 119.454 41.3495 119.569 41.2831C119.684 41.2168 119.789 41.1183 119.878 40.9931C119.968 40.868 120.04 40.7187 120.09 40.5538C120.141 40.3889 120.169 40.2116 120.172 40.0321C120.18 39.6695 120.089 39.3197 119.919 39.0596C119.749 38.7995 119.514 38.6505 119.266 38.6453C119.143 38.6427 119.021 38.6756 118.906 38.7419C118.791 38.8082 118.686 38.9068 118.597 39.0319C118.507 39.157 118.435 39.3063 118.385 39.4712C118.334 39.6361 118.306 39.8134 118.303 39.9929C118.295 40.3555 118.386 40.7054 118.556 40.9654C118.726 41.2255 118.961 41.3745 119.209 41.3797Z" fill="#FDFCFC"/>
<path d="M131.347 41.035L131.342 40.4625C131.342 40.4338 131.335 40.4057 131.321 40.3804C131.307 40.3552 131.288 40.3337 131.264 40.3177C131.24 40.3018 131.213 40.2918 131.184 40.2887C131.156 40.2856 131.127 40.2895 131.1 40.3L130.605 40.49C130.52 40.5234 130.437 40.5184 130.355 40.475C130.162 40.3734 130.103 40.2017 130.18 39.96C130.205 39.8867 130.253 39.835 130.325 39.805C130.85 39.5967 131.39 39.5617 131.945 39.7C131.99 39.7111 132.031 39.7356 132.062 39.7704C132.093 39.8051 132.113 39.8486 132.12 39.895C132.173 40.26 132.189 40.7525 132.167 41.3725C132.135 42.36 130.287 42.225 129.757 41.97C127.455 40.8575 129.042 36.7075 131.73 38.0575C131.812 38.0975 131.876 38.1659 131.91 38.2499C131.945 38.3338 131.947 38.4276 131.917 38.5135C131.887 38.5994 131.826 38.6716 131.747 38.7166C131.667 38.7615 131.574 38.7761 131.485 38.7575C131.027 38.6625 130.462 38.5675 130.082 38.9125C129.232 39.68 129.557 41.805 131.202 41.2425C131.301 41.2092 131.349 41.14 131.347 41.035Z" fill="#FDFCFC"/>
<path d="M93.675 38.8925L93.695 41.94C93.695 41.9849 93.6778 42.0281 93.647 42.0603C93.6162 42.0925 93.5742 42.1112 93.53 42.1125L92.9525 42.125C92.8341 42.1284 92.775 42.0709 92.775 41.9525L92.77 38.7425C92.77 38.6825 92.74 38.6517 92.68 38.65L91.755 38.615C91.7116 38.6138 91.6703 38.5957 91.6397 38.5646C91.609 38.5334 91.5912 38.4916 91.59 38.4475L91.58 38.115C91.575 37.9667 91.6458 37.8934 91.7925 37.895L94.8 37.9275C94.8296 37.9279 94.8587 37.9354 94.8847 37.9495C94.9108 37.9636 94.933 37.9838 94.9495 38.0085C94.966 38.0331 94.9763 38.0613 94.9794 38.0908C94.9825 38.1202 94.9784 38.15 94.9675 38.1775C94.8041 38.5892 94.4875 38.7375 94.0175 38.6225C93.7875 38.5642 93.6733 38.6542 93.675 38.8925Z" fill="#FDFCFC"/>
<path d="M100.655 41.3675L100.44 41.9825C100.402 42.0941 100.322 42.145 100.202 42.135L99.67 42.0875C99.6495 42.0858 99.6297 42.0795 99.6121 42.0692C99.5944 42.0588 99.5793 42.0447 99.568 42.0278C99.5567 42.011 99.5494 41.9918 99.5467 41.9718C99.544 41.9518 99.546 41.9315 99.5525 41.9125L100.752 38.26C100.797 38.1246 100.884 38.0067 100.999 37.9231C101.115 37.8395 101.254 37.7943 101.397 37.7941C101.539 37.7938 101.678 37.8384 101.794 37.9216C101.91 38.0047 101.997 38.1222 102.042 38.2575L103.262 41.915C103.27 41.9358 103.271 41.9579 103.268 41.9797C103.265 42.0014 103.256 42.0222 103.244 42.0402C103.231 42.0582 103.214 42.073 103.194 42.0834C103.174 42.0937 103.152 42.0994 103.13 42.1L102.497 42.1075C102.417 42.1075 102.364 42.0691 102.337 41.9925L102.117 41.3525C102.082 41.2491 102.01 41.1983 101.9 41.2L100.865 41.215C100.76 41.2166 100.69 41.2675 100.655 41.3675ZM100.977 40.345C100.972 40.3696 100.972 40.3951 100.978 40.4195C100.984 40.444 100.996 40.4667 101.012 40.486C101.028 40.5053 101.049 40.5207 101.072 40.5309C101.095 40.5411 101.12 40.5459 101.145 40.545L101.69 40.5275C101.715 40.5264 101.739 40.5199 101.761 40.5082C101.782 40.4966 101.801 40.4803 101.816 40.4603C101.831 40.4404 101.841 40.4175 101.845 40.3932C101.85 40.3689 101.849 40.3439 101.842 40.32L101.537 39.23C101.527 39.1946 101.506 39.1635 101.476 39.1418C101.446 39.1201 101.41 39.1089 101.374 39.11C101.337 39.1112 101.301 39.1246 101.273 39.1481C101.245 39.1717 101.225 39.204 101.217 39.24L100.977 40.345Z" fill="#FDFCFC"/>
<path d="M104.662 39.6501C104.666 40.2667 104.691 40.9026 104.737 41.5576C104.752 41.7792 104.726 41.9326 104.657 42.0176C104.596 42.0927 104.513 42.1481 104.42 42.1761C104.326 42.2042 104.227 42.2035 104.136 42.1742C104.044 42.1448 103.966 42.0883 103.91 42.0124C103.854 41.9364 103.825 41.8448 103.825 41.7501L103.845 38.2501C103.846 38.1402 103.882 38.0335 103.948 37.9456C104.014 37.8577 104.107 37.7933 104.212 37.762C104.317 37.7306 104.429 37.7339 104.532 37.7713C104.634 37.8088 104.722 37.8785 104.782 37.9701L106.38 40.3776C106.391 40.3934 106.406 40.4053 106.424 40.4114C106.442 40.4176 106.462 40.4178 106.48 40.4118C106.498 40.4059 106.514 40.3942 106.524 40.3785C106.535 40.3629 106.541 40.3441 106.54 40.3251C106.505 39.6551 106.487 38.9626 106.485 38.2476C106.485 37.9742 106.684 37.8484 107.082 37.8701C107.161 37.8739 107.236 37.908 107.29 37.9653C107.345 38.0225 107.375 38.0985 107.375 38.1776L107.377 41.6826C107.378 41.7979 107.341 41.9103 107.272 42.0029C107.204 42.0956 107.107 42.1636 106.996 42.1968C106.886 42.2299 106.768 42.2265 106.659 42.187C106.551 42.1475 106.458 42.074 106.395 41.9776L104.832 39.6001C104.822 39.5834 104.806 39.5707 104.787 39.5638C104.768 39.5569 104.748 39.5562 104.729 39.5618C104.71 39.5674 104.693 39.579 104.681 39.5949C104.669 39.6108 104.663 39.6302 104.662 39.6501Z" fill="#FDFCFC"/>
<path d="M110.977 39.655L112.485 39.635C112.536 39.6343 112.584 39.6536 112.621 39.6887C112.657 39.7238 112.679 39.7719 112.68 39.8225L112.687 40.2125C112.688 40.2327 112.684 40.2528 112.677 40.2716C112.669 40.2904 112.658 40.3075 112.644 40.3219C112.629 40.3364 112.613 40.3478 112.594 40.3556C112.575 40.3634 112.555 40.3675 112.535 40.3675L110.935 40.3775C110.919 40.3778 110.903 40.3813 110.888 40.3877C110.874 40.3942 110.86 40.4035 110.849 40.4151C110.838 40.4267 110.829 40.4404 110.823 40.4554C110.817 40.4704 110.815 40.4864 110.815 40.5025L110.855 41.89C110.86 42.0566 110.778 42.1358 110.61 42.1275L110.172 42.1075C110.13 42.1049 110.089 42.0863 110.059 42.0552C110.03 42.0241 110.013 41.9829 110.012 41.94L109.997 38.7425C109.997 38.5232 110.083 38.3126 110.237 38.1566C110.391 38.0006 110.601 37.912 110.82 37.91L112.787 37.8975C112.821 37.8972 112.855 37.9046 112.885 37.9193C112.915 37.9339 112.942 37.9554 112.963 37.982C112.984 38.0085 112.998 38.0396 113.005 38.0726C113.012 38.1056 113.011 38.1398 113.002 38.1725L112.912 38.525C112.903 38.5601 112.883 38.5914 112.854 38.6139C112.825 38.6365 112.789 38.6491 112.752 38.65L111.032 38.6775C110.916 38.6791 110.853 38.7383 110.845 38.855L110.802 39.47C110.801 39.4939 110.804 39.5179 110.812 39.5404C110.82 39.563 110.833 39.5836 110.849 39.601C110.866 39.6184 110.886 39.6322 110.908 39.6415C110.93 39.6508 110.953 39.6554 110.977 39.655Z" fill="#FDFCFC"/>
<path d="M116.32 40.1299L116.902 41.9174C116.946 42.0508 116.897 42.1166 116.757 42.1149L116.12 42.1099C116.072 42.1092 116.025 42.092 115.988 42.0611C115.951 42.0302 115.925 41.9875 115.915 41.9399C115.752 41.1949 115.622 40.0474 114.47 40.4574C114.436 40.4691 114.406 40.4916 114.386 40.5217C114.365 40.5518 114.354 40.5879 114.355 40.6249L114.382 41.9599C114.384 42.0683 114.332 42.1199 114.225 42.1149L113.65 42.0899C113.618 42.0886 113.588 42.0752 113.567 42.0523C113.545 42.0295 113.532 41.9991 113.532 41.9674L113.512 38.1949C113.512 38.126 113.537 38.0592 113.583 38.0082C113.63 37.9572 113.694 37.9256 113.762 37.9199C114.319 37.8733 114.88 37.8758 115.445 37.9274C116.597 38.0324 117.08 38.9899 116.35 39.9524C116.308 40.0074 116.298 40.0666 116.32 40.1299ZM115.77 39.0648C115.768 39.0126 115.756 38.9614 115.734 38.9139C115.712 38.8665 115.681 38.8239 115.643 38.7884C115.605 38.7529 115.56 38.7253 115.511 38.7072C115.462 38.6891 115.41 38.6808 115.358 38.6828L114.708 38.7078C114.656 38.7098 114.605 38.7221 114.557 38.7439C114.51 38.7657 114.467 38.7966 114.432 38.8349C114.396 38.8732 114.369 38.9181 114.351 38.9671C114.333 39.0161 114.324 39.0681 114.326 39.1203L114.335 39.3401C114.337 39.3923 114.349 39.4435 114.371 39.4909C114.393 39.5384 114.424 39.581 114.462 39.6165C114.5 39.652 114.545 39.6795 114.594 39.6976C114.643 39.7158 114.695 39.724 114.747 39.722L115.397 39.6971C115.449 39.6951 115.5 39.6828 115.548 39.661C115.595 39.6392 115.638 39.6083 115.673 39.57C115.709 39.5317 115.736 39.4867 115.754 39.4378C115.772 39.3888 115.781 39.3368 115.779 39.2846L115.77 39.0648Z" fill="#FDFCFC"/>
<path d="M122.655 39.9625L122.697 41.9375C122.701 42.0725 122.635 42.1367 122.5 42.13L122.005 42.1075C121.882 42.1025 121.82 42.0375 121.82 41.9125L121.827 38.2525C121.827 38.0509 121.927 37.9317 122.125 37.895C122.602 37.8034 122.923 37.9575 123.09 38.3575C123.363 39.0175 123.638 39.6775 123.915 40.3375C123.922 40.3541 123.934 40.3682 123.949 40.3782C123.965 40.3882 123.982 40.3937 124 40.394C124.019 40.3942 124.036 40.3893 124.052 40.3797C124.067 40.3702 124.08 40.3564 124.087 40.34L125.072 38.1975C125.151 38.0275 125.282 37.9259 125.465 37.8925C125.745 37.8442 125.945 37.8834 126.065 38.01C126.143 38.0917 126.183 38.2617 126.185 38.52C126.19 39.67 126.189 40.82 126.182 41.97C126.182 42.0717 126.132 42.1217 126.03 42.12L125.495 42.1075C125.36 42.1059 125.294 42.0367 125.297 41.9L125.365 39.87C125.365 39.8499 125.358 39.8305 125.345 39.8149C125.333 39.7992 125.315 39.7882 125.296 39.7836C125.276 39.779 125.256 39.7811 125.237 39.7895C125.219 39.7979 125.204 39.8122 125.195 39.83L124.482 41.385C124.441 41.4743 124.376 41.5502 124.293 41.6038C124.211 41.6573 124.115 41.6863 124.017 41.6873C123.919 41.6884 123.822 41.6615 123.739 41.6097C123.656 41.5579 123.59 41.4834 123.547 41.395L122.832 39.92C122.824 39.8998 122.809 39.8833 122.789 39.8734C122.769 39.8635 122.747 39.8609 122.726 39.866C122.704 39.8711 122.686 39.8836 122.673 39.9013C122.66 39.919 122.653 39.9407 122.655 39.9625Z" fill="#FDFCFC"/>
<path d="M133.735 41.3825L133.57 41.96C133.543 42.0567 133.48 42.105 133.38 42.105L132.745 42.1025C132.628 42.1025 132.588 42.0467 132.625 41.935L133.845 38.2625C133.89 38.1258 133.977 38.0067 134.094 37.9225C134.21 37.8382 134.351 37.7929 134.495 37.7932C134.639 37.7935 134.779 37.8393 134.895 37.924C135.011 38.0087 135.098 38.1281 135.142 38.265L136.345 41.9525C136.378 42.0575 136.34 42.1092 136.23 42.1075L135.612 42.1025C135.568 42.1018 135.526 42.0873 135.489 42.0609C135.453 42.0346 135.426 41.9977 135.41 41.955L135.195 41.3375C135.179 41.2911 135.148 41.2512 135.107 41.2237C135.066 41.1962 135.017 41.1827 134.967 41.185L133.925 41.23C133.881 41.2321 133.839 41.248 133.805 41.2754C133.771 41.3028 133.747 41.3403 133.735 41.3825ZM134.032 40.39C134.027 40.4085 134.027 40.4278 134.031 40.4466C134.034 40.4654 134.042 40.483 134.054 40.4983C134.065 40.5135 134.08 40.5258 134.097 40.5344C134.114 40.5429 134.133 40.5474 134.152 40.5475L134.807 40.55C134.826 40.5498 134.845 40.5453 134.862 40.5369C134.879 40.5285 134.893 40.5164 134.905 40.5015C134.917 40.4866 134.925 40.4693 134.928 40.4508C134.932 40.4324 134.932 40.4133 134.927 40.395L134.607 39.12C134.601 39.0929 134.586 39.0687 134.564 39.0514C134.542 39.034 134.515 39.0244 134.487 39.0241C134.459 39.0238 134.432 39.0329 134.41 39.0498C134.388 39.0667 134.372 39.0905 134.365 39.1175L134.032 40.39Z" fill="#FDFCFC"/>
<path d="M139.84 39.86C140.562 40.81 140.285 41.8775 139.057 42.04C138.437 42.12 137.832 42.1341 137.242 42.0825C137.175 42.0762 137.112 42.045 137.066 41.9951C137.02 41.9451 136.995 41.88 136.995 41.8125L136.99 38.1875C136.99 38.0158 137.076 37.9266 137.247 37.92C138.232 37.88 139.852 37.58 140.075 38.8975C140.088 38.9791 140.077 39.0575 140.04 39.1325L139.815 39.58C139.792 39.6243 139.783 39.674 139.787 39.7236C139.792 39.7731 139.81 39.8203 139.84 39.86ZM139.2 39.0406C139.204 38.9466 139.171 38.8545 139.108 38.7848C139.045 38.715 138.956 38.6733 138.862 38.6687L138.118 38.6323C138.024 38.6277 137.932 38.6606 137.863 38.7239C137.793 38.7871 137.751 38.8755 137.746 38.9695L137.74 39.0943C137.736 39.1884 137.769 39.2804 137.832 39.3501C137.895 39.4199 137.983 39.4617 138.078 39.4663L138.822 39.5027C138.916 39.5073 139.008 39.4743 139.077 39.4111C139.147 39.3478 139.189 39.2595 139.194 39.1654L139.2 39.0406ZM139.355 40.6519C139.353 40.5353 139.304 40.4245 139.219 40.3438C139.135 40.2632 139.022 40.2194 138.905 40.222L138.196 40.2382C138.079 40.2408 137.968 40.2897 137.887 40.3741C137.807 40.4584 137.763 40.5714 137.766 40.688L137.77 40.863C137.772 40.9797 137.821 41.0905 137.906 41.1711C137.99 41.2517 138.103 41.2955 138.22 41.2929L138.929 41.2768C139.046 41.2741 139.157 41.2252 139.237 41.1409C139.318 41.0565 139.362 40.9436 139.359 40.8269L139.355 40.6519Z" fill="#FDFCFC"/>
<path d="M141.847 40.44L141.895 41.1075C141.898 41.1608 141.921 41.211 141.96 41.2481C141.999 41.2852 142.051 41.3064 142.105 41.3075L143.815 41.3425C143.856 41.3441 143.894 41.3602 143.924 41.3878C143.953 41.4154 143.971 41.4526 143.975 41.4925L144.017 41.9325C144.026 42.0325 143.98 42.0825 143.88 42.0825L141.787 42.08C141.616 42.0795 141.452 42.0153 141.325 41.8998C141.199 41.7844 141.119 41.6258 141.102 41.455C141.016 40.5533 141.007 39.6308 141.075 38.6875C141.15 37.6575 142.967 37.845 143.882 37.9675C144.001 37.9842 144.044 38.0508 144.012 38.1675L143.91 38.545C143.878 38.6583 143.804 38.7067 143.687 38.69C143.131 38.6133 142.581 38.6317 142.037 38.745C141.946 38.7659 141.866 38.8192 141.811 38.895C141.757 38.9707 141.731 39.0638 141.74 39.1568C141.749 39.2498 141.792 39.3364 141.86 39.4005C141.928 39.4645 142.017 39.5017 142.11 39.505L143.61 39.5325C143.632 39.5328 143.654 39.5375 143.674 39.5462C143.694 39.5549 143.712 39.5675 143.728 39.5833C143.743 39.5991 143.755 39.6178 143.763 39.6382C143.771 39.6587 143.775 39.6805 143.775 39.7025L143.772 40.065C143.771 40.1867 143.71 40.2483 143.59 40.25L141.997 40.28C141.891 40.2817 141.841 40.335 141.847 40.44Z" fill="#FDFCFC"/>
<path d="M145.49 39.685L145.552 41.91C145.556 42.0134 145.506 42.07 145.402 42.08L144.852 42.13C144.739 42.14 144.682 42.0884 144.682 41.975L144.66 38.315C144.657 37.965 144.828 37.8125 145.175 37.8575C145.64 37.9175 145.72 38.1425 145.947 38.48C146.362 39.095 146.755 39.7109 147.125 40.3275C147.14 40.354 147.163 40.3747 147.191 40.3862C147.219 40.3978 147.251 40.3995 147.28 40.3911C147.309 40.3827 147.335 40.3647 147.352 40.34C147.37 40.3153 147.379 40.2854 147.377 40.255L147.312 38.0875C147.311 38.0434 147.327 38.0004 147.356 37.9674C147.385 37.9344 147.426 37.9139 147.47 37.91L147.977 37.8675C148.002 37.8655 148.027 37.8684 148.05 37.8763C148.073 37.8842 148.095 37.8967 148.113 37.9132C148.131 37.9296 148.145 37.9496 148.155 37.9719C148.165 37.9942 148.17 38.0182 148.17 38.0425L148.177 41.77C148.179 41.9684 148.082 42.08 147.885 42.105C147.56 42.1467 147.318 42.06 147.16 41.845C146.638 41.1384 146.15 40.3984 145.695 39.625C145.683 39.6038 145.663 39.5873 145.641 39.5782C145.618 39.569 145.593 39.5678 145.569 39.5748C145.545 39.5817 145.525 39.5963 145.51 39.6163C145.496 39.6363 145.489 39.6605 145.49 39.685Z" fill="#FDFCFC"/>
<path d="M19.5925 38.4075C19.5925 38.3253 19.6252 38.2464 19.6833 38.1883C19.7415 38.1301 19.8203 38.0975 19.9025 38.0975L21.1475 38.095C21.6289 38.0943 22.0908 38.2881 22.4316 38.6336C22.7725 38.9791 22.9643 39.4482 22.965 39.9375V40.4575C22.9654 40.6998 22.9187 40.9398 22.8278 41.1637C22.7369 41.3877 22.6035 41.5913 22.4352 41.7628C22.2669 41.9344 22.067 42.0706 21.8469 42.1636C21.6268 42.2566 21.3909 42.3047 21.1525 42.305L19.9075 42.3075C19.8253 42.3075 19.7465 42.2748 19.6883 42.2167C19.6302 42.1585 19.5975 42.0797 19.5975 41.9975L19.5925 38.4075ZM20.425 39.05L20.43 41.285C20.4307 41.3422 20.4539 41.3969 20.4946 41.4372C20.5353 41.4774 20.5903 41.5 20.6475 41.5H20.98C21.2691 41.4993 21.5461 41.3893 21.75 41.1943C21.954 40.9993 22.0682 40.7351 22.0675 40.46V39.865C22.0672 39.7287 22.0387 39.5939 21.9836 39.4681C21.9285 39.3424 21.848 39.2282 21.7465 39.1321C21.6451 39.0359 21.5247 38.9598 21.3924 38.908C21.26 38.8561 21.1182 38.8296 20.975 38.83H20.6425C20.6138 38.83 20.5853 38.8357 20.5587 38.8468C20.5322 38.8578 20.5081 38.8741 20.4878 38.8946C20.4676 38.915 20.4516 38.9393 20.4409 38.966C20.4301 38.9926 20.4247 39.0212 20.425 39.05Z" fill="#FDFCFC"/>
<path d="M26.5624 40.3451L27.1474 42.1151C27.1941 42.2551 27.1441 42.3226 26.9974 42.3176L26.3349 42.2926C26.2183 42.2892 26.1499 42.2301 26.1299 42.1151C25.9724 41.2576 25.7474 40.1976 24.6799 40.6351C24.6099 40.6634 24.5766 40.7159 24.5799 40.7926L24.6324 42.1551C24.6374 42.2717 24.5824 42.3259 24.4674 42.3176L23.9199 42.2801C23.8116 42.2734 23.7574 42.2159 23.7574 42.1076L23.7524 38.4351C23.7523 38.3511 23.7844 38.2704 23.8421 38.2094C23.8998 38.1485 23.9787 38.112 24.0624 38.1075C25.0199 38.0575 26.5024 37.8401 26.8849 38.9526C27.0424 39.4126 26.8299 39.7601 26.5874 40.1376C26.5458 40.2026 26.5374 40.2717 26.5624 40.3451ZM26.0154 39.257C26.0112 39.1483 25.964 39.0458 25.8842 38.9719C25.8045 38.898 25.6986 38.8589 25.5899 38.8631L24.9454 38.8878C24.8916 38.8899 24.8387 38.9025 24.7898 38.925C24.7409 38.9475 24.6969 38.9794 24.6603 39.0189C24.6237 39.0584 24.5953 39.1048 24.5766 39.1553C24.5579 39.2058 24.5494 39.2594 24.5514 39.3133L24.5595 39.5231C24.5637 39.6318 24.6109 39.7343 24.6906 39.8082C24.7704 39.8821 24.8763 39.9212 24.9849 39.9171L25.6295 39.8923C25.6833 39.8902 25.7361 39.8776 25.7851 39.8551C25.834 39.8326 25.878 39.8007 25.9146 39.7612C25.9512 39.7217 25.9796 39.6753 25.9983 39.6248C26.017 39.5743 26.0255 39.5207 26.0234 39.4669L26.0154 39.257Z" fill="#FDFCFC"/>
<path d="M29.4109 42.4012C29.1609 42.3924 28.9153 42.3271 28.6882 42.2088C28.4611 42.0904 28.2568 41.9215 28.0872 41.7117C27.9175 41.5018 27.7857 41.2551 27.6993 40.9856C27.6129 40.7161 27.5736 40.4291 27.5837 40.141C27.5938 39.8529 27.653 39.5694 27.7579 39.3066C27.8629 39.0438 28.0116 38.8069 28.1955 38.6093C28.3794 38.4118 28.5949 38.2575 28.8297 38.1554C29.0646 38.0532 29.3141 38.0051 29.5641 38.0138C29.8142 38.0226 30.0597 38.0879 30.2869 38.2062C30.514 38.3246 30.7183 38.4935 30.8879 38.7033C31.0576 38.9132 31.1894 39.1599 31.2758 39.4294C31.3622 39.6989 31.4015 39.9859 31.3914 40.274C31.3813 40.5621 31.3221 40.8456 31.2172 41.1084C31.1122 41.3712 30.9635 41.6081 30.7796 41.8057C30.5957 42.0032 30.3802 42.1575 30.1453 42.2596C29.9105 42.3618 29.661 42.4099 29.4109 42.4012ZM29.4561 41.5573C29.7048 41.5612 29.9454 41.4214 30.1252 41.1687C30.305 40.916 30.4092 40.571 30.4149 40.2097C30.4206 39.8484 30.3273 39.5004 30.1555 39.2421C29.9837 38.9839 29.7476 38.8366 29.4989 38.8327C29.2503 38.8288 29.0097 38.9686 28.8299 39.2213C28.65 39.474 28.5458 39.819 28.5402 40.1803C28.5345 40.5416 28.6278 40.8896 28.7996 41.1479C28.9714 41.4061 29.2075 41.5534 29.4561 41.5573Z" fill="#FDFCFC"/>
<path d="M32.915 40.925L32.9525 42.14C32.9558 42.245 32.9042 42.2983 32.7975 42.3L32.2875 42.3125C32.2588 42.3132 32.2304 42.3081 32.2037 42.2976C32.177 42.2871 32.1527 42.2714 32.1322 42.2513C32.1117 42.2313 32.0954 42.2074 32.0843 42.181C32.0732 42.1545 32.0675 42.1262 32.0675 42.0975L32.0625 38.3825C32.0624 38.3101 32.0904 38.2404 32.1406 38.1879C32.1909 38.1353 32.2596 38.1038 32.3325 38.1C32.8808 38.07 33.4567 38.08 34.06 38.13C35.5375 38.255 35.775 40.0875 34.495 40.625C34.0825 40.8 33.5575 40.75 33.075 40.7575C33.0534 40.7578 33.0322 40.7624 33.0124 40.7711C32.9927 40.7797 32.9748 40.7922 32.9599 40.8077C32.945 40.8233 32.9334 40.8417 32.9257 40.8619C32.918 40.882 32.9143 40.9035 32.915 40.925ZM32.92 39.1475L32.93 39.7775C32.9307 39.812 32.9381 39.846 32.9519 39.8776C32.9657 39.9092 32.9856 39.9378 33.0104 39.9617C33.0352 39.9856 33.0646 40.0044 33.0967 40.017C33.1288 40.0295 33.163 40.0357 33.1975 40.035L33.6675 40.0275C33.8707 40.0239 34.0646 39.9639 34.2066 39.8608C34.3486 39.7577 34.4272 39.6198 34.425 39.4775V39.3975C34.424 39.3268 34.403 39.2571 34.3633 39.1924C34.3237 39.1278 34.2661 39.0694 34.1938 39.0206C34.1216 38.9718 34.0362 38.9336 33.9424 38.9082C33.8487 38.8828 33.7485 38.8707 33.6475 38.8725L33.1775 38.88C33.143 38.8807 33.109 38.8881 33.0774 38.9019C33.0458 38.9157 33.0172 38.9356 32.9933 38.9604C32.9694 38.9853 32.9506 39.0146 32.9381 39.0467C32.9255 39.0788 32.9193 39.113 32.92 39.1475Z" fill="#FDFCFC"/>
<path d="M38.4114 38.0796L37.9914 38.0803C37.8726 38.0805 37.7765 38.1769 37.7767 38.2957L37.7834 42.0957C37.7836 42.2144 37.88 42.3105 37.9987 42.3103L38.4187 42.3096C38.5375 42.3094 38.6336 42.2129 38.6334 42.0942L38.6267 38.2942C38.6265 38.1755 38.5301 38.0794 38.4114 38.0796Z" fill="#FDFCFC"/>
<path d="M40.5675 39C40.4458 39.2733 40.5491 39.4617 40.8775 39.565C41.7925 39.8525 42.9775 40.515 42.42 41.67C41.945 42.6475 40.3125 42.38 39.53 42.0725C39.4316 42.0342 39.3941 41.9633 39.4175 41.86L39.53 41.3775C39.5566 41.2542 39.6308 41.2109 39.7525 41.2475C40.315 41.42 40.95 41.6875 41.495 41.3725C41.5459 41.3432 41.5879 41.3006 41.6165 41.2492C41.6451 41.1979 41.6593 41.1398 41.6575 41.081C41.6557 41.0223 41.638 40.9651 41.6063 40.9157C41.5746 40.8662 41.5301 40.8262 41.4775 40.8C40.8625 40.495 39.53 40.1525 39.5825 39.2125C39.655 37.8925 41.24 37.915 42.1325 38.23C42.2211 38.2609 42.295 38.3234 42.34 38.4056C42.385 38.4877 42.3978 38.5837 42.3761 38.6751C42.3545 38.7665 42.2997 38.8469 42.2225 38.9008C42.1452 38.9548 42.0508 38.9785 41.9575 38.9675L40.8625 38.83C40.8019 38.8229 40.7405 38.8355 40.6874 38.8661C40.6343 38.8967 40.5922 38.9437 40.5675 39Z" fill="#FDFCFC"/>
<path d="M48.0375 39.275C47.4925 40.165 48.7425 40.88 47.965 41.83C47.4325 42.4775 46.035 42.345 45.255 42.2775C45.0833 42.2625 44.9975 42.1683 44.9975 41.995L44.995 38.31C44.995 38.2694 45.0092 38.2302 45.0353 38.1991C45.0614 38.168 45.0975 38.1471 45.1375 38.14C45.9875 38.0033 46.8233 38.05 47.645 38.28C47.7449 38.3082 47.8369 38.3591 47.9139 38.4287C47.9908 38.4983 48.0507 38.5846 48.0887 38.681C48.1267 38.7773 48.1418 38.8811 48.133 38.9842C48.1241 39.0872 48.0914 39.1868 48.0375 39.275ZM47.2124 39.2163C47.2123 39.1687 47.2029 39.1216 47.1846 39.0776C47.1663 39.0337 47.1395 38.9937 47.1058 38.9601C47.072 38.9265 47.032 38.8999 46.988 38.8818C46.944 38.8636 46.8969 38.8543 46.8492 38.8544L46.1592 38.8556C46.0631 38.8558 45.971 38.8941 45.9031 38.9622C45.8353 39.0303 45.7972 39.1226 45.7974 39.2187L45.7976 39.3437C45.7977 39.3913 45.8071 39.4385 45.8254 39.4824C45.8437 39.5264 45.8705 39.5663 45.9042 39.5999C45.9379 39.6335 45.978 39.6601 46.022 39.6783C46.066 39.6964 46.1131 39.7057 46.1607 39.7056L46.8507 39.7044C46.9469 39.7042 47.039 39.6659 47.1069 39.5978C47.1747 39.5297 47.2128 39.4374 47.2126 39.3413L47.2124 39.2163ZM47.3553 40.7608C47.3525 40.662 47.3107 40.5684 47.2389 40.5005C47.1671 40.4327 47.0713 40.3961 46.9725 40.3988L46.1578 40.4216C46.1089 40.4229 46.0608 40.4339 46.0161 40.4539C45.9715 40.4739 45.9312 40.5025 45.8976 40.538C45.864 40.5736 45.8377 40.6154 45.8203 40.6611C45.8028 40.7068 45.7945 40.7555 45.7959 40.8044L45.8047 41.1192C45.8075 41.218 45.8493 41.3116 45.9211 41.3795C45.9929 41.4474 46.0887 41.4839 46.1874 41.4812L47.0021 41.4584C47.051 41.4571 47.0992 41.4461 47.1439 41.4261C47.1885 41.4061 47.2288 41.3776 47.2624 41.342C47.296 41.3065 47.3223 41.2647 47.3397 41.2189C47.3572 41.1732 47.3655 41.1246 47.3641 41.0757L47.3553 40.7608Z" fill="#FDFCFC"/>
<path d="M50.0026 40.4875C49.9376 40.487 49.8731 40.4993 49.8128 40.5237C49.7526 40.5481 49.6978 40.5842 49.6514 40.6298C49.5579 40.7219 49.5048 40.8474 49.5038 40.9787C49.5028 41.11 49.554 41.2363 49.6461 41.3298C49.7383 41.4234 49.8638 41.4765 49.9951 41.4775L51.7326 41.575C51.8326 41.58 51.8876 41.6325 51.8976 41.7325L51.9351 42.09C51.9379 42.1154 51.9352 42.1412 51.9272 42.1655C51.9192 42.1899 51.9059 42.2123 51.8884 42.2312C51.8709 42.2502 51.8495 42.2652 51.8257 42.2753C51.8018 42.2855 51.776 42.2904 51.7501 42.29L49.6976 42.2575C49.5174 42.2539 49.3453 42.1821 49.2162 42.0568C49.0872 41.9314 49.0108 41.7619 49.0026 41.5825C48.9626 40.6991 48.9509 39.8283 48.9676 38.97C48.9926 37.7875 51.1151 38.0325 51.8151 38.2025C51.8951 38.2225 51.9467 38.2716 51.9701 38.35C52.0301 38.5383 52.0092 38.6783 51.9076 38.77C51.8409 38.8283 51.7317 38.8491 51.5801 38.8325C51.1267 38.7808 50.6801 38.7991 50.2401 38.8875C49.8276 38.97 49.5451 39.26 49.7626 39.67C49.8059 39.7516 49.8742 39.7858 49.9676 39.7725C50.4992 39.6958 51.0167 39.7283 51.5201 39.87C51.586 39.8878 51.6434 39.9287 51.6817 39.9852C51.72 40.0417 51.7368 40.1101 51.7289 40.178C51.721 40.2458 51.689 40.3086 51.6388 40.3548C51.5885 40.4011 51.5233 40.4277 51.4551 40.43L50.0026 40.4875Z" fill="#FDFCFC"/>
<path d="M60.8575 39.7975C61.3809 39.7258 61.9042 39.7258 62.4275 39.7975C62.5092 39.8077 62.5838 39.8487 62.6362 39.9122C62.6886 39.9756 62.7148 40.0567 62.7093 40.1388C62.7039 40.2209 62.6673 40.2978 62.607 40.3538C62.5467 40.4098 62.4673 40.4406 62.385 40.44L60.86 40.4425C60.7467 40.4425 60.6917 40.4983 60.695 40.61L60.71 41.3C60.7113 41.3557 60.7342 41.4087 60.7738 41.4479C60.8135 41.4871 60.8668 41.5094 60.9225 41.51L62.6475 41.535C62.7209 41.5367 62.765 41.5733 62.78 41.645L62.865 42.07C62.8884 42.1883 62.84 42.2508 62.72 42.2575C61.5534 42.3208 60.8109 42.3167 60.4925 42.245C59.5675 42.04 59.8725 39.4 59.9575 38.6875C59.9764 38.5328 60.0511 38.3903 60.1675 38.2867C60.284 38.1832 60.4342 38.1257 60.59 38.125L62.6125 38.115C62.7375 38.115 62.7959 38.1767 62.7875 38.3L62.76 38.7325C62.7583 38.7547 62.7519 38.7764 62.7413 38.796C62.7307 38.8157 62.7161 38.8329 62.6984 38.8465C62.6807 38.8602 62.6604 38.87 62.6387 38.8753C62.6171 38.8807 62.5945 38.8814 62.5725 38.8775C62.0192 38.7708 61.47 38.7858 60.925 38.9225C60.7867 38.9575 60.7167 39.0458 60.715 39.1875L60.705 39.66C60.7034 39.7667 60.7542 39.8125 60.8575 39.7975Z" fill="#FDFCFC"/>
<path d="M66.4225 40.3625L66.995 42.105C67.002 42.1274 67.0037 42.1512 66.9999 42.1744C66.9961 42.1976 66.9869 42.2195 66.973 42.2385C66.9591 42.2575 66.941 42.2729 66.9201 42.2836C66.8991 42.2943 66.876 42.2999 66.8525 42.3L66.19 42.3025C66.0867 42.3042 66.0225 42.2542 65.9975 42.1525C65.8 41.375 65.785 40.2625 64.565 40.6225C64.4683 40.6525 64.4225 40.7175 64.4275 40.8175L64.4875 42.1525C64.4885 42.1718 64.4856 42.1912 64.4789 42.2094C64.4722 42.2275 64.4618 42.2441 64.4485 42.2582C64.4352 42.2722 64.4191 42.2834 64.4013 42.291C64.3835 42.2986 64.3644 42.3025 64.345 42.3025L63.7775 42.305C63.6758 42.305 63.625 42.2542 63.625 42.1525L63.615 38.3125C63.615 38.2729 63.6291 38.2346 63.6548 38.2044C63.6804 38.1742 63.7159 38.154 63.755 38.1475C64.5917 38.0025 65.4175 38.0417 66.2325 38.265C66.3192 38.29 66.3892 38.3383 66.4425 38.41C66.8775 38.99 66.8833 39.5658 66.46 40.1375C66.4083 40.2058 66.3958 40.2808 66.4225 40.3625ZM65.8625 39.2825C65.8625 39.1771 65.8206 39.076 65.7461 39.0014C65.6715 38.9269 65.5704 38.885 65.465 38.885H64.775C64.6696 38.885 64.5685 38.9269 64.4939 39.0014C64.4194 39.076 64.3775 39.1771 64.3775 39.2825V39.4875C64.3775 39.5929 64.4194 39.694 64.4939 39.7686C64.5685 39.8431 64.6696 39.885 64.775 39.885H65.465C65.5704 39.885 65.6715 39.8431 65.7461 39.7686C65.8206 39.694 65.8625 39.5929 65.8625 39.4875V39.2825Z" fill="#FDFCFC"/>
<path d="M53.3625 38.8575L52.405 38.785C52.3181 38.7817 52.2361 38.744 52.177 38.6802C52.118 38.6165 52.0866 38.5319 52.09 38.445C52.0933 38.3581 52.131 38.2762 52.1947 38.2171C52.2585 38.158 52.3431 38.1267 52.43 38.13L59.14 38.145C59.2433 38.145 59.3041 38.195 59.3225 38.295C59.3775 38.6 59.1775 38.775 58.875 38.77C58.635 38.765 58.395 38.7717 58.155 38.79C58.05 38.7983 57.9983 38.8542 58 38.9575L58.055 42.135C58.0566 42.2417 58.0041 42.295 57.8975 42.295L57.3925 42.2925C57.2725 42.2925 57.2125 42.2325 57.2125 42.1125L57.185 38.92C57.1848 38.9029 57.1809 38.886 57.1737 38.8704C57.1664 38.8549 57.156 38.8411 57.1429 38.83C57.1299 38.8189 57.1146 38.8106 57.0982 38.8059C57.0817 38.8012 57.0644 38.8 57.0475 38.8025C56.6858 38.8608 56.3383 38.8283 56.005 38.705C55.92 38.6733 55.8341 38.67 55.7475 38.695C55.3425 38.8083 54.9291 38.8442 54.5075 38.8025C54.4881 38.8008 54.4685 38.8031 54.45 38.8093C54.4316 38.8156 54.4146 38.8256 54.4003 38.8388C54.3859 38.852 54.3745 38.868 54.3667 38.8859C54.3589 38.9037 54.3549 38.923 54.355 38.9425L54.3675 42.195C54.3675 42.2767 54.3266 42.3167 54.245 42.315L53.6875 42.3025C53.5708 42.3008 53.5125 42.2417 53.5125 42.125L53.4825 38.985C53.4808 38.9067 53.4408 38.8642 53.3625 38.8575Z" fill="#FDFCFC"/>
</svg>
