<svg width="166" height="58" viewBox="0 0 166 58" fill="none" xmlns="http://www.w3.org/2000/svg">
<path d="M23.6275 11.9475L23.605 23.9825" stroke="#01E97B" stroke-width="2"/>
<path d="M23.6249 28.6975L23.6124 45.975" stroke="#01E97B" stroke-width="2"/>
<path d="M23.6275 11.9475L23.605 23.9825C23.335 23.9992 23.1134 24.05 22.94 24.135C19.0267 26.0517 15.1425 27.9533 11.2875 29.84C11.161 29.902 11.0208 29.9307 10.8802 29.9235C10.7395 29.9163 10.603 29.8734 10.4834 29.7989C10.3639 29.7244 10.2653 29.6207 10.1969 29.4975C10.1285 29.3744 10.0926 29.2359 10.0925 29.095L10.095 18.995C10.0949 18.8622 10.1318 18.7319 10.2016 18.6189C10.2714 18.5058 10.3712 18.4145 10.49 18.355L14.5775 16.3225C14.6509 16.2842 14.6875 16.3067 14.6875 16.39V21.43C14.6875 21.51 14.7242 21.5325 14.7975 21.4975L19.2 19.3475C19.2323 19.3316 19.2594 19.3071 19.2784 19.2766C19.2974 19.2461 19.3075 19.2109 19.3075 19.175V14.19C19.3075 14.1067 19.3442 14.0475 19.4175 14.0125L23.6275 11.9475Z" fill="#00FF86"/>
<path d="M23.6275 11.9475L27.825 14.0075C27.9 14.0442 27.9375 14.1042 27.9375 14.1875V19.13C27.9375 19.2383 27.9858 19.3158 28.0825 19.3625L32.42 21.4825C32.515 21.5292 32.5625 21.5 32.5625 21.395L32.565 16.3875C32.565 16.3742 32.5684 16.3611 32.5747 16.3494C32.5811 16.3378 32.5902 16.3279 32.6013 16.3209C32.6123 16.3139 32.6249 16.3098 32.6378 16.3093C32.6508 16.3087 32.6635 16.3115 32.675 16.3175L36.82 18.385C36.9131 18.4315 36.9914 18.5031 37.0462 18.5919C37.101 18.6806 37.13 18.783 37.13 18.8875V29.1925C37.13 29.3219 37.0971 29.4492 37.0343 29.5624C36.9715 29.6755 36.881 29.7709 36.7712 29.8394C36.6614 29.9079 36.536 29.9474 36.4068 29.954C36.2775 29.9607 36.1487 29.9344 36.0325 29.8775C32.1141 27.9642 28.1675 26.0283 24.1925 24.07C24.1091 24.0283 23.9133 23.9992 23.605 23.9825L23.6275 11.9475Z" fill="#01D370"/>
<path d="M114.945 25.4325V20.49C114.945 20.4067 114.987 20.3583 115.07 20.345L117.495 19.94C117.588 19.9233 117.635 19.9625 117.635 20.0575V37.1225C117.635 37.2092 117.591 37.2525 117.503 37.2525L115.013 37.255C114.997 37.255 114.982 37.252 114.968 37.246C114.954 37.24 114.942 37.2313 114.931 37.2203C114.921 37.2093 114.912 37.1963 114.907 37.1821C114.902 37.1679 114.899 37.1527 114.9 37.1375L114.933 36.13C114.936 36.0217 114.897 36.0033 114.815 36.075C111.153 39.3125 105.123 37.2875 104.07 32.4925C102.663 26.075 109.63 21.4925 114.83 25.49C114.907 25.5483 114.945 25.5292 114.945 25.4325ZM110.897 35.2847C112.047 35.2706 113.143 34.7881 113.946 33.9432C114.749 33.0984 115.192 31.9603 115.177 30.7796C115.17 30.1949 115.051 29.6173 114.826 29.0798C114.602 28.5423 114.277 28.0554 113.869 27.6469C113.462 27.2384 112.98 26.9163 112.451 26.699C111.922 26.4817 111.357 26.3734 110.788 26.3803C109.639 26.3944 108.542 26.8769 107.739 27.7218C106.936 28.5667 106.493 29.7047 106.508 30.8855C106.515 31.4701 106.634 32.0477 106.859 32.5852C107.083 33.1227 107.408 33.6096 107.816 34.0181C108.223 34.4266 108.705 34.7487 109.234 34.9661C109.763 35.1834 110.328 35.2916 110.897 35.2847Z" fill="white"/>
<path d="M60.2125 36.6075C54.8125 39.385 48.0175 36.7725 46.9875 30.4875C46.1475 25.35 49.405 20.96 54.6275 20.1525C57.0975 19.7708 59.5642 20.2317 62.0275 21.535C62.1125 21.5817 62.155 21.6533 62.155 21.75L62.1575 24.3025C62.1575 24.3942 62.12 24.4142 62.045 24.3625C57.645 21.4 50.2725 21.7975 49.675 28.435C49.3825 31.6975 51.6225 34.7825 55.0625 35.18C56.8708 35.39 58.5992 34.9175 60.2475 33.7625C60.3108 33.7158 60.3433 33.6533 60.345 33.575V30.145C60.345 30.0533 60.2992 30.0075 60.2075 30.0075H55.44C55.3533 30.0075 55.31 29.9642 55.31 29.8775V27.625C55.31 27.5383 55.3525 27.495 55.4375 27.495H62.935C63.02 27.495 63.0625 27.5375 63.0625 27.6225V37.2475C63.0625 37.3292 63.0217 37.37 62.94 37.37H60.4975C60.3925 37.37 60.3417 37.3183 60.345 37.215L60.36 36.7C60.3633 36.5867 60.3142 36.5558 60.2125 36.6075Z" fill="white"/>
<path d="M85.09 25.845C86.9125 23.19 90.8175 23.705 92.605 26.04C92.6567 26.1083 92.7075 26.1075 92.7575 26.0375C93.5242 24.9808 94.5633 24.3667 95.875 24.195C98.8033 23.8117 100.677 24.7783 101.495 27.095C101.742 27.7917 101.867 28.865 101.872 30.315C101.881 32.6267 101.88 34.9367 101.87 37.245C101.87 37.3283 101.827 37.37 101.743 37.37L99.3175 37.3725C99.2325 37.3725 99.19 37.3292 99.19 37.2425C99.2033 34.5558 99.2008 31.8733 99.1825 29.195C99.155 25.72 94.97 25.735 93.805 28.3025C93.5633 28.8342 93.4417 29.6933 93.44 30.88C93.4383 33 93.4367 35.1208 93.435 37.2425C93.435 37.3275 93.3925 37.37 93.3075 37.37L90.875 37.3725C90.785 37.3725 90.74 37.3267 90.74 37.235C90.7467 32.99 90.7425 30.2875 90.7275 29.1275C90.6825 25.645 86.38 25.77 85.285 28.42C85.1033 28.8633 85.0108 29.5992 85.0075 30.6275C84.9992 32.8208 84.9983 35.0158 85.005 37.2125C85.005 37.3058 84.9583 37.3525 84.865 37.3525H82.4575C82.3608 37.3525 82.3125 37.3042 82.3125 37.2075V24.6225C82.3125 24.5392 82.355 24.4975 82.44 24.4975H84.88C84.9667 24.4975 85.01 24.5417 85.01 24.63L84.9925 25.8125C84.9908 25.9325 85.0233 25.9433 85.09 25.845Z" fill="white"/>
<path d="M139.128 25.7775C140.993 23.3 144.895 23.6225 146.628 26.0625C146.678 26.1325 146.726 26.1325 146.773 26.0625C147.466 25.0525 148.393 24.4458 149.553 24.2425C152.719 23.6858 154.716 24.6808 155.543 27.2275C155.774 27.9425 155.888 29.0483 155.883 30.545C155.874 32.7783 155.873 35.01 155.878 37.24C155.878 37.3267 155.834 37.37 155.748 37.37L153.323 37.3725C153.228 37.3725 153.18 37.3242 153.18 37.2275C153.198 34.6792 153.194 32.1375 153.168 29.6025C153.159 28.7675 153.041 28.1342 152.813 27.7025C151.91 26 149.758 26.24 148.503 27.3275C147.801 27.9342 147.448 28.7425 147.445 29.7525C147.438 32.2458 147.436 34.7417 147.438 37.24C147.438 37.3267 147.395 37.37 147.31 37.37L144.88 37.3725C144.797 37.3725 144.755 37.33 144.755 37.245C144.745 34.64 144.744 32.0375 144.753 29.4375C144.76 27.6325 143.825 26.26 141.868 26.5225C140.651 26.6875 139.816 27.2858 139.363 28.3175C139.128 28.8508 139.011 29.7817 139.013 31.11C139.016 33.1433 139.015 35.1775 139.01 37.2125C139.01 37.3058 138.963 37.3525 138.87 37.3525H136.468C136.378 37.3525 136.333 37.3075 136.333 37.2175V24.6125C136.333 24.5358 136.372 24.4975 136.45 24.4975H138.923C138.996 24.4975 139.033 24.535 139.033 24.61V25.745C139.033 25.85 139.064 25.8608 139.128 25.7775Z" fill="white"/>
<path d="M76.27 25.56L76.25 24.6275C76.2484 24.5425 76.2892 24.5 76.3725 24.5H78.765C78.86 24.5 78.9075 24.5467 78.9075 24.64V37.235C78.9075 37.3284 78.86 37.375 78.765 37.375H76.3125C76.2275 37.375 76.1867 37.3334 76.19 37.25L76.24 36.2575C76.245 36.1525 76.2067 36.1334 76.125 36.2C74.4 37.6334 72.4209 38.0742 70.1875 37.5225C65.9275 36.47 64.17 31.85 65.845 27.9775C67.545 24.0475 72.715 22.9 76.1325 25.6275C76.2259 25.7009 76.2717 25.6784 76.27 25.56ZM72.2143 35.4023C72.7782 35.3964 73.3355 35.2751 73.8542 35.0454C74.373 34.8157 74.843 34.4821 75.2374 34.0635C75.6319 33.645 75.9431 33.1498 76.1533 32.6061C76.3634 32.0625 76.4684 31.481 76.4623 30.8951C76.4562 30.3091 76.339 29.73 76.1175 29.1908C75.896 28.6517 75.5745 28.1631 75.1713 27.7529C74.7682 27.3428 74.2913 27.019 73.7679 26.8002C73.2445 26.5814 72.6848 26.4719 72.1208 26.4778C71.5568 26.4837 70.9995 26.6049 70.4808 26.8347C69.9621 27.0644 69.4921 27.398 69.0976 27.8165C68.7032 28.2351 68.392 28.7303 68.1818 29.2739C67.9716 29.8176 67.8666 30.399 67.8728 30.985C67.8789 31.571 67.9961 32.1501 68.2176 32.6892C68.4391 33.2283 68.7606 33.7169 69.1637 34.1271C69.5669 34.5373 70.0437 34.861 70.5672 35.0798C71.0906 35.2986 71.6503 35.4082 72.2143 35.4023Z" fill="white"/>
<path d="M133.938 30.9548C133.936 31.8488 133.752 32.7337 133.397 33.559C133.042 34.3843 132.522 35.1339 131.866 35.7648C131.211 36.3958 130.434 36.8959 129.579 37.2365C128.724 37.5772 127.808 37.7516 126.883 37.75C125.958 37.7484 125.043 37.5707 124.189 37.2271C123.335 36.8835 122.56 36.3807 121.907 35.7475C121.254 35.1142 120.737 34.3628 120.384 33.5363C120.032 32.7097 119.851 31.8242 119.853 30.9302C119.854 30.0362 120.038 29.1513 120.393 28.326C120.749 27.5007 121.269 26.7512 121.924 26.1202C122.579 25.4892 123.356 24.9891 124.211 24.6485C125.066 24.3079 125.982 24.1334 126.907 24.135C127.832 24.1366 128.747 24.3143 129.601 24.6579C130.455 25.0015 131.23 25.5043 131.883 26.1376C132.536 26.7709 133.054 27.5222 133.406 28.3488C133.759 29.1753 133.939 30.0608 133.938 30.9548ZM131.34 30.94C131.34 30.3566 131.225 29.7789 131.002 29.2399C130.779 28.701 130.451 28.2112 130.039 27.7987C129.626 27.3862 129.137 27.0589 128.598 26.8357C128.059 26.6124 127.481 26.4975 126.898 26.4975C126.314 26.4975 125.736 26.6124 125.197 26.8357C124.658 27.0589 124.169 27.3862 123.756 27.7987C123.344 28.2112 123.016 28.701 122.793 29.2399C122.57 29.7789 122.455 30.3566 122.455 30.94C122.455 32.1182 122.923 33.2482 123.756 34.0813C124.589 34.9145 125.719 35.3825 126.898 35.3825C128.076 35.3825 129.206 34.9145 130.039 34.0813C130.872 33.2482 131.34 32.1182 131.34 30.94Z" fill="white"/>
<path d="M23.625 28.6975L23.6125 45.975C23.405 45.955 23.1575 45.9225 22.96 45.83C20.0967 44.48 17.2725 43.145 14.4875 41.825C14.379 41.7734 14.2874 41.692 14.2232 41.5903C14.1591 41.4885 14.125 41.3705 14.125 41.25V33.4425C14.125 33.3144 14.1614 33.1889 14.2299 33.0805C14.2985 32.9721 14.3965 32.8852 14.5125 32.83C17.3508 31.4833 20.2225 30.1258 23.1275 28.7575C23.2242 28.7108 23.39 28.6908 23.625 28.6975Z" fill="#00FF86"/>
<path d="M23.625 28.6975C23.8867 28.7042 24.0509 28.7233 24.1175 28.755C27.0225 30.1267 29.8959 31.4842 32.7375 32.8275C32.8541 32.8822 32.9527 32.969 33.0218 33.078C33.0909 33.1869 33.1276 33.3133 33.1275 33.4425V41.13C33.1275 41.4717 32.9734 41.7158 32.6651 41.8625C29.6917 43.2825 26.865 44.6192 24.185 45.8725C24.025 45.9475 23.79 45.9525 23.6125 45.975L23.625 28.6975Z" fill="#01D370"/>
</svg>
