<svg width="166" height="58" viewBox="0 0 166 58" fill="none" xmlns="http://www.w3.org/2000/svg">
<path d="M88.35 23.4374L88.475 22.8174" stroke="#F8D8A2" stroke-width="2"/>
<path d="M83.4575 26.4898L83.59 25.7898" stroke="#F8D8A2" stroke-width="2"/>
<path d="M95.5525 25.2073L89.3325 29.1673" stroke="#F7B598" stroke-width="2"/>
<path d="M86.76 30.7874L81.9625 33.8549" stroke="#F7B598" stroke-width="2"/>
<path d="M79.11 35.6899L77.015 36.9874C77.0007 36.9962 76.9891 37.0088 76.9817 37.0238C76.9744 37.0389 76.9714 37.0558 76.9732 37.0727C76.9751 37.0896 76.9816 37.1058 76.992 37.1194C77.0025 37.1331 77.0165 37.1436 77.0325 37.1499L78.6375 37.7474" stroke="#F7B598" stroke-width="2"/>
<path d="M78.35 39.1475L76.4825 40.1425" stroke="#F7B598" stroke-width="2"/>
<path d="M74.255 40.1849L76.2875 38.6949C76.3858 38.6233 76.3783 38.5641 76.265 38.5174L74.56 37.8149" stroke="#F8D8A2" stroke-width="2"/>
<path d="M74.905 36.3424L79.625 33.2749" stroke="#F8D8A2" stroke-width="2"/>
<path d="M82.46 31.415L87.31 28.2825" stroke="#F8D8A2" stroke-width="2"/>
<path d="M80.8575 27.4275L80.6975 28.13" stroke="#F8D8A2" stroke-width="2"/>
<path d="M63.68 41.3699C63.6683 41.3449 63.6275 41.324 63.5575 41.3074" stroke="#F8D8A2" stroke-width="2"/>
<path d="M73.79 30.6348C73.695 30.9048 73.6967 31.0756 73.795 31.1473" stroke="#F8D8A2" stroke-width="2"/>
<path d="M73.49 32.335C73.4733 32.435 73.4808 32.5383 73.5125 32.645" stroke="#F8D8A2" stroke-width="2"/>
<path d="M67.71 34.8223C69.0784 33.9823 70.3867 33.1465 71.635 32.3148C72.0317 32.0498 72.3775 31.7382 72.6725 31.3798C72.6765 31.3762 72.6789 31.3711 72.6791 31.3657C72.6793 31.3603 72.6774 31.3551 72.6738 31.3511C72.6701 31.3471 72.6651 31.3447 72.6597 31.3445C72.6543 31.3443 72.649 31.3462 72.645 31.3498L66.895 34.9573" stroke="#F8D8A2" stroke-width="2"/>
<path d="M64.7075 36.0725L64.63 36.4075C64.6284 36.4163 64.6239 36.4244 64.6172 36.4307C64.6105 36.437 64.6018 36.4411 64.5925 36.4425C64.5641 36.4491 64.5416 36.4591 64.525 36.4725C64.4466 36.5391 64.4608 36.5508 64.5675 36.5075L65.7225 36.0325" stroke="#F8D8A2" stroke-width="2"/>
<path d="M75.8075 31.3724C75.8825 31.1757 75.8766 31.0149 75.79 30.8899" stroke="#F8D8A2" stroke-width="2"/>
<path d="M76.1 29.8124C76.21 29.7524 76.2666 29.5249 76.27 29.1299" stroke="#F8D8A2" stroke-width="2"/>
<path d="M88.515 33.6023L91.9425 31.5123C92.0142 31.469 92.0684 31.409 92.105 31.3323C92.4134 30.6873 92.9675 30.2531 93.7675 30.0298" stroke="#F7B598" stroke-width="2"/>
<path d="M94.9175 29.2674C96.2642 28.3491 97.5992 27.4866 98.9225 26.6799C98.9692 26.6516 98.9858 26.6249 98.9725 26.5999C98.9508 26.5599 98.9208 26.5516 98.8825 26.5749L91.41 30.9574C91.3417 30.9974 91.3 31.0557 91.285 31.1324C91.14 31.9074 88.9325 32.9674 88.6175 33.1274" stroke="#F7B598" stroke-width="2"/>
<path d="M85.8225 35.2124C85.7258 35.2724 85.6192 35.299 85.5025 35.2924C85.4508 35.289 85.4442 35.2699 85.4825 35.2349L85.94 34.7974" stroke="#F7B598" stroke-width="2"/>
<path d="M23.3925 22.5251C24.3375 20.3726 24.78 18.2501 27.175 16.9776C27.6433 16.7276 28.5167 16.3917 29.795 15.9701C31.5783 15.3834 33.2283 14.3276 34.745 12.8026C35.1625 12.3826 35.56 11.7851 35.97 11.2801C36.08 11.1451 36.1133 11.1626 36.07 11.3326C35.6575 12.9476 34.1525 14.5201 32.8525 15.4651C31.845 16.1951 30.3125 16.8726 29.06 17.6101C28.07 18.1901 27.1075 19.6226 27.81 20.7301C28.52 21.8551 30.28 21.4001 31.1725 20.7326C32.4825 19.7501 33.3125 18.3976 34.21 17.0726C34.2193 17.0557 34.2349 17.0431 34.2534 17.0377C34.2719 17.0323 34.2918 17.0345 34.3088 17.0438C34.3257 17.0531 34.3382 17.0687 34.3436 17.0872C34.349 17.1058 34.3468 17.1257 34.3375 17.1426C32.0942 22.2392 28.3833 25.5226 23.205 26.9926C21.215 27.5576 18.6875 27.5901 16.4525 27.9351C15.2942 28.1151 14.4 28.3917 13.77 28.7651C11.145 30.3251 10.505 33.5301 11.36 36.3851C11.5117 36.8934 11.4833 36.9034 11.275 36.4151C9.4575 32.1701 10.5025 27.9926 14.7375 25.8251C15.3375 25.5167 16.2417 25.2501 17.45 25.0251C19.425 24.6567 20.945 24.3067 22.01 23.9751C22.5825 23.7951 23.1275 23.1301 23.3925 22.5251Z" fill="#E77B3B"/>
<path d="M88.35 23.4374L88.475 22.8174C92.6916 20.2691 96.8975 17.7732 101.092 15.3299C101.122 15.3132 101.148 15.3091 101.17 15.3174C101.187 15.3241 101.204 15.3357 101.222 15.3524C101.237 15.3674 101.236 15.3799 101.217 15.3899L88.35 23.4374Z" fill="white"/>
<path d="M95.5525 25.2076L89.3325 29.1676L86.76 30.7876L81.9625 33.8551L79.11 35.6901L77.015 36.9876C77.0006 36.9963 76.9891 37.009 76.9817 37.024C76.9743 37.0391 76.9714 37.056 76.9732 37.0729C76.975 37.0898 76.9815 37.106 76.992 37.1196C77.0025 37.1333 77.0165 37.1438 77.0325 37.1501L78.6375 37.7476L79.675 38.1176C79.7032 38.1281 79.7278 38.1463 79.7459 38.1703C79.7641 38.1943 79.775 38.223 79.7773 38.2529C79.7797 38.2829 79.7734 38.3129 79.7593 38.3394C79.7451 38.366 79.7237 38.3879 79.6975 38.4026L78.35 39.1476L76.4825 40.1426C74.4441 41.1943 72.4166 42.2835 70.4 43.4101C70.3683 43.4268 70.3416 43.431 70.32 43.4226C70.3 43.4143 70.28 43.3985 70.26 43.3751C70.2582 43.3732 70.2568 43.3709 70.2559 43.3684C70.255 43.3659 70.2547 43.3631 70.255 43.3603C70.2552 43.3575 70.256 43.3548 70.2573 43.3522C70.2586 43.3495 70.2603 43.3472 70.2625 43.3451L74.255 40.1851L76.2875 38.6951C76.3858 38.6235 76.3783 38.5643 76.265 38.5176L74.56 37.8151L73.625 37.3776C73.5083 37.3226 73.5033 37.2601 73.61 37.1901L74.905 36.3426L79.625 33.2751L82.46 31.4151L87.31 28.2826L94.41 23.6726C94.4225 23.6648 94.4328 23.6538 94.4398 23.6408C94.4468 23.6278 94.4503 23.6131 94.4501 23.5981C94.4498 23.5831 94.4458 23.5684 94.4383 23.5552C94.4309 23.542 94.4203 23.5308 94.4075 23.5226L92.4775 22.3151C92.4626 22.3058 92.4504 22.2927 92.442 22.2773C92.4336 22.2618 92.4294 22.2445 92.4296 22.2269C92.4299 22.2093 92.4346 22.1921 92.4434 22.1769C92.4523 22.1617 92.4649 22.1491 92.48 22.1401L100.552 17.5726C100.559 17.5694 100.566 17.5685 100.572 17.5701C100.611 17.5835 100.598 17.6135 100.535 17.6601C98.7483 19.0168 96.9608 20.3693 95.1725 21.7176C95.1603 21.7268 95.1506 21.7388 95.1443 21.7527C95.1379 21.7665 95.1351 21.7816 95.1361 21.7966C95.1371 21.8115 95.1419 21.8259 95.15 21.8384C95.1581 21.8508 95.1693 21.8609 95.1825 21.8676L97.995 23.3801C98.0173 23.392 98.0361 23.4096 98.0495 23.431C98.063 23.4524 98.0706 23.477 98.0716 23.5023C98.0726 23.5275 98.067 23.5526 98.0553 23.5751C98.0436 23.5975 98.0263 23.6165 98.005 23.6301L95.5525 25.2076Z" fill="white"/>
<path d="M17.445 23.4225C16.1325 23.54 15.1125 23.765 13.93 24.3875C13.8283 24.4408 13.7933 24.4125 13.825 24.3025C14.1517 23.2058 14.8267 22.4291 15.85 21.9725C16.985 21.4625 18.3975 21.345 19.355 20.92C20.7 20.325 21.6875 19.4166 22.3175 18.195C22.5758 17.6933 22.6983 17.725 22.685 18.29C22.63 20.765 21.5592 22.3691 19.4725 23.1025C19.1225 23.2258 18.4467 23.3325 17.445 23.4225Z" fill="#E77B3B"/>
<path d="M44.915 28.2576L51.71 28.2651C51.7518 28.2653 51.7924 28.251 51.8248 28.2245C51.8572 28.198 51.8794 28.1611 51.8875 28.1201L53.4 20.6201C53.4081 20.5791 53.4303 20.5422 53.4627 20.5157C53.4951 20.4892 53.5357 20.4749 53.5775 20.4751L57.46 20.4901C57.4867 20.4903 57.5131 20.4964 57.5372 20.508C57.5612 20.5196 57.5824 20.5364 57.5992 20.5573C57.6159 20.5781 57.6278 20.6024 57.634 20.6284C57.6402 20.6544 57.6406 20.6815 57.635 20.7076L53.4725 40.0476C53.4639 40.0877 53.4419 40.1238 53.4101 40.1497C53.3783 40.1756 53.3385 40.1899 53.2975 40.1901H49.63C49.6033 40.1902 49.5769 40.1844 49.5528 40.1731C49.5286 40.1618 49.5072 40.1453 49.4902 40.1247C49.4733 40.1041 49.4611 40.08 49.4545 40.0541C49.448 40.0283 49.4473 40.0013 49.4525 39.9751L50.9175 32.5576C50.9227 32.5314 50.922 32.5044 50.9155 32.4786C50.9089 32.4527 50.8967 32.4286 50.8797 32.408C50.8627 32.3874 50.8414 32.3709 50.8172 32.3596C50.7931 32.3483 50.7667 32.3425 50.74 32.3426H43.9925C43.9514 32.3428 43.9117 32.3571 43.8799 32.383C43.8481 32.4089 43.826 32.445 43.8175 32.4851L42.175 40.0476C42.1664 40.0877 42.1444 40.1238 42.1126 40.1497C42.0808 40.1756 42.041 40.1899 42 40.1901H38.27C38.2435 40.1899 38.2174 40.1838 38.1936 40.1723C38.1697 40.1609 38.1487 40.1443 38.132 40.1237C38.1152 40.1032 38.1033 40.0792 38.0969 40.0535C38.0905 40.0279 38.0898 40.0011 38.095 39.9751L42.015 20.6326C42.0231 20.5916 42.0453 20.5547 42.0777 20.5282C42.1101 20.5017 42.1507 20.4874 42.1925 20.4876L46.08 20.4826C46.1069 20.4824 46.1336 20.4882 46.158 20.4997C46.1824 20.5111 46.2039 20.5279 46.2209 20.5488C46.2379 20.5697 46.2501 20.5941 46.2564 20.6203C46.2627 20.6465 46.2631 20.6737 46.2575 20.7001L44.74 28.0426C44.7348 28.0686 44.7355 28.0954 44.7419 28.121C44.7483 28.1467 44.7602 28.1707 44.777 28.1912C44.7937 28.2118 44.8147 28.2284 44.8386 28.2398C44.8624 28.2513 44.8885 28.2574 44.915 28.2576Z" fill="#F0B044"/>
<path d="M80.8575 27.4275L80.6975 28.13L79.625 33.275L74.905 36.3425L75.24 34.68C75.2453 34.6542 75.243 34.6275 75.2333 34.603C75.2236 34.5786 75.207 34.5575 75.1855 34.5424C75.164 34.5272 75.1385 34.5187 75.1122 34.5178C75.0859 34.517 75.06 34.5238 75.0375 34.5375L71.935 36.4175C71.8767 36.4525 71.84 36.5042 71.825 36.5725L71.06 40.0325C71.051 40.0744 71.028 40.1121 70.9949 40.1393C70.9618 40.1665 70.9204 40.1818 70.8775 40.1825C69.2592 40.1992 67.6558 40.2 66.0675 40.185C65.35 40.1775 64.375 41.0525 63.68 41.37C63.6683 41.345 63.6275 41.3242 63.5575 41.3075L64.985 40.34C65.1067 40.2583 65.0942 40.2158 64.9475 40.2125C62.3325 40.1592 60.6017 40.1517 59.755 40.19C57.5825 40.2875 56.9475 38.8325 57.2875 36.935C57.6625 34.8583 58.1725 32.2483 58.8175 29.105C59.195 27.265 59.985 26.0825 61.7275 25.485C62.2442 25.3083 63.105 25.2142 64.31 25.2025C66.8183 25.1775 69.3292 25.1825 71.8425 25.2175C73.27 25.2375 74.1725 26.0275 74.16 27.4925C74.1533 28.5025 74.03 29.55 73.79 30.635C73.695 30.905 73.6967 31.0758 73.795 31.1475C73.5433 31.4575 73.4417 31.8533 73.49 32.335C73.4733 32.435 73.4808 32.5383 73.5125 32.645C73.2208 33.2367 73.0617 33.88 73.035 34.575C73.0331 34.6207 73.0221 34.6655 73.0026 34.7068C72.9831 34.7481 72.9555 34.7852 72.9215 34.8157C72.8875 34.8462 72.8477 34.8696 72.8045 34.8845C72.7613 34.8994 72.7156 34.9055 72.67 34.9025C71.645 34.8325 70.6367 34.8492 69.645 34.9525C69.4 34.9792 69.0808 34.9592 68.6875 34.8925C68.4092 34.8458 68.0833 34.8225 67.71 34.8225C69.0783 33.9825 70.3867 33.1467 71.635 32.315C72.0317 32.05 72.3775 31.7383 72.6725 31.38C72.6765 31.3763 72.6788 31.3713 72.6791 31.3659C72.6793 31.3605 72.6774 31.3552 72.6738 31.3512C72.6701 31.3473 72.665 31.3449 72.6596 31.3447C72.6542 31.3444 72.649 31.3463 72.645 31.35L66.895 34.9575L63.7325 34.91C63.6842 34.9091 63.6366 34.8976 63.5932 34.8763C63.5498 34.855 63.5116 34.8245 63.4813 34.7868C63.451 34.7491 63.4294 34.7052 63.4179 34.6583C63.4065 34.6113 63.4055 34.5624 63.415 34.515L64.1375 30.88C64.1455 30.8424 64.1661 30.8087 64.1957 30.7845C64.2253 30.7604 64.2621 30.7473 64.3 30.7475H69.44C69.5038 30.7473 69.5657 30.7261 69.616 30.6872C69.6662 30.6483 69.702 30.5938 69.7175 30.5325C69.9925 29.445 69.24 29.275 68.3625 29.2875C67.3392 29.3025 66.3142 29.3108 65.2875 29.3125C63.8325 29.3125 62.8625 29.55 62.57 31.0625C62.2667 32.6208 61.995 34.1808 61.755 35.7425C61.7496 35.7779 61.7519 35.8141 61.7617 35.8485C61.7716 35.883 61.7887 35.9149 61.8119 35.9422C61.8351 35.9694 61.8639 35.9914 61.8964 36.0065C61.9289 36.0217 61.9642 36.0297 62 36.03L64.7075 36.0725L64.63 36.4075C64.6284 36.4163 64.624 36.4244 64.6172 36.4307C64.6105 36.437 64.6019 36.4411 64.5925 36.4425C64.5642 36.4492 64.5417 36.4592 64.525 36.4725C64.4467 36.5392 64.4608 36.5508 64.5675 36.5075L65.7225 36.0325L71.8375 36.0825C71.9342 36.0825 72.0233 36.0575 72.105 36.0075L75.185 34.12C75.2175 34.0994 75.2455 34.0726 75.2674 34.0413C75.2892 34.0099 75.3046 33.9747 75.3125 33.9375L75.8075 31.3725C75.8825 31.1758 75.8767 31.015 75.79 30.89C76.1183 30.4767 76.2217 30.1175 76.1 29.8125C76.21 29.7525 76.2667 29.525 76.27 29.13L78.0075 20.625C78.0258 20.535 78.0817 20.49 78.175 20.49L81.82 20.48C82.14 20.4783 82.2675 20.6342 82.2025 20.9475L80.8575 27.4275Z" fill="#F0B044"/>
<path d="M88.475 22.8176L88.35 23.4376L87.31 28.2826L82.46 31.4151L83.4575 26.4901L83.59 25.7901L84.6575 20.6051C84.6645 20.5685 84.6841 20.5354 84.7128 20.5117C84.7416 20.488 84.7777 20.475 84.815 20.4751L88.6875 20.4851C88.7062 20.4853 88.7246 20.4894 88.7416 20.4972C88.7585 20.505 88.7735 20.5163 88.7856 20.5303C88.7977 20.5443 88.8066 20.5607 88.8117 20.5783C88.8168 20.596 88.8179 20.6145 88.815 20.6326L88.475 22.8176Z" fill="#F0B044"/>
<path d="M27.29 41.6375C27.265 41.6439 27.2429 41.6588 27.2276 41.6796C27.2122 41.7003 27.2045 41.7258 27.2056 41.7516C27.2068 41.7774 27.2168 41.802 27.234 41.8213C27.2512 41.8406 27.2745 41.8534 27.3 41.8575C28.5033 42.0892 29.6883 42.0075 30.855 41.6125C31.0017 41.5642 31.0267 41.6008 30.93 41.7225C30.1133 42.7525 29.1792 43.415 28.1275 43.71C25.3325 44.4933 22.4708 44.335 19.5425 43.235C19.4542 43.2 19.4558 43.17 19.5475 43.145C21.365 42.62 23.3375 42.0625 24.885 41.14C28.195 39.165 30.725 36.1425 30.9875 32.18C31.0842 30.74 31.17 29.295 31.245 27.845C31.3775 25.3125 32.5225 22.6875 35.1875 22.045C35.3425 22.0083 35.3633 22.045 35.25 22.155C33.3725 24 33.255 25.7925 33.75 28.2975C34.2875 31.0075 34.45 34.0425 33.37 36.545C32.25 39.1417 30.2233 40.8392 27.29 41.6375Z" fill="#E05636"/>
<path d="M88.515 33.6024L91.9425 31.5124C92.0142 31.4691 92.0684 31.4091 92.105 31.3324C92.4134 30.6874 92.9675 30.2532 93.7675 30.0299C93.4642 30.4582 93.3025 30.8982 93.2825 31.3499C93.2775 31.4632 93.3242 31.4907 93.4225 31.4324L96.6775 29.4949C96.6942 29.486 96.7075 29.4717 96.7152 29.4544C96.7229 29.4371 96.7246 29.4177 96.72 29.3993C96.7154 29.3809 96.7048 29.3646 96.6898 29.3529C96.6749 29.3412 96.6565 29.3349 96.6375 29.3349L94.9175 29.2674C96.2642 28.3491 97.5992 27.4866 98.9225 26.6799C98.9692 26.6516 98.9859 26.6249 98.9725 26.5999C98.9509 26.5599 98.9208 26.5516 98.8825 26.5749L91.41 30.9574C91.3417 30.9974 91.3 31.0557 91.285 31.1324C91.14 31.9074 88.9325 32.9674 88.6175 33.1274L89.3325 29.1674L95.5525 25.2074C98.1092 25.2441 100.626 25.2557 103.103 25.2424C103.443 25.2407 103.76 25.1549 104.055 24.9849C105.253 24.2932 106.446 23.5932 107.633 22.8849C107.635 22.8837 107.638 22.8831 107.64 22.8831C107.643 22.8831 107.646 22.8837 107.648 22.8849C107.651 22.8861 107.653 22.8879 107.654 22.89C107.656 22.8922 107.657 22.8947 107.658 22.8974C107.659 22.9024 107.661 22.9066 107.663 22.9099C107.666 22.9149 107.664 22.9199 107.658 22.9249C106.319 23.8049 104.957 24.6449 103.57 25.4449C103.518 25.4749 103.488 25.5199 103.48 25.5799L102.923 29.1449C102.909 29.2332 102.858 29.2774 102.768 29.2774L97.485 29.3124C97.3867 29.3141 97.295 29.3399 97.21 29.3899L93.2 31.8374C93.1804 31.8492 93.1635 31.8654 93.1506 31.8848C93.1376 31.9043 93.1289 31.9265 93.125 31.9499L92.475 35.8774C92.4714 35.9003 92.4728 35.9237 92.479 35.9461C92.4853 35.9684 92.4962 35.9892 92.5111 36.0069C92.5261 36.0247 92.5446 36.0391 92.5656 36.0491C92.5865 36.059 92.6093 36.0644 92.6325 36.0649L100.823 36.0724C100.86 36.0722 100.896 36.0861 100.925 36.1115C100.953 36.1369 100.971 36.1719 100.975 36.2099C101.003 36.5274 101.135 36.8174 101.07 37.1199C100.858 38.1082 100.635 39.0941 100.4 40.0774C100.382 40.1591 100.33 40.1999 100.245 40.1999C95.095 40.2449 91.6184 40.2449 89.815 40.1999C87.9675 40.1524 87.6875 38.0074 87.9325 36.5524C88.0925 35.6074 88.2867 34.6241 88.515 33.6024Z" fill="#EE6A30"/>
<path d="M22.635 35.8275C22.6385 35.803 22.6337 35.778 22.6215 35.7565C22.6094 35.7349 22.5904 35.718 22.5676 35.7083C22.5448 35.6986 22.5195 35.6967 22.4955 35.7029C22.4715 35.7091 22.4503 35.723 22.435 35.7425C21.6083 36.8125 20.55 37.3059 19.26 37.2225C17.76 37.1275 16.9508 36.3034 16.8325 34.75C16.8242 34.655 16.7758 34.6242 16.6875 34.6575C14.6625 35.42 14.155 37.84 14.25 39.7825C14.26 39.9592 14.2167 39.9734 14.12 39.825C11.6233 35.9984 12.185 32.7959 15.805 30.2175C15.8369 30.1956 15.8748 30.1844 15.9135 30.1855C15.9521 30.1866 15.9894 30.1999 16.02 30.2235C16.0506 30.2471 16.0729 30.2799 16.0837 30.317C16.0944 30.3541 16.0932 30.3937 16.08 30.43C15.4025 32.2 16.885 33.49 18.49 32.9025C19.89 32.39 19.2675 31.2225 19.7075 30.215C20.2958 28.87 21.4025 28.2925 23.0275 28.4825C23.1325 28.4942 23.1442 28.5342 23.0625 28.6025C22.2275 29.285 21.2775 30.1475 22.16 31.2925C22.365 31.5592 22.6792 31.7625 23.1025 31.9025C24.3792 32.3242 25.355 31.9984 26.03 30.925C26.65 29.9375 26.4275 28.805 26.89 27.74C27.505 26.32 28.6 25.46 30.175 25.16C30.325 25.13 30.3442 25.1684 30.2325 25.275C28.8975 26.5425 28.165 27.35 28.3825 29.3125C28.92 34.1425 26.48 39.4625 21.6025 41.0075C19.7425 41.5959 17.8775 41.6517 16.0075 41.175C15.9872 41.1705 15.9691 41.159 15.9566 41.1424C15.944 41.1258 15.9378 41.1053 15.939 41.0845C15.9402 41.0637 15.9488 41.0441 15.9632 41.0291C15.9775 41.014 15.9968 41.0046 16.0175 41.0025C19.0525 40.6475 22.13 39.1625 22.635 35.8275Z" fill="#E05636"/>
<path d="M115.535 29.6024C115.558 29.4224 115.48 29.3324 115.3 29.3324L105.87 29.3174C105.798 29.3174 105.753 29.2824 105.733 29.2124C105.603 28.7591 105.553 28.4599 105.585 28.3149C105.805 27.3099 106.033 26.3241 106.27 25.3574C106.28 25.3174 106.303 25.2819 106.335 25.2565C106.367 25.2312 106.407 25.2174 106.448 25.2174C110.251 25.1957 114.059 25.1774 117.873 25.1624C120.128 25.1524 120.405 27.3549 120.08 29.0599C119.603 31.5732 119.104 34.0816 118.583 36.5849C118.403 37.4549 117.9 38.3649 117.783 39.3699C117.776 39.4262 117.747 39.4778 117.704 39.5141C117.66 39.5503 117.604 39.5685 117.548 39.5649C116.988 39.5374 116.563 39.5424 116.008 39.7724C115.384 40.0324 114.798 40.1632 114.25 40.1649C111.457 40.1766 108.664 40.1782 105.873 40.1699C104.631 40.1666 103.813 39.7132 103.42 38.8099C102.725 37.2174 103.605 32.5074 104.983 31.3499C105.606 30.8249 106.342 30.5524 107.19 30.5324C109.368 30.4807 111.397 30.4666 113.275 30.4899C113.853 30.4982 114.082 30.7849 113.96 31.3499L113.28 34.5499C113.26 34.6382 113.204 34.6832 113.113 34.6849C111.779 34.6999 110.454 34.7049 109.138 34.6999C108.485 34.6999 107.703 34.8724 107.668 35.6049C107.664 35.6704 107.675 35.7359 107.698 35.7974C107.721 35.8589 107.756 35.915 107.801 35.9625C107.847 36.0099 107.901 36.0477 107.962 36.0734C108.022 36.0992 108.087 36.1125 108.153 36.1124C109.549 36.1141 110.902 36.1074 112.21 36.0924C113.63 36.0774 114.363 35.7799 114.683 34.3699C115.053 32.7399 115.337 31.1507 115.535 29.6024Z" fill="#EE6A30"/>
<path d="M126.61 29.1124C125.565 29.9424 126.52 30.6649 127.44 30.6574C130.767 30.6291 133.057 30.6408 134.312 30.6924C138.195 30.8524 136.802 35.6874 135.92 37.7399C135.29 39.2074 133.897 39.5424 132.295 39.5524C128.322 39.5724 124.347 39.5724 120.37 39.5524C120.29 39.5524 120.258 39.5124 120.275 39.4324L120.952 36.2549C120.971 36.1716 121.022 36.1299 121.107 36.1299C124.559 36.1249 128.002 36.1241 131.435 36.1274C132.34 36.1274 133.398 35.4999 132.708 34.4324C132.586 34.2441 132.35 34.1491 132 34.1474C129.69 34.1358 127.379 34.1283 125.067 34.1249C123.669 34.1233 122.729 33.5449 122.247 32.3899C121.73 31.1449 122.273 29.6099 122.605 28.2224C122.913 26.9291 123.557 26.0491 124.537 25.5824C125.061 25.3341 126.052 25.2108 127.51 25.2124C131.23 25.2191 134.948 25.2208 138.665 25.2174C138.78 25.2174 138.825 25.2733 138.8 25.3849L138.09 28.5124C138.068 28.6074 138.009 28.6549 137.913 28.6549C134.623 28.6583 131.34 28.6591 128.065 28.6574C127.477 28.6574 126.992 28.8091 126.61 29.1124Z" fill="#EE6A30"/>
<path d="M151.09 30.6174C151.298 29.5724 151.398 28.6824 150 28.6824C148.843 28.6841 147.685 28.6857 146.525 28.6874C144.995 28.6874 144.275 29.0574 143.968 30.5674C143.619 32.2841 143.328 33.9566 143.095 35.5849C143.086 35.6438 143.091 35.7038 143.107 35.761C143.124 35.8181 143.153 35.871 143.192 35.9161C143.23 35.9611 143.279 35.9973 143.333 36.0221C143.387 36.0469 143.446 36.0598 143.505 36.0599L153.075 36.0749C153.091 36.0749 153.106 36.0784 153.12 36.0852C153.135 36.092 153.147 36.1019 153.157 36.1141C153.167 36.1263 153.174 36.1406 153.177 36.1559C153.181 36.1712 153.181 36.1871 153.178 36.2024L152.435 39.4374C152.427 39.4744 152.405 39.5074 152.375 39.531C152.344 39.5546 152.307 39.5675 152.268 39.5674C148.838 39.5607 145.407 39.5616 141.975 39.5699C140.825 39.5732 140.058 39.4857 139.675 39.3074C138.34 38.6899 138.565 37.2699 138.84 35.9249C139.268 33.8332 139.68 31.7374 140.075 29.6374C140.285 28.5241 140.552 27.7124 140.875 27.2024C141.683 25.9274 142.914 25.2624 144.568 25.2074C145.649 25.1724 148.121 25.1724 151.983 25.2074C154.268 25.2274 155.995 25.4949 155.475 28.3099C154.985 30.9599 154.607 32.9016 154.34 34.1349C154.332 34.1699 154.313 34.201 154.285 34.2233C154.257 34.2456 154.223 34.2576 154.188 34.2574L144.993 34.2624C144.971 34.2626 144.95 34.2579 144.931 34.2487C144.912 34.2395 144.895 34.226 144.881 34.2092C144.868 34.1924 144.858 34.1727 144.853 34.1517C144.848 34.1306 144.848 34.1086 144.853 34.0874L145.535 30.8674C145.553 30.7857 145.604 30.7449 145.688 30.7449L150.933 30.7474C150.97 30.7475 151.006 30.7345 151.035 30.7108C151.063 30.6871 151.083 30.654 151.09 30.6174Z" fill="#EE6A30"/>
<path d="M83.59 25.79L83.4575 26.49L80.6975 28.13L80.8575 27.4275L83.59 25.79Z" fill="white"/>
<path d="M94.9175 29.2674L93.7675 30.0299C92.9675 30.2532 92.4133 30.6874 92.105 31.3324C92.0683 31.4091 92.0142 31.4691 91.9425 31.5124L88.515 33.6024L85.8225 35.2124C85.7258 35.2724 85.6192 35.2991 85.5025 35.2924C85.4508 35.2891 85.4442 35.2699 85.4825 35.2349L85.94 34.7974L88.6175 33.1274C88.9325 32.9674 91.14 31.9074 91.285 31.1324C91.3 31.0557 91.3417 30.9974 91.41 30.9574L98.8825 26.5749C98.9208 26.5516 98.9508 26.5599 98.9725 26.5999C98.9858 26.6249 98.9692 26.6516 98.9225 26.6799C97.5992 27.4866 96.2642 28.3491 94.9175 29.2674Z" fill="white"/>
<path d="M76.27 29.1299C76.2667 29.5249 76.21 29.7524 76.1 29.8124L73.795 31.1474C73.6967 31.0757 73.695 30.9049 73.79 30.6349L76.27 29.1299Z" fill="white"/>
<path d="M86.76 30.7876L85.94 34.7976L85.4825 35.2351C85.4442 35.2701 85.4508 35.2893 85.5025 35.2926C85.6192 35.2993 85.7258 35.2726 85.8225 35.2126L84.79 40.0901C84.7717 40.1818 84.715 40.2234 84.62 40.2151C84.02 40.1518 83.435 40.1551 82.865 40.2251C82.435 40.2784 81.9958 40.4434 81.5475 40.7201C79.4608 42.0068 77.3608 43.2626 75.2475 44.4876C75.2175 44.5059 75.195 44.5001 75.18 44.4701C75.1772 44.4634 75.1769 44.4559 75.1792 44.449C75.1815 44.4421 75.1862 44.4363 75.1925 44.4326L81.79 40.3476C81.8054 40.3372 81.8171 40.3221 81.8234 40.3046C81.8297 40.2871 81.8302 40.268 81.8249 40.2502C81.8196 40.2323 81.8088 40.2167 81.794 40.2054C81.7791 40.1941 81.7611 40.1879 81.7425 40.1876H80.9425C80.8608 40.1876 80.8217 40.1476 80.825 40.0676C80.84 39.5809 80.865 39.2559 80.9 39.0926C81.2717 37.3959 81.6258 35.6501 81.9625 33.8551L86.76 30.7876Z" fill="#EE6A30"/>
<path d="M75.79 30.8899C75.8767 31.0149 75.8825 31.1757 75.8075 31.3724L73.5125 32.6449C73.4808 32.5382 73.4733 32.4349 73.49 32.3349L75.79 30.8899Z" fill="white"/>
<path d="M67.71 34.8226L65.7225 36.0326L64.5675 36.5076C64.4608 36.5509 64.4466 36.5392 64.525 36.4726C64.5416 36.4592 64.5641 36.4492 64.5925 36.4426C64.6018 36.4412 64.6105 36.4371 64.6172 36.4308C64.6239 36.4245 64.6284 36.4164 64.63 36.4076L64.7075 36.0726C65.385 36.1051 66.32 35.2851 66.895 34.9576L72.645 31.3501C72.6489 31.3464 72.6542 31.3445 72.6596 31.3447C72.665 31.345 72.6701 31.3473 72.6737 31.3513C72.6774 31.3553 72.6793 31.3606 72.679 31.366C72.6788 31.3714 72.6765 31.3764 72.6725 31.3801C72.3775 31.7384 72.0316 32.0501 71.635 32.3151C70.3866 33.1467 69.0783 33.9826 67.71 34.8226Z" fill="white"/>
<path d="M93.6421 34.9996C93.8754 34.8493 94.0523 34.7086 94.0374 34.6854C94.0224 34.6621 93.8212 34.7652 93.5879 34.9155C93.3546 35.0659 93.1777 35.2066 93.1926 35.2298C93.2076 35.253 93.4088 35.1499 93.6421 34.9996Z" fill="#EE6A30"/>
<path d="M79.11 35.6899L78.6375 37.7474L77.0325 37.1499C77.0165 37.1436 77.0025 37.1331 76.992 37.1194C76.9816 37.1058 76.9751 37.0896 76.9732 37.0727C76.9714 37.0558 76.9744 37.0389 76.9817 37.0238C76.9891 37.0088 77.0007 36.9962 77.015 36.9874L79.11 35.6899Z" fill="#EE6A30"/>
<path d="M74.56 37.8149L76.265 38.5174C76.3783 38.5641 76.3858 38.6233 76.2875 38.6949L74.255 40.1849C74.2183 39.3783 74.32 38.5883 74.56 37.8149Z" fill="#F0B044"/>
<path d="M78.35 39.1475L78.1675 40.0375C78.1492 40.1308 78.0925 40.1758 77.9975 40.1725L76.4825 40.1425L78.35 39.1475Z" fill="#EE6A30"/>
<path d="M63.5575 41.3076C63.6275 41.3243 63.6683 41.3451 63.68 41.3701L60.6375 43.1901C60.6342 43.1935 60.6308 43.1943 60.6275 43.1926C60.6108 43.1826 60.5917 43.171 60.57 43.1576C60.5674 43.1561 60.5653 43.1539 60.5638 43.1512C60.5623 43.1486 60.5615 43.1456 60.5615 43.1426C60.5615 43.1396 60.5623 43.1366 60.5638 43.134C60.5653 43.1314 60.5674 43.1292 60.57 43.1276L63.5575 41.3076Z" fill="white"/>
</svg>
