<svg width="166" height="58" viewBox="0 0 166 58" fill="none" xmlns="http://www.w3.org/2000/svg">
<path d="M21.405 13.755L20.3725 11.9675C20.3258 11.8858 20.345 11.825 20.43 11.785C23.545 10.3383 26.8208 9.77414 30.2575 10.0925C30.3625 10.1025 30.4017 10.1575 30.375 10.2575L29.845 12.285C29.8233 12.3666 29.7692 12.405 29.6825 12.4C26.8708 12.2133 24.1808 12.6875 21.6125 13.8225C21.5225 13.8608 21.4533 13.8383 21.405 13.755Z" fill="#DDB43F"/>
<path d="M41.1075 18.1375C39.015 15.755 36.7775 14.43 33.8725 13.2225C33.7942 13.1892 33.7658 13.1317 33.7875 13.05L34.3175 11.07C34.3408 10.98 34.3967 10.95 34.485 10.98C37.9383 12.1517 40.8283 14.1358 43.155 16.9325C43.2233 17.0142 43.2117 17.0817 43.12 17.135L41.305 18.17C41.23 18.2133 41.1642 18.2025 41.1075 18.1375Z" fill="#DDB43F"/>
<path d="M10.8975 21.6926C12.2042 18.6426 14.155 16.0859 16.75 14.0226C16.8267 13.9609 16.8908 13.9734 16.9425 14.0601L17.9925 15.8701C18.012 15.9045 18.0187 15.9448 18.0114 15.9837C18.0041 16.0226 17.9832 16.0576 17.9525 16.0826C15.8692 17.7826 14.2817 19.8626 13.19 22.3226C13.15 22.4109 13.0833 22.4434 12.99 22.4201L10.9975 21.8976C10.8842 21.8676 10.8508 21.7993 10.8975 21.6926Z" fill="#DDB43F"/>
<path d="M43.155 28.9876C43.155 32.875 41.6107 36.6032 38.8619 39.352C36.1131 42.1008 32.3849 43.6451 28.4975 43.6451C24.6101 43.6451 20.8819 42.1008 18.1331 39.352C15.3843 36.6032 13.84 32.875 13.84 28.9876C13.84 25.1002 15.3843 21.372 18.1331 18.6232C20.8819 15.8743 24.6101 14.3301 28.4975 14.3301C32.3849 14.3301 36.1131 15.8743 38.8619 18.6232C41.6107 21.372 43.155 25.1002 43.155 28.9876ZM18.0075 24.2326C20.7825 23.8776 24.13 24.3151 26.2975 26.2051C26.3542 26.2551 26.4167 26.2626 26.485 26.2276L27.1875 25.8651C27.2542 25.8301 27.2883 25.7742 27.29 25.6976C27.3383 23.5709 28.0117 21.6801 29.31 20.0251C29.6 19.6576 30.0875 19.6276 30.3625 19.9676C31.6675 21.5626 32.0367 23.3742 31.47 25.4026C31.4608 25.4357 31.4587 25.4703 31.4638 25.5043C31.469 25.5383 31.4813 25.5707 31.5 25.5996C31.5187 25.6284 31.5433 25.653 31.5722 25.6716C31.601 25.6902 31.6335 25.7025 31.6675 25.7076C32.2725 25.7926 32.6983 26.1009 32.945 26.6326C32.9833 26.7126 33.0425 26.7692 33.1225 26.8026C34.295 27.2801 33.67 28.5951 34.62 28.8251C35.545 29.0467 36.4642 29.3026 37.3775 29.5926C37.4575 29.6176 37.5383 29.6217 37.62 29.6051C38.09 29.5084 38.5525 29.5367 39.0075 29.6901C39.0942 29.7201 39.1558 29.7767 39.1925 29.8601C39.3125 30.1401 39.3275 30.4592 39.2375 30.8176C38.8925 32.1809 38.1058 33.1559 36.8775 33.7426C36.7961 33.7817 36.7288 33.8455 36.685 33.9251C35.7633 35.5767 34.3375 36.2442 32.4075 35.9276C32.2675 35.9042 32.2167 35.9617 32.255 36.1001L33.465 40.2901C33.4725 40.3161 33.4857 40.3401 33.5037 40.3603C33.5218 40.3805 33.5442 40.3965 33.5693 40.407C33.5944 40.4175 33.6217 40.4224 33.649 40.4212C33.6764 40.42 33.7032 40.4128 33.7275 40.4001C39.315 37.4376 42.3175 31.5026 40.4225 25.3726C38.79 20.0851 33.725 16.2726 28.1175 16.5251C20.88 16.8501 15.4925 22.7176 16.05 29.9451C16.3633 33.9917 18.1842 37.1509 21.5125 39.4226C23.8242 41.0026 26.4383 41.6567 29.355 41.3851C29.4283 41.3784 29.4617 41.3384 29.455 41.2651C29.265 39.5026 28.8875 37.2276 27.8575 35.7451C27.02 34.5426 25.435 34.7851 24.42 33.9026C23.01 32.6776 23.5475 30.6201 24.085 29.1051C24.115 29.0167 24.0842 28.9684 23.9925 28.9601C23.5542 28.9134 23.1217 28.8642 22.695 28.8126C20.4175 28.5401 17.8225 26.9651 17.875 24.3776C17.8783 24.2926 17.9225 24.2442 18.0075 24.2326Z" fill="#DDB43F"/>
<path d="M45.4675 20.5275C47.1642 23.9809 47.7783 27.6309 47.31 31.4775C47.3076 31.4935 47.302 31.5088 47.2934 31.5224C47.2849 31.536 47.2737 31.5477 47.2605 31.5567C47.2473 31.5656 47.2324 31.5717 47.2168 31.5744C47.2012 31.5771 47.1853 31.5765 47.17 31.5725L45.155 31.0325C45.0533 31.0059 45.0083 30.94 45.02 30.835C45.3567 27.6417 44.8333 24.6067 43.45 21.73C43.415 21.6584 43.4325 21.6017 43.5025 21.56L45.3525 20.4925C45.4025 20.4625 45.4408 20.4742 45.4675 20.5275Z" fill="#DDB43F"/>
<path d="M90.1716 28.7232C90.2076 29.5823 90.0693 30.4402 89.7645 31.2481C89.4597 32.0559 88.9945 32.7978 88.3953 33.4315C87.7961 34.0651 87.0748 34.578 86.2725 34.941C85.4701 35.304 84.6025 35.5098 83.7192 35.5469C81.9352 35.6216 80.1954 35.0041 78.8825 33.8302C77.5696 32.6562 76.7911 31.022 76.7184 29.287C76.6824 28.428 76.8207 27.57 77.1255 26.7621C77.4303 25.9543 77.8956 25.2124 78.4947 24.5787C79.0939 23.9451 79.8152 23.4322 80.6176 23.0692C81.4199 22.7062 82.2875 22.5004 83.1708 22.4634C84.9548 22.3886 86.6947 23.0061 88.0076 24.18C89.3205 25.354 90.0989 26.9882 90.1716 28.7232ZM83.6994 32.9568C84.711 32.8914 85.6542 32.4102 86.3214 31.6191C86.9886 30.828 87.3252 29.7918 87.257 28.7384C87.2233 28.2169 87.0912 27.7068 86.8684 27.2373C86.6455 26.7678 86.3362 26.3482 85.9582 26.0023C85.5801 25.6564 85.1407 25.391 84.665 25.2213C84.1893 25.0517 83.6866 24.981 83.1857 25.0134C82.174 25.0788 81.2308 25.56 80.5636 26.3511C79.8964 27.1422 79.5599 28.1784 79.628 29.2318C79.6617 29.7534 79.7938 30.2634 80.0166 30.7329C80.2395 31.2024 80.5488 31.622 80.9269 31.9679C81.3049 32.3138 81.7443 32.5792 82.2201 32.7489C82.6958 32.9185 83.1984 32.9892 83.6994 32.9568Z" fill="#DDB43F"/>
<path d="M108.987 28.7374C109.057 30.4725 108.415 32.165 107.203 33.4426C105.991 34.7201 104.309 35.4781 102.525 35.5497C101.642 35.5852 100.761 35.4511 99.9319 35.1551C99.1028 34.8591 98.3421 34.407 97.6933 33.8245C97.0445 33.2421 96.5202 32.5408 96.1503 31.7606C95.7805 30.9805 95.5724 30.1367 95.5379 29.2776C95.4682 27.5425 96.1099 25.85 97.3217 24.5724C98.5335 23.2949 100.216 22.5369 102 22.4653C102.883 22.4298 103.764 22.5639 104.593 22.8599C105.422 23.1559 106.183 23.6081 106.832 24.1905C107.481 24.7729 108.005 25.4742 108.375 26.2544C108.744 27.0346 108.953 27.8783 108.987 28.7374ZM102.557 32.9577C103.569 32.8781 104.506 32.3835 105.162 31.5827C105.819 30.7818 106.141 29.7404 106.058 28.6874C106.017 28.166 105.878 27.6575 105.648 27.1909C105.419 26.7243 105.103 26.3087 104.72 25.9679C104.337 25.6271 103.894 25.3678 103.416 25.2047C102.937 25.0415 102.433 24.9779 101.933 25.0173C100.921 25.0969 99.9842 25.5915 99.3277 26.3924C98.6712 27.1932 98.3489 28.2347 98.4318 29.2876C98.4728 29.809 98.6121 30.3175 98.8416 30.7841C99.0712 31.2507 99.3865 31.6663 99.7696 32.0071C100.153 32.3479 100.596 32.6073 101.074 32.7704C101.553 32.9335 102.057 32.9972 102.557 32.9577Z" fill="#DDB43F"/>
<path d="M68.685 30.9425L71.5825 35.165C71.6508 35.2667 71.6242 35.3175 71.5025 35.3175H68.61C68.5017 35.3175 68.4175 35.2725 68.3575 35.1825L65.8 31.4075C65.7763 31.3716 65.7438 31.3422 65.7053 31.3221C65.6668 31.302 65.6237 31.2918 65.58 31.2925L63.6925 31.2975C63.6042 31.2992 63.56 31.3442 63.56 31.4325V35.1925C63.56 35.2759 63.5175 35.3175 63.4325 35.3175H60.935C60.8467 35.3175 60.8025 35.2734 60.8025 35.185V22.82C60.8025 22.7467 60.84 22.7092 60.915 22.7075C62.8917 22.6975 64.8558 22.7009 66.8075 22.7175C68.725 22.735 70.4 23.51 71.065 25.3825C71.825 27.5175 70.9275 29.895 68.74 30.76C68.645 30.7967 68.6267 30.8575 68.685 30.9425ZM63.555 25.2625L63.56 28.7625C63.56 28.7811 63.5674 28.7989 63.5805 28.812C63.5936 28.8252 63.6114 28.8325 63.63 28.8325L66.535 28.8275C66.7926 28.8271 67.0476 28.7817 67.2854 28.6938C67.5232 28.6058 67.7392 28.4772 67.921 28.3151C68.1028 28.153 68.2469 27.9607 68.3449 27.7493C68.443 27.5378 68.4931 27.3112 68.4925 27.0825V26.9225C68.4912 26.4614 68.2838 26.0197 67.9158 25.6944C67.5479 25.369 67.0494 25.1867 66.53 25.1875L63.625 25.1925C63.6064 25.1925 63.5886 25.1999 63.5755 25.213C63.5624 25.2262 63.555 25.244 63.555 25.2625Z" fill="#DDB43F"/>
<path d="M123.457 28.825C124.896 29.3916 125.618 30.3891 125.625 31.8175C125.637 34.4475 123.28 35.3625 121.062 35.365C119.056 35.3683 117.048 35.3641 115.04 35.3525C114.968 35.3525 114.932 35.3166 114.932 35.245V22.8175C114.933 22.7907 114.943 22.765 114.962 22.7459C114.982 22.7267 115.008 22.7156 115.035 22.715C117.058 22.6966 119.066 22.69 121.057 22.695C122.867 22.6975 124.575 23.6325 124.887 25.525C125.094 26.7816 124.611 27.8316 123.437 28.675C123.352 28.7366 123.359 28.7866 123.457 28.825ZM117.632 25.1825L117.617 27.6525C117.617 27.6757 117.627 27.6979 117.643 27.7143C117.66 27.7307 117.682 27.74 117.705 27.74L120.66 27.7575C120.859 27.7586 121.057 27.7271 121.242 27.6648C121.426 27.6024 121.594 27.5105 121.736 27.3942C121.877 27.2778 121.99 27.1394 122.067 26.9869C122.144 26.8343 122.184 26.6705 122.185 26.505V26.38C122.187 26.046 122.028 25.7249 121.745 25.4872C121.462 25.2496 121.077 25.1148 120.675 25.1125L117.72 25.095C117.697 25.095 117.675 25.1042 117.658 25.1206C117.642 25.137 117.632 25.1593 117.632 25.1825ZM117.622 30.23L117.617 32.715C117.617 32.7614 117.636 32.8059 117.669 32.8387C117.702 32.8715 117.746 32.89 117.792 32.89L121.025 32.8975C121.271 32.8979 121.515 32.8644 121.742 32.799C121.969 32.7335 122.176 32.6373 122.35 32.5159C122.524 32.3944 122.663 32.2502 122.757 32.0913C122.851 31.9324 122.9 31.7621 122.9 31.59V31.375C122.9 31.0277 122.704 30.6944 122.353 30.4482C122.002 30.2021 121.526 30.0634 121.03 30.0625L117.797 30.055C117.775 30.055 117.752 30.0595 117.731 30.0683C117.709 30.0771 117.69 30.09 117.674 30.1062C117.658 30.1225 117.645 30.1418 117.636 30.163C117.627 30.1842 117.622 30.207 117.622 30.23Z" fill="#DDB43F"/>
<path d="M134.245 27.7401H140.042C140.053 27.7401 140.064 27.7422 140.074 27.7464C140.084 27.7505 140.093 27.7566 140.101 27.7642C140.108 27.7719 140.115 27.781 140.119 27.791C140.123 27.801 140.125 27.8117 140.125 27.8226V30.0901C140.125 30.1009 140.123 30.1116 140.119 30.1216C140.115 30.1317 140.108 30.1408 140.101 30.1484C140.093 30.1561 140.084 30.1622 140.074 30.1663C140.064 30.1704 140.053 30.1726 140.042 30.1726L134.247 30.1776C134.237 30.1776 134.226 30.1797 134.216 30.1839C134.206 30.188 134.197 30.1941 134.189 30.2017C134.181 30.2094 134.175 30.2185 134.171 30.2285C134.167 30.2385 134.165 30.2492 134.165 30.2601V32.7301C134.165 32.7409 134.167 32.7516 134.171 32.7616C134.175 32.7717 134.181 32.7808 134.189 32.7884C134.197 32.7961 134.206 32.8022 134.216 32.8063C134.226 32.8104 134.237 32.8126 134.247 32.8126H140.93C140.952 32.8126 140.973 32.8213 140.988 32.8367C141.004 32.8522 141.012 32.8732 141.012 32.8951V35.1726C141.012 35.1945 141.004 35.2154 140.988 35.2309C140.973 35.2464 140.952 35.2551 140.93 35.2551H131.51C131.499 35.2551 131.488 35.2529 131.478 35.2488C131.468 35.2447 131.459 35.2386 131.452 35.2309C131.444 35.2233 131.438 35.2142 131.434 35.2041C131.43 35.1941 131.427 35.1834 131.427 35.1726L131.432 22.7876C131.432 22.7657 131.441 22.7447 131.457 22.7292C131.472 22.7138 131.493 22.7051 131.515 22.7051H140.85C140.872 22.7051 140.893 22.7138 140.908 22.7292C140.924 22.7447 140.932 22.7657 140.932 22.7876L140.927 25.0676C140.927 25.0895 140.919 25.1104 140.903 25.1259C140.888 25.1414 140.867 25.1501 140.845 25.1501L134.247 25.1526C134.237 25.1526 134.226 25.1547 134.216 25.1589C134.206 25.163 134.197 25.1691 134.189 25.1767C134.181 25.1844 134.175 25.1935 134.171 25.2035C134.167 25.2135 134.165 25.2242 134.165 25.2351L134.162 27.6576C134.162 27.6684 134.165 27.6791 134.169 27.6891C134.173 27.6992 134.179 27.7083 134.187 27.7159C134.194 27.7236 134.203 27.7297 134.213 27.7338C134.223 27.7379 134.234 27.7401 134.245 27.7401Z" fill="#DDB43F"/>
<path d="M152.735 25.34V35.2275C152.735 35.2386 152.733 35.2497 152.729 35.26C152.724 35.2703 152.718 35.2797 152.71 35.2876C152.702 35.2955 152.693 35.3017 152.683 35.306C152.672 35.3103 152.661 35.3125 152.65 35.3125H150.027C150.005 35.3125 149.983 35.3035 149.967 35.2876C149.951 35.2716 149.942 35.25 149.942 35.2275V25.3425C149.942 25.3199 149.934 25.2983 149.918 25.2824C149.902 25.2664 149.88 25.2575 149.857 25.2575H146.195C146.172 25.2575 146.151 25.2485 146.135 25.2326C146.119 25.2166 146.11 25.195 146.11 25.1725L146.107 22.815C146.107 22.8038 146.11 22.7928 146.114 22.7825C146.118 22.7721 146.124 22.7628 146.132 22.7549C146.14 22.747 146.15 22.7407 146.16 22.7365C146.17 22.7322 146.181 22.73 146.192 22.73L156.427 22.7325C156.45 22.7325 156.472 22.7414 156.488 22.7574C156.504 22.7733 156.512 22.7949 156.512 22.8175L156.522 25.1725C156.522 25.1836 156.52 25.1947 156.516 25.205C156.512 25.2153 156.505 25.2247 156.498 25.2326C156.49 25.2405 156.48 25.2467 156.47 25.251C156.46 25.2553 156.449 25.2575 156.437 25.2575L152.82 25.255C152.797 25.255 152.776 25.2639 152.76 25.2799C152.744 25.2958 152.735 25.3174 152.735 25.34Z" fill="#DDB43F"/>
<path d="M10.645 35.6349C9.48667 32.4583 9.17917 29.1974 9.72251 25.8524C9.73751 25.7608 9.79084 25.7274 9.88251 25.7524L11.8825 26.2899C11.9196 26.2999 11.9517 26.3234 11.9725 26.3557C11.9933 26.3881 12.0013 26.427 11.995 26.4649C11.575 29.2149 11.8258 31.8983 12.7475 34.5149C12.7758 34.5966 12.7525 34.6591 12.6775 34.7024L10.915 35.7299C10.7867 35.8049 10.6967 35.7733 10.645 35.6349Z" fill="#DDB43F"/>
<path d="M43.9625 35.0801C43.9827 35.0288 44.0213 34.9868 44.0707 34.9623C44.1202 34.9378 44.1769 34.9326 44.23 34.9476L46.1675 35.4826C46.1849 35.4873 46.2011 35.4956 46.2151 35.507C46.2291 35.5184 46.2406 35.5327 46.2488 35.5489C46.257 35.5651 46.2618 35.5829 46.2629 35.6012C46.264 35.6195 46.2613 35.6378 46.255 35.6551C44.8733 39.3318 42.5767 42.2984 39.365 44.5551C39.2833 44.6134 39.2175 44.5993 39.1675 44.5126L38.15 42.7301C38.1 42.6418 38.1158 42.5676 38.1975 42.5076C40.8342 40.5893 42.7558 38.1134 43.9625 35.0801Z" fill="#DDB43F"/>
<path d="M21.26 44.0149C21.281 44.0253 21.2977 44.0424 21.3073 44.0634C21.3169 44.0844 21.3187 44.108 21.3125 44.1299L20.77 46.1899C20.7433 46.2932 20.6808 46.3224 20.5825 46.2774C17.3292 44.7674 14.6967 42.5282 12.685 39.5599C12.6233 39.4716 12.6392 39.3999 12.7325 39.3449L14.48 38.2974C14.5633 38.2474 14.6333 38.2624 14.69 38.3424C16.385 40.8074 18.575 42.6982 21.26 44.0149Z" fill="#DDB43F"/>
<path d="M34.3875 44.5549C34.4792 44.5199 34.55 44.5457 34.6 44.6324L35.6425 46.4174C35.6925 46.5041 35.6717 46.5649 35.58 46.5999C32.055 48.0049 28.4233 48.3457 24.685 47.6224C24.5817 47.6024 24.5433 47.5416 24.57 47.4399L25.0925 45.4649C25.1192 45.3632 25.1842 45.3224 25.2875 45.3424C28.4008 45.9191 31.4342 45.6566 34.3875 44.5549Z" fill="#DDB43F"/>
</svg>
