<svg width="166" height="58" viewBox="0 0 166 58" fill="none" xmlns="http://www.w3.org/2000/svg">
<path d="M103.62 45.18C103.488 45.1517 103.571 44.9892 103.868 44.6925C104.154 44.4075 104.431 44.2359 104.698 44.1775C104.702 44.1765 104.707 44.1744 104.71 44.1714C104.714 44.1684 104.717 44.1647 104.719 44.1604C104.722 44.156 104.723 44.1513 104.723 44.1465C104.723 44.1417 104.722 44.1369 104.72 44.1325C104.71 44.1092 104.697 44.09 104.68 44.075C104.605 44.0067 104.617 43.9917 104.715 44.03C104.74 44.0384 104.765 44.0459 104.79 44.0525C104.843 44.0692 104.888 44.0567 104.925 44.015C105.317 43.5784 105.777 43.3034 106.305 43.19C106.592 43.1284 106.832 43.0092 107.027 42.8325C107.082 42.7809 107.148 42.755 107.225 42.755L110.62 42.7075" stroke="#6294F7" stroke-width="2"/>
<path d="M110.62 42.7076H114.3C114.382 42.7076 114.462 42.7368 114.525 42.7901C115.805 43.9051 117.092 45.0134 118.385 46.1151C118.808 46.4768 119.181 46.6293 119.502 46.5726C125.836 45.4643 132.187 44.3476 138.557 43.2226C138.778 43.1839 138.982 43.0778 139.14 42.9189C139.298 42.76 139.403 42.5561 139.44 42.3351C140.307 37.1768 141.155 31.9643 141.985 26.6976C142.23 25.1351 142.132 24.1876 141.127 23.0651C137.989 19.5651 134.856 16.0609 131.727 12.5526C130.262 10.9101 128.842 11.6001 127.035 12.0326" stroke="#3F3E79" stroke-width="2"/>
<path d="M127.035 12.0325C127.408 11.5925 127.424 11.0733 127.082 10.475C127.039 10.4 126.974 10.3575 126.887 10.3475C126.687 10.3242 126.523 10.3992 126.393 10.5725C126.359 10.6174 126.309 10.6477 126.253 10.6575L125.495 10.7825C125.452 10.7898 125.408 10.7831 125.369 10.7633C125.33 10.7435 125.298 10.7117 125.277 10.6725L124.935 10" stroke="#7385F3" stroke-width="2"/>
<path d="M110.62 42.7074L69.615 42.7024" stroke="#245780" stroke-width="2"/>
<path d="M69.615 42.7024C56.035 42.6974 42.455 42.7049 28.875 42.7249C26.26 42.7299 24.0175 40.7024 23.895 38.1124C23.8683 37.5358 24.0675 36.4758 24.4925 34.9324C25.7758 30.2758 27.0592 25.6208 28.3425 20.9674C29.1008 18.2224 30.6825 16.4716 33.0875 15.7149C33.8292 15.4833 34.9508 15.3683 36.4525 15.3699C46.6758 15.3866 56.8975 15.3858 67.1175 15.3674" stroke="#0B6B81" stroke-width="2"/>
<path d="M67.1175 15.3674L95.8875 15.3699" stroke="#245780" stroke-width="2"/>
<path d="M127.035 12.0325C122.928 13.0658 118.811 14.1158 114.683 15.1825C114.196 15.3075 113.885 15.37 113.75 15.37C107.793 15.38 101.839 15.38 95.8875 15.37" stroke="#35487C" stroke-width="2"/>
<path d="M95.8875 15.3701C95.6192 15.2767 95.3167 15.2517 94.98 15.2951C94.8967 15.3051 94.8542 15.2684 94.8525 15.1851C94.8408 14.7334 94.6208 14.4917 94.1925 14.4601C94.135 14.4557 94.0801 14.4343 94.0351 14.3987C93.9901 14.363 93.9569 14.3147 93.94 14.2601C93.825 13.8967 93.8467 13.5409 94.005 13.1926C94.045 13.1026 94.1142 13.0659 94.2125 13.0826C94.5225 13.1392 94.7283 13.0901 94.83 12.9351" stroke="#579DFA" stroke-width="2"/>
<path d="M66.805 12.9351C66.7833 13.0234 66.8425 13.0701 66.9825 13.0751C67.0592 13.0767 67.0842 13.1142 67.0575 13.1876C67.0225 13.2792 66.9633 13.3192 66.88 13.3076C66.8453 13.3035 66.8102 13.3105 66.7796 13.3274C66.749 13.3444 66.7245 13.3705 66.7098 13.402C66.695 13.4334 66.6907 13.4686 66.6975 13.5024C66.7043 13.5362 66.7218 13.5669 66.7475 13.5901C67.1408 13.9551 67.3058 14.3876 67.2425 14.8876C67.2342 14.9526 67.1975 14.9934 67.1325 15.0101L66.995 15.0451C66.8433 15.0834 66.8425 15.1276 66.9925 15.1776L67.2475 15.2601C67.2792 15.2717 67.2783 15.2809 67.245 15.2876C67.1767 15.3009 67.1342 15.3276 67.1175 15.3676" stroke="#2EC0FE" stroke-width="2"/>
<path d="M69.615 42.7024L70.67 42.7599C70.6923 42.7605 70.7136 42.769 70.7303 42.7838C70.747 42.7986 70.7579 42.8188 70.7612 42.8409C70.7644 42.8629 70.7599 42.8854 70.7482 42.9045C70.7366 42.9235 70.7186 42.9378 70.6975 42.9449L70.2475 43.0999C70.2293 43.1063 70.2133 43.1179 70.2017 43.1333C70.1901 43.1487 70.1833 43.1673 70.1823 43.1865C70.1812 43.2058 70.1859 43.225 70.1957 43.2416C70.2055 43.2582 70.2201 43.2716 70.2375 43.2799C70.4742 43.3866 70.5958 43.5882 70.6025 43.8849C70.6042 43.9699 70.5933 44.0532 70.57 44.1349C70.505 44.3682 70.4642 44.6057 70.4475 44.8474C70.4408 44.9291 70.3967 44.9699 70.315 44.9699H70.1275C70.1084 44.9694 70.0898 44.9754 70.0748 44.987C70.0597 44.9986 70.049 45.015 70.0444 45.0337C70.0398 45.0524 70.0416 45.0722 70.0494 45.0901C70.0572 45.108 70.0706 45.1229 70.0875 45.1324C70.1392 45.1591 70.2117 45.1741 70.305 45.1774" stroke="#2EC0FE" stroke-width="2"/>
<path d="M110.762 33.3125C113.754 36.3675 116.664 39.3283 119.493 42.195C119.941 42.6483 120.463 42.8275 121.06 42.7325C124.447 42.1925 128.939 41.4192 134.538 40.4125" stroke="#6B6C6F" stroke-width="2"/>
<path d="M134.538 40.4125C135.138 40.2192 135.49 39.8534 135.595 39.315C136.413 35.105 137.238 30.895 138.068 26.685C138.183 26.1034 138.109 25.655 137.848 25.34C135.293 22.2825 132.603 19.305 130.158 16.1625C129.799 15.7042 129.245 15.4134 128.495 15.29" stroke="#757677" stroke-width="2"/>
<path d="M128.495 15.29L115.177 18.7625C114.994 18.8104 114.826 18.9062 114.691 19.0401C114.556 19.174 114.459 19.3413 114.41 19.525C113.257 23.7767 112.105 28.0134 110.955 32.235C110.912 32.3934 110.878 32.5725 110.855 32.7725C110.83 32.9892 110.799 33.1692 110.762 33.3125" stroke="#808081" stroke-width="2"/>
<path d="M128.495 15.29C128.757 15.4767 128.872 15.6309 128.84 15.7525C127.732 20.0509 126.606 24.3434 125.462 28.63C125.311 29.1984 125.347 29.7792 125.572 30.3725" stroke="#F4F5F6" stroke-width="2"/>
<path d="M125.573 30.3726C124.988 30.1059 124.317 30.0626 123.56 30.2426C119.345 31.2493 115.079 32.2726 110.762 33.3126" stroke="#EAEBEE" stroke-width="2"/>
<path d="M134.538 40.4126C134.605 39.9826 134.69 39.7776 134.365 39.4376C131.44 36.3726 128.509 33.3509 125.573 30.3726" stroke="#DFE1E4" stroke-width="2"/>
<path d="M38.0875 26.1401C37.61 26.0926 37.2 25.8451 37.31 25.3226C37.55 24.1876 37.69 23.1676 39.125 23.1476C40.98 23.1226 42.8342 23.1251 44.6875 23.1551C45.88 23.1726 45.53 24.2501 45.3025 24.9351C45.2958 24.956 45.2942 24.9782 45.2977 24.9998C45.3012 25.0215 45.3097 25.0421 45.3226 25.0598C45.3355 25.0776 45.3524 25.0921 45.3719 25.1021C45.3914 25.1121 45.4131 25.1174 45.435 25.1176L51.3825 25.1151C51.4875 25.1151 51.5542 25.0659 51.5825 24.9676C52.5 21.8726 53.2175 18.6201 48.565 18.5826C45.6633 18.5592 42.7642 18.5576 39.8675 18.5776C36.3475 18.6001 33.9575 18.3326 32.2025 21.0976C31.8142 21.7092 31.4358 22.7117 31.0675 24.1051C30.2025 27.3751 28.9625 30.5176 33.9375 30.9776C36.8742 31.2492 39.8675 31.5301 42.9175 31.8201C43.0689 31.834 43.2092 31.9059 43.3092 32.0209C43.4093 32.1358 43.4615 32.285 43.455 32.4376C43.4125 33.3926 43.0125 35.1751 41.815 35.1801C39.6467 35.1917 37.4792 35.1909 35.3125 35.1776C33.895 35.1676 34.5225 33.8276 34.6925 33.0951C34.6966 33.0761 34.6964 33.0564 34.6919 33.0375C34.6874 33.0185 34.6787 33.0009 34.6665 32.9858C34.6543 32.9707 34.6388 32.9585 34.6212 32.9501C34.6037 32.9418 34.5844 32.9375 34.565 32.9376L28.63 32.9426C28.5433 32.9426 28.4858 32.9834 28.4575 33.0651C27.3175 36.4601 26.64 39.7826 31.625 39.8001C35.605 39.8167 39.5833 39.8134 43.56 39.7901C45.5817 39.7801 47.1167 39.0851 48.165 37.7051C48.6667 37.0467 49.1375 35.9017 49.5775 34.2701C50.3925 31.2451 52.045 27.4676 47.0625 27.0076C44.0692 26.7309 41.0775 26.4417 38.0875 26.1401Z" stroke="#808081" stroke-width="2"/>
<path d="M60.54 28.0324C60.5271 28.0451 60.5104 28.0531 60.4925 28.0554C60.4745 28.0576 60.4564 28.0539 60.4408 28.0448C60.4252 28.0357 60.413 28.0218 60.406 28.0051C60.3991 27.9884 60.3979 27.9699 60.4025 27.9524L62.815 18.6724C62.818 18.6603 62.8183 18.6476 62.8157 18.6353C62.8131 18.6231 62.8077 18.6116 62.8 18.6017C62.7923 18.5918 62.7824 18.5838 62.7712 18.5783C62.7599 18.5728 62.7475 18.5699 62.735 18.5699L56.3725 18.5774C56.3545 18.578 56.3372 18.5844 56.3233 18.5957C56.3093 18.607 56.2993 18.6225 56.295 18.6399L50.7875 39.7074C50.7845 39.7196 50.7842 39.7323 50.7868 39.7446C50.7894 39.7568 50.7948 39.7683 50.8025 39.7782C50.8102 39.7881 50.8201 39.7961 50.8313 39.8016C50.8426 39.8071 50.855 39.8099 50.8675 39.8099H57.2375C57.2555 39.8094 57.2727 39.803 57.2867 39.7917C57.3007 39.7804 57.3106 39.7649 57.315 39.7474L59.895 29.8699C59.8996 29.8541 59.9088 29.84 59.9215 29.8294C59.9342 29.8189 59.9497 29.8124 59.9662 29.8108C59.9826 29.8092 59.9991 29.8125 60.0136 29.8204C60.0281 29.8283 60.0399 29.8403 60.0475 29.8549L64.96 39.7624C64.9668 39.7758 64.9772 39.7871 64.99 39.795C65.0028 39.803 65.0175 39.8073 65.0325 39.8074L73.1075 39.8099C73.1219 39.81 73.136 39.8063 73.1486 39.7992C73.1611 39.7921 73.1715 39.7818 73.1788 39.7695C73.1862 39.7571 73.1901 39.743 73.1903 39.7286C73.1905 39.7142 73.187 39.7 73.18 39.6874L67.13 28.8449C67.1207 28.8284 67.1174 28.8092 67.1206 28.7906C67.1237 28.7719 67.1333 28.7549 67.1475 28.7424L78.5175 18.7099C78.5302 18.699 78.5392 18.6845 78.5435 18.6683C78.5477 18.6522 78.5469 18.6351 78.5412 18.6193C78.5355 18.6036 78.5252 18.59 78.5116 18.5803C78.498 18.5706 78.4817 18.5652 78.465 18.5649L70.44 18.5699C70.4186 18.5697 70.398 18.5778 70.3825 18.5924L60.54 28.0324Z" stroke="#808081" stroke-width="2"/>
<path d="M81.4125 39.8074C81.4389 39.8071 81.4645 39.7982 81.4853 39.7819C81.506 39.7656 81.5209 39.7429 81.5275 39.7174L87.025 18.7174C87.0295 18.6997 87.03 18.6813 87.0264 18.6635C87.0228 18.6456 87.0151 18.6288 87.004 18.6144C86.993 18.5999 86.9787 18.5882 86.9624 18.58C86.9461 18.5719 86.9282 18.5676 86.91 18.5674H80.5C80.4736 18.5676 80.448 18.5766 80.4272 18.5929C80.4064 18.6091 80.3916 18.6318 80.385 18.6574L74.8975 39.6599C74.8929 39.6775 74.8925 39.696 74.8961 39.7138C74.8997 39.7317 74.9074 39.7484 74.9184 39.7629C74.9295 39.7774 74.9438 39.7891 74.96 39.7972C74.9763 39.8054 74.9943 39.8097 75.0125 39.8099L81.4125 39.8074Z" stroke="#808081" stroke-width="2"/>
<path d="M105.613 18.5674C105.594 18.5674 105.576 18.5735 105.562 18.5849C105.547 18.5962 105.537 18.612 105.533 18.6299L102.57 29.9949C102.566 30.0103 102.557 30.0242 102.545 30.0347C102.532 30.0452 102.517 30.0519 102.502 30.0541C102.486 30.0562 102.469 30.0536 102.455 30.0467C102.44 30.0397 102.428 30.0286 102.42 30.0149L95.63 18.6124C95.6225 18.5999 95.6119 18.5897 95.5991 18.5826C95.5864 18.5756 95.5721 18.5721 95.5575 18.5724L90.1425 18.5674C90.1241 18.5674 90.1063 18.5735 90.0918 18.5849C90.0773 18.5962 90.067 18.612 90.0625 18.6299L84.555 39.7074C84.552 39.7195 84.5517 39.7322 84.5543 39.7445C84.5569 39.7568 84.5623 39.7683 84.57 39.7781C84.5777 39.788 84.5876 39.796 84.5988 39.8015C84.6101 39.807 84.6225 39.8099 84.635 39.8099H90.755C90.773 39.8093 90.7903 39.8029 90.8042 39.7916C90.8182 39.7804 90.8282 39.7648 90.8325 39.7474L93.89 28.0374C93.8944 28.0219 93.9032 28.0081 93.9154 27.9976C93.9276 27.9871 93.9425 27.9803 93.9585 27.9782C93.9744 27.9761 93.9906 27.9787 94.0051 27.9856C94.0196 27.9926 94.0317 28.0036 94.04 28.0174L101.033 39.7699C101.04 39.7823 101.051 39.7926 101.063 39.7996C101.076 39.8067 101.09 39.8102 101.105 39.8099H106.225C106.243 39.8093 106.26 39.8029 106.274 39.7916C106.288 39.7804 106.298 39.7648 106.303 39.7474L111.818 18.6774C111.821 18.6652 111.821 18.6525 111.818 18.6403C111.816 18.628 111.81 18.6165 111.803 18.6066C111.795 18.5967 111.785 18.5887 111.774 18.5833C111.762 18.5778 111.75 18.5749 111.738 18.5749L105.613 18.5674Z" stroke="#808081" stroke-width="2"/>
<path d="M123.51 22.9425L124.005 22.6175C124.075 22.5708 124.133 22.5117 124.178 22.44C124.538 21.855 125.833 19.165 124.868 18.6475C124.593 18.4992 124.302 18.47 123.995 18.56C121.683 19.23 119.327 19.89 116.925 20.54C116.777 20.5817 116.68 20.6758 116.635 20.8225L113.908 29.86C113.901 29.8806 113.9 29.9025 113.905 29.9234C113.91 29.9444 113.921 29.9637 113.935 29.9794C113.95 29.9951 113.969 30.0067 113.989 30.0129C114.01 30.0192 114.032 30.0199 114.053 30.015C116.263 29.535 118.489 29.035 120.733 28.515C122.79 28.04 123.563 26.9475 124.015 24.91C124.2 24.075 124.483 23.3775 123.528 23.0775C123.428 23.0458 123.422 23.0008 123.51 22.9425Z" stroke="#808081" stroke-width="2"/>
<path d="M133.78 26.3725C133.783 26.3571 133.791 26.3429 133.802 26.3315C133.813 26.3201 133.827 26.312 133.842 26.3081C133.857 26.3042 133.874 26.3047 133.889 26.3094C133.904 26.3142 133.917 26.3231 133.928 26.335L136.232 28.99C136.243 29.0028 136.257 29.0123 136.272 29.0174C136.288 29.0225 136.305 29.0229 136.32 29.0187C136.336 29.0145 136.351 29.0057 136.362 28.9936C136.373 28.9814 136.38 28.9663 136.383 28.95L136.712 27.1075C136.715 27.0953 136.715 27.0827 136.712 27.0706C136.709 27.0585 136.703 27.0472 136.695 27.0375L129.92 19.035C129.91 19.0231 129.897 19.014 129.882 19.009C129.867 19.0039 129.852 19.003 129.836 19.0064C129.821 19.0097 129.807 19.0172 129.796 19.028C129.785 19.0388 129.777 19.0525 129.773 19.0675L129.295 20.865C129.291 20.8784 129.291 20.8925 129.294 20.906C129.297 20.9195 129.303 20.932 129.313 20.9425L131.95 24C131.959 24.0103 131.965 24.0224 131.968 24.0355C131.971 24.0485 131.971 24.0621 131.967 24.075L130.173 32.14C130.17 32.1532 130.17 32.1669 130.173 32.18C130.177 32.193 130.183 32.205 130.193 32.215L132.02 34.2475C132.03 34.2595 132.044 34.2684 132.059 34.273C132.075 34.2776 132.091 34.2778 132.106 34.2737C132.122 34.2695 132.136 34.2611 132.146 34.2494C132.157 34.2377 132.165 34.2232 132.167 34.2075L133.78 26.3725Z" stroke="#757677" stroke-width="2"/>
<path d="M120.945 22.9974C122.158 22.6624 122.263 22.3024 122.5 21.1224C122.51 21.0716 122.508 21.019 122.492 20.9696C122.476 20.9201 122.448 20.8756 122.41 20.8402C122.372 20.8048 122.326 20.7797 122.276 20.7674C122.225 20.7551 122.172 20.756 122.123 20.7699L118.598 21.7249C118.494 21.7532 118.427 21.8191 118.395 21.9224L117.855 23.6749C117.823 23.7766 117.859 23.8141 117.963 23.7874C118.971 23.5324 119.965 23.2691 120.945 22.9974Z" stroke="#808081" stroke-width="2"/>
<path d="M121.335 26.0775C121.547 25.5875 121.663 25.1383 121.685 24.73C121.7 24.4633 121.577 24.3616 121.317 24.425L117.477 25.3575C117.432 25.369 117.39 25.3922 117.357 25.4247C117.324 25.4572 117.3 25.4979 117.287 25.5425L116.723 27.5575C116.696 27.6541 116.732 27.6925 116.832 27.6725C117.917 27.4658 118.972 27.2266 119.995 26.955C120.628 26.7875 121.04 26.7525 121.335 26.0775Z" stroke="#808081" stroke-width="2"/>
<path d="M121.388 37.9649C121.376 37.9526 121.368 37.9375 121.364 37.9211C121.361 37.9047 121.362 37.8876 121.367 37.8716C121.372 37.8556 121.381 37.8412 121.393 37.83C121.406 37.8187 121.421 37.8109 121.438 37.8074L127.195 36.5774C127.212 36.5743 127.227 36.5668 127.24 36.5556C127.253 36.5445 127.262 36.5302 127.268 36.5141C127.273 36.4981 127.274 36.4809 127.27 36.4643C127.267 36.4477 127.259 36.4324 127.248 36.4199L126.245 35.3149C126.233 35.3025 126.219 35.2934 126.203 35.2886C126.186 35.2837 126.169 35.2833 126.153 35.2874L120.108 36.6574C120.092 36.6614 120.075 36.6611 120.059 36.6568C120.043 36.6524 120.029 36.644 120.018 36.6324L118.898 35.4974C118.886 35.4854 118.878 35.4707 118.874 35.4546C118.87 35.4385 118.87 35.4217 118.875 35.4058C118.879 35.3899 118.888 35.3754 118.9 35.3639C118.912 35.3523 118.926 35.3441 118.943 35.3399L125.365 33.8349C125.382 33.831 125.397 33.8228 125.409 33.8111C125.421 33.7993 125.43 33.7845 125.435 33.7682C125.439 33.7519 125.439 33.7346 125.435 33.7182C125.431 33.7018 125.422 33.6869 125.41 33.6749L124.2 32.4699C124.188 32.4584 124.174 32.45 124.158 32.4456C124.143 32.4412 124.126 32.441 124.11 32.4449L115.013 34.6474C114.996 34.6517 114.981 34.6601 114.969 34.672C114.957 34.6839 114.949 34.6987 114.944 34.715C114.94 34.7313 114.94 34.7484 114.945 34.7647C114.949 34.7809 114.958 34.7957 114.97 34.8074L121.308 41.0374C121.319 41.0482 121.332 41.0561 121.347 41.0604C121.362 41.0648 121.377 41.0655 121.393 41.0624L130.86 39.2499C130.877 39.2468 130.892 39.2393 130.905 39.2281C130.918 39.217 130.927 39.2027 130.933 39.1866C130.938 39.1706 130.939 39.1534 130.935 39.1368C130.932 39.1202 130.924 39.1049 130.913 39.0924L129.778 37.8849C129.766 37.8729 129.752 37.8641 129.736 37.8593C129.72 37.8544 129.704 37.8538 129.688 37.8574L122.738 39.2999C122.721 39.3036 122.705 39.3029 122.689 39.2981C122.673 39.2933 122.659 39.2844 122.648 39.2724L121.388 37.9649Z" stroke="#6B6C6F" stroke-width="2"/>
<path d="M103.62 45.1801C103.488 45.1518 103.571 44.9893 103.868 44.6926C104.154 44.4076 104.431 44.236 104.698 44.1776C104.702 44.1766 104.707 44.1745 104.71 44.1715C104.714 44.1685 104.717 44.1648 104.719 44.1605C104.722 44.1561 104.723 44.1514 104.723 44.1466C104.723 44.1418 104.722 44.137 104.72 44.1326C104.71 44.1093 104.697 44.0901 104.68 44.0751C104.605 44.0068 104.617 43.9918 104.715 44.0301C104.74 44.0385 104.765 44.046 104.79 44.0526C104.843 44.0693 104.888 44.0568 104.925 44.0151C105.317 43.5785 105.777 43.3035 106.305 43.1901C106.592 43.1285 106.832 43.0093 107.027 42.8326C107.082 42.781 107.148 42.7551 107.225 42.7551L110.62 42.7076H114.3C114.382 42.7076 114.462 42.7368 114.525 42.7901C115.805 43.9051 117.092 45.0135 118.385 46.1151C118.808 46.4768 119.181 46.6293 119.503 46.5726C125.836 45.4643 132.188 44.3476 138.557 43.2226C138.778 43.1839 138.982 43.0779 139.14 42.9189C139.298 42.76 139.403 42.5561 139.44 42.3351C140.307 37.1768 141.155 31.9643 141.985 26.6976C142.23 25.1351 142.133 24.1876 141.128 23.0651C137.989 19.5651 134.856 16.061 131.727 12.5526C130.262 10.9101 128.843 11.6001 127.035 12.0326C127.408 11.5926 127.424 11.0735 127.083 10.4751C127.039 10.4001 126.974 10.3576 126.888 10.3476C126.688 10.3243 126.523 10.3993 126.393 10.5726C126.359 10.6175 126.309 10.6479 126.253 10.6576L125.495 10.7826C125.452 10.7899 125.408 10.7832 125.369 10.7634C125.33 10.7436 125.298 10.7118 125.278 10.6726L124.935 10.0001C127.423 9.38262 129.843 8.26762 132.268 9.75762C132.726 10.0393 133.366 10.6376 134.188 11.5526C136.993 14.6743 139.784 17.8068 142.563 20.9501C144.073 22.6576 144.875 24.1476 144.555 26.3126C144.182 28.826 143.286 34.3468 141.867 42.8751C141.614 44.3985 140.645 45.3126 138.96 45.6176C130.565 47.146 124.328 48.2601 120.248 48.9601C118.585 49.2451 117.528 48.6976 116.195 47.5801C115.34 46.8635 114.526 46.1385 113.753 45.4051C113.601 45.2621 113.4 45.1816 113.19 45.1801H103.62Z" fill="#7D7BF0"/>
<path d="M124.935 10L125.278 10.6725C125.298 10.7117 125.33 10.7435 125.369 10.7633C125.408 10.7831 125.452 10.7898 125.495 10.7825L126.253 10.6575C126.309 10.6477 126.359 10.6174 126.393 10.5725C126.523 10.3992 126.688 10.3242 126.888 10.3475C126.974 10.3575 127.039 10.4 127.083 10.475C127.424 11.0733 127.408 11.5925 127.035 12.0325C122.928 13.0658 118.811 14.1158 114.683 15.1825C114.196 15.3075 113.885 15.37 113.75 15.37C107.793 15.38 101.839 15.38 95.8875 15.37C95.6192 15.2767 95.3167 15.2517 94.98 15.295C94.8967 15.305 94.8542 15.2683 94.8525 15.185C94.8408 14.7333 94.6208 14.4917 94.1925 14.46C94.135 14.4557 94.0801 14.4343 94.0351 14.3986C93.9901 14.3629 93.9569 14.3146 93.94 14.26C93.825 13.8967 93.8467 13.5408 94.005 13.1925C94.045 13.1025 94.1142 13.0658 94.2125 13.0825C94.5225 13.1392 94.7283 13.09 94.83 12.935C100.815 12.9283 106.806 12.9283 112.803 12.935C113.395 12.935 114.063 12.8225 114.565 12.69C118.008 11.775 121.465 10.8783 124.935 10Z" fill="#688EF6"/>
<path d="M110.62 42.7076L69.615 42.7026C56.035 42.6976 42.455 42.7051 28.875 42.7251C26.26 42.7301 24.0175 40.7026 23.895 38.1126C23.8683 37.5359 24.0675 36.4759 24.4925 34.9326C25.7758 30.2759 27.0592 25.6209 28.3425 20.9676C29.1008 18.2226 30.6825 16.4718 33.0875 15.7151C33.8292 15.4834 34.9508 15.3684 36.4525 15.3701C46.6758 15.3868 56.8975 15.3859 67.1175 15.3676L95.8875 15.3701C101.839 15.3801 107.793 15.3801 113.75 15.3701C113.885 15.3701 114.196 15.3076 114.683 15.1826C118.811 14.1159 122.928 13.0659 127.035 12.0326C128.843 11.6001 130.262 10.9101 131.727 12.5526C134.856 16.0609 137.989 19.5651 141.128 23.0651C142.132 24.1876 142.23 25.1351 141.985 26.6976C141.155 31.9643 140.307 37.1768 139.44 42.3351C139.403 42.5561 139.298 42.76 139.14 42.9189C138.982 43.0778 138.778 43.1839 138.557 43.2226C132.187 44.3476 125.836 45.4643 119.503 46.5726C119.181 46.6293 118.808 46.4768 118.385 46.1151C117.092 45.0134 115.805 43.9051 114.525 42.7901C114.462 42.7368 114.382 42.7076 114.3 42.7076H110.62ZM110.762 33.3126C113.754 36.3676 116.664 39.3284 119.493 42.1951C119.941 42.6484 120.463 42.8276 121.06 42.7326C124.447 42.1926 128.939 41.4193 134.538 40.4126C135.138 40.2193 135.49 39.8534 135.595 39.3151C136.413 35.1051 137.238 30.8951 138.068 26.6851C138.183 26.1034 138.109 25.6551 137.848 25.3401C135.293 22.2826 132.603 19.3051 130.158 16.1626C129.799 15.7043 129.245 15.4134 128.495 15.2901L115.177 18.7626C114.994 18.8105 114.826 18.9062 114.691 19.0402C114.556 19.1741 114.459 19.3414 114.41 19.5251C113.257 23.7768 112.105 28.0134 110.955 32.2351C110.912 32.3934 110.878 32.5726 110.855 32.7726C110.83 32.9893 110.799 33.1693 110.762 33.3126ZM38.0875 26.1401C37.61 26.0926 37.2 25.8451 37.31 25.3226C37.55 24.1876 37.69 23.1676 39.125 23.1476C40.98 23.1226 42.8342 23.1251 44.6875 23.1551C45.88 23.1726 45.53 24.2501 45.3025 24.9351C45.2958 24.956 45.2942 24.9782 45.2977 24.9999C45.3012 25.0215 45.3097 25.0421 45.3226 25.0598C45.3355 25.0776 45.3524 25.0921 45.3719 25.1021C45.3914 25.1122 45.4131 25.1175 45.435 25.1176L51.3825 25.1151C51.4875 25.1151 51.5542 25.0659 51.5825 24.9676C52.5 21.8726 53.2175 18.6201 48.565 18.5826C45.6633 18.5593 42.7642 18.5576 39.8675 18.5776C36.3475 18.6001 33.9575 18.3326 32.2025 21.0976C31.8142 21.7093 31.4358 22.7118 31.0675 24.1051C30.2025 27.3751 28.9625 30.5176 33.9375 30.9776C36.8742 31.2493 39.8675 31.5301 42.9175 31.8201C43.0689 31.834 43.2092 31.9059 43.3092 32.0209C43.4093 32.1358 43.4615 32.285 43.455 32.4376C43.4125 33.3926 43.0125 35.1751 41.815 35.1801C39.6467 35.1918 37.4792 35.1909 35.3125 35.1776C33.895 35.1676 34.5225 33.8276 34.6925 33.0951C34.6966 33.0761 34.6964 33.0564 34.6919 33.0375C34.6874 33.0186 34.6787 33.0009 34.6665 32.9858C34.6543 32.9707 34.6388 32.9585 34.6212 32.9502C34.6037 32.9418 34.5844 32.9375 34.565 32.9376L28.63 32.9426C28.5433 32.9426 28.4858 32.9834 28.4575 33.0651C27.3175 36.4601 26.64 39.7826 31.625 39.8001C35.605 39.8168 39.5833 39.8134 43.56 39.7901C45.5817 39.7801 47.1167 39.0851 48.165 37.7051C48.6667 37.0468 49.1375 35.9018 49.5775 34.2701C50.3925 31.2451 52.045 27.4676 47.0625 27.0076C44.0692 26.7309 41.0775 26.4418 38.0875 26.1401ZM60.54 28.0326C60.5271 28.0452 60.5104 28.0533 60.4925 28.0555C60.4746 28.0578 60.4564 28.0541 60.4408 28.045C60.4252 28.0359 60.413 28.0219 60.406 28.0052C60.3991 27.9886 60.3979 27.9701 60.4025 27.9526L62.815 18.6726C62.818 18.6604 62.8183 18.6477 62.8157 18.6355C62.8131 18.6232 62.8077 18.6117 62.8 18.6018C62.7923 18.592 62.7824 18.584 62.7712 18.5785C62.7599 18.573 62.7475 18.5701 62.735 18.5701L56.3725 18.5776C56.3545 18.5781 56.3372 18.5846 56.3233 18.5958C56.3093 18.6071 56.2993 18.6227 56.295 18.6401L50.7875 39.7076C50.7845 39.7198 50.7842 39.7324 50.7868 39.7447C50.7894 39.757 50.7948 39.7685 50.8025 39.7784C50.8102 39.7882 50.8201 39.7962 50.8313 39.8017C50.8426 39.8072 50.855 39.8101 50.8675 39.8101H57.2375C57.2555 39.8095 57.2728 39.8031 57.2867 39.7919C57.3007 39.7806 57.3106 39.765 57.315 39.7476L59.895 29.8701C59.8996 29.8542 59.9088 29.8401 59.9215 29.8296C59.9342 29.819 59.9497 29.8126 59.9662 29.8109C59.9826 29.8093 59.9991 29.8127 60.0136 29.8205C60.0281 29.8284 60.0399 29.8404 60.0475 29.8551L64.96 39.7626C64.9668 39.776 64.9772 39.7873 64.99 39.7952C65.0028 39.8031 65.0175 39.8074 65.0325 39.8076L73.1075 39.8101C73.1219 39.8102 73.136 39.8064 73.1486 39.7993C73.1611 39.7922 73.1715 39.782 73.1788 39.7696C73.1862 39.7572 73.1901 39.7431 73.1903 39.7288C73.1905 39.7144 73.187 39.7002 73.18 39.6876L67.13 28.8451C67.1207 28.8286 67.1174 28.8094 67.1206 28.7907C67.1238 28.7721 67.1333 28.7551 67.1475 28.7426L78.5175 18.7101C78.5302 18.6992 78.5392 18.6847 78.5435 18.6685C78.5477 18.6523 78.5469 18.6352 78.5412 18.6195C78.5355 18.6038 78.5252 18.5901 78.5116 18.5804C78.498 18.5707 78.4817 18.5654 78.465 18.5651L70.44 18.5701C70.4186 18.5699 70.398 18.5779 70.3825 18.5926L60.54 28.0326ZM81.4125 39.8076C81.4389 39.8073 81.4645 39.7984 81.4853 39.7821C81.5061 39.7658 81.5209 39.7432 81.5275 39.7176L87.025 18.7176C87.0296 18.7 87.03 18.6815 87.0264 18.6637C87.0228 18.6458 87.0151 18.629 87.004 18.6146C86.993 18.6001 86.9787 18.5884 86.9624 18.5802C86.9461 18.5721 86.9282 18.5678 86.91 18.5676H80.5C80.4736 18.5679 80.448 18.5768 80.4272 18.5931C80.4064 18.6094 80.3916 18.632 80.385 18.6576L74.8975 39.6601C74.8929 39.6777 74.8925 39.6962 74.8961 39.714C74.8997 39.7319 74.9074 39.7487 74.9185 39.7631C74.9295 39.7776 74.9438 39.7893 74.9601 39.7974C74.9764 39.8056 74.9943 39.8099 75.0125 39.8101L81.4125 39.8076ZM105.613 18.5676C105.594 18.5676 105.576 18.5738 105.562 18.5851C105.547 18.5964 105.537 18.6122 105.533 18.6301L102.57 29.9951C102.566 30.0106 102.557 30.0244 102.545 30.0349C102.532 30.0454 102.517 30.0522 102.502 30.0543C102.486 30.0564 102.469 30.0538 102.455 30.0469C102.44 30.0399 102.428 30.0289 102.42 30.0151L95.63 18.6126C95.6225 18.6001 95.6119 18.5899 95.5991 18.5828C95.5864 18.5758 95.572 18.5723 95.5575 18.5726L90.1425 18.5676C90.1241 18.5676 90.1062 18.5738 90.0918 18.5851C90.0773 18.5964 90.067 18.6122 90.0625 18.6301L84.555 39.7076C84.552 39.7198 84.5517 39.7324 84.5543 39.7447C84.5569 39.757 84.5623 39.7685 84.57 39.7784C84.5777 39.7882 84.5876 39.7962 84.5988 39.8017C84.6101 39.8072 84.6225 39.8101 84.635 39.8101H90.755C90.773 39.8095 90.7902 39.8031 90.8042 39.7919C90.8182 39.7806 90.8281 39.765 90.8325 39.7476L93.89 28.0376C93.8944 28.0221 93.9032 28.0083 93.9154 27.9978C93.9275 27.9873 93.9425 27.9805 93.9584 27.9784C93.9744 27.9763 93.9906 27.9789 94.0051 27.9858C94.0196 27.9928 94.0317 28.0038 94.04 28.0176L101.033 39.7701C101.04 39.7826 101.051 39.7928 101.063 39.7998C101.076 39.8069 101.09 39.8104 101.105 39.8101H106.225C106.243 39.8095 106.26 39.8031 106.274 39.7919C106.288 39.7806 106.298 39.765 106.302 39.7476L111.817 18.6776C111.821 18.6654 111.821 18.6527 111.818 18.6405C111.816 18.6282 111.81 18.6167 111.802 18.6068C111.795 18.597 111.785 18.589 111.774 18.5835C111.762 18.578 111.75 18.5751 111.738 18.5751L105.613 18.5676Z" fill="#010102"/>
<path d="M66.805 12.9349C66.7833 13.0233 66.8425 13.0699 66.9825 13.0749C67.0592 13.0766 67.0842 13.1141 67.0575 13.1874C67.0225 13.2791 66.9633 13.3191 66.88 13.3074C66.8453 13.3034 66.8102 13.3104 66.7796 13.3273C66.749 13.3443 66.7245 13.3704 66.7098 13.4018C66.695 13.4333 66.6907 13.4685 66.6975 13.5023C66.7043 13.5361 66.7218 13.5668 66.7475 13.5899C67.1408 13.9549 67.3058 14.3874 67.2425 14.8874C67.2342 14.9524 67.1975 14.9933 67.1325 15.0099L66.995 15.0449C66.8433 15.0833 66.8425 15.1274 66.9925 15.1774L67.2475 15.2599C67.2792 15.2716 67.2783 15.2808 67.245 15.2874C67.1767 15.3008 67.1342 15.3274 67.1175 15.3674C56.8975 15.3858 46.6758 15.3866 36.4525 15.3699C34.9508 15.3683 33.8292 15.4833 33.0875 15.7149C30.6825 16.4716 29.1008 18.2224 28.3425 20.9674C27.0592 25.6208 25.7758 30.2758 24.4925 34.9324C24.0675 36.4758 23.8683 37.5358 23.895 38.1124C24.0175 40.7024 26.26 42.7299 28.875 42.7249C42.455 42.7049 56.035 42.6974 69.615 42.7024L70.67 42.7599C70.6923 42.7606 70.7136 42.7691 70.7303 42.7839C70.747 42.7987 70.7579 42.8189 70.7612 42.8409C70.7644 42.863 70.7599 42.8855 70.7482 42.9045C70.7366 42.9235 70.7186 42.9378 70.6975 42.9449L70.2475 43.0999C70.2293 43.1063 70.2133 43.1179 70.2017 43.1334C70.1901 43.1488 70.1833 43.1673 70.1823 43.1866C70.1812 43.2059 70.1859 43.225 70.1957 43.2417C70.2055 43.2583 70.2201 43.2716 70.2375 43.2799C70.4742 43.3866 70.5958 43.5883 70.6025 43.8849C70.6042 43.9699 70.5933 44.0533 70.57 44.1349C70.505 44.3683 70.4642 44.6058 70.4475 44.8474C70.4408 44.9291 70.3967 44.9699 70.315 44.9699H70.1275C70.1084 44.9695 70.0898 44.9755 70.0748 44.987C70.0597 44.9986 70.049 45.015 70.0444 45.0337C70.0398 45.0524 70.0416 45.0723 70.0494 45.0902C70.0572 45.1081 70.0706 45.1229 70.0875 45.1324C70.1392 45.1591 70.2117 45.1741 70.305 45.1774C56.745 45.1808 43.185 45.1791 29.625 45.1724C28.245 45.1724 27.1958 45.0574 26.4775 44.8274C23.5425 43.8924 21.4225 41.0474 21.4025 37.9349C21.3975 37.2183 21.6017 36.1074 22.015 34.6024C23.2733 30.0091 24.5392 25.4183 25.8125 20.8299C26.2408 19.2883 26.6775 18.1483 27.1225 17.4099C28.3775 15.3216 30.195 13.9408 32.575 13.2674C33.345 13.0491 34.3892 12.9399 35.7075 12.9399C46.0742 12.9316 56.44 12.9299 66.805 12.9349Z" fill="#15D4FF"/>
<path d="M66.805 12.9351H94.83C94.7283 13.0901 94.5225 13.1392 94.2125 13.0826C94.1142 13.0659 94.045 13.1026 94.005 13.1926C93.8467 13.5409 93.825 13.8967 93.94 14.2601C93.9569 14.3147 93.9901 14.363 94.0351 14.3987C94.0801 14.4343 94.135 14.4557 94.1925 14.4601C94.6208 14.4917 94.8408 14.7334 94.8525 15.1851C94.8542 15.2684 94.8967 15.3051 94.98 15.2951C95.3167 15.2517 95.6192 15.2767 95.8875 15.3701L67.1175 15.3676C67.1342 15.3276 67.1767 15.3009 67.245 15.2876C67.2783 15.2809 67.2792 15.2717 67.2475 15.2601L66.9925 15.1776C66.8425 15.1276 66.8433 15.0834 66.995 15.0451L67.1325 15.0101C67.1975 14.9934 67.2342 14.9526 67.2425 14.8876C67.3058 14.3876 67.1408 13.9551 66.7475 13.5901C66.7218 13.5669 66.7043 13.5362 66.6975 13.5024C66.6907 13.4686 66.695 13.4334 66.7098 13.402C66.7245 13.3705 66.749 13.3444 66.7796 13.3274C66.8102 13.3105 66.8453 13.3035 66.88 13.3076C66.9633 13.3192 67.0225 13.2792 67.0575 13.1876C67.0842 13.1142 67.0592 13.0767 66.9825 13.0751C66.8425 13.0701 66.7833 13.0234 66.805 12.9351Z" fill="#46ACFD"/>
<path d="M128.495 15.29C128.757 15.4767 128.872 15.6309 128.84 15.7525C127.732 20.0509 126.606 24.3434 125.463 28.63C125.311 29.1984 125.348 29.7792 125.573 30.3725C124.988 30.1059 124.317 30.0625 123.56 30.2425C119.345 31.2492 115.079 32.2725 110.762 33.3125C110.799 33.1692 110.83 32.9892 110.855 32.7725C110.878 32.5725 110.912 32.3934 110.955 32.235C112.105 28.0134 113.257 23.7767 114.41 19.525C114.459 19.3413 114.556 19.174 114.691 19.0401C114.826 18.9062 114.994 18.8104 115.177 18.7625L128.495 15.29ZM123.51 22.9425L124.005 22.6175C124.075 22.5709 124.132 22.5117 124.177 22.44C124.537 21.855 125.833 19.165 124.868 18.6475C124.593 18.4992 124.302 18.47 123.995 18.56C121.683 19.23 119.327 19.89 116.925 20.54C116.777 20.5817 116.68 20.6759 116.635 20.8225L113.908 29.86C113.901 29.8806 113.9 29.9025 113.905 29.9234C113.91 29.9444 113.921 29.9637 113.935 29.9794C113.95 29.9951 113.969 30.0067 113.989 30.013C114.01 30.0192 114.032 30.0199 114.052 30.015C116.262 29.535 118.489 29.035 120.732 28.515C122.79 28.04 123.562 26.9475 124.015 24.91C124.2 24.075 124.482 23.3775 123.527 23.0775C123.427 23.0459 123.422 23.0009 123.51 22.9425Z" fill="white"/>
<path d="M128.495 15.29C129.245 15.4134 129.799 15.7042 130.157 16.1625C132.602 19.305 135.293 22.2825 137.848 25.34C138.109 25.655 138.183 26.1034 138.068 26.685C137.238 30.895 136.413 35.105 135.595 39.315C135.49 39.8534 135.138 40.2192 134.538 40.4125C134.605 39.9825 134.69 39.7775 134.365 39.4375C131.44 36.3725 128.509 33.3509 125.572 30.3725C125.347 29.7792 125.311 29.1984 125.462 28.63C126.606 24.3434 127.732 20.0509 128.84 15.7525C128.872 15.6309 128.757 15.4767 128.495 15.29ZM133.78 26.3725C133.783 26.3571 133.791 26.3429 133.802 26.3315C133.813 26.3201 133.827 26.312 133.842 26.3081C133.857 26.3042 133.874 26.3047 133.889 26.3094C133.904 26.3142 133.917 26.3231 133.928 26.335L136.232 28.99C136.243 29.0028 136.257 29.0123 136.272 29.0174C136.288 29.0225 136.305 29.0229 136.32 29.0187C136.336 29.0145 136.351 29.0057 136.362 28.9935C136.373 28.9814 136.38 28.9663 136.383 28.95L136.712 27.1075C136.715 27.0953 136.715 27.0827 136.712 27.0706C136.709 27.0585 136.703 27.0472 136.695 27.0375L129.92 19.035C129.91 19.023 129.897 19.014 129.882 19.009C129.867 19.0039 129.852 19.003 129.836 19.0064C129.821 19.0097 129.807 19.0172 129.796 19.028C129.785 19.0388 129.777 19.0525 129.773 19.0675L129.295 20.865C129.291 20.8784 129.291 20.8925 129.294 20.906C129.297 20.9195 129.303 20.932 129.312 20.9425L131.95 24C131.959 24.0103 131.965 24.0224 131.968 24.0354C131.971 24.0485 131.971 24.062 131.967 24.075L130.172 32.14C130.17 32.1532 130.17 32.1669 130.173 32.18C130.177 32.193 130.183 32.205 130.193 32.215L132.02 34.2475C132.03 34.2595 132.044 34.2683 132.059 34.273C132.075 34.2776 132.091 34.2778 132.106 34.2736C132.122 34.2695 132.136 34.2611 132.146 34.2494C132.157 34.2377 132.165 34.2232 132.167 34.2075L133.78 26.3725Z" fill="#E8EAEC"/>
<path d="M37.31 25.3226C37.2 25.8451 37.61 26.0926 38.0875 26.1401C41.0775 26.4417 44.0692 26.7309 47.0625 27.0076C52.045 27.4676 50.3925 31.2451 49.5775 34.2701C49.1375 35.9017 48.6667 37.0467 48.165 37.7051C47.1167 39.0851 45.5817 39.7801 43.56 39.7901C39.5833 39.8134 35.605 39.8167 31.625 39.8001C26.64 39.7826 27.3175 36.4601 28.4575 33.0651C28.4858 32.9834 28.5433 32.9426 28.63 32.9426L34.565 32.9376C34.5844 32.9375 34.6037 32.9418 34.6212 32.9501C34.6388 32.9585 34.6543 32.9707 34.6665 32.9858C34.6787 33.0009 34.6874 33.0185 34.6919 33.0375C34.6964 33.0564 34.6966 33.0761 34.6925 33.0951C34.5225 33.8276 33.895 35.1676 35.3125 35.1776C37.4792 35.1909 39.6467 35.1917 41.815 35.1801C43.0125 35.1751 43.4125 33.3926 43.455 32.4376C43.4615 32.285 43.4093 32.1358 43.3092 32.0209C43.2092 31.9059 43.0689 31.834 42.9175 31.8201C39.8675 31.5301 36.8742 31.2492 33.9375 30.9776C28.9625 30.5176 30.2025 27.3751 31.0675 24.1051C31.4358 22.7117 31.8142 21.7092 32.2025 21.0976C33.9575 18.3326 36.3475 18.6001 39.8675 18.5776C42.7642 18.5576 45.6633 18.5592 48.565 18.5826C53.2175 18.6201 52.5 21.8726 51.5825 24.9676C51.5542 25.0659 51.4875 25.1151 51.3825 25.1151L45.435 25.1176C45.4131 25.1174 45.3914 25.1121 45.3719 25.1021C45.3524 25.0921 45.3355 25.0776 45.3226 25.0598C45.3097 25.0421 45.3012 25.0215 45.2977 24.9998C45.2942 24.9782 45.2958 24.956 45.3025 24.9351C45.53 24.2501 45.88 23.1726 44.6875 23.1551C42.8342 23.1251 40.98 23.1226 39.125 23.1476C37.69 23.1676 37.55 24.1876 37.31 25.3226Z" fill="white"/>
<path d="M60.54 28.0324L70.3825 18.5924C70.398 18.5778 70.4186 18.5697 70.44 18.5699L78.465 18.5649C78.4817 18.5652 78.498 18.5706 78.5116 18.5803C78.5252 18.59 78.5355 18.6036 78.5412 18.6193C78.5469 18.6351 78.5477 18.6522 78.5435 18.6683C78.5392 18.6845 78.5302 18.699 78.5175 18.7099L67.1475 28.7424C67.1333 28.7549 67.1237 28.7719 67.1206 28.7906C67.1174 28.8092 67.1207 28.8284 67.13 28.8449L73.18 39.6874C73.187 39.7 73.1905 39.7142 73.1903 39.7286C73.1901 39.743 73.1862 39.7571 73.1788 39.7695C73.1715 39.7818 73.1611 39.7921 73.1486 39.7992C73.136 39.8063 73.1219 39.81 73.1075 39.8099L65.0325 39.8074C65.0175 39.8073 65.0028 39.803 64.99 39.795C64.9772 39.7871 64.9668 39.7758 64.96 39.7624L60.0475 29.8549C60.0399 29.8403 60.0281 29.8283 60.0136 29.8204C59.9991 29.8125 59.9826 29.8092 59.9662 29.8108C59.9497 29.8124 59.9342 29.8189 59.9215 29.8294C59.9088 29.84 59.8996 29.8541 59.895 29.8699L57.315 39.7474C57.3106 39.7649 57.3007 39.7804 57.2867 39.7917C57.2727 39.803 57.2555 39.8094 57.2375 39.8099H50.8675C50.855 39.8099 50.8426 39.8071 50.8313 39.8016C50.8201 39.7961 50.8102 39.7881 50.8025 39.7782C50.7948 39.7683 50.7894 39.7568 50.7868 39.7446C50.7842 39.7323 50.7845 39.7196 50.7875 39.7074L56.295 18.6399C56.2993 18.6225 56.3093 18.607 56.3233 18.5957C56.3372 18.5844 56.3545 18.578 56.3725 18.5774L62.735 18.5699C62.7475 18.5699 62.7599 18.5728 62.7712 18.5783C62.7824 18.5838 62.7923 18.5918 62.8 18.6017C62.8077 18.6116 62.8131 18.6231 62.8157 18.6353C62.8183 18.6476 62.818 18.6603 62.815 18.6724L60.4025 27.9524C60.3979 27.9699 60.3991 27.9884 60.406 28.0051C60.413 28.0218 60.4252 28.0357 60.4408 28.0448C60.4564 28.0539 60.4745 28.0576 60.4925 28.0554C60.5104 28.0531 60.5271 28.0451 60.54 28.0324Z" fill="white"/>
<path d="M81.4125 39.8074L75.0125 39.8099C74.9943 39.8097 74.9763 39.8054 74.96 39.7972C74.9438 39.7891 74.9295 39.7774 74.9184 39.7629C74.9074 39.7484 74.8997 39.7317 74.8961 39.7138C74.8925 39.696 74.8929 39.6775 74.8975 39.6599L80.385 18.6574C80.3916 18.6318 80.4064 18.6091 80.4272 18.5929C80.448 18.5766 80.4736 18.5676 80.5 18.5674H86.91C86.9282 18.5676 86.9461 18.5719 86.9624 18.58C86.9787 18.5882 86.993 18.5999 87.004 18.6144C87.0151 18.6288 87.0228 18.6456 87.0264 18.6635C87.03 18.6813 87.0295 18.6997 87.025 18.7174L81.5275 39.7174C81.5209 39.7429 81.506 39.7656 81.4853 39.7819C81.4645 39.7982 81.4389 39.8071 81.4125 39.8074Z" fill="white"/>
<path d="M105.613 18.5674L111.738 18.5749C111.75 18.5749 111.762 18.5778 111.774 18.5833C111.785 18.5887 111.795 18.5967 111.803 18.6066C111.81 18.6165 111.816 18.628 111.818 18.6403C111.821 18.6525 111.821 18.6652 111.818 18.6774L106.303 39.7474C106.298 39.7648 106.288 39.7804 106.274 39.7916C106.26 39.8029 106.243 39.8093 106.225 39.8099H101.105C101.09 39.8102 101.076 39.8067 101.063 39.7996C101.051 39.7926 101.04 39.7823 101.033 39.7699L94.04 28.0174C94.0317 28.0036 94.0196 27.9926 94.0051 27.9856C93.9906 27.9787 93.9744 27.9761 93.9585 27.9782C93.9425 27.9803 93.9276 27.9871 93.9154 27.9976C93.9032 28.0081 93.8944 28.0219 93.89 28.0374L90.8325 39.7474C90.8282 39.7648 90.8182 39.7804 90.8042 39.7916C90.7903 39.8029 90.773 39.8093 90.755 39.8099H84.635C84.6225 39.8099 84.6101 39.807 84.5988 39.8015C84.5876 39.796 84.5777 39.788 84.57 39.7781C84.5623 39.7683 84.5569 39.7568 84.5543 39.7445C84.5517 39.7322 84.552 39.7195 84.555 39.7074L90.0625 18.6299C90.067 18.612 90.0773 18.5962 90.0918 18.5849C90.1063 18.5735 90.1241 18.5674 90.1425 18.5674L95.5575 18.5724C95.5721 18.5721 95.5864 18.5756 95.5991 18.5826C95.6119 18.5897 95.6225 18.5999 95.63 18.6124L102.42 30.0149C102.428 30.0286 102.44 30.0397 102.455 30.0467C102.469 30.0536 102.486 30.0562 102.502 30.0541C102.517 30.0519 102.532 30.0452 102.545 30.0347C102.557 30.0242 102.566 30.0103 102.57 29.9949L105.533 18.6299C105.537 18.612 105.547 18.5962 105.562 18.5849C105.576 18.5735 105.594 18.5674 105.613 18.5674Z" fill="white"/>
<path d="M123.528 23.0775C124.483 23.3775 124.2 24.075 124.015 24.91C123.563 26.9475 122.79 28.04 120.733 28.515C118.489 29.035 116.263 29.535 114.053 30.015C114.032 30.0199 114.01 30.0192 113.989 30.0129C113.969 30.0067 113.95 29.9951 113.935 29.9794C113.921 29.9637 113.91 29.9444 113.905 29.9234C113.9 29.9025 113.901 29.8806 113.908 29.86L116.635 20.8225C116.68 20.6758 116.777 20.5817 116.925 20.54C119.327 19.89 121.683 19.23 123.995 18.56C124.302 18.47 124.593 18.4992 124.868 18.6475C125.833 19.165 124.538 21.855 124.178 22.44C124.133 22.5117 124.075 22.5708 124.005 22.6175L123.51 22.9425C123.422 23.0008 123.428 23.0458 123.528 23.0775ZM120.945 22.9975C122.158 22.6625 122.263 22.3025 122.5 21.1225C122.51 21.0717 122.508 21.0191 122.492 20.9697C122.476 20.9202 122.448 20.8757 122.41 20.8403C122.372 20.8049 122.326 20.7799 122.276 20.7675C122.225 20.7552 122.172 20.7561 122.123 20.77L118.598 21.725C118.494 21.7533 118.427 21.8192 118.395 21.9225L117.855 23.675C117.823 23.7767 117.859 23.8142 117.963 23.7875C118.971 23.5325 119.965 23.2692 120.945 22.9975ZM121.335 26.0775C121.547 25.5875 121.663 25.1383 121.685 24.73C121.7 24.4633 121.578 24.3617 121.318 24.425L117.478 25.3575C117.432 25.369 117.39 25.3922 117.357 25.4247C117.324 25.4572 117.3 25.4979 117.288 25.5425L116.723 27.5575C116.696 27.6542 116.733 27.6925 116.833 27.6725C117.918 27.4658 118.972 27.2267 119.995 26.955C120.628 26.7875 121.04 26.7525 121.335 26.0775Z" fill="#010102"/>
<path d="M133.78 26.3725L132.167 34.2075C132.165 34.2232 132.157 34.2377 132.146 34.2494C132.136 34.2611 132.122 34.2695 132.106 34.2737C132.091 34.2778 132.075 34.2776 132.059 34.273C132.044 34.2684 132.03 34.2595 132.02 34.2475L130.193 32.215C130.183 32.205 130.177 32.193 130.173 32.18C130.17 32.1669 130.17 32.1532 130.173 32.14L131.967 24.075C131.971 24.0621 131.971 24.0485 131.968 24.0355C131.965 24.0224 131.959 24.0103 131.95 24L129.313 20.9425C129.303 20.932 129.297 20.9195 129.294 20.906C129.291 20.8925 129.291 20.8784 129.295 20.865L129.773 19.0675C129.777 19.0525 129.785 19.0388 129.796 19.028C129.807 19.0172 129.821 19.0097 129.836 19.0064C129.852 19.003 129.867 19.0039 129.882 19.009C129.897 19.014 129.91 19.0231 129.92 19.035L136.695 27.0375C136.703 27.0472 136.709 27.0585 136.712 27.0706C136.715 27.0827 136.715 27.0953 136.712 27.1075L136.383 28.95C136.38 28.9663 136.373 28.9814 136.362 28.9936C136.351 29.0057 136.336 29.0145 136.32 29.0187C136.305 29.0229 136.288 29.0225 136.272 29.0174C136.257 29.0123 136.243 29.0028 136.232 28.99L133.928 26.335C133.917 26.3231 133.904 26.3142 133.889 26.3094C133.874 26.3047 133.857 26.3042 133.842 26.3081C133.827 26.312 133.813 26.3201 133.802 26.3315C133.791 26.3429 133.783 26.3571 133.78 26.3725Z" fill="#010102"/>
<path d="M122.5 21.1224C122.263 22.3024 122.158 22.6624 120.945 22.9974C119.965 23.2691 118.971 23.5324 117.963 23.7874C117.859 23.8141 117.823 23.7766 117.855 23.6749L118.395 21.9224C118.427 21.8191 118.494 21.7532 118.598 21.7249L122.123 20.7699C122.172 20.756 122.225 20.7551 122.276 20.7674C122.326 20.7797 122.372 20.8048 122.41 20.8402C122.448 20.8756 122.476 20.9201 122.492 20.9696C122.508 21.019 122.51 21.0716 122.5 21.1224Z" fill="white"/>
<path d="M121.335 26.0775C121.04 26.7525 120.628 26.7875 119.995 26.955C118.972 27.2266 117.917 27.4658 116.832 27.6725C116.732 27.6925 116.696 27.6541 116.723 27.5575L117.287 25.5425C117.3 25.4979 117.324 25.4572 117.357 25.4247C117.39 25.3922 117.432 25.369 117.477 25.3575L121.317 24.425C121.577 24.3616 121.7 24.4633 121.685 24.73C121.663 25.1383 121.547 25.5875 121.335 26.0775Z" fill="white"/>
<path d="M125.573 30.3726C128.509 33.3509 131.44 36.3726 134.365 39.4376C134.69 39.7776 134.605 39.9826 134.538 40.4126C128.939 41.4193 124.447 42.1926 121.06 42.7326C120.463 42.8276 119.941 42.6484 119.493 42.1951C116.664 39.3284 113.754 36.3676 110.762 33.3126C115.079 32.2726 119.345 31.2493 123.56 30.2426C124.317 30.0626 124.988 30.1059 125.573 30.3726ZM121.387 37.9651C121.376 37.9528 121.368 37.9376 121.364 37.9213C121.361 37.9049 121.362 37.8878 121.367 37.8718C121.372 37.8558 121.381 37.8414 121.393 37.8301C121.406 37.8189 121.421 37.8111 121.438 37.8076L127.195 36.5776C127.212 36.5745 127.227 36.5669 127.24 36.5558C127.253 36.5447 127.262 36.5303 127.268 36.5143C127.273 36.4982 127.274 36.481 127.27 36.4645C127.267 36.4479 127.259 36.4326 127.247 36.4201L126.245 35.3151C126.233 35.3027 126.219 35.2936 126.202 35.2887C126.186 35.2839 126.169 35.2835 126.152 35.2876L120.107 36.6576C120.092 36.6615 120.075 36.6613 120.059 36.6569C120.043 36.6525 120.029 36.6442 120.018 36.6326L118.897 35.4976C118.886 35.4856 118.878 35.4709 118.874 35.4548C118.87 35.4387 118.87 35.4219 118.875 35.406C118.879 35.3901 118.888 35.3756 118.9 35.3641C118.912 35.3525 118.926 35.3442 118.942 35.3401L125.365 33.8351C125.382 33.8312 125.397 33.823 125.409 33.8112C125.421 33.7995 125.43 33.7847 125.435 33.7684C125.439 33.752 125.439 33.7348 125.435 33.7184C125.431 33.702 125.422 33.687 125.41 33.6751L124.2 32.4701C124.188 32.4585 124.174 32.4502 124.158 32.4458C124.143 32.4414 124.126 32.4412 124.11 32.4451L115.012 34.6476C114.996 34.6518 114.981 34.6603 114.969 34.6722C114.957 34.6841 114.949 34.6989 114.944 34.7152C114.94 34.7315 114.94 34.7486 114.945 34.7648C114.949 34.7811 114.958 34.7958 114.97 34.8076L121.308 41.0376C121.319 41.0484 121.332 41.0563 121.347 41.0606C121.362 41.065 121.377 41.0656 121.393 41.0626L130.86 39.2501C130.877 39.247 130.892 39.2394 130.905 39.2283C130.918 39.2172 130.927 39.2028 130.933 39.1868C130.938 39.1707 130.939 39.1535 130.935 39.137C130.932 39.1204 130.924 39.1051 130.913 39.0926L129.777 37.8851C129.766 37.8731 129.752 37.8642 129.736 37.8594C129.72 37.8546 129.704 37.854 129.688 37.8576L122.738 39.3001C122.721 39.3037 122.705 39.3031 122.689 39.2983C122.673 39.2934 122.659 39.2846 122.647 39.2726L121.387 37.9651Z" fill="#D5D7DC"/>
<path d="M121.388 37.9649L122.648 39.2724C122.659 39.2844 122.673 39.2933 122.689 39.2981C122.705 39.3029 122.721 39.3036 122.738 39.2999L129.688 37.8574C129.704 37.8538 129.72 37.8544 129.736 37.8593C129.752 37.8641 129.766 37.8729 129.778 37.8849L130.913 39.0924C130.924 39.1049 130.932 39.1202 130.935 39.1368C130.939 39.1534 130.938 39.1706 130.933 39.1866C130.927 39.2027 130.918 39.217 130.905 39.2281C130.892 39.2393 130.877 39.2468 130.86 39.2499L121.393 41.0624C121.377 41.0655 121.362 41.0648 121.347 41.0604C121.332 41.0561 121.319 41.0482 121.308 41.0374L114.97 34.8074C114.958 34.7957 114.949 34.7809 114.945 34.7647C114.94 34.7484 114.94 34.7313 114.944 34.715C114.949 34.6987 114.957 34.6839 114.969 34.672C114.981 34.6601 114.996 34.6517 115.013 34.6474L124.11 32.4449C124.126 32.441 124.143 32.4412 124.158 32.4456C124.174 32.45 124.188 32.4584 124.2 32.4699L125.41 33.6749C125.422 33.6869 125.431 33.7018 125.435 33.7182C125.439 33.7346 125.439 33.7519 125.435 33.7682C125.43 33.7845 125.421 33.7993 125.409 33.8111C125.397 33.8228 125.382 33.831 125.365 33.8349L118.943 35.3399C118.926 35.3441 118.912 35.3523 118.9 35.3639C118.888 35.3754 118.879 35.3899 118.875 35.4058C118.87 35.4217 118.87 35.4385 118.874 35.4546C118.878 35.4707 118.886 35.4854 118.898 35.4974L120.018 36.6324C120.029 36.644 120.043 36.6524 120.059 36.6568C120.075 36.6611 120.092 36.6614 120.108 36.6574L126.153 35.2874C126.169 35.2833 126.186 35.2837 126.203 35.2886C126.219 35.2934 126.233 35.3025 126.245 35.3149L127.248 36.4199C127.259 36.4324 127.267 36.4477 127.27 36.4643C127.274 36.4809 127.273 36.4981 127.268 36.5141C127.262 36.5302 127.253 36.5445 127.24 36.5556C127.227 36.5668 127.212 36.5743 127.195 36.5774L121.438 37.8074C121.421 37.8109 121.406 37.8187 121.393 37.83C121.381 37.8412 121.372 37.8556 121.367 37.8716C121.362 37.8876 121.361 37.9047 121.364 37.9211C121.368 37.9375 121.376 37.9526 121.388 37.9649Z" fill="#010102"/>
<path d="M69.615 42.7024L110.62 42.7074L107.225 42.7549C107.148 42.7549 107.082 42.7807 107.027 42.8324C106.832 43.0091 106.592 43.1282 106.305 43.1899C105.777 43.3032 105.317 43.5782 104.925 44.0149C104.888 44.0566 104.843 44.0691 104.79 44.0524C104.765 44.0457 104.74 44.0382 104.715 44.0299C104.617 43.9916 104.605 44.0066 104.68 44.0749C104.697 44.0899 104.71 44.1091 104.72 44.1324C104.722 44.1368 104.723 44.1416 104.723 44.1464C104.723 44.1512 104.722 44.1559 104.719 44.1602C104.717 44.1645 104.714 44.1683 104.71 44.1713C104.707 44.1742 104.702 44.1763 104.697 44.1774C104.431 44.2357 104.154 44.4074 103.867 44.6924C103.571 44.9891 103.488 45.1516 103.62 45.1799L70.305 45.1774C70.2117 45.1741 70.1392 45.1591 70.0875 45.1324C70.0706 45.1229 70.0572 45.108 70.0494 45.0901C70.0416 45.0722 70.0398 45.0524 70.0444 45.0337C70.049 45.015 70.0597 44.9986 70.0748 44.987C70.0898 44.9754 70.1084 44.9694 70.1275 44.9699H70.315C70.3967 44.9699 70.4408 44.9291 70.4475 44.8474C70.4642 44.6057 70.505 44.3682 70.57 44.1349C70.5933 44.0532 70.6042 43.9699 70.6025 43.8849C70.5958 43.5882 70.4742 43.3866 70.2375 43.2799C70.2201 43.2716 70.2055 43.2582 70.1957 43.2416C70.1859 43.225 70.1812 43.2058 70.1823 43.1865C70.1833 43.1673 70.1901 43.1487 70.2017 43.1333C70.2133 43.1179 70.2293 43.1063 70.2475 43.0999L70.6975 42.9449C70.7186 42.9378 70.7366 42.9235 70.7482 42.9045C70.7599 42.8854 70.7644 42.8629 70.7612 42.8409C70.7579 42.8188 70.747 42.7986 70.7303 42.7838C70.7136 42.769 70.6923 42.7605 70.67 42.7599L69.615 42.7024Z" fill="#46ACFD"/>
</svg>
