<svg width="21" height="20" viewBox="0 0 21 20" fill="none" xmlns="http://www.w3.org/2000/svg">
<g filter="url(#filter0_d_1700_4140)">
<path d="M9.13589 1.48359C9.52162 0.821321 10.4784 0.821321 10.8641 1.48359L13.011 5.16962C13.1523 5.41222 13.3891 5.58425 13.6635 5.64367L17.8326 6.54646C18.5816 6.70867 18.8773 7.6186 18.3666 8.1901L15.5244 11.371C15.3374 11.5803 15.2469 11.8587 15.2752 12.138L15.7049 16.382C15.7821 17.1445 15.0081 17.7069 14.3067 17.3978L10.4032 15.6777C10.1463 15.5645 9.85366 15.5645 9.59675 15.6777L5.69326 17.3978C4.99192 17.7069 4.21789 17.1445 4.2951 16.382L4.7248 12.138C4.75308 11.8587 4.66264 11.5803 4.47558 11.371L1.63339 8.1901C1.12273 7.6186 1.41838 6.70867 2.16744 6.54646L6.3365 5.64367C6.61089 5.58425 6.84767 5.41222 6.98897 5.16962L9.13589 1.48359Z" fill="#245DF4"/>
</g>
<defs>
<filter id="filter0_d_1700_4140" x="-0.621735" y="-1.01306" width="21.2435" height="20.4973" filterUnits="userSpaceOnUse" color-interpolation-filters="sRGB">
<feFlood flood-opacity="0" result="BackgroundImageFix"/>
<feColorMatrix in="SourceAlpha" type="matrix" values="0 0 0 0 0 0 0 0 0 0 0 0 0 0 0 0 0 0 127 0" result="hardAlpha"/>
<feOffset/>
<feGaussianBlur stdDeviation="1"/>
<feComposite in2="hardAlpha" operator="out"/>
<feColorMatrix type="matrix" values="0 0 0 0 0.262745 0 0 0 0 0.403922 0 0 0 0 0.780392 0 0 0 0.35 0"/>
<feBlend mode="normal" in2="BackgroundImageFix" result="effect1_dropShadow_1700_4140"/>
<feBlend mode="normal" in="SourceGraphic" in2="effect1_dropShadow_1700_4140" result="shape"/>
</filter>
</defs>
</svg>
