<svg width="400" height="140" viewBox="0 0 400 140" fill="none" xmlns="http://www.w3.org/2000/svg">
<g clip-path="url(#clip0_1109_127181)">
<path d="M267.891 86.9347C258.542 124.435 220.558 147.255 183.054 137.906C145.566 128.556 122.744 90.5725 132.096 53.0744C141.441 15.5697 179.422 -7.25463 216.916 2.09474C254.419 11.4441 277.241 49.4322 267.891 86.9347Z" fill="#F7931A"/>
<path d="M230.857 60.0285C232.248 50.7141 225.156 45.7069 215.459 42.3666L218.605 29.7491L210.922 27.835L207.86 40.12C205.843 39.6169 203.769 39.1422 201.709 38.6719L204.793 26.306L197.117 24.3919L193.969 37.005C192.298 36.6244 190.657 36.2482 189.065 35.8522L189.074 35.8128L178.482 33.1682L176.439 41.3713C176.439 41.3713 182.137 42.6772 182.017 42.7582C185.127 43.5347 185.692 45.5932 185.596 47.225L182.012 61.5991C182.227 61.6538 182.505 61.7325 182.811 61.855L182.001 61.6538L176.977 81.7897C176.596 82.7347 175.631 84.1522 173.457 83.6141C173.534 83.7257 167.875 82.2207 167.875 82.2207L164.062 91.0144L174.059 93.506C175.918 93.9719 177.74 94.4597 179.532 94.9191L176.353 107.683L184.025 109.597L187.175 96.971C189.268 97.5397 191.303 98.0647 193.293 98.5591L190.156 111.126L197.837 113.04L201.015 100.303C214.112 102.781 223.962 101.781 228.103 89.9382C231.443 80.4007 227.939 74.8991 221.048 71.3094C226.066 70.1478 229.849 66.8469 230.857 60.0285ZM213.307 84.6357C210.931 94.1732 194.875 89.0194 189.666 87.7244L193.884 70.8172C199.09 72.1166 215.781 74.6891 213.307 84.6357ZM215.68 59.8907C213.515 68.5663 200.149 64.1585 195.811 63.0778L199.635 47.7435C203.973 48.8241 217.938 50.841 215.68 59.8907Z" fill="white"/>
</g>
<defs>
<clipPath id="clip0_1109_127181">
<rect width="400" height="140" fill="white"/>
</clipPath>
</defs>
</svg>
