<svg width="168" height="32" viewBox="0 0 168 32" fill="none" xmlns="http://www.w3.org/2000/svg">
<path fill-rule="evenodd" clip-rule="evenodd" d="M102.271 6H111.009L114.391 26H109.036L108.472 22.1194H104.526L103.962 26H98.6068L102.271 6ZM107.627 16.4478H105.653L106.499 11.6716L107.627 16.4478Z" fill="url(#paint0_linear_1577_3784)" stroke="black"/>
<path fill-rule="evenodd" clip-rule="evenodd" d="M135.531 6H144.269L147.652 26H142.296L141.732 22.1194H137.786L137.223 26H131.867L135.531 6ZM140.887 16.4478H138.914L139.759 11.6716L140.887 16.4478Z" fill="url(#paint1_linear_1577_3784)" stroke="black"/>
<path fill-rule="evenodd" clip-rule="evenodd" d="M116.364 6.29851H128.203L130.458 8.68657V23.9104L128.203 26H116.364V6.29851ZM124.82 11.9701H121.72V20.3284H124.82V11.9701Z" fill="url(#paint2_linear_1577_3784)" stroke="black"/>
<path fill-rule="evenodd" clip-rule="evenodd" d="M83.1042 6.29851H94.6607L96.6338 8.38806V18.2388L95.5063 19.7313L97.1975 26H91.5602L90.1508 20.3284H88.1778V26H83.1042V6.29851ZM91.5602 11.9701H88.1778V15.2537H91.5602V11.9701Z" fill="url(#paint3_linear_1577_3784)" stroke="black"/>
<path fill-rule="evenodd" clip-rule="evenodd" d="M149.907 6.29851H161.463L163.436 8.38806V18.2388L162.309 19.7313L164 26H158.363L156.953 20.3284H154.98V26H149.907V6.29851ZM158.363 11.9701H154.98V15.2537H158.363V11.9701Z" fill="url(#paint4_linear_1577_3784)" stroke="black"/>
<path d="M53.9513 6.2985H44.086L41.5492 8.68656V23.6119L44.086 26H53.9513L56.4881 23.6119V14.6567H48.5958V19.1343H50.287V20.6269H47.7502V11.6716H50.287V14.0597H56.4881V8.68656L53.9513 6.2985Z" fill="url(#paint5_linear_1577_3784)" stroke="black"/>
<path d="M19.5636 6.2985H9.41638L6.87958 8.98507V23.3134L9.41638 26H19.2817L22.1004 23.3134V17.3433H15.3356V20.6269H13.6444V12.2687H15.3356V14.9552H22.1004V8.98507L19.5636 6.2985Z" fill="url(#paint6_linear_1577_3784)" stroke="black"/>
<path fill-rule="evenodd" clip-rule="evenodd" d="M36.7582 6.2985H26.8929L24.3561 8.98507V15.8507L30.2103 18.5373H24.3561V23.3134L26.8929 26H36.7582L39.2951 23.3134V16.4478L30.5572 12.8657V11.3731H32.8121V13.4627H39.2951V8.98507L36.7582 6.2985ZM30.5572 20.9254V18.6965L32.8121 19.7313V20.9254H30.5572Z" fill="url(#paint7_linear_1577_3784)"/>
<path d="M30.2103 18.5373H24.3561V23.3134L26.8929 26H36.7582L39.2951 23.3134V16.4478L30.5572 12.8657V11.3731H32.8121V13.4627H39.2951V8.98507L36.7582 6.2985H26.8929L24.3561 8.98507V15.8507L30.2103 18.5373ZM30.2103 18.5373L30.5572 18.6965M30.2103 18.5373H30.5572V18.6965M30.5572 18.6965V20.9254H32.8121V19.7313L30.5572 18.6965Z" stroke="black"/>
<ellipse cx="69.7734" cy="15.624" rx="12.0517" ry="11.9973" fill="#151515"/>
<circle cx="69.7734" cy="15.5696" r="11.6213" fill="white"/>
<circle cx="69.7734" cy="15.5696" r="10.3301" fill="#151515"/>
<path d="M67.7425 4.024C65.3803 4.4372 63.273 5.51153 61.5513 7.17811C58.2939 10.346 57.1301 15.0496 58.5418 19.3745L58.8104 20.2078L58.4179 20.4006C58.0598 20.5865 57.9427 20.7174 57.8325 21.0479C57.8119 21.1168 57.8738 21.7848 57.9702 22.5286C58.0667 23.2792 58.1493 23.9886 58.1562 24.1056C58.1631 24.2296 58.1906 24.3329 58.2251 24.3329C58.2526 24.3329 58.2733 24.3811 58.2733 24.4362C58.2733 24.4913 58.2388 24.5395 58.1906 24.5395C58.1493 24.5395 58.1906 24.6015 58.2801 24.6841C58.3697 24.7668 58.4385 24.8563 58.4317 24.8907C58.4179 24.9251 58.4867 24.9183 58.5832 24.8838C58.7553 24.8218 58.8311 24.8976 58.6865 24.9871C58.5832 25.0491 58.6038 25.2695 58.7209 25.3659C58.776 25.4141 58.8035 25.4761 58.7829 25.5105C58.7622 25.545 58.7898 25.5725 58.8449 25.5725C58.8999 25.5725 59.1479 25.6827 59.3889 25.8204C59.6231 25.9582 60.1464 26.2336 60.5459 26.4265C60.9453 26.6262 61.3654 26.881 61.4894 26.998C61.8061 27.2942 63.211 27.7212 63.9204 27.728C64.3267 27.7349 64.43 27.6523 64.8363 27.0325C65.036 26.7295 65.1531 26.6124 65.2288 26.6468C65.7178 26.8397 66.8403 27.1771 67.4326 27.3079C68.073 27.4457 68.3485 27.4595 69.7741 27.4595C71.5164 27.4595 72.0742 27.3906 73.3414 26.9843C73.8648 26.819 73.8716 26.819 74.0094 26.9498C74.2091 27.1427 75.1939 27.6385 75.3661 27.6385C75.4418 27.6385 75.7517 27.5283 76.0616 27.3975C76.3646 27.2666 76.647 27.1564 76.6883 27.1564C76.7227 27.1564 76.8742 27.2391 77.0189 27.3355C77.2599 27.5077 77.3219 27.5145 77.8177 27.487C78.4238 27.4526 78.7681 27.2942 80.1041 26.4471C80.4622 26.2198 80.8341 25.9857 80.9167 25.9375C81.1096 25.8204 81.2886 25.421 81.2611 25.1731C81.2473 25.0216 81.2886 24.9665 81.5159 24.8494L81.7914 24.7117L82.1977 23.0933C82.6522 21.2959 82.6591 21.1237 82.3079 20.7311C82.2046 20.6141 81.8396 20.3386 81.5021 20.132L80.8892 19.7532L81.082 19.1472C81.6536 17.3635 81.75 15.1185 81.3299 13.1833C80.3176 8.45215 76.5299 4.82974 71.7505 4.01711C70.6487 3.83117 68.8237 3.83117 67.7425 4.024ZM71.8745 4.389C73.4516 4.65758 75.6278 5.67681 76.9707 6.7718C78.6923 8.18357 79.987 10.0843 80.6619 12.1779C81.2611 14.0235 81.3644 16.1928 80.9512 18.1004C80.8134 18.734 80.5862 19.5053 80.5242 19.5466C80.4829 19.5673 79.8493 19.1885 79.6702 19.0301C79.6427 19.0026 79.6909 18.672 79.7873 18.3001C80.0421 17.274 80.1317 16.3925 80.0835 15.3182C79.9733 12.8872 79.0849 10.711 77.4527 8.88601C75.9583 7.21254 74.0576 6.12444 71.7712 5.6286C70.9379 5.44266 68.6791 5.44266 67.8458 5.62172C64.0237 6.44812 61.083 9.05818 59.933 12.6393C59.2718 14.7191 59.3063 17.1294 60.0225 19.161C60.0845 19.3263 60.1327 19.4847 60.1327 19.5122C60.1327 19.5811 59.2305 20.0838 59.1892 20.0356C59.0997 19.9461 58.6727 18.5412 58.5487 17.8938C58.3352 16.8264 58.287 15.1942 58.4385 14.1406C58.6451 12.7219 59.0239 11.5649 59.685 10.3047C60.2566 9.22346 60.7662 8.54168 61.7097 7.59131C63.5829 5.71813 65.8417 4.62314 68.5344 4.29258C69.1956 4.21683 71.1583 4.27192 71.8745 4.389ZM71.7712 5.80766C72.1293 5.88341 72.6734 6.02803 72.9764 6.12444C73.6168 6.33105 74.6016 6.7718 74.5603 6.84066C74.5465 6.86132 74.5947 6.88198 74.6636 6.88887C74.7807 6.90264 75.6415 7.42603 75.9032 7.65329C75.9583 7.7015 76.0892 7.81169 76.1925 7.89433C76.8192 8.41772 77.1359 8.72762 77.5423 9.20969C77.7971 9.5127 78.0381 9.80883 78.0725 9.87081C78.1139 9.93279 78.2034 10.0843 78.2791 10.2083C78.3549 10.3322 78.4926 10.5526 78.5821 10.6834C78.6717 10.8212 78.7474 10.9658 78.7543 11.0071C78.7612 11.0416 78.8163 11.1517 78.8783 11.2482C79.0367 11.4892 79.5187 12.8252 79.6909 13.4863C80.0146 14.7673 80.0077 16.7093 79.6771 18.066C79.4981 18.8166 79.4774 18.8511 79.3121 18.734C79.1882 18.6376 79.1882 18.6169 79.3397 17.9007C79.4292 17.4944 79.4843 17.1501 79.4636 17.1294C79.4499 17.1156 79.381 17.3429 79.319 17.6459C79.2295 18.066 79.1675 18.1968 79.0642 18.2244C78.9954 18.245 78.9334 18.2244 78.9265 18.1831C78.9265 18.1349 78.9058 18.1417 78.8852 18.1968C78.8576 18.2588 78.837 18.2657 78.8025 18.2106C78.7199 18.0798 77.9486 17.8869 77.9141 17.9833C77.9004 18.0316 77.859 18.066 77.8315 18.066C77.7626 18.066 77.7626 18.0384 77.9279 16.792C77.983 16.3374 78.0381 15.8967 78.0381 15.8072C78.0381 15.6763 78.0794 15.6556 78.3342 15.6419L78.6235 15.635L78.3342 15.6074C78.1689 15.5937 78.0381 15.5523 78.0381 15.511C78.0381 15.4353 78.1896 15.4353 78.6648 15.511C78.8714 15.5455 79.1675 15.5937 79.3259 15.6074L79.6083 15.6419L79.5738 15.1116C79.5463 14.6433 79.319 13.2109 79.2433 12.9836C79.2157 12.9078 79.1951 12.9078 79.1124 12.9836C79.0436 13.0456 79.0367 13.0869 79.0987 13.1282C79.14 13.1627 79.078 13.1695 78.954 13.1489C78.775 13.1213 78.7405 13.1351 78.775 13.2178C78.8094 13.3073 78.7612 13.3211 78.5477 13.3142C78.0656 13.2935 77.921 13.3073 78.0381 13.383C78.1001 13.4175 78.1689 13.4175 78.224 13.3693C78.2929 13.3142 78.3136 13.3279 78.3136 13.4037C78.3136 13.4932 78.2516 13.5139 78.0588 13.5001C77.7144 13.4794 77.6593 13.4175 77.4045 12.7908C77.2874 12.5015 77.0877 12.0746 76.9638 11.8542C76.8329 11.6269 76.7296 11.4134 76.7296 11.379C76.7296 11.3446 76.6814 11.2275 76.6194 11.1242C76.5437 11.0002 76.5368 10.9727 76.6057 11.0553C76.7021 11.1724 76.7296 11.1655 77.0326 10.9658C77.2048 10.8487 77.3976 10.773 77.4527 10.7936C77.5078 10.8143 77.6662 10.7661 77.7971 10.6903C77.9279 10.6146 78.0656 10.5664 78.107 10.5939C78.2309 10.6697 77.7626 9.91902 77.4321 9.52648C77.0395 9.04441 76.1511 8.17668 75.9101 8.03206C75.8068 7.97008 75.8619 8.03895 76.0272 8.19046C76.2476 8.39017 76.3095 8.49347 76.2751 8.583C76.2476 8.65187 76.2751 8.75517 76.3302 8.82403C76.5024 9.02375 76.5368 9.19592 76.406 9.16837C76.344 9.15459 76.2682 9.07195 76.2476 8.98243L76.2062 8.81026L76.0065 9.01686C75.8963 9.12705 75.855 9.15459 75.9032 9.07884C75.9583 9.00309 75.8894 9.04441 75.7517 9.17525C75.6071 9.3061 75.5038 9.43695 75.5107 9.47827C75.5176 9.5127 75.4418 9.57468 75.3454 9.60912C75.1939 9.65732 75.1319 9.63667 74.9391 9.45761C74.6774 9.20969 74.1402 8.85158 73.7201 8.6312C73.3896 8.45904 73.3827 8.43838 73.5342 8.14225C73.5893 8.02518 73.6237 7.88744 73.6031 7.83235C73.5824 7.77725 73.5893 7.74971 73.6237 7.77037C73.7477 7.84612 73.7821 7.66018 73.6719 7.4949C73.5549 7.31585 73.6375 7.185 73.851 7.21943C73.9956 7.24698 74.0782 7.14368 73.9749 7.0817C73.9405 7.06104 73.9061 7.00594 73.9061 6.97151C73.9061 6.93019 73.9474 6.9233 73.9956 6.95774C74.0369 6.98528 74.1402 7.01972 74.2091 7.0266C74.2848 7.04038 74.3881 7.0817 74.4364 7.1299C74.4846 7.17122 74.5465 7.19188 74.5603 7.17122C74.6016 7.1299 74.0576 6.7718 73.9612 6.7718C73.9198 6.7718 73.7752 6.7167 73.6375 6.64095C73.1692 6.39991 72.3772 6.17954 71.3098 5.97294C70.8277 5.88341 70.4558 5.86964 69.4986 5.89718C68.8375 5.91784 68.2177 5.96605 68.1212 6.00737C67.9835 6.06935 68.0386 6.07624 68.3829 6.04181L68.8099 6.00048L68.8237 6.23463L68.8306 6.46189L68.8581 6.24841C68.8926 5.97982 68.989 5.94539 69.7396 5.94539C70.2424 5.94539 71.4269 6.06247 71.482 6.11067C71.4888 6.12444 71.4338 6.49633 71.3511 6.94396L71.1996 7.74971L70.9517 7.69461C70.8139 7.67395 70.3319 7.63952 69.8774 7.63263L69.051 7.61886L69.0096 7.38471L68.9683 7.15056L68.9545 7.40537C68.9545 7.54999 68.927 7.66707 68.8994 7.66707C68.7479 7.67395 67.5565 7.94942 67.2604 8.04584C67.0194 8.12848 66.9161 8.14225 66.8954 8.08716C66.8816 8.04584 66.8197 7.9632 66.7646 7.90121C66.7095 7.84612 66.675 7.78414 66.6957 7.76348C66.7577 7.69461 66.5304 7.12302 66.4478 7.14368C66.3996 7.15056 66.3858 7.15056 66.4202 7.13679C66.5166 7.07481 66.4684 6.89576 66.3651 6.93707C66.2274 6.98528 66.2274 6.74425 66.3651 6.60651C66.4684 6.5101 67.1158 6.28973 67.6254 6.18642C67.7494 6.15888 67.8389 6.12444 67.8251 6.10378C67.7218 6.00048 66.0483 6.53765 65.401 6.88198C65.2908 6.94396 65.0222 7.0817 64.8156 7.19877C64.3818 7.42603 63.4383 8.14914 63.4383 8.24555C63.4383 8.27998 63.5209 8.23866 63.6311 8.14225C63.9341 7.87367 64.1338 7.78414 64.2234 7.87367C64.2785 7.92876 64.2716 7.94254 64.1821 7.9081C64.0925 7.87367 64.065 7.89433 64.0788 8.00451C64.0856 8.1147 64.1063 8.12848 64.1889 8.05961C64.2509 8.00451 64.2716 8.00452 64.244 8.05272C64.2165 8.09404 64.2647 8.19046 64.3404 8.25932C64.4162 8.32819 64.4575 8.4246 64.4437 8.47281C64.3955 8.59677 64.547 8.83781 64.6641 8.83781C64.7123 8.83781 64.7399 8.86535 64.7123 8.90667C64.6917 8.94111 64.7123 9.03063 64.7605 9.10639C64.8294 9.21658 64.8225 9.26478 64.7261 9.37497C64.5815 9.52648 64.6572 9.63666 64.8087 9.49893C64.9602 9.36119 65.1737 9.33365 65.2151 9.45072C65.2357 9.50582 65.2151 9.52648 65.1669 9.49893C65.0704 9.43695 65.0704 9.54714 65.1669 9.64355C65.2082 9.68487 65.2977 9.70553 65.3597 9.68487C65.4561 9.65733 65.4561 9.66421 65.3666 9.72619C65.277 9.78817 65.2839 9.81572 65.401 9.92591C65.4768 9.99477 65.5801 10.043 65.6283 10.0223C65.6696 10.0085 65.7109 10.0499 65.7109 10.1118C65.7109 10.1807 65.6765 10.2014 65.6283 10.1738C65.5801 10.1463 65.5732 10.1532 65.6007 10.2083C65.6283 10.2496 65.6145 10.3391 65.5594 10.4011C65.4836 10.4975 65.4836 10.5113 65.5732 10.4562C65.6283 10.4286 65.7384 10.346 65.8142 10.284C65.9795 10.1325 66.8748 9.6711 67.6392 9.34054C67.7976 9.27167 67.7907 9.26478 67.5634 9.29922C67.3568 9.32676 67.3086 9.3061 67.2466 9.16837L67.164 9.00997V9.19592C67.1571 9.29922 67.1296 9.39563 67.0951 9.41629C67.0607 9.44384 67.0607 9.34742 67.0951 9.19592C67.164 8.89979 67.1089 8.62432 67.0125 8.77583C66.9712 8.8378 66.9574 8.76894 66.9781 8.57611C66.9918 8.41772 67.0125 8.26621 67.0331 8.25244C67.102 8.17668 68.2452 7.88744 68.624 7.83923C69.0027 7.79791 69.0165 7.8048 69.0234 7.95631C69.0372 8.10781 69.0372 8.10782 69.0647 7.97008C69.0854 7.85301 69.1611 7.81169 69.4159 7.77725C69.7121 7.74282 71.0619 7.82546 71.1238 7.89433C71.1376 7.9081 71.0963 8.16291 71.0343 8.45215L70.9172 8.98932L70.3594 8.94799C70.0289 8.92045 69.8498 8.92733 69.9118 8.96177C69.9669 8.9962 70.2355 9.04441 70.5109 9.07195C70.7864 9.09262 71.1858 9.16148 71.4062 9.21658C71.8194 9.32676 72.7216 9.65044 72.8386 9.73308C72.9351 9.80194 73.1485 9.87081 73.1485 9.83638C73.1485 9.82261 73.0521 9.75374 72.9419 9.69864C72.7767 9.616 72.7491 9.5678 72.7973 9.47138C72.8318 9.4094 72.8386 9.2579 72.8249 9.14082C72.7973 8.97554 72.818 8.92733 72.9075 8.92733C72.9695 8.92733 73.0039 8.96865 72.9833 9.02375C72.9557 9.07884 72.9764 9.0995 73.0177 9.07195C73.059 9.05129 73.0797 8.96865 73.059 8.89979C73.0384 8.83092 73.059 8.78271 73.1072 8.7896C73.1485 8.79649 73.1761 8.74828 73.1761 8.67941C73.1623 8.53479 73.3965 8.52102 73.5549 8.65875C73.6168 8.70696 73.8097 8.82403 73.9818 8.92045C74.3262 9.0995 75.1457 9.73308 75.1457 9.81572C75.1457 9.85015 75.0562 9.95345 74.9391 10.0568C74.7394 10.2289 74.6636 10.4217 74.7945 10.4217C74.8289 10.4217 74.9046 10.3529 74.9666 10.2634C75.0768 10.1118 75.0768 10.1118 75.0011 10.2978C74.9391 10.4424 74.8771 10.4768 74.7187 10.4768C74.6016 10.47 74.4846 10.5113 74.457 10.5595C74.4295 10.6077 74.3537 10.6283 74.2917 10.6077C74.2022 10.5733 74.2022 10.5939 74.2642 10.7317C74.3055 10.8281 74.3744 10.9038 74.4157 10.9038C74.519 10.9038 74.9115 11.3308 75.2834 11.8335C75.5795 12.2467 75.7655 12.4671 75.6691 12.2949C75.6415 12.2467 75.5933 12.1159 75.5589 12.0057C75.5107 11.8473 75.5245 11.8129 75.6002 11.8473C75.6553 11.868 75.676 11.9162 75.6553 11.9644C75.6346 12.0057 75.6622 11.985 75.7173 11.9231C75.7724 11.8542 75.8275 11.8197 75.8481 11.8404C75.8688 11.8542 75.9032 11.8266 75.9239 11.7647C75.9514 11.7096 75.9308 11.6614 75.8894 11.6614C75.8481 11.6614 75.8344 11.6407 75.855 11.62C75.8826 11.5925 75.9514 11.6131 76.0065 11.6614C76.096 11.7371 76.1167 11.7371 76.096 11.6614C76.0823 11.6063 76.1718 11.5512 76.3164 11.5167C76.5161 11.4685 76.5781 11.4892 76.6745 11.6131C76.8467 11.8266 77.3219 12.8114 77.4252 13.1627C77.5009 13.4244 77.494 13.4657 77.377 13.5552C77.2668 13.6447 77.2668 13.6516 77.3701 13.6172C77.5147 13.5621 77.5285 13.6998 77.377 13.7549C77.2255 13.81 77.1291 13.81 77.1704 13.7411C77.2048 13.6792 76.9707 13.6585 76.7434 13.6998C76.6539 13.7205 76.6057 13.7618 76.6263 13.7962C76.647 13.8376 76.6057 13.8651 76.5299 13.8651C76.4542 13.8651 76.3577 13.81 76.3233 13.7411C76.2131 13.5621 76.2269 13.7687 76.344 14.1061C76.3991 14.2576 76.461 14.6226 76.4886 14.9119C76.523 15.2562 76.5712 15.4559 76.6332 15.4766C76.6814 15.4972 76.9913 15.5523 77.3219 15.5937L77.9141 15.6763L77.8728 16.2341C77.7971 17.1363 77.6938 17.6803 77.5905 17.763C77.5354 17.8043 77.5147 17.8594 77.5354 17.8869C77.5629 17.9145 77.5009 17.9076 77.3976 17.8663C77.2943 17.825 77.1566 17.8181 77.0946 17.8387C76.9844 17.88 76.9844 17.8732 77.0671 17.763C77.1566 17.6528 77.1497 17.6459 76.9913 17.6872C76.8811 17.7148 76.7847 17.6941 76.709 17.6252C76.6539 17.5633 76.5712 17.5151 76.5368 17.5151C76.4955 17.5151 76.4817 17.3842 76.4955 17.2189C76.5161 16.9779 76.5024 17.0123 76.3922 17.398C76.22 18.0109 75.9721 18.6927 75.8688 18.8235C75.8275 18.8786 75.7586 19.0095 75.7173 19.1059C75.676 19.2092 75.4418 19.4571 75.1939 19.6568C74.8702 19.9254 74.698 20.1389 74.5534 20.435C74.4157 20.7243 74.2504 20.924 74.0094 21.1099C73.8234 21.2545 73.6375 21.3992 73.5962 21.4267C72.7835 22.0534 71.1376 22.6112 70.0977 22.6112C69.7878 22.6112 69.7741 22.6181 69.8016 22.7834C69.836 22.9762 69.7258 23.0933 69.6639 22.928C69.6432 22.866 69.5881 22.8385 69.5468 22.866C69.5055 22.8867 69.4986 22.8729 69.5261 22.8316C69.6157 22.687 69.471 22.5768 69.1887 22.5699C69.0372 22.5699 68.7617 22.5492 68.5689 22.5217C68.321 22.4941 68.2796 22.4941 68.4243 22.5423C68.5276 22.5768 68.7824 22.625 68.9821 22.6456L69.354 22.6939L69.3746 23.2586C69.3884 23.5616 69.3677 23.837 69.3333 23.8646C69.2369 23.9335 68.562 23.8508 67.9491 23.6993C67.3499 23.5478 67.2122 23.4789 67.2742 23.3274C67.2948 23.2723 67.2742 23.231 67.2329 23.231C67.1915 23.231 67.1571 23.2586 67.1571 23.2999C67.1571 23.3343 67.102 23.3688 67.04 23.3688C66.9367 23.3619 66.9367 23.3481 67.0745 23.2379C67.1571 23.1622 67.226 23.0657 67.2329 23.0106C67.2329 22.9624 67.2604 22.9762 67.288 23.052C67.3224 23.1484 67.3637 23.0726 67.4532 22.749C67.5565 22.3908 67.591 22.3289 67.6943 22.3702C67.7563 22.4046 67.9078 22.4322 68.0179 22.4459C68.135 22.4597 68.0042 22.3977 67.7356 22.3082C67.1158 22.1016 66.4684 21.7779 66.0415 21.4749C65.6971 21.2201 65.401 21.1375 65.7247 21.3785C65.8762 21.4956 65.9037 21.5438 65.8486 21.6471C65.8142 21.7159 65.8004 21.8261 65.8211 21.8812C65.8555 21.9639 65.8349 21.9845 65.7522 21.9501C65.6489 21.9088 65.6076 21.9845 65.6351 22.1498C65.642 22.1842 65.6145 22.1911 65.5801 22.1636C65.5387 22.1429 65.4768 22.1911 65.4354 22.2738C65.3184 22.4804 65.2633 22.384 65.098 21.7022C65.0153 21.3716 64.9189 21.0204 64.8845 20.9171C64.7743 20.6278 64.8638 20.6347 65.16 20.924C65.3115 21.0686 65.4561 21.1719 65.4768 21.1443C65.5043 21.1237 65.4148 21.0135 65.2908 20.9102C64.7536 20.4626 64.127 19.6706 63.7826 19.0095L63.5554 18.5618L63.3556 18.7065C63.2523 18.7822 63.1628 18.8786 63.1628 18.9062C63.1628 18.9406 63.1353 18.9544 63.1008 18.9337C63.0251 18.8855 62.8116 18.9613 62.846 19.0232C62.8598 19.0439 62.7565 19.0577 62.6119 19.0439C62.364 19.0164 62.3364 18.9957 62.2056 18.6651C61.9439 18.004 61.7648 17.1294 61.8406 16.9159C61.8888 16.792 61.9163 16.7644 61.9163 16.847C61.9232 16.9572 61.9645 16.9641 62.2538 16.9228C62.4328 16.8953 62.5981 16.8402 62.6257 16.8057C62.6532 16.7506 62.729 16.7575 62.8529 16.8126L63.032 16.8953L63.0113 16.4476C62.9907 15.9311 62.8942 15.8416 62.8736 16.3237C62.8667 16.6473 62.8667 16.6473 62.8391 16.3787C62.8254 16.2272 62.7772 16.0688 62.729 16.0344C62.6257 15.9449 62.5774 15.697 62.6739 15.7589C62.7152 15.7796 62.7496 15.7796 62.7565 15.7452C62.7841 15.4559 62.7978 15.3733 62.8391 15.3389C62.8598 15.3182 62.8667 15.4146 62.8529 15.5592C62.8391 15.7934 62.846 15.8072 62.9287 15.6901C62.9838 15.6143 63.0251 15.4077 63.0182 15.1805C63.0113 14.967 62.9975 14.8499 62.9769 14.9119C62.9631 14.9739 62.908 15.0221 62.8667 15.0083C62.8185 15.0014 62.8047 15.0014 62.8391 15.0152C62.9562 15.084 62.8736 15.1736 62.6739 15.1736C62.3915 15.1736 62.1436 15.0427 62.2744 14.9601C62.3364 14.9257 62.2813 14.905 62.1092 14.9119C61.9714 14.9188 61.8337 14.8981 61.8061 14.8706C61.7097 14.7741 62.1023 13.0731 62.2675 12.8803C62.2951 12.8528 62.4535 12.8872 62.6325 12.9629C62.8047 13.0387 63.0182 13.08 63.1077 13.0594C63.2248 13.0387 63.2386 13.0456 63.1697 13.0938C63.094 13.1489 63.1077 13.1695 63.2248 13.2109C63.3419 13.2453 63.3625 13.2935 63.335 13.4381C63.3074 13.5621 63.3488 13.5139 63.4452 13.3142C63.8515 12.4671 63.941 12.3087 64.0443 12.2123C64.1063 12.1503 64.1683 12.0608 64.1821 12.0126C64.1889 11.9644 64.2854 11.8129 64.3887 11.6751L64.5746 11.4272L64.3818 11.5581C64.2647 11.6338 64.1958 11.6476 64.2096 11.5994C64.2234 11.5512 64.065 11.3721 63.8653 11.1999C63.6655 11.0278 63.5209 10.9314 63.5485 10.9933C63.576 11.076 63.5554 11.1104 63.4727 11.1104C63.3281 11.1104 63.3901 10.8694 63.5898 10.6559C63.6724 10.5595 63.7 10.4906 63.6518 10.4631C63.6105 10.4355 63.5416 10.4768 63.4934 10.5595C63.3832 10.7316 63.335 10.7317 63.0733 10.5457C62.9493 10.4562 62.7978 10.4011 62.7358 10.408C62.6463 10.4217 62.6257 10.4011 62.6532 10.3253C62.6807 10.2496 62.6532 10.2151 62.5774 10.2151C62.5155 10.2151 62.4879 10.1807 62.5086 10.1463C62.5292 10.105 62.4948 10.0568 62.4259 10.0292C62.3571 10.0017 62.2675 9.93968 62.2262 9.88458C62.1642 9.80194 62.1367 9.79506 62.0954 9.87081C62.0609 9.93279 62.0678 9.94657 62.116 9.91213C62.1642 9.88459 62.1987 9.89836 62.1987 9.93279C62.1987 9.97411 62.1505 10.0085 62.0885 10.0085C62.0127 10.0085 61.9921 9.97411 62.0196 9.89836C62.0403 9.83638 62.0609 9.76062 62.0609 9.72619C62.0609 9.68487 62.3571 9.34742 62.729 8.96865C63.094 8.59677 63.3694 8.28687 63.3488 8.28687C63.2317 8.28687 62.1711 9.43006 61.8475 9.90524C61.6409 10.2083 61.4549 10.47 61.4274 10.4906C61.3378 10.5595 60.6836 11.8955 60.6836 12.0195C60.6836 12.0883 60.6561 12.1434 60.6285 12.1434C60.5596 12.1434 60.3806 12.7563 60.4288 12.8114C60.4495 12.8321 60.4908 12.7563 60.5183 12.653C60.5941 12.3363 60.7456 12.0746 60.8558 12.0746C60.9109 12.0746 60.9591 12.1021 60.9591 12.1365C60.9591 12.2261 61.3792 12.412 61.4962 12.3638C61.5582 12.3431 61.5858 12.3569 61.5582 12.3982C61.5307 12.4396 61.5651 12.4946 61.6271 12.5153C61.696 12.5429 61.7235 12.5429 61.7028 12.5153C61.634 12.4533 61.8199 12.2812 61.9508 12.2812C62.1092 12.2812 62.0885 12.3982 61.9232 12.4396C61.7924 12.474 61.7235 12.6255 61.8406 12.6255C61.875 12.6255 61.9508 12.6668 62.0196 12.715C62.1298 12.7977 62.1298 12.8321 61.9714 13.3142C61.8819 13.5965 61.7648 14.0579 61.7166 14.3265L61.6271 14.8292L61.207 14.8086C60.9728 14.8017 60.6354 14.8155 60.4426 14.843C60.2291 14.8706 60.1602 14.8706 60.2704 14.8292C60.3668 14.8017 60.4013 14.7741 60.353 14.7673C60.3048 14.7604 60.2842 14.7259 60.3048 14.6915C60.3255 14.6502 60.298 14.6226 60.2429 14.6226C60.1671 14.6226 60.1327 14.5607 60.1327 14.4229C60.1327 14.237 60.2911 13.3968 60.3806 13.0731C60.4081 12.9836 60.4013 12.9561 60.353 13.0043C60.3186 13.0387 60.2291 13.3348 60.1671 13.6585C60.0294 14.3127 59.9536 16.8815 60.0638 17.1501C60.1327 17.3153 60.3393 17.3016 60.3393 17.1294C60.3393 17.0605 60.4839 17.0399 60.9866 17.0536L61.6409 17.0674L61.7855 17.6597C61.8612 17.9834 61.9852 18.4103 62.0609 18.6169C62.1367 18.8235 62.1918 18.9957 62.178 19.0026C62.1711 19.0095 62.0403 18.9888 61.8888 18.9475C61.6477 18.8855 61.5651 18.8993 61.2208 19.0577C60.7731 19.2643 60.6836 19.2781 60.6836 19.1403C60.6836 19.0852 60.6492 19.0164 60.6079 18.9888C60.5459 18.9544 60.539 18.9957 60.5734 19.1197C60.6079 19.2574 60.5872 19.3194 60.4839 19.3745C60.3668 19.4364 60.3324 19.4158 60.2429 19.223C60.1396 18.975 59.9054 18.2657 59.7952 17.825C59.6506 17.2534 59.5748 15.7521 59.6506 14.9463C59.7332 14.113 59.8297 13.5208 59.9261 13.2453C59.9605 13.1489 60.0018 12.9974 60.0225 12.901C60.05 12.7357 60.174 12.3707 60.3875 11.868C60.5803 11.3928 61.0555 10.5182 61.331 10.1187C61.4894 9.89836 61.6615 9.64355 61.7166 9.56091C61.9714 9.17525 63.2317 7.93565 63.6105 7.7015C63.7275 7.62575 63.9272 7.48112 64.0581 7.38471C64.1889 7.28141 64.547 7.06792 64.8501 6.90264C65.1531 6.74425 65.4354 6.59274 65.4699 6.5652C65.5594 6.5101 66.5649 6.11756 66.8816 6.02114C67.288 5.89718 68.197 5.72502 68.741 5.66992C69.5399 5.58039 71.0343 5.64926 71.7712 5.80766ZM65.0222 7.3916C64.8845 7.48112 64.7261 7.48112 64.7812 7.3916C64.8019 7.35028 64.8914 7.32273 64.974 7.32273C65.098 7.32273 65.1049 7.3365 65.0222 7.3916ZM66.6268 7.77037C66.5924 7.85989 66.4684 7.92188 66.4684 7.84612C66.4684 7.74282 66.5649 7.60509 66.6131 7.63263C66.6406 7.65329 66.6544 7.71527 66.6268 7.77037ZM73.4929 7.88744C73.4929 8.01829 73.4791 8.02518 73.424 7.94254C73.3345 7.81169 73.3345 7.73594 73.424 7.73594C73.4653 7.73594 73.4929 7.8048 73.4929 7.88744ZM73.2174 8.05272C73.2174 8.10782 73.1761 8.14914 73.121 8.14914C73.059 8.14914 73.0384 8.10093 73.059 8.0114C73.1003 7.8599 73.2174 7.88744 73.2174 8.05272ZM66.6062 8.13536C66.6062 8.22489 66.5235 8.28687 66.4547 8.24555C66.3858 8.20423 66.4478 8.08027 66.5442 8.08027C66.5786 8.08027 66.6062 8.10781 66.6062 8.13536ZM65.6076 8.6312C65.6283 8.66564 65.5869 8.70007 65.5112 8.70007C65.4285 8.70007 65.3666 8.66564 65.3666 8.6312C65.3666 8.58989 65.4079 8.56234 65.463 8.56234C65.5181 8.56234 65.5869 8.58989 65.6076 8.6312ZM71.1238 8.8929C71.0481 8.96177 71.0205 8.86535 71.0688 8.70007L71.117 8.52791L71.1376 8.6863C71.1514 8.77583 71.1445 8.86535 71.1238 8.8929ZM76.7641 8.97554C76.8742 9.08573 76.9362 9.2028 76.9156 9.23035C76.888 9.2579 76.8192 9.20969 76.7641 9.12705C76.7021 9.05129 76.6126 8.93422 76.5506 8.87224C76.4955 8.81715 76.4748 8.76894 76.5024 8.76894C76.5368 8.76894 76.6539 8.85847 76.7641 8.97554ZM72.6665 8.96865C72.6665 9.08573 72.5425 9.11328 72.5012 9.00997C72.4805 8.94799 72.5012 8.90667 72.5632 8.90667C72.6183 8.90667 72.6665 8.93422 72.6665 8.96865ZM76.1098 9.33365C76.1098 9.42318 75.8137 9.37497 75.7861 9.27856C75.7724 9.23035 75.8275 9.20969 75.9377 9.23035C76.0341 9.25101 76.1098 9.29922 76.1098 9.33365ZM77.2324 9.49893C77.4114 9.73996 77.3494 9.76062 77.1566 9.51959C77.0671 9.4094 77.0189 9.31988 77.0533 9.31988C77.0808 9.31988 77.1635 9.40252 77.2324 9.49893ZM75.7724 9.85704C75.7104 9.8777 75.7173 9.91213 75.7793 9.99477C75.8619 10.0912 75.855 10.0912 75.7173 10.0085C75.5795 9.91902 75.5795 9.90524 75.6828 9.73997C75.7861 9.58157 75.7999 9.58157 75.8275 9.69864C75.8412 9.7744 75.8137 9.84327 75.7724 9.85704ZM77.9692 10.5044C77.9692 10.5319 77.9004 10.5733 77.8177 10.6008C77.7282 10.6283 77.6387 10.6766 77.618 10.7179C77.5905 10.7592 77.5009 10.7248 77.4114 10.6283L77.2461 10.4768L77.5423 10.5044C77.7006 10.5182 77.8315 10.525 77.8315 10.5113C77.8315 10.5044 77.7971 10.4149 77.7626 10.3047L77.6938 10.1118L77.8315 10.284C77.9073 10.3804 77.9692 10.4768 77.9692 10.5044ZM61.4411 10.9796C61.4067 11.1035 61.331 11.2482 61.269 11.317C61.2139 11.379 61.1657 11.4754 61.1657 11.5236C61.1657 11.5718 61.145 11.5994 61.1244 11.5718C61.0968 11.5512 61.1037 11.4754 61.1312 11.4065C61.1657 11.3377 61.1932 11.2482 61.2001 11.2068C61.2208 11.1173 61.4411 10.7661 61.4756 10.7661C61.4894 10.7661 61.4756 10.8625 61.4411 10.9796ZM63.9548 11.317C64.0099 11.3997 63.7964 11.3583 63.7 11.2619C63.6449 11.2068 63.6655 11.1999 63.7757 11.2275C63.8584 11.2482 63.941 11.2895 63.9548 11.317ZM62.8529 12.6668C62.9424 12.7012 62.9493 12.7219 62.8736 12.7701C62.8254 12.8045 62.729 12.8321 62.6532 12.8321C62.5499 12.8321 62.543 12.8114 62.6119 12.7288C62.7083 12.6117 62.7014 12.6117 62.8529 12.6668ZM77.5147 13.9271C77.5698 14.0097 77.4941 14.2094 77.4114 14.2094C77.377 14.2094 77.3494 14.1337 77.3494 14.0373C77.3494 13.8651 77.4458 13.8031 77.5147 13.9271ZM62.2951 16.7506C62.3158 16.7851 62.2882 16.8333 62.2262 16.8539C62.0747 16.9159 62.0609 16.909 62.0609 16.792C62.0609 16.6818 62.2331 16.6473 62.2951 16.7506ZM79.4499 19.0715C80.0421 19.4709 80.8272 19.9874 81.1922 20.2146C81.5572 20.4419 81.9635 20.7243 82.0875 20.8413C82.2803 21.0273 82.3079 21.0961 82.3079 21.4198C82.3079 21.6333 82.1632 22.3495 81.9566 23.1415C81.571 24.6703 81.5021 24.7874 81.0614 24.7254L80.8066 24.691L80.9443 24.9251C81.1647 25.297 81.0269 25.6207 80.5517 25.8893C80.476 25.9375 80.1179 26.1579 79.7529 26.3851C78.6992 27.0531 78.2654 27.2529 77.7971 27.2804C77.4045 27.3079 77.3563 27.2873 76.9156 27.0049C75.676 26.213 74.8427 25.6483 74.2022 25.1662C73.3758 24.5533 73.3138 24.4018 73.7546 24.085C74.1265 23.8026 74.1815 23.7406 73.8854 23.9128C73.5824 24.0987 73.424 24.0299 73.424 23.72C73.424 23.4101 74.7738 20.3386 75.0286 20.0769C75.1526 19.9529 75.5313 19.6568 75.8688 19.4296C76.2131 19.1954 76.647 18.8855 76.8467 18.7409C77.3357 18.3897 77.6869 18.4034 77.6938 18.7822C77.7007 18.8924 77.7213 18.8786 77.7902 18.7133C77.8935 18.4792 78.0656 18.3483 78.2585 18.3415C78.3273 18.3415 78.8645 18.672 79.4499 19.0715ZM61.9576 19.1334C62.0954 19.1885 62.2262 19.2987 62.2675 19.3882C62.3295 19.5466 62.3295 19.5466 62.3295 19.3951C62.3364 19.3125 62.364 19.2298 62.3984 19.2092C62.5017 19.1403 64.5264 20.5245 64.6366 20.7311C64.8363 21.1306 65.5456 24.1332 65.4768 24.3122C65.4561 24.3604 65.3803 24.4018 65.3115 24.4018C65.2082 24.4018 65.1944 24.4431 65.2151 24.6359C65.2426 24.8632 65.2288 24.8769 64.733 25.1455C64.4575 25.297 63.9823 25.5243 63.6793 25.6414C63.3763 25.7584 62.7772 26.0132 62.3502 26.1992C61.9232 26.3851 61.51 26.5366 61.4343 26.5366C61.269 26.5366 60.0913 25.9719 59.3614 25.5381C58.838 25.2282 58.8311 25.2282 58.9068 25.0216C58.9413 24.9045 59.0101 24.815 59.0515 24.815C59.0997 24.8081 59.017 24.7461 58.8793 24.6703C58.7347 24.6015 58.5694 24.4431 58.5074 24.326C58.4454 24.2089 58.3284 23.5547 58.2319 22.8316C58.1424 22.1223 58.0529 21.4749 58.0322 21.3992C58.0116 21.3165 58.0322 21.1512 58.0735 21.0342C58.1355 20.862 58.287 20.7449 58.9619 20.373C59.8847 19.8703 61.5651 19.0301 61.6615 19.0301C61.696 19.0301 61.8268 19.0783 61.9576 19.1334ZM66.0552 21.6746C66.1172 21.7573 66.1103 21.7779 66.0001 21.7642C65.9175 21.7642 65.8762 21.7228 65.8968 21.6677C65.9382 21.5576 65.9519 21.5576 66.0552 21.6746ZM73.5893 21.7435C73.5686 21.8055 73.4998 21.8537 73.4378 21.8537C73.3483 21.8537 73.3551 21.833 73.4584 21.7159C73.5962 21.5575 73.6582 21.5713 73.5893 21.7435ZM73.1348 22.1016C73.183 22.198 73.245 22.26 73.2794 22.2393C73.3689 22.1774 73.4998 22.3702 73.4516 22.4941C73.4309 22.5492 73.4447 22.6594 73.486 22.7352C73.5962 22.9487 73.4033 23.1139 72.7698 23.355C71.902 23.6855 71.6817 23.7475 71.6472 23.6511C71.6335 23.6098 71.599 23.5891 71.5646 23.6098C71.5371 23.6304 71.4888 23.596 71.4682 23.534C71.4475 23.4789 71.4544 23.4514 71.4957 23.4721C71.5853 23.5271 71.5853 23.4927 71.4544 23.0106C71.3993 22.7765 71.3718 22.5699 71.4062 22.5423C71.4338 22.5148 71.6679 22.4253 71.9227 22.3426C72.1775 22.2531 72.5012 22.1291 72.6458 22.0603C72.9901 21.8881 73.0452 21.8881 73.1348 22.1016ZM67.4946 22.384C67.4946 22.4184 67.467 22.501 67.4326 22.5768C67.3775 22.7007 67.3706 22.6939 67.3706 22.5217C67.3637 22.4184 67.3981 22.3357 67.4326 22.3357C67.4739 22.3357 67.5014 22.3564 67.4946 22.384ZM65.8349 22.5423C65.7867 22.6181 65.704 22.6801 65.6489 22.6801C65.5732 22.6801 65.5801 22.6456 65.6765 22.5423C65.7453 22.4666 65.828 22.4046 65.8624 22.4046C65.89 22.4046 65.8831 22.4666 65.8349 22.5423ZM67.2948 22.5492C67.2948 22.5837 67.2053 22.6112 67.0882 22.6112C66.9781 22.6112 66.8816 22.5837 66.8816 22.5561C66.8816 22.5217 66.9781 22.4941 67.0882 22.4873C67.2053 22.4873 67.2948 22.5148 67.2948 22.5492ZM73.2587 23.5409C73.2243 23.6924 73.245 23.8439 73.3138 23.9748C73.3689 24.085 73.4033 24.1883 73.3896 24.2089C73.3689 24.2227 73.3483 24.3673 73.3345 24.5188C73.3138 24.7668 73.3345 24.815 73.5066 24.9183C73.6099 24.9802 73.6995 25.056 73.6995 25.0835C73.6995 25.18 73.0452 25.4141 72.15 25.6483C71.4475 25.8273 71.1514 25.8686 70.201 25.8962C68.803 25.9444 67.956 25.8342 66.6888 25.4279C65.6971 25.1042 65.4354 24.9802 65.4354 24.815C65.4354 24.6015 65.5869 24.5877 65.9933 24.7668C66.1999 24.8563 66.5235 24.9665 66.7095 25.0216C66.9023 25.0698 67.0814 25.1386 67.1227 25.1662C67.1571 25.2006 67.2811 25.2282 67.3981 25.2213C67.5565 25.2144 67.4946 25.18 67.1296 25.0698C66.8679 24.9871 66.6406 24.8769 66.6199 24.8287C66.5855 24.7185 66.737 24.5257 66.8197 24.5808C66.9023 24.629 66.8954 24.5602 66.8128 24.3949C66.7508 24.2916 66.7646 24.264 66.8472 24.264C66.9023 24.264 66.9849 24.1814 67.0194 24.085C67.1089 23.8577 67.102 23.7888 67.0125 23.9197C66.9574 24.0092 66.9436 24.0023 66.9643 23.899C66.9781 23.8302 67.0125 23.782 67.0469 23.782C67.0814 23.7888 67.1296 23.7613 67.1502 23.72C67.1847 23.6718 67.3844 23.6924 67.7769 23.7888C68.1006 23.8715 68.562 23.9541 68.8099 23.9748L69.2576 24.023L69.2782 24.6979C69.2989 25.3384 69.292 25.3728 69.1405 25.4348C68.8926 25.5312 70.6142 25.5174 71.2547 25.4141C71.847 25.3177 72.2395 25.1662 71.9158 25.1593C71.7781 25.1593 71.7643 25.1386 71.8263 25.0767C71.8745 25.0284 71.9089 24.932 71.9089 24.8494C71.9089 24.7323 71.8952 24.7254 71.8332 24.815C71.7712 24.8976 71.7643 24.8838 71.7987 24.753C71.847 24.5395 71.7712 24.1883 71.6886 24.2365C71.6266 24.2778 71.6886 23.9128 71.7643 23.8439C71.785 23.8233 71.9778 23.7475 72.1844 23.6855C72.391 23.6236 72.6251 23.5409 72.7009 23.5134C72.7767 23.4789 72.9144 23.4238 73.0108 23.3825C73.2794 23.2655 73.3069 23.2861 73.2587 23.5409ZM69.4091 24.6221C69.3953 24.7117 69.3815 24.6428 69.3815 24.4706C69.3815 24.2985 69.3953 24.2296 69.4091 24.3122C69.4228 24.4018 69.4228 24.5395 69.4091 24.6221ZM65.5456 25.1524C65.9933 25.3659 67.04 25.7033 67.7563 25.8617C68.3278 25.9926 68.6446 26.0132 69.8085 26.0132C71.3373 26.0132 71.9709 25.9168 73.1417 25.4967C74.0163 25.1868 73.9543 25.18 74.4846 25.5656L74.9529 25.9031L74.6912 26.0408C74.3124 26.2336 73.1899 26.6468 72.7009 26.7708C70.0357 27.4526 67.0814 27.1564 64.733 25.9788C64.4369 25.8273 64.1958 25.6827 64.1958 25.6551C64.1958 25.6276 64.4369 25.4761 64.733 25.3177C65.0222 25.1593 65.2633 25.0284 65.2702 25.0216C65.2702 25.0216 65.3941 25.0767 65.5456 25.1524ZM64.2854 26.1234C64.6159 26.2887 64.8845 26.454 64.8845 26.4815C64.8845 26.5848 64.5402 27.0876 64.4713 27.0876C64.43 27.0876 64.4024 27.1289 64.4024 27.184C64.4024 27.3699 64.1958 27.5008 63.8997 27.5008C63.2868 27.5008 61.8406 27.06 61.6133 26.8121C61.4962 26.6813 61.4962 26.6744 61.7442 26.5711C61.8819 26.5091 62.0334 26.4815 62.0747 26.5091C62.116 26.5366 62.1918 26.5091 62.2331 26.4402C62.3089 26.3369 63.5622 25.7722 63.6449 25.8066C63.6655 25.8135 63.9479 25.9513 64.2854 26.1234ZM75.8344 26.516C76.5575 26.9567 76.5575 26.943 75.7999 27.2597L75.3661 27.4457L74.7394 27.122C74.3055 26.9016 74.1127 26.7639 74.1264 26.6881C74.1402 26.6331 74.3813 26.4815 74.6636 26.3576C74.946 26.2405 75.187 26.1372 75.187 26.1303C75.1939 26.1234 75.4831 26.3025 75.8344 26.516Z" fill="#151515"/>
<path d="M75.1176 7.51557C75.3655 7.72905 75.696 7.93566 75.696 7.88745C75.696 7.81858 75.2071 7.46047 75.1107 7.46047C75.0762 7.46047 75.0762 7.48802 75.1176 7.51557Z" fill="#151515"/>
<path d="M69.0999 8.6381L69.0861 8.95489L68.6178 9.03753C68.363 9.08573 68.1082 9.1546 68.0531 9.18903C67.9705 9.24413 67.9774 9.25102 68.0876 9.22347C68.4112 9.13394 68.9897 9.04441 69.2307 9.04441C69.3823 9.04441 69.4993 9.00998 69.4993 8.96866C69.4993 8.92045 69.4305 8.90668 69.334 8.93423C69.1757 8.97555 69.1619 8.95489 69.1343 8.65187L69.1137 8.32131L69.0999 8.6381Z" fill="#151515"/>
<path d="M68.3547 9.69864C67.2941 9.93279 66.0476 10.6352 65.3452 11.379C65.2005 11.5374 65.049 11.6613 65.0146 11.6613C64.9802 11.6613 64.9526 11.6889 64.9526 11.7233C64.9526 11.7578 64.7873 12.0263 64.5876 12.3225C64.016 13.1695 63.713 14.0028 63.5891 15.0496C63.5408 15.4215 63.5477 15.5179 63.6235 15.5179C63.6786 15.5179 63.713 15.4353 63.713 15.3113C63.713 14.9532 63.9196 14.0648 64.1331 13.507C64.8493 11.6545 66.5917 10.2083 68.5681 9.82949C69.3601 9.67798 69.3601 9.67798 69.3601 9.60222C69.3601 9.50581 69.0915 9.53336 68.3547 9.69864Z" fill="#151515"/>
<path d="M69.9811 9.57469C69.9811 9.67799 70.1533 9.73309 70.4494 9.73309C71.0624 9.73997 72.1505 10.105 72.9769 10.587C73.5898 10.9451 74.6159 11.9713 74.9396 12.5429C75.1393 12.8941 75.215 12.9698 75.3528 12.963C75.4492 12.963 75.4905 12.9423 75.4423 12.9285C75.3941 12.9079 75.1875 12.6324 74.9809 12.3225C74.609 11.7647 73.9066 11.0416 73.335 10.6215C72.9355 10.3322 72.1298 9.96035 71.4687 9.76063C70.842 9.5678 69.9811 9.4645 69.9811 9.57469Z" fill="#151515"/>
<path d="M73.4248 10.0705C73.5556 10.1807 73.7622 10.3253 73.8724 10.3873C74.0721 10.4975 74.0721 10.4906 73.838 10.284C73.7071 10.1669 73.5074 10.0223 73.3903 9.96723C73.1906 9.86393 73.1906 9.86393 73.4248 10.0705Z" fill="#151515"/>
<path d="M65.0911 10.7867C64.8019 11.0553 64.5058 11.3859 64.554 11.3859C64.5677 11.3859 64.7055 11.2688 64.857 11.1173C65.3941 10.5939 65.5525 10.3598 65.0911 10.7867Z" fill="#151515"/>
<path d="M68.1896 10.9796C68.2171 11.1311 68.2791 11.2964 68.3273 11.3377C68.3962 11.4066 68.3962 11.3859 68.3342 11.2688C68.2929 11.1862 68.2584 11.0416 68.2584 10.9451C68.2584 10.8487 68.2309 10.7592 68.1965 10.7385C68.1689 10.7179 68.162 10.8281 68.1896 10.9796Z" fill="#151515"/>
<path d="M78.1759 10.7454C78.1759 10.7799 78.2448 10.8763 78.3205 10.9727L78.4583 11.1449L78.3481 10.9176C78.2448 10.711 78.1759 10.6352 78.1759 10.7454Z" fill="#151515"/>
<path d="M68.4663 10.8763C68.4663 10.9451 68.5009 11.0553 68.5355 11.1104C68.5909 11.1862 68.5978 11.1586 68.5632 11.0071C68.5078 10.7523 68.4663 10.6972 68.4663 10.8763Z" fill="#151515"/>
<path d="M78.5276 11.3859C78.5689 11.4961 78.6309 11.5925 78.6584 11.5925C78.6928 11.5925 78.6722 11.4961 78.6171 11.3859C78.5551 11.2688 78.5 11.1793 78.4862 11.1793C78.4725 11.1793 78.4931 11.2688 78.5276 11.3859Z" fill="#151515"/>
<path d="M67.6054 11.5994C67.6399 11.744 67.6123 11.806 67.4952 11.8955C67.4057 11.9506 67.3575 12.0195 67.3782 12.0401C67.3919 12.0608 67.4952 11.9988 67.5985 11.9024C67.7776 11.7371 67.7776 11.7233 67.6743 11.5718L67.5641 11.4203L67.6054 11.5994Z" fill="#151515"/>
<path d="M66.4411 11.5856C66.4205 11.62 66.4549 11.6338 66.5307 11.6131C66.6271 11.5856 66.6753 11.62 66.696 11.744C66.7304 11.8955 66.7304 11.8955 66.7235 11.7302C66.7097 11.558 66.5169 11.4547 66.4411 11.5856Z" fill="#151515"/>
<path d="M71.8746 11.6683C71.8469 11.7509 71.8538 11.8404 71.8884 11.868C71.9161 11.9024 71.9507 11.8404 71.9577 11.7233C71.9784 11.4892 71.9369 11.4617 71.8746 11.6683Z" fill="#151515"/>
<path d="M70.064 11.7027C70.0778 11.7853 70.1535 11.8335 70.2913 11.8473C71.1314 11.9093 72.2471 12.5084 72.8876 13.2522C73.3145 13.7411 73.8173 14.8843 73.7484 15.2149C73.7277 15.3388 73.7484 15.3802 73.8448 15.3802C74.0101 15.3802 74.017 15.1942 73.8655 14.6846C73.3972 13.1007 72.0267 11.9162 70.3188 11.6269C70.0709 11.5856 70.0433 11.5925 70.064 11.7027Z" fill="#151515"/>
<path d="M68.4793 11.8335C67.157 12.2881 66.0689 13.4106 65.7521 14.6571C65.697 14.8843 65.6282 15.1529 65.6075 15.2562L65.5731 15.4422L65.0015 15.4146C64.6296 15.394 64.485 15.4008 64.5745 15.4422C64.7329 15.5179 65.4629 15.5386 65.6901 15.4766C65.7935 15.449 65.8348 15.3871 65.8348 15.2562C65.821 14.6295 66.2893 13.7067 66.9642 13.018C67.5496 12.4258 68.1969 12.0677 68.9476 11.9162C69.2024 11.8611 69.3263 11.806 69.3057 11.744C69.2643 11.62 69.044 11.6476 68.4793 11.8335Z" fill="#151515"/>
<path d="M78.7963 12.0057C78.9478 12.3914 79.0029 12.4947 79.0029 12.3776C79.0029 12.2467 78.8169 11.7922 78.7343 11.7096C78.6861 11.6614 78.7136 11.7991 78.7963 12.0057Z" fill="#151515"/>
<path d="M79.0091 12.536C79.0091 12.5635 79.0368 12.653 79.0714 12.7288C79.1268 12.8596 79.1337 12.8596 79.1337 12.715C79.1406 12.6324 79.1129 12.5428 79.0714 12.5222C79.0368 12.5015 79.0021 12.5015 79.0091 12.536Z" fill="#151515"/>
<path d="M75.7716 12.5911C75.7716 12.6255 75.8474 12.7839 75.9369 12.9354C76.0333 13.0869 76.1091 13.1764 76.1091 13.142C76.1091 13.1007 76.0333 12.9492 75.9369 12.7977C75.8474 12.6462 75.7716 12.5498 75.7716 12.5911Z" fill="#151515"/>
<path d="M74.0293 13.0111C73.9191 13.0662 73.8364 13.1282 73.8364 13.142C73.8364 13.2108 73.9466 13.1695 74.1119 13.0387C74.3185 12.8803 74.2841 12.8665 74.0293 13.0111Z" fill="#151515"/>
<path d="M75.7512 13.1627C75.8545 13.266 75.9509 13.3486 75.9578 13.3348C76.0129 13.3073 75.7237 12.9767 75.6479 12.9698C75.6066 12.9698 75.6479 13.0594 75.7512 13.1627Z" fill="#151515"/>
<path d="M66.0544 13.266C65.9993 13.3142 65.9442 13.4106 65.9373 13.4864C65.9305 13.6034 65.9442 13.6034 66.0613 13.4519C66.2472 13.204 66.2472 13.1076 66.0544 13.266Z" fill="#151515"/>
<path d="M76.1108 13.3899C76.1592 13.4657 76.2077 13.5207 76.2215 13.5001C76.27 13.4519 76.1731 13.2453 76.1039 13.2453C76.0623 13.2453 76.0692 13.3073 76.1108 13.3899Z" fill="#151515"/>
<path d="M73.692 13.4588C73.6231 13.5001 73.6644 13.5208 73.8228 13.5208C73.9399 13.5208 74.0432 13.507 74.0432 13.4932C74.0432 13.4313 73.7746 13.4037 73.692 13.4588Z" fill="#151515"/>
<path d="M75.9855 13.6378C75.9785 13.7549 75.9508 13.9133 75.9301 13.9822C75.8955 14.0992 75.8955 14.0992 75.9716 13.9822C76.0131 13.9202 76.0339 13.7618 76.0201 13.6378L75.9924 13.4175L75.9855 13.6378Z" fill="#151515"/>
<path d="M74.023 13.9959C74.0022 14.0786 74.016 14.1406 74.0437 14.1406C74.1407 14.1406 74.1753 14.0373 74.1199 13.9408C74.0784 13.8789 74.0507 13.8926 74.023 13.9959Z" fill="#151515"/>
<path d="M74.711 14.0717C74.773 14.1337 74.773 14.1888 74.7248 14.2508C74.6697 14.3196 74.6903 14.3334 74.7936 14.3265C74.9796 14.3127 74.9727 14.2645 74.7868 14.0993C74.6972 14.0304 74.6697 14.0166 74.711 14.0717Z" fill="#151515"/>
<path d="M63.0598 14.3334C63.0322 14.4987 63.0252 14.6502 63.046 14.6708C63.1014 14.719 63.1845 14.237 63.1429 14.1268C63.1291 14.0786 63.0945 14.1681 63.0598 14.3334Z" fill="#151515"/>
<path d="M75.718 14.1888C75.6629 14.2094 75.656 14.2714 75.6973 14.3747C75.7249 14.4573 75.7731 14.7053 75.8006 14.9119C75.835 15.1598 75.8901 15.3182 75.9521 15.3388C76.0279 15.3733 76.0416 15.3388 76.0141 15.1873C75.9866 15.084 75.9383 14.8223 75.9039 14.5951C75.835 14.1474 75.835 14.1474 75.718 14.1888Z" fill="#151515"/>
<path d="M69.6914 14.6708C69.774 14.6846 69.898 14.6846 69.9668 14.6708C70.0288 14.6502 69.9599 14.6364 69.8084 14.6433C69.6569 14.6433 69.6018 14.6571 69.6914 14.6708Z" fill="#151515"/>
<path d="M74.6289 15.0152C74.6496 15.0703 74.6634 15.1323 74.6634 15.146C74.6634 15.1598 74.7391 15.1736 74.8355 15.1736C74.9319 15.1736 75.0077 15.146 75.0077 15.1116C75.0077 15.0772 74.9388 15.0634 74.8562 15.0909C74.746 15.1185 74.7184 15.1047 74.746 15.0221C74.7735 14.9601 74.746 14.9188 74.6909 14.9188C74.6289 14.9188 74.6014 14.9601 74.6289 15.0152Z" fill="#151515"/>
<path d="M74.3196 15.1736L74.0785 15.2218L74.2989 15.2355C74.416 15.2355 74.5399 15.208 74.5606 15.1736C74.5813 15.1322 74.595 15.1116 74.5813 15.1116C74.5675 15.1185 74.4504 15.146 74.3196 15.1736Z" fill="#151515"/>
<path d="M76.578 15.9036C76.5434 15.9311 76.5226 16.1721 76.5296 16.4407C76.5365 16.9021 76.5434 16.9159 76.5988 16.6542C76.6749 16.3443 76.6542 15.8209 76.578 15.9036Z" fill="#151515"/>
<path d="M79.4992 16.2754C79.4922 16.5234 79.4646 16.7988 79.4438 16.8952C79.4092 17.0399 79.4161 17.0467 79.4853 16.9503C79.5269 16.8746 79.5476 16.6198 79.5338 16.3305L79.513 15.8278L79.4992 16.2754Z" fill="#151515"/>
<path d="M75.8073 16.4821C75.7453 17.1432 75.4216 18.1211 75.0291 18.8235C74.6159 19.5535 73.6793 20.5177 72.9769 20.9309C72.0954 21.4474 71.0624 21.7848 70.3461 21.7848C70.0569 21.7848 69.9811 21.8055 69.9811 21.895C69.9811 21.9845 70.0431 21.9914 70.3806 21.957C70.8695 21.9019 71.9094 21.6609 72.0058 21.5851C72.0472 21.5507 72.2055 21.4887 72.3571 21.4405C72.5086 21.3923 72.8116 21.2339 73.0319 21.0893C73.2523 20.9377 73.4452 20.8207 73.4589 20.8207C73.5002 20.8207 74.5883 19.7257 74.7743 19.5122C75.1944 18.9957 75.6902 17.9214 75.8624 17.1363C76.0208 16.3925 76.0483 16 75.945 16C75.883 16 75.8417 16.1584 75.8073 16.4821Z" fill="#151515"/>
<path d="M74.1876 16.0964C74.2014 16.1102 74.3116 16.1377 74.4218 16.1653C74.5733 16.1997 74.6008 16.1928 74.5251 16.1377C74.4287 16.0757 74.1188 16.0344 74.1876 16.0964Z" fill="#151515"/>
<path d="M63.5753 16.427C63.5753 16.73 63.837 17.7492 64.0229 18.1693C64.0711 18.2795 64.1262 18.431 64.1469 18.493C64.2089 18.672 64.8149 19.5811 65.0559 19.8497C66.0201 20.9309 67.5007 21.7228 68.9263 21.9225C69.188 21.957 69.2913 21.9432 69.2913 21.8881C69.2913 21.8399 69.1329 21.7848 68.9125 21.7573C68.396 21.6953 67.4869 21.406 66.9498 21.1237C65.2901 20.2491 64.1676 18.7271 63.8095 16.847C63.6717 16.1446 63.5753 15.9656 63.5753 16.427Z" fill="#151515"/>
<path d="M73.7828 16.4063C73.7346 16.5509 73.7002 16.73 73.7002 16.7988C73.6933 17.0192 73.3834 17.701 73.101 18.1142C72.5157 18.9681 71.5033 19.6155 70.4772 19.7945C70.1811 19.8427 69.9882 19.9116 70.002 19.9529C70.0433 20.0631 70.5736 20.0149 71.0626 19.8496C72.6052 19.3469 73.7553 18.004 73.9481 16.4958C74.0032 16.0688 73.8999 16.0137 73.7828 16.4063Z" fill="#151515"/>
<path d="M64.6428 16.2685C64.7185 16.303 64.9045 16.303 65.056 16.2754C65.3177 16.2272 65.3039 16.2203 64.9182 16.2203C64.6428 16.2135 64.5533 16.2341 64.6428 16.2685Z" fill="#151515"/>
<path d="M65.6416 16.4752C65.6416 17.0812 66.1168 18.0453 66.7366 18.7064C67.2945 19.2918 67.9625 19.6981 68.7131 19.8978L69.2916 20.0562L69.2778 19.6981C69.2709 19.4502 69.2641 19.4089 69.2434 19.5604C69.209 19.8359 69.1332 19.8428 68.5616 19.6499C67.9005 19.4296 67.3013 19.0508 66.895 18.6169C66.3992 18.0866 65.8482 16.9779 65.8207 16.4683C65.8069 16.1308 65.6416 16.1377 65.6416 16.4752Z" fill="#151515"/>
<path d="M74.1335 16.6198C74.1473 16.6818 74.2506 16.73 74.3952 16.73C74.6087 16.7437 74.6087 16.7369 74.4228 16.7093C74.3126 16.6887 74.1886 16.6404 74.1611 16.5991C74.1198 16.544 74.1129 16.5509 74.1335 16.6198Z" fill="#151515"/>
<path d="M74.9459 16.7368C74.939 16.7851 74.8839 16.8057 74.8219 16.7851C74.7117 16.7506 74.7117 16.7575 74.8219 16.8264C74.9665 16.9159 75.0423 16.8815 74.9872 16.7437C74.9597 16.6818 74.9459 16.6818 74.9459 16.7368Z" fill="#151515"/>
<path d="M63.0322 17.1018C63.0322 17.1983 63.0599 17.336 63.0945 17.4118C63.1499 17.5357 63.1569 17.5357 63.1569 17.3773C63.1569 17.2809 63.1292 17.1432 63.0945 17.0674C63.0392 16.9435 63.0322 16.9435 63.0322 17.1018Z" fill="#151515"/>
<path d="M60.1396 17.4737C60.1327 17.5426 60.1671 17.7286 60.2084 17.887C60.2497 18.0385 60.3117 18.2933 60.353 18.4448C60.4632 18.8786 60.477 18.9131 60.5114 18.8786C60.5321 18.858 60.4563 18.5068 60.3462 18.0936C60.236 17.6803 60.1396 17.398 60.1396 17.4737Z" fill="#151515"/>
<path d="M63.1832 17.7492C63.2039 17.8043 63.259 17.9765 63.3003 18.128C63.3416 18.2795 63.4036 18.4241 63.4381 18.4448C63.4725 18.4654 63.4587 18.3552 63.4036 18.1968C63.3485 18.0384 63.3003 17.8525 63.3003 17.7836C63.3003 17.7079 63.2659 17.6528 63.2246 17.6528C63.1832 17.6528 63.1626 17.6941 63.1832 17.7492Z" fill="#151515"/>
<path d="M65.8553 19.4502C65.8485 19.5673 66.0551 19.7877 66.1652 19.7877C66.1997 19.7877 66.1721 19.7532 66.1033 19.7119C66.0344 19.6706 65.9518 19.5742 65.9173 19.4915C65.876 19.3882 65.8553 19.3744 65.8553 19.4502Z" fill="#151515"/>
<path d="M72.8041 19.4089C72.8041 19.4364 72.8798 19.5328 72.9763 19.6224C73.0727 19.7119 73.1484 19.7601 73.1484 19.7257C73.1484 19.6981 73.0727 19.6017 72.9763 19.5122C72.8798 19.4227 72.8041 19.3745 72.8041 19.4089Z" fill="#151515"/>
<path d="M66.5516 19.705C66.4552 19.8841 66.4276 19.9943 66.469 20.0631C66.5241 20.1458 66.5378 20.1251 66.5378 19.9943C66.5378 19.8978 66.586 19.7463 66.648 19.6637C66.71 19.5742 66.7444 19.4915 66.7307 19.4709C66.71 19.4571 66.6342 19.5604 66.5516 19.705Z" fill="#151515"/>
<path d="M72.1645 19.5604C72.075 19.643 72.1163 19.8359 72.2403 19.9323C72.3436 20.0218 72.3504 20.0149 72.2609 19.9116C72.2127 19.8428 72.1852 19.7257 72.2058 19.6499C72.2403 19.5053 72.2334 19.4847 72.1645 19.5604Z" fill="#151515"/>
<path d="M65.5727 19.6017C65.5727 19.6155 65.676 19.7119 65.8 19.829L66.0204 20.0287L65.8206 19.8014C65.6278 19.5948 65.5727 19.5466 65.5727 19.6017Z" fill="#151515"/>
<path d="M67.6193 19.7946C67.6401 19.8634 67.6816 19.9047 67.7162 19.8841C67.8062 19.829 67.7924 19.7395 67.6816 19.6981C67.6124 19.6706 67.5986 19.6981 67.6193 19.7946Z" fill="#151515"/>
<path d="M72.5155 19.767C72.4949 19.7945 72.5568 19.891 72.6464 19.9736C72.8392 20.1595 72.853 20.1113 72.6739 19.8841C72.5982 19.7877 72.5293 19.7394 72.5155 19.767Z" fill="#151515"/>
<path d="M70.0698 21.4198C70.1318 21.4336 70.242 21.4336 70.3108 21.4198C70.3728 21.3991 70.3177 21.3854 70.1869 21.3854C70.056 21.3854 70.0009 21.3991 70.0698 21.4198Z" fill="#151515"/>
<path d="M78.2926 19.1472C78.2031 19.2298 78.2444 19.4227 78.3752 19.5397C78.6507 19.7946 78.94 19.5053 78.6851 19.2298C78.5681 19.099 78.3752 19.0577 78.2926 19.1472Z" fill="#151515"/>
<path d="M76.5994 19.4158C76.3446 19.7394 76.4547 19.9254 76.7302 19.6499C76.8679 19.5122 76.9161 19.2367 76.806 19.2367C76.7715 19.2367 76.6751 19.3194 76.5994 19.4158Z" fill="#151515"/>
<path d="M77.2385 20.8C77.0457 21.6608 77.0388 21.6884 76.7013 22.0465C76.3914 22.3771 76.3777 22.4046 76.5567 22.3357C76.7427 22.2669 77.1352 22.3013 77.2109 22.3977C77.2316 22.4253 77.3418 22.501 77.452 22.563C77.6517 22.687 77.6517 22.6801 77.4244 22.4872C77.0939 22.2049 77.0732 21.8399 77.3142 20.7931C77.4175 20.3524 77.4864 19.9736 77.4726 19.9529C77.452 19.9392 77.3487 20.3179 77.2385 20.8Z" fill="#151515"/>
<path d="M75.221 20.3799C75.0488 20.5934 75.0419 20.6829 75.1728 20.6829C75.2829 20.6829 75.4895 20.4281 75.4895 20.2904C75.4895 20.1458 75.3725 20.1871 75.221 20.3799Z" fill="#151515"/>
<path d="M79.6488 20.3042C79.5869 20.4557 79.6557 20.5934 79.8623 20.7243C80.1791 20.9309 80.4546 20.6141 80.1998 20.3317C80.062 20.1733 79.7039 20.1596 79.6488 20.3042Z" fill="#151515"/>
<path d="M75.4972 20.9997C75.3388 21.1994 75.3181 21.2752 75.4145 21.3371C75.4903 21.3785 75.7657 21.0479 75.7657 20.9171C75.7657 20.7655 75.6487 20.8069 75.4972 20.9997Z" fill="#151515"/>
<path d="M81.2682 21.227C81.1305 21.3372 81.1167 21.3854 81.1787 21.4887C81.2751 21.654 81.5781 21.7986 81.7159 21.7435C81.8605 21.6884 81.8536 21.4198 81.709 21.289C81.4886 21.103 81.4266 21.0961 81.2682 21.227Z" fill="#151515"/>
<path d="M76.1163 21.4818C75.8546 21.8124 75.9993 22.0947 76.2678 21.7986C76.3918 21.6609 76.4262 21.3027 76.3229 21.3027C76.2885 21.3027 76.1921 21.3854 76.1163 21.4818Z" fill="#151515"/>
<path d="M77.7428 21.4887C77.6533 21.5713 77.6946 21.7641 77.8255 21.8812C78.094 22.1291 78.4521 21.8468 78.218 21.5851C78.0872 21.4474 77.8323 21.3923 77.7428 21.4887Z" fill="#151515"/>
<path d="M74.4713 22.3564C74.306 22.5354 74.2785 22.6456 74.3955 22.7145C74.5057 22.7834 74.733 22.5423 74.733 22.3564C74.733 22.1567 74.6572 22.1567 74.4713 22.3564Z" fill="#151515"/>
<path d="M79.2503 22.5836C79.0093 22.8247 79.2503 23.2172 79.5878 23.1346C79.815 23.0795 79.8288 22.7351 79.6084 22.5836C79.4156 22.4459 79.3812 22.4459 79.2503 22.5836Z" fill="#151515"/>
<path d="M76.4537 23.4996C76.3642 23.6786 76.433 23.837 76.6534 23.9472C76.7774 24.0161 76.8738 24.023 76.9564 23.9817C77.0941 23.9059 77.1148 23.5753 76.9908 23.4514C76.86 23.3205 76.5363 23.3481 76.4537 23.4996Z" fill="#151515"/>
<path d="M80.6765 23.4858C80.6283 23.4996 80.5869 23.5891 80.5869 23.6718C80.5869 23.9679 80.9933 24.1745 81.193 23.9748C81.4409 23.7269 81.0277 23.3412 80.6765 23.4858Z" fill="#151515"/>
<path d="M74.5116 24.7117C74.4496 24.8563 74.4565 24.9045 74.5598 25.0216C74.7526 25.2351 75.035 25.18 75.0625 24.932C75.0901 24.691 74.973 24.5395 74.7595 24.5395C74.6493 24.5395 74.5667 24.5946 74.5116 24.7117Z" fill="#151515"/>
<path d="M79.0709 25.1593C78.9676 25.3521 79.0434 25.5656 79.25 25.6551C79.3877 25.724 79.4428 25.7102 79.5874 25.5725C79.794 25.3797 79.8009 25.2902 79.6356 25.1386C79.4566 24.9734 79.1604 24.9871 79.0709 25.1593Z" fill="#151515"/>
<path d="M77.4183 26.1579C77.3012 26.2956 77.3563 26.4884 77.5491 26.5848C77.8659 26.7363 78.1551 26.4402 77.9348 26.1923C77.7901 26.0339 77.5353 26.0132 77.4183 26.1579Z" fill="#151515"/>
<path d="M61.0699 19.9874C60.939 20.132 60.9459 20.3455 61.0699 20.3868C61.1181 20.4006 61.242 20.3386 61.3453 20.2491C61.5106 20.1045 61.5244 20.0631 61.4486 19.9667C61.3247 19.8221 61.2145 19.829 61.0699 19.9874Z" fill="#151515"/>
<path d="M62.8398 20.0356C62.7847 20.1733 62.8949 20.3661 63.0533 20.3937C63.1291 20.4144 63.1635 20.3661 63.1635 20.256C63.1635 19.9805 62.9224 19.8221 62.8398 20.0356Z" fill="#151515"/>
<path d="M64.2914 20.9928C64.2639 21.1168 64.2845 21.2132 64.3603 21.289C64.5187 21.4474 64.6358 21.3165 64.5462 21.0824C64.4498 20.8207 64.3465 20.7862 64.2914 20.9928Z" fill="#151515"/>
<path d="M59.0584 21.0479C58.9344 21.1581 58.8862 21.2476 58.9138 21.3234C58.9689 21.4749 59.0171 21.468 59.2925 21.3027C59.4372 21.2132 59.5129 21.1168 59.4991 21.041C59.4647 20.862 59.2719 20.862 59.0584 21.0479Z" fill="#151515"/>
<path d="M63.8308 21.6058C63.7619 21.7848 63.7688 21.833 63.8928 21.9501C64.1132 22.1774 64.2096 21.9019 64.003 21.6471C63.8859 21.5025 63.8721 21.5025 63.8308 21.6058Z" fill="#151515"/>
<path d="M61.4688 22.3564C61.3586 22.4528 61.3035 22.5561 61.331 22.5974C61.4068 22.7283 61.6822 22.6938 61.82 22.5423C61.9233 22.4321 61.9233 22.3908 61.8544 22.3013C61.7373 22.1636 61.6891 22.1704 61.4688 22.3564Z" fill="#151515"/>
<path d="M63.3012 22.3289C63.3012 22.4666 63.4665 22.6801 63.5767 22.6801C63.6731 22.6801 63.7144 22.4666 63.6456 22.3289C63.5492 22.1567 63.3012 22.1567 63.3012 22.3289Z" fill="#151515"/>
<path d="M62.8178 22.8385L62.7145 23.0588L62.928 23.0382C63.1346 23.0106 63.1414 23.0038 63.0726 22.8109C62.9762 22.563 62.9486 22.563 62.8178 22.8385Z" fill="#151515"/>
<path d="M59.485 23.2035C59.3335 23.3481 59.3472 23.5065 59.5056 23.5065C59.6847 23.5065 59.9601 23.2723 59.8982 23.1759C59.8293 23.0588 59.6089 23.0726 59.485 23.2035Z" fill="#151515"/>
<path d="M64.7254 23.1415C64.6358 23.231 64.6772 23.4169 64.8218 23.5478C64.932 23.6511 64.9733 23.658 65.0215 23.5822C65.1386 23.3825 64.8769 22.99 64.7254 23.1415Z" fill="#151515"/>
<path d="M62.7284 23.9059C62.5631 24.085 62.5837 24.1952 62.7766 24.1952C62.9625 24.1952 63.1829 24.0161 63.1416 23.8921C63.1003 23.7613 62.8523 23.7682 62.7284 23.9059Z" fill="#151515"/>
<path d="M61.5656 24.5464C61.3659 24.6566 61.4141 24.815 61.6414 24.815C61.8204 24.815 61.9237 24.7186 61.9237 24.5326C61.9237 24.45 61.7102 24.4569 61.5656 24.5464Z" fill="#151515"/>
<path d="M63.713 24.8494C63.6648 24.9114 63.6442 24.9733 63.6717 25.0009C63.7337 25.0698 64.078 24.932 64.1125 24.8287C64.1538 24.7048 63.8163 24.7254 63.713 24.8494Z" fill="#151515"/>
<path d="M60.1264 25.1524C59.9748 25.2764 59.968 25.2901 60.085 25.3383C60.2434 25.3934 60.5671 25.2557 60.5258 25.1386C60.4845 25.0009 60.3054 25.0078 60.1264 25.1524Z" fill="#151515"/>
<path d="M62.5698 25.3246C62.4665 25.4072 62.4528 25.4417 62.5216 25.5105C62.6387 25.6276 62.983 25.5105 63.0106 25.3452C63.0381 25.1937 62.7696 25.1868 62.5698 25.3246Z" fill="#151515"/>
<path d="M61.6749 25.6414C61.5096 25.7033 61.4063 25.8342 61.4683 25.8962C61.5165 25.9444 61.9228 25.7791 61.9228 25.7033C61.9228 25.6069 61.8264 25.5863 61.6749 25.6414Z" fill="#151515"/>
<path d="M72.9081 24.9183L72.7015 25.0147L72.9081 24.9734C73.0252 24.9527 73.1423 24.9045 73.1836 24.8769C73.28 24.7874 73.1492 24.8081 72.9081 24.9183Z" fill="#151515"/>
<path d="M72.3571 25.0698C72.2814 25.0904 72.1918 25.1317 72.1505 25.1731C72.0748 25.2488 72.426 25.1799 72.5982 25.0835C72.6877 25.0353 72.6877 25.0284 72.5982 25.0284C72.5431 25.0353 72.4329 25.0491 72.3571 25.0698Z" fill="#151515"/>
<path d="M67.7765 25.2833C67.8316 25.3177 68.0795 25.3659 68.3274 25.3866C68.6511 25.4141 68.7062 25.4072 68.534 25.3659C68.1346 25.2695 67.6594 25.2213 67.7765 25.2833Z" fill="#151515"/>
<path d="M63.5212 26.757C63.535 26.8396 63.597 26.9223 63.6658 26.9361C63.7623 26.9567 63.7898 26.9292 63.7691 26.7983C63.7554 26.7157 63.6934 26.633 63.6245 26.6193C63.5281 26.5986 63.5006 26.6262 63.5212 26.757Z" fill="#151515"/>
<path d="M79.7807 15.5696C79.7807 16.8837 79.5218 18.1851 79.0189 19.3992C78.516 20.6133 77.7789 21.7165 76.8496 22.6458C75.9204 23.575 74.8172 24.3122 73.6031 24.8151C72.3889 25.318 71.0876 25.5768 69.7734 25.5768C68.4593 25.5768 67.158 25.318 65.9438 24.8151C64.7297 24.3122 63.6265 23.575 62.6973 22.6458C61.768 21.7165 61.0309 20.6133 60.528 19.3992C60.025 18.1851 59.7662 16.8837 59.7662 15.5696C59.7662 14.2554 60.025 12.9541 60.528 11.74C61.0309 10.5258 61.768 9.42265 62.6973 8.49339C63.6265 7.56413 64.7297 6.82701 65.9438 6.32409C67.158 5.82118 68.4593 5.56234 69.7734 5.56234C71.0876 5.56234 72.3889 5.82118 73.6031 6.3241C74.8172 6.82701 75.9204 7.56413 76.8496 8.49339C77.7789 9.42265 78.516 10.5258 79.0189 11.74C79.5218 12.9541 79.7807 14.2554 79.7807 15.5696L79.7807 15.5696Z" stroke="#121B35" stroke-width="0.645628"/>
<ellipse cx="69.7734" cy="15.7848" rx="6.8867" ry="6.67149" fill="#121B35"/>
<circle cx="69.7734" cy="15.7848" r="5.81066" stroke="white" stroke-width="0.430419"/>
<path d="M77.9263 15.8461C77.9263 20.367 74.2851 24.0299 69.7957 24.0299C65.3063 24.0299 61.6651 20.367 61.6651 15.8461C61.6651 11.3253 65.3063 7.66238 69.7957 7.66238C74.2851 7.66238 77.9263 11.3253 77.9263 15.8461Z" stroke="#121B35" stroke-width="0.344335"/>
<path d="M67.9799 6.16578C67.8491 6.20021 67.5667 6.27596 67.3601 6.33106C66.6577 6.52388 66.4993 6.59964 66.4786 6.75114C66.4648 6.8269 66.4993 6.93709 66.5544 6.99218C66.6095 7.04727 66.6783 7.19878 66.7059 7.32963C66.7679 7.64642 66.94 8.01141 67.0227 8.01141C67.0571 8.01141 67.3119 7.94943 67.5874 7.87368C67.856 7.80481 68.2623 7.7084 68.4895 7.66019L68.8959 7.58444L68.8476 7.05416C68.765 6.09691 68.7581 6.08313 68.4689 6.09002C68.3311 6.09691 68.1108 6.12445 67.9799 6.16578Z" fill="#1A42AD"/>
<path d="M74.0408 7.25391C73.9995 7.32966 73.9857 7.39164 74.0064 7.39164C74.0339 7.39164 73.9995 7.43985 73.9444 7.50183C73.8824 7.55692 73.8136 7.68777 73.786 7.79107C73.7654 7.89437 73.6896 8.08031 73.6207 8.19738C73.5519 8.32134 73.5174 8.42464 73.545 8.42464C73.5932 8.42464 74.943 9.29926 75.1771 9.4852C75.308 9.58161 76.1757 8.65879 76.1137 8.48663C76.0793 8.3971 75.5766 7.93569 75.308 7.74975C75.1152 7.6189 74.943 7.52249 74.6813 7.39164C74.5229 7.31589 74.3714 7.22636 74.3507 7.18504C74.2819 7.06796 74.1166 7.10928 74.0408 7.25391Z" fill="#1A42AD"/>
<path d="M68.3599 7.96321C67.7057 8.08717 67.0859 8.29377 67.0859 8.37641C67.0859 8.47971 67.3201 9.16838 67.3751 9.22348C67.4027 9.24414 67.5335 9.22348 67.6851 9.18216C68.2153 9.02376 68.7043 8.91357 68.842 8.92735C68.966 8.94112 68.9798 8.89291 69.0004 8.54858C69.0211 8.14226 68.9315 7.8668 68.7869 7.88057C68.7387 7.88746 68.5528 7.92189 68.3599 7.96321Z" fill="#1A42AD"/>
<path d="M62.9798 8.86539C62.1947 9.64359 62.1809 9.65047 62.3049 9.79509C62.3738 9.87085 62.4495 9.93971 62.4702 9.93971C62.4908 9.93971 62.6768 10.0912 62.8765 10.2772C63.2139 10.594 63.2484 10.6077 63.3655 10.5044C63.4619 10.4287 63.4756 10.3667 63.4274 10.2772C63.393 10.2083 63.3655 10.043 63.3655 9.91217C63.3655 9.54717 63.6547 9.2717 64.0541 9.24416C64.2263 9.23038 64.3847 9.18906 64.4122 9.14774C64.4467 9.10642 64.4673 9.12708 64.4673 9.19595C64.4673 9.31991 64.6395 9.36812 64.7015 9.26482C64.7497 9.18218 63.9921 8.0803 63.882 8.0803C63.8269 8.0803 63.4205 8.43153 62.9798 8.86539Z" fill="#1A42AD"/>
<path d="M73.2149 8.83093C73.1805 8.90669 73.146 9.01687 73.146 9.07197C73.146 9.13395 73.1185 9.18215 73.0772 9.18215C73.0427 9.18215 73.0083 9.24413 73.0083 9.31989C73.0083 9.39564 72.9739 9.45762 72.9325 9.45762C72.8912 9.45762 72.8706 9.49894 72.8912 9.54026C72.905 9.58847 72.9601 9.6229 73.0014 9.60913C73.0427 9.60224 73.0772 9.62979 73.0772 9.67111C73.0772 9.70554 73.1942 9.78818 73.3389 9.85016C73.4766 9.90526 73.6074 9.97412 73.6281 10.0017C73.7314 10.1256 74.2548 10.4906 74.3374 10.4906C74.3925 10.4906 74.5647 10.346 74.7231 10.167L75.0054 9.84328L74.7231 9.55404C74.5647 9.39564 74.3305 9.2097 74.1928 9.13395C74.0551 9.06508 73.8347 8.94112 73.7107 8.85159C73.4146 8.66565 73.3113 8.65876 73.2149 8.83093Z" fill="#1A42AD"/>
<path d="M64.8737 9.60914C64.8668 9.65734 64.8737 9.73998 64.8806 9.79508C64.8874 9.85017 64.8737 10.0292 64.8461 10.1945C64.8117 10.4562 64.7704 10.5113 64.5293 10.6353C64.3296 10.7317 64.1712 10.7661 63.9509 10.7386C63.7856 10.7179 63.6272 10.7248 63.6065 10.7592C63.5583 10.8487 64.185 11.3859 64.3365 11.3859C64.4123 11.3859 64.4674 11.3584 64.4674 11.317C64.4674 11.2206 64.9563 10.7317 65.1147 10.6766C65.1836 10.649 65.2249 10.6077 65.1973 10.5802C65.1767 10.5595 65.2249 10.5044 65.3075 10.4631C65.5348 10.346 65.5279 10.2083 65.28 9.9397C65.156 9.80196 65.0458 9.66423 65.039 9.6298C65.0183 9.5265 64.8806 9.50584 64.8737 9.60914Z" fill="#1A42AD"/>
<path d="M77.7464 10.8212C77.6362 10.8832 77.5536 10.9589 77.5536 10.9934C77.5536 11.0209 77.5261 11.0347 77.4916 11.014C77.4641 10.9934 77.2919 11.0691 77.1197 11.1793C76.8994 11.3171 76.8098 11.4135 76.8374 11.4892C76.858 11.5443 76.9063 11.5925 76.9338 11.5925C76.9613 11.5925 77.0027 11.6476 77.0302 11.7096C77.0509 11.7785 77.0991 11.8818 77.1335 11.9369C77.168 11.9919 77.3126 12.3156 77.4434 12.66C77.6707 13.2453 77.6982 13.2798 77.8773 13.266C78.1596 13.2453 78.9998 12.9905 78.9998 12.9217C78.9998 12.8321 78.6899 11.93 78.5866 11.7303C78.5177 11.5994 78.4076 11.3721 78.3318 11.2275C78.0426 10.6146 78.0563 10.6284 77.7464 10.8212Z" fill="#1A42AD"/>
<path d="M76.4029 11.6476C76.3202 11.6614 76.2169 11.7165 76.1756 11.7716C76.1274 11.8267 76.0517 11.868 76.0035 11.868C75.9621 11.868 75.8657 11.93 75.7969 12.0057C75.6798 12.1297 75.6867 12.1503 75.8795 12.5016C75.9966 12.7013 76.1412 13.0112 76.2101 13.1902C76.3822 13.6654 76.4304 13.6861 76.9676 13.5483C77.3395 13.4519 77.4152 13.4106 77.3739 13.3211C77.3532 13.2591 77.305 13.1145 77.2706 12.9974C77.1949 12.7357 76.6715 11.6752 76.6026 11.6407C76.5751 11.6338 76.4855 11.6338 76.4029 11.6476Z" fill="#1A42AD"/>
<path d="M60.708 12.3983C60.6805 12.5016 60.6391 12.6186 60.6116 12.66C60.4945 12.8321 60.2673 13.8238 60.2466 14.237L60.2328 14.5813L60.8182 14.664C61.1419 14.7122 61.438 14.7535 61.4793 14.7604C61.5206 14.7604 61.5757 14.6158 61.6033 14.4436C61.6239 14.2714 61.6928 13.9891 61.7479 13.8238C61.803 13.6585 61.865 13.4244 61.8856 13.3004C61.9063 13.1765 61.9614 13.0387 61.9958 12.9905C62.0991 12.8734 62.0303 12.7908 61.6928 12.6393C61.3623 12.4878 60.8733 12.2605 60.8044 12.2261C60.7769 12.2123 60.7356 12.2881 60.708 12.3983Z" fill="#1A42AD"/>
<path d="M62.2567 13.0318C62.243 13.1558 62.2292 13.1902 62.0777 13.6585C61.995 13.9065 61.9055 14.2646 61.8849 14.4574L61.8435 14.8086L62.1052 14.8499C62.2499 14.8775 62.4771 14.8981 62.6148 14.8981H62.8628L62.9523 14.4643C63.0005 14.2301 63.0625 13.9891 63.09 13.934C63.1176 13.8789 63.1658 13.7067 63.1864 13.5552L63.2347 13.2729L62.9041 13.1627C62.36 12.9767 62.2636 12.9561 62.2567 13.0318Z" fill="#1A42AD"/>
<path d="M78.3454 15.7176L78.0699 15.7589L78.0286 16.4476C78.0079 16.8264 77.9666 17.2602 77.939 17.4118C77.9115 17.5633 77.9184 17.7285 77.9528 17.7768C78.0079 17.8525 78.8068 18.066 79.0409 18.066C79.1993 18.066 79.4266 16.8539 79.4059 16.1377L79.3921 15.6556L79.0065 15.6625C78.793 15.6694 78.4969 15.697 78.3454 15.7176Z" fill="#1A42AD"/>
<path d="M76.761 15.8072C76.7472 15.8554 76.7197 16.1309 76.699 16.4201C76.6715 16.7094 76.6302 17.0399 76.5957 17.1501C76.5337 17.3567 76.5819 17.5289 76.699 17.522C76.7335 17.522 76.8712 17.5426 77.002 17.5771C77.6632 17.7424 77.6425 17.7424 77.6081 17.5564C77.5874 17.46 77.6012 17.3705 77.6356 17.3636C77.7045 17.336 77.8422 15.8761 77.7871 15.7796C77.7251 15.6832 76.7954 15.7108 76.761 15.8072Z" fill="#1A42AD"/>
<path d="M62.6096 16.9641C62.5545 16.9986 62.3754 17.033 62.217 17.033C61.9347 17.033 61.9209 17.0399 61.9209 17.2396C61.9209 17.4738 62.1481 18.369 62.2997 18.7271C62.4167 19.0095 62.5751 19.0233 63.0228 18.8029C63.2982 18.6652 63.3327 18.6307 63.3051 18.4448C63.2982 18.3277 63.25 18.2175 63.2018 18.19C63.1605 18.1624 63.1467 18.1349 63.1743 18.1349C63.2018 18.1349 63.1743 17.9903 63.1192 17.8043C63.0641 17.6253 63.0021 17.4049 62.9814 17.3085C62.8988 16.8815 62.8368 16.8195 62.6096 16.9641Z" fill="#1A42AD"/>
<path d="M60.9286 17.2052L60.3156 17.274L60.3019 17.4807C60.295 17.6941 60.6531 19.0233 60.7426 19.1197C60.7771 19.1541 60.9217 19.1059 61.0663 19.0233C61.2316 18.9337 61.4657 18.8718 61.6654 18.8649C62.0235 18.858 62.0167 18.8718 61.8927 18.4448C61.872 18.369 61.7963 18.0522 61.7205 17.7355C61.6517 17.4187 61.5759 17.157 61.5621 17.1432C61.5553 17.1363 61.266 17.1639 60.9286 17.2052Z" fill="#1A42AD"/>
<path d="M65.0196 21.0273C65.0196 21.0824 65.0471 21.2408 65.0815 21.3716C65.1229 21.5025 65.1848 21.7435 65.2262 21.9019C65.295 22.1911 65.3019 22.1911 65.4328 22.0603C65.5016 21.9914 65.6118 21.8537 65.6738 21.7642C65.7771 21.5989 65.7771 21.5851 65.5223 21.351C65.3777 21.2132 65.233 21.103 65.1986 21.103C65.1642 21.103 65.1091 21.0686 65.0815 21.0135C65.0333 20.9446 65.0196 20.9446 65.0196 21.0273Z" fill="#1A42AD"/>
<path d="M72.4908 22.2325C72.3048 22.322 72.0363 22.4115 71.8916 22.4391C71.444 22.5217 71.4096 22.5768 71.5473 23.0933C71.6299 23.3963 71.7057 23.5478 71.7883 23.5616C71.9261 23.5891 72.8833 23.2586 73.2001 23.0726C73.3172 23.0038 73.4205 22.9074 73.4205 22.8729C73.4205 22.7008 73.0417 22.0603 72.9384 22.0672C72.8833 22.0672 72.6836 22.1429 72.4908 22.2325Z" fill="#1A42AD"/>
<path d="M67.5048 22.8316C67.3533 23.4376 67.3601 23.4514 67.7045 23.5547C68.1934 23.7062 69.1714 23.8577 69.2264 23.8026C69.2953 23.7269 69.3297 22.9418 69.2747 22.8454C69.2471 22.8041 68.9992 22.7352 68.7237 22.687C68.4482 22.6319 68.1108 22.5699 67.98 22.5355C67.615 22.446 67.6081 22.446 67.5048 22.8316Z" fill="#1A42AD"/>
<path d="M72.6287 23.6167C72.367 23.7062 72.0709 23.8026 71.9745 23.8371C71.823 23.8853 71.8092 23.9197 71.823 24.1608C71.8574 24.5533 72.0502 25.1042 72.1397 25.0698C72.2155 25.0422 72.9593 24.8219 73.1177 24.7806C73.2003 24.7599 73.3036 24.1539 73.2416 24.0506C73.221 24.0161 73.1865 23.8715 73.159 23.7269L73.1108 23.4583L72.6287 23.6167Z" fill="#1A42AD"/>
<path d="M67.0913 24.1125C66.864 24.7186 66.8502 24.8494 67.0362 24.9321C67.4218 25.1042 68.9507 25.4072 69.1159 25.3384C69.1986 25.3108 69.2193 25.18 69.2193 24.753C69.2193 24.1194 69.2055 24.1057 68.5926 24.0299C68.3791 24.0024 68.0347 23.9335 67.835 23.8784C67.6284 23.8233 67.4149 23.7613 67.3461 23.7475C67.2634 23.7269 67.1946 23.8233 67.0913 24.1125Z" fill="#1A42AD"/>
<path d="M63.6914 9.54717C63.4917 9.74 63.5123 10.1945 63.7258 10.4218C63.9738 10.6835 64.6831 10.5251 64.5729 10.2358C64.5591 10.1876 64.5798 10.1532 64.628 10.167C64.6831 10.1739 64.7106 10.0912 64.7037 9.91217C64.6969 9.71934 64.6487 9.60915 64.5316 9.51962C64.2974 9.34057 63.8842 9.34746 63.6914 9.54717Z" fill="#FCA311"/>
<path d="M74.9927 13.1351C74.7861 13.2384 74.6346 13.5552 74.6897 13.7687C74.7448 13.9891 74.9583 14.1957 75.1855 14.2508C75.4472 14.3196 75.8329 14.1199 75.8329 13.9202C75.8329 13.8307 75.8604 13.7205 75.8949 13.6654C75.9706 13.5415 75.8191 13.2109 75.6401 13.1145C75.4817 13.0318 75.1855 13.0387 74.9927 13.1351Z" fill="#FCA311"/>
<path d="M77.953 18.5274C77.829 18.672 77.8428 18.6238 77.4709 20.2698C77.1885 21.5369 77.1334 22.0052 77.2643 22.2462C77.3538 22.4046 78.1389 22.9762 79.2959 23.7131C80.7696 24.6566 81.1415 24.8081 81.4307 24.5946C81.534 24.512 82.147 22.2944 82.264 21.5438C82.3398 21.103 82.147 20.8964 80.9074 20.1045C80.3151 19.7188 79.4956 19.1817 79.0961 18.9062C78.3524 18.3966 78.132 18.3208 77.953 18.5274ZM78.7518 19.2574C78.862 19.402 78.8758 19.4778 78.8207 19.5673C78.6967 19.7601 78.4832 19.7464 78.318 19.5398C78.1458 19.3194 78.1389 19.2781 78.2835 19.1334C78.435 18.9888 78.5728 19.0233 78.7518 19.2574ZM80.2187 20.2835C80.4184 20.4695 80.4184 20.6416 80.2325 20.7794C80.0534 20.9033 79.8468 20.8345 79.6677 20.6003C79.3854 20.2284 79.8675 19.953 80.2187 20.2835ZM82.0437 21.2201C82.1607 21.468 82.1745 21.5576 82.1125 21.7366L82.0437 21.957L82.0368 21.716C82.023 21.4405 81.7957 20.8896 81.6855 20.8896C81.6511 20.8896 81.6167 20.8551 81.6167 20.8207C81.6167 20.6692 81.9059 20.9378 82.0437 21.2201ZM81.7544 21.2477C81.9472 21.4543 81.9128 21.7435 81.6924 21.7711C81.4307 21.8124 81.2035 21.7228 81.1277 21.5507C80.9487 21.1581 81.4445 20.9171 81.7544 21.2477ZM78.1596 21.4818C78.3524 21.6127 78.3593 21.895 78.1733 21.9914C77.9047 22.1361 77.5466 21.7779 77.6913 21.5094C77.7808 21.3441 77.953 21.3303 78.1596 21.4818ZM82.0299 22.1085C82.023 22.1429 81.9817 22.2394 81.9266 22.3358C81.8577 22.4597 81.8302 22.4735 81.8233 22.3909C81.8233 22.2325 81.899 22.0603 81.9679 22.0603C82.0023 22.0603 82.0299 22.081 82.0299 22.1085ZM79.6471 22.5768C79.8468 22.7627 79.8743 22.9625 79.716 23.1208C79.5713 23.2655 79.468 23.2586 79.2477 23.0864C79.0273 22.9142 79.0204 22.7352 79.2201 22.5424C79.4061 22.3702 79.4267 22.3702 79.6471 22.5768ZM81.169 23.5409C81.3688 23.7338 81.3825 23.8646 81.231 24.0161C81.0795 24.1676 80.8591 24.1539 80.6732 23.9748C80.4873 23.8026 80.4735 23.6649 80.6319 23.4927C80.7834 23.3206 80.9693 23.3343 81.169 23.5409Z" fill="#E6EAF4"/>
<path d="M77.2787 18.5412C76.9826 18.6651 75.4124 19.7946 75.1163 20.0976C74.8133 20.4075 74.71 20.6141 74.097 22.0603C73.7252 22.9487 73.429 23.72 73.4359 23.7751C73.5048 24.1125 73.8009 23.9817 75.6948 22.7352C76.5143 22.198 76.7278 22.0259 76.8999 21.7642C76.9895 21.6195 77.5886 19.2849 77.6368 18.8649C77.6575 18.6445 77.4578 18.4585 77.2787 18.5412ZM76.9137 19.2781C77.0032 19.5053 76.5969 19.9598 76.4385 19.8015C76.3628 19.7257 76.4523 19.5053 76.6451 19.2849C76.776 19.1403 76.8586 19.1334 76.9137 19.2781ZM75.4882 20.3042C75.4882 20.4763 75.2747 20.7518 75.1438 20.7518C75.0199 20.7518 75.0681 20.4144 75.2127 20.2697C75.3986 20.0838 75.4882 20.0976 75.4882 20.3042ZM77.079 20.621C77.0101 20.7794 77.0101 20.7794 77.0101 20.5728C77.0032 20.4557 77.0239 20.3386 77.0583 20.3111C77.1341 20.2284 77.1547 20.435 77.079 20.621ZM75.7912 20.862C75.8394 20.986 75.8049 21.0617 75.6052 21.2821C75.3435 21.5713 75.2402 21.2545 75.495 20.9309C75.6603 20.7243 75.7292 20.7036 75.7912 20.862ZM76.4385 21.4818C76.4661 21.6815 76.1631 22.0259 76.0184 21.9708C75.8669 21.9157 75.8738 21.7986 76.0391 21.5231C76.1975 21.2683 76.4041 21.2477 76.4385 21.4818ZM74.7995 22.3426C74.7995 22.5079 74.4827 22.8454 74.3863 22.7834C74.2554 22.7008 74.3174 22.4184 74.4965 22.2738C74.6962 22.1154 74.7995 22.136 74.7995 22.3426ZM74.9028 23.0244C74.8408 23.1277 74.3105 23.4514 74.2761 23.417C74.2554 23.3963 74.3932 23.293 74.5722 23.1759C74.951 22.9349 74.9579 22.928 74.9028 23.0244Z" fill="#E6EAF4"/>
<path d="M60.0617 19.8634C59.249 20.2835 58.4984 20.6761 58.402 20.7243C58.0576 20.9033 58.0439 21.0686 58.2367 22.5424C58.3331 23.2793 58.4433 24.0024 58.4846 24.1401C58.5741 24.4707 58.8565 24.6979 59.1319 24.6566C59.435 24.6084 62.4031 23.2104 62.6235 23.0107C62.8921 22.7627 62.9265 22.5286 62.7819 21.8193C62.6648 21.2201 62.4031 20.1045 62.2585 19.5673C62.1896 19.2987 61.928 19.099 61.6663 19.099C61.5974 19.099 60.8743 19.4434 60.0617 19.8634ZM61.5079 20.015C61.5079 20.2216 61.3081 20.4075 61.0809 20.4075C60.833 20.4075 60.8192 20.194 61.0533 19.9599C61.2462 19.767 61.5079 19.7946 61.5079 20.015ZM59.5176 20.9722C59.5865 21.1031 59.5727 21.1444 59.4074 21.2821C59.2077 21.4543 58.8909 21.4749 58.8358 21.3234C58.8014 21.2132 59.187 20.8207 59.3317 20.8207C59.3868 20.8207 59.4763 20.8896 59.5176 20.9722ZM62.6786 22.3978C62.6786 22.5975 62.6304 22.7283 62.4995 22.866L62.3205 23.0589L62.4651 22.8592C62.5546 22.7421 62.6097 22.5561 62.6097 22.3978C62.6097 22.2462 62.6235 22.1292 62.6442 22.1292C62.6648 22.1292 62.6786 22.2531 62.6786 22.3978ZM61.9073 22.384C61.9348 22.5561 61.6594 22.7765 61.4597 22.7352C61.1429 22.6732 61.3839 22.1705 61.7076 22.2118C61.8315 22.2256 61.8935 22.2807 61.9073 22.384ZM58.5328 22.6181C58.5121 22.8454 58.5053 22.8454 58.4777 22.563C58.4571 22.4046 58.4639 22.2945 58.4984 22.3289C58.5328 22.3633 58.5466 22.4942 58.5328 22.6181ZM59.9101 23.2104C59.9377 23.4032 59.6209 23.6305 59.4556 23.5341C59.2835 23.4239 59.2835 23.3206 59.4419 23.1622C59.6278 22.9762 59.8826 23.0038 59.9101 23.2104Z" fill="#E6EAF4"/>
<path d="M62.424 19.2918C62.3414 19.3469 62.4791 20.132 62.913 22.0534C63.0094 22.4804 63.0921 22.8454 63.0921 22.8592C63.0921 22.9074 64.7586 24.1263 64.8206 24.1263C64.855 24.1263 64.8826 24.0988 64.8826 24.0574C64.8826 24.0161 64.9446 24.0161 65.0479 24.0574C65.1649 24.0988 65.2269 24.0919 65.2545 24.0368C65.2682 23.9886 65.2889 24.023 65.2889 24.1056C65.2958 24.1952 65.2476 24.264 65.1787 24.2778C65.0685 24.2985 65.0685 24.3054 65.1649 24.3467C65.5024 24.4775 65.4886 24.3329 64.8344 21.5438C64.7586 21.227 64.6829 21.0342 64.6484 21.0824C64.6209 21.1306 64.614 21.165 64.6416 21.165C64.6622 21.165 64.6484 21.227 64.6071 21.3028C64.5451 21.4129 64.5038 21.4267 64.4005 21.3716C64.2284 21.2821 64.1664 21.0686 64.2628 20.8896C64.3317 20.7587 64.3454 20.7587 64.5176 20.8689L64.7035 20.9929L64.5796 20.7863C64.4832 20.6141 63.1954 19.6844 62.9268 19.588C62.8855 19.5742 62.8372 19.5398 62.8166 19.5191C62.6857 19.3607 62.4929 19.2505 62.424 19.2918ZM63.1196 20.0081C63.3262 20.2973 63.2229 20.5521 62.9612 20.4075C62.789 20.318 62.7133 20.0838 62.8166 19.9598C62.9337 19.8221 62.9956 19.829 63.1196 20.0081ZM64.0837 21.6402C64.2421 21.8124 64.2008 22.019 64.008 22.0465C63.8289 22.0741 63.6843 21.8468 63.7463 21.6471C63.8014 21.4749 63.9322 21.4749 64.0837 21.6402ZM63.6292 22.2118C63.7463 22.3289 63.7325 22.6594 63.6086 22.7076C63.4639 22.7627 63.2987 22.563 63.2987 22.3289C63.2987 22.1154 63.4708 22.0534 63.6292 22.2118ZM64.9859 23.1622C65.1374 23.3068 65.1512 23.596 65.0134 23.6856C64.8068 23.8095 64.5107 23.3274 64.676 23.1277C64.7862 22.9969 64.8068 22.9969 64.9859 23.1622Z" fill="#E6EAF4"/>
<path d="M76.3764 22.4666C75.8324 22.7352 73.6837 24.1539 73.5804 24.3054C73.4909 24.45 73.4909 24.4913 73.5667 24.5877C73.7526 24.8081 75.0611 25.7585 76.1905 26.4816C77.3268 27.2184 77.3475 27.2253 77.7538 27.2253C78.229 27.2253 78.6422 27.0325 79.8955 26.2474C80.8184 25.6689 80.9974 25.5036 80.9974 25.2282C80.9974 24.9252 80.7839 24.7392 79.6201 24.0299C79.0691 23.6924 78.2634 23.1759 77.8226 22.8798C76.9549 22.2944 76.8103 22.2462 76.3764 22.4666ZM77.1409 22.6801C77.4783 22.8523 77.499 22.9142 77.1753 22.7765C76.8723 22.6526 76.6519 22.6526 76.3351 22.7834C75.977 22.9349 75.9632 22.8454 76.3213 22.6801C76.7001 22.5079 76.8034 22.5079 77.1409 22.6801ZM77.802 23.1002C77.9328 23.2517 77.9328 23.2517 77.7813 23.1691C77.6918 23.1277 77.6229 23.0589 77.6229 23.0244C77.6229 22.9211 77.6574 22.9418 77.802 23.1002ZM77.0169 23.417C77.1546 23.5409 77.1753 23.7269 77.072 23.9266C76.9136 24.2158 76.3833 23.9955 76.3833 23.6442C76.3833 23.3274 76.7621 23.1897 77.0169 23.417ZM75.0198 24.5877C75.2332 24.7805 75.1162 25.2282 74.8476 25.2282C74.6616 25.2282 74.455 25.0078 74.455 24.8219C74.455 24.4844 74.7649 24.3536 75.0198 24.5877ZM79.6338 25.0698C79.8129 25.2282 79.7854 25.4692 79.5788 25.6345C79.3928 25.7791 79.2275 25.7653 79.0898 25.5863C78.9796 25.4486 78.9727 25.1455 79.0829 25.0354C79.2 24.9183 79.4823 24.9321 79.6338 25.0698ZM77.9259 26.1166C78.167 26.3851 77.9535 26.7364 77.6023 26.6468C77.3406 26.5849 77.2373 26.3645 77.3819 26.151C77.5127 25.9513 77.7607 25.9375 77.9259 26.1166ZM77.864 26.9292C78.0155 26.9085 78.2152 26.8741 78.3116 26.8466C78.408 26.8259 78.3323 26.8741 78.1463 26.9499C77.9328 27.0394 77.7331 27.0807 77.6298 27.0532C77.3406 26.9912 77.072 26.8672 77.072 26.8052C77.072 26.7777 77.1891 26.7983 77.3268 26.8603C77.4921 26.9223 77.6849 26.9499 77.864 26.9292Z" fill="#E6EAF4"/>
<path d="M62.8848 23.0727C62.8297 23.0864 62.5061 23.2379 62.1617 23.4032C61.8243 23.5616 61.1218 23.8922 60.6122 24.1194C59.3795 24.6841 59.0145 24.8907 58.9525 25.0698C58.9043 25.2006 58.9525 25.2557 59.4277 25.5243C60.323 26.0408 61.2389 26.4747 61.4317 26.4816C61.5281 26.4816 61.8725 26.3576 62.1962 26.1992C62.5198 26.0408 62.7058 25.9306 62.6094 25.9513C62.4647 25.9857 62.4578 25.9788 62.5611 25.9169C62.6231 25.8755 62.7127 25.8618 62.7471 25.8824C62.8779 25.9651 64.882 25.0836 64.882 24.9458C64.882 24.9114 64.9095 24.8907 64.9439 24.9183C65.0128 24.9596 65.2263 24.7737 65.2263 24.6704C65.2263 24.5395 64.8269 24.2296 63.3462 23.2104C63.057 23.0176 63.0501 23.0176 62.8848 23.0727ZM63.0501 23.7544C63.3393 23.8646 63.0226 24.3123 62.7127 24.2365C62.4992 24.1814 62.4923 24.0781 62.692 23.8715C62.8504 23.6993 62.8848 23.6925 63.0501 23.7544ZM61.7072 23.8784C61.6383 23.9404 60.9565 24.2641 60.9565 24.2296C60.9565 24.1883 61.5832 23.8577 61.6728 23.8509C61.7072 23.8509 61.721 23.8646 61.7072 23.8784ZM61.9138 24.4638C62.0515 24.5533 61.9413 24.8081 61.7416 24.8563C61.3697 24.9527 61.232 24.6635 61.5763 24.4913C61.7829 24.388 61.7898 24.388 61.9138 24.4638ZM64.1933 24.8081C64.1933 24.9527 63.8421 25.1318 63.6768 25.0629C63.4426 24.9734 63.6837 24.6773 63.9936 24.6773C64.1451 24.6773 64.1933 24.7117 64.1933 24.8081ZM60.5296 25.1456C60.5433 25.2489 60.502 25.3177 60.3781 25.3728C60.0131 25.5381 59.8409 25.2213 60.199 25.0423C60.4194 24.9321 60.502 24.9596 60.5296 25.1456ZM63.0776 25.3453C63.0501 25.4899 62.7127 25.6689 62.568 25.6139C62.451 25.5656 62.4372 25.3246 62.5611 25.2764C62.6025 25.2557 62.7471 25.2351 62.871 25.2351C63.057 25.2282 63.0983 25.2557 63.0776 25.3453ZM61.9207 25.7034C61.9207 25.8618 61.5763 26.0064 61.4317 25.91C61.356 25.8549 61.3629 25.8205 61.5006 25.7103C61.7072 25.5312 61.9207 25.5312 61.9207 25.7034ZM61.7416 26.1717C61.962 26.151 62.0446 26.1579 61.9551 26.1923C61.7279 26.2887 61.3353 26.2681 61.1907 26.151C61.0667 26.0546 61.0667 26.0546 61.2251 26.1304C61.3215 26.1786 61.535 26.1923 61.7416 26.1717Z" fill="#E6EAF4"/>
<path d="M62.9611 26.1235C62.603 26.275 62.2794 26.4402 62.2449 26.5022C62.2105 26.5711 62.1347 26.5986 62.0521 26.5711C61.8386 26.5022 61.756 26.5986 61.9006 26.7639L62.0246 26.9017L61.8317 26.7777C61.7284 26.7088 61.6251 26.6744 61.6045 26.6951C61.4874 26.8121 62.3964 27.1702 63.2642 27.3493C63.9391 27.4939 64.0355 27.4939 64.187 27.3906C64.3109 27.3011 64.3316 27.2184 64.3316 26.7364C64.3316 26.4402 64.3041 26.1923 64.2627 26.1923C64.2283 26.1923 64.0837 26.1166 63.9459 26.0202C63.8082 25.9237 63.6705 25.848 63.6498 25.848C63.6292 25.848 63.3193 25.972 62.9611 26.1235ZM63.7807 26.64C63.8977 26.7777 63.8358 26.9843 63.6842 26.9843C63.5259 26.9843 63.4019 26.7984 63.457 26.6469C63.5121 26.5091 63.6705 26.5022 63.7807 26.64Z" fill="#E6EAF4"/>
<path d="M74.7789 26.3989C74.5654 26.5022 74.3864 26.5711 74.3864 26.5573C74.3864 26.5367 74.3382 26.578 74.2762 26.64C74.2142 26.7019 74.1729 26.757 74.1866 26.7708C74.2004 26.7846 74.469 26.9223 74.7858 27.0807C75.3161 27.3493 75.378 27.3631 75.5984 27.2942C75.7293 27.2529 75.8326 27.184 75.8326 27.1496C75.8326 27.1083 75.8532 27.0945 75.8877 27.1083C75.9152 27.1289 76.0392 27.0945 76.1562 27.0256C76.3697 26.9223 76.3697 26.9085 76.2527 26.8328C76.1494 26.7639 76.1149 26.7708 76.0805 26.8466C76.0323 26.9843 75.8326 26.9774 75.8326 26.8466C75.8326 26.7915 75.8877 26.7433 75.9565 26.7433C76.0392 26.7433 76.0185 26.7019 75.867 26.6055C75.7362 26.5229 75.6397 26.4953 75.5984 26.5367C75.5089 26.6262 75.2816 26.6262 75.2816 26.5367C75.2816 26.5022 75.3298 26.4471 75.3849 26.4127C75.4813 26.3645 75.4676 26.3438 75.3367 26.2819C75.2059 26.2199 75.1026 26.2474 74.7789 26.3989ZM74.9373 26.7364C74.9373 26.8328 74.8133 26.8948 74.7307 26.8466C74.6894 26.819 74.6756 26.7708 74.6963 26.7364C74.7514 26.6537 74.9373 26.6537 74.9373 26.7364ZM75.5296 27.0601C75.4951 27.1427 75.5158 27.1634 75.6053 27.1289C75.7086 27.0945 75.7086 27.1014 75.5984 27.1909C75.5227 27.246 75.4125 27.2942 75.3574 27.2942C75.2679 27.2942 75.2679 27.2804 75.3436 27.2322C75.4056 27.1909 75.4125 27.1565 75.3574 27.1289C75.2541 27.0669 75.3298 26.9499 75.4676 26.9499C75.5364 26.9499 75.5571 26.9912 75.5296 27.0601Z" fill="#E6EAF4"/>
<path d="M64.4004 26.4196C64.4004 26.516 64.421 26.6882 64.4417 26.8052L64.4899 27.0187L64.6483 26.7984C64.8618 26.516 64.8549 26.4953 64.607 26.3645C64.4072 26.2612 64.4004 26.2612 64.4004 26.4196Z" fill="#E6EAF4"/>
<path d="M62.8245 15.5687C62.7057 15.5687 62.6093 15.6651 62.6093 15.7839C62.6093 15.9028 62.7057 15.9991 62.8245 15.9991L62.8245 15.5687ZM68.4301 15.5687L62.8245 15.5687L62.8245 15.9991L68.4301 15.9991L68.4301 15.5687Z" fill="white"/>
<path d="M76.7375 16C76.8563 16 76.9527 15.9036 76.9527 15.7848C76.9527 15.6659 76.8563 15.5696 76.7375 15.5696V16ZM71.1471 16H76.7375V15.5696H71.1471V16Z" fill="white"/>
<path d="M69.9886 9.11328C69.9886 8.99443 69.8923 8.89807 69.7734 8.89807C69.6546 8.89807 69.5582 8.99443 69.5582 9.11328L69.9886 9.11328ZM69.9886 14.4941L69.9886 9.11328L69.5582 9.11328L69.5582 14.4941L69.9886 14.4941Z" fill="white"/>
<path d="M69.5582 22.4804C69.5582 22.5992 69.6546 22.6956 69.7734 22.6956C69.8923 22.6956 69.9886 22.5992 69.9886 22.4804L69.5582 22.4804ZM69.5582 17.2201L69.5582 22.4804L69.9886 22.4804L69.9886 17.2201L69.5582 17.2201Z" fill="white"/>
<circle cx="69.7733" cy="15.7848" r="0.485761" fill="white"/>
<circle cx="69.7736" cy="15.7848" r="0.944425" stroke="white" stroke-width="0.344335"/>
<defs>
<linearGradient id="paint0_linear_1577_3784" x1="106.499" y1="6" x2="106.499" y2="26" gradientUnits="userSpaceOnUse">
<stop stop-color="#3D72FF"/>
<stop offset="0.557292" stop-color="#002689"/>
<stop offset="1" stop-color="#3D72FF" stop-opacity="0.979167"/>
</linearGradient>
<linearGradient id="paint1_linear_1577_3784" x1="139.759" y1="6" x2="139.759" y2="26" gradientUnits="userSpaceOnUse">
<stop stop-color="#3D72FF"/>
<stop offset="0.557292" stop-color="#002689"/>
<stop offset="1" stop-color="#3D72FF" stop-opacity="0.979167"/>
</linearGradient>
<linearGradient id="paint2_linear_1577_3784" x1="123.411" y1="6.29851" x2="123.411" y2="26" gradientUnits="userSpaceOnUse">
<stop stop-color="#3D72FF"/>
<stop offset="0.557292" stop-color="#002689"/>
<stop offset="1" stop-color="#3D72FF" stop-opacity="0.979167"/>
</linearGradient>
<linearGradient id="paint3_linear_1577_3784" x1="90.1508" y1="6.29851" x2="90.1508" y2="26" gradientUnits="userSpaceOnUse">
<stop stop-color="#3D72FF"/>
<stop offset="0.557292" stop-color="#002689"/>
<stop offset="1" stop-color="#3D72FF" stop-opacity="0.979167"/>
</linearGradient>
<linearGradient id="paint4_linear_1577_3784" x1="156.953" y1="6.29851" x2="156.953" y2="26" gradientUnits="userSpaceOnUse">
<stop stop-color="#3D72FF"/>
<stop offset="0.557292" stop-color="#002689"/>
<stop offset="1" stop-color="#3D72FF" stop-opacity="0.979167"/>
</linearGradient>
<linearGradient id="paint5_linear_1577_3784" x1="49.0186" y1="6.2985" x2="49.0186" y2="26" gradientUnits="userSpaceOnUse">
<stop stop-color="white"/>
<stop offset="1" stop-color="#E7E9F8"/>
</linearGradient>
<linearGradient id="paint6_linear_1577_3784" x1="14.49" y1="6.2985" x2="14.49" y2="26" gradientUnits="userSpaceOnUse">
<stop stop-color="white"/>
<stop offset="1" stop-color="#E7E9F8"/>
</linearGradient>
<linearGradient id="paint7_linear_1577_3784" x1="31.8256" y1="6.2985" x2="31.8256" y2="26" gradientUnits="userSpaceOnUse">
<stop stop-color="white"/>
<stop offset="1" stop-color="#E7E9F8"/>
</linearGradient>
</defs>
</svg>
