<svg width="24" height="24" viewBox="0 0 24 24" fill="none" xmlns="http://www.w3.org/2000/svg">
<g clip-path="url(#clip0_2489_28384)">
<path d="M0.414788 19.8621H23.5872C23.8157 19.8621 24.001 19.6768 24.001 19.4483V4.55178C24.001 4.32327 23.8157 4.13797 23.5872 4.13797H0.414788C0.186273 4.13802 0.000976562 4.32327 0.000976562 4.55178V19.4483C0.000976562 19.6769 0.186273 19.8621 0.414788 19.8621Z" fill="#C8414B"/>
<path d="M24.0009 7.44852H0.000976562V16.5521H24.0009V7.44852Z" fill="#FFD250"/>
<path d="M10.1387 12.0001L10.4896 10.4213C10.5219 10.2759 10.4112 10.138 10.2623 10.138H10.0151C9.86622 10.138 9.7556 10.2759 9.78785 10.4213L10.1387 12.0001Z" fill="#C8414B"/>
<path d="M10.5522 11.1723H9.72461V14.6893H10.5522V11.1723Z" fill="#F5F5F5"/>
<path d="M10.759 10.7588H9.51758V11.1726H10.759V10.7588Z" fill="#FAB446"/>
<path d="M10.7605 12H8.69141V12.4138H10.7605V12Z" fill="#C8414B"/>
<path d="M10.7599 13.6552L9.51855 13.2414V12.8276L10.7599 13.2414V13.6552Z" fill="#C8414B"/>
<path d="M3.93265 12L4.28351 10.4213C4.31585 10.2758 4.20518 10.1379 4.05621 10.1379H3.80909C3.66017 10.1379 3.54954 10.2758 3.58179 10.4213L3.93265 12Z" fill="#C8414B"/>
<path d="M5.38061 10.7587C5.15209 10.7587 4.9668 10.944 4.9668 11.1725V13.8621C4.9668 14.3649 5.43601 15.3104 7.03576 15.3104C8.63551 15.3104 9.10473 14.3649 9.10473 13.8621V11.1725C9.10473 10.944 8.91943 10.7587 8.69092 10.7587H5.38061Z" fill="#F5F5F5"/>
<path d="M7.03576 12.8276H4.9668V11.1725C4.9668 10.944 5.15209 10.7587 5.38061 10.7587H7.03576V12.8276Z" fill="#C8414B"/>
<path d="M7.03613 12.8276H9.1051V13.8621C9.1051 14.4335 8.64197 14.8966 8.07062 14.8966C7.49926 14.8966 7.03613 14.4335 7.03613 13.8621V12.8276Z" fill="#C8414B"/>
<path d="M4.9668 12.8277H7.03576V13.8621C7.03576 14.4335 6.57264 14.8966 6.00128 14.8966C5.42992 14.8966 4.9668 14.4335 4.9668 13.8621V12.8277Z" fill="#FAB446"/>
<path d="M6.61987 14.6851V12.8277H6.20605V14.8758C6.35999 14.8446 6.49907 14.7764 6.61987 14.6851Z" fill="#C8414B"/>
<path d="M5.79272 14.8758V12.8277H5.37891V14.6851C5.49975 14.7764 5.63883 14.8446 5.79272 14.8758Z" fill="#C8414B"/>
<path d="M6.62127 12.0001H5.37988V12.4139H6.62127V12.0001Z" fill="#FFB441"/>
<path d="M6.62127 11.1723H5.37988V11.5861H6.62127V11.1723Z" fill="#FAB446"/>
<path d="M6.41352 11.4184H5.58594V12.168H6.41352V11.4184Z" fill="#FAB446"/>
<path d="M4.34515 11.1723H3.51758V14.6893H4.34515V11.1723Z" fill="#F5F5F5"/>
<path d="M4.55193 14.483H3.31055V14.8968H4.55193V14.483Z" fill="#FAB446"/>
<path d="M4.55193 10.7588H3.31055V11.1726H4.55193V10.7588Z" fill="#FAB446"/>
<path d="M4.75965 14.8965H3.10449V15.3103H4.75965V14.8965Z" fill="#5064AA"/>
<path d="M10.966 14.483H9.72461V14.8968H10.966V14.483Z" fill="#FAB446"/>
<path d="M10.9657 14.8965H9.31055V15.3103H10.9657V14.8965Z" fill="#5064AA"/>
<path d="M8.27672 10.3449H5.79395V10.7587H8.27672V10.3449Z" fill="#FAB446"/>
<path d="M7.24194 9.10367H6.82812V10.3451H7.24194V9.10367Z" fill="#FFB441"/>
<path d="M6.62067 9.72422C6.27839 9.72422 6 9.44578 6 9.10355C6 8.76127 6.27844 8.48288 6.62067 8.48288C6.96295 8.48288 7.24134 8.76132 7.24134 9.10355C7.24139 9.44578 6.96295 9.72422 6.62067 9.72422ZM6.62067 8.89665C6.50653 8.89665 6.41376 8.98936 6.41376 9.10355C6.41376 9.21769 6.50648 9.31046 6.62067 9.31046C6.73486 9.31046 6.82758 9.21774 6.82758 9.10355C6.82758 8.98941 6.73486 8.89665 6.62067 8.89665Z" fill="#F5F5F5"/>
<path d="M7.4488 9.72422C7.10652 9.72422 6.82812 9.44578 6.82812 9.10355C6.82812 8.76127 7.10656 8.48288 7.4488 8.48288C7.79108 8.48288 8.06947 8.76132 8.06947 9.10355C8.06947 9.44578 7.79103 9.72422 7.4488 9.72422ZM7.4488 8.89665C7.33466 8.89665 7.24189 8.98936 7.24189 9.10355C7.24189 9.21769 7.33461 9.31046 7.4488 9.31046C7.56294 9.31046 7.6557 9.21774 7.6557 9.10355C7.65565 8.98941 7.56294 8.89665 7.4488 8.89665Z" fill="#F5F5F5"/>
<path d="M8.27594 10.138C7.93366 10.138 7.65527 9.8596 7.65527 9.51737C7.65527 9.17509 7.93371 8.8967 8.27594 8.8967C8.61822 8.8967 8.89661 9.17513 8.89661 9.51737C8.89661 9.8596 8.61818 10.138 8.27594 10.138ZM8.27594 9.31046C8.1618 9.31046 8.06904 9.40318 8.06904 9.51737C8.06904 9.63151 8.16176 9.72427 8.27594 9.72427C8.39008 9.72427 8.48285 9.63156 8.48285 9.51737C8.48285 9.40318 8.39008 9.31046 8.27594 9.31046Z" fill="#F5F5F5"/>
<path d="M5.79352 10.138C5.45124 10.138 5.17285 9.8596 5.17285 9.51737C5.17285 9.17509 5.45129 8.8967 5.79352 8.8967C6.1358 8.8967 6.41419 9.17513 6.41419 9.51737C6.41424 9.8596 6.1358 10.138 5.79352 10.138ZM5.79352 9.31046C5.67938 9.31046 5.58662 9.40318 5.58662 9.51737C5.58662 9.63151 5.67933 9.72427 5.79352 9.72427C5.90771 9.72427 6.00043 9.63151 6.00043 9.51732C6.00043 9.40318 5.90771 9.31046 5.79352 9.31046Z" fill="#F5F5F5"/>
<path d="M8.27684 13.6552V13.8621C8.27684 13.9762 8.18403 14.069 8.06994 14.069C7.95584 14.069 7.86303 13.9762 7.86303 13.8621V13.6552H8.27684ZM8.69061 13.2415H7.44922V13.8621C7.44922 14.2044 7.72766 14.4828 8.06989 14.4828C8.41217 14.4828 8.69056 14.2044 8.69056 13.8621V13.2415H8.69061Z" fill="#FAB446"/>
<path d="M8.07006 12.4139C7.84155 12.4139 7.65625 12.2286 7.65625 12.0001V11.5863C7.65625 11.3578 7.84155 11.1725 8.07006 11.1725C8.29858 11.1725 8.48387 11.3578 8.48387 11.5863V12.0001C8.48387 12.2286 8.29858 12.4139 8.07006 12.4139Z" fill="#FFA0D2"/>
<path d="M7.03571 13.4481C7.3785 13.4481 7.65638 13.1702 7.65638 12.8274C7.65638 12.4846 7.3785 12.2068 7.03571 12.2068C6.69292 12.2068 6.41504 12.4846 6.41504 12.8274C6.41504 13.1702 6.69292 13.4481 7.03571 13.4481Z" fill="#5064AA"/>
<path d="M7.24194 8.27588H6.82812V9.51727H7.24194V8.27588Z" fill="#FAB446"/>
<path d="M5.79369 10.3449L5.37988 9.93109L5.62227 9.6887C5.99694 9.31403 6.50516 9.10352 7.03508 9.10352C7.565 9.10352 8.07318 9.31403 8.44789 9.6887L8.69028 9.93109L8.27647 10.3449H5.79369Z" fill="#C8414B"/>
<path d="M7.03503 10.1379C7.1493 10.1379 7.24194 10.0452 7.24194 9.93097C7.24194 9.81669 7.1493 9.72406 7.03503 9.72406C6.92076 9.72406 6.82812 9.81669 6.82812 9.93097C6.82812 10.0452 6.92076 10.1379 7.03503 10.1379Z" fill="#FFD250"/>
<path d="M6.20691 10.1379C6.32118 10.1379 6.41381 10.0452 6.41381 9.93097C6.41381 9.81669 6.32118 9.72406 6.20691 9.72406C6.09263 9.72406 6 9.81669 6 9.93097C6 10.0452 6.09263 10.1379 6.20691 10.1379Z" fill="#FFD250"/>
<path d="M7.86218 10.1379C7.97645 10.1379 8.06908 10.0452 8.06908 9.93097C8.06908 9.81669 7.97645 9.72406 7.86218 9.72406C7.74791 9.72406 7.65527 9.81669 7.65527 9.93097C7.65527 10.0452 7.74791 10.1379 7.86218 10.1379Z" fill="#FFD250"/>
<path d="M5.37961 12.0001H3.31055V12.4139H5.37961V12.0001Z" fill="#C8414B"/>
<path d="M3.31055 13.6552L4.55189 13.2415V12.8277L3.31055 13.2415V13.6552Z" fill="#C8414B"/>
</g>
<defs>
<clipPath id="clip0_2489_28384">
<rect width="24" height="24" fill="white"/>
</clipPath>
</defs>
</svg>
