<svg width="24" height="24" viewBox="0 0 24 24" fill="none" xmlns="http://www.w3.org/2000/svg">
<g clip-path="url(#clip0_2489_28432)">
<path d="M23.5861 19.862H0.413812C0.185297 19.862 0 19.6767 0 19.4482V4.55169C0 4.32317 0.185297 4.13788 0.413812 4.13788H23.5862C23.8147 4.13788 24 4.32317 24 4.55169V19.4482C24 19.6768 23.8147 19.862 23.5861 19.862Z" fill="#F5F5F5"/>
<path d="M11.9998 16.5516C14.5135 16.5516 16.5513 14.5138 16.5513 12C16.5513 9.48626 14.5135 7.44846 11.9998 7.44846C9.48604 7.44846 7.44824 9.48626 7.44824 12C7.44824 14.5138 9.48604 16.5516 11.9998 16.5516Z" fill="#FF4B55"/>
</g>
<defs>
<clipPath id="clip0_2489_28432">
<rect width="24" height="24" fill="white"/>
</clipPath>
</defs>
</svg>
