<svg width="24" height="24" viewBox="0 0 24 24" fill="none" xmlns="http://www.w3.org/2000/svg">
<g clip-path="url(#clip0_2489_28363)">
<path d="M23.5861 19.862H0.413812C0.185297 19.862 0 19.6767 0 19.4482V4.55171C0 4.32319 0.185297 4.13789 0.413812 4.13789H23.5862C23.8147 4.13789 24 4.32319 24 4.55171V19.4482C24 19.6768 23.8147 19.862 23.5861 19.862Z" fill="#73AF00"/>
<path d="M11.7853 6.33789L3.0639 11.6465C2.79901 11.8077 2.79901 12.1922 3.0639 12.3534L11.7853 17.6621C11.9174 17.7426 12.0834 17.7426 12.2156 17.6621L20.937 12.3535C21.2019 12.1923 21.2019 11.8078 20.937 11.6466L12.2156 6.33789C12.0834 6.25745 11.9174 6.25745 11.7853 6.33789Z" fill="#FFE15A"/>
<path d="M12.0007 15.3103C13.829 15.3103 15.311 13.8282 15.311 12C15.311 10.1718 13.829 8.6897 12.0007 8.6897C10.1725 8.6897 8.69043 10.1718 8.69043 12C8.69043 13.8282 10.1725 15.3103 12.0007 15.3103Z" fill="#41479B"/>
<path d="M9.15922 10.3065C9.00303 10.568 8.88242 10.8522 8.80273 11.1539C10.6378 11.0158 13.3525 11.5292 15.0803 13.2058C15.1931 12.9179 15.2675 12.6112 15.2955 12.2907C13.5114 10.7891 11.0449 10.2552 9.15922 10.3065Z" fill="#F5F5F5"/>
<path d="M12.1363 13.1296L12.2245 13.3939L12.503 13.3961C12.5391 13.3964 12.554 13.4424 12.5251 13.4638L12.301 13.6293L12.385 13.8949C12.3959 13.9293 12.3567 13.9578 12.3274 13.9368L12.1008 13.7748L11.8741 13.9368C11.8448 13.9578 11.8056 13.9293 11.8165 13.8949L11.9006 13.6293L11.6764 13.4638C11.6474 13.4424 11.6624 13.3964 11.6984 13.3961L11.977 13.3939L12.0651 13.1296C12.0765 13.0954 12.1249 13.0954 12.1363 13.1296Z" fill="#F5F5F5"/>
<path d="M13.2193 13.8133L13.2572 13.927L13.3771 13.928C13.3926 13.9281 13.3991 13.9479 13.3866 13.9571L13.2901 14.0283L13.3262 14.1427C13.3309 14.1575 13.3141 14.1697 13.3014 14.1607L13.2039 14.091L13.1064 14.1607C13.0937 14.1697 13.0769 14.1575 13.0816 14.1427L13.1177 14.0283L13.0212 13.9571C13.0088 13.9479 13.0152 13.9281 13.0307 13.928L13.1506 13.927L13.1885 13.8133C13.1935 13.7986 13.2144 13.7986 13.2193 13.8133Z" fill="#F5F5F5"/>
<path d="M11.6685 12.6276L11.7064 12.7413L11.8263 12.7423C11.8418 12.7423 11.8483 12.7622 11.8358 12.7714L11.7393 12.8426L11.7755 12.9569C11.7801 12.9718 11.7633 12.984 11.7507 12.9749L11.6531 12.9052L11.5556 12.9749C11.543 12.984 11.5261 12.9718 11.5308 12.9569L11.5669 12.8426L11.4704 12.7714C11.458 12.7622 11.4644 12.7424 11.4799 12.7423L11.5998 12.7413L11.6377 12.6276C11.6427 12.6129 11.6636 12.6129 11.6685 12.6276Z" fill="#F5F5F5"/>
<path d="M9.56888 12.4897L9.60681 12.6034L9.72671 12.6043C9.74223 12.6044 9.7487 12.6243 9.73618 12.6335L9.63971 12.7047L9.67585 12.819C9.68054 12.8338 9.66371 12.8461 9.65106 12.837L9.55351 12.7673L9.45596 12.837C9.44335 12.8461 9.42648 12.8338 9.43117 12.819L9.46731 12.7047L9.37084 12.6335C9.35837 12.6243 9.36479 12.6045 9.38031 12.6043L9.50021 12.6034L9.53813 12.4897C9.54315 12.475 9.56396 12.475 9.56888 12.4897Z" fill="#F5F5F5"/>
<path d="M11.3257 13.774L11.3636 13.8878L11.4835 13.8887C11.4991 13.8888 11.5055 13.9086 11.493 13.9178L11.3965 13.989L11.4327 14.1034C11.4374 14.1182 11.4205 14.1304 11.4079 14.1214L11.3103 14.0517L11.2128 14.1214C11.2002 14.1304 11.1833 14.1182 11.188 14.1034L11.2241 13.989L11.1277 13.9178C11.1152 13.9087 11.1216 13.8888 11.1371 13.8887L11.257 13.8878L11.295 13.774C11.3 13.7594 11.3208 13.7594 11.3257 13.774Z" fill="#F5F5F5"/>
<path d="M10.3587 12.4103L10.3897 12.5033L10.4878 12.5041C10.5004 12.5042 10.5057 12.5205 10.4956 12.528L10.4167 12.5862L10.4462 12.6797C10.4501 12.6918 10.4363 12.7018 10.426 12.6944L10.3462 12.6374L10.2664 12.6944C10.256 12.7018 10.2423 12.6918 10.2461 12.6797L10.2757 12.5862L10.1968 12.528C10.1866 12.5205 10.1918 12.5042 10.2046 12.5041L10.3026 12.5033L10.3337 12.4103C10.3376 12.3983 10.3547 12.3983 10.3587 12.4103Z" fill="#F5F5F5"/>
<path d="M13.304 10.4903L13.3428 10.6066L13.4654 10.6076C13.4813 10.6077 13.4879 10.628 13.4751 10.6374L13.3764 10.7102L13.4134 10.8272C13.4183 10.8423 13.401 10.8548 13.3881 10.8456L13.2883 10.7743L13.1885 10.8456C13.1755 10.8549 13.1583 10.8423 13.1631 10.8272L13.2001 10.7102L13.1015 10.6374C13.0887 10.628 13.0953 10.6077 13.1111 10.6076L13.2338 10.6066L13.2726 10.4903C13.2776 10.4752 13.299 10.4752 13.304 10.4903Z" fill="#F5F5F5"/>
<path d="M9.70341 11.8414L9.73444 11.9344L9.83251 11.9352C9.84516 11.9353 9.85046 11.9515 9.84029 11.959L9.7614 12.0173L9.79098 12.1107C9.79482 12.1228 9.78104 12.1329 9.77068 12.1254L9.6909 12.0684L9.61112 12.1254C9.60076 12.1329 9.58702 12.1228 9.59082 12.1107L9.6204 12.0173L9.54151 11.959C9.53133 11.9515 9.53654 11.9353 9.54929 11.9352L9.64735 11.9344L9.67838 11.8414C9.68237 11.8293 9.69938 11.8293 9.70341 11.8414Z" fill="#F5F5F5"/>
<path d="M10.1772 13.1522L10.2242 13.2931L10.3727 13.2942C10.3919 13.2944 10.3999 13.3189 10.3844 13.3303L10.2649 13.4185L10.3098 13.5601C10.3156 13.5784 10.2947 13.5936 10.2791 13.5824L10.1582 13.4961L10.0374 13.5824C10.0218 13.5936 10.0009 13.5784 10.0067 13.5601L10.0515 13.4185L9.93199 13.3303C9.91652 13.3189 9.92449 13.2944 9.94371 13.2942L10.0922 13.2931L10.1392 13.1522C10.1454 13.134 10.1712 13.134 10.1772 13.1522Z" fill="#F5F5F5"/>
<path d="M13.8235 13.8428L13.853 13.9315L13.9464 13.9322C13.9585 13.9323 13.9635 13.9477 13.9538 13.9549L13.8787 14.0104L13.9069 14.0994C13.9105 14.111 13.8974 14.1205 13.8875 14.1135L13.8115 14.0591L13.7355 14.1135C13.7257 14.1205 13.7125 14.111 13.7161 14.0994L13.7443 14.0104L13.6692 13.9549C13.6595 13.9477 13.6645 13.9323 13.6766 13.9322L13.77 13.9315L13.7995 13.8428C13.8034 13.8314 13.8197 13.8314 13.8235 13.8428Z" fill="#F5F5F5"/>
<path d="M14.1499 13.1664L14.1879 13.2801L14.3078 13.2811C14.3233 13.2812 14.3298 13.301 14.3172 13.3102L14.2208 13.3814L14.2569 13.4958C14.2616 13.5106 14.2448 13.5228 14.2321 13.5138L14.1346 13.4441L14.037 13.5138C14.0244 13.5228 14.0075 13.5106 14.0122 13.4958L14.0484 13.3814L13.9519 13.3102C13.9394 13.301 13.9458 13.2812 13.9614 13.2811L14.0813 13.2801L14.1192 13.1664C14.1242 13.1517 14.145 13.1517 14.1499 13.1664Z" fill="#F5F5F5"/>
</g>
<defs>
<clipPath id="clip0_2489_28363">
<rect width="24" height="24" fill="white"/>
</clipPath>
</defs>
</svg>
