<svg width="24" height="24" viewBox="0 0 24 24" fill="none" xmlns="http://www.w3.org/2000/svg">
<g clip-path="url(#clip0_2489_28278)">
<path d="M23.5861 19.8621H0.413812C0.185297 19.8621 0 19.6768 0 19.4483V4.55174C0 4.32322 0.185297 4.13792 0.413812 4.13792H23.5862C23.8147 4.13792 24 4.32322 24 4.55174V19.4483C24 19.6768 23.8147 19.8621 23.5861 19.8621Z" fill="#F5F5F5"/>
<path d="M24 5.34753H0V4.55174C0 4.32322 0.185297 4.13792 0.413812 4.13792H23.5862C23.8147 4.13792 24 4.32322 24 4.55174L24 5.34753Z" fill="#FF4B55"/>
<path d="M24 8.97608H0V10.1856H24V8.97608Z" fill="#FF4B55"/>
<path d="M24 6.55688H0V7.76644H24V6.55688Z" fill="#FF4B55"/>
<path d="M24 12.6048H0.413812C0.185297 12.6048 0 12.4195 0 12.191V11.3952H24V12.6048Z" fill="#FF4B55"/>
<path d="M24 16.2337H0V17.4433H24V16.2337Z" fill="#FF4B55"/>
<path d="M23.5861 19.862H0.413812C0.185297 19.862 0 19.6767 0 19.4482V18.6525H24V19.4483C24 19.6768 23.8147 19.862 23.5861 19.862Z" fill="#FF4B55"/>
<path d="M24 13.8145H0V15.0241H24V13.8145Z" fill="#FF4B55"/>
<path d="M10.7586 4.13799H0.413812C0.185297 4.13799 0 4.32323 0 4.55175V12.191C0 12.4195 0.185297 12.6048 0.413812 12.6048H10.7586C10.9872 12.6048 11.1724 12.4195 11.1724 12.191V4.55175C11.1724 4.32323 10.9871 4.13799 10.7586 4.13799Z" fill="#41479B"/>
<path d="M1.16186 5.08774L1.25345 5.36243L1.543 5.36463C1.5805 5.36496 1.59601 5.41277 1.56587 5.43504L1.33295 5.60707L1.42033 5.88312C1.43167 5.91884 1.39094 5.94846 1.36042 5.92662L1.12488 5.75829L0.889329 5.92666C0.858813 5.94846 0.818173 5.91888 0.829423 5.88316L0.916798 5.60712L0.683876 5.43509C0.653736 5.41277 0.669251 5.36501 0.706751 5.36468L0.996297 5.36248L1.08789 5.08779C1.0997 5.05217 1.14995 5.05217 1.16186 5.08774Z" fill="#F5F5F5"/>
<path d="M1.16186 6.52461L1.25345 6.7993L1.543 6.8015C1.5805 6.80183 1.59601 6.84964 1.56587 6.87191L1.33295 7.04394L1.42033 7.31999C1.43167 7.35571 1.39094 7.38533 1.36042 7.36349L1.12488 7.19516L0.889329 7.36353C0.858813 7.38533 0.818173 7.35575 0.829423 7.32003L0.916798 7.04399L0.683876 6.87196C0.653736 6.84964 0.669251 6.80188 0.706751 6.80155L0.996297 6.79935L1.08789 6.52466C1.0997 6.48908 1.14995 6.48908 1.16186 6.52461Z" fill="#F5F5F5"/>
<path d="M1.16186 7.96152L1.25345 8.2362L1.543 8.23841C1.5805 8.23874 1.59601 8.28655 1.56587 8.30881L1.33295 8.48085L1.42033 8.75689C1.43167 8.79261 1.39094 8.82223 1.36042 8.80039L1.12488 8.63206L0.889329 8.80044C0.858813 8.82223 0.818173 8.79266 0.829423 8.75694L0.916798 8.48089L0.683876 8.30886C0.653736 8.28655 0.669251 8.23878 0.706751 8.23845L0.996297 8.23625L1.08789 7.96157C1.0997 7.92599 1.14995 7.92599 1.16186 7.96152Z" fill="#F5F5F5"/>
<path d="M1.16186 9.3985L1.25345 9.67318L1.543 9.67539C1.5805 9.67571 1.59601 9.72353 1.56587 9.74579L1.33295 9.91782L1.42033 10.1939C1.43167 10.2296 1.39094 10.2592 1.36042 10.2374L1.12488 10.069L0.889329 10.2374C0.858813 10.2592 0.818173 10.2296 0.829423 10.1939L0.916798 9.91787L0.683876 9.74584C0.653736 9.72353 0.669251 9.67576 0.706751 9.67543L0.996297 9.67323L1.08789 9.39854C1.0997 9.36292 1.14995 9.36292 1.16186 9.3985Z" fill="#F5F5F5"/>
<path d="M1.16186 10.8354L1.25345 11.1101L1.543 11.1123C1.5805 11.1126 1.59601 11.1604 1.56587 11.1827L1.33295 11.3547L1.42033 11.6307C1.43167 11.6665 1.39094 11.6961 1.36042 11.6742L1.12488 11.5059L0.889329 11.6743C0.858813 11.6961 0.818173 11.6665 0.829423 11.6308L0.916798 11.3547L0.683876 11.1827C0.653736 11.1604 0.669251 11.1126 0.706751 11.1123L0.996297 11.1101L1.08789 10.8354C1.0997 10.7997 1.14995 10.7997 1.16186 10.8354Z" fill="#F5F5F5"/>
<path d="M2.27709 5.7922L2.36869 6.06688L2.65823 6.06909C2.69573 6.06942 2.71125 6.11723 2.68111 6.13949L2.44819 6.31152L2.53556 6.58757C2.54691 6.62329 2.50617 6.65291 2.47566 6.63107L2.24011 6.4627L2.00456 6.63107C1.97405 6.65287 1.93341 6.62329 1.94466 6.58757L2.03203 6.31152L1.79911 6.13949C1.76897 6.11718 1.78449 6.06942 1.82199 6.06909L2.11153 6.06688L2.20313 5.7922C2.21489 5.75667 2.26523 5.75667 2.27709 5.7922Z" fill="#F5F5F5"/>
<path d="M2.27709 7.22914L2.36869 7.50382L2.65823 7.50603C2.69573 7.50635 2.71125 7.55417 2.68111 7.57643L2.44819 7.74846L2.53556 8.02451C2.54691 8.06023 2.50617 8.08985 2.47566 8.06801L2.24011 7.89963L2.00456 8.06801C1.97405 8.08981 1.93341 8.06027 1.94466 8.02451L2.03203 7.74846L1.79911 7.57643C1.76897 7.55412 1.78449 7.50635 1.82199 7.50603L2.11153 7.50382L2.20313 7.22914C2.21489 7.19356 2.26523 7.19356 2.27709 7.22914Z" fill="#F5F5F5"/>
<path d="M2.27709 8.66604L2.36869 8.94073L2.65823 8.94293C2.69573 8.94326 2.71125 8.99107 2.68111 9.01334L2.44819 9.18537L2.53556 9.46142C2.54691 9.49713 2.50617 9.52676 2.47566 9.50492L2.24011 9.33654L2.00456 9.50492C1.97405 9.52671 1.93341 9.49713 1.94466 9.46142L2.03203 9.18537L1.79911 9.01334C1.76897 8.99103 1.78449 8.94326 1.82199 8.94293L2.11153 8.94073L2.20313 8.66604C2.21489 8.63046 2.26523 8.63046 2.27709 8.66604Z" fill="#F5F5F5"/>
<path d="M2.27709 10.1029L2.36869 10.3776L2.65823 10.3798C2.69573 10.3802 2.71125 10.428 2.68111 10.4502L2.44819 10.6223L2.53556 10.8983C2.54691 10.934 2.50617 10.9637 2.47566 10.9418L2.24011 10.7734L2.00456 10.9418C1.97405 10.9636 1.93341 10.934 1.94466 10.8983L2.03203 10.6223L1.79911 10.4502C1.76897 10.4279 1.78449 10.3802 1.82199 10.3798L2.11153 10.3776L2.20313 10.1029C2.21489 10.0674 2.26523 10.0674 2.27709 10.1029Z" fill="#F5F5F5"/>
<path d="M3.39233 5.08772L3.48392 5.36241L3.77347 5.36461C3.81097 5.36494 3.82648 5.41275 3.79634 5.43501L3.56342 5.60704L3.6508 5.88309C3.66214 5.91881 3.62141 5.94843 3.59089 5.92659L3.35534 5.75822L3.1198 5.92659C3.08928 5.94839 3.04864 5.91881 3.05989 5.88309L3.14727 5.60704L2.91434 5.43501C2.8842 5.4127 2.89972 5.36494 2.93722 5.36461L3.22677 5.36241L3.31836 5.08772C3.33017 5.05214 3.38047 5.05214 3.39233 5.08772Z" fill="#F5F5F5"/>
<path d="M3.39233 6.52462L3.48392 6.79931L3.77347 6.80151C3.81097 6.80184 3.82648 6.84965 3.79634 6.87191L3.56342 7.04395L3.6508 7.31999C3.66214 7.35571 3.62141 7.38534 3.59089 7.36349L3.35534 7.19512L3.1198 7.36349C3.08928 7.38529 3.04864 7.35571 3.05989 7.31999L3.14727 7.04395L2.91434 6.87191C2.8842 6.8496 2.89972 6.80184 2.93722 6.80151L3.22677 6.79931L3.31836 6.52462C3.33017 6.48909 3.38047 6.48909 3.39233 6.52462Z" fill="#F5F5F5"/>
<path d="M3.39233 7.96152L3.48392 8.23621L3.77347 8.23842C3.81097 8.23874 3.82648 8.28656 3.79634 8.30882L3.56342 8.48085L3.6508 8.7569C3.66214 8.79262 3.62141 8.82224 3.59089 8.8004L3.35534 8.63202L3.1198 8.8004C3.08928 8.8222 3.04864 8.79262 3.05989 8.7569L3.14727 8.48085L2.91434 8.30882C2.8842 8.28651 2.89972 8.23874 2.93722 8.23842L3.22677 8.23621L3.31836 7.96152C3.33017 7.92599 3.38047 7.92599 3.39233 7.96152Z" fill="#F5F5F5"/>
<path d="M3.39233 9.39846L3.48392 9.67315L3.77347 9.67535C3.81097 9.67568 3.82648 9.72349 3.79634 9.74576L3.56342 9.91779L3.6508 10.1938C3.66214 10.2296 3.62141 10.2592 3.59089 10.2373L3.35534 10.069L3.1198 10.2373C3.08928 10.2591 3.04864 10.2296 3.05989 10.1938L3.14727 9.91779L2.91434 9.74576C2.8842 9.72345 2.89972 9.67568 2.93722 9.67535L3.22677 9.67315L3.31836 9.39846C3.33017 9.36289 3.38047 9.36289 3.39233 9.39846Z" fill="#F5F5F5"/>
<path d="M3.39233 10.8354L3.48392 11.1101L3.77347 11.1123C3.81097 11.1126 3.82648 11.1604 3.79634 11.1827L3.56342 11.3547L3.6508 11.6307C3.66214 11.6665 3.62141 11.6961 3.59089 11.6742L3.35534 11.5059L3.1198 11.6742C3.08928 11.696 3.04864 11.6665 3.05989 11.6307L3.14727 11.3547L2.91434 11.1827C2.8842 11.1604 2.89972 11.1126 2.93722 11.1123L3.22677 11.1101L3.31836 10.8354C3.33017 10.7997 3.38047 10.7997 3.39233 10.8354Z" fill="#F5F5F5"/>
<path d="M4.50756 5.7922L4.59916 6.06688L4.8887 6.06909C4.9262 6.06942 4.94172 6.11723 4.91158 6.13949L4.67866 6.31152L4.76603 6.58757C4.77737 6.62329 4.73664 6.65291 4.70612 6.63107L4.47058 6.4627L4.23503 6.63107C4.20452 6.65287 4.16388 6.62329 4.17513 6.58757L4.2625 6.31152L4.02958 6.13949C3.99944 6.11718 4.01495 6.06942 4.05245 6.06909L4.342 6.06688L4.43359 5.7922C4.44536 5.75667 4.4957 5.75667 4.50756 5.7922Z" fill="#F5F5F5"/>
<path d="M4.50756 7.22914L4.59916 7.50382L4.8887 7.50603C4.9262 7.50635 4.94172 7.55417 4.91158 7.57643L4.67866 7.74846L4.76603 8.02451C4.77737 8.06023 4.73664 8.08985 4.70612 8.06801L4.47058 7.89963L4.23503 8.06801C4.20452 8.08981 4.16388 8.06027 4.17513 8.02451L4.2625 7.74846L4.02958 7.57643C3.99944 7.55412 4.01495 7.50635 4.05245 7.50603L4.342 7.50382L4.43359 7.22914C4.44536 7.19356 4.4957 7.19356 4.50756 7.22914Z" fill="#F5F5F5"/>
<path d="M4.50756 8.66604L4.59916 8.94073L4.8887 8.94293C4.9262 8.94326 4.94172 8.99107 4.91158 9.01334L4.67866 9.18537L4.76603 9.46142C4.77737 9.49713 4.73664 9.52676 4.70612 9.50492L4.47058 9.33654L4.23503 9.50492C4.20452 9.52671 4.16388 9.49713 4.17513 9.46142L4.2625 9.18537L4.02958 9.01334C3.99944 8.99103 4.01495 8.94326 4.05245 8.94293L4.342 8.94073L4.43359 8.66604C4.44536 8.63046 4.4957 8.63046 4.50756 8.66604Z" fill="#F5F5F5"/>
<path d="M4.50756 10.1029L4.59916 10.3776L4.8887 10.3798C4.9262 10.3802 4.94172 10.428 4.91158 10.4502L4.67866 10.6223L4.76603 10.8983C4.77737 10.934 4.73664 10.9637 4.70612 10.9418L4.47058 10.7734L4.23503 10.9418C4.20452 10.9636 4.16388 10.934 4.17513 10.8983L4.2625 10.6223L4.02958 10.4502C3.99944 10.4279 4.01495 10.3802 4.05245 10.3798L4.342 10.3776L4.43359 10.1029C4.44536 10.0674 4.4957 10.0674 4.50756 10.1029Z" fill="#F5F5F5"/>
<path d="M5.62284 5.08772L5.71444 5.36241L6.00398 5.36461C6.04148 5.36494 6.057 5.41275 6.02686 5.43501L5.79394 5.60704L5.88131 5.88309C5.89266 5.91881 5.85192 5.94843 5.82141 5.92659L5.58581 5.75822L5.35027 5.92659C5.31975 5.94839 5.27911 5.91881 5.29036 5.88309L5.37774 5.60704L5.14481 5.43501C5.11467 5.4127 5.13019 5.36494 5.16769 5.36461L5.45723 5.36241L5.54883 5.08772C5.56069 5.05214 5.61098 5.05214 5.62284 5.08772Z" fill="#F5F5F5"/>
<path d="M5.62284 6.52462L5.71444 6.79931L6.00398 6.80151C6.04148 6.80184 6.057 6.84965 6.02686 6.87191L5.79394 7.04395L5.88131 7.31999C5.89266 7.35571 5.85192 7.38534 5.82141 7.36349L5.58581 7.19512L5.35027 7.36349C5.31975 7.38529 5.27911 7.35571 5.29036 7.31999L5.37774 7.04395L5.14481 6.87191C5.11467 6.8496 5.13019 6.80184 5.16769 6.80151L5.45723 6.79931L5.54883 6.52462C5.56069 6.48909 5.61098 6.48909 5.62284 6.52462Z" fill="#F5F5F5"/>
<path d="M5.62284 7.96152L5.71444 8.23621L6.00398 8.23842C6.04148 8.23874 6.057 8.28656 6.02686 8.30882L5.79394 8.48085L5.88131 8.7569C5.89266 8.79262 5.85192 8.82224 5.82141 8.8004L5.58581 8.63202L5.35027 8.8004C5.31975 8.8222 5.27911 8.79262 5.29036 8.7569L5.37774 8.48085L5.14481 8.30882C5.11467 8.28651 5.13019 8.23874 5.16769 8.23842L5.45723 8.23621L5.54883 7.96152C5.56069 7.92599 5.61098 7.92599 5.62284 7.96152Z" fill="#F5F5F5"/>
<path d="M5.62284 9.39846L5.71444 9.67315L6.00398 9.67535C6.04148 9.67568 6.057 9.72349 6.02686 9.74576L5.79394 9.91779L5.88131 10.1938C5.89266 10.2296 5.85192 10.2592 5.82141 10.2373L5.58581 10.069L5.35027 10.2373C5.31975 10.2591 5.27911 10.2296 5.29036 10.1938L5.37774 9.91779L5.14481 9.74576C5.11467 9.72345 5.13019 9.67568 5.16769 9.67535L5.45723 9.67315L5.54883 9.39846C5.56069 9.36289 5.61098 9.36289 5.62284 9.39846Z" fill="#F5F5F5"/>
<path d="M5.62284 10.8354L5.71444 11.1101L6.00398 11.1123C6.04148 11.1126 6.057 11.1604 6.02686 11.1827L5.79394 11.3547L5.88131 11.6307C5.89266 11.6665 5.85192 11.6961 5.82141 11.6742L5.58581 11.5059L5.35027 11.6742C5.31975 11.696 5.27911 11.6665 5.29036 11.6307L5.37774 11.3547L5.14481 11.1827C5.11467 11.1604 5.13019 11.1126 5.16769 11.1123L5.45723 11.1101L5.54883 10.8354C5.56069 10.7997 5.61098 10.7997 5.62284 10.8354Z" fill="#F5F5F5"/>
<path d="M6.73803 5.7922L6.82963 6.06688L7.11917 6.06909C7.15667 6.06942 7.17219 6.11723 7.14205 6.13949L6.90912 6.31152L6.9965 6.58757C7.00784 6.62329 6.96711 6.65291 6.93659 6.63107L6.70105 6.4627L6.4655 6.63107C6.43498 6.65287 6.39434 6.62329 6.40559 6.58757L6.49297 6.31152L6.26005 6.13949C6.22991 6.11718 6.24542 6.06942 6.28292 6.06909L6.57247 6.06688L6.66406 5.7922C6.67592 5.75667 6.72617 5.75667 6.73803 5.7922Z" fill="#F5F5F5"/>
<path d="M6.73803 7.22914L6.82963 7.50382L7.11917 7.50603C7.15667 7.50635 7.17219 7.55417 7.14205 7.57643L6.90912 7.74846L6.9965 8.02451C7.00784 8.06023 6.96711 8.08985 6.93659 8.06801L6.70105 7.89963L6.4655 8.06801C6.43498 8.08981 6.39434 8.06027 6.40559 8.02451L6.49297 7.74846L6.26005 7.57643C6.22991 7.55412 6.24542 7.50635 6.28292 7.50603L6.57247 7.50382L6.66406 7.22914C6.67592 7.19356 6.72617 7.19356 6.73803 7.22914Z" fill="#F5F5F5"/>
<path d="M6.73803 8.66604L6.82963 8.94073L7.11917 8.94293C7.15667 8.94326 7.17219 8.99107 7.14205 9.01334L6.90912 9.18537L6.9965 9.46142C7.00784 9.49713 6.96711 9.52676 6.93659 9.50492L6.70105 9.33654L6.4655 9.50492C6.43498 9.52671 6.39434 9.49713 6.40559 9.46142L6.49297 9.18537L6.26005 9.01334C6.22991 8.99103 6.24542 8.94326 6.28292 8.94293L6.57247 8.94073L6.66406 8.66604C6.67592 8.63046 6.72617 8.63046 6.73803 8.66604Z" fill="#F5F5F5"/>
<path d="M6.73803 10.1029L6.82963 10.3776L7.11917 10.3798C7.15667 10.3802 7.17219 10.428 7.14205 10.4502L6.90912 10.6223L6.9965 10.8983C7.00784 10.934 6.96711 10.9637 6.93659 10.9418L6.70105 10.7734L6.4655 10.9418C6.43498 10.9636 6.39434 10.934 6.40559 10.8983L6.49297 10.6223L6.26005 10.4502C6.22991 10.4279 6.24542 10.3802 6.28292 10.3798L6.57247 10.3776L6.66406 10.1029C6.67592 10.0674 6.72617 10.0674 6.73803 10.1029Z" fill="#F5F5F5"/>
<path d="M7.85424 5.08772L7.94584 5.36241L8.23538 5.36461C8.27288 5.36494 8.2884 5.41275 8.25826 5.43501L8.02534 5.60704L8.11271 5.88309C8.12406 5.91881 8.08332 5.94843 8.05281 5.92659L7.81726 5.75822L7.58171 5.92659C7.5512 5.94839 7.51056 5.91881 7.52181 5.88309L7.60918 5.60704L7.37626 5.43501C7.34612 5.4127 7.36163 5.36494 7.39913 5.36461L7.68868 5.36241L7.78027 5.08772C7.79204 5.05214 7.84238 5.05214 7.85424 5.08772Z" fill="#F5F5F5"/>
<path d="M7.85424 6.52462L7.94584 6.79931L8.23538 6.80151C8.27288 6.80184 8.2884 6.84965 8.25826 6.87191L8.02534 7.04395L8.11271 7.31999C8.12406 7.35571 8.08332 7.38534 8.05281 7.36349L7.81726 7.19512L7.58171 7.36349C7.5512 7.38529 7.51056 7.35571 7.52181 7.31999L7.60918 7.04395L7.37626 6.87191C7.34612 6.8496 7.36163 6.80184 7.39913 6.80151L7.68868 6.79931L7.78027 6.52462C7.79204 6.48909 7.84238 6.48909 7.85424 6.52462Z" fill="#F5F5F5"/>
<path d="M7.85424 7.96152L7.94584 8.23621L8.23538 8.23842C8.27288 8.23874 8.2884 8.28656 8.25826 8.30882L8.02534 8.48085L8.11271 8.7569C8.12406 8.79262 8.08332 8.82224 8.05281 8.8004L7.81726 8.63202L7.58171 8.8004C7.5512 8.8222 7.51056 8.79262 7.52181 8.7569L7.60918 8.48085L7.37626 8.30882C7.34612 8.28651 7.36163 8.23874 7.39913 8.23842L7.68868 8.23621L7.78027 7.96152C7.79204 7.92599 7.84238 7.92599 7.85424 7.96152Z" fill="#F5F5F5"/>
<path d="M7.85424 9.39846L7.94584 9.67315L8.23538 9.67535C8.27288 9.67568 8.2884 9.72349 8.25826 9.74576L8.02534 9.91779L8.11271 10.1938C8.12406 10.2296 8.08332 10.2592 8.05281 10.2373L7.81726 10.069L7.58171 10.2373C7.5512 10.2591 7.51056 10.2296 7.52181 10.1938L7.60918 9.91779L7.37626 9.74576C7.34612 9.72345 7.36163 9.67568 7.39913 9.67535L7.68868 9.67315L7.78027 9.39846C7.79204 9.36289 7.84238 9.36289 7.85424 9.39846Z" fill="#F5F5F5"/>
<path d="M7.85424 10.8354L7.94584 11.1101L8.23538 11.1123C8.27288 11.1126 8.2884 11.1604 8.25826 11.1827L8.02534 11.3547L8.11271 11.6307C8.12406 11.6665 8.08332 11.6961 8.05281 11.6742L7.81726 11.5059L7.58171 11.6742C7.5512 11.696 7.51056 11.6665 7.52181 11.6307L7.60918 11.3547L7.37626 11.1827C7.34612 11.1604 7.36163 11.1126 7.39913 11.1123L7.68868 11.1101L7.78027 10.8354C7.79204 10.7997 7.84238 10.7997 7.85424 10.8354Z" fill="#F5F5F5"/>
<path d="M8.96948 5.7922L9.06107 6.06688L9.35062 6.06909C9.38812 6.06942 9.40363 6.11723 9.37349 6.13949L9.14057 6.31152L9.22794 6.58757C9.23929 6.62329 9.19855 6.65291 9.16804 6.63107L8.93249 6.4627L8.69695 6.63107C8.66643 6.65287 8.62579 6.62329 8.63704 6.58757L8.72441 6.31152L8.49149 6.13949C8.46135 6.11718 8.47687 6.06942 8.51437 6.06909L8.80391 6.06688L8.89551 5.7922C8.90732 5.75667 8.95766 5.75667 8.96948 5.7922Z" fill="#F5F5F5"/>
<path d="M8.96948 7.22914L9.06107 7.50382L9.35062 7.50603C9.38812 7.50635 9.40363 7.55417 9.37349 7.57643L9.14057 7.74846L9.22794 8.02451C9.23929 8.06023 9.19855 8.08985 9.16804 8.06801L8.93249 7.89963L8.69695 8.06801C8.66643 8.08981 8.62579 8.06027 8.63704 8.02451L8.72441 7.74846L8.49149 7.57643C8.46135 7.55412 8.47687 7.50635 8.51437 7.50603L8.80391 7.50382L8.89551 7.22914C8.90732 7.19356 8.95766 7.19356 8.96948 7.22914Z" fill="#F5F5F5"/>
<path d="M8.96948 8.66604L9.06107 8.94073L9.35062 8.94293C9.38812 8.94326 9.40363 8.99107 9.37349 9.01334L9.14057 9.18537L9.22794 9.46142C9.23929 9.49713 9.19855 9.52676 9.16804 9.50492L8.93249 9.33654L8.69695 9.50492C8.66643 9.52671 8.62579 9.49713 8.63704 9.46142L8.72441 9.18537L8.49149 9.01334C8.46135 8.99103 8.47687 8.94326 8.51437 8.94293L8.80391 8.94073L8.89551 8.66604C8.90732 8.63046 8.95766 8.63046 8.96948 8.66604Z" fill="#F5F5F5"/>
<path d="M8.96948 10.1029L9.06107 10.3776L9.35062 10.3798C9.38812 10.3802 9.40363 10.428 9.37349 10.4502L9.14057 10.6223L9.22794 10.8983C9.23929 10.934 9.19855 10.9637 9.16804 10.9418L8.93249 10.7734L8.69695 10.9418C8.66643 10.9636 8.62579 10.934 8.63704 10.8983L8.72441 10.6223L8.49149 10.4502C8.46135 10.4279 8.47687 10.3802 8.51437 10.3798L8.80391 10.3776L8.89551 10.1029C8.90732 10.0674 8.95766 10.0674 8.96948 10.1029Z" fill="#F5F5F5"/>
<path d="M10.0847 5.08772L10.1763 5.36241L10.4659 5.36461C10.5034 5.36494 10.5189 5.41275 10.4887 5.43501L10.2558 5.60704L10.3432 5.88309C10.3545 5.91881 10.3138 5.94843 10.2833 5.92659L10.0477 5.75822L9.81218 5.92659C9.78167 5.94839 9.74102 5.91881 9.75227 5.88309L9.83965 5.60704L9.60673 5.43501C9.57659 5.4127 9.5921 5.36494 9.6296 5.36461L9.91915 5.36241L10.0107 5.08772C10.0226 5.05214 10.0728 5.05214 10.0847 5.08772Z" fill="#F5F5F5"/>
<path d="M10.0847 6.52462L10.1763 6.79931L10.4659 6.80151C10.5034 6.80184 10.5189 6.84965 10.4887 6.87191L10.2558 7.04395L10.3432 7.31999C10.3545 7.35571 10.3138 7.38534 10.2833 7.36349L10.0477 7.19512L9.81218 7.36349C9.78167 7.38529 9.74102 7.35571 9.75227 7.31999L9.83965 7.04395L9.60673 6.87191C9.57659 6.8496 9.5921 6.80184 9.6296 6.80151L9.91915 6.79931L10.0107 6.52462C10.0226 6.48909 10.0728 6.48909 10.0847 6.52462Z" fill="#F5F5F5"/>
<path d="M10.0847 7.96152L10.1763 8.23621L10.4659 8.23842C10.5034 8.23874 10.5189 8.28656 10.4887 8.30882L10.2558 8.48085L10.3432 8.7569C10.3545 8.79262 10.3138 8.82224 10.2833 8.8004L10.0477 8.63202L9.81218 8.8004C9.78167 8.8222 9.74102 8.79262 9.75227 8.7569L9.83965 8.48085L9.60673 8.30882C9.57659 8.28651 9.5921 8.23874 9.6296 8.23842L9.91915 8.23621L10.0107 7.96152C10.0226 7.92599 10.0728 7.92599 10.0847 7.96152Z" fill="#F5F5F5"/>
<path d="M10.0847 9.39846L10.1763 9.67315L10.4659 9.67535C10.5034 9.67568 10.5189 9.72349 10.4887 9.74576L10.2558 9.91779L10.3432 10.1938C10.3545 10.2296 10.3138 10.2592 10.2833 10.2373L10.0477 10.069L9.81218 10.2373C9.78167 10.2591 9.74102 10.2296 9.75227 10.1938L9.83965 9.91779L9.60673 9.74576C9.57659 9.72345 9.5921 9.67568 9.6296 9.67535L9.91915 9.67315L10.0107 9.39846C10.0226 9.36289 10.0728 9.36289 10.0847 9.39846Z" fill="#F5F5F5"/>
<path d="M10.0847 10.8354L10.1763 11.1101L10.4659 11.1123C10.5034 11.1126 10.5189 11.1604 10.4887 11.1827L10.2558 11.3547L10.3432 11.6307C10.3545 11.6665 10.3138 11.6961 10.2833 11.6742L10.0477 11.5059L9.81218 11.6742C9.78167 11.696 9.74102 11.6665 9.75227 11.6307L9.83965 11.3547L9.60673 11.1827C9.57659 11.1604 9.5921 11.1126 9.6296 11.1123L9.91915 11.1101L10.0107 10.8354C10.0226 10.7997 10.0728 10.7997 10.0847 10.8354Z" fill="#F5F5F5"/>
</g>
<defs>
<clipPath id="clip0_2489_28278">
<rect width="24" height="24" fill="white"/>
</clipPath>
</defs>
</svg>
